<svg width="40" height="40" viewBox="0 0 40 40" fill="none" xmlns="http://www.w3.org/2000/svg">
<path d="M20 40C31.0457 40 40 31.0457 40 20C40 8.9543 31.0457 0 20 0C8.9543 0 0 8.9543 0 20C0 31.0457 8.9543 40 20 40Z" fill="#FFCD83"/>
<path d="M10 23.666C10 26.4278 13.5827 28.666 18 28.666C22.4173 28.666 26 26.4278 26 23.666C26 20.9042 22.4173 18.666 18 18.666C13.5827 18.666 10 20.9042 10 23.666Z" fill="white"/>
<path fill-rule="evenodd" clip-rule="evenodd" d="M25.7881 19.9321L25.7965 19.9347C27.1564 20.361 28.6699 21.3922 28.6667 23.21C28.6667 26.2144 24.381 29.9987 17.9378 29.9987C13.0245 29.9987 8 27.5893 8 23.6298C8 21.5575 9.2978 19.1613 11.5305 16.9039C14.5151 13.8864 17.9966 12.5114 19.3042 13.8368C19.8796 14.4218 19.9351 15.4298 19.5657 16.6362C19.3696 17.241 20.128 16.9072 20.128 16.9072C22.5405 15.8859 24.6458 15.8265 25.414 16.937C25.8259 17.5319 25.7867 18.3615 25.4075 19.3232C25.2357 19.7624 25.4592 19.8311 25.7881 19.9321ZM10.3896 24.575C10.6446 27.1761 14.0313 28.9708 17.9541 28.5775C21.8737 28.1875 24.8484 25.7583 24.5902 23.1538C24.3385 20.5527 20.9518 18.7581 17.029 19.1514C13.1094 19.5447 10.1346 21.9706 10.3896 24.575Z" fill="#E6162D"/>
<path d="M30.3127 12.6981C28.6882 11.0037 26.2925 10.3587 24.0811 10.8015C23.5692 10.9042 23.245 11.3792 23.3542 11.8573C23.4634 12.3387 23.965 12.6435 24.4769 12.5408C26.0502 12.2264 27.7531 12.6853 28.9066 13.8886C30.0601 15.092 30.3741 16.7319 29.8793 18.1695C29.7189 18.638 29.9919 19.1386 30.4901 19.2895C30.9884 19.4403 31.5208 19.1836 31.6812 18.7183V18.715C32.3774 16.6966 31.9371 14.3893 30.3127 12.6981Z" fill="#FF9933"/>
<path d="M27.8158 15.0358C26.9947 14.1714 25.7843 13.8417 24.6694 14.0705C24.2129 14.1613 23.9226 14.5918 24.0182 15.0257C24.1173 15.4596 24.5668 15.7355 25.0198 15.6413C25.5649 15.5303 26.1595 15.6917 26.5594 16.1122C26.9593 16.536 27.069 17.1112 26.8956 17.6157C26.754 18.0362 26.9947 18.4902 27.4407 18.6282C27.8866 18.7627 28.3609 18.534 28.506 18.1102C28.8564 17.0775 28.6369 15.9003 27.8158 15.0358Z" fill="#FF9933"/>
<path fill-rule="evenodd" clip-rule="evenodd" d="M13.6788 23.5864C14.5421 21.9152 16.7874 20.9683 18.7751 21.4634C20.8324 21.9717 21.8837 23.8223 21.0413 25.623C20.1884 27.4603 17.7377 28.4437 15.656 27.8025C13.6509 27.1845 12.7981 25.2908 13.6788 23.5864ZM18.5906 24.1877C18.4444 24.4269 18.1207 24.5399 17.87 24.4402C17.6194 24.3439 17.5428 24.0748 17.6855 23.8422C17.8317 23.6096 18.1416 23.4967 18.3887 23.5897C18.6394 23.6761 18.7299 23.9452 18.5906 24.1877ZM17.2573 25.8157C16.8535 26.4304 15.9867 26.6995 15.3358 26.4171C14.6952 26.138 14.5038 25.4237 14.9076 24.8223C15.3079 24.2243 16.1434 23.9585 16.7909 24.2176C17.4453 24.4868 17.6542 25.1944 17.2573 25.8157Z" fill="black"/>
</svg>
