<svg width="48" height="48" viewBox="0 0 48 48" fill="none" xmlns="http://www.w3.org/2000/svg">
<path d="M24 43.8632C34.9401 43.8632 43.8632 34.9743 43.8632 24C43.8632 13.0256 34.9401 4.13672 24 4.13672C13.0598 4.13672 4.13672 13.0598 4.13672 24C4.13672 34.9401 13.0598 43.8632 24 43.8632ZM24 6.94014C33.4017 6.94014 41.0598 14.5983 41.0598 24C41.0598 33.4017 33.4017 41.0598 24 41.0598C14.5983 41.0598 6.94014 33.4017 6.94014 24C6.94014 14.5983 14.5983 6.94014 24 6.94014Z" fill="#FB1818"/>
<path d="M16.547 31.2479C16.8205 31.5214 17.1624 31.6581 17.5384 31.6581C17.9145 31.6581 18.2564 31.5214 18.5299 31.2479L24 25.7778L29.47 31.2479C29.7436 31.5214 30.0854 31.6581 30.4615 31.6581C30.8376 31.6581 31.1795 31.5214 31.453 31.2479C32 30.7009 32 29.812 31.453 29.265L25.9829 23.7949L31.453 18.3248C32 17.7778 32 16.8889 31.453 16.3419C30.9059 15.7949 30.0171 15.7949 29.47 16.3419L24 21.812L18.5299 16.3419C17.9829 15.7949 17.094 15.7949 16.547 16.3419C16 16.8889 16 17.7778 16.547 18.3248L22.0171 23.7949L16.547 29.265C16 29.812 16 30.7009 16.547 31.2479Z" fill="#FB1818"/>
</svg>
