<svg width="40" height="40" viewBox="0 0 40 40" fill="none" xmlns="http://www.w3.org/2000/svg">
<path d="M0 20C0 8.9543 8.9543 0 20 0C31.0457 0 40 8.9543 40 20C40 31.0457 31.0457 40 20 40C8.9543 40 0 31.0457 0 20Z" fill="#45B035"/>
<path fill-rule="evenodd" clip-rule="evenodd" d="M25.6026 16.0799C25.47 16.0726 25.3366 16.0713 25.202 16.0713C20.4126 16.0713 16.5273 19.3259 16.5273 23.3426C16.5273 23.9999 16.6346 24.6366 16.83 25.2426C16.618 25.2532 16.4046 25.2619 16.19 25.2619C15.1373 25.2619 14.1226 25.1192 13.1766 24.8559C13.1226 24.8399 13.0146 24.8092 13.0146 24.8092L9.57196 26.5626L10.492 23.6806L10.4046 23.6252C8.13196 22.1699 6.66663 19.8773 6.66663 17.2979C6.66663 12.8993 10.93 9.33325 16.19 9.33325C20.954 9.33325 24.9013 12.2579 25.6026 16.0799ZM12.876 15.8499C12.1373 15.8499 11.5386 15.2693 11.5386 14.5546C11.5386 13.8393 12.1373 13.2606 12.876 13.2606C13.6146 13.2606 14.2146 13.8393 14.2146 14.5546C14.2146 15.2693 13.6146 15.8499 12.876 15.8499ZM19.504 13.2606C20.2426 13.2606 20.8406 13.8393 20.8406 14.5546C20.8406 15.2693 20.2426 15.8499 19.504 15.8499C18.7646 15.8499 18.1673 15.2693 18.1673 14.5546C18.1673 13.8393 18.7646 13.2606 19.504 13.2606Z" fill="white"/>
<path fill-rule="evenodd" clip-rule="evenodd" d="M25.2748 30.1187C20.8308 30.1187 17.2274 27.106 17.2274 23.3894C17.2274 19.674 20.8308 16.6614 25.2748 16.6614C29.7168 16.6614 33.3188 19.674 33.3188 23.3894C33.3188 25.5694 32.0801 27.506 30.1608 28.7354L30.0868 28.7814L30.8641 31.2174L27.9568 29.7347C27.9568 29.7347 27.8654 29.762 27.8194 29.774C27.0208 29.9974 26.1634 30.1187 25.2748 30.1187ZM21.3441 21.0714C21.3441 20.4687 21.8508 19.9787 22.4741 19.9787C23.0988 19.9787 23.6048 20.4687 23.6048 21.0714C23.6048 21.6767 23.0988 22.1674 22.4741 22.1674C21.8508 22.1674 21.3441 21.6767 21.3441 21.0714ZM26.9434 21.0714C26.9434 20.4687 27.4488 19.9787 28.0728 19.9787C28.6974 19.9787 29.2028 20.4687 29.2028 21.0714C29.2028 21.6767 28.6974 22.1674 28.0728 22.1674C27.4488 22.1674 26.9434 21.6767 26.9434 21.0714Z" fill="white"/>
</svg>
