<svg width="12" height="13" viewBox="0 0 12 13" fill="none" xmlns="http://www.w3.org/2000/svg">
<path d="M4.84661 1.50003C5.06512 1.49813 5.27564 1.58213 5.43281 1.73393L9.03244 5.63451C9.18867 5.79079 9.27644 6.00271 9.27644 6.22368C9.27644 6.44465 9.18867 6.65657 9.03244 6.81285L5.43281 10.6783C5.35594 10.7579 5.26398 10.8214 5.1623 10.8651C5.06063 10.9088 4.95127 10.9317 4.84062 10.9327C4.72996 10.9337 4.62022 10.9126 4.5178 10.8707C4.41539 10.8288 4.32234 10.7669 4.24409 10.6887C4.16584 10.6104 4.10396 10.5174 4.06206 10.415C4.02016 10.3125 3.99907 10.2028 4.00003 10.0922C4.00099 9.98152 4.02398 9.87217 4.06766 9.7705C4.11134 9.66883 4.17482 9.57687 4.25442 9.5L7.26485 6.22368L4.25442 2.91226C4.10261 2.75509 4.01861 2.54459 4.02051 2.32609C4.02241 2.10759 4.11006 1.89858 4.26457 1.74408C4.41909 1.58957 4.62811 1.50193 4.84661 1.50003Z" fill="#999999"/>
</svg>
