<svg width="48" height="48" viewBox="0 0 48 48" fill="none" xmlns="http://www.w3.org/2000/svg">
<path d="M15.7955 22.8378C15.2485 22.2908 14.3596 22.2908 13.8126 22.8378C13.2656 23.3848 13.2656 24.2737 13.8126 24.8207L20.2741 31.2822C20.5476 31.5557 20.8895 31.6925 21.2656 31.6925C21.2998 31.6925 21.2998 31.6925 21.334 31.6925C21.71 31.6583 22.0861 31.4874 22.3596 31.1797L38.5306 11.795C39.0092 11.2139 38.9408 10.325 38.3596 9.81214C37.7784 9.33351 36.8895 9.40189 36.3767 9.98308L21.163 28.2053L15.7955 22.8378Z" fill="#2DB553"/>
<path d="M34.462 7.17941C26.5987 2.25634 16.5133 3.41873 9.94917 9.98283C2.22267 17.7093 2.22267 30.3247 9.94917 38.0512C13.8124 41.9145 18.9064 43.8632 23.9663 43.8632C29.0261 43.8632 34.1201 41.9145 37.9834 38.0512C44.5816 31.4529 45.7099 21.3333 40.7526 13.47C40.3423 12.8204 39.4876 12.6153 38.8381 13.0256C38.1885 13.4358 37.9834 14.2905 38.3936 14.9401C42.6671 21.7093 41.6757 30.3931 36.0005 36.0683C29.368 42.7008 18.5304 42.7008 11.8979 36.0683C5.26541 29.4358 5.26541 18.5982 11.8979 11.9657C17.5731 6.32471 26.2227 5.33326 32.9919 9.53839C33.6415 9.94864 34.4962 9.74351 34.9064 9.09394C35.3167 8.44437 35.1116 7.58967 34.462 7.17941Z" fill="#2DB553"/>
</svg>
