<svg width="20" height="20" viewBox="0 0 20 20" fill="none" xmlns="http://www.w3.org/2000/svg">
<path fill-rule="evenodd" clip-rule="evenodd" d="M8.33333 4.16666C7.22826 4.16666 6.16846 4.60564 5.38706 5.38705C4.60565 6.16845 4.16667 7.22826 4.16667 8.33332C4.16667 9.43839 4.60565 10.4982 5.38706 11.2796C6.16846 12.061 7.22826 12.5 8.33333 12.5C9.4384 12.5 10.4982 12.061 11.2796 11.2796C12.061 10.4982 12.5 9.43839 12.5 8.33332C12.5 7.22826 12.061 6.16845 11.2796 5.38705C10.4982 4.60564 9.4384 4.16666 8.33333 4.16666ZM2.5 8.33332C2.5 7.40937 2.71948 6.49864 3.14036 5.67612C3.56124 4.85359 4.17148 4.14281 4.92084 3.6023C5.67019 3.06179 6.53722 2.70702 7.45053 2.56719C8.36384 2.42736 9.2973 2.50648 10.174 2.79803C11.0508 3.08958 11.8457 3.58523 12.4934 4.24415C13.1411 4.90308 13.623 5.70643 13.8995 6.58806C14.1759 7.46968 14.239 8.40436 14.0835 9.31513C13.9279 10.2259 13.5583 11.0867 13.005 11.8267L17.2558 16.0767C17.4122 16.2329 17.5001 16.4449 17.5002 16.6659C17.5002 16.887 17.4125 17.099 17.2563 17.2554C17.1 17.4118 16.888 17.4997 16.667 17.4997C16.4459 17.4998 16.2339 17.4121 16.0775 17.2558L11.8275 13.0058C10.9604 13.6544 9.92994 14.0489 8.85139 14.1451C7.77284 14.2412 6.68882 14.0353 5.72067 13.5503C4.75253 13.0653 3.93848 12.3205 3.36967 11.3991C2.80086 10.4777 2.49973 9.41615 2.5 8.33332Z" fill="white"/>
</svg>
