<svg width="40" height="40" viewBox="0 0 40 40" fill="none" xmlns="http://www.w3.org/2000/svg">
<path d="M20 40C31.0457 40 40 31.0457 40 20C40 8.9543 31.0457 0 20 0C8.9543 0 0 8.9543 0 20C0 31.0457 8.9543 40 20 40Z" fill="#83BCFF"/>
<path d="M16.236 30C15.362 30 14.4873 29.6676 13.8218 29.0021L10.9982 26.1784C9.66726 24.8467 9.66726 22.6809 10.9982 21.3492L13.3473 19C13.9925 18.3548 14.8498 18 15.7623 18C16.6748 18 17.532 18.3548 18.1765 19C18.4564 19.2799 18.4564 19.7341 18.1765 20.0133C17.8966 20.2932 17.4431 20.2932 17.1632 20.0133C16.4144 19.2638 15.1094 19.2652 14.3606 20.0133L12.0115 22.3625C11.2396 23.1351 11.2396 24.3926 12.0115 25.1652L14.8351 27.9888C15.6083 28.7614 16.8658 28.7614 17.6376 27.9888L19.9868 25.6396C20.3611 25.2652 20.5669 24.7677 20.5669 24.2379C20.5669 23.7089 20.3611 23.2113 19.9868 22.8369C19.7069 22.5577 19.7069 22.1036 19.9868 21.8237C20.2667 21.5437 20.7201 21.5437 21 21.8237C21.6452 22.4682 22 23.3254 22 24.2379C22 25.1505 21.6452 26.0077 21 26.6529L18.6509 29.0021C17.9854 29.6676 17.1107 30 16.236 30Z" fill="white"/>
<path d="M24.2377 22C23.3252 22 22.468 21.6452 21.8235 21C21.5436 20.7201 21.5436 20.266 21.8235 19.9868C22.1034 19.7069 22.5569 19.7069 22.8368 19.9868C23.5863 20.7369 24.8913 20.7355 25.6394 19.9868L27.9885 17.6376C28.7604 16.8651 28.7604 15.6076 27.9885 14.8351L25.1649 12.0115C24.3924 11.2382 23.1349 11.2396 22.3624 12.0115L20.0132 14.3606C19.6389 14.735 19.4331 15.2325 19.4331 15.7623C19.4331 16.2913 19.6389 16.7888 20.0132 17.1632C20.2931 17.4424 20.2931 17.8966 20.0132 18.1765C19.7333 18.4564 19.2799 18.4564 19 18.1765C18.3548 17.532 18 16.6748 18 15.7623C18 14.8498 18.3548 13.9925 19 13.3473L21.3491 10.9982C22.6794 9.66796 24.8465 9.66656 26.1782 10.9982L29.0018 13.8218C30.3327 15.1535 30.3327 17.3192 29.0018 18.6509L26.6527 21C26.0075 21.6452 25.1502 22 24.2377 22Z" fill="white"/>
<path d="M15.7188 25C15.5349 25 15.351 24.9298 15.2106 24.7894C14.9298 24.5086 14.9298 24.0538 15.2106 23.773L23.773 15.2106C24.0538 14.9298 24.5086 14.9298 24.7894 15.2106C25.0702 15.4914 25.0702 15.9462 24.7894 16.227L16.227 24.7894C16.0866 24.9298 15.9027 25 15.7188 25Z" fill="white"/>
</svg>
