<svg width="24" height="24" viewBox="0 0 24 24" fill="none" xmlns="http://www.w3.org/2000/svg">
<path fill-rule="evenodd" clip-rule="evenodd" d="M8.98222 2.7002C8.195 2.7002 7.42931 3.06462 7.15355 3.88754L6.51124 5.7002H4.40022C3.56106 5.7002 2.87678 6.05317 2.40771 6.61929C1.94292 7.18025 1.69922 7.93704 1.69922 8.7432V18.5132C1.69922 19.3213 1.94448 20.0228 2.42128 20.5244C2.89989 21.0279 3.5836 21.3002 4.40022 21.3002H19.5972C20.4143 21.3002 21.0982 21.0279 21.577 20.5244C22.054 20.0228 22.2992 19.3213 22.2992 18.5132V8.7432C22.2992 7.93704 22.0555 7.18025 21.5907 6.61929C21.1217 6.05317 20.4374 5.7002 19.5982 5.7002H17.4872L16.8449 3.88752C16.5691 3.06461 15.8034 2.7002 15.0162 2.7002H8.98222ZM8.75182 4.36706C8.75773 4.34934 8.76342 4.34277 8.76545 4.34059C8.76781 4.33806 8.77327 4.33302 8.78691 4.32693C8.8199 4.31222 8.88019 4.3002 8.98222 4.3002H15.0162C15.1036 4.3002 15.1612 4.31533 15.1943 4.3327C15.2194 4.34591 15.2352 4.36173 15.2465 4.39569L16.0853 6.819C16.1505 7.0123 16.2812 7.14232 16.4405 7.2162C16.5879 7.28462 16.7485 7.3002 16.8842 7.3002H19.5982C19.9407 7.3002 20.2054 7.45693 20.3938 7.71306C20.5873 7.9762 20.6992 8.34654 20.6992 8.7432V18.5132C20.6992 18.908 20.5891 19.2002 20.4144 19.3907C20.243 19.5776 19.9788 19.7002 19.5982 19.7002H4.40022C4.01966 19.7002 3.75548 19.5776 3.58406 19.3907C3.40935 19.2002 3.29922 18.908 3.29922 18.5132V8.7432C3.29922 8.34654 3.41113 7.9762 3.60465 7.71306C3.79301 7.45693 4.0577 7.3002 4.40022 7.3002H7.11422C7.41701 7.3002 7.78144 7.17455 7.9131 6.78421L8.75066 4.37055L8.75182 4.36706Z" fill="#CCCCCC"/>
<path fill-rule="evenodd" clip-rule="evenodd" d="M12.0014 7.3584C8.84275 7.3584 6.27344 9.92771 6.27344 13.0864C6.27344 16.2452 8.84282 18.8134 12.0014 18.8134C15.1601 18.8134 17.7294 16.2441 17.7294 13.0854C17.7294 9.92664 15.1601 7.3584 12.0014 7.3584ZM7.95944 13.0864C7.95944 10.858 9.77321 9.0434 12.0014 9.0434C14.2298 9.0434 16.0434 10.8571 16.0434 13.0854C16.0434 15.3138 14.2297 17.1284 12.0014 17.1284C9.77312 17.1284 7.95944 15.3147 7.95944 13.0864Z" fill="#CCCCCC"/>
</svg>
