<svg width="20" height="20" viewBox="0 0 20 20" fill="none" xmlns="http://www.w3.org/2000/svg">
<path d="M19.2311 10.0003C19.2311 4.91053 15.0904 0.769531 10.0003 0.769531C4.91016 0.769531 0.769531 4.91053 0.769531 10.0003C0.769531 12.6031 1.85661 14.9531 3.59541 16.6328C3.63612 16.6858 3.68434 16.7288 3.74077 16.765C5.38787 18.2902 7.58359 19.2311 10.0003 19.2311C12.417 19.2311 14.6127 18.2902 16.2598 16.765C16.3163 16.7288 16.3645 16.6858 16.4052 16.6328C18.144 14.9531 19.2311 12.6031 19.2311 10.0003ZM10.0003 1.92338C14.4542 1.92338 18.0772 5.5468 18.0772 10.0003C18.0772 11.8887 17.4209 13.624 16.3309 15.001C15.8305 13.3872 14.4019 12.1239 12.4631 11.5427C13.5197 10.778 14.2108 9.53911 14.2108 8.1392C14.2108 5.82061 12.3223 3.93435 10.0003 3.93435C7.67834 3.93435 5.78981 5.82061 5.78981 8.1392C5.78981 9.53911 6.48092 10.778 7.53753 11.5427C5.59868 12.1239 4.17013 13.3872 3.66973 15.001C2.57974 13.624 1.92338 11.8887 1.92338 10.0003C1.92338 5.5468 5.54642 1.92338 10.0003 1.92338ZM6.94366 8.1392C6.94366 6.45688 8.3146 5.08819 10.0003 5.08819C11.686 5.08819 13.0569 6.45688 13.0569 8.1392C13.0569 9.82151 11.686 11.1902 10.0003 11.1902C8.3146 11.1902 6.94366 9.82151 6.94366 8.1392ZM4.63935 16.0249C4.81278 13.9096 7.05596 12.3441 10.0003 12.3441C12.9446 12.3441 15.1878 13.9096 15.3613 16.0249C13.9335 17.2969 12.0585 18.0772 10.0003 18.0772C7.94205 18.0772 6.06715 17.2969 4.63935 16.0249Z" fill="white"/>
</svg>
