<svg width="154" height="35" viewBox="0 0 154 35" fill="none" xmlns="http://www.w3.org/2000/svg">
<path d="M17.8 31.416C17.8213 31.3947 17.864 31.3627 17.928 31.32C17.992 31.3627 18.0453 31.3947 18.088 31.416C17.9813 31.4373 17.8853 31.4373 17.8 31.416ZM18.568 31.288C18.5893 31.2667 18.6427 31.256 18.728 31.256C18.8133 31.256 18.856 31.2667 18.856 31.288C18.7707 31.3093 18.6747 31.3093 18.568 31.288ZM20.904 30.552L21.32 30.392C21.32 30.392 21.2987 30.424 21.256 30.488C21.1707 30.5947 20.936 30.7227 20.552 30.872C20.168 31.0213 19.8693 31.128 19.656 31.192H19.464C19.4853 31.1493 19.624 31.0853 19.88 31C20.3067 30.8293 20.648 30.68 20.904 30.552ZM6.28 21.784C6.408 21.72 6.504 21.688 6.568 21.688C6.696 21.688 6.94133 22.008 7.304 22.648C7.368 22.7973 7.50667 22.9893 7.72 23.224C7.95467 23.4587 8.104 23.704 8.168 23.96C8.36 24.6213 8.808 25.2933 9.512 25.976C10.2587 26.68 11.0907 27.1387 12.008 27.352C13.6293 27.7147 15.112 27.672 16.456 27.224C16.8187 27.1387 17.064 26.9787 17.192 26.744C17.32 26.5093 17.3733 25.848 17.352 24.76C17.352 23.672 17.384 23.128 17.448 23.128C17.512 23.128 17.544 23.192 17.544 23.32C17.544 23.6187 17.6613 23.768 17.896 23.768C18.024 23.768 18.0987 23.6827 18.12 23.512C18.1627 23.3413 18.216 23.256 18.28 23.256C18.3653 23.256 18.4613 23.3413 18.568 23.512C18.696 23.6827 18.792 23.8427 18.856 23.992C18.92 24.2907 18.9947 24.44 19.08 24.44C19.1227 24.4827 19.1653 24.472 19.208 24.408C19.272 24.28 19.3787 24.3973 19.528 24.76C19.6133 24.9093 19.688 25.08 19.752 25.272C19.7733 25.5067 19.848 25.688 19.976 25.816C20.04 25.9227 20.1467 26.1467 20.296 26.488C20.4453 26.808 20.52 26.9893 20.52 27.032C20.4773 27.0747 20.4667 27.096 20.488 27.096C20.5307 27.1173 20.5733 27.128 20.616 27.128C20.7227 27.128 20.84 27.256 20.968 27.512C21.096 27.768 21.224 27.9173 21.352 27.96C21.48 28.0027 21.544 28.0667 21.544 28.152C21.544 28.2373 21.5867 28.312 21.672 28.376C21.7787 28.4613 21.8 28.6533 21.736 28.952C21.672 29.272 21.448 29.6027 21.064 29.944C20.7013 30.2853 20.392 30.5307 20.136 30.68C19.944 30.7867 19.6453 30.8827 19.24 30.968C18.856 31.0747 18.536 31.128 18.28 31.128C18.152 31.128 17.7147 31.128 16.968 31.128C16.0293 31.128 14.76 30.9893 13.16 30.712C12.7547 30.6693 12.4987 30.5733 12.392 30.424C12.2853 30.2747 12.072 30.136 11.752 30.008C10.4507 29.432 9.352 28.4933 8.456 27.192C7.38933 25.6987 6.78133 24.7173 6.632 24.248C6.568 24.0987 6.472 23.6827 6.344 23C6.23733 22.4667 6.184 22.1573 6.184 22.072C6.184 21.9653 6.216 21.8693 6.28 21.784ZM2.888 21.368C2.86667 21.2187 2.89867 21.1013 2.984 21.016C3.09067 20.9307 3.16533 20.888 3.208 20.888C3.25067 20.888 3.368 20.9413 3.56 21.048C3.85867 21.2613 4.2 21.592 4.584 22.04C4.98933 22.488 5.288 22.904 5.48 23.288C5.65067 23.6507 5.72533 24.0667 5.704 24.536C5.66133 25.4533 5.544 26.008 5.352 26.2C5.288 26.2427 5.256 26.3173 5.256 26.424C5.256 26.5307 5.16 26.776 4.968 27.16L4.328 28.536C3.77333 29.688 3.41067 30.264 3.24 30.264C3.176 30.264 3.10133 30.328 3.016 30.456L2.888 30.68L2.664 30.392C2.51467 30.2213 2.44 30.104 2.44 30.04C2.44 29.9973 2.35467 29.9013 2.184 29.752C1.608 29.0693 1.33067 28.5787 1.352 28.28C1.37333 27.768 1.20267 27.416 0.84 27.224L0.648 27.128L0.84 26.968C0.989333 26.8613 1.04267 26.7227 1 26.552C0.978667 26.3813 1.02133 26.2213 1.128 26.072C1.256 25.9013 1.34133 25.7413 1.384 25.592C1.42667 25.4427 1.49067 25.3573 1.576 25.336C1.68267 25.2933 1.736 25.208 1.736 25.08C1.736 24.952 1.87467 24.5467 2.152 23.864C2.68533 22.584 2.93067 21.752 2.888 21.368ZM15.656 20.504C15.72 20.3973 15.784 20.3333 15.848 20.312L15.784 20.44C15.784 20.4613 15.7733 20.4827 15.752 20.504C15.4747 20.888 15.4107 21.0693 15.56 21.048C15.6453 21.0267 15.752 20.9733 15.88 20.888C16.2853 20.6107 16.616 20.4613 16.872 20.44C17 20.44 17.0107 20.4933 16.904 20.6C16.8827 20.6213 16.8613 20.6427 16.84 20.664C16.648 20.856 16.5307 21.0907 16.488 21.368C16.4667 21.624 16.424 21.7733 16.36 21.816C16.3173 21.8587 16.3067 21.9227 16.328 22.008C16.3493 22.0933 16.2107 22.296 15.912 22.616C15.6347 22.936 15.496 23.1493 15.496 23.256C15.496 23.3627 15.4107 23.5653 15.24 23.864C15.0907 24.1627 14.9947 24.4187 14.952 24.632C14.9307 24.8453 14.7707 25.1013 14.472 25.4C14.1733 25.6773 13.992 25.8907 13.928 26.04C13.864 26.1893 13.768 26.2533 13.64 26.232C13.5333 26.2107 13.416 26.1253 13.288 25.976C13.1387 25.7627 12.9573 25.656 12.744 25.656C12.552 25.656 12.2 25.4107 11.688 24.92C11.1973 24.4293 10.8453 24.184 10.632 24.184C10.44 24.184 10.3013 24.1307 10.216 24.024C10.1307 23.9173 10.088 23.7147 10.088 23.416C10.0453 23.0747 9.97067 22.8187 9.864 22.648C9.77867 22.456 9.77867 22.328 9.864 22.264C9.97067 22.1787 10.2267 22.1787 10.632 22.264C11.0373 22.328 11.304 22.424 11.432 22.552C11.5813 22.68 11.6987 22.744 11.784 22.744C11.8907 22.744 11.9867 22.7973 12.072 22.904C12.1787 23.0107 12.3813 23 12.68 22.872C13 22.7227 13.3093 22.5413 13.608 22.328C14.6533 21.4747 15.336 20.8667 15.656 20.504ZM18.696 18.392C18.824 18.264 19.2507 18.2533 19.976 18.36C20.7227 18.4453 21.3307 18.5947 21.8 18.808C22.056 18.936 22.2907 19.0213 22.504 19.064C22.7387 19.1067 22.984 19.192 23.24 19.32C23.496 19.4267 23.848 19.5653 24.296 19.736C24.7653 19.8853 25.0533 20.0453 25.16 20.216C25.2453 20.344 25.2987 20.6 25.32 20.984C25.3413 21.3467 25.2987 21.624 25.192 21.816C25.1067 22.008 25.064 22.424 25.064 23.064C25.0853 23.704 25.1387 24.0987 25.224 24.248C25.3093 24.376 25.32 24.472 25.256 24.536C25.2133 24.6 25.1173 24.6213 24.968 24.6C24.8613 24.5787 24.776 24.6533 24.712 24.824C24.6693 24.9733 24.6693 25.112 24.712 25.24L24.68 25.304C24.6587 25.2827 24.6373 25.24 24.616 25.176C24.4453 24.9627 23.9653 24.4933 23.176 23.768C23.0267 23.5973 22.8027 23.352 22.504 23.032C22.2267 22.712 21.992 22.4987 21.8 22.392C21.608 22.264 21.448 22.104 21.32 21.912C21.1067 21.592 20.776 21.1653 20.328 20.632C19.88 20.0987 19.6027 19.8 19.496 19.736C19.368 19.672 19.304 19.5867 19.304 19.48C19.304 19.3093 19.1227 19.1173 18.76 18.904C18.4827 18.712 18.4613 18.5413 18.696 18.392ZM16.168 8.888C16.104 8.824 16.104 8.792 16.168 8.792C16.2107 8.77067 16.2533 8.76 16.296 8.76C16.5307 8.76 16.616 8.792 16.552 8.856C16.5307 8.87733 16.4987 8.89867 16.456 8.92C16.3493 8.94133 16.2533 8.93067 16.168 8.888ZM9.544 3.48C9.58667 3.416 9.736 3.39467 9.992 3.416C10.248 3.43733 10.5573 3.46933 10.92 3.512C11.2827 3.55467 11.5387 3.608 11.688 3.672C11.9867 3.77867 12.3173 3.896 12.68 4.024C13.064 4.152 13.3307 4.30133 13.48 4.472C13.6507 4.62133 13.768 4.86667 13.832 5.208C13.896 5.57067 13.9067 5.848 13.864 6.04C13.8213 6.21067 13.7893 6.59467 13.768 7.192C13.7467 7.768 13.8 8.12 13.928 8.248C14.056 8.35467 14.1413 8.376 14.184 8.312C14.248 8.248 14.4187 8.216 14.696 8.216C14.9947 8.216 15.2187 8.248 15.368 8.312C15.56 8.376 15.6027 8.44 15.496 8.504C15.4107 8.54667 15.4427 8.58933 15.592 8.632C15.7627 8.67467 15.912 8.76 16.04 8.888C16.168 9.016 16.36 9.09067 16.616 9.112C16.872 9.112 17 9.16533 17 9.272C17 9.37867 17.064 9.496 17.192 9.624L17.256 9.72C17.192 9.67733 17.16 9.688 17.16 9.752C17.16 9.816 17.192 9.848 17.256 9.848C17.4693 9.848 17.6187 10.0293 17.704 10.392C17.7467 10.5413 17.7147 10.616 17.608 10.616C17.5013 10.616 17.448 10.6587 17.448 10.744C17.448 10.808 17.48 10.8187 17.544 10.776C17.608 10.6907 17.6827 10.7547 17.768 10.968C17.7893 11.0533 17.7893 11.128 17.768 11.192C17.7467 11.3627 17.768 11.448 17.832 11.448C17.9173 11.448 17.9387 11.4693 17.896 11.512C17.8533 11.5547 17.8747 11.5973 17.96 11.64C18.0453 11.6827 18.024 11.7467 17.896 11.832C17.7893 11.9173 17.7787 11.9813 17.864 12.024C17.9707 12.0667 18.0667 12.0667 18.152 12.024C18.2587 11.9813 18.312 11.992 18.312 12.056C18.312 12.12 18.0773 12.248 17.608 12.44C17.1387 12.6107 16.808 12.7493 16.616 12.856C15.08 13.5387 14.216 13.88 14.024 13.88C13.8107 13.88 13.64 14.1893 13.512 14.808C13.4053 15.256 13.352 15.5227 13.352 15.608C13.3733 15.6933 13.48 15.736 13.672 15.736C14.184 15.736 14.792 16.056 15.496 16.696L16.264 17.432V18.008C16.2427 18.3067 16.2 18.488 16.136 18.552C16.072 18.5947 15.7093 18.712 15.048 18.904C13.9813 19.2027 13.2773 19.416 12.936 19.544C12.5947 19.672 12.2213 19.8747 11.816 20.152C11.432 20.4507 11.208 20.5787 11.144 20.536C11.1013 20.472 11.0373 20.504 10.952 20.632C10.8667 20.76 10.824 20.8027 10.824 20.76C10.824 20.7173 10.7493 20.7173 10.6 20.76C10.472 20.8027 10.312 20.8667 10.12 20.952C9.928 21.016 9.768 21.08 9.64 21.144C9.448 21.272 9.24533 21.272 9.032 21.144C8.17867 20.6533 7.72 20.3227 7.656 20.152C7.61333 20.0667 7.48533 19.9813 7.272 19.896C7.05867 19.7893 6.92 19.608 6.856 19.352C6.81333 19.096 6.74933 18.9253 6.664 18.84C6.408 18.5413 6.45067 18.3493 6.792 18.264C7.02667 18.2427 7.25067 18.1893 7.464 18.104C7.592 18.0827 8.11467 17.8587 9.032 17.432C9.94933 16.984 10.44 16.7493 10.504 16.728C10.5253 16.728 10.4827 16.632 10.376 16.44C10.2693 16.2267 10.1947 16.0773 10.152 15.992C9.98133 15.7787 9.71467 15.7893 9.352 16.024L9 16.248L8.616 16.056C8.36 15.928 8.17867 15.8213 8.072 15.736C7.96533 15.6507 7.816 15.608 7.624 15.608C7.432 15.608 7.28267 15.5333 7.176 15.384C7.06933 15.2133 6.96267 15.128 6.856 15.128C6.77067 15.128 6.728 15.1067 6.728 15.064C6.728 15.0213 6.57867 14.936 6.28 14.808C5.98133 14.68 5.768 14.5093 5.64 14.296C5.512 14.0613 5.36267 13.9227 5.192 13.88C4.78667 13.7093 4.62667 13.5067 4.712 13.272C4.75467 13.144 4.65867 12.984 4.424 12.792C4.18933 12.5787 4.104 12.408 4.168 12.28C4.25333 12.152 4.49867 12.088 4.904 12.088C5.33067 12.088 5.87467 11.96 6.536 11.704C7.19733 11.448 7.688 11.2347 8.008 11.064C8.328 10.8933 8.52 10.808 8.584 10.808C8.648 10.808 8.73333 10.776 8.84 10.712C8.94667 10.6267 9.128 10.5413 9.384 10.456C9.66133 10.3493 9.87467 10.2533 10.024 10.168L10.28 9.976L10.12 8.408C10.0347 7.384 9.98133 6.552 9.96 5.912C9.93867 4.824 9.85333 4.10933 9.704 3.768C9.59733 3.59733 9.544 3.50133 9.544 3.48ZM16.904 12.472C16.9467 12.472 16.968 12.44 16.968 12.376C16.968 12.312 16.936 12.28 16.872 12.28C16.808 12.28 16.7867 12.312 16.808 12.376C16.8507 12.44 16.8827 12.472 16.904 12.472ZM37.768 24.76C37.768 24.5893 37.8427 24.4187 37.992 24.248C38.1413 24.0773 38.2373 23.992 38.28 23.992C38.3227 23.992 38.4827 24.0773 38.76 24.248C39.0587 24.3973 39.3253 24.632 39.56 24.952L39.848 25.432L40.168 25.112C40.36 24.856 40.488 24.76 40.552 24.824C40.5733 24.8453 40.6053 24.8027 40.648 24.696C40.648 24.6747 40.6587 24.6427 40.68 24.6C40.7013 24.4293 40.7653 24.2907 40.872 24.184C40.9787 24.056 41.0853 23.992 41.192 23.992C41.2987 23.992 41.544 24.088 41.928 24.28C42.2053 24.3867 42.3867 24.4933 42.472 24.6C42.5787 24.7067 42.728 24.9413 42.92 25.304C43.368 26.0293 43.816 26.6053 44.264 27.032C44.712 27.4587 45.2667 27.8427 45.928 28.184C46.5253 28.5253 47.304 28.696 48.264 28.696C48.8187 28.696 49.1813 28.664 49.352 28.6C49.544 28.536 49.672 28.376 49.736 28.12C49.8 27.928 49.8427 27.4373 49.864 26.648C49.8853 25.8587 49.8747 25.4107 49.832 25.304C49.768 25.1973 49.768 25.144 49.832 25.144C49.896 25.144 49.928 25.1013 49.928 25.016C49.928 24.9093 49.96 24.856 50.024 24.856C50.1093 24.856 50.2373 24.952 50.408 25.144C50.5787 25.336 50.6853 25.5067 50.728 25.656C50.8133 25.8267 50.952 25.9227 51.144 25.944C51.272 25.944 51.3467 25.976 51.368 26.04C51.4107 26.0827 51.4427 26.1787 51.464 26.328C51.5493 26.6693 51.6453 26.936 51.752 27.128C51.8587 27.32 52.072 27.5973 52.392 27.96C52.8613 28.4507 53.1067 28.76 53.128 28.888C53.1493 29.2933 53.1173 29.5387 53.032 29.624C52.9467 29.7093 52.9467 29.7947 53.032 29.88C53.1387 29.9653 53.1813 30.0933 53.16 30.264C53.1173 30.4773 53.1707 30.6053 53.32 30.648C53.3413 30.6907 53.3733 30.6907 53.416 30.648C53.4373 30.6907 53.448 30.7333 53.448 30.776C53.448 31.0107 53.224 31.2133 52.776 31.384C52.4773 31.4907 52.2213 31.5867 52.008 31.672C51.7947 31.7787 51.592 31.8107 51.4 31.768C51.2293 31.7467 51.1227 31.7787 51.08 31.864C51.0373 31.9707 50.9627 31.992 50.856 31.928C50.7493 31.864 50.6747 31.864 50.632 31.928C50.6107 31.9707 50.4187 31.9813 50.056 31.96C49.7147 31.96 49.4373 31.928 49.224 31.864C49.032 31.8213 48.936 31.7467 48.936 31.64C48.9573 31.5547 48.904 31.5013 48.776 31.48C48.6693 31.48 48.3813 31.4053 47.912 31.256C47.464 31.128 47.2187 31.0747 47.176 31.096L47.336 31.256C47.6347 31.4053 47.9333 31.4907 48.232 31.512C48.5093 31.5547 48.648 31.5973 48.648 31.64C48.6267 31.704 48.5413 31.7253 48.392 31.704C48.264 31.704 48.0827 31.6613 47.848 31.576C47.6347 31.512 47.4213 31.416 47.208 31.288C46.76 31.096 46.536 30.9573 46.536 30.872C46.536 30.808 46.472 30.7653 46.344 30.744C46.216 30.7227 46.1093 30.6587 46.024 30.552C45.832 30.2747 45.576 30.136 45.256 30.136C45.1067 30.136 44.968 30.0827 44.84 29.976C44.7333 29.8693 44.5413 29.7413 44.264 29.592C43.9227 29.4213 43.3893 28.952 42.664 28.184C41.9387 27.416 41.576 26.9253 41.576 26.712C41.576 26.6693 41.544 26.6373 41.48 26.616C41.4373 26.5947 41.32 26.3813 41.128 25.976C40.9787 25.656 40.8827 25.496 40.84 25.496C40.7973 25.496 40.7547 25.6453 40.712 25.944C40.6907 26.136 40.616 26.3387 40.488 26.552C40.36 26.744 40.2853 26.9573 40.264 27.192C40.1787 27.5973 39.9333 28.1733 39.528 28.92C39.144 29.688 38.8027 30.232 38.504 30.552C38.3973 30.68 38.3013 30.8613 38.216 31.096C38.152 31.3307 38.0773 31.448 37.992 31.448C37.9067 31.448 37.864 31.416 37.864 31.352C37.864 31.3093 37.736 31.1493 37.48 30.872L36.936 30.264C36.808 30.136 36.7013 30.072 36.616 30.072C36.5307 30.072 36.4453 29.9653 36.36 29.752C36.296 29.5387 36.2747 29.368 36.296 29.24C36.36 29.0267 36.3067 28.8987 36.136 28.856C36.008 28.8133 35.9333 28.7493 35.912 28.664C35.912 28.6 35.9653 28.4507 36.072 28.216C36.2 27.9813 36.264 27.8213 36.264 27.736C36.264 27.672 36.328 27.608 36.456 27.544C36.5627 27.4587 36.776 27.128 37.096 26.552C37.416 25.976 37.608 25.5707 37.672 25.336C37.736 25.1013 37.768 24.9093 37.768 24.76ZM51.656 22.296C51.848 22.1467 52.104 22.0613 52.424 22.04C52.7653 22.0187 52.9573 22.008 53 22.008C53.0427 21.9867 53.1173 22.008 53.224 22.072C53.5227 22.2853 53.96 22.4453 54.536 22.552C54.7493 22.616 54.9733 22.712 55.208 22.84C55.464 22.9467 55.592 23.0427 55.592 23.128C55.592 23.192 55.6773 23.3307 55.848 23.544C56.04 23.736 56.2107 23.9493 56.36 24.184L56.584 24.6L56.456 25.944C56.3493 26.776 56.264 27.2987 56.2 27.512C56.136 27.7253 56.0187 27.8107 55.848 27.768C55.72 27.7253 55.464 27.5227 55.08 27.16C54.696 26.7973 54.504 26.5733 54.504 26.488C54.504 26.4453 54.408 26.392 54.216 26.328C54.024 26.264 53.928 26.2 53.928 26.136C53.9493 25.9867 53.9387 25.8907 53.896 25.848C53.8533 25.784 53.7573 25.7413 53.608 25.72C53.4587 25.6987 53.352 25.6667 53.288 25.624C53.2453 25.5813 53.2133 25.4747 53.192 25.304C53.128 25.0267 53.032 24.8347 52.904 24.728C52.776 24.6213 52.712 24.5467 52.712 24.504C52.712 24.4613 52.648 24.3653 52.52 24.216C52.392 24.0453 52.168 23.7253 51.848 23.256L51.368 22.52L51.656 22.296ZM40.296 18.072C40.5307 17.9227 40.7333 17.9227 40.904 18.072C41.096 18.2 41.3093 18.5093 41.544 19C41.608 19.192 41.6613 19.3413 41.704 19.448C41.768 19.5333 41.8107 19.608 41.832 19.672C41.8747 19.7147 41.9173 19.736 41.96 19.736C42.0027 19.736 42.0453 19.7147 42.088 19.672C42.2587 19.5227 42.3867 19.6293 42.472 19.992C42.472 20.0987 42.472 20.1947 42.472 20.28C42.472 20.5573 42.376 20.76 42.184 20.888C42.0133 21.016 41.8853 21.24 41.8 21.56C41.7147 21.8587 41.5653 22.1253 41.352 22.36C41.1387 22.5733 40.872 22.8933 40.552 23.32C40.232 23.7253 40.04 23.928 39.976 23.928C39.9333 23.928 39.8693 23.8427 39.784 23.672C39.72 23.5013 39.528 23.2133 39.208 22.808C38.9947 22.5733 38.856 22.4027 38.792 22.296C38.7493 22.1893 38.728 22.0507 38.728 21.88C38.7707 21.6027 38.76 21.4107 38.696 21.304C38.632 21.1973 38.632 21.1227 38.696 21.08C38.888 20.9733 39.1867 20.4293 39.592 19.448C39.7413 19.0427 39.8373 18.7867 39.88 18.68C39.944 18.5733 39.976 18.4773 39.976 18.392C39.976 18.3067 40.0827 18.2 40.296 18.072ZM35.944 7.576C36.008 7.46933 36.2533 7.45867 36.68 7.544C37.1067 7.608 37.5333 7.736 37.96 7.928C38.2373 8.03467 38.6107 8.32267 39.08 8.792C39.5493 9.24 39.8053 9.56 39.848 9.752C39.8907 10.008 39.912 10.6053 39.912 11.544C39.9333 12.4827 39.9333 13.24 39.912 13.816C39.7413 16.0133 39.4213 17.656 38.952 18.744C38.8453 19 38.7387 19.3093 38.632 19.672C38.5467 20.0133 38.4827 20.2373 38.44 20.344L38.12 21.08C37.16 23.192 36.5093 24.3867 36.168 24.664C36.1467 24.6853 36.072 24.8133 35.944 25.048C35.8373 25.2613 35.7413 25.3893 35.656 25.432C35.592 25.4533 35.5493 25.528 35.528 25.656C35.528 25.7627 35.496 25.848 35.432 25.912C35.3893 25.9547 35.272 25.912 35.08 25.784C34.888 25.6347 34.7493 25.4533 34.664 25.24C34.5573 25.048 34.3653 24.824 34.088 24.568C33.8107 24.312 33.6933 24.152 33.736 24.088C33.8 24.024 33.7893 23.96 33.704 23.896C33.6613 23.8533 33.64 23.7893 33.64 23.704C33.64 23.5973 33.6507 23.5227 33.672 23.48C33.7147 23.4373 33.768 23.4267 33.832 23.448C33.896 23.4693 33.9387 23.4587 33.96 23.416C33.9813 23.3307 33.9173 23.2453 33.768 23.16C33.6187 23.0533 33.5973 22.9893 33.704 22.968C33.832 22.9467 33.8107 22.8507 33.64 22.68C33.384 22.3813 33.352 22.232 33.544 22.232C33.6933 22.232 34.12 21.592 34.824 20.312C35.5493 19.032 35.912 18.2747 35.912 18.04C35.912 17.9333 36.0187 17.6133 36.232 17.08C36.744 15.7573 37.0427 14.7013 37.128 13.912C37.3627 11.7787 37.4053 10.2 37.256 9.176C37.2133 8.94133 36.8613 8.536 36.2 7.96C36.008 7.78933 35.9227 7.66133 35.944 7.576ZM44.616 3.096C44.616 2.968 44.8293 2.904 45.256 2.904C45.704 2.88267 46.0133 2.88267 46.184 2.904C46.376 2.904 46.5253 2.904 46.632 2.904C46.7387 2.904 46.9093 3 47.144 3.192C47.4 3.384 47.592 3.48 47.72 3.48C47.848 3.48 47.912 3.55467 47.912 3.704C47.912 3.832 48.008 3.97066 48.2 4.12C48.4133 4.248 48.4987 4.376 48.456 4.504C48.4347 4.632 48.456 4.696 48.52 4.696C48.6053 4.696 48.648 4.74933 48.648 4.856C48.648 4.96267 48.744 5.09067 48.936 5.24C49.128 5.38933 49.192 5.50667 49.128 5.592C49.1067 5.61333 49.0427 5.60267 48.936 5.56C48.8507 5.53867 48.616 5.58133 48.232 5.688C47.8693 5.77333 47.368 5.92267 46.728 6.136C46.1093 6.34933 45.7787 6.47733 45.736 6.52C45.6933 6.584 45.8 6.72267 46.056 6.936C46.3547 7.128 46.5467 7.27733 46.632 7.384C46.7173 7.49067 46.76 7.61867 46.76 7.768C46.76 7.93867 46.8027 8.088 46.888 8.216C46.9947 8.32267 47.048 8.504 47.048 8.76C47.048 9.016 47.048 9.144 47.048 9.144C47.0693 9.144 47.3467 9.06933 47.88 8.92C48.3067 8.77067 48.616 8.696 48.808 8.696C49.0213 8.696 49.288 8.76 49.608 8.888C50.1413 9.10133 50.408 9.32533 50.408 9.56C50.408 9.70933 50.4293 9.79467 50.472 9.816C50.536 9.83733 50.6747 9.98667 50.888 10.264C51.08 10.4987 51.176 10.6907 51.176 10.84C51.176 10.968 51.08 11.3413 50.888 11.96C50.568 13.0267 49.896 14.3067 48.872 15.8C48.2533 16.696 47.9653 17.1653 48.008 17.208C48.0293 17.2293 48.2427 17.2507 48.648 17.272C49.2453 17.3147 49.672 17.4213 49.928 17.592C50.0987 17.6987 50.248 17.7733 50.376 17.816C50.504 17.8587 50.7067 18.072 50.984 18.456C51.2613 18.84 51.464 19.096 51.592 19.224C51.976 19.6293 52.136 19.8853 52.072 19.992C52.072 20.0133 52.04 20.0133 51.976 19.992C51.912 19.9493 51.8693 19.992 51.848 20.12C51.848 20.2267 51.88 20.504 51.944 20.952C52.0293 21.528 52.0293 21.848 51.944 21.912C51.9013 21.9333 51.752 21.8907 51.496 21.784C51.2613 21.6773 51.1013 21.5707 51.016 21.464C50.9733 21.3787 50.8133 21.2613 50.536 21.112C50.28 20.9627 49.96 20.6533 49.576 20.184C49.192 19.7147 48.808 19.3307 48.424 19.032C48.104 18.7973 47.816 18.5413 47.56 18.264C47.304 17.9867 47.1867 17.8267 47.208 17.784C47.2293 17.7413 47.1867 17.6987 47.08 17.656C46.9947 17.6133 47.016 17.5173 47.144 17.368C47.272 17.2187 47.3147 17.0587 47.272 16.888C47.2293 16.6533 47.1547 16.5147 47.048 16.472C46.9627 16.4293 46.792 16.4827 46.536 16.632C46.3227 16.76 46.1947 16.856 46.152 16.92C46.1093 16.984 46.152 17.0587 46.28 17.144C46.3653 17.2293 46.408 17.3253 46.408 17.432C46.408 17.5387 46.44 17.592 46.504 17.592C46.568 17.592 46.6213 17.6667 46.664 17.816C46.7067 17.9653 46.7067 18.104 46.664 18.232C46.5787 18.3387 46.5147 19.1813 46.472 20.76C46.4507 22.3387 46.3867 23.2347 46.28 23.448C46.0667 23.832 46.0773 24.0667 46.312 24.152C46.4613 24.1947 46.6107 24.2907 46.76 24.44C46.9307 24.5893 47.0907 24.6533 47.24 24.632C47.3893 24.5893 47.6453 24.408 48.008 24.088C48.4133 23.7253 48.776 23.48 49.096 23.352C49.608 23.0533 49.8853 22.9893 49.928 23.16C49.9493 23.2027 49.9173 23.288 49.832 23.416C49.7253 23.5013 49.672 23.576 49.672 23.64C49.672 23.6827 49.5867 23.8107 49.416 24.024C49.3947 24.088 49.3627 24.1413 49.32 24.184C49.2773 24.2267 49.256 24.2693 49.256 24.312C49.256 24.3547 49.256 24.376 49.256 24.376C49.4267 24.4187 49.16 24.8987 48.456 25.816C47.9653 26.4773 47.72 26.8933 47.72 27.064C47.72 27.256 47.6987 27.4053 47.656 27.512C47.5707 27.6187 47.464 27.6293 47.336 27.544C47.336 27.48 47.2933 27.448 47.208 27.448C47.1227 27.448 47.016 27.3733 46.888 27.224C46.7387 27.1173 46.5147 26.9893 46.216 26.84C45.9387 26.6907 45.736 26.616 45.608 26.616C45.5013 26.616 45.384 26.552 45.256 26.424C45.1493 26.2747 45.128 26.1253 45.192 25.976C45.2133 25.8693 45.1387 25.7733 44.968 25.688C44.7333 25.6027 44.6587 25.368 44.744 24.984C44.744 24.9413 44.712 24.8667 44.648 24.76C44.584 24.6533 44.5947 24.5253 44.68 24.376C44.7867 24.2267 44.84 24.1093 44.84 24.024C44.84 23.9387 44.712 23.7147 44.456 23.352C44.2213 22.9893 44.0507 22.7653 43.944 22.68C43.7947 22.552 43.7307 22.4347 43.752 22.328C43.7733 22.2 43.7627 22.072 43.72 21.944C43.656 21.8373 43.6667 21.7307 43.752 21.624C43.8373 21.496 43.944 21.432 44.072 21.432C44.2 21.432 44.2747 21.1973 44.296 20.728C44.3387 20.2373 44.36 19.7147 44.36 19.16C44.36 18.6053 44.3067 18.3173 44.2 18.296C44.0933 18.2533 44.008 18.2 43.944 18.136C43.9013 18.072 43.8587 18.072 43.816 18.136C43.752 18.3493 43.5067 18.2213 43.08 17.752C42.76 17.4107 42.5787 17.24 42.536 17.24C42.5147 17.24 42.4293 17.1653 42.28 17.016C42.152 16.8453 42.088 16.728 42.088 16.664C42.024 16.1733 41.9387 15.832 41.832 15.64C41.7253 15.4907 41.672 15.256 41.672 14.936C41.672 14.488 41.608 13.9227 41.48 13.24C41.352 12.5573 41.2133 12.0347 41.064 11.672C40.9573 11.4587 40.776 11.2453 40.52 11.032C40.2853 10.8187 40.2213 10.712 40.328 10.712C40.456 10.712 40.4347 10.6373 40.264 10.488L39.976 10.264L40.264 10.136C40.3707 10.0507 40.456 10.008 40.52 10.008C40.584 10.008 40.7547 10.0507 41.032 10.136C41.3733 10.2427 41.64 10.392 41.832 10.584C42.0027 10.712 42.152 10.7867 42.28 10.808C42.408 10.8293 42.6427 10.7867 42.984 10.68C43.3253 10.5733 43.5173 10.488 43.56 10.424C43.6027 10.3387 43.528 10.2107 43.336 10.04C42.952 9.69867 42.7707 9.38933 42.792 9.112C42.8347 8.83467 43.112 8.44 43.624 7.928C44.136 7.45867 44.3707 7.20267 44.328 7.16C44.3067 7.11733 44.1787 7.14933 43.944 7.256C43.752 7.36267 43.3253 7.52267 42.664 7.736C42.0027 7.94933 41.5547 8.09867 41.32 8.184C40.9147 8.248 40.4133 8.03467 39.816 7.544C39.432 7.24533 39.1973 7.096 39.112 7.096C39.0267 7.096 38.9093 7.01067 38.76 6.84C38.632 6.648 38.4933 6.52 38.344 6.456C38.2373 6.392 38.12 6.31733 37.992 6.232C37.8853 6.12533 37.7893 6.04 37.704 5.976C37.64 5.89067 37.6187 5.83733 37.64 5.816C37.6613 5.79467 37.6187 5.73067 37.512 5.624C37.32 5.496 37.3947 5.41067 37.736 5.368C37.8853 5.368 38.088 5.368 38.344 5.368C38.92 5.432 39.528 5.32533 40.168 5.048C40.4453 4.92 40.712 4.81333 40.968 4.728C41.224 4.62133 41.512 4.49333 41.832 4.344C42.152 4.19467 42.3973 4.10933 42.568 4.088C42.7387 4.04533 42.9733 3.94933 43.272 3.8C43.592 3.65067 43.8907 3.52267 44.168 3.416C44.4667 3.30933 44.616 3.20267 44.616 3.096ZM47.144 12.472C47.272 12.472 47.4427 12.2587 47.656 11.832C47.8907 11.384 47.9867 11.1493 47.944 11.128C47.9013 11.064 47.4747 11.192 46.664 11.512C45.8533 11.8107 45.3093 12.0453 45.032 12.216C44.5627 12.4933 44.072 12.6533 43.56 12.696H43.24L43.304 13.144C43.3253 13.4213 43.3573 13.5813 43.4 13.624C43.464 13.6667 44.104 13.368 45.32 12.728C46.28 12.216 46.8133 12.0987 46.92 12.376C46.9413 12.44 47.016 12.472 47.144 12.472ZM46.536 14.072C46.664 13.7733 46.344 13.9013 45.576 14.456C45.4693 14.5627 45.3413 14.6693 45.192 14.776C44.744 15.1173 44.4347 15.288 44.264 15.288C44.1147 15.2667 44.04 15.2347 44.04 15.192C44.0613 15.1493 44.0507 15.128 44.008 15.128C43.9653 15.1067 43.9013 15.096 43.816 15.096C43.688 15.096 43.6133 15.1173 43.592 15.16C43.5707 15.1813 43.5707 15.2987 43.592 15.512C43.6133 15.7467 43.6453 15.896 43.688 15.96C43.7307 16.0027 43.9867 15.896 44.456 15.64L45.768 15C46.1947 14.7867 46.4187 14.6053 46.44 14.456C46.4613 14.2853 46.4933 14.1573 46.536 14.072ZM73.736 1.048C73.6933 0.941332 73.6827 0.877332 73.704 0.855999C73.7253 0.834666 73.8 0.823999 73.928 0.823999C74.0773 0.823999 74.6 1.016 75.496 1.4C76.4133 1.784 76.936 2.04 77.064 2.168C77.192 2.296 77.2773 2.62667 77.32 3.16C77.384 3.69333 77.384 4.216 77.32 4.728C77.2773 5.304 77.2773 5.656 77.32 5.784C77.3627 5.89067 77.544 5.944 77.864 5.944C78.2053 5.98667 78.408 6.04 78.472 6.104C78.536 6.168 78.6747 6.2 78.888 6.2C79.0373 6.2 79.1227 6.21067 79.144 6.232C79.1653 6.25333 79.176 6.328 79.176 6.456C79.176 6.648 79.272 6.78667 79.464 6.872C79.6347 6.97867 79.7627 7.11733 79.848 7.288C79.9547 7.45867 79.976 7.58667 79.912 7.672C79.848 7.75733 79.8373 7.84267 79.88 7.928C79.9227 8.01333 80.0187 7.94933 80.168 7.736C80.3387 7.50133 80.5307 7.27733 80.744 7.064C80.9573 6.85067 81.0427 6.648 81 6.456C80.9787 6.328 80.9787 6.25333 81 6.232C81.0213 6.21067 81.1067 6.2 81.256 6.2C81.4693 6.2 81.6293 6.168 81.736 6.104C81.8427 6.04 81.992 6.08267 82.184 6.232C82.376 6.36 82.6533 6.53067 83.016 6.744C83.3787 6.936 83.624 7.11733 83.752 7.288C83.88 7.43733 83.976 7.69333 84.04 8.056C84.2107 8.80267 84.0613 9.176 83.592 9.176C83.3787 9.176 82.9733 9.48533 82.376 10.104C81.9707 10.5307 81.6293 10.936 81.352 11.32C81.096 11.704 81 11.928 81.064 11.992C81.1067 12.0347 81.32 12.024 81.704 11.96C82.1307 11.8747 82.8987 11.8 84.008 11.736C85.1173 11.6507 85.8747 11.6187 86.28 11.64C86.7707 11.6613 87.1653 11.736 87.464 11.864C87.7627 11.9707 87.9547 12.024 88.04 12.024C88.1467 12.024 88.2 12.0987 88.2 12.248C88.2 12.376 88.3493 12.5787 88.648 12.856C89.1813 13.3467 89.4693 14.0293 89.512 14.904C89.512 15.2027 89.48 15.3627 89.416 15.384C89.416 15.384 89.3947 15.3733 89.352 15.352C89.2453 15.288 89 15.2133 88.616 15.128C88.232 15.0427 86.984 15 84.872 15C82.7813 15 81.3627 15.0533 80.616 15.16C79.336 15.3093 78.568 15.4267 78.312 15.512C78.0773 15.5973 77.8533 15.8853 77.64 16.376C77.4693 16.76 77.288 17.048 77.096 17.24C76.6907 17.7093 76.5093 17.976 76.552 18.04C76.5733 18.04 76.9893 17.9653 77.8 17.816C79.4213 17.5173 80.4133 17.4747 80.776 17.688C80.9253 17.7947 81.1813 17.944 81.544 18.136C81.928 18.3067 82.1947 18.456 82.344 18.584L82.632 18.776L82.376 18.968C82.0773 19.224 81.992 19.48 82.12 19.736C82.2053 19.864 82.1947 20.0773 82.088 20.376C81.96 20.76 81.896 21.4747 81.896 22.52C81.896 22.712 81.928 23.0853 81.992 23.64C82.12 24.4507 82.216 25.6347 82.28 27.192C82.3013 28.4293 82.3333 29.3467 82.376 29.944C82.4187 30.712 82.376 31.096 82.248 31.096C82.2053 31.1387 82.1627 31.1387 82.12 31.096C82.0773 31.0747 82.0347 31.0853 81.992 31.128C81.9707 31.192 81.96 31.3307 81.96 31.544C81.9387 32.056 81.864 32.5893 81.736 33.144C81.6293 33.72 81.5227 34.008 81.416 34.008C81.352 34.008 81.16 33.8587 80.84 33.56C80.5413 33.2613 80.392 33.08 80.392 33.016C80.392 32.9093 80.3067 32.8027 80.136 32.696C79.9653 32.5893 79.8373 32.44 79.752 32.248C79.688 32.0773 79.5173 31.9173 79.24 31.768C78.9627 31.64 78.856 31.5333 78.92 31.448C78.9627 31.4053 78.9733 31.2347 78.952 30.936C78.9307 30.6373 78.888 30.4773 78.824 30.456C78.7387 30.3707 78.0453 30.4347 76.744 30.648C75.4427 30.8613 74.76 31 74.696 31.064C74.6533 31.1707 74.632 31.2987 74.632 31.448C74.632 31.6187 74.5573 31.8533 74.408 32.152L74.152 32.664L73.896 32.408C73.704 32.28 73.608 32.1733 73.608 32.088C73.608 32.0027 73.544 31.9387 73.416 31.896C73.352 31.8533 73.32 31.8213 73.32 31.8C73.384 31.7573 73.3947 31.6507 73.352 31.48C73.3093 31.3307 73.2027 31.1813 73.032 31.032C72.8613 30.8827 72.776 30.744 72.776 30.616C72.776 30.488 72.68 30.3387 72.488 30.168C72.3173 29.9973 72.232 29.7627 72.232 29.464C72.232 29.1867 72.2533 29.0053 72.296 28.92C72.36 28.728 72.4453 28.1947 72.552 27.32L72.648 25.976C72.6693 25.5067 72.6693 25.0373 72.648 24.568L72.616 23.896L71.944 24.856C70.9413 26.3493 70.3547 27.1707 70.184 27.32C70.0347 27.448 69.8533 27.6613 69.64 27.96C69.4267 28.2587 69.2987 28.4187 69.256 28.44C69.2133 28.4613 69.032 28.7173 68.712 29.208C68.5627 29.4213 68.3707 29.6773 68.136 29.976C67.9013 30.2747 67.688 30.52 67.496 30.712C67.304 30.904 67.1973 30.9893 67.176 30.968C67.112 30.904 67.0053 30.68 66.856 30.296C66.7067 29.9333 66.632 29.7307 66.632 29.688C66.632 29.6027 66.472 29.3573 66.152 28.952C65.832 28.568 65.704 28.3333 65.768 28.248C65.832 28.1627 65.8427 28.024 65.8 27.832C65.7787 27.576 66.0027 27.2133 66.472 26.744C66.6 26.5947 66.8453 26.2533 67.208 25.72C67.5707 25.1867 67.8053 24.8667 67.912 24.76C68.296 24.3333 68.6907 23.8427 69.096 23.288C69.5013 22.7333 69.704 22.4347 69.704 22.392C69.704 22.328 69.8213 22.1787 70.056 21.944C70.2907 21.688 70.408 21.5387 70.408 21.496C70.408 21.432 70.6 21.1547 70.984 20.664C71.496 20.024 71.752 19.608 71.752 19.416C71.752 19.3733 71.6453 19.2453 71.432 19.032C71.2187 18.7973 71.112 18.6373 71.112 18.552C71.112 18.4453 71.1973 18.392 71.368 18.392C71.56 18.392 71.752 18.4453 71.944 18.552C72.136 18.6373 72.2747 18.68 72.36 18.68C72.4027 18.68 72.52 18.5413 72.712 18.264C72.9253 17.9653 73.032 17.7733 73.032 17.688C73.032 17.6453 73.1493 17.5173 73.384 17.304C73.5333 17.1547 73.6933 16.9307 73.864 16.632C74.056 16.312 74.1307 16.1413 74.088 16.12C74.0667 16.0773 73.512 16.1733 72.424 16.408C71.3573 16.6213 70.6 16.8027 70.152 16.952C69.32 17.1867 68.744 17.336 68.424 17.4C68.1253 17.4427 67.7733 17.4107 67.368 17.304C66.472 17.1333 66.024 16.9307 66.024 16.696C66.024 16.6533 65.9707 16.632 65.864 16.632C65.7787 16.632 65.6613 16.568 65.512 16.44C65.3627 16.312 65.1387 16.1413 64.84 15.928C64.776 15.864 64.712 15.8213 64.648 15.8C64.6053 15.7573 64.5627 15.7147 64.52 15.672C64.4987 15.6293 64.4987 15.608 64.52 15.608C64.5413 15.5867 64.5627 15.5653 64.584 15.544C64.648 15.48 64.6373 15.416 64.552 15.352C64.4667 15.288 64.488 15.256 64.616 15.256C65.4907 15.2347 66.12 15.192 66.504 15.128C66.888 15.064 67.5067 14.9147 68.36 14.68C70.984 13.912 72.7013 13.464 73.512 13.336L73.992 13.304L74.088 12.568C74.1947 11.4373 74.184 10.7547 74.056 10.52C73.992 10.5413 73.672 10.4773 73.096 10.328C72.52 10.1787 72.136 10.104 71.944 10.104C71.7733 10.104 71.688 10.0507 71.688 9.944C71.688 9.816 71.5173 9.60267 71.176 9.304C70.3867 8.64267 70.056 8.25867 70.184 8.152C70.2053 8.10933 70.4507 8.088 70.92 8.088C71.5173 8.06667 72.4027 7.81067 73.576 7.32C74.088 7.10667 74.3973 6.936 74.504 6.808C74.6107 6.68 74.6427 6.43467 74.6 6.072C74.536 5.79467 74.4933 5.112 74.472 4.024C74.4507 3.256 74.4187 2.76533 74.376 2.552C74.3333 2.33867 74.248 2.09333 74.12 1.816C73.9067 1.432 73.7787 1.176 73.736 1.048ZM79.368 8.984C79.368 8.89867 79.176 8.93067 78.792 9.08C78.5147 9.208 78.216 9.336 77.896 9.464C77.5973 9.57067 77.416 9.67733 77.352 9.784C77.3093 9.89067 77.2667 10.2853 77.224 10.968L77.128 11.992L77.416 11.608C77.5867 11.352 77.704 11.192 77.768 11.128C77.8533 11.064 78.1413 10.7013 78.632 10.04C79.1227 9.37867 79.368 9.02667 79.368 8.984ZM78.888 21.112C78.8453 20.28 78.76 19.8107 78.632 19.704C78.504 19.5973 78.0987 19.6613 77.416 19.896C76.7333 20.1307 76.136 20.2907 75.624 20.376L74.856 20.472V20.856C74.8773 21.4107 74.8987 21.8373 74.92 22.136C74.9627 22.4347 74.9947 22.6693 75.016 22.84C75.0373 23.0107 75.0693 23.128 75.112 23.192C75.1547 23.2347 75.1973 23.2453 75.24 23.224C77.096 22.456 78.2587 22.136 78.728 22.264L78.952 22.296L78.888 21.112ZM79.016 24.856C78.9947 24.6427 78.9307 24.536 78.824 24.536C78.696 24.536 78.184 24.696 77.288 25.016C76.392 25.3147 75.7733 25.496 75.432 25.56L74.888 25.624L74.984 27.096C75.0267 28.0773 75.048 28.5787 75.048 28.6C75.0907 28.6427 75.3573 28.5893 75.848 28.44C76.3387 28.312 76.6267 28.2267 76.712 28.184C76.7547 28.0987 77.1173 28.0347 77.8 27.992C78.4827 27.9493 78.8667 27.9067 78.952 27.864C79.0587 27.736 79.08 26.7333 79.016 24.856ZM112.84 6.104C112.883 6.104 112.968 6.15733 113.096 6.264C113.224 6.34933 113.373 6.49867 113.544 6.712C113.757 6.94667 113.917 7.11733 114.024 7.224C114.152 7.33067 114.216 7.416 114.216 7.48C114.216 7.52267 114.28 7.64 114.408 7.832C114.536 7.96 114.6 8.06667 114.6 8.152C114.6 8.19467 114.589 8.248 114.568 8.312C114.547 8.35467 114.515 8.42933 114.472 8.536C114.301 8.92 114.045 9.144 113.704 9.208H113.608C113.565 9.25067 113.437 9.272 113.224 9.272L112.968 9.336C113.053 9.42133 113.075 9.48533 113.032 9.528H112.968C112.947 9.528 112.616 9.73067 111.976 10.136C111.72 10.3067 111.475 10.4773 111.24 10.648C111.027 10.7973 110.813 10.9573 110.6 11.128L109.672 11.768H109.992C110.227 11.8533 110.344 11.8533 110.344 11.768C110.387 11.768 110.44 11.7893 110.504 11.832C110.589 11.8747 110.685 11.9173 110.792 11.96C110.899 12.0453 110.973 12.1093 111.016 12.152C111.08 12.1733 111.133 12.2053 111.176 12.248C111.176 12.2907 111.208 12.3333 111.272 12.376C111.336 12.4187 111.443 12.44 111.592 12.44C111.763 12.5253 111.891 12.6107 111.976 12.696C112.104 12.824 112.168 12.9307 112.168 13.016C112.168 13.0587 112.179 13.08 112.2 13.08C112.221 13.08 112.253 13.1013 112.296 13.144C112.36 13.2507 112.424 13.4533 112.488 13.752C112.488 14.2 112.445 14.424 112.36 14.424C112.317 14.424 112.339 14.4453 112.424 14.488L112.488 14.552C112.765 14.552 112.904 14.616 112.904 14.744C112.904 14.8293 112.925 14.872 112.968 14.872C113.181 14.872 113.288 14.7867 113.288 14.616C113.288 14.5733 113.309 14.552 113.352 14.552C113.416 14.5307 113.501 14.488 113.608 14.424C113.757 14.424 113.864 14.4027 113.928 14.36C113.992 14.296 114.045 14.264 114.088 14.264C114.131 14.2213 114.173 14.2 114.216 14.2C114.259 14.2 114.301 14.2 114.344 14.2C114.472 14.264 114.536 14.3387 114.536 14.424V14.456C114.536 14.4773 114.557 14.5093 114.6 14.552C114.685 14.552 114.728 14.5307 114.728 14.488C114.728 14.4453 114.867 14.424 115.144 14.424H115.336C115.379 14.3813 115.4 14.3067 115.4 14.2C115.4 14.0293 115.443 13.944 115.528 13.944C115.571 13.944 115.603 13.976 115.624 14.04C115.667 14.0827 115.72 14.136 115.784 14.2C115.699 14.2 115.699 14.2213 115.784 14.264C115.827 14.264 115.869 14.2747 115.912 14.296C115.955 14.3173 116.008 14.3067 116.072 14.264H116.168C116.232 14.264 116.264 14.2427 116.264 14.2C116.179 14.2 116.136 14.1787 116.136 14.136C116.136 14.0933 116.147 14.04 116.168 13.976C116.211 13.912 116.264 13.8587 116.328 13.816L116.52 13.624L116.904 13.752C117.181 13.88 117.363 13.9227 117.448 13.88C117.512 13.88 117.565 13.8907 117.608 13.912C117.651 13.9333 117.725 13.9653 117.832 14.008C118.003 14.0933 118.088 14.1573 118.088 14.2C118.088 14.2427 118.099 14.264 118.12 14.264C118.163 14.264 118.205 14.2427 118.248 14.2C118.333 14.2 118.376 14.2747 118.376 14.424C118.376 14.5093 118.44 14.552 118.568 14.552C118.611 14.5947 118.643 14.6267 118.664 14.648C118.685 14.648 118.675 14.68 118.632 14.744C118.632 14.8293 118.675 14.872 118.76 14.872C118.845 14.872 118.973 14.9573 119.144 15.128V15.192C118.931 15.192 118.952 15.256 119.208 15.384H119.368C119.56 15.5547 119.624 15.672 119.56 15.736C119.453 16.0133 119.496 16.184 119.688 16.248C119.795 16.2907 119.848 16.3227 119.848 16.344C119.869 16.3653 119.859 16.376 119.816 16.376C119.773 16.4187 119.667 16.44 119.496 16.44C119.347 16.44 119.208 16.4507 119.08 16.472C118.952 16.4933 118.824 16.504 118.696 16.504C118.568 16.5467 118.376 16.5893 118.12 16.632C117.885 16.6533 117.64 16.6853 117.384 16.728C117.043 16.7707 116.669 16.824 116.264 16.888C115.88 16.9307 115.443 16.984 114.952 17.048C114.909 17.048 114.867 17.0587 114.824 17.08C114.803 17.1013 114.749 17.1333 114.664 17.176C114.579 17.2613 114.536 17.2613 114.536 17.176C114.536 16.984 115.752 16.7387 118.184 16.44C118.269 16.3973 118.397 16.376 118.568 16.376H118.888C118.931 16.3333 118.952 16.2907 118.952 16.248C118.909 16.2267 118.835 16.216 118.728 16.216C118.685 16.216 118.653 16.2267 118.632 16.248C118.419 16.248 118.312 16.2267 118.312 16.184C118.269 16.184 118.216 16.184 118.152 16.184C118.088 16.184 118.003 16.1627 117.896 16.12C117.64 16.056 117.512 16.0773 117.512 16.184H117.256H117.16C117.117 16.184 117.053 16.2053 116.968 16.248C116.968 16.312 117 16.3547 117.064 16.376C117.128 16.376 117.192 16.376 117.256 16.376C117.299 16.4187 117.299 16.44 117.256 16.44H117.128H116.968C116.883 16.44 116.776 16.4187 116.648 16.376C116.584 16.248 116.477 16.2053 116.328 16.248L115.848 16.312C115.805 16.3333 115.773 16.344 115.752 16.344C115.709 16.3653 115.656 16.376 115.592 16.376C115.507 16.4613 115.464 16.4613 115.464 16.376C115.379 16.376 115.315 16.3973 115.272 16.44C115.229 16.4827 115.144 16.5147 115.016 16.536C114.909 16.536 114.771 16.5573 114.6 16.6C114.259 16.6 114.045 16.6427 113.96 16.728C113.917 16.8133 113.832 16.856 113.704 16.856C113.661 16.856 113.608 16.8667 113.544 16.888C113.48 16.9093 113.395 16.9413 113.288 16.984C113.245 17.0267 113.139 17.048 112.968 17.048C112.947 17.048 112.925 17.0587 112.904 17.08C112.883 17.08 112.861 17.08 112.84 17.08C112.819 17.1013 112.797 17.112 112.776 17.112C112.691 17.1973 112.669 17.2827 112.712 17.368C112.712 17.4533 112.691 17.496 112.648 17.496V17.72H112.904C112.947 17.6347 113 17.592 113.064 17.592C113.128 17.5707 113.181 17.56 113.224 17.56C113.267 17.56 113.277 17.5707 113.256 17.592C113.256 17.592 113.224 17.6347 113.16 17.72H113.032C112.925 17.7627 112.829 17.7947 112.744 17.816C112.68 17.8373 112.648 17.8693 112.648 17.912C112.648 17.9333 112.637 17.9547 112.616 17.976C112.573 18.0187 112.531 18.04 112.488 18.04L112.424 18.168C112.424 18.2107 112.413 18.264 112.392 18.328C112.371 18.3707 112.339 18.4453 112.296 18.552C112.253 18.6587 112.221 18.7547 112.2 18.84C112.179 18.904 112.168 18.968 112.168 19.032L112.232 19.16L112.296 19.096L112.424 18.968C112.424 19.0107 112.403 19.0747 112.36 19.16V19.352C112.403 19.3947 112.936 19.288 113.96 19.032C114.643 18.7333 115.08 18.7333 115.272 19.032C115.336 19.0747 115.389 19.1067 115.432 19.128C115.475 19.1493 115.528 19.16 115.592 19.16C115.592 19.16 115.624 19.192 115.688 19.256C115.709 19.2987 115.72 19.3307 115.72 19.352C115.805 19.4373 115.88 19.48 115.944 19.48C115.987 19.5227 116.029 19.576 116.072 19.64C116.136 19.704 116.189 19.7573 116.232 19.8L116.392 19.96C116.669 20.2373 116.84 20.472 116.904 20.664C116.904 21.1973 116.979 21.464 117.128 21.464C117.213 21.464 117.139 21.752 116.904 22.328C116.776 22.584 116.68 22.776 116.616 22.904C116.573 23.032 116.52 23.096 116.456 23.096C116.413 23.096 116.392 23.1173 116.392 23.16V23.224C116.392 23.2667 116.381 23.32 116.36 23.384C116.339 23.4267 116.307 23.448 116.264 23.448C116.221 23.4907 116.189 23.5653 116.168 23.672C116.147 23.7787 116.115 23.896 116.072 24.024C116.008 24.152 115.965 24.2693 115.944 24.376C115.923 24.4613 115.891 24.5253 115.848 24.568C115.848 24.6107 115.837 24.6427 115.816 24.664C115.795 24.664 115.784 24.696 115.784 24.76C115.784 24.8027 115.763 24.8453 115.72 24.888L115.656 24.952L115.592 25.08C115.635 25.1227 115.656 25.2293 115.656 25.4C115.656 25.4427 115.667 25.496 115.688 25.56C115.731 25.6027 115.784 25.624 115.848 25.624C115.955 25.624 116.008 25.6453 116.008 25.688C116.008 25.7307 115.987 25.752 115.944 25.752C115.837 25.816 115.784 25.8587 115.784 25.88C115.784 25.9227 115.837 25.944 115.944 25.944C115.987 25.9867 116.04 26.0187 116.104 26.04C116.168 26.0613 116.221 26.072 116.264 26.072C116.307 26.1147 116.349 26.168 116.392 26.232C116.435 26.2747 116.456 26.328 116.456 26.392C116.456 26.6267 116.52 26.744 116.648 26.744H116.904L116.968 26.936V27.384C117.053 27.512 117.053 27.576 116.968 27.576C116.968 27.6187 116.861 27.64 116.648 27.64C115.987 27.64 115.475 27.6507 115.112 27.672C114.749 27.6933 114.536 27.704 114.472 27.704C114.387 27.7467 113.992 27.8 113.288 27.864H112.872C112.765 27.864 112.648 27.864 112.52 27.864C112.392 27.8853 112.275 27.9067 112.168 27.928H111.912C111.869 27.928 111.795 27.9493 111.688 27.992C111.581 28.0347 111.453 28.0773 111.304 28.12C111.133 28.1627 110.909 28.1947 110.632 28.216C110.355 28.2587 110.035 28.312 109.672 28.376C109.331 28.4187 109.053 28.4613 108.84 28.504C108.627 28.5467 108.488 28.568 108.424 28.568C108.36 28.568 108.296 28.792 108.232 29.24L108.04 29.752L107.944 29.688C107.837 29.624 107.731 29.56 107.624 29.496C107.539 29.432 107.432 29.3467 107.304 29.24C106.941 29.176 106.76 29.08 106.76 28.952C106.76 28.8667 106.717 28.7813 106.632 28.696C106.461 28.5893 106.376 28.4827 106.376 28.376C106.376 28.312 106.376 28.28 106.376 28.28C106.376 28.3013 106.355 28.3333 106.312 28.376C106.269 28.4187 106.248 28.4507 106.248 28.472C106.248 28.4933 106.227 28.504 106.184 28.504C106.099 28.504 106.056 28.4613 106.056 28.376C105.907 28.2267 105.864 28.0773 105.928 27.928C106.056 27.3947 106.013 27.0213 105.8 26.808C105.715 26.7653 105.661 26.7227 105.64 26.68C105.64 26.616 105.661 26.5627 105.704 26.52V26.264C105.64 26.136 105.64 26.072 105.704 26.072C105.832 26.072 105.864 25.8267 105.8 25.336V24.152C105.8 23.8747 105.747 23.6827 105.64 23.576C105.597 23.5333 105.565 23.4693 105.544 23.384C105.523 23.2773 105.491 23.1387 105.448 22.968C105.384 22.6907 105.256 22.456 105.064 22.264C104.829 21.9867 104.808 21.784 105 21.656C105.213 21.656 105.149 21.5707 104.808 21.4C104.659 21.2933 104.552 21.2187 104.488 21.176C104.424 21.1333 104.413 21.0693 104.456 20.984C104.52 20.92 104.552 20.888 104.552 20.888C104.552 20.8667 104.52 20.856 104.456 20.856H104.424C104.403 20.856 104.392 20.8347 104.392 20.792C104.392 20.6853 104.595 20.664 105 20.728C105.192 20.7707 105.384 20.8133 105.576 20.856C105.789 20.8773 106.013 20.9413 106.248 21.048C106.44 21.1973 106.6 21.2933 106.728 21.336C106.856 21.3787 106.941 21.4 106.984 21.4C107.027 21.4 107.485 21.2187 108.36 20.856C109.256 20.5147 109.715 20.344 109.736 20.344C109.736 20.3013 109.736 20.248 109.736 20.184C109.757 20.12 109.8 20.0133 109.864 19.864C109.864 19.608 109.821 19.48 109.736 19.48C109.693 19.48 109.672 19.4373 109.672 19.352C109.672 19.1813 109.651 19.0747 109.608 19.032C109.544 18.9253 109.565 18.808 109.672 18.68C109.672 18.6587 109.683 18.6373 109.704 18.616C109.704 18.5947 109.704 18.5733 109.704 18.552C109.725 18.5307 109.736 18.5093 109.736 18.488C109.693 18.4027 109.693 18.3813 109.736 18.424C109.821 18.4667 109.864 18.4453 109.864 18.36C109.864 18.2747 109.8 18.232 109.672 18.232C109.629 18.232 109.576 18.2427 109.512 18.264C109.469 18.264 109.416 18.296 109.352 18.36C109.309 18.36 109.288 18.3813 109.288 18.424C109.288 18.4667 109.288 18.5093 109.288 18.552C109.288 18.6373 109.213 18.68 109.064 18.68C109.043 18.68 109 18.7333 108.936 18.84C108.936 18.8827 108.925 18.904 108.904 18.904C108.883 18.904 108.872 18.8827 108.872 18.84C108.872 18.7333 108.915 18.68 109 18.68V18.552C109 18.488 108.989 18.456 108.968 18.456C108.968 18.456 108.915 18.488 108.808 18.552C108.765 18.616 108.733 18.6693 108.712 18.712C108.691 18.7547 108.68 18.7973 108.68 18.84C108.68 18.8827 108.659 18.9253 108.616 18.968C108.595 19.0107 108.531 19.032 108.424 19.032H108.36V18.968L108.328 18.936C108.307 18.936 108.285 18.936 108.264 18.936C108.264 18.9147 108.253 18.904 108.232 18.904V18.968C108.296 19.0533 108.253 19.1173 108.104 19.16C108.061 19.2667 108.008 19.3307 107.944 19.352C107.88 19.352 107.795 19.352 107.688 19.352C107.581 19.352 107.485 19.3627 107.4 19.384C107.315 19.4053 107.219 19.48 107.112 19.608C107.069 19.672 107.005 19.7147 106.92 19.736C106.835 19.7573 106.739 19.736 106.632 19.672L105.512 19.544C105.021 19.48 104.744 19.416 104.68 19.352C104.637 19.288 104.573 19.2453 104.488 19.224C104.424 19.1813 104.371 19.16 104.328 19.16C104.051 19.16 103.773 19.0533 103.496 18.84C103.475 18.84 103.453 18.8293 103.432 18.808C103.411 18.7867 103.4 18.744 103.4 18.68C103.4 18.6587 103.421 18.6053 103.464 18.52L103.56 18.424L103.688 18.232L103.4 18.168C103.315 18.1253 103.229 18.0613 103.144 17.976C103.144 17.912 103.155 17.8693 103.176 17.848C103.219 17.8267 103.272 17.784 103.336 17.72C103.912 17.5707 104.264 17.496 104.392 17.496C104.392 17.5813 104.637 17.5173 105.128 17.304C105.533 17.1333 105.8 17.048 105.928 17.048C105.971 17.048 106.003 17.0373 106.024 17.016C106.067 16.9947 106.141 16.9627 106.248 16.92C106.355 16.8773 106.461 16.8773 106.568 16.92V16.952C106.568 16.9733 106.589 17.0053 106.632 17.048C106.675 17.048 106.696 16.984 106.696 16.856C106.867 16.7707 106.909 16.728 106.824 16.728C106.824 16.6853 106.835 16.664 106.856 16.664C106.899 16.664 106.92 16.6427 106.92 16.6C106.963 16.6 106.995 16.5893 107.016 16.568C107.037 16.5253 107.069 16.504 107.112 16.504C107.261 16.3973 107.368 16.376 107.432 16.44C107.432 16.4827 107.453 16.504 107.496 16.504C107.539 16.504 107.581 16.504 107.624 16.504C107.624 16.4827 107.635 16.472 107.656 16.472C107.699 16.472 107.731 16.4827 107.752 16.504C107.795 16.568 107.859 16.6 107.944 16.6C108.008 16.6 108.04 16.5893 108.04 16.568V16.504C108.04 16.4613 108.04 16.4293 108.04 16.408C108.061 16.3653 108.125 16.312 108.232 16.248C108.381 16.184 108.467 16.1627 108.488 16.184C108.531 16.184 108.552 16.2267 108.552 16.312C108.509 16.3547 108.531 16.376 108.616 16.376C108.659 16.376 108.712 16.376 108.776 16.376C108.84 16.3547 108.893 16.312 108.936 16.248C109.043 16.1413 109.064 16.0347 109 15.928C108.915 15.928 108.872 15.9067 108.872 15.864H109H109.288H109.32C109.32 15.864 109.331 15.8853 109.352 15.928C109.352 16.0987 109.565 16.0773 109.992 15.864C110.099 15.8 110.152 15.768 110.152 15.768C110.152 15.7467 110.12 15.7147 110.056 15.672C109.992 15.608 109.992 15.512 110.056 15.384C110.141 15.2987 110.216 15.2773 110.28 15.32C110.365 15.3627 110.451 15.3413 110.536 15.256V15.064C110.493 14.9573 110.461 14.84 110.44 14.712C110.419 14.5627 110.408 14.3707 110.408 14.136C110.365 13.9013 110.333 13.7093 110.312 13.56C110.291 13.3893 110.227 13.2293 110.12 13.08C109.992 12.888 109.949 12.7387 109.992 12.632C109.992 12.5893 109.971 12.5253 109.928 12.44C109.885 12.3547 109.779 12.248 109.608 12.12L109.416 11.896L108.872 12.248L108.68 12.376C108.637 12.4187 108.584 12.4507 108.52 12.472C108.456 12.4933 108.403 12.5253 108.36 12.568V12.44C108.36 12.3333 108.36 12.28 108.36 12.28C108.36 12.2587 108.339 12.248 108.296 12.248C108.253 12.248 108.232 12.152 108.232 11.96C108.189 11.9173 108.147 11.8853 108.104 11.864C108.083 11.8427 108.051 11.8107 108.008 11.768L107.88 11.64C107.773 11.5333 107.699 11.4587 107.656 11.416C107.635 11.352 107.603 11.32 107.56 11.32C107.389 11.32 107.304 11.2133 107.304 11C107.304 10.7227 107.368 10.584 107.496 10.584C107.56 10.5413 107.603 10.4987 107.624 10.456C107.667 10.4133 107.688 10.328 107.688 10.2C107.667 10.1787 107.656 10.136 107.656 10.072C107.656 10.0293 107.656 9.98667 107.656 9.944C107.656 9.90133 107.667 9.85867 107.688 9.816C107.773 9.816 107.816 9.76267 107.816 9.656C107.816 9.61333 107.891 9.50667 108.04 9.336C108.147 9.272 108.211 9.24 108.232 9.24C108.275 9.21867 108.317 9.208 108.36 9.208C108.445 9.208 108.755 9.00533 109.288 8.6C109.48 8.45067 109.661 8.30133 109.832 8.152C110.024 7.98133 110.195 7.832 110.344 7.704C110.344 7.68267 110.365 7.66133 110.408 7.64C110.429 7.61867 110.451 7.59733 110.472 7.576C110.515 7.55467 110.557 7.52267 110.6 7.48C110.664 7.48 110.728 7.416 110.792 7.288C110.835 7.26667 110.899 7.224 110.984 7.16C111.112 7.07467 111.219 6.98933 111.304 6.904C111.432 6.904 111.635 6.79733 111.912 6.584C112.147 6.392 112.339 6.25333 112.488 6.168C112.573 6.168 112.637 6.15733 112.68 6.136C112.723 6.11467 112.776 6.104 112.84 6.104ZM111.4 7.288V7.256H111.368C111.347 7.256 111.325 7.24533 111.304 7.224C111.261 7.224 111.24 7.24533 111.24 7.288C111.24 7.33067 111.251 7.352 111.272 7.352H111.304L111.4 7.288ZM113.896 23.16C113.939 22.968 113.971 22.7653 113.992 22.552C114.013 22.3173 114.003 22.0613 113.96 21.784C113.853 21.6133 113.651 21.528 113.352 21.528C113.032 21.6347 112.648 21.7627 112.2 21.912C111.773 22.0613 111.283 22.264 110.728 22.52C110.387 22.6693 110.024 22.808 109.64 22.936C109.256 23.064 108.829 23.1813 108.36 23.288C108.317 23.288 108.275 23.2987 108.232 23.32C108.189 23.32 108.147 23.3413 108.104 23.384V23.416C108.104 23.4373 108.083 23.448 108.04 23.448C108.04 23.512 108.051 23.5973 108.072 23.704C108.093 23.7893 108.104 23.9173 108.104 24.088C108.147 24.1947 108.168 24.3547 108.168 24.568C108.189 24.76 108.211 24.9733 108.232 25.208C108.275 25.4853 108.296 25.688 108.296 25.816C108.296 25.944 108.296 26.0293 108.296 26.072C108.339 26.072 108.403 26.0507 108.488 26.008C108.573 25.944 108.701 25.88 108.872 25.816C109.149 25.7733 109.427 25.7307 109.704 25.688C110.003 25.624 110.301 25.5493 110.6 25.464C110.813 25.464 111.165 25.4 111.656 25.272C111.912 25.208 112.136 25.176 112.328 25.176C112.52 25.1547 112.648 25.1227 112.712 25.08C112.883 25.08 112.989 25.0373 113.032 24.952C113.117 24.9093 113.16 24.8453 113.16 24.76C113.117 24.6747 113.053 24.632 112.968 24.632C112.797 24.632 112.691 24.6747 112.648 24.76C112.499 24.9307 112.424 24.9307 112.424 24.76C112.467 24.76 112.488 24.7387 112.488 24.696C112.509 24.632 112.563 24.568 112.648 24.504C112.712 24.3547 112.861 24.28 113.096 24.28H113.352C113.437 24.1947 113.501 24.1093 113.544 24.024L113.896 23.16ZM103.4 9.464C103.421 9.50667 103.485 9.58133 103.592 9.688C103.635 9.73067 103.667 9.77333 103.688 9.816C103.816 9.944 103.88 10.1147 103.88 10.328L104.008 10.712C104.008 10.6693 104.019 10.648 104.04 10.648C104.061 10.648 104.072 10.6693 104.072 10.712V10.776C104.136 10.8613 104.136 11.0853 104.072 11.448V11.896C104.029 11.9387 104.008 11.992 104.008 12.056C104.008 12.0987 104.029 12.12 104.072 12.12C104.072 12.1627 104.072 12.216 104.072 12.28C104.072 12.344 104.051 12.4613 104.008 12.632L103.88 13.08L103.496 12.76C103.283 12.5893 103.101 12.504 102.952 12.504C102.824 12.4827 102.739 12.5253 102.696 12.632C102.696 12.9093 102.632 12.888 102.504 12.568V12.44C102.461 12.3333 102.429 12.2587 102.408 12.216C102.408 12.152 102.365 12.12 102.28 12.12C102.237 12.1627 102.216 12.1947 102.216 12.216V12.248H102.088C102.003 12.1627 101.96 12.1627 101.96 12.248C101.896 12.248 101.843 12.2587 101.8 12.28C101.779 12.28 101.768 12.3333 101.768 12.44L101.704 12.696L101.64 12.44C101.597 12.3547 101.533 12.2693 101.448 12.184C101.363 12.1413 101.32 11.8533 101.32 11.32C101.32 10.6373 101.245 10.104 101.096 9.72C101.032 9.592 100.968 9.528 100.904 9.528C100.861 9.528 100.84 9.51733 100.84 9.496C100.84 9.47467 100.819 9.48533 100.776 9.528C100.691 9.528 100.584 9.4 100.456 9.144C100.328 9.016 100.243 8.90933 100.2 8.824C100.157 8.71733 100.136 8.62133 100.136 8.536C100.221 8.45067 100.307 8.408 100.392 8.408C100.605 8.408 100.627 8.36533 100.456 8.28C100.413 8.23733 100.349 8.216 100.264 8.216L99.912 8.088L100.392 7.96H101.096C101.181 8.00267 101.267 8.04533 101.352 8.088C101.459 8.10933 101.597 8.152 101.768 8.216C102.024 8.28 102.152 8.36533 102.152 8.472C102.195 8.472 102.248 8.48267 102.312 8.504C102.376 8.504 102.44 8.536 102.504 8.6C102.739 8.68533 102.803 8.78133 102.696 8.888C102.568 8.888 102.589 8.93067 102.76 9.016H102.888C102.845 8.97333 102.835 8.94133 102.856 8.92C102.877 8.89867 102.909 8.888 102.952 8.888C102.995 8.90933 103.016 8.93067 103.016 8.952C103.037 8.97333 103.069 9.00533 103.112 9.048C103.133 9.09067 103.165 9.12267 103.208 9.144C103.336 9.272 103.4 9.37867 103.4 9.464ZM109.864 15.736C109.736 15.8 109.672 15.7787 109.672 15.672V15.544C109.715 15.5013 109.736 15.4907 109.736 15.512C109.757 15.5333 109.8 15.5653 109.864 15.608C109.907 15.6933 109.907 15.736 109.864 15.736ZM115.208 14.2C115.123 14.2 115.08 14.1787 115.08 14.136C115.08 14.0933 115.101 14.072 115.144 14.072C115.165 14.072 115.187 14.0827 115.208 14.104V14.136C115.251 14.1787 115.251 14.2 115.208 14.2ZM114.664 14.072C114.771 14.072 114.824 14.1147 114.824 14.2H114.664C114.621 14.2 114.6 14.1573 114.6 14.072H114.664ZM98.856 15.736C99.1333 15.672 99.4213 15.672 99.72 15.736C100.019 15.7787 100.349 15.864 100.712 15.992C101.459 16.248 101.832 16.472 101.832 16.664C101.832 16.7067 101.843 16.7493 101.864 16.792C101.907 16.8347 101.96 16.856 102.024 16.856C102.131 16.856 102.248 16.9627 102.376 17.176C102.419 17.3467 102.472 17.5173 102.536 17.688C102.6 17.8373 102.653 17.9973 102.696 18.168C102.76 18.8933 102.76 19.4907 102.696 19.96V19.864C102.696 19.9707 102.632 20.024 102.504 20.024H102.44V20.088C102.44 20.1947 102.387 20.28 102.28 20.344C102.195 20.344 102.131 20.3653 102.088 20.408C102.088 20.472 101.981 20.4293 101.768 20.28C101.512 20.152 101.384 20.1093 101.384 20.152C101.341 20.152 101.288 20.152 101.224 20.152C101.181 20.1307 101.139 20.088 101.096 20.024C101.032 19.9387 100.957 19.8853 100.872 19.864C100.787 19.8213 100.691 19.7787 100.584 19.736C100.477 19.6933 100.392 19.6507 100.328 19.608C100.285 19.5653 100.243 19.5227 100.2 19.48C100.2 19.3307 100.125 19.224 99.976 19.16C99.6987 19.032 99.528 18.7227 99.464 18.232C99.4 17.7627 99.176 17.3253 98.792 16.92C98.664 16.728 98.6213 16.5893 98.664 16.504C98.664 16.376 98.6427 16.2907 98.6 16.248C98.5787 16.248 98.568 16.2373 98.568 16.216C98.5467 16.1947 98.536 16.1627 98.536 16.12C98.5787 16.12 98.6 16.1093 98.6 16.088C98.6 16.0667 98.5787 16.056 98.536 16.056C98.472 15.992 98.472 15.928 98.536 15.864C98.6 15.8213 98.6533 15.7893 98.696 15.768C98.7387 15.7467 98.792 15.736 98.856 15.736ZM102.76 22.648C102.888 22.52 102.995 22.456 103.08 22.456C103.165 22.456 103.208 22.4133 103.208 22.328C103.229 22.2853 103.251 22.2533 103.272 22.232C103.293 22.2107 103.315 22.1787 103.336 22.136C103.357 22.0933 103.379 22.0613 103.4 22.04C103.635 21.848 103.752 21.8053 103.752 21.912L103.816 21.976C103.773 21.9333 103.752 21.9013 103.752 21.88V21.848C103.752 21.8053 103.763 21.7733 103.784 21.752C103.805 21.7307 103.816 21.6987 103.816 21.656C103.901 21.7413 103.944 21.7413 103.944 21.656C103.944 21.528 103.965 21.5067 104.008 21.592C104.051 21.6347 104.083 21.656 104.104 21.656C104.125 21.656 104.136 21.6773 104.136 21.72C104.136 21.7627 104.008 21.9867 103.752 22.392C103.688 22.456 103.624 22.5307 103.56 22.616C103.432 22.7867 103.357 22.904 103.336 22.968C103.293 23.0747 103.24 23.1387 103.176 23.16C103.133 23.2027 103.101 23.224 103.08 23.224V23.384V23.448C103.208 23.448 103.272 23.3947 103.272 23.288C103.315 23.2453 103.336 23.2133 103.336 23.192C103.336 23.1707 103.357 23.1387 103.4 23.096C103.549 22.9253 103.656 22.7973 103.72 22.712C103.784 22.6053 103.837 22.52 103.88 22.456C103.923 22.3707 103.987 22.328 104.072 22.328C104.072 22.4987 104.115 22.4987 104.2 22.328C104.243 22.328 104.275 22.3173 104.296 22.296C104.317 22.2747 104.328 22.2853 104.328 22.328C104.392 22.328 104.392 22.4347 104.328 22.648C104.285 22.712 104.243 22.7653 104.2 22.808C104.157 22.8293 104.115 22.8613 104.072 22.904C104.072 22.9467 104.061 22.9787 104.04 23C104.019 23 104.008 23.032 104.008 23.096C104.008 23.1387 103.965 23.224 103.88 23.352C103.816 23.4587 103.731 23.576 103.624 23.704C103.24 24.1733 103.123 24.408 103.272 24.408C103.357 24.408 103.4 24.3653 103.4 24.28C103.421 24.2373 103.443 24.216 103.464 24.216C103.485 24.1947 103.507 24.1733 103.528 24.152C103.549 24.1307 103.56 24.1093 103.56 24.088C103.624 24.024 103.656 23.992 103.656 23.992C103.677 23.9707 103.709 23.96 103.752 23.96L103.688 24.152C103.624 24.216 103.56 24.3013 103.496 24.408C103.432 24.4933 103.379 24.5893 103.336 24.696C103.293 24.76 103.251 24.824 103.208 24.888C103.165 24.952 103.123 25.016 103.08 25.08C103.037 25.1867 103.005 25.272 102.984 25.336C102.963 25.3787 102.952 25.4213 102.952 25.464C102.867 25.4213 102.803 25.4213 102.76 25.464V25.752C102.717 25.7947 102.675 25.8693 102.632 25.976C102.611 26.0827 102.568 26.2 102.504 26.328C102.355 26.6267 102.28 26.7867 102.28 26.808C102.323 26.808 102.301 26.8827 102.216 27.032C102.131 27.1813 102.024 27.4053 101.896 27.704C101.704 28.0027 101.565 28.2267 101.48 28.376C101.416 28.5467 101.384 28.6533 101.384 28.696C101.299 28.824 101.235 28.9093 101.192 28.952L101.096 29.048C100.968 29.1547 100.861 29.208 100.776 29.208C100.712 29.2293 100.627 29.24 100.52 29.24C100.477 29.1973 100.403 29.144 100.296 29.08C100.189 29.016 100.061 28.9093 99.912 28.76C99.8053 28.6533 99.6987 28.5467 99.592 28.44C99.4853 28.3547 99.4 28.248 99.336 28.12C99.1227 27.8427 98.9413 27.704 98.792 27.704C98.536 27.704 98.3867 27.6613 98.344 27.576C98.2587 27.576 98.216 27.4907 98.216 27.32C98.3227 27.1707 98.3227 27.0427 98.216 26.936C98.1307 26.8507 98.1307 26.648 98.216 26.328L98.344 25.816H98.664C98.7707 25.8587 98.8667 25.8693 98.952 25.848C99.0373 25.8267 99.1013 25.816 99.144 25.816C99.1867 25.7733 99.2613 25.6987 99.368 25.592C99.4747 25.4853 99.6133 25.3573 99.784 25.208C100.211 24.824 100.605 24.4293 100.968 24.024C101.331 23.6187 101.683 23.224 102.024 22.84L103.4 21.336V21.464L103.336 21.656C103.336 21.6133 103.272 21.656 103.144 21.784C103.101 21.8267 103.069 21.8907 103.048 21.976C103.027 22.04 102.995 22.104 102.952 22.168C102.909 22.2533 102.867 22.328 102.824 22.392C102.781 22.456 102.739 22.52 102.696 22.584L102.632 22.648C102.611 22.6693 102.589 22.6907 102.568 22.712C102.547 22.712 102.525 22.7333 102.504 22.776C102.461 22.84 102.461 22.872 102.504 22.872C102.568 22.872 102.653 22.84 102.76 22.776V22.648ZM103.496 22.264C103.496 22.3067 103.517 22.328 103.56 22.328C103.603 22.328 103.624 22.3067 103.624 22.264C103.688 22.1573 103.688 22.104 103.624 22.104L103.528 22.2C103.507 22.2213 103.496 22.2427 103.496 22.264ZM114.344 17.24C114.344 17.3253 114.301 17.368 114.216 17.368C114.173 17.368 114.109 17.3787 114.024 17.4C113.96 17.4 113.896 17.432 113.832 17.496C113.725 17.496 113.651 17.5067 113.608 17.528C113.565 17.5493 113.523 17.56 113.48 17.56L113.704 17.368H113.832C114.003 17.2613 114.131 17.208 114.216 17.208C114.301 17.1867 114.344 17.1973 114.344 17.24ZM108.872 19.16C108.915 19.16 108.936 19.1493 108.936 19.128V19.096L109 19.032C109.107 18.968 109.192 18.936 109.256 18.936C109.32 18.9147 109.373 18.8827 109.416 18.84C109.416 18.8613 109.405 18.8827 109.384 18.904C109.384 18.904 109.384 18.9147 109.384 18.936L109.352 18.968C109.352 19.0107 109.309 19.032 109.224 19.032C108.989 19.16 108.872 19.2027 108.872 19.16ZM108.68 19.16C108.723 19.16 108.733 19.1707 108.712 19.192C108.712 19.2133 108.68 19.2453 108.616 19.288C108.573 19.288 108.552 19.2987 108.552 19.32C108.552 19.3413 108.531 19.352 108.488 19.352L108.424 19.288L108.68 19.16ZM103.56 24.76C103.603 24.7173 103.624 24.6853 103.624 24.664C103.624 24.6427 103.645 24.632 103.688 24.632V24.76H103.624H103.56ZM135.656 8.728C135.784 8.728 135.955 8.67467 136.168 8.568C136.381 8.44 136.68 8.38667 137.064 8.408C137.469 8.42933 137.725 8.504 137.832 8.632C137.896 8.76 137.992 8.80267 138.12 8.76C138.248 8.71733 138.461 8.824 138.76 9.08C139.059 9.336 139.208 9.53867 139.208 9.688C139.208 9.816 139.197 9.912 139.176 9.976C139.133 10.0613 138.952 10.2 138.632 10.392C138.312 10.5627 138.056 10.68 137.864 10.744C137.267 11 136.787 11.2773 136.424 11.576C136.232 11.7253 136.083 11.7787 135.976 11.736C135.891 11.6933 135.539 11.832 134.92 12.152L133.992 12.632L133.512 12.504C133.213 12.3973 133.053 12.3013 133.032 12.216C133.011 12.1307 132.68 11.928 132.04 11.608C131.421 11.288 131.016 11.064 130.824 10.936C130.653 10.8507 130.611 10.7867 130.696 10.744C130.696 10.744 130.728 10.744 130.792 10.744L130.888 10.712C130.867 10.6907 130.803 10.648 130.696 10.584L130.344 10.424L130.632 10.392C130.803 10.3707 131.005 10.3813 131.24 10.424C131.816 10.552 132.584 10.3813 133.544 9.912C134.397 9.464 134.963 9.13333 135.24 8.92C135.411 8.792 135.549 8.728 135.656 8.728ZM144.872 6.008C145.085 5.944 145.384 5.99733 145.768 6.168C146.109 6.33867 146.323 6.424 146.408 6.424C146.515 6.424 146.728 6.488 147.048 6.616C147.389 6.72267 147.667 6.85067 147.88 7C148.136 7.192 148.36 7.40533 148.552 7.64L148.808 7.96L148.68 9.176C148.509 10.52 148.285 11.8 148.008 13.016L147.944 13.24L148.232 12.952C148.424 12.7813 148.637 12.7173 148.872 12.76C149.107 12.8027 149.352 12.8453 149.608 12.888C149.864 12.9093 150.056 12.984 150.184 13.112C150.312 13.2187 150.664 13.4107 151.24 13.688C151.816 13.944 152.232 14.1573 152.488 14.328C152.765 14.4987 153.064 14.6373 153.384 14.744C153.64 14.808 153.768 14.8507 153.768 14.872C153.789 14.8933 153.757 14.936 153.672 15C153.523 15.0427 153.48 15.1173 153.544 15.224C153.629 15.3307 153.619 15.512 153.512 15.768C153.405 16.0027 153.245 16.2053 153.032 16.376C152.819 16.5467 152.712 16.6853 152.712 16.792C152.712 16.8773 152.627 17.016 152.456 17.208C152.307 17.4 152.136 17.6773 151.944 18.04C151.773 18.4027 151.688 18.6267 151.688 18.712C151.688 18.7973 151.656 18.8507 151.592 18.872C151.528 18.8933 151.475 19.0853 151.432 19.448C151.411 19.7893 151.336 20.0667 151.208 20.28C150.973 20.7493 150.877 21.1333 150.92 21.432C150.941 21.5387 150.899 21.7307 150.792 22.008C150.685 22.2853 150.632 22.456 150.632 22.52C150.632 22.5627 150.589 22.6053 150.504 22.648C150.44 22.6907 150.365 22.84 150.28 23.096C150.216 23.3307 150.163 23.4693 150.12 23.512C150.099 23.5547 150.003 23.7253 149.832 24.024C149.683 24.3013 149.533 24.5147 149.384 24.664C149.235 24.8133 149.181 24.888 149.224 24.888C149.267 24.888 149.171 25.0267 148.936 25.304C148.723 25.56 148.616 25.72 148.616 25.784C148.616 25.848 148.552 25.944 148.424 26.072C148.296 26.2 148.157 26.392 148.008 26.648C147.603 27.416 147.272 27.96 147.016 28.28C146.739 28.6213 146.547 28.792 146.44 28.792C146.355 28.792 146.291 28.6107 146.248 28.248C146.227 27.9067 146.173 27.6613 146.088 27.512C146.024 27.3627 145.885 26.9573 145.672 26.296L145.032 24.664C144.84 24.1093 144.808 23.7467 144.936 23.576C145.021 23.448 145.139 23.416 145.288 23.48C145.395 23.544 145.469 23.5653 145.512 23.544C145.576 23.5013 145.715 23.3947 145.928 23.224C146.184 22.9893 146.376 22.872 146.504 22.872C146.632 22.872 146.664 22.8187 146.6 22.712C146.579 22.648 146.632 22.424 146.76 22.04C146.888 21.6347 146.984 21.4107 147.048 21.368C147.112 21.304 147.304 20.568 147.624 19.16C147.667 18.8827 147.699 18.7227 147.72 18.68C147.763 18.616 147.816 18.36 147.88 17.912L148.04 16.696L148.136 16.184L147.784 16.216C147.571 16.2587 147.389 16.3547 147.24 16.504C147.091 16.632 146.931 16.728 146.76 16.792C146.632 16.8773 146.525 16.984 146.44 17.112C146.376 17.2187 146.28 17.5173 146.152 18.008C145.235 20.952 144.499 22.8933 143.944 23.832C143.645 24.3227 143.336 24.9413 143.016 25.688C142.525 26.8187 142.163 27.416 141.928 27.48C141.843 27.5013 141.757 27.5547 141.672 27.64C141.523 27.8533 141.448 27.864 141.448 27.672C141.448 27.5867 141.373 27.4053 141.224 27.128C141.096 26.872 140.979 26.6907 140.872 26.584C140.701 26.4133 140.627 26.2213 140.648 26.008C140.648 25.8373 140.627 25.6453 140.584 25.432C140.541 25.1973 140.488 25.08 140.424 25.08C140.381 25.08 140.328 25.144 140.264 25.272C140.179 25.3573 140.125 25.4 140.104 25.4C140.083 25.3787 140.019 25.2827 139.912 25.112C139.827 24.92 139.752 24.824 139.688 24.824C139.645 24.824 139.432 24.7173 139.048 24.504C138.685 24.2693 138.451 24.152 138.344 24.152C138.259 24.152 138.184 24.0773 138.12 23.928C137.992 23.6933 137.811 23.6827 137.576 23.896C137.405 24.0667 136.872 24.44 135.976 25.016C135.101 25.5707 134.504 25.9333 134.184 26.104C133.757 26.3173 133.395 26.552 133.096 26.808C132.776 27.1067 132.552 27.256 132.424 27.256C132.317 27.256 132.211 27.1067 132.104 26.808C132.019 26.488 131.891 26.2427 131.72 26.072L131.08 25.4C130.845 25.1653 130.685 24.9627 130.6 24.792C130.515 24.6213 130.44 24.536 130.376 24.536C130.333 24.536 130.312 24.408 130.312 24.152C130.333 23.96 130.387 23.8107 130.472 23.704C130.579 23.5973 130.685 23.576 130.792 23.64C130.856 23.704 131.069 23.736 131.432 23.736C131.645 23.736 131.795 23.7253 131.88 23.704C131.965 23.6613 132.072 23.5547 132.2 23.384C132.392 23.1707 132.584 22.776 132.776 22.2C132.989 21.624 133.16 21.208 133.288 20.952C133.779 19.8213 134.024 19 134.024 18.488C134.003 18.424 133.981 18.4027 133.96 18.424C133.832 18.4667 133.565 18.616 133.16 18.872C132.776 19.128 132.552 19.3093 132.488 19.416C132.317 19.5227 132.221 19.5653 132.2 19.544C132.179 19.5227 132.104 19.544 131.976 19.608C131.848 19.672 131.613 19.6293 131.272 19.48C130.931 19.3093 130.749 19.224 130.728 19.224C130.707 19.224 130.376 19.0747 129.736 18.776C129.181 18.52 128.797 18.3173 128.584 18.168C128.371 18.0187 128.285 17.9013 128.328 17.816C128.349 17.752 128.328 17.6773 128.264 17.592C128.157 17.4427 128.232 17.3573 128.488 17.336C128.595 17.3147 128.797 17.304 129.096 17.304C129.587 17.2827 129.981 17.1973 130.28 17.048C130.6 16.8987 131.411 16.3973 132.712 15.544C133.821 14.84 134.739 14.2853 135.464 13.88C135.955 13.624 136.253 13.4533 136.36 13.368C136.723 13.048 137.011 12.888 137.224 12.888C137.309 12.888 137.363 12.856 137.384 12.792C137.405 12.728 137.533 12.7493 137.768 12.856C138.515 13.176 138.963 13.3573 139.112 13.4C139.261 13.464 139.336 13.5387 139.336 13.624C139.336 13.7093 139.357 13.752 139.4 13.752C139.443 13.752 139.624 13.912 139.944 14.232C140.264 14.552 140.424 14.7333 140.424 14.776C140.424 14.8187 140.36 14.84 140.232 14.84C140.125 14.84 140.072 14.8827 140.072 14.968C140.072 15.0533 139.987 15.0853 139.816 15.064C139.475 15.0213 138.92 15.2773 138.152 15.832C137.96 16.0027 137.779 16.088 137.608 16.088C137.437 16.088 137.309 16.12 137.224 16.184C137.16 16.2267 137.053 16.2587 136.904 16.28C136.541 16.344 136.36 16.4187 136.36 16.504C136.36 16.5253 136.435 16.6533 136.584 16.888C136.755 17.1013 136.883 17.2507 136.968 17.336C137.075 17.4427 137.096 17.6027 137.032 17.816L136.936 18.584L136.904 19L137.448 19.224C137.811 19.352 138.195 19.5333 138.6 19.768L139.848 20.536C140.317 20.8133 140.552 20.984 140.552 21.048C140.552 21.112 140.605 21.208 140.712 21.336C140.797 21.464 140.819 21.528 140.776 21.528C140.669 21.528 140.605 21.56 140.584 21.624C140.584 21.6667 140.584 21.784 140.584 21.976C140.605 22.2747 140.616 22.5093 140.616 22.68C140.637 22.8507 140.701 22.936 140.808 22.936C140.893 22.936 140.989 22.872 141.096 22.744C141.224 22.5947 141.288 22.4667 141.288 22.36C141.288 22.2533 141.331 22.1787 141.416 22.136C141.544 22.0507 141.768 21.6987 142.088 21.08C142.408 20.44 142.707 19.7893 142.984 19.128C143.219 18.36 143.272 17.9653 143.144 17.944C143.059 17.944 142.92 17.88 142.728 17.752C142.557 17.624 142.205 17.56 141.672 17.56C141.16 17.56 140.819 17.4853 140.648 17.336C140.499 17.1653 140.36 17.0693 140.232 17.048C140.125 17.0053 140.104 16.952 140.168 16.888C140.232 16.824 140.189 16.728 140.04 16.6C139.933 16.536 139.88 16.4827 139.88 16.44C139.88 16.3973 139.933 16.3547 140.04 16.312C140.147 16.2267 140.36 16.184 140.68 16.184C141.512 16.184 142.419 15.9387 143.4 15.448L144.296 15L144.52 13.848C144.904 11.5227 145.117 10.0507 145.16 9.432C145.203 8.792 145.128 8.152 144.936 7.512C144.723 7 144.637 6.70133 144.68 6.616C144.723 6.53067 144.701 6.456 144.616 6.392C144.531 6.24267 144.616 6.11467 144.872 6.008ZM136.904 20.728C136.712 20.536 136.584 20.44 136.52 20.44C136.477 20.44 136.424 20.568 136.36 20.824C136.296 21.0587 136.211 21.2187 136.104 21.304C136.019 21.368 135.976 21.4427 135.976 21.528C135.976 21.6133 135.912 21.784 135.784 22.04C135.677 22.2747 135.635 22.4133 135.656 22.456C135.677 22.4773 135.912 22.392 136.36 22.2C136.808 22.008 137.085 21.9227 137.192 21.944C137.299 21.9653 137.384 21.9653 137.448 21.944C137.533 21.9013 137.501 21.7307 137.352 21.432C137.224 21.1333 137.075 20.8987 136.904 20.728Z" fill="black"/>
</svg>
