<svg width="118" height="33" viewBox="0 0 118 33" fill="none" xmlns="http://www.w3.org/2000/svg">
<path d="M7.72 3.952C7.63467 3.80267 7.624 3.696 7.688 3.632C7.752 3.54667 7.88 3.536 8.072 3.6C8.264 3.664 8.41333 3.74933 8.52 3.856C8.62667 3.96267 8.712 4.02667 8.776 4.048C8.904 4.112 9.224 4.42133 9.736 4.976C10.2693 5.53067 10.536 5.85067 10.536 5.936C10.536 6.08533 10.5787 6.224 10.664 6.352C10.7707 6.45867 10.824 6.61867 10.824 6.832C10.824 7.024 10.856 7.12 10.92 7.12C11.0053 7.12 11.3467 6.96 11.944 6.64C12.5413 6.32 13.0107 6.16 13.352 6.16C13.8427 6.16 14.184 6.21333 14.376 6.32C14.5893 6.40533 14.9307 6.672 15.4 7.12C15.9333 7.65333 16.2 7.94133 16.2 7.984C16.2427 8.45333 16.296 8.784 16.36 8.976C16.3813 9.08267 16.264 9.264 16.008 9.52C15.752 9.776 15.4 10.224 14.952 10.864C14.5253 11.4827 14.1093 12.048 13.704 12.56C13.32 13.0507 13.0107 13.4453 12.776 13.744C12.5627 14.0213 12.3387 14.2773 12.104 14.512C11.8907 14.7467 11.6453 15.0667 11.368 15.472C10.408 16.6667 9.832 17.3387 9.64 17.488C9.448 17.6373 9.40533 17.712 9.512 17.712C9.64 17.6907 10.024 17.552 10.664 17.296C11.368 17.04 12.008 16.8267 12.584 16.656C13.1813 16.464 13.512 16.3253 13.576 16.24C13.64 16.1547 13.7147 16.1227 13.8 16.144C13.8853 16.1653 14.0027 16.1547 14.152 16.112C14.3013 16.048 14.4507 16.0693 14.6 16.176C14.7707 16.2827 14.9733 16.3253 15.208 16.304C15.4427 16.2613 15.592 16.2827 15.656 16.368C15.7413 16.4533 15.7627 16.496 15.72 16.496C15.6773 16.496 15.7307 16.5813 15.88 16.752C16.0507 16.9013 16.1787 16.976 16.264 16.976C16.3493 16.976 16.392 16.9973 16.392 17.04C16.392 17.0827 16.5733 17.296 16.936 17.68C17.32 18.064 17.5227 18.2987 17.544 18.384C17.5653 18.96 17.448 19.504 17.192 20.016C16.6587 21.0613 16.392 21.6373 16.392 21.744C16.392 21.808 16.3173 21.968 16.168 22.224C16.04 22.48 15.9227 22.7787 15.816 23.12L15.592 23.632L15.816 23.856C15.9227 24.0267 16.072 24.1547 16.264 24.24C16.456 24.3253 16.648 24.464 16.84 24.656C17.0533 24.848 17.1173 25.0187 17.032 25.168C16.968 25.296 16.9787 25.424 17.064 25.552C17.256 25.8933 17.2773 26.064 17.128 26.064C16.9787 26.064 16.8613 26.0747 16.776 26.096C16.6907 26.1387 16.3387 26.1813 15.72 26.224C15.1227 26.2667 14.6427 26.32 14.28 26.384C13.9173 26.448 13.5013 26.4907 13.032 26.512C12.264 26.5333 11.1333 26.8107 9.64 27.344C9.53333 27.3653 9.40533 27.3867 9.256 27.408H9L9.032 28.272C9.05333 28.8267 9.04267 29.1467 9 29.232C9 29.2533 8.968 29.2533 8.904 29.232C8.86133 29.2107 8.79733 29.168 8.712 29.104C8.62667 29.04 8.54133 28.9547 8.456 28.848C7.66667 28.1013 7.208 27.6533 7.08 27.504C6.952 27.3547 6.87733 27.184 6.856 26.992C6.81333 26.7147 6.74933 26.512 6.664 26.384C6.6 26.2773 6.568 26.064 6.568 25.744C6.54667 24.2933 6.45067 23.0133 6.28 21.904C6.23733 21.648 6.19467 21.4987 6.152 21.456C6.10933 21.392 6.056 21.3813 5.992 21.424C5.77867 21.5307 5.32 21.9467 4.616 22.672C3.74133 23.568 3.144 24.1547 2.824 24.432C2.52533 24.688 2.14133 24.976 1.672 25.296C1.352 25.488 1.192 25.5093 1.192 25.36C1.23467 25.296 1.192 25.104 1.064 24.784C0.957334 24.4427 0.882667 24.144 0.84 23.888C0.818667 23.7813 0.786667 23.7067 0.744 23.664C0.722667 23.6213 0.690667 23.6 0.648 23.6C0.562667 23.6213 0.509334 23.568 0.488 23.44C0.445334 23.2907 0.477334 23.1307 0.584001 22.96C0.648 22.7893 0.658667 22.6293 0.616 22.48C0.594667 22.3307 0.648001 22.192 0.776 22.064C0.904 21.936 0.968 21.8187 0.968 21.712C0.989333 21.584 1.02133 21.52 1.064 21.52C1.128 21.52 1.16 21.4773 1.16 21.392C1.16 21.2853 1.192 21.232 1.256 21.232C1.32 21.232 1.39467 21.1253 1.48 20.912C1.62933 20.592 1.81067 20.3147 2.024 20.08C2.25867 19.8453 2.48267 19.7173 2.696 19.696C2.93067 19.6747 3.16533 19.5253 3.4 19.248C3.72 18.9067 3.73067 18.736 3.432 18.736C3.32533 18.736 3.25067 18.7147 3.208 18.672C3.18667 18.608 3.208 18.5653 3.272 18.544C3.29333 18.544 3.32533 18.544 3.368 18.544C3.432 18.5227 3.41067 18.4907 3.304 18.448C3.24 18.448 3.19733 18.4373 3.176 18.416C2.984 18.352 2.888 18.2987 2.888 18.256C2.888 18.2133 2.984 18.192 3.176 18.192H3.432L3.208 18L3.016 17.808L3.4 17.904C3.82667 17.9893 4.11467 18.0107 4.264 17.968C4.43467 17.9253 4.60533 17.7867 4.776 17.552C5.13867 17.0613 5.46933 16.6667 5.768 16.368C5.85333 16.2827 5.896 16.2187 5.896 16.176C5.896 16.1333 6.13067 15.8347 6.6 15.28C7.06933 14.7253 7.272 14.4267 7.208 14.384C7.16533 14.32 6.89867 14.192 6.408 14C5.192 13.5093 4.584 13.1787 4.584 13.008C4.584 12.9227 4.56267 12.88 4.52 12.88C4.37067 12.88 4.36 12.7947 4.488 12.624C4.50933 12.5813 4.54133 12.5387 4.584 12.496C4.712 12.4107 4.73333 12.3253 4.648 12.24C4.60533 12.176 4.648 12.144 4.776 12.144C4.84 12.144 5.01067 12.1547 5.288 12.176C5.736 12.2187 5.96 12.2187 5.96 12.176C5.96 12.1547 5.928 12.1227 5.864 12.08C5.77867 11.952 5.736 11.856 5.736 11.792C5.736 11.7067 5.68267 11.6533 5.576 11.632C5.46933 11.5893 5.416 11.5253 5.416 11.44C5.416 11.3547 5.384 11.312 5.32 11.312C5.27733 11.312 5.256 11.2267 5.256 11.056C5.256 10.864 5.224 10.768 5.16 10.768C5.096 10.768 5.07467 10.6827 5.096 10.512C5.13867 10.32 5.16 10.1173 5.16 9.904C5.16 9.66933 5.192 9.552 5.256 9.552C5.32 9.552 5.30933 9.49867 5.224 9.392C5.16 9.28533 5.16 9.232 5.224 9.232C5.30933 9.232 5.34133 9.2 5.32 9.136C5.29867 9.05067 5.32 8.95467 5.384 8.848C5.448 8.74133 5.512 8.688 5.576 8.688C5.85333 8.688 6.28 8.05867 6.856 6.8C7.368 5.75467 7.66667 5.08267 7.752 4.784C7.83733 4.464 7.82667 4.18667 7.72 3.952ZM11.016 9.872C11.016 9.78667 10.8027 9.85067 10.376 10.064C10.0133 10.2347 9.69333 10.32 9.416 10.32C9.16 10.3413 8.98933 10.3733 8.904 10.416C8.84 10.4587 8.70133 10.6293 8.488 10.928C8.18933 11.3333 8.008 11.568 7.944 11.632C7.88 11.6533 7.79467 11.728 7.688 11.856C7.60267 11.984 7.528 12.1013 7.464 12.208C7.4 12.2933 7.38933 12.3467 7.432 12.368C7.45333 12.368 7.624 12.4213 7.944 12.528C8.28533 12.6347 8.488 12.7093 8.552 12.752C8.63733 12.7733 8.84 12.5813 9.16 12.176C9.50133 11.7493 9.704 11.504 9.768 11.44C9.85333 11.376 10.0773 11.1093 10.44 10.64C10.824 10.1493 11.016 9.89333 11.016 9.872ZM13.48 20.592C13.7573 19.888 13.896 19.5253 13.896 19.504C13.896 19.4827 13.8747 19.472 13.832 19.472C13.512 19.5147 12.584 19.856 11.048 20.496C10.4507 20.752 9.96 20.944 9.576 21.072C9.128 21.2 8.872 21.328 8.808 21.456C8.744 21.5627 8.776 21.8827 8.904 22.416C9.032 23.0347 9.096 23.4293 9.096 23.6C9.096 23.7707 9.128 23.856 9.192 23.856C9.40533 23.856 10.1307 23.6747 11.368 23.312C11.5387 23.2267 11.72 23.1733 11.912 23.152C12.1253 23.1093 12.3387 22.9813 12.552 22.768C12.7653 22.5547 12.904 22.32 12.968 22.064C13.0533 21.7867 13.224 21.296 13.48 20.592ZM29.8 10.16C29.5867 9.86133 29.5227 9.69067 29.608 9.648C29.6933 9.60533 29.7787 9.60533 29.864 9.648C29.9707 9.69067 30.1733 9.744 30.472 9.808C30.792 9.82933 31.2827 10.0213 31.944 10.384C32.6267 10.7253 33.032 10.9813 33.16 11.152C33.4373 11.6 33.576 12.56 33.576 14.032C33.5973 15.4827 33.4693 16.6027 33.192 17.392C33.0427 17.84 32.9467 18.1707 32.904 18.384C32.8827 18.5973 32.808 18.832 32.68 19.088C32.552 19.344 32.488 19.568 32.488 19.76C32.488 19.9307 32.4347 20.144 32.328 20.4L32.168 20.752L32.104 20.368C32.04 20.112 31.9653 19.984 31.88 19.984C31.7733 19.984 31.656 19.9093 31.528 19.76C31.4 19.6107 31.304 19.472 31.24 19.344C31.1973 19.1947 31.0693 19.0027 30.856 18.768C30.6 18.5333 30.3867 18.224 30.216 17.84C30.0667 17.4347 30.0347 17.168 30.12 17.04C30.1627 16.9547 30.2587 16.4 30.408 15.376C30.5787 14.3307 30.664 13.648 30.664 13.328C30.664 12.9227 30.6107 12.6133 30.504 12.4C30.4187 12.1653 30.376 11.92 30.376 11.664C30.376 11.1947 30.184 10.6933 29.8 10.16ZM48.072 6.128C48.2853 6.064 48.392 6.05333 48.392 6.096C48.392 6.11733 48.104 6.224 47.528 6.416C46.952 6.608 46.6427 6.704 46.6 6.704C46.536 6.704 46.5253 6.672 46.568 6.608C46.6107 6.544 46.7493 6.49067 46.984 6.448C47.2187 6.40533 47.4213 6.352 47.592 6.288C47.784 6.20267 47.944 6.14933 48.072 6.128ZM45.16 3.152C45.16 3.06667 45.16 3.024 45.16 3.024C45.1813 3.00267 45.2347 3.00267 45.32 3.024C45.4053 3.06667 45.672 3.10933 46.12 3.152C46.568 3.19467 46.9627 3.28 47.304 3.408C47.6667 3.51467 47.944 3.568 48.136 3.568C48.3493 3.54667 48.5733 3.632 48.808 3.824C49.1493 4.10133 49.192 4.25067 48.936 4.272C48.7227 4.29333 48.68 4.45333 48.808 4.752C48.8507 4.83733 48.8507 4.88 48.808 4.88C48.7867 4.88 48.7227 4.85867 48.616 4.816C48.424 4.752 48.328 4.73067 48.328 4.752C48.328 4.77333 48.3387 4.816 48.36 4.88C48.4027 4.944 48.424 5.05067 48.424 5.2C48.4453 5.34933 48.4667 5.46667 48.488 5.552C48.5307 5.63733 48.4453 5.744 48.232 5.872C48.0187 5.97867 47.912 6.02133 47.912 6C47.912 5.95733 47.8373 5.98933 47.688 6.096C47.5387 6.18133 47.2507 6.27733 46.824 6.384C46.4187 6.46933 46.2053 6.576 46.184 6.704C46.1627 6.832 46.0987 6.896 45.992 6.896C45.928 6.896 45.8853 6.94933 45.864 7.056C45.864 7.16267 45.8747 7.42933 45.896 7.856C45.9387 8.34667 45.9493 8.77333 45.928 9.136C45.9067 9.47733 45.9067 9.648 45.928 9.648C45.9707 9.648 46.1947 9.584 46.6 9.456C47.3467 9.24267 48.232 9.22133 49.256 9.392C49.64 9.456 49.9067 9.47733 50.056 9.456C50.184 9.456 50.4613 9.60533 50.888 9.904C51.336 10.1813 51.7093 10.448 52.008 10.704C52.2213 10.9387 52.3493 11.184 52.392 11.44C52.456 11.696 52.4453 12.1013 52.36 12.656C52.2747 13.232 52.2427 13.552 52.264 13.616C52.2853 13.68 52.2107 14.1067 52.04 14.896C51.8693 15.6853 51.7307 16.24 51.624 16.56C51.56 16.8373 51.496 17.104 51.432 17.36C51.368 17.5947 51.208 17.968 50.952 18.48C50.7173 18.9707 50.5893 19.3227 50.568 19.536C50.5253 19.7493 50.4187 19.9947 50.248 20.272C50.0987 20.528 49.9493 20.7093 49.8 20.816L49.512 21.008L49.384 20.752C49.0853 19.984 48.808 19.44 48.552 19.12C48.3813 18.9707 48.296 18.864 48.296 18.8C48.296 18.736 48.136 18.416 47.816 17.84C47.5173 17.2427 47.368 16.8693 47.368 16.72C47.368 16.5493 47.336 16.3787 47.272 16.208C47.208 16.0373 47.1973 15.9413 47.24 15.92C47.304 15.8773 47.432 15.9093 47.624 16.016C47.8587 16.1653 48.0293 16.2293 48.136 16.208C48.3067 16.144 48.392 15.8133 48.392 15.216C48.392 15.0667 48.4347 14.896 48.52 14.704C48.5627 14.5547 48.5947 14.0107 48.616 13.072C48.6587 12.112 48.6587 11.6213 48.616 11.6C48.552 11.5573 48.296 11.5893 47.848 11.696C47.4 11.8027 46.9947 11.9307 46.632 12.08L45.928 12.336L45.864 13.584C45.8427 14.3947 45.8427 16.5067 45.864 19.92C45.9067 23.3333 45.928 25.2853 45.928 25.776C45.8853 27.6107 45.8107 28.464 45.704 28.336L45.576 28.56C45.4907 28.688 45.4267 28.848 45.384 29.04C45.2133 29.5093 45.1173 29.744 45.096 29.744C45.0533 29.744 45.0213 29.68 45 29.552C44.9573 29.3813 44.8933 29.296 44.808 29.296C44.744 29.296 44.7013 29.3707 44.68 29.52C44.6587 29.6693 44.5627 29.5733 44.392 29.232C44.2213 28.912 44.0827 28.752 43.976 28.752C43.8907 28.7733 43.848 28.7093 43.848 28.56C43.848 28.4107 43.7947 28.336 43.688 28.336C43.6027 28.336 43.528 28.2293 43.464 28.016C43.4 27.8027 43.336 27.696 43.272 27.696C43.2293 27.696 43.1653 27.5147 43.08 27.152C43.016 26.7893 42.984 26.4907 42.984 26.256C42.984 23.824 43.0373 21.36 43.144 18.864C43.2933 15.3013 43.3467 13.4987 43.304 13.456C43.2827 13.4133 43.1973 13.424 43.048 13.488C42.8987 13.552 42.536 13.6693 41.96 13.84L41.096 14.096L41.032 15.12C40.9467 17.168 40.8293 18.2773 40.68 18.448C40.616 18.4907 40.5413 18.7893 40.456 19.344C40.392 19.8987 40.3493 20.176 40.328 20.176C40.3067 20.176 40.1147 20.0053 39.752 19.664C39.4107 19.3227 39.1973 19.152 39.112 19.152C39.048 19.152 38.9413 19.0667 38.792 18.896C38.664 18.704 38.568 18.608 38.504 18.608C38.4187 18.608 38.3333 18.5227 38.248 18.352C38.184 18.16 38.152 18 38.152 17.872C38.152 17.744 38.12 17.6693 38.056 17.648C37.992 17.6053 37.96 17.1573 37.96 16.304C37.96 15.4293 37.9813 14.96 38.024 14.896C38.0667 14.8107 38.088 14.5653 38.088 14.16C38.1093 13.7547 38.0987 13.5413 38.056 13.52C38.0133 13.4987 38.0027 13.328 38.024 13.008C38.0667 12.6667 38.0027 12.4107 37.832 12.24C37.6827 12.0693 37.5867 11.984 37.544 11.984C37.416 11.984 37.288 13.264 37.16 15.824C37.1387 16.8267 37.064 17.5947 36.936 18.128C36.872 18.5333 36.712 19.152 36.456 19.984C36.2 20.7947 36.008 21.3173 35.88 21.552C35.816 21.7227 35.752 21.9147 35.688 22.128C35.6667 22.2773 35.5813 22.5013 35.432 22.8C35.2827 23.0773 35.1867 23.216 35.144 23.216C35.1227 23.216 35.1227 23.184 35.144 23.12C35.1867 23.0773 35.1547 22.9493 35.048 22.736C34.9413 22.5013 34.792 22.288 34.6 22.096C34.3867 21.8613 34.28 21.7333 34.28 21.712C34.28 21.6693 34.184 21.5093 33.992 21.232C33.5867 20.6347 33.448 20.2827 33.576 20.176C33.64 20.112 33.6293 20.0587 33.544 20.016C33.4587 19.952 33.4053 19.76 33.384 19.44C33.384 19.0987 33.4373 18.9173 33.544 18.896C33.6293 18.8107 33.8427 17.9787 34.184 16.4C34.2907 15.9733 34.376 15.3547 34.44 14.544C34.5253 13.7333 34.6107 12.8267 34.696 11.824C34.7813 10.992 34.8133 10.0533 34.792 9.008C34.792 7.96267 34.7493 7.35467 34.664 7.184C34.6 7.056 34.5147 6.81067 34.408 6.448C34.3227 6.08533 34.152 5.78667 33.896 5.552C33.704 5.38133 33.5973 5.28533 33.576 5.264C33.576 5.22133 33.6187 5.14667 33.704 5.04C33.832 4.95467 34.056 4.944 34.376 5.008C34.9093 5.11467 35.4213 5.296 35.912 5.552C36.4667 5.872 36.8507 6.37333 37.064 7.056C37.2987 7.73867 37.416 8.73067 37.416 10.032V11.248L37.96 11.28C38.3227 11.3227 38.6427 11.3547 38.92 11.376C39.1973 11.3973 39.4853 11.472 39.784 11.6C40.0827 11.728 40.264 11.792 40.328 11.792C40.392 11.792 40.9147 11.6107 41.896 11.248L43.4 10.64V10.128C43.4 9.78667 43.368 9.31733 43.304 8.72L43.24 7.888L42.952 7.92C42.76 7.94133 42.5467 7.89867 42.312 7.792C42.0987 7.68533 41.864 7.6 41.608 7.536C41.3733 7.472 41.096 7.33333 40.776 7.12C40.4773 6.88533 40.2213 6.72533 40.008 6.64C39.816 6.53333 39.6133 6.39467 39.4 6.224C39.1867 6.032 39.0587 5.936 39.016 5.936C38.824 5.936 38.8453 5.78667 39.08 5.488C39.1867 5.36 39.4747 5.25333 39.944 5.168C40.4987 5.06133 41.832 4.61333 43.944 3.824C44.4773 3.61067 44.8187 3.472 44.968 3.408C45.1173 3.32267 45.1813 3.23733 45.16 3.152ZM72.84 14.096C73.0747 14.0533 73.2773 13.968 73.448 13.84C73.6187 13.6907 73.7573 13.648 73.864 13.712C73.9707 13.7547 74.248 13.7973 74.696 13.84C75.5067 13.904 75.912 14.0747 75.912 14.352C75.912 14.5013 75.976 14.6293 76.104 14.736C76.232 14.8427 76.296 14.9707 76.296 15.12C76.296 15.2693 76.3173 15.3547 76.36 15.376C76.424 15.376 76.4133 15.4827 76.328 15.696C76.264 15.888 76.2213 17.1573 76.2 19.504C76.1787 22.7467 76.0827 24.368 75.912 24.368C75.8907 24.368 75.8693 24.3147 75.848 24.208C75.8053 24.08 75.656 23.8773 75.4 23.6C75.1653 23.3227 74.952 23.184 74.76 23.184C74.568 23.1627 74.0453 23.248 73.192 23.44C72.1893 23.6533 71.6133 23.7813 71.464 23.824C71.3147 23.8453 71.2187 23.8133 71.176 23.728C71.1547 23.6427 71.0693 23.536 70.92 23.408C70.792 23.28 70.6427 23.088 70.472 22.832C70.3013 22.5547 70.1627 22.416 70.056 22.416C69.9493 22.416 69.704 22.2347 69.32 21.872C68.936 21.5093 68.744 21.2533 68.744 21.104C68.7653 20.9333 68.7973 20.8373 68.84 20.816C68.9253 20.7733 68.9787 20.3467 69 19.536C69.0427 18.704 69.032 18.2347 68.968 18.128C68.904 18.0427 68.8613 17.8293 68.84 17.488C68.7973 16.272 68.712 15.6427 68.584 15.6C68.4133 15.536 68.4773 15.4187 68.776 15.248C68.904 15.184 69.032 15.1413 69.16 15.12C69.3947 15.0987 70.0027 14.928 70.984 14.608C71.9867 14.288 72.6053 14.1173 72.84 14.096ZM73.736 16.432C73.6933 16.24 73.6187 16.144 73.512 16.144C73.4267 16.1227 73.128 16.1867 72.616 16.336C72.1253 16.4853 71.7413 16.56 71.464 16.56H71.048L71.08 17.232L71.144 17.744C71.144 17.68 71.1547 17.5947 71.176 17.488C71.1973 17.1893 71.2613 16.9867 71.368 16.88C71.4107 16.8373 71.432 16.8693 71.432 16.976C71.432 17.0187 71.4213 17.104 71.4 17.232C71.336 17.488 71.336 17.6373 71.4 17.68C71.464 17.7013 71.6667 17.648 72.008 17.52C72.2427 17.4347 72.5627 17.3813 72.968 17.36C73.3733 17.3387 73.6613 17.3707 73.832 17.456C73.9173 17.4773 73.9707 17.4773 73.992 17.456C74.0133 17.4133 74.024 17.3387 74.024 17.232C74.024 17.0187 73.992 16.9013 73.928 16.88C73.8853 16.8373 73.8213 16.688 73.736 16.432ZM74.152 18.8C74.152 18.736 74.1307 18.7147 74.088 18.736C74.024 18.736 73.7467 18.8533 73.256 19.088C72.7013 19.344 72.264 19.5147 71.944 19.6L71.496 19.76V20.56V21.328H71.816C72.0293 21.3067 72.4773 21.2747 73.16 21.232L74.184 21.2L74.216 20.176C74.216 19.5147 74.1947 19.1627 74.152 19.12C74.1093 19.0773 73.8213 19.1627 73.288 19.376C72.392 19.76 71.944 19.9093 71.944 19.824C72.008 19.7813 72.1893 19.696 72.488 19.568C73.5973 19.184 74.152 18.928 74.152 18.8ZM73.224 22.96C74.056 22.8107 74.4933 22.7253 74.536 22.704C74.6 22.6613 74.5253 22.6293 74.312 22.608C73.5867 22.5653 73.1387 22.6187 72.968 22.768C72.904 22.832 72.6693 22.8853 72.264 22.928C71.7307 22.9707 71.464 23.0347 71.464 23.12C71.464 23.1413 71.528 23.152 71.656 23.152C71.8693 23.152 72.392 23.088 73.224 22.96ZM74.504 22.992C74.504 22.992 74.4827 22.992 74.44 22.992C74.4187 22.9707 74.3547 22.9707 74.248 22.992C74.1413 22.992 74.0027 23.0133 73.832 23.056C73.6827 23.0987 73.4693 23.1307 73.192 23.152C72.552 23.28 72.0827 23.3653 71.784 23.408C71.5067 23.4293 71.368 23.4827 71.368 23.568C71.368 23.6533 71.3893 23.696 71.432 23.696C71.496 23.696 71.6453 23.664 71.88 23.6C72.1147 23.5147 72.6053 23.3973 73.352 23.248C74.12 23.0987 74.504 23.0133 74.504 22.992ZM63.72 11.92C63.656 11.792 63.6773 11.7173 63.784 11.696C63.8907 11.6747 63.9653 11.664 64.008 11.664C64.072 11.6427 64.3387 11.7493 64.808 11.984C65.2773 12.1973 65.5333 12.304 65.576 12.304C65.6187 12.304 65.6827 12.368 65.768 12.496C65.8533 12.624 66.0027 12.8267 66.216 13.104C66.344 13.2747 66.4293 13.424 66.472 13.552C66.5147 13.6587 66.536 13.9787 66.536 14.512V15.504L66.6 14.64C66.6213 14.2347 66.6427 14.288 66.664 14.8C66.664 15.0133 66.664 15.344 66.664 15.792C66.664 17.392 66.5253 19.536 66.248 22.224C65.992 24.4427 65.736 25.7013 65.48 26C65.3947 26.0853 65.3413 26.3307 65.32 26.736C65.32 27.1627 65.2667 27.5573 65.16 27.92L65 28.432L64.584 27.888C64.0507 27.0987 63.6987 26.736 63.528 26.8C63.4427 26.8213 63.2613 26.7253 62.984 26.512C62.728 26.32 62.568 26.224 62.504 26.224C62.44 26.224 62.408 26.16 62.408 26.032C62.408 25.9253 62.3547 25.872 62.248 25.872C62.184 25.872 62.1733 25.744 62.216 25.488C62.2373 25.424 62.2907 25.264 62.376 25.008L62.632 24.176C62.696 23.8987 62.792 23.6213 62.92 23.344C63.048 23.0667 63.112 22.864 63.112 22.736C63.1333 22.5867 63.1653 22.48 63.208 22.416C63.2507 22.352 63.2827 22.1813 63.304 21.904C63.3467 21.6267 63.4213 21.0827 63.528 20.272C63.6347 19.44 63.7093 18.8107 63.752 18.384C63.816 17.9573 63.88 17.6907 63.944 17.584C64.008 17.456 64.008 17.392 63.944 17.392C63.88 17.392 63.8693 16.6347 63.912 15.12C63.912 14.5013 63.8907 13.84 63.848 13.136C63.8267 12.432 63.784 12.0267 63.72 11.92ZM69 10.48C69.4053 10.0747 69.6187 9.872 69.64 9.872C69.6827 9.872 69.6613 9.92533 69.576 10.032C69.4907 10.288 69.5013 10.4053 69.608 10.384C69.672 10.3627 69.7147 10.3627 69.736 10.384C69.7573 10.4053 69.768 10.448 69.768 10.512C69.768 10.64 69.8107 10.704 69.896 10.704C69.9813 10.7253 69.832 10.9707 69.448 11.44C69.256 11.6533 69.192 11.76 69.256 11.76C69.2773 11.76 69.3093 11.76 69.352 11.76C69.416 11.7387 69.448 11.7387 69.448 11.76C69.4693 11.76 69.4693 11.792 69.448 11.856C69.4267 11.9627 69.4587 12.0373 69.544 12.08C69.7147 12.144 69.672 12.3893 69.416 12.816C69.16 13.136 69.0853 13.296 69.192 13.296C69.2347 13.296 69.32 13.2427 69.448 13.136L69.672 12.912L69.576 13.168C69.4267 13.68 69.32 13.936 69.256 13.936C69.2347 13.936 68.9893 13.7227 68.52 13.296C68.072 12.848 67.7733 12.5707 67.624 12.464C67.0693 12.208 66.728 11.9627 66.6 11.728C66.472 11.5573 66.4187 11.4187 66.44 11.312C66.4827 11.184 66.4613 11.0987 66.376 11.056C66.312 11.0133 66.2587 10.8747 66.216 10.64C66.1733 10.4053 66.1413 10.2453 66.12 10.16C66.0987 10.0533 66.1413 10 66.248 10C66.44 9.97867 66.6533 10.064 66.888 10.256C67.1013 10.4267 67.24 10.512 67.304 10.512C67.368 10.512 67.5067 10.6293 67.72 10.864C67.8907 11.0773 68.04 11.1627 68.168 11.12C68.296 11.056 68.5733 10.8427 69 10.48ZM73.768 0.688C74.152 0.538666 74.6107 0.591999 75.144 0.848C75.3573 0.933332 75.5387 1.136 75.688 1.456L75.944 1.936C75.944 1.936 76.264 1.85067 76.904 1.68C77.5653 1.50933 78.0667 1.40267 78.408 1.36C79.3467 1.25333 79.8907 1.14667 80.04 1.04C80.0827 0.997332 80.488 0.997332 81.256 1.04C82.024 1.08267 82.44 1.12533 82.504 1.168C82.5467 1.232 82.568 1.28533 82.568 1.328C82.568 1.37067 82.6427 1.47733 82.792 1.648C82.9627 1.81867 83.048 1.95733 83.048 2.064C83.048 2.14933 83.112 2.256 83.24 2.384C83.368 2.49067 83.4427 2.61867 83.464 2.768C83.5067 2.91733 83.5707 2.992 83.656 2.992C83.7413 2.992 83.784 3.056 83.784 3.184C83.784 3.29067 83.6133 3.33333 83.272 3.312C82.7387 3.29067 82.0027 3.36533 81.064 3.536C80.7013 3.6 80.3067 3.64267 79.88 3.664C79.5173 3.664 79.304 3.71733 79.24 3.824C79.1973 3.93067 79.3147 4.112 79.592 4.368C79.9973 4.752 80.264 5.18933 80.392 5.68C80.4987 5.97867 80.6373 6.256 80.808 6.512C81.128 6.896 81.1813 7.088 80.968 7.088C80.904 7.088 80.8293 7.07733 80.744 7.056C80.5093 6.992 80.3493 6.91733 80.264 6.832C80.0933 6.68267 79.9973 6.69333 79.976 6.864C79.976 6.97066 79.9973 7.07733 80.04 7.184C80.168 7.44 80.4347 7.61067 80.84 7.696C81.096 7.71733 81.4693 7.84533 81.96 8.08C82.4507 8.31467 82.7493 8.50667 82.856 8.656C82.9627 8.74133 83.0053 8.848 82.984 8.976C82.984 9.08267 82.9307 9.136 82.824 9.136C82.7387 9.136 82.696 9.17867 82.696 9.264C82.696 9.34933 82.7387 9.43467 82.824 9.52C82.9093 9.584 82.952 9.57333 82.952 9.488C82.952 9.40267 82.9947 9.36 83.08 9.36C83.1867 9.36 83.2293 9.456 83.208 9.648L83.144 9.904L83.176 10.16C83.24 10.3307 83.2293 10.4693 83.144 10.576C83.0587 10.6613 82.9947 11.1093 82.952 11.92C82.8667 13.0507 82.7813 13.68 82.696 13.808C82.632 13.872 82.6213 13.9467 82.664 14.032C82.728 14.1173 82.728 14.2987 82.664 14.576C82.6 14.832 82.5893 15.024 82.632 15.152C82.696 15.2587 82.7173 15.3333 82.696 15.376C82.6747 15.5253 82.664 15.9413 82.664 16.624C82.664 17.2853 82.6747 17.616 82.696 17.616C82.7387 17.68 82.7173 17.7547 82.632 17.84C82.5467 17.9253 82.536 18.0107 82.6 18.096C82.6853 18.1813 82.7067 18.352 82.664 18.608C82.6213 18.8427 82.632 19.0133 82.696 19.12C82.76 19.2053 82.7493 19.3013 82.664 19.408C82.6 19.4933 82.5787 19.5573 82.6 19.6C82.664 19.6853 82.696 19.8773 82.696 20.176C82.7173 20.4533 82.7067 20.6133 82.664 20.656C82.5787 20.6987 82.5787 20.7733 82.664 20.88C82.7493 20.9653 82.7707 21.0827 82.728 21.232C82.7067 21.3813 82.7173 21.5307 82.76 21.68C82.8027 21.8293 82.792 21.9787 82.728 22.128C82.6853 22.256 82.696 22.352 82.76 22.416C82.8027 22.4373 82.8453 22.768 82.888 23.408C82.9307 24.048 82.9093 24.3893 82.824 24.432C82.8027 24.4533 82.8133 24.5387 82.856 24.688C82.8987 24.816 82.9093 24.9973 82.888 25.232C82.8667 25.4667 82.888 25.584 82.952 25.584C83.0373 25.584 83.0373 25.6267 82.952 25.712C82.888 25.776 82.856 25.9147 82.856 26.128C82.856 26.3627 82.888 26.5013 82.952 26.544C83.016 26.5867 83.0267 26.6933 82.984 26.864C82.9627 27.0347 82.984 27.1413 83.048 27.184C83.112 27.2053 83.1227 27.44 83.08 27.888C83.0587 28.336 83.0267 28.592 82.984 28.656C82.9627 28.7413 82.9307 28.9333 82.888 29.232C82.8667 29.5307 82.8027 29.8933 82.696 30.32C82.6107 30.7467 82.5787 31.0667 82.6 31.28C82.6427 31.5147 82.6213 31.7067 82.536 31.856C82.472 31.984 82.3973 31.952 82.312 31.76C82.312 31.7173 82.3013 31.664 82.28 31.6C82.1733 31.344 82.088 31.216 82.024 31.216C81.9813 31.216 81.9493 31.2907 81.928 31.44C81.928 31.5253 81.8747 31.696 81.768 31.952C81.6613 32.1653 81.5867 32.24 81.544 32.176C81.5227 32.0907 81.4693 31.888 81.384 31.568C81.32 31.248 81.2453 31.0667 81.16 31.024C81.0747 30.9813 81.0427 30.9173 81.064 30.832C81.0853 30.768 80.9893 30.6187 80.776 30.384C80.5627 30.1493 80.328 29.9467 80.072 29.776C79.4533 29.3493 78.9093 28.9547 78.44 28.592C78.248 28.4427 78.0667 28.208 77.896 27.888C77.7467 27.5893 77.6827 27.3547 77.704 27.184L77.8 26.896L78.376 27.088C78.8027 27.1733 79.1013 27.248 79.272 27.312C79.4427 27.376 79.5387 27.408 79.56 27.408C79.5813 27.3653 79.5813 27.1947 79.56 26.896C79.56 26.6187 79.5387 26.3093 79.496 25.968C79.4747 25.6053 79.4427 25.4027 79.4 25.36C79.3573 25.2533 79.3467 25.1147 79.368 24.944C79.432 24.6453 79.4427 24.0907 79.4 23.28C79.2507 20.9547 79.1973 18.672 79.24 16.432C79.2613 15.28 79.24 14.2987 79.176 13.488C79.1547 12.72 79.144 12.2827 79.144 12.176C79.144 11.9627 79.1227 11.5573 79.08 10.96C79.0587 10.6187 79.0373 10.416 79.016 10.352C78.9947 10.2667 78.9307 10.2453 78.824 10.288L76.648 10.928C75.3893 11.2907 74.5467 11.4933 74.12 11.536C73.6933 11.5573 73.2987 11.4507 72.936 11.216C72.1467 10.7253 71.5813 10.448 71.24 10.384C70.8347 10.2987 70.632 10.2027 70.632 10.096C70.632 10.0107 70.5787 9.94667 70.472 9.904C70.2587 9.776 70.2693 9.648 70.504 9.52C70.6533 9.47733 70.824 9.46667 71.016 9.488C71.336 9.53067 71.8267 9.50933 72.488 9.424C73.1493 9.33867 73.736 9.22133 74.248 9.072C74.568 8.98667 75.1013 8.85867 75.848 8.688C76.5947 8.496 77.032 8.368 77.16 8.304C77.288 8.24 77.448 8.19733 77.64 8.176C77.8107 8.15467 78.0347 8.09067 78.312 7.984C78.5893 7.87733 78.7493 7.80267 78.792 7.76C78.8133 7.71733 78.8773 7.664 78.984 7.6C79.0907 7.536 79.1547 7.472 79.176 7.408C79.176 7.344 79.0373 7.23733 78.76 7.088C78.504 6.93867 78.3333 6.864 78.248 6.864C78.1413 6.864 77.9493 6.77867 77.672 6.608C77.3947 6.416 77.2027 6.32 77.096 6.32C76.84 6.32 76.616 6.128 76.424 5.744C76.3387 5.552 76.232 5.40267 76.104 5.296C75.9973 5.18933 75.9333 5.14667 75.912 5.168C75.8907 5.18933 75.848 5.296 75.784 5.488C75.656 5.744 75.56 5.872 75.496 5.872C75.4533 5.872 75.432 5.92533 75.432 6.032C75.432 6.13867 75.3467 6.30933 75.176 6.544C75.0267 6.75733 74.952 6.896 74.952 6.96C74.952 7.024 74.8347 7.14133 74.6 7.312C74.3653 7.48267 74.1627 7.67467 73.992 7.888C73.8853 7.99467 73.832 8.02667 73.832 7.984C73.8533 7.87733 73.7787 7.696 73.608 7.44C73.4373 7.16267 73.288 6.91733 73.16 6.704C73.0533 6.46933 72.936 6.33067 72.808 6.288C72.7013 6.24533 72.648 6.192 72.648 6.128C72.648 6.04267 72.5733 5.936 72.424 5.808C72.296 5.68 72.1893 5.50933 72.104 5.296C72.0187 5.06133 72.04 4.86933 72.168 4.72C72.2533 4.61333 72.3067 4.51733 72.328 4.432C72.3707 4.32533 72.3707 4.25067 72.328 4.208C72.3067 4.144 72.2533 4.112 72.168 4.112C72.04 4.112 71.8693 4.15467 71.656 4.24C71.464 4.32533 71.368 4.41066 71.368 4.496C71.368 4.56 71.4213 4.784 71.528 5.168C71.6347 5.552 71.72 5.81867 71.784 5.968C71.848 6.07467 71.9547 6.49067 72.104 7.216C72.2747 7.94133 72.3387 8.32533 72.296 8.368C72.2747 8.38933 72.1253 8.29333 71.848 8.08C71.592 7.84533 71.4213 7.728 71.336 7.728C71.272 7.728 71.2187 7.664 71.176 7.536C71.112 7.45067 70.984 7.35467 70.792 7.248C70.6 7.12 70.472 7.06667 70.408 7.088C70.3227 7.13067 70.1627 7.088 69.928 6.96C69.7147 6.81067 69.544 6.71467 69.416 6.672C69.288 6.62933 69.2027 6.55467 69.16 6.448C69.1173 6.34133 69.064 6.24533 69 6.16C68.9573 6.05333 68.8933 5.85067 68.808 5.552C68.7653 5.27467 68.6907 5.12533 68.584 5.104C68.52 5.104 68.4773 5.15733 68.456 5.264C68.3493 5.49867 67.784 6.24533 66.76 7.504C66.1413 8.272 65.736 8.54933 65.544 8.336C65.5227 8.29333 65.512 8.24 65.512 8.176C65.512 8.02667 65.4373 7.824 65.288 7.568L64.936 6.96C64.872 6.78933 64.7653 6.69333 64.616 6.672C64.488 6.62933 64.36 6.48 64.232 6.224C64.1253 5.968 64.072 5.73333 64.072 5.52C64.0507 5.30667 64.1573 5.08267 64.392 4.848C64.648 4.61333 64.7547 4.464 64.712 4.4C64.6693 4.336 64.6907 4.29333 64.776 4.272C64.8827 4.22933 64.9147 4.16533 64.872 4.08C64.8507 3.97333 64.872 3.92 64.936 3.92C65 3.92 65.0747 3.81333 65.16 3.6C65.2667 3.36533 65.4693 2.992 65.768 2.48C66.0667 1.968 66.2267 1.65866 66.248 1.552C66.2693 1.44533 66.3973 1.34933 66.632 1.264C66.888 1.17867 67.08 1.17867 67.208 1.264C67.336 1.34933 67.592 1.46667 67.976 1.616C68.2747 1.72267 68.52 1.86133 68.712 2.032C68.9253 2.20267 69.032 2.36267 69.032 2.512C69.032 2.59733 69.0747 2.704 69.16 2.832C69.2027 2.896 69.2667 2.928 69.352 2.928C69.4587 2.90667 69.6933 2.84266 70.056 2.736C70.6107 2.52267 71.112 2.416 71.56 2.416C71.9653 2.43733 72.2107 2.46933 72.296 2.512C72.3813 2.53333 72.4667 2.64 72.552 2.832C72.7867 3.17333 72.9787 3.14133 73.128 2.736C73.192 2.50133 73.256 2.352 73.32 2.288C73.384 2.20266 73.3947 2.14933 73.352 2.128C73.3093 2.08533 73.32 1.97867 73.384 1.808C73.448 1.63733 73.48 1.43467 73.48 1.2C73.48 0.965333 73.576 0.794666 73.768 0.688ZM99.592 12.88C99.6773 12.8373 99.752 12.8267 99.816 12.848C99.9013 12.848 99.944 12.88 99.944 12.944C99.944 13.0293 99.88 13.1147 99.752 13.2C99.624 13.264 99.56 13.2427 99.56 13.136C99.56 13.008 99.5707 12.9227 99.592 12.88ZM104.936 10.384C104.936 10.2347 104.947 10.1493 104.968 10.128C105.011 10.1067 105.117 10.1067 105.288 10.128C105.544 10.1493 105.768 10.2347 105.96 10.384C106.152 10.5333 106.461 10.832 106.888 11.28C107.4 11.856 107.709 12.1973 107.816 12.304C107.923 12.4107 107.987 12.592 108.008 12.848C108.029 13.104 108.093 13.3387 108.2 13.552C108.307 13.7653 108.339 13.9787 108.296 14.192C108.061 15.1307 107.933 16.8587 107.912 19.376C107.891 20.2507 107.848 20.8693 107.784 21.232C107.741 21.5947 107.699 22 107.656 22.448C107.635 22.896 107.613 23.1947 107.592 23.344C107.571 23.472 107.539 24.1333 107.496 25.328C107.453 26.5013 107.411 27.216 107.368 27.472C107.197 28.2187 107.08 28.7413 107.016 29.04C106.995 29.232 106.973 29.328 106.952 29.328C106.931 29.328 106.909 29.296 106.888 29.232C106.803 29.104 106.696 28.9653 106.568 28.816C106.461 28.688 106.387 28.6347 106.344 28.656C106.28 28.6773 106.141 28.56 105.928 28.304C105.715 28.0693 105.576 27.952 105.512 27.952C105.448 27.952 105.395 27.888 105.352 27.76C105.309 27.6533 105.256 27.6 105.192 27.6C105.149 27.6 105.128 27.504 105.128 27.312C105.128 27.1413 105.064 27.0347 104.936 26.992C104.808 26.9493 104.744 26.8533 104.744 26.704C104.744 26.5547 104.723 26.48 104.68 26.48C104.637 26.48 104.605 26.4267 104.584 26.32C104.563 26.2347 104.563 26.1067 104.584 25.936C104.605 25.7653 104.637 25.5733 104.68 25.36C104.744 25.04 104.776 24.4 104.776 23.44C104.797 22.4587 104.829 21.7867 104.872 21.424C104.915 21.04 104.989 19.7493 105.096 17.552C105.267 13.648 105.235 11.4507 105 10.96C104.936 10.8107 104.915 10.6187 104.936 10.384ZM101.704 4.048C101.683 4.02667 101.651 3.93067 101.608 3.76C101.587 3.568 101.619 3.472 101.704 3.472C102.173 3.472 102.611 3.62133 103.016 3.92C103.272 4.13333 103.496 4.29333 103.688 4.4C104.157 4.69867 104.488 5.06133 104.68 5.488C104.808 5.744 104.947 5.95733 105.096 6.128C105.331 6.42666 105.235 6.81067 104.808 7.28C104.595 7.55733 104.488 7.70667 104.488 7.728C104.488 7.74933 104.861 7.78133 105.608 7.824C106.376 7.86667 106.803 7.92 106.888 7.984C106.973 8.02667 107.133 8.048 107.368 8.048C107.56 8.06933 107.955 8.144 108.552 8.272C109.149 8.4 109.501 8.496 109.608 8.56C109.715 8.624 109.811 8.656 109.896 8.656C109.981 8.656 110.376 8.76267 111.08 8.976C111.784 9.18933 112.221 9.33867 112.392 9.424C112.605 9.50933 112.787 9.584 112.936 9.648C113.107 9.69067 113.501 9.86133 114.12 10.16C114.739 10.4587 115.112 10.608 115.24 10.608C115.368 10.608 115.507 10.704 115.656 10.896C115.827 11.0667 115.923 11.1413 115.944 11.12L115.976 11.216C115.976 11.344 116.147 11.7707 116.488 12.496C116.851 13.2213 117.011 13.68 116.968 13.872C116.925 14.0427 116.936 14.1707 117 14.256C117.085 14.3413 117.107 14.4907 117.064 14.704C117.021 14.832 116.989 14.896 116.968 14.896C116.925 14.832 116.872 14.8 116.808 14.8C116.744 14.8 116.669 14.7467 116.584 14.64C116.52 14.512 116.445 14.4907 116.36 14.576C116.275 14.64 116.317 14.832 116.488 15.152C116.744 15.6427 116.808 15.856 116.68 15.792C116.616 15.7707 116.552 15.7173 116.488 15.632C116.317 15.4827 116.04 15.28 115.656 15.024C115.293 14.768 115.005 14.5547 114.792 14.384C114.6 14.2133 114.312 14.032 113.928 13.84C113.544 13.648 113.139 13.4133 112.712 13.136C111.411 12.3467 110.099 11.7707 108.776 11.408C107.581 11.0667 106.6 10.6293 105.832 10.096C105.597 9.904 105.213 9.68 104.68 9.424C104.147 9.14667 103.763 8.976 103.528 8.912C103.357 8.848 103.272 8.86933 103.272 8.976C103.272 9.01867 103.069 9.25333 102.664 9.68C102.28 10.0853 102.045 10.288 101.96 10.288C101.896 10.288 101.885 10.3627 101.928 10.512C101.971 10.64 101.907 10.768 101.736 10.896C101.587 11.024 101.512 11.12 101.512 11.184C101.512 11.248 101.448 11.3227 101.32 11.408C101.192 11.472 101.128 11.5573 101.128 11.664C101.128 11.7707 101.043 11.8773 100.872 11.984C100.701 12.0907 100.563 12.1333 100.456 12.112C100.349 12.0907 100.296 12.1333 100.296 12.24C100.296 12.3253 100.339 12.3467 100.424 12.304C100.509 12.2613 100.563 12.2827 100.584 12.368C100.584 12.4533 100.52 12.5493 100.392 12.656C100.307 12.72 100.125 12.752 99.848 12.752C99.656 12.752 99.528 12.7733 99.464 12.816C99.4213 12.8587 99.4 12.944 99.4 13.072L99.464 13.328C99.4853 13.3067 99.5173 13.3493 99.56 13.456C99.624 13.5413 99.8587 13.6587 100.264 13.808C100.84 14.0213 101.48 14.4053 102.184 14.96C102.461 15.216 102.611 15.344 102.632 15.344C102.675 15.344 102.728 15.216 102.792 14.96C102.877 14.832 102.931 14.768 102.952 14.768C102.995 14.832 103.08 14.8 103.208 14.672L103.432 14.512L103.4 14.96C103.357 15.3227 103.315 15.5787 103.272 15.728C103.229 15.856 103.219 16.3253 103.24 17.136C103.304 18.9493 103.144 20.8907 102.76 22.96C102.525 24.112 102.291 24.8693 102.056 25.232C102.013 25.3387 101.981 25.392 101.96 25.392C101.96 25.392 101.917 25.3387 101.832 25.232C101.768 25.1253 101.651 24.9867 101.48 24.816C100.989 24.3893 100.691 24.0907 100.584 23.92C100.52 23.7707 100.435 23.7173 100.328 23.76C100.285 23.76 100.253 23.7387 100.232 23.696C100.211 23.6533 100.179 23.5467 100.136 23.376C100.093 23.0773 100.008 22.8853 99.88 22.8C99.7733 22.7147 99.7307 22.5973 99.752 22.448C99.7947 22.2773 99.7627 22.1387 99.656 22.032C99.5707 21.968 99.5387 21.904 99.56 21.84C99.5813 21.7547 99.6773 21.6267 99.848 21.456C100.04 21.2427 100.211 20.8373 100.36 20.24C100.531 19.4507 100.68 18.1707 100.808 16.4L100.872 15.568L100.552 15.056C100.339 14.7147 100.125 14.4373 99.912 14.224C99.6987 13.9893 99.56 13.8187 99.496 13.712C99.432 13.6053 99.304 13.68 99.112 13.936C98.9413 14.192 98.8133 14.32 98.728 14.32C98.6427 14.32 98.6107 14.352 98.632 14.416C98.6533 14.7147 98.5787 14.8853 98.408 14.928C98.1307 15.056 97.992 15.216 97.992 15.408C98.0133 15.6 97.9067 15.8027 97.672 16.016C97.6507 16.0373 97.6293 16.0373 97.608 16.016C97.5867 15.9307 97.544 15.888 97.48 15.888C97.416 15.888 97.4053 15.952 97.448 16.08C97.4907 16.1867 97.4693 16.304 97.384 16.432C97.2987 16.5387 97.256 16.56 97.256 16.496C97.256 16.3467 97.2027 16.304 97.096 16.368C97.0747 16.4107 97.064 16.4747 97.064 16.56C97.064 16.6667 97.0213 16.7413 96.936 16.784C96.872 16.8053 96.8507 16.848 96.872 16.912C96.9147 16.976 96.872 17.0507 96.744 17.136C96.6373 17.2 96.5947 17.264 96.616 17.328C96.616 17.3493 96.6053 17.3707 96.584 17.392C96.5627 17.392 96.5307 17.392 96.488 17.392C96.4667 17.392 96.4453 17.4027 96.424 17.424C96.4027 17.4453 96.392 17.4667 96.392 17.488C96.4133 17.5307 96.3493 17.648 96.2 17.84C96.0507 18.032 95.9547 18.128 95.912 18.128C95.8693 18.128 95.72 18.2453 95.464 18.48C95.208 18.7147 95.08 18.8747 95.08 18.96C95.08 19.024 95.048 19.0453 94.984 19.024C94.92 18.9813 94.8667 19.0133 94.824 19.12C94.8027 19.2053 94.7493 19.248 94.664 19.248C94.6 19.248 94.5253 19.2907 94.44 19.376C94.3547 19.4613 94.248 19.5253 94.12 19.568C94.0133 19.632 93.9493 19.6533 93.928 19.632C93.9067 19.6107 93.896 19.5573 93.896 19.472C93.896 19.3013 93.8427 19.1733 93.736 19.088C93.6293 18.9813 93.4693 18.7467 93.256 18.384C93.0427 18.0213 92.936 17.68 92.936 17.36C92.936 17.104 92.968 16.88 93.032 16.688C93.096 16.4747 93.16 16.368 93.224 16.368C93.3733 16.368 94.0027 15.7173 95.112 14.416C96.2213 13.0933 96.776 12.336 96.776 12.144C96.776 12.0587 96.872 11.8987 97.064 11.664C98.1733 10.2347 98.728 9.44533 98.728 9.296C98.728 9.21067 98.8133 9.06133 98.984 8.848C99.176 8.61333 99.272 8.44267 99.272 8.336C99.272 8.22933 99.3253 8.13333 99.432 8.048C99.56 7.94133 99.624 7.83467 99.624 7.728C99.624 7.62133 99.656 7.54667 99.72 7.504C99.784 7.44 99.8907 7.26933 100.04 6.992C100.189 6.69333 100.509 6.13867 101 5.328C101.512 4.496 101.747 4.06933 101.704 4.048ZM101.128 11.216C101.128 11.0453 101.043 11.0987 100.872 11.376C100.872 11.3973 100.861 11.4293 100.84 11.472C100.755 11.7067 100.755 11.824 100.84 11.824C100.925 11.824 100.968 11.792 100.968 11.728C100.968 11.664 100.968 11.6 100.968 11.536C100.989 11.472 101.021 11.4187 101.064 11.376C101.107 11.312 101.128 11.2587 101.128 11.216ZM96.68 16.592C96.744 16.5493 96.776 16.5173 96.776 16.496C96.776 16.4533 96.744 16.432 96.68 16.432C96.616 16.432 96.584 16.464 96.584 16.528C96.584 16.592 96.616 16.6133 96.68 16.592ZM96.2 17.232L96.136 17.168C96.072 17.168 95.9973 17.232 95.912 17.36H95.944L96.2 17.232ZM94.856 18.512C94.8773 18.4267 94.888 18.384 94.888 18.384C94.8453 18.384 94.728 18.48 94.536 18.672C94.344 18.864 94.248 18.9707 94.248 18.992C94.248 19.12 94.408 19.0027 94.728 18.64C94.792 18.5973 94.8347 18.5547 94.856 18.512Z" fill="black"/>
</svg>
