<svg width="118" height="33" viewBox="0 0 118 33" fill="none" xmlns="http://www.w3.org/2000/svg">
<path d="M5.92 6.576C5.856 6.53333 5.86667 6.48 5.952 6.416C6.03733 6.352 6.144 6.32 6.272 6.32C6.37867 6.32 6.73067 6.43733 7.328 6.672C7.92533 6.90667 8.32 7.09867 8.512 7.248C8.85333 7.504 9.12 7.824 9.312 8.208C9.39733 8.4 9.44 8.64533 9.44 8.944C9.46133 9.24266 9.44 10.0747 9.376 11.44C9.312 13.3387 9.26933 15.3227 9.248 17.392C9.22667 19.4613 9.19467 20.5173 9.152 20.56C9.13067 20.6027 9.09867 21.04 9.056 21.872C9.03467 22.704 9.00267 23.3653 8.96 23.856L8.864 24.56L8.64 24.4C8.46933 24.336 8.29867 24.208 8.128 24.016C7.97867 23.824 7.808 23.6853 7.616 23.6C7.38133 23.4933 7.15733 23.3333 6.944 23.12C6.73067 22.9067 6.60267 22.704 6.56 22.512C6.51733 22.2987 6.496 22.0213 6.496 21.68C6.496 21.3173 6.47467 21.136 6.432 21.136C6.38933 21.136 5.93067 21.3387 5.056 21.744C3.79733 22.384 2.89067 22.6933 2.336 22.672H1.984L2.24 22.608C2.56 22.4587 2.53867 22.384 2.176 22.384C2.13333 22.384 2.05867 22.384 1.952 22.384C1.248 22.3413 0.821334 22.2453 0.672 22.096C0.714667 22.032 0.682667 21.9467 0.576 21.84C0.490667 21.7333 0.48 21.6373 0.544 21.552C0.629334 21.4453 0.693334 21.392 0.736 21.392C0.821334 21.392 1.696 20.976 3.36 20.144C4.78933 19.3973 5.70667 19.024 6.112 19.024H6.56V18.224C6.58133 17.6907 6.57067 17.424 6.528 17.424C6.50667 17.424 6.28267 17.5413 5.856 17.776C5.00267 18.2667 4.288 18.512 3.712 18.512C3.34933 18.512 3.17867 18.48 3.2 18.416C3.2 18.352 3.25333 18.3093 3.36 18.288C3.488 18.2453 3.46667 18.2133 3.296 18.192C3.232 18.1707 3.15733 18.16 3.072 18.16C2.73067 18.096 2.47467 18.032 2.304 17.968L1.856 17.808C1.728 17.7653 1.664 17.7227 1.664 17.68C1.664 17.616 1.65333 17.4987 1.632 17.328C1.61067 17.2213 1.6 17.1467 1.6 17.104C1.62133 17.0613 1.65333 17.0507 1.696 17.072C1.90933 17.1573 2.58133 16.8693 3.712 16.208C4.928 15.4827 5.792 15.0347 6.304 14.864C6.496 14.8213 6.60267 14.7893 6.624 14.768C6.64533 14.7253 6.64533 14.5973 6.624 14.384C6.624 14.1493 6.61333 13.8933 6.592 13.616V13.232L5.632 13.744C4.992 14.064 4.52267 14.2773 4.224 14.384C3.47733 14.64 2.79467 14.6187 2.176 14.32C1.89867 14.192 1.71733 14.1387 1.632 14.16C1.54667 14.16 1.376 14.128 1.12 14.064C0.928 13.9573 0.832 13.8827 0.832 13.84C0.96 13.6907 0.938667 13.6053 0.768 13.584C0.682667 13.5627 0.736 13.488 0.928 13.36C0.970667 13.36 1.00267 13.3493 1.024 13.328C1.344 13.2 1.57867 13.0827 1.728 12.976C1.89867 12.848 2.09067 12.7413 2.304 12.656C2.53867 12.5707 2.79467 12.432 3.072 12.24C3.34933 12.0267 3.50933 11.92 3.552 11.92C3.616 11.92 3.84 11.8027 4.224 11.568C4.62933 11.312 4.85333 11.184 4.896 11.184C4.93867 11.184 5.056 11.1093 5.248 10.96C5.44 10.7893 5.71733 10.704 6.08 10.704H6.656L6.72 10.384C6.76267 10.0213 6.784 9.552 6.784 8.976C6.784 8.37867 6.76267 8.016 6.72 7.888C6.63467 7.696 6.41067 7.376 6.048 6.928C5.96267 6.84267 5.94133 6.77867 5.984 6.736C6.02667 6.672 6.00533 6.61867 5.92 6.576ZM11.232 4.304C11.232 4.24 11.3173 4.22933 11.488 4.272C11.6587 4.29333 11.968 4.34667 12.416 4.432C12.8853 4.51733 13.2373 4.63467 13.472 4.784C13.792 4.93333 14.1227 5.15733 14.464 5.456C14.8053 5.73333 15.0187 5.936 15.104 6.064C15.1893 6.23467 15.296 6.55467 15.424 7.024C15.552 7.49333 15.616 7.84533 15.616 8.08C15.6373 8.29333 15.6693 8.41067 15.712 8.432C15.776 8.45333 16.032 8.37867 16.48 8.208C16.928 8.03733 17.3227 7.90933 17.664 7.824C18.0053 7.71733 18.1973 7.6 18.24 7.472C18.304 7.344 18.3893 7.312 18.496 7.376C18.6027 7.44 18.656 7.41866 18.656 7.312C18.656 7.20533 18.7307 7.17333 18.88 7.216C19.0293 7.25867 19.3707 7.30133 19.904 7.344C20.4587 7.38667 20.7467 7.46133 20.768 7.568C20.8107 7.67467 20.9173 7.74933 21.088 7.792C21.1947 7.856 21.2587 7.92 21.28 7.984C21.3227 8.048 21.3333 8.18667 21.312 8.4C21.312 8.72 21.3973 8.944 21.568 9.072C21.7387 9.2 21.8133 9.33867 21.792 9.488C21.7707 9.616 21.824 9.70133 21.952 9.744C22.144 9.808 22.1013 9.86133 21.824 9.904C21.76 9.904 21.6747 9.91467 21.568 9.936C21.0773 9.97867 20.576 10.0853 20.064 10.256C19.5733 10.4053 19.2747 10.5547 19.168 10.704C19.1467 10.768 19.072 10.7787 18.944 10.736C18.8373 10.6933 18.688 10.7467 18.496 10.896C18.304 11.024 18.176 11.0773 18.112 11.056C18.0693 11.0347 17.728 11.0987 17.088 11.248C16.4693 11.376 16.0427 11.44 15.808 11.44H15.424V12.496C15.424 13.1787 15.392 13.52 15.328 13.52C15.264 13.52 15.232 13.5733 15.232 13.68C15.232 13.7653 15.264 13.7867 15.328 13.744C15.3707 13.7013 15.392 13.712 15.392 13.776C15.4133 13.8187 15.424 13.8613 15.424 13.904C15.424 14.0107 15.4453 14.0747 15.488 14.096C15.5307 14.1173 15.6587 14.1173 15.872 14.096C16.1707 14.0533 16.3413 14.0107 16.384 13.968C16.448 13.9253 16.8 13.8187 17.44 13.648C18.1013 13.4773 18.496 13.3067 18.624 13.136C18.7733 12.9653 18.848 12.912 18.848 12.976C18.848 13.04 18.8907 13.04 18.976 12.976C19.0827 12.8907 19.2853 12.8907 19.584 12.976C19.8827 13.0613 20.1493 13.1147 20.384 13.136C20.64 13.1573 20.8 13.2427 20.864 13.392C20.928 13.52 21.0027 13.584 21.088 13.584C21.1733 13.584 21.216 13.616 21.216 13.68C21.216 13.744 21.2907 13.776 21.44 13.776C21.5253 13.776 21.5787 13.7867 21.6 13.808C21.6213 13.8293 21.6107 13.8613 21.568 13.904C21.504 14.0107 21.4293 14.0427 21.344 14C21.3227 14 21.3013 14.0107 21.28 14.032C21.28 14.032 21.28 14.0533 21.28 14.096C21.28 14.1387 21.2907 14.1707 21.312 14.192C21.3333 14.2133 21.3547 14.2133 21.376 14.192C21.4187 14.1707 21.44 14.1813 21.44 14.224C21.4613 14.2453 21.472 14.288 21.472 14.352C21.472 14.48 21.5573 14.5867 21.728 14.672C21.92 14.736 22.016 14.7893 22.016 14.832C22.016 14.8747 22.0587 14.896 22.144 14.896C22.2507 14.896 22.304 14.9387 22.304 15.024C22.304 15.1093 22.2507 15.152 22.144 15.152C22.0587 15.152 22.0373 15.12 22.08 15.056H22.016C21.9307 15.12 21.92 15.2053 21.984 15.312C22.0693 15.4187 22.1653 15.472 22.272 15.472C22.4853 15.472 22.432 15.5147 22.112 15.6C22.0053 15.664 21.8667 15.7067 21.696 15.728C21.312 15.792 20.8853 15.8987 20.416 16.048C19.3493 16.3893 18.4747 16.6453 17.792 16.816C17.344 16.9227 16.8853 16.9333 16.416 16.848C15.968 16.7413 15.7013 16.656 15.616 16.592C15.5307 16.5707 15.4773 16.5813 15.456 16.624C15.4347 16.6667 15.424 16.7307 15.424 16.816C15.424 16.9867 15.424 17.1467 15.424 17.296C15.424 17.424 15.392 17.488 15.328 17.488C15.264 17.488 15.2747 17.5413 15.36 17.648C15.424 17.6907 15.456 17.8933 15.456 18.256C15.4773 18.6187 15.456 18.8533 15.392 18.96C15.3493 19.024 15.3707 19.088 15.456 19.152C15.584 19.216 16.416 19.0987 17.952 18.8C19.168 18.5867 19.8187 18.448 19.904 18.384C20.0533 18.256 20.416 18.2453 20.992 18.352C21.5893 18.4587 21.984 18.5973 22.176 18.768C22.304 18.9173 22.4213 18.992 22.528 18.992C22.6347 18.992 22.7093 19.056 22.752 19.184C22.816 19.312 22.912 19.3867 23.04 19.408C23.1467 19.4293 23.2 19.4613 23.2 19.504C23.2 19.5253 23.136 19.6107 23.008 19.76L22.752 20.112L23.008 20.208C23.1573 20.2507 23.2533 20.272 23.296 20.272C23.3813 20.272 23.4347 20.3573 23.456 20.528C23.4773 20.6987 23.4453 20.816 23.36 20.88C23.296 20.9227 23.104 20.944 22.784 20.944C22.4853 20.944 22.1867 20.976 21.888 21.04C21.5893 21.104 21.12 21.1787 20.48 21.264C19.8613 21.3493 19.2213 21.456 18.56 21.584C17.1733 21.84 16.1707 21.8827 15.552 21.712C15.36 21.6907 15.2533 21.6907 15.232 21.712C15.232 21.712 15.2427 21.7867 15.264 21.936C15.3493 22.1493 15.3493 22.4053 15.264 22.704C15.2427 22.8747 15.2533 23.056 15.296 23.248C15.36 23.44 15.36 23.5467 15.296 23.568C15.232 23.5893 15.2533 23.7067 15.36 23.92L15.424 24.144C15.3813 24.1227 15.3387 24.144 15.296 24.208C15.2533 24.272 15.2747 24.3147 15.36 24.336C15.4453 24.3573 15.4667 24.4533 15.424 24.624C15.4027 24.7733 15.3493 24.848 15.264 24.848C15.1787 24.848 15.1467 25.136 15.168 25.712C15.2107 26.288 15.2533 26.6187 15.296 26.704C15.3387 26.8107 15.3067 26.8853 15.2 26.928C15.1147 26.9707 15.0507 27.1307 15.008 27.408C14.9653 27.6853 14.912 27.8347 14.848 27.856C14.784 27.8773 14.752 28.0053 14.752 28.24C14.752 28.6027 14.656 28.656 14.464 28.4L14.08 27.984C13.9307 27.8133 13.856 27.696 13.856 27.632C13.856 27.568 13.7493 27.4507 13.536 27.28C13.3227 27.1307 13.1413 26.9387 12.992 26.704C12.864 26.4907 12.7147 26.3627 12.544 26.32C12.3093 26.2133 12.2347 26.1067 12.32 26C12.384 25.936 12.384 25.6587 12.32 25.168C12.2773 24.6773 12.288 24.4107 12.352 24.368C12.4373 24.3253 12.48 24.0267 12.48 23.472C12.4587 22.1067 12.448 20.2507 12.448 17.904C12.448 15.536 12.4693 13.9787 12.512 13.232C12.5333 12.016 12.544 10.576 12.544 8.912C12.5227 7.67467 12.5013 6.928 12.48 6.672C12.48 6.416 12.416 6.17067 12.288 5.936C12.1173 5.59467 11.9467 5.36 11.776 5.232C11.648 5.12533 11.52 4.976 11.392 4.784C11.2853 4.592 11.232 4.432 11.232 4.304ZM48 31.6C47.9147 31.5573 47.872 31.536 47.872 31.536C47.8933 31.536 47.9573 31.5253 48.064 31.504C48.1707 31.504 48.256 31.536 48.32 31.6C48.3627 31.7067 48.2987 31.7173 48.128 31.632C48.0853 31.6107 48.0427 31.6 48 31.6ZM32.96 5.392C32.9387 5.05067 33.3973 5.18933 34.336 5.808C34.848 6.14933 35.1573 6.384 35.264 6.512C35.392 6.61867 35.5947 6.84267 35.872 7.184C36.0853 7.44 36.2027 7.664 36.224 7.856C36.2667 8.048 36.1813 8.25067 35.968 8.464C35.8827 8.61333 35.808 8.752 35.744 8.88C35.7013 9.008 35.5627 9.168 35.328 9.36C35.0933 9.53067 34.912 9.78667 34.784 10.128C34.656 10.4693 34.528 10.7253 34.4 10.896L34.208 11.12L34.272 10.736C34.4 10.0533 34.3787 9.712 34.208 9.712C34.144 9.712 34.08 9.79733 34.016 9.968C33.9733 10.1173 33.856 10.2027 33.664 10.224C33.472 10.224 33.344 10.32 33.28 10.512C33.2373 10.704 33.184 10.7573 33.12 10.672C33.0773 10.5653 33.1093 10.2987 33.216 9.872C33.3227 9.424 33.376 9.136 33.376 9.008C33.376 8.85867 33.3333 8.88 33.248 9.072C33.1627 9.24267 33.0453 9.53067 32.896 9.936L32.672 10.416C32.6507 10.3307 32.7147 10.032 32.864 9.52C33.2693 8.02667 33.3547 6.896 33.12 6.128C33.0133 5.78667 32.96 5.54133 32.96 5.392ZM43.936 0.943998C43.9147 0.751998 43.9147 0.602665 43.936 0.495998C43.9787 0.367999 44.032 0.314665 44.096 0.335999C44.16 0.335999 44.32 0.421332 44.576 0.591999C44.8533 0.783999 45.0667 0.869333 45.216 0.848C45.3653 0.805332 45.472 0.837332 45.536 0.943998C45.6 1.02933 45.6533 1.072 45.696 1.072C45.8027 1.05067 45.9093 1.06133 46.016 1.104C46.1227 1.14667 46.176 1.18933 46.176 1.232C46.176 1.65867 46.24 1.872 46.368 1.872C46.4747 1.872 46.6133 1.94667 46.784 2.096L47.104 2.32L46.912 2.8C46.8693 2.97067 46.8267 3.26933 46.784 3.696C46.7413 4.10133 46.72 4.47467 46.72 4.816C46.7413 5.136 46.7947 5.296 46.88 5.296C46.9867 5.296 47.296 5.22133 47.808 5.072C48.3413 4.90133 48.672 4.784 48.8 4.72C48.9067 4.61333 49.0667 4.61333 49.28 4.72C49.5147 4.80533 49.728 4.848 49.92 4.848C50.176 4.848 50.56 5.05067 51.072 5.456C51.6053 5.84 51.872 6.128 51.872 6.32C51.872 6.42667 51.8187 6.55467 51.712 6.704C51.6053 6.85333 51.3813 7.25867 51.04 7.92C50.72 8.56 50.5173 8.90133 50.432 8.944C50.3467 8.98667 50.1867 9.168 49.952 9.488C49.7387 9.808 49.664 10.0107 49.728 10.096C49.792 10.16 49.824 10.2667 49.824 10.416C49.824 10.544 49.7387 10.6293 49.568 10.672C49.3973 10.6933 49.152 10.7467 48.832 10.832C48.5333 10.9173 48.1173 11.0347 47.584 11.184C47.0507 11.312 46.7733 11.3867 46.752 11.408C46.752 11.408 46.7307 11.5787 46.688 11.92L46.656 12.432L47.968 12.112C48.864 11.856 49.376 11.696 49.504 11.632C49.6533 11.5467 49.8453 11.504 50.08 11.504C50.3147 11.504 50.5493 11.504 50.784 11.504C51.6373 11.4613 52.128 11.536 52.256 11.728L52.608 12.336C52.7573 12.5493 52.864 12.656 52.928 12.656C53.0773 12.656 53.1307 12.8267 53.088 13.168C53.0667 13.3387 53.0133 13.4453 52.928 13.488C52.8427 13.5307 52.5547 13.5947 52.064 13.68C51.6373 13.7227 51.0827 13.84 50.4 14.032C49.7387 14.2027 49.184 14.3307 48.736 14.416C48.2027 14.5227 46.8587 14.8533 44.704 15.408C42.5493 15.9627 41.184 16.3253 40.608 16.496C40.1387 16.624 39.712 16.6773 39.328 16.656C38.9653 16.6347 38.7627 16.592 38.72 16.528C38.6773 16.464 38.6027 16.432 38.496 16.432C38.4107 16.432 38.304 16.3787 38.176 16.272C38.0693 16.144 37.952 16.08 37.824 16.08C37.7173 16.08 37.6 16.0373 37.472 15.952C37.28 15.824 37.1307 15.7707 37.024 15.792C36.9387 15.792 36.8427 15.8987 36.736 16.112C36.6507 16.3893 36.5333 16.6027 36.384 16.752C36.2347 16.9013 36.1173 17.1787 36.032 17.584C35.9467 17.968 35.968 18.5547 36.096 19.344C36.288 20.4747 36.7893 21.8507 37.6 23.472C37.92 24.1547 38.1227 24.6667 38.208 25.008L38.368 25.52L39.232 25.744L41.12 26.352C41.8667 26.5653 42.2613 26.6507 42.304 26.608C42.3467 26.5867 42.368 26.5227 42.368 26.416C42.368 26.3093 42.496 26.128 42.752 25.872C42.944 25.68 43.04 25.552 43.04 25.488C43.0613 25.424 43.0507 25.328 43.008 25.2C42.9013 25.0293 42.6667 24.7733 42.304 24.432C42.0267 24.1547 41.8667 23.9733 41.824 23.888C41.7813 23.8027 41.7707 23.6533 41.792 23.44C41.8133 23.1413 41.8453 22.4373 41.888 21.328C41.9733 19.3013 41.8453 17.9467 41.504 17.264L41.28 16.784L41.504 16.752C41.6533 16.752 41.856 16.7947 42.112 16.88C42.5387 17.072 42.88 17.1573 43.136 17.136C43.392 17.1147 43.9787 16.944 44.896 16.624C46.3253 16.1333 47.0933 15.856 47.2 15.792C47.52 15.5573 47.872 15.5253 48.256 15.696C48.512 15.824 48.672 15.8773 48.736 15.856C48.8213 15.8133 48.9813 15.8773 49.216 16.048C49.4507 16.1973 49.6213 16.272 49.728 16.272C49.8347 16.272 49.952 16.3893 50.08 16.624C50.208 16.8587 50.368 17.0933 50.56 17.328C50.7733 17.5413 50.8373 17.6907 50.752 17.776C50.688 17.8613 50.6453 19.0347 50.624 21.296L50.56 24.688L50.88 24.976C51.0933 25.168 51.2 25.3173 51.2 25.424C51.2 25.5307 51.2213 25.584 51.264 25.584C51.328 25.584 51.4453 25.6693 51.616 25.84C51.7867 25.9893 51.872 26.192 51.872 26.448C51.872 26.704 51.936 26.8853 52.064 26.992C52.192 27.12 52.2987 27.2693 52.384 27.44C52.4693 27.5893 52.5013 27.664 52.48 27.664C52.4373 27.6853 52.3947 27.6853 52.352 27.664C52.2027 27.6213 52.128 27.6747 52.128 27.824C52.128 27.9947 52.2027 28.0907 52.352 28.112C52.5013 28.1333 53.3013 28.1547 54.752 28.176L56.96 28.208L57.184 28.464C57.3547 28.6133 57.568 28.72 57.824 28.784C58.08 28.8693 58.208 28.9547 58.208 29.04C58.208 29.1253 58.176 29.168 58.112 29.168C58.048 29.168 57.9947 29.2427 57.952 29.392C57.9307 29.5627 57.9307 29.6907 57.952 29.776C57.9947 29.8613 58.048 29.904 58.112 29.904C58.176 29.904 58.2933 29.9787 58.464 30.128L58.72 30.352L57.76 30.512C56.864 30.6613 55.8933 30.864 54.848 31.12C54.0373 31.3547 53.3653 31.4933 52.832 31.536C52.0427 31.6427 51.5413 31.792 51.328 31.984C51.2 32.0907 51.0933 32.144 51.008 32.144C50.944 32.144 50.9333 32.1867 50.976 32.272C51.0187 32.3787 51.008 32.4533 50.944 32.496C50.88 32.5173 50.7307 32.4853 50.496 32.4C50.2827 32.3147 50.176 32.2507 50.176 32.208C50.176 32.0373 49.984 31.92 49.6 31.856H49.344C49.408 31.8773 49.44 31.92 49.44 31.984C49.44 32.0693 49.2373 32.0267 48.832 31.856L48.576 31.76L48.8 31.728C48.8853 31.7067 48.8427 31.6533 48.672 31.568C48.3733 31.44 47.3173 31.1093 45.504 30.576C44.16 30.1493 42.656 29.5947 40.992 28.912L39.136 28.176C38.6027 27.9627 37.9307 27.7707 37.12 27.6C36.3307 27.4293 35.68 27.344 35.168 27.344C34.72 27.344 34.208 27.4293 33.632 27.6C33.056 27.7707 32.6613 27.952 32.448 28.144C32.3413 28.2293 32.1707 28.2507 31.936 28.208C31.7013 28.1653 31.5413 28.1013 31.456 28.016C31.3493 27.9093 31.1893 27.792 30.976 27.664L30.72 27.536C30.8053 27.536 30.6667 27.3973 30.304 27.12C30.2613 27.0773 30.1973 27.0347 30.112 26.992C29.8987 26.8 29.8667 26.672 30.016 26.608C30.1227 26.608 30.112 26.5547 29.984 26.448C29.856 26.384 29.8667 26.3413 30.016 26.32C30.0373 26.2773 30.0907 26.256 30.176 26.256C30.4107 26.2133 30.9867 26.0747 31.904 25.84C33.056 25.5413 34.2187 25.3813 35.392 25.36C36.096 25.36 36.448 25.36 36.448 25.36C36.448 25.3387 36.384 25.2107 36.256 24.976C36.1493 24.72 36.0853 24.3573 36.064 23.888C36.064 23.4187 35.9787 22.928 35.808 22.416C35.1893 20.7093 34.7627 19.44 34.528 18.608C34.3147 17.776 34.208 17.0187 34.208 16.336V15.664L33.92 15.92C33.728 16.0907 33.4293 16.2933 33.024 16.528C32.6187 16.7413 32.2133 16.848 31.808 16.848C31.424 16.8267 31.136 16.7733 30.944 16.688C30.7733 16.6027 30.624 16.56 30.496 16.56C30.3893 16.56 30.1653 16.4747 29.824 16.304C29.6107 16.176 29.472 16.08 29.408 16.016C29.344 15.952 29.312 15.8667 29.312 15.76C29.2907 15.632 29.2907 15.5467 29.312 15.504C29.3547 15.4613 29.472 15.4293 29.664 15.408C30.2187 15.3227 31.2 14.576 32.608 13.168C33.9947 11.7813 34.7947 11.1093 35.008 11.152C35.136 11.1733 35.3493 11.1947 35.648 11.216C35.9467 11.2373 36.192 11.3333 36.384 11.504C36.576 11.6747 36.7467 11.8133 36.896 11.92C37.0667 12.0267 37.2907 12.2827 37.568 12.688C38.0587 13.456 38.1653 13.968 37.888 14.224C37.824 14.3093 37.7067 14.4693 37.536 14.704L37.28 15.056H37.536C37.9627 15.056 39.0293 14.8 40.736 14.288C41.888 13.9253 42.4747 13.7333 42.496 13.712C42.5173 13.6907 42.368 13.52 42.048 13.2C41.728 12.8587 41.4827 12.592 41.312 12.4L40.768 11.76C40.5333 11.5467 40.4053 11.2267 40.384 10.8C40.32 10.032 40.1813 9.14667 39.968 8.144C39.7547 7.20533 39.4347 6.58666 39.008 6.288C38.88 6.18133 38.7733 6.10667 38.688 6.064C38.6027 6 38.528 5.94667 38.464 5.904C38.4213 5.84 38.4 5.808 38.4 5.808C38.4 5.78667 38.4 5.76533 38.4 5.744C38.464 5.68 38.784 5.72267 39.36 5.872C39.936 6 40.32 6.11733 40.512 6.224C40.7467 6.33067 40.96 6.46933 41.152 6.64C41.344 6.78933 41.536 6.85333 41.728 6.832C42.0267 6.78933 42.528 6.66133 43.232 6.448C43.9573 6.21333 44.352 6.07467 44.416 6.032C44.48 5.968 44.4693 5.25333 44.384 3.888C44.32 2.50133 44.2453 1.744 44.16 1.616C44.096 1.552 44.0853 1.46667 44.128 1.36C44.1707 1.25333 44.16 1.2 44.096 1.2C44.032 1.2 43.9787 1.11467 43.936 0.943998ZM48.064 7.568C48.064 7.48267 48.1067 7.344 48.192 7.152C48.2987 6.96 48.3093 6.88533 48.224 6.928C48.0533 6.928 47.7867 6.98133 47.424 7.088C47.0613 7.17333 46.8693 7.22667 46.848 7.248C46.784 7.29067 46.7307 7.55733 46.688 8.048L46.656 8.816H47.008C47.2853 8.816 47.424 8.76267 47.424 8.656C47.424 8.54933 47.5307 8.35733 47.744 8.08C47.9573 7.80267 48.064 7.632 48.064 7.568ZM44.448 9.2C44.448 8.85867 44.4267 8.57067 44.384 8.336C44.3413 8.10133 44.288 7.99467 44.224 8.016C44.1813 8.016 43.8827 8.112 43.328 8.304C42.7947 8.47467 42.528 8.57067 42.528 8.592C42.5067 8.592 42.5387 8.85867 42.624 9.392C42.7093 9.75467 42.7627 9.97867 42.784 10.064C42.8267 10.128 42.912 10.128 43.04 10.064L43.584 9.968C43.9893 9.86133 44.2347 9.776 44.32 9.712C44.4053 9.648 44.448 9.47733 44.448 9.2ZM44.256 12.368C44.256 12.2613 44.2027 12.208 44.096 12.208C44.0107 12.208 43.7653 12.2613 43.36 12.368L42.784 12.496L42.816 13.008C42.8373 13.3707 42.8587 13.5627 42.88 13.584C42.9013 13.584 43.136 13.52 43.584 13.392C44.032 13.264 44.3307 13.1787 44.48 13.136C44.6507 13.0507 44.6933 12.944 44.608 12.816C44.544 12.688 44.4693 12.6133 44.384 12.592C44.2987 12.5707 44.256 12.496 44.256 12.368ZM47.776 17.872C47.776 17.808 47.7227 17.776 47.616 17.776C47.5307 17.7547 47.4347 17.776 47.328 17.84C47.0293 18.0107 46.24 18.2347 44.96 18.512L44.224 18.64V19.088C44.2453 19.6853 44.2453 20.592 44.224 21.808C44.224 23.0027 44.2133 23.6107 44.192 23.632C44.1707 23.632 44.1387 23.6853 44.096 23.792C44.0533 23.8773 44.0213 23.9627 44 24.048C44 24.112 44 24.1547 44 24.176C44.128 24.176 44.352 23.632 44.672 22.544C44.7787 22.16 44.8533 21.7013 44.896 21.168C44.9387 20.6347 44.9067 20.2613 44.8 20.048C44.736 19.8773 44.736 19.792 44.8 19.792C44.8853 19.792 44.8853 19.76 44.8 19.696C44.6293 19.5253 44.64 19.44 44.832 19.44C45.0453 19.44 45.3867 19.696 45.856 20.208C46.3467 20.72 46.592 21.072 46.592 21.264C46.592 21.3493 46.656 21.488 46.784 21.68C46.912 21.872 46.9973 22.2773 47.04 22.896L47.104 23.856L47.456 23.92C48.3733 24.0693 48.7893 24.08 48.704 23.952C48.6827 23.9093 48.608 23.8453 48.48 23.76C48.3093 23.696 48.224 23.632 48.224 23.568C48.224 23.504 48.1493 23.3973 48 23.248C47.8933 23.12 47.8293 23.0133 47.808 22.928C47.7867 22.8213 47.7973 22.5333 47.84 22.064C47.8827 21.4667 47.9253 21.136 47.968 21.072C48.032 21.008 48.064 20.5387 48.064 19.664C48.064 18.768 48.0107 18.2773 47.904 18.192C47.8187 18.0853 47.776 17.9787 47.776 17.872ZM46.976 25.488C46.7413 25.3173 46.592 25.2533 46.528 25.296C46.464 25.3387 46.368 25.5413 46.24 25.904C46.176 26.2027 46.08 26.4267 45.952 26.576C45.568 26.9813 45.376 27.2373 45.376 27.344C45.376 27.3653 45.536 27.408 45.856 27.472L47.488 27.856C48.896 28.1547 49.7173 28.2613 49.952 28.176C50.1013 28.1333 50.1333 28.0907 50.048 28.048C49.984 27.984 49.8667 27.9093 49.696 27.824L48.928 27.44C48.7787 27.3547 48.6827 27.248 48.64 27.12C48.6187 27.0133 48.576 26.96 48.512 26.96C48.4693 26.96 48.288 26.7573 47.968 26.352C47.648 25.9467 47.4453 25.744 47.36 25.744C47.296 25.744 47.168 25.6587 46.976 25.488ZM50.688 32.112C50.5387 32.0693 50.464 32.08 50.464 32.144C50.464 32.208 50.528 32.2507 50.656 32.272C50.784 32.3147 50.848 32.304 50.848 32.24C50.848 32.2187 50.7947 32.176 50.688 32.112ZM78.272 1.168C78.592 1.06133 78.784 1.008 78.848 1.008C78.912 0.986665 79.1467 1.14666 79.552 1.488C79.9573 1.82933 80.256 2.07467 80.448 2.224C80.6827 2.37333 80.9067 2.64 81.12 3.024C81.3333 3.408 81.472 3.76 81.536 4.08C81.6213 4.37867 81.6213 4.57067 81.536 4.656C81.4507 4.67733 81.4293 4.752 81.472 4.88C81.5147 5.008 81.4827 5.072 81.376 5.072C81.312 5.072 81.088 5.27467 80.704 5.68C80.32 6.064 80.128 6.288 80.128 6.352C80.128 6.37333 80.0107 6.62933 79.776 7.12C79.5413 7.58933 79.424 7.89867 79.424 8.048C79.424 8.176 79.392 8.24 79.328 8.24C79.2853 8.24 79.264 8.31467 79.264 8.464C79.264 8.54933 79.1893 8.656 79.04 8.784C78.912 8.89067 78.7947 8.912 78.688 8.848C78.624 8.80533 78.4747 8.82667 78.24 8.912C78.0053 8.976 77.888 9.04 77.888 9.104C77.888 9.21067 77.9093 9.264 77.952 9.264C78.016 9.264 78.048 9.30667 78.048 9.392C78.048 9.456 78.112 9.60533 78.24 9.84C78.368 10.0747 78.432 10.384 78.432 10.768C78.432 11.0667 78.4427 11.248 78.464 11.312C78.4853 11.376 78.5707 11.4187 78.72 11.44C78.9973 11.4827 79.2747 11.5893 79.552 11.76C79.8507 11.9307 80 12.0587 80 12.144C80 12.2507 80.1067 12.336 80.32 12.4C80.4693 12.4427 80.544 12.4747 80.544 12.496C80.5013 12.56 80.544 12.656 80.672 12.784C80.7787 12.8907 80.8107 12.9653 80.768 13.008C80.7253 13.0293 80.5973 13.0613 80.384 13.104C80.2133 13.1253 80.128 13.1893 80.128 13.296C80.128 13.3813 80.2133 13.4453 80.384 13.488C80.7467 13.5733 80.7467 13.648 80.384 13.712C80.2133 13.7333 79.9893 13.7547 79.712 13.776C78.752 13.8187 78.24 13.936 78.176 14.128L77.888 14.832C77.76 15.152 77.696 15.3547 77.696 15.44C77.696 15.632 78.0267 15.6213 78.688 15.408C80.5227 14.7467 81.7493 14.544 82.368 14.8C83.0293 15.056 83.4987 15.3227 83.776 15.6C84.0107 15.8347 84.1387 16.0267 84.16 16.176C84.2027 16.3253 84.128 16.496 83.936 16.688C83.744 16.9013 83.6267 17.008 83.584 17.008C83.5413 17.008 83.392 17.072 83.136 17.2C82.9013 17.3067 82.72 17.36 82.592 17.36C82.464 17.36 82.4213 17.4453 82.464 17.616C82.528 17.7867 82.5173 17.9467 82.432 18.096C82.3467 18.224 82.336 18.352 82.4 18.48C82.4853 18.5867 82.496 18.704 82.432 18.832C82.368 18.96 82.336 19.088 82.336 19.216C82.336 19.3227 82.304 19.376 82.24 19.376C82.176 19.376 81.7493 19.7387 80.96 20.464C80.192 21.168 79.7653 21.52 79.68 21.52C79.5733 21.4987 79.264 21.6693 78.752 22.032C78.24 22.3947 77.984 22.6293 77.984 22.736C77.984 22.7787 78.0907 22.864 78.304 22.992C78.5387 23.0987 79.0933 23.408 79.968 23.92L81.952 25.04C82.336 25.2533 83.0187 25.5413 84 25.904C85.0027 26.2453 85.8667 26.512 86.592 26.704C87.488 26.9173 87.968 27.1413 88.032 27.376C88.0747 27.504 88.1493 27.5893 88.256 27.632C88.3627 27.6533 88.48 27.728 88.608 27.856C88.7573 27.984 88.8853 28.1013 88.992 28.208C89.12 28.336 89.1733 28.4107 89.152 28.432C89.0667 28.4747 89.0453 28.56 89.088 28.688C89.152 28.816 89.2267 28.8907 89.312 28.912C89.44 28.9547 89.4613 29.0293 89.376 29.136C89.2907 29.2427 89.3013 29.3067 89.408 29.328C89.5573 29.3707 89.568 29.4133 89.44 29.456C89.3973 29.4987 89.312 29.52 89.184 29.52C89.0347 29.4773 88.9493 29.488 88.928 29.552C88.9067 29.616 88.928 29.744 88.992 29.936C89.0133 30.0427 88.96 30.096 88.832 30.096C88.768 30.096 88.608 30.0853 88.352 30.064C87.904 30 87.4133 29.9573 86.88 29.936C85.792 29.872 84.864 29.776 84.096 29.648C83.456 29.5627 83.1147 29.552 83.072 29.616C83.0293 29.68 82.784 29.5733 82.336 29.296C81.888 29.0187 81.568 28.8373 81.376 28.752C81.184 28.6667 80.768 28.3893 80.128 27.92L78.592 26.832C78.208 26.5547 77.8133 26.256 77.408 25.936C77.0027 25.616 76.6933 25.4027 76.48 25.296C76.3307 25.2107 76.2347 25.1787 76.192 25.2C76.1493 25.2 76.0747 25.264 75.968 25.392C75.7973 25.5413 75.712 25.7013 75.712 25.872C75.712 26.0853 75.3707 26.6933 74.688 27.696L73.984 28.72C73.8347 28.976 73.44 29.4347 72.8 30.096C72.16 30.7787 71.7867 31.2053 71.68 31.376C71.5947 31.5467 71.488 31.6747 71.36 31.76C71.2747 31.8027 71.1787 31.8133 71.072 31.792C70.9653 31.7707 70.912 31.7173 70.912 31.632C70.912 31.568 70.784 31.4187 70.528 31.184C70.2933 30.9493 70.144 30.832 70.08 30.832C69.9733 30.832 69.8667 30.7893 69.76 30.704C69.6533 30.6187 69.6 30.5227 69.6 30.416C69.6 30.3307 69.5147 30.096 69.344 29.712C69.1307 29.328 69.0453 28.8693 69.088 28.336C69.1093 27.9093 69.344 27.4933 69.792 27.088C70.2827 26.6187 70.624 25.9893 70.816 25.2C70.944 24.6453 71.008 24.272 71.008 24.08C71.008 23.888 71.0293 23.7707 71.072 23.728C71.1147 23.6853 71.136 23.536 71.136 23.28C71.136 23.024 71.1573 22.5547 71.2 21.872C71.264 21.168 71.264 20.7947 71.2 20.752C71.136 20.7093 70.9227 20.752 70.56 20.88C70.2827 20.9867 70.0907 21.04 69.984 21.04C69.8773 21.04 69.6853 21.008 69.408 20.944C69.0453 20.8373 68.8107 20.752 68.704 20.688C68.6187 20.624 68.5547 20.6347 68.512 20.72C68.4907 20.784 68.3413 21.2427 68.064 22.096C67.7867 22.928 67.5627 23.5467 67.392 23.952C67.2427 24.336 66.9333 25.008 66.464 25.968C65.9947 26.9067 65.7387 27.3867 65.696 27.408C65.6533 27.4507 65.4613 27.728 65.12 28.24C64.032 29.9253 63.4773 30.3947 63.456 29.648C63.456 29.4133 63.3813 29.168 63.232 28.912C62.9547 28.464 62.816 28.1227 62.816 27.888C62.816 27.7387 62.784 27.6533 62.72 27.632C62.6773 27.6107 62.6347 27.4613 62.592 27.184C62.5493 26.8853 62.6667 26.5333 62.944 26.128C62.9867 26.0213 62.9973 25.9467 62.976 25.904C62.976 25.8613 62.912 25.7867 62.784 25.68L62.496 25.456L62.752 25.36C62.8587 25.3173 62.976 25.2213 63.104 25.072C63.232 24.9013 63.296 24.784 63.296 24.72C63.296 24.6773 63.4027 24.5387 63.616 24.304C63.8507 24.048 64.2133 23.4187 64.704 22.416C65.3867 21.0293 66.048 19.3653 66.688 17.424C67.0293 16.336 67.3173 15.248 67.552 14.16C67.616 13.648 67.68 13.2533 67.744 12.976C67.936 12.1867 68.0533 11.0773 68.096 9.648C68.16 8.19733 68.1387 7.09867 68.032 6.352C67.9467 5.86133 67.8187 5.488 67.648 5.232C67.4773 4.95466 67.1573 4.64533 66.688 4.304L66.432 4.144L66.656 3.952C66.8267 3.84533 67.072 3.792 67.392 3.792C67.712 3.77067 67.9787 3.81333 68.192 3.92C68.576 4.112 69.5573 3.89867 71.136 3.28C72.6293 2.68267 73.92 2.23467 75.008 1.936C75.4773 1.78666 75.7547 1.69066 75.84 1.648C75.9467 1.584 76.064 1.552 76.192 1.552C76.32 1.552 76.4053 1.50933 76.448 1.424C76.4907 1.38133 76.6187 1.33867 76.832 1.296C77.0667 1.232 77.2693 1.2 77.44 1.2C77.632 1.2 77.7387 1.22133 77.76 1.264C77.7813 1.264 77.8133 1.264 77.856 1.264C77.8987 1.264 77.952 1.264 78.016 1.264C78.1013 1.24266 78.1867 1.21067 78.272 1.168ZM77.376 4.912C77.3973 4.86933 77.3653 4.848 77.28 4.848C77.1947 4.82667 77.0987 4.82667 76.992 4.848C76.9493 4.86933 76.64 4.96533 76.064 5.136C75.5093 5.30667 74.976 5.50933 74.464 5.744C73.952 5.97867 73.4187 6.20267 72.864 6.416C72.3307 6.608 72.0427 6.736 72 6.8C71.9787 6.84267 71.776 6.82133 71.392 6.736C71.1573 6.62933 71.008 6.576 70.944 6.576C70.88 6.576 70.816 6.62933 70.752 6.736C70.6667 6.82133 70.624 6.96 70.624 7.152L70.592 7.856L70.56 8.272L70.848 8.208C71.04 8.144 71.6907 7.90933 72.8 7.504C73.9307 7.09867 74.7733 6.81067 75.328 6.64C75.8827 6.448 76.2027 6.30933 76.288 6.224C76.3733 6.11733 76.5227 6.07467 76.736 6.096H77.12L77.216 5.584C77.28 5.22133 77.3333 4.99733 77.376 4.912ZM76.416 11.056C76.4587 10.5653 76.48 10.1813 76.48 9.904C76.48 9.60533 76.4373 9.456 76.352 9.456C76.288 9.456 75.7547 9.62667 74.752 9.968C73.7493 10.3093 73.184 10.5013 73.056 10.544C72.992 10.608 72.96 10.6507 72.96 10.672C72.96 10.672 73.0027 10.6827 73.088 10.704C73.4933 10.8533 73.856 11.088 74.176 11.408C74.496 11.7067 74.656 11.984 74.656 12.24C74.656 12.368 74.6987 12.4107 74.784 12.368C74.8907 12.3253 75.1893 12.2187 75.68 12.048L76.384 11.856L76.416 11.056ZM72.544 10.896C72.5653 10.8107 72.544 10.768 72.48 10.768C72.416 10.768 72.2027 10.832 71.84 10.96C71.456 11.088 71.168 11.12 70.976 11.056C70.784 10.992 70.6667 10.9707 70.624 10.992C70.5813 11.0133 70.56 11.1947 70.56 11.536C70.56 11.8773 70.528 12.1973 70.464 12.496C70.4 12.7947 70.3467 13.1147 70.304 13.456C70.2827 13.7333 70.2827 13.8933 70.304 13.936C70.3253 13.9787 70.3893 14 70.496 14C70.6027 14 70.9333 13.904 71.488 13.712C72.064 13.52 72.4053 13.392 72.512 13.328C72.64 13.2427 72.704 12.944 72.704 12.432C72.704 11.8987 72.6613 11.536 72.576 11.344C72.512 11.1307 72.5013 10.9813 72.544 10.896ZM70.368 15.248C70.176 15.0347 70.048 14.928 69.984 14.928C69.92 14.928 69.8773 15.024 69.856 15.216L69.664 16.144C69.5787 16.592 69.504 16.976 69.44 17.296C69.376 17.5947 69.3227 17.84 69.28 18.032C69.2373 18.224 69.216 18.3627 69.216 18.448C69.216 18.512 69.2373 18.5547 69.28 18.576C69.3867 18.576 70.048 18.3627 71.264 17.936C72.5013 17.5093 73.152 17.264 73.216 17.2C73.2373 17.1787 73.1627 16.9973 72.992 16.656C72.8427 16.3147 72.7573 16.144 72.736 16.144C72.736 16.144 72.576 16.1333 72.256 16.112C71.9573 16.0693 71.776 16.016 71.712 15.952C71.648 15.888 71.552 15.856 71.424 15.856C71.1253 15.856 70.7733 15.6533 70.368 15.248ZM75.456 15.056C75.456 15.0133 75.328 15.0453 75.072 15.152C74.8373 15.2587 74.72 15.5787 74.72 16.112C74.72 16.3467 74.7307 16.4747 74.752 16.496C74.7733 16.5173 74.8267 16.464 74.912 16.336C74.9547 16.2293 75.0507 16.0053 75.2 15.664C75.3707 15.3013 75.456 15.0987 75.456 15.056ZM78.944 18.608C79.264 18.16 79.392 17.936 79.328 17.936C79.2853 17.936 79.2427 17.9573 79.2 18C79.1147 18.0427 78.9653 18.0533 78.752 18.032C78.5387 18.0107 78.3467 18.0533 78.176 18.16C78.0267 18.2453 77.856 18.2773 77.664 18.256C77.472 18.2133 77.0347 18.3413 76.352 18.64C75.6693 18.9387 74.976 19.1947 74.272 19.408C73.9307 19.536 73.6747 19.632 73.504 19.696C73.3547 19.76 73.2267 19.824 73.12 19.888C73.0133 19.952 72.9707 20.0053 72.992 20.048C73.0133 20.0907 73.0347 20.1547 73.056 20.24C73.184 20.3253 73.248 20.4747 73.248 20.688C73.248 20.816 73.3013 20.912 73.408 20.976C73.5147 21.04 73.8987 21.1893 74.56 21.424L75.84 21.84L77.184 20.56C78.0587 19.7067 78.6453 19.056 78.944 18.608ZM75.264 24.24C75.2 24.1333 74.8693 23.8347 74.272 23.344C73.6747 22.832 73.344 22.5653 73.28 22.544C73.2373 22.5227 73.2053 22.5333 73.184 22.576C73.184 22.5973 73.1627 22.704 73.12 22.896C73.0987 23.0667 73.0773 23.2907 73.056 23.568C73.0347 23.824 73.0027 24.1973 72.96 24.688C72.896 25.52 72.8427 26.0533 72.8 26.288C72.7787 26.5227 72.7787 26.64 72.8 26.64C72.9493 26.64 73.568 26.128 74.656 25.104C75.1467 24.6347 75.3493 24.3467 75.264 24.24ZM111.584 17.104C111.584 16.9547 111.616 16.88 111.68 16.88C111.744 16.8587 111.915 16.8907 112.192 16.976C112.427 17.0827 112.629 17.136 112.8 17.136C112.971 17.136 113.429 17.328 114.176 17.712C114.923 18.0747 115.328 18.3093 115.392 18.416C115.413 18.4587 115.477 18.48 115.584 18.48C115.712 18.48 115.893 18.5653 116.128 18.736C116.363 18.8853 116.512 19.0987 116.576 19.376C116.64 19.6533 116.779 20.1227 116.992 20.784C117.333 21.8293 117.461 22.8107 117.376 23.728L117.344 24.336L117.056 24.08C116.075 23.1413 115.541 22.672 115.456 22.672C115.371 22.672 115.221 22.5653 115.008 22.352C114.816 22.1387 114.72 21.9893 114.72 21.904C114.72 21.84 114.624 21.6907 114.432 21.456C114.261 21.2 114.176 21.0507 114.176 21.008C114.176 20.944 114.069 20.752 113.856 20.432C113.643 20.0907 113.536 19.8987 113.536 19.856C113.536 19.8133 113.461 19.7387 113.312 19.632C113.163 19.504 113.067 19.44 113.024 19.44C112.96 19.44 112.853 19.3653 112.704 19.216C112.576 19.0453 112.512 18.928 112.512 18.864C112.512 18.7573 112.427 18.5547 112.256 18.256C112.085 17.9573 111.936 17.7333 111.808 17.584C111.659 17.4347 111.584 17.2747 111.584 17.104ZM101.056 16.624C101.077 16.3893 101.483 16.6773 102.272 17.488C102.805 18.0427 103.136 18.5227 103.264 18.928C103.413 19.3333 103.52 19.5147 103.584 19.472C103.669 19.4293 103.819 19.3227 104.032 19.152L104.352 18.928L104.48 19.152C104.587 19.28 104.704 19.344 104.832 19.344C105.131 19.344 105.035 19.6213 104.544 20.176C104.501 20.2613 104.437 20.3467 104.352 20.432C103.563 21.2213 103.211 21.7013 103.296 21.872C103.381 21.9787 103.211 22.2773 102.784 22.768C102.379 23.2373 102.176 23.5147 102.176 23.6C102.176 23.664 102.112 23.76 101.984 23.888C101.856 23.9947 101.632 24.304 101.312 24.816L100.832 25.552L100.704 25.328C100.597 25.1573 100.405 24.944 100.128 24.688C99.8507 24.432 99.6373 24.272 99.488 24.208L99.232 24.08L99.392 23.728C99.52 23.472 99.5413 23.3013 99.456 23.216C99.392 23.1093 99.3493 22.9707 99.328 22.8C99.3067 22.6293 99.2533 22.512 99.168 22.448C99.0827 22.384 99.0293 22.224 99.008 21.968C98.9867 21.712 99.0613 21.4773 99.232 21.264C99.424 21.008 99.7013 20.5707 100.064 19.952C100.427 19.312 100.661 18.8533 100.768 18.576C100.896 18.1707 100.992 17.52 101.056 16.624ZM111.104 8.464C111.104 8.35733 111.125 8.28267 111.168 8.24C111.211 8.19733 111.275 8.19733 111.36 8.24C111.467 8.26133 111.851 8.29333 112.512 8.336C113.515 8.37867 114.048 8.496 114.112 8.688C114.155 8.79467 114.229 8.848 114.336 8.848C114.464 8.848 114.56 8.92267 114.624 9.072C114.688 9.22133 114.763 9.296 114.848 9.296C114.955 9.296 115.029 9.34933 115.072 9.456C115.115 9.56267 115.2 9.712 115.328 9.904C115.456 10.0747 115.509 10.3093 115.488 10.608C115.488 10.9067 115.541 11.0667 115.648 11.088L114.976 11.312C114.4 11.4613 113.717 11.7067 112.928 12.048C112.608 12.1973 112.245 12.3253 111.84 12.432C111.456 12.5387 111.093 12.6667 110.752 12.816C110.496 12.9227 110.357 12.9973 110.336 13.04C110.315 13.0613 110.336 13.136 110.4 13.264C110.507 13.4133 110.507 13.5093 110.4 13.552C110.293 13.5733 110.251 13.7227 110.272 14C110.315 14.256 110.304 14.416 110.24 14.48C110.091 14.544 110.048 15.0453 110.112 15.984C110.261 17.9467 110.325 19.4187 110.304 20.4C110.197 23.536 110.187 25.488 110.272 26.256C110.315 26.8107 110.304 27.2907 110.24 27.696C110.176 28.1013 110.133 28.368 110.112 28.496C110.112 28.624 110.101 28.7093 110.08 28.752C110.08 28.816 110.048 28.816 109.984 28.752C109.92 28.752 109.867 28.7627 109.824 28.784C109.803 28.8267 109.792 28.88 109.792 28.944C109.728 29.1147 109.664 29.2 109.6 29.2C109.557 29.2 109.536 29.2747 109.536 29.424C109.536 29.5947 109.504 29.6693 109.44 29.648C109.397 29.648 108.896 29.4027 107.936 28.912C107.701 28.784 107.584 28.688 107.584 28.624C107.584 28.56 107.509 28.464 107.36 28.336C107.211 28.208 106.923 27.8133 106.496 27.152C106.069 26.512 105.803 26.128 105.696 26C105.483 25.7227 105.248 25.264 104.992 24.624C104.928 24.496 104.832 24.2827 104.704 23.984C104.491 23.4933 104.437 23.248 104.544 23.248C104.587 23.248 104.8 23.376 105.184 23.632C105.781 24.0587 106.272 24.2187 106.656 24.112C106.827 24.0907 106.933 23.9627 106.976 23.728C107.019 23.472 107.051 22.704 107.072 21.424C107.115 20.208 107.157 19.3973 107.2 18.992C107.264 18.6507 107.253 17.8293 107.168 16.528C107.083 15.2053 106.987 14.384 106.88 14.064C106.859 14 106.379 14.128 105.44 14.448C103.861 14.9387 102.816 15.12 102.304 14.992C102.027 14.928 101.824 14.896 101.696 14.896C101.568 14.896 101.429 14.8533 101.28 14.768C101.152 14.6827 100.939 14.608 100.64 14.544C100.363 14.4587 100.224 14.3947 100.224 14.352C100.224 14.288 100.117 14.224 99.904 14.16C99.6907 14.0747 99.5413 13.9893 99.456 13.904C99.392 13.8187 99.4347 13.776 99.584 13.776C99.84 13.776 99.8507 13.712 99.616 13.584C99.5733 13.5413 99.488 13.5093 99.36 13.488C99.2107 13.4453 99.072 13.3813 98.944 13.296C98.816 13.2107 98.72 13.1253 98.656 13.04C98.592 12.9547 98.5813 12.88 98.624 12.816C98.688 12.7733 99.04 12.688 99.68 12.56C100.853 12.3467 101.899 12.016 102.816 11.568C103.541 11.248 104.181 11.0453 104.736 10.96C104.907 10.9173 105.024 10.8747 105.088 10.832C105.173 10.768 105.461 10.6613 105.952 10.512C106.443 10.3413 106.997 10.1493 107.616 9.936C108.235 9.70133 108.64 9.56267 108.832 9.52C109.024 9.456 109.269 9.34933 109.568 9.2C109.888 9.05067 110.219 8.92267 110.56 8.816C110.923 8.688 111.104 8.57067 111.104 8.464ZM106.816 3.824C107.584 3.52533 108 3.33333 108.064 3.248C108.128 3.14133 108.48 3.09867 109.12 3.12C109.589 3.12 109.877 3.14133 109.984 3.184C110.091 3.20533 110.197 3.28 110.304 3.408C110.453 3.55733 110.56 3.632 110.624 3.632C110.709 3.632 110.795 3.728 110.88 3.92C110.987 4.112 111.072 4.208 111.136 4.208C111.264 4.208 111.328 4.37867 111.328 4.72C111.307 4.80533 111.328 4.848 111.392 4.848C111.456 4.848 111.488 4.92267 111.488 5.072C111.488 5.30667 111.595 5.46667 111.808 5.552C111.979 5.616 111.872 5.72267 111.488 5.872C111.403 5.89333 111.328 5.92533 111.264 5.968L110.24 6.352C109.92 6.43733 109.547 6.58667 109.12 6.8C107.691 7.46133 106.688 7.824 106.112 7.888C105.835 7.90933 105.579 7.86667 105.344 7.76C105.131 7.632 104.875 7.51467 104.576 7.408C104.299 7.28 104.096 7.152 103.968 7.024C103.84 6.87467 103.733 6.8 103.648 6.8C103.52 6.8 103.296 6.65067 102.976 6.352C102.933 6.26667 102.923 6.224 102.944 6.224C102.965 6.224 103.072 6.26667 103.264 6.352C103.349 6.352 103.403 6.36267 103.424 6.384C103.467 6.384 103.499 6.384 103.52 6.384C103.541 6.36267 103.552 6.352 103.552 6.352C103.552 6.26667 103.424 6.192 103.168 6.128C102.933 6.064 102.784 5.97867 102.72 5.872C102.656 5.76533 102.528 5.65867 102.336 5.552C102.059 5.296 102.208 5.15733 102.784 5.136C103.253 5.136 103.819 5.02933 104.48 4.816C105.141 4.58133 105.504 4.432 105.568 4.368C105.632 4.304 106.048 4.12267 106.816 3.824Z" fill="black"/>
</svg>
