<svg width="137" height="35" viewBox="0 0 137 35" fill="none" xmlns="http://www.w3.org/2000/svg">
<path d="M11.652 24.292C12.012 24.172 12.456 24.244 12.984 24.508C13.536 24.772 14.052 25.156 14.532 25.66L15.288 26.416L15.612 26.02C15.876 25.756 16.056 25.516 16.152 25.3C16.296 25.036 16.368 24.976 16.368 25.12C16.368 25.264 16.284 25.48 16.116 25.768C15.948 26.128 15.876 26.332 15.9 26.38L16.08 26.128C16.176 25.936 16.248 25.828 16.296 25.804C16.344 25.78 16.404 25.852 16.476 26.02C16.548 26.164 16.536 26.416 16.44 26.776C16.368 27.136 16.26 27.4 16.116 27.568C15.948 27.784 15.936 27.916 16.08 27.964C16.128 27.964 16.236 27.82 16.404 27.532C16.716 27.076 16.752 27.1 16.512 27.604C16.416 27.892 16.356 28.108 16.332 28.252C16.308 28.396 16.248 28.6 16.152 28.864C16.056 29.128 16.008 29.452 16.008 29.836C16.008 30.244 15.948 30.46 15.828 30.484C15.708 30.532 15.684 30.664 15.756 30.88L15.684 31.024C15.66 31.024 15.516 30.904 15.252 30.664C14.892 30.352 14.58 30.112 14.316 29.944C14.076 29.776 13.872 29.608 13.704 29.44L13.308 29.008C13.044 28.768 12.864 28.168 12.768 27.208C12.744 26.848 12.648 26.476 12.48 26.092C12.312 25.684 12.144 25.396 11.976 25.228C11.856 25.156 11.82 25.06 11.868 24.94C11.916 24.796 11.868 24.7 11.724 24.652C11.58 24.628 11.496 24.568 11.472 24.472C11.472 24.376 11.532 24.316 11.652 24.292ZM17.988 23.536C18.54 23.44 19.224 23.812 20.04 24.652C20.424 25.036 20.664 25.192 20.76 25.12C20.832 25.144 20.868 25.228 20.868 25.372C20.868 25.588 20.94 25.78 21.084 25.948C21.516 26.452 21.756 27.208 21.804 28.216C21.828 29.44 21.744 30.052 21.552 30.052C21.456 30.052 21.384 30.124 21.336 30.268C21.288 30.388 21.18 30.388 21.012 30.268C20.94 30.196 20.868 30.136 20.796 30.088C20.508 29.824 20.364 29.644 20.364 29.548C20.364 29.476 20.292 29.416 20.148 29.368C20.028 29.32 19.908 29.224 19.788 29.08C19.668 28.936 19.44 28.744 19.104 28.504C18.792 28.264 18.648 28.048 18.672 27.856C18.744 27.28 18.72 26.884 18.6 26.668C18.552 26.548 18.48 26.32 18.384 25.984C18.312 25.624 18.276 25.396 18.276 25.3C18.276 25.18 18.132 24.952 17.844 24.616C17.748 24.544 17.7 24.496 17.7 24.472C17.724 24.424 17.784 24.388 17.88 24.364H18.096L17.88 24.112C17.568 23.824 17.604 23.632 17.988 23.536ZM23.244 22.744C23.796 22.528 24.396 22.6 25.044 22.96C25.38 23.104 25.788 23.38 26.268 23.788C27.036 24.46 27.528 24.94 27.744 25.228C27.984 25.492 28.152 25.804 28.248 26.164C28.32 26.524 28.344 26.848 28.32 27.136C28.296 27.424 28.224 27.568 28.104 27.568C28.056 27.568 28.02 27.64 27.996 27.784C27.996 27.904 27.984 28.36 27.96 29.152C27.936 29.8 27.84 30.196 27.672 30.34C27.528 30.508 27.456 30.676 27.456 30.844C27.432 30.868 27.408 30.892 27.384 30.916C27.36 30.796 27.228 30.616 26.988 30.376C25.62 28.888 24.864 28.12 24.72 28.072C24.648 28 24.66 27.94 24.756 27.892C24.852 27.82 24.864 27.7 24.792 27.532L24.684 26.992C24.636 26.8 24.66 26.68 24.756 26.632C24.852 26.56 24.804 26.44 24.612 26.272C24.444 26.104 24.372 25.924 24.396 25.732C24.444 25.54 24.492 25.444 24.54 25.444C24.612 25.444 24.624 25.396 24.576 25.3C24.528 25.204 24.468 25.168 24.396 25.192C24.324 25.216 24.204 25.12 24.036 24.904C23.892 24.688 23.82 24.508 23.82 24.364C23.82 24.244 23.724 24.088 23.532 23.896L23.208 23.572H23.532C23.724 23.572 23.82 23.548 23.82 23.5C23.82 23.428 23.724 23.356 23.532 23.284C23.34 23.188 23.196 23.104 23.1 23.032C23.004 22.936 23.052 22.84 23.244 22.744ZM28.536 21.556C28.608 21.532 28.716 21.52 28.86 21.52L29.328 21.556H29.292C29.052 21.58 28.8 21.58 28.536 21.556ZM7.728 1.54C7.728 1.444 7.74 1.384 7.764 1.36C7.788 1.336 7.836 1.336 7.908 1.36C8.004 1.36 8.112 1.384 8.232 1.432C8.352 1.456 8.556 1.528 8.844 1.648C9.684 2.008 10.104 2.26 10.104 2.404C10.104 2.476 10.2 2.572 10.392 2.692C10.704 2.884 10.896 3.064 10.968 3.232C11.064 3.4 11.136 3.736 11.184 4.24C11.184 4.336 11.148 4.72 11.076 5.392C11.004 6.04 10.956 6.76 10.932 7.552V8.74H11.328C11.568 8.74 11.7 8.8 11.724 8.92C11.748 9.016 11.808 9.04 11.904 8.992C12.024 8.944 12.12 8.992 12.192 9.136C12.264 9.28 12.396 9.352 12.588 9.352C12.804 9.352 12.912 9.412 12.912 9.532C12.912 9.628 12.984 9.7 13.128 9.748C13.296 9.796 13.308 9.856 13.164 9.928C13.092 9.976 13.056 10.024 13.056 10.072C13.08 10.12 13.164 10.204 13.308 10.324C13.5 10.492 13.632 10.6 13.704 10.648C13.896 10.72 13.776 10.84 13.344 11.008C13.128 11.104 12.852 11.2 12.516 11.296C11.82 11.488 11.424 11.62 11.328 11.692C11.16 11.836 11.076 12.328 11.076 13.168C11.076 13.384 11.1 13.492 11.148 13.492C11.22 13.468 11.256 13.408 11.256 13.312C11.256 13.192 11.304 13.168 11.4 13.24C11.496 13.312 11.616 13.288 11.76 13.168C11.928 13.048 12.012 12.952 12.012 12.88C12.012 12.712 12.252 12.628 12.732 12.628C12.972 12.628 13.452 12.448 14.172 12.088L16.944 10.828C17.16 10.756 17.292 10.684 17.34 10.612C17.412 10.516 17.496 10.3 17.592 9.964C17.784 9.22 17.88 8.308 17.88 7.228C17.88 6.676 17.868 6.34 17.844 6.22C17.844 6.1 17.784 5.992 17.664 5.896C17.496 5.776 17.472 5.692 17.592 5.644C17.712 5.596 17.748 5.512 17.7 5.392C17.676 5.248 17.712 5.116 17.808 4.996C18 4.804 18.372 4.816 18.924 5.032C19.5 5.248 19.908 5.524 20.148 5.86C20.292 6.124 20.364 6.292 20.364 6.364C20.364 6.412 20.436 6.58 20.58 6.868C20.724 7.132 20.796 7.576 20.796 8.2V9.136L21.192 8.992C21.504 8.896 21.696 8.812 21.768 8.74C21.864 8.644 22.152 8.68 22.632 8.848C23.112 8.992 23.376 9.112 23.424 9.208C23.472 9.304 23.544 9.352 23.64 9.352C23.904 9.352 24.096 9.604 24.216 10.108C24.36 10.588 24.396 11.164 24.324 11.836C24.132 13.108 23.952 14.044 23.784 14.644C23.472 15.604 23.364 16.36 23.46 16.912C23.484 17.152 23.52 17.296 23.568 17.344C23.616 17.392 23.724 17.44 23.892 17.488C24.156 17.584 24.54 17.644 25.044 17.668C26.268 17.788 27.252 18.16 27.996 18.784C28.116 18.904 28.284 19 28.5 19.072C28.788 19.192 28.86 19.288 28.716 19.36C28.644 19.384 28.572 19.396 28.5 19.396C28.38 19.396 28.32 19.42 28.32 19.468C28.32 19.492 28.368 19.6 28.464 19.792C28.56 19.984 28.584 20.104 28.536 20.152C28.512 20.2 28.548 20.26 28.644 20.332C28.74 20.404 28.728 20.44 28.608 20.44C28.488 20.44 28.488 20.512 28.608 20.656C28.752 20.8 28.812 20.92 28.788 21.016C28.788 21.112 28.704 21.172 28.536 21.196C28.368 21.196 27.936 21.196 27.24 21.196C25.824 21.172 24.864 21.1 24.36 20.98C23.88 20.836 23.4 20.536 22.92 20.08C22.56 19.744 22.284 19.42 22.092 19.108C21.9 18.772 21.744 18.58 21.624 18.532C21.528 18.46 21.432 18.208 21.336 17.776C21.168 17.104 21.204 15.532 21.444 13.06C21.516 12.628 21.504 12.412 21.408 12.412C21.312 12.412 21.084 12.52 20.724 12.736C20.388 12.928 20.22 13.06 20.22 13.132C20.22 13.18 20.124 13.3 19.932 13.492C19.74 13.684 19.596 13.924 19.5 14.212C19.428 14.5 19.368 14.68 19.32 14.752C19.272 14.824 19.2 15.004 19.104 15.292C19.008 15.556 18.876 15.868 18.708 16.228C18.444 16.804 18.408 17.092 18.6 17.092C18.864 17.092 19.416 17.476 20.256 18.244C20.568 18.532 20.676 18.676 20.58 18.676C20.484 18.676 20.364 18.724 20.22 18.82C20.124 18.892 20.076 18.952 20.076 19C20.076 19.024 20.136 19.12 20.256 19.288C20.4 19.504 20.436 19.624 20.364 19.648C20.148 19.792 20.22 20.056 20.58 20.44L20.796 20.692C20.772 20.668 20.724 20.644 20.652 20.62C20.508 20.5 20.34 20.404 20.148 20.332C19.98 20.236 19.8 20.14 19.608 20.044C19.416 19.948 19.26 19.9 19.14 19.9C19.02 19.9 18.708 19.756 18.204 19.468C17.7 19.156 17.424 19 17.376 19C17.352 19 17.22 19.18 16.98 19.54C16.644 20.02 16.284 20.428 15.9 20.764C15.756 20.884 15.624 21.04 15.504 21.232C15.288 21.568 14.904 21.748 14.352 21.772C14.064 21.772 13.872 21.796 13.776 21.844C13.704 21.892 13.608 21.856 13.488 21.736C13.392 21.616 13.344 21.484 13.344 21.34C13.344 21.268 13.284 21.112 13.164 20.872C13.068 20.608 12.984 20.464 12.912 20.44C12.864 20.44 12.84 20.38 12.84 20.26C12.84 20.116 12.78 20.044 12.66 20.044C12.564 20.044 12.516 19.996 12.516 19.9C12.516 19.804 12.564 19.732 12.66 19.684C12.756 19.636 12.792 19.528 12.768 19.36C12.744 19.192 12.984 18.808 13.488 18.208C14.016 17.584 14.28 17.248 14.28 17.2C14.28 17.152 14.136 17.068 13.848 16.948C13.584 16.828 13.404 16.72 13.308 16.624C13.236 16.528 13.092 16.42 12.876 16.3C12.708 16.228 12.576 16.204 12.48 16.228C12.384 16.228 12.18 16.324 11.868 16.516C11.412 16.756 11.16 16.912 11.112 16.984C11.088 17.032 11.064 17.572 11.04 18.604C10.968 19.612 10.872 20.5 10.752 21.268C10.632 22.036 10.512 22.42 10.392 22.42C10.344 22.42 10.32 22.504 10.32 22.672C10.32 22.816 10.236 23.116 10.068 23.572C9.924 24.028 9.804 24.316 9.708 24.436C9.636 24.532 9.576 24.664 9.528 24.832C9.48 25 9.408 25.168 9.312 25.336C9.216 25.504 9.204 25.588 9.276 25.588C9.3 25.564 9.384 25.492 9.528 25.372C9.576 25.348 9.624 25.348 9.672 25.372C9.384 25.804 9.024 26.296 8.592 26.848C8.424 27.04 8.34 27.196 8.34 27.316C8.34 27.508 8.652 27.22 9.276 26.452C9.348 26.404 9.408 26.332 9.456 26.236L9.708 25.948L9.6 26.272C9.552 26.68 9.324 27.16 8.916 27.712L8.592 28.144C8.52 28.192 8.328 28.408 8.016 28.792C7.488 29.44 7.284 29.788 7.404 29.836C7.476 29.836 7.8 29.536 8.376 28.936C9.12 28.216 9.348 28.036 9.06 28.396C9.012 28.468 8.916 28.588 8.772 28.756C8.556 29.068 8.448 29.248 8.448 29.296C8.448 29.512 8.244 29.86 7.836 30.34C7.62 30.604 7.38 31.036 7.116 31.636C6.852 32.26 6.624 32.668 6.432 32.86L6.18 33.112L5.82 32.824C5.556 32.632 5.4 32.476 5.352 32.356C5.328 32.236 5.268 32.176 5.172 32.176C5.076 32.176 4.944 32.068 4.776 31.852C4.632 31.636 4.476 31.504 4.308 31.456C4.14 31.432 4.056 31.348 4.056 31.204C4.056 31.06 4.008 30.964 3.912 30.916C3.84 30.892 3.816 30.784 3.84 30.592C3.888 30.4 3.864 30.232 3.768 30.088C3.672 29.968 3.66 29.848 3.732 29.728C3.828 29.608 3.876 29.428 3.876 29.188C3.876 28.972 3.948 28.72 4.092 28.432C4.308 28.168 4.452 27.82 4.524 27.388C4.548 27.268 4.56 27.184 4.56 27.136C4.584 27.088 4.584 26.968 4.56 26.776C4.56 26.584 4.584 26.464 4.632 26.416C4.704 26.296 4.752 25.9 4.776 25.228C4.8 24.532 4.788 24.052 4.74 23.788C4.716 23.596 4.776 23.488 4.92 23.464C5.064 23.416 5.232 23.452 5.424 23.572C5.64 23.692 5.796 23.848 5.892 24.04C6.012 24.208 6.132 24.292 6.252 24.292C6.468 24.292 6.708 24.568 6.972 25.12C7.236 25.648 7.404 26.212 7.476 26.812C7.524 27.172 7.56 27.352 7.584 27.352C7.632 27.352 7.872 27.136 8.304 26.704C8.736 26.248 8.952 25.984 8.952 25.912C8.952 25.816 8.82 25.66 8.556 25.444C8.292 25.204 8.112 24.964 8.016 24.724C7.92 24.484 7.788 24.28 7.62 24.112C7.356 23.8 7.188 23.548 7.116 23.356C7.068 23.164 7.02 23.068 6.972 23.068C6.948 23.068 6.804 22.9 6.54 22.564C6.3 22.228 6.108 21.94 5.964 21.7C5.868 21.436 5.76 21.328 5.64 21.376C5.52 21.424 5.256 21.664 4.848 22.096C4.416 22.528 4.128 22.744 3.984 22.744C3.84 22.744 3.588 22.612 3.228 22.348C2.868 22.06 2.652 21.844 2.58 21.7C2.532 21.556 2.292 21.352 1.86 21.088C1.236 20.68 0.924 20.38 0.924 20.188C0.924 20.092 0.876 20.02 0.78 19.972C0.708 19.924 0.684 19.816 0.708 19.648C0.732 19.48 0.816 19.336 0.96 19.216C1.104 19.024 1.2 18.868 1.248 18.748C1.296 18.628 1.404 18.568 1.572 18.568C1.764 18.568 1.932 18.628 2.076 18.748C2.22 18.868 2.448 18.844 2.76 18.676C3.072 18.508 4.044 17.884 5.676 16.804C6.156 16.468 6.612 16.204 7.044 16.012C7.356 15.844 7.548 15.724 7.62 15.652C7.692 15.58 7.728 15.46 7.728 15.292C7.776 14.428 7.752 13.948 7.656 13.852C7.632 13.828 7.524 13.876 7.332 13.996C7.14 14.116 6.936 14.164 6.72 14.14C6.504 14.116 6.108 13.984 5.532 13.744C5.196 13.6 4.956 13.528 4.812 13.528C4.668 13.528 4.536 13.48 4.416 13.384C4.32 13.288 4.212 13.24 4.092 13.24C3.948 13.24 3.768 13.18 3.552 13.06C3.36 12.94 3.24 12.796 3.192 12.628C3.096 12.412 3.072 12.292 3.12 12.268C3.192 12.244 3.18 12.16 3.084 12.016C2.988 11.848 2.988 11.728 3.084 11.656C3.204 11.584 3.372 11.548 3.588 11.548C3.804 11.548 4.092 11.464 4.452 11.296C4.836 11.128 5.064 11.044 5.136 11.044C5.208 11.044 5.712 10.804 6.648 10.324L8.016 9.676L7.944 6.184C7.92 4.528 7.896 3.532 7.872 3.196C7.872 2.836 7.824 2.584 7.728 2.44C7.464 2.104 7.428 1.876 7.62 1.756C7.692 1.732 7.728 1.66 7.728 1.54ZM7.332 20.404C7.38 20.02 7.38 19.816 7.332 19.792C7.284 19.768 7.2 19.828 7.08 19.972C6.792 20.404 6.744 20.704 6.936 20.872C7.032 20.944 7.116 20.944 7.188 20.872C7.26 20.8 7.308 20.644 7.332 20.404ZM40.776 8.452C40.944 8.212 41.448 8.32 42.288 8.776C42.408 8.848 42.696 9.004 43.152 9.244C43.608 9.46 43.932 9.664 44.124 9.856C44.628 10.336 44.844 11.044 44.772 11.98C44.724 12.412 44.688 12.928 44.664 13.528C44.64 14.104 44.568 14.764 44.448 15.508C44.112 17.836 43.896 19.444 43.8 20.332C43.68 21.82 43.524 22.996 43.332 23.86C42.924 25.684 42.684 26.596 42.612 26.596C42.588 26.596 42.42 26.404 42.108 26.02C41.82 25.636 41.64 25.36 41.568 25.192C41.256 24.568 41.052 24.256 40.956 24.256C40.884 24.256 40.824 24.16 40.776 23.968C40.752 23.776 40.668 23.632 40.524 23.536C40.308 23.368 40.272 22.996 40.416 22.42C40.512 21.988 40.596 21.34 40.668 20.476C40.692 20.044 40.74 19.624 40.812 19.216C41.028 18.04 41.172 16.924 41.244 15.868C41.268 15.1 41.316 14.584 41.388 14.32C41.46 14.032 41.508 13.336 41.532 12.232C41.58 11.128 41.58 10.42 41.532 10.108C41.484 9.796 41.328 9.484 41.064 9.172C40.8 8.836 40.704 8.596 40.776 8.452ZM48.012 5.104C48.444 4.72 48.66 4.528 48.66 4.528C48.66 4.528 48.648 4.66 48.624 4.924C48.6 5.164 48.54 5.332 48.444 5.428C48.228 5.716 48.168 5.86 48.264 5.86C48.336 5.86 48.396 5.86 48.444 5.86C48.66 5.812 48.816 5.764 48.912 5.716C48.96 5.692 48.984 5.764 48.984 5.932C49.008 6.004 49.02 6.088 49.02 6.184C49.02 6.424 48.984 6.616 48.912 6.76C48.84 6.904 48.636 7.168 48.3 7.552C47.868 8.128 47.652 8.464 47.652 8.56C47.652 8.656 47.556 8.776 47.364 8.92L47.076 9.064L46.572 8.776C46.26 8.584 46.044 8.416 45.924 8.272C45.228 7.672 44.64 7.288 44.16 7.12C43.944 7.072 43.8 6.988 43.728 6.868C43.656 6.748 43.608 6.508 43.584 6.148C43.584 5.836 43.596 5.632 43.62 5.536C43.668 5.44 43.776 5.356 43.944 5.284C44.064 5.212 44.34 5.236 44.772 5.356C45.204 5.452 45.528 5.584 45.744 5.752C45.936 5.896 46.104 5.968 46.248 5.968C46.8 5.968 47.388 5.68 48.012 5.104ZM56.976 3.412C57.024 3.34 57.18 3.316 57.444 3.34C57.732 3.364 57.996 3.4 58.236 3.448C58.596 3.568 59.328 4.036 60.432 4.852C61.272 5.476 61.572 5.92 61.332 6.184C61.236 6.256 61.284 6.508 61.476 6.94C61.668 7.348 61.716 7.624 61.62 7.768C61.524 7.888 61.452 7.936 61.404 7.912C61.14 7.84 60.972 8.044 60.9 8.524C60.852 8.86 60.78 9.064 60.684 9.136C60.612 9.184 60.564 9.376 60.54 9.712C60.54 10.024 60.504 10.408 60.432 10.864C60.36 11.32 60.336 11.836 60.36 12.412C60.408 12.964 60.42 13.516 60.396 14.068C60.396 14.62 60.444 15.472 60.54 16.624C60.636 17.776 60.684 18.412 60.684 18.532C60.684 18.628 60.708 18.94 60.756 19.468C60.804 19.996 60.84 20.68 60.864 21.52C60.912 22.336 60.948 22.912 60.972 23.248C61.116 25.072 61.128 26.152 61.008 26.488C60.936 26.8 60.864 27.22 60.792 27.748C60.744 28.252 60.612 28.588 60.396 28.756C60.228 28.876 60.036 29.164 59.82 29.62C59.628 30.076 59.532 30.448 59.532 30.736C59.508 30.952 59.472 31.06 59.424 31.06C59.376 31.06 59.256 30.868 59.064 30.484C58.872 30.1 58.728 29.908 58.632 29.908C58.56 29.908 58.536 29.788 58.56 29.548C58.608 29.308 58.56 29.14 58.416 29.044C58.272 28.948 58.2 28.84 58.2 28.72C58.2 28.624 58.032 28.396 57.696 28.036C57.384 27.7 57.228 27.484 57.228 27.388C57.252 27.268 57.228 27.196 57.156 27.172C57.084 27.124 57.048 27.04 57.048 26.92C57.048 26.776 57.012 26.692 56.94 26.668C56.892 26.644 56.736 26.488 56.472 26.2C56.232 25.888 56.112 25.612 56.112 25.372C56.112 25.132 56.076 24.94 56.004 24.796C55.932 24.628 55.908 24.496 55.932 24.4C55.98 24.304 56.136 24.34 56.4 24.508C56.856 24.844 57.12 24.808 57.192 24.4C57.216 24.208 57.216 23.596 57.192 22.564C57.192 21.532 57.156 20.956 57.084 20.836C57.06 20.74 57.024 20.068 56.976 18.82C56.952 17.548 56.916 16.852 56.868 16.732C56.82 16.612 56.76 14.188 56.688 9.46C56.664 7.78 56.52 6.94 56.256 6.94C56.16 6.94 55.716 7.024 54.924 7.192C54.132 7.36 53.58 7.432 53.268 7.408C52.98 7.384 52.62 7.3 52.188 7.156C51.78 7.012 51.48 6.856 51.288 6.688C51.096 6.52 50.832 6.376 50.496 6.256C50.184 6.112 49.968 5.992 49.848 5.896C49.728 5.8 49.74 5.692 49.884 5.572C50.052 5.428 50.436 5.308 51.036 5.212C51.756 5.14 52.704 4.948 53.88 4.636C55.08 4.3 55.704 4.072 55.752 3.952C55.8 3.832 55.884 3.772 56.004 3.772C56.148 3.772 56.268 3.724 56.364 3.628C56.484 3.532 56.604 3.484 56.724 3.484C56.868 3.484 56.952 3.46 56.976 3.412ZM80.988 24.184C80.964 23.752 80.988 23.488 81.06 23.392C81.156 23.296 81.228 23.26 81.276 23.284C81.348 23.284 81.54 23.368 81.852 23.536C82.212 23.728 82.488 23.992 82.68 24.328C83.208 25.432 83.508 25.984 83.58 25.984C83.652 25.984 83.832 25.888 84.12 25.696C84.408 25.48 84.636 25.372 84.804 25.372C84.9 25.372 84.96 25.384 84.984 25.408C85.008 25.432 84.996 25.516 84.948 25.66C84.924 25.852 84.876 26.032 84.804 26.2C84.732 26.344 84.72 26.476 84.768 26.596C84.816 26.716 84.648 26.98 84.264 27.388C83.88 27.892 83.724 28.168 83.796 28.216C83.892 28.24 83.772 28.42 83.436 28.756C83.124 29.116 82.836 29.56 82.572 30.088C82.308 30.64 82.044 31.048 81.78 31.312C81.372 31.72 81.168 31.828 81.168 31.636C81.168 31.588 81.06 31.456 80.844 31.24C80.652 31.024 80.46 30.712 80.268 30.304C80.076 29.92 79.932 29.728 79.836 29.728C79.74 29.728 79.692 29.644 79.692 29.476C79.692 29.332 79.692 29.176 79.692 29.008C79.692 28.864 79.668 28.78 79.62 28.756C79.572 28.732 79.584 28.6 79.656 28.36C79.752 28.144 79.836 28.012 79.908 27.964C80.124 27.772 80.232 27.52 80.232 27.208C80.232 27.088 80.28 27.028 80.376 27.028C80.496 27.028 80.628 26.692 80.772 26.02C80.94 25.348 81.012 24.736 80.988 24.184ZM91.536 23.176C91.632 23.08 91.764 23.056 91.932 23.104C92.124 23.152 92.364 23.164 92.652 23.14C92.964 23.116 93.156 23.152 93.228 23.248C93.324 23.32 93.576 23.404 93.984 23.5C94.392 23.596 94.668 23.728 94.812 23.896C95.172 24.28 95.52 24.472 95.856 24.472C95.904 24.472 95.928 24.496 95.928 24.544C95.952 24.568 95.964 24.592 95.964 24.616C95.916 24.688 95.928 24.772 96 24.868C96.096 24.964 96.18 25 96.252 24.976C96.396 24.928 96.54 25.036 96.684 25.3C96.828 25.54 96.948 25.888 97.044 26.344C97.14 26.8 97.2 27.28 97.224 27.784C97.248 28.6 97.32 29.128 97.44 29.368C97.632 29.824 97.656 30.052 97.512 30.052C97.464 30.052 97.272 29.884 96.936 29.548C96.024 28.684 95.472 28.252 95.28 28.252C95.184 28.252 95.028 28.12 94.812 27.856C94.62 27.568 94.488 27.424 94.416 27.424C94.368 27.424 94.344 27.376 94.344 27.28C94.344 27.184 94.284 27.1 94.164 27.028C94.068 26.932 93.948 26.752 93.804 26.488C93.612 26.104 93.288 25.696 92.832 25.264C92.04 24.52 91.656 24.052 91.68 23.86C91.704 23.716 91.692 23.644 91.644 23.644C91.548 23.644 91.488 23.584 91.464 23.464C91.464 23.344 91.488 23.248 91.536 23.176ZM89.808 14.608C90.264 14.512 90.768 14.536 91.32 14.68C91.656 14.752 91.824 14.848 91.824 14.968C91.824 15.088 91.872 15.1 91.968 15.004C91.992 14.932 92.016 14.908 92.04 14.932C92.04 14.956 92.028 15.004 92.004 15.076C92.004 15.244 92.112 15.376 92.328 15.472C92.568 15.544 92.712 15.616 92.76 15.688C92.808 15.76 92.928 15.856 93.12 15.976C93.312 16.072 93.408 16.168 93.408 16.264C93.408 16.36 93.468 16.48 93.588 16.624C93.732 16.768 93.792 16.924 93.768 17.092C93.744 17.188 93.672 17.38 93.552 17.668C93.432 17.932 93.312 18.184 93.192 18.424C93.096 18.64 93.024 18.724 92.976 18.676C92.928 18.628 92.808 18.772 92.616 19.108C92.592 19.18 92.544 19.288 92.472 19.432C92.304 19.792 92.1 20.128 91.86 20.44C91.548 20.896 91.488 21.124 91.68 21.124C91.776 21.076 91.848 21.088 91.896 21.16C91.944 21.232 91.92 21.268 91.824 21.268C91.752 21.268 91.728 21.316 91.752 21.412C91.776 21.484 91.74 21.544 91.644 21.592C91.572 21.616 91.428 21.676 91.212 21.772C90.732 21.868 90.432 21.964 90.312 22.06C90.216 22.132 90.144 22.264 90.096 22.456C90.024 22.888 90.108 23.068 90.348 22.996C90.516 22.948 90.636 22.984 90.708 23.104C90.804 23.224 90.792 23.356 90.672 23.5C90.624 23.596 90.54 24.28 90.42 25.552C90.324 26.8 90.288 27.58 90.312 27.892C90.36 28.132 90.324 28.276 90.204 28.324C90.108 28.372 90.06 28.42 90.06 28.468C90.06 28.54 90.096 28.552 90.168 28.504C90.24 28.48 90.264 28.936 90.24 29.872C90.216 30.832 90.168 31.312 90.096 31.312C90.024 31.312 89.94 31.504 89.844 31.888C89.772 32.176 89.712 32.356 89.664 32.428C89.616 32.5 89.52 32.548 89.376 32.572C89.256 32.596 89.172 32.632 89.124 32.68C89.076 32.728 89.028 32.872 88.98 33.112C88.884 33.832 88.716 34.216 88.476 34.264C88.332 34.288 88.104 34.072 87.792 33.616C87.48 33.184 87.324 32.92 87.324 32.824C87.324 32.728 87.276 32.644 87.18 32.572C86.988 32.428 86.82 31.972 86.676 31.204C86.628 31.036 86.532 30.868 86.388 30.7C86.268 30.532 86.208 30.4 86.208 30.304C86.208 30.232 86.124 30.1 85.956 29.908L85.74 29.62H86.424L87.072 29.584V28.9L87.144 25.768C87.144 24.112 87.12 23.212 87.072 23.068C87 22.972 86.916 22.984 86.82 23.104C86.82 23.176 86.808 23.236 86.784 23.284C86.664 23.524 86.604 23.74 86.604 23.932C86.604 24.1 86.58 24.208 86.532 24.256C86.508 24.28 86.412 24.292 86.244 24.292C86.076 24.268 85.98 24.268 85.956 24.292C85.932 24.292 85.932 24.34 85.956 24.436C85.98 24.628 85.944 24.712 85.848 24.688C85.728 24.688 85.572 24.58 85.38 24.364C85.212 24.148 85.116 24.052 85.092 24.076C85.092 24.1 85.044 24.1 84.948 24.076C84.876 24.028 84.804 23.968 84.732 23.896C84.66 23.8 84.624 23.74 84.624 23.716C84.624 23.596 84.576 23.524 84.48 23.5C84.312 23.452 84.096 23.044 83.832 22.276C83.664 21.796 83.628 21.424 83.724 21.16C83.772 21.04 83.76 20.716 83.688 20.188L83.508 19.108C83.34 17.98 83.076 17.344 82.716 17.2C82.332 17.056 82.188 16.864 82.284 16.624C82.308 16.528 82.452 16.468 82.716 16.444C83.004 16.396 83.28 16.384 83.544 16.408C83.76 16.456 84.084 16.408 84.516 16.264L85.596 15.832C87.132 15.232 88.536 14.824 89.808 14.608ZM90.096 17.2C90.12 17.08 90.12 17.02 90.096 17.02C90.096 16.996 90.024 16.984 89.88 16.984C89.688 16.984 89.34 17.068 88.836 17.236C88.092 17.524 87.348 17.752 86.604 17.92C86.34 18.04 86.22 18.148 86.244 18.244C86.412 18.316 86.508 18.76 86.532 19.576C86.556 19.864 86.592 20.032 86.64 20.08C86.688 20.128 87.036 20.032 87.684 19.792C88.332 19.552 88.752 19.384 88.944 19.288C89.04 19.192 89.232 18.904 89.52 18.424C89.832 17.92 90.024 17.512 90.096 17.2ZM89.232 0.315998C90.528 0.099998 91.584 0.135998 92.4 0.423999C93.264 0.735999 93.756 1.06 93.876 1.396C93.924 1.516 94.032 1.636 94.2 1.756C94.368 1.876 94.452 1.984 94.452 2.08C94.452 2.176 94.5 2.272 94.596 2.368C94.716 2.44 94.776 2.512 94.776 2.584C94.776 2.632 94.56 2.86 94.128 3.268C93.696 3.652 93.444 3.988 93.372 4.276C93.324 4.564 93.24 4.78 93.12 4.924C93.024 5.044 92.976 5.152 92.976 5.248C92.976 5.344 92.868 5.608 92.652 6.04C92.46 6.448 92.364 6.7 92.364 6.796C92.364 6.892 92.304 6.988 92.184 7.084C92.088 7.156 92.052 7.216 92.076 7.264C92.1 7.288 92.028 7.468 91.86 7.804C91.716 8.14 91.644 8.344 91.644 8.416C91.644 8.488 91.512 8.692 91.248 9.028C90.984 9.364 90.756 9.544 90.564 9.568C90.372 9.568 90.228 9.58 90.132 9.604C90.06 9.628 90 9.748 89.952 9.964C89.928 10.18 89.892 10.288 89.844 10.288C89.82 10.288 89.724 10.192 89.556 10C89.412 9.808 89.328 9.652 89.304 9.532C89.28 9.46 89.232 9.424 89.16 9.424C89.088 9.424 88.92 9.472 88.656 9.568C88.224 9.712 87.972 9.784 87.9 9.784C87.708 9.784 87.696 9.892 87.864 10.108C87.888 10.156 87.924 10.192 87.972 10.216C88.116 10.312 88.164 10.408 88.116 10.504C88.092 10.6 88.164 10.732 88.332 10.9C88.524 11.068 88.668 11.26 88.764 11.476C88.812 11.596 88.872 11.668 88.944 11.692C89.016 11.716 89.16 11.716 89.376 11.692C90.552 11.548 91.344 11.428 91.752 11.332C91.968 11.26 92.328 11.2 92.832 11.152C93.336 11.104 93.66 11.08 93.804 11.08C96.084 10.744 97.44 10.78 97.872 11.188C97.92 11.26 97.932 11.332 97.908 11.404C97.884 11.476 97.932 11.572 98.052 11.692C98.196 11.812 98.328 11.872 98.448 11.872C98.568 11.872 98.628 11.908 98.628 11.98C98.628 12.028 98.688 12.052 98.808 12.052C98.952 12.052 99.024 12.088 99.024 12.16C99.024 12.232 99.108 12.292 99.276 12.34C99.468 12.388 99.564 12.52 99.564 12.736C99.564 12.928 99.648 13.06 99.816 13.132C100.08 13.276 100.14 13.372 99.996 13.42C99.9 13.42 99.852 13.48 99.852 13.6C99.852 13.72 99.744 13.744 99.528 13.672C98.88 13.6 97.92 13.564 96.648 13.564C95.4 13.54 94.392 13.564 93.624 13.636C92.568 13.756 91.608 13.852 90.744 13.924C90.12 14.02 89.316 14.152 88.332 14.32L86.316 14.68C85.284 14.872 84.612 15.052 84.3 15.22C84.18 15.268 83.376 15.508 81.888 15.94C80.4 16.372 79.62 16.612 79.548 16.66C79.476 16.708 79.344 16.768 79.152 16.84C78.6 17.008 77.964 17.248 77.244 17.56C76.668 17.824 76.08 17.692 75.48 17.164L74.976 16.732C74.88 16.636 74.76 16.552 74.616 16.48C74.472 16.384 74.304 16.216 74.112 15.976C73.92 15.736 73.872 15.556 73.968 15.436C74.064 15.292 74.268 15.232 74.58 15.256C74.916 15.304 75.516 15.22 76.38 15.004C77.268 14.788 79.104 14.26 81.888 13.42C83.112 13.06 84.288 12.748 85.416 12.484C85.656 12.436 85.8 12.388 85.848 12.34C85.896 12.268 85.872 12.148 85.776 11.98C85.704 11.884 85.644 11.656 85.596 11.296C85.524 10.984 85.44 10.828 85.344 10.828C85.272 10.828 84.948 10.936 84.372 11.152L83.58 11.44L83.292 11.224C83.1 11.104 82.944 11.044 82.824 11.044C82.704 11.044 82.644 10.96 82.644 10.792C82.668 10.624 82.596 10.492 82.428 10.396C82.26 10.276 82.116 10.084 81.996 9.82C81.876 9.532 81.852 9.328 81.924 9.208C81.996 9.064 81.972 8.956 81.852 8.884C81.756 8.788 81.708 8.692 81.708 8.596C81.708 8.476 81.672 8.404 81.6 8.38C81.552 8.332 81.528 8.044 81.528 7.516C81.528 6.436 81.444 5.764 81.276 5.5C81.204 5.356 81.168 5.188 81.168 4.996C81.168 4.708 81.12 4.384 81.024 4.024C80.952 3.664 80.88 3.484 80.808 3.484C80.736 3.484 80.652 3.364 80.556 3.124C80.484 2.884 80.328 2.716 80.088 2.62C79.656 2.476 79.644 2.284 80.052 2.044C80.244 1.9 80.628 1.864 81.204 1.936C81.78 2.008 82.092 2.068 82.14 2.116C82.236 2.212 82.38 2.236 82.572 2.188C82.788 2.14 83.28 1.996 84.048 1.756C86.472 0.963999 88.2 0.483999 89.232 0.315998ZM90.636 2.188C90.612 2.068 90.504 2.044 90.312 2.116C90.12 2.164 89.436 2.38 88.26 2.764C86.34 3.436 85.26 3.808 85.02 3.88C84.876 3.904 84.636 3.964 84.3 4.06C84.012 4.156 83.856 4.252 83.832 4.348C83.808 4.42 83.82 4.66 83.868 5.068C83.868 5.116 83.904 5.14 83.976 5.14C84.072 5.14 84.432 5.02 85.056 4.78C85.704 4.54 86.076 4.384 86.172 4.312C86.292 4.216 86.748 4.06 87.54 3.844C88.356 3.604 88.896 3.484 89.16 3.484C89.256 3.484 89.328 3.508 89.376 3.556C89.424 3.58 89.436 3.64 89.412 3.736C89.388 3.832 89.4 3.904 89.448 3.952C89.496 3.976 89.592 4 89.736 4.024L90.06 4.06L90.384 3.196C90.6 2.596 90.684 2.26 90.636 2.188ZM89.376 5.68C89.424 5.56 89.388 5.512 89.268 5.536C89.124 5.56 88.656 5.74 87.864 6.076C87 6.46 86.544 6.652 86.496 6.652C86.448 6.652 86.052 6.82 85.308 7.156L84.228 7.696V8.092C84.228 8.38 84.252 8.524 84.3 8.524C84.516 8.524 84.852 8.392 85.308 8.128C85.452 8.032 85.716 7.936 86.1 7.84C86.508 7.744 86.784 7.66 86.928 7.588C87.072 7.492 87.168 7.468 87.216 7.516C87.264 7.54 87.384 7.504 87.576 7.408C87.768 7.312 87.948 7.264 88.116 7.264C88.284 7.264 88.44 7.204 88.584 7.084C88.728 6.964 88.788 6.844 88.764 6.724C88.74 6.58 88.8 6.484 88.944 6.436C89.112 6.364 89.22 6.256 89.268 6.112L89.376 5.68ZM121.776 24.22C122.136 23.716 122.34 23.464 122.388 23.464C122.436 23.464 122.424 23.548 122.352 23.716C122.232 23.86 122.112 24.124 121.992 24.508C121.896 24.868 121.86 25.072 121.884 25.12C121.908 25.144 121.884 25.264 121.812 25.48C121.764 25.696 121.728 25.864 121.704 25.984C121.704 26.08 121.596 26.332 121.38 26.74C121.188 27.148 121.116 27.364 121.164 27.388C121.188 27.388 121.212 27.376 121.236 27.352C121.26 27.304 121.296 27.244 121.344 27.172C121.416 27.076 121.488 26.968 121.56 26.848C121.752 26.488 121.872 26.296 121.92 26.272C122.016 26.224 121.944 26.488 121.704 27.064C121.44 27.664 121.308 28.18 121.308 28.612C121.332 29.044 121.308 29.392 121.236 29.656C121.188 29.944 121.164 30.268 121.164 30.628C121.164 31.012 121.128 31.216 121.056 31.24C120.984 31.264 120.828 31.12 120.588 30.808C120.372 30.52 120.228 30.376 120.156 30.376C120.084 30.376 119.844 30.16 119.436 29.728C119.028 29.32 118.716 29.092 118.5 29.044C118.356 29.02 118.272 28.984 118.248 28.936C118.224 28.912 118.224 28.816 118.248 28.648C118.344 28.36 118.368 27.976 118.32 27.496C118.272 27.016 118.188 26.668 118.068 26.452C117.948 26.188 117.888 25.996 117.888 25.876C117.888 25.732 117.852 25.66 117.78 25.66C117.732 25.636 117.66 25.444 117.564 25.084C117.468 24.7 117.432 24.484 117.456 24.436C117.48 24.388 117.492 24.328 117.492 24.256C117.492 24.064 117.72 24.016 118.176 24.112C118.32 24.136 118.584 24.328 118.968 24.688C119.352 25.048 119.64 25.372 119.832 25.66C120.024 25.924 120.156 26.056 120.228 26.056C120.324 26.056 120.504 25.876 120.768 25.516L121.776 24.22ZM109.788 23.14C109.884 23.02 110.196 23.056 110.724 23.248C111.084 23.392 111.312 23.464 111.408 23.464C111.648 23.464 111.936 23.74 112.272 24.292C112.608 24.844 112.86 25.42 113.028 26.02C113.148 26.404 113.22 26.62 113.244 26.668C113.268 26.716 113.436 26.596 113.748 26.308C114.084 26.02 114.264 25.876 114.288 25.876C114.312 25.876 114.312 25.936 114.288 26.056C114.264 26.152 114.216 26.272 114.144 26.416C114.072 26.56 114 26.692 113.928 26.812C113.856 27.004 113.856 27.1 113.928 27.1C114.144 27.1 114.168 27.244 114 27.532C113.952 27.58 113.904 27.616 113.856 27.64C113.664 27.808 113.628 27.916 113.748 27.964C113.772 27.988 113.808 27.988 113.856 27.964C113.952 27.94 113.976 27.988 113.928 28.108C113.904 28.132 113.868 28.216 113.82 28.36C113.556 28.84 113.544 29.08 113.784 29.08C113.88 29.08 113.832 29.2 113.64 29.44C113.448 29.68 113.244 30.064 113.028 30.592L112.488 31.708C112.392 31.924 112.296 32.032 112.2 32.032C112.128 32.032 111.972 31.876 111.732 31.564C111.492 31.252 111.336 31.096 111.264 31.096C111.12 31.096 110.964 30.928 110.796 30.592C110.724 30.448 110.556 30.316 110.292 30.196C110.052 30.1 109.932 30.004 109.932 29.908C109.932 29.86 109.968 29.836 110.04 29.836C110.112 29.836 110.148 29.776 110.148 29.656C110.148 29.56 110.112 29.512 110.04 29.512C109.968 29.512 109.944 29.44 109.968 29.296C110.016 29.152 110.004 29.08 109.932 29.08C109.884 29.08 109.86 29.008 109.86 28.864C109.86 28.72 109.884 28.612 109.932 28.54C110.004 28.468 110.052 28.3 110.076 28.036C110.1 27.796 110.136 27.652 110.184 27.604C110.376 27.292 110.484 26.728 110.508 25.912C110.508 25.216 110.352 24.628 110.04 24.148C109.92 23.956 109.86 23.836 109.86 23.788C109.86 23.74 109.86 23.704 109.86 23.68C109.74 23.416 109.716 23.236 109.788 23.14ZM129.912 22.384C130.152 22.264 130.644 22.288 131.388 22.456C132.156 22.624 132.828 22.852 133.404 23.14C134.004 23.404 134.352 23.536 134.448 23.536C134.544 23.536 134.688 23.668 134.88 23.932C135.072 24.196 135.3 24.448 135.564 24.688C136.14 25.24 136.344 25.828 136.176 26.452C136.104 26.692 136.092 26.86 136.14 26.956C136.188 27.028 136.164 27.04 136.068 26.992C135.972 26.968 135.912 26.968 135.888 26.992C135.888 27.016 135.9 27.076 135.924 27.172C135.972 27.364 136.044 27.568 136.14 27.784C136.284 28.024 136.272 28.36 136.104 28.792C136.08 28.888 136.068 29.032 136.068 29.224C136.02 29.392 135.96 29.476 135.888 29.476C135.816 29.5 135.72 29.428 135.6 29.26C135.48 29.044 135.18 28.744 134.7 28.36C134.22 28 133.812 27.664 133.476 27.352C133.14 27.04 132.96 26.884 132.936 26.884C132.816 26.884 132.72 26.596 132.648 26.02C132.6 25.396 132.204 24.82 131.46 24.292C131.148 24.1 130.932 23.956 130.812 23.86C130.716 23.74 130.62 23.68 130.524 23.68C130.452 23.68 130.44 23.644 130.488 23.572C130.536 23.5 130.488 23.428 130.344 23.356C130.224 23.26 130.044 23.176 129.804 23.104L129.336 22.924L129.804 22.96C130.068 22.984 130.224 22.948 130.272 22.852C130.272 22.78 130.188 22.72 130.02 22.672C129.708 22.552 129.672 22.456 129.912 22.384ZM124.584 22.06C124.752 21.868 124.872 21.796 124.944 21.844C125.016 21.892 125.076 21.916 125.124 21.916C125.196 21.916 125.448 22.204 125.88 22.78C126.336 23.356 126.636 23.752 126.78 23.968C126.924 24.256 127.02 24.4 127.068 24.4C127.116 24.4 127.224 24.268 127.392 24.004C127.536 23.788 127.632 23.668 127.68 23.644L127.644 23.86C127.428 24.412 127.404 24.688 127.572 24.688C127.668 24.688 127.704 24.736 127.68 24.832C127.656 24.928 127.692 25.18 127.788 25.588L127.86 26.128L128.112 25.732C128.16 25.66 128.208 25.6 128.256 25.552C128.304 25.48 128.34 25.432 128.364 25.408C128.388 25.384 128.412 25.372 128.436 25.372C128.46 25.396 128.424 25.492 128.328 25.66C128.256 25.756 128.196 25.912 128.148 26.128C128.1 26.344 128.064 26.524 128.04 26.668C128.016 26.788 128.04 26.86 128.112 26.884C128.184 26.884 128.22 27.112 128.22 27.568C128.244 28.024 128.22 28.48 128.148 28.936C128.028 29.536 127.944 29.848 127.896 29.872C127.872 29.92 127.74 29.788 127.5 29.476C127.26 29.164 127.104 29.008 127.032 29.008C126.936 29.008 126.744 28.864 126.456 28.576C126.168 28.312 126.024 28.144 126.024 28.072C126.024 27.976 125.928 27.88 125.736 27.784C125.568 27.664 125.4 27.592 125.232 27.568C124.968 27.496 124.836 27.388 124.836 27.244C124.836 27.1 124.872 26.968 124.944 26.848C125.112 26.608 124.992 25.588 124.584 23.788C124.44 23.236 124.368 22.852 124.368 22.636C124.368 22.42 124.44 22.228 124.584 22.06ZM119.58 2.44C119.772 2.32 120.276 2.44 121.092 2.8C121.908 3.136 122.46 3.46 122.748 3.772C123.012 4.036 123.144 4.204 123.144 4.276C123.144 4.324 123.204 4.456 123.324 4.672C123.468 4.864 123.564 5.428 123.612 6.364C123.66 7.3 123.696 7.768 123.72 7.768C123.768 7.768 123.972 7.72 124.332 7.624C124.716 7.504 124.908 7.372 124.908 7.228C124.908 7.084 124.992 7.012 125.16 7.012C125.28 7.012 125.352 6.988 125.376 6.94C125.328 6.868 125.316 6.784 125.34 6.688C125.388 6.592 125.544 6.616 125.808 6.76C126.072 6.88 126.252 6.94 126.348 6.94C126.468 6.94 126.6 6.988 126.744 7.084C126.888 7.18 127.056 7.228 127.248 7.228C127.44 7.228 127.548 7.288 127.572 7.408C127.596 7.504 127.728 7.576 127.968 7.624C128.232 7.672 128.388 7.78 128.436 7.948C128.508 8.116 128.58 8.212 128.652 8.236C128.748 8.26 128.736 8.344 128.616 8.488C128.52 8.536 128.46 8.584 128.436 8.632C128.436 8.656 128.496 8.704 128.616 8.776C128.712 8.848 128.7 8.92 128.58 8.992C128.484 9.04 128.496 9.136 128.616 9.28C128.76 9.4 128.868 9.46 128.94 9.46C129.036 9.46 129.108 9.508 129.156 9.604C129.204 9.7 129.288 9.772 129.408 9.82C129.528 9.868 129.588 9.916 129.588 9.964C129.588 10.012 129.408 10.12 129.048 10.288C128.712 10.432 128.484 10.504 128.364 10.504C128.196 10.504 127.848 10.6 127.32 10.792C126.816 10.96 126.396 11.14 126.06 11.332C125.676 11.524 125.424 11.596 125.304 11.548C125.208 11.476 125.064 11.464 124.872 11.512C124.68 11.56 124.404 11.488 124.044 11.296L123.54 11.008L123.468 11.26C123.42 11.428 123.396 11.524 123.396 11.548C123.276 12.124 123.204 12.484 123.18 12.628C123.132 12.7 123.168 12.748 123.288 12.772C123.456 12.796 123.672 12.772 123.936 12.7C124.128 12.604 124.44 12.544 124.872 12.52C125.448 12.496 125.964 12.604 126.42 12.844C126.9 13.084 127.26 13.396 127.5 13.78C127.596 13.996 127.632 14.14 127.608 14.212C127.608 14.284 127.596 14.512 127.572 14.896C127.524 15.544 127.32 16.588 126.96 18.028C126.84 18.388 126.804 18.7 126.852 18.964L126.996 19.18C126.996 19.108 127.056 19.108 127.176 19.18C127.536 19.42 127.536 19.6 127.176 19.72C127.032 19.792 126.96 19.852 126.96 19.9C127.032 19.948 127.104 20.056 127.176 20.224C127.248 20.392 127.272 20.488 127.248 20.512C127.176 20.536 127.128 20.512 127.104 20.44C127.08 20.368 127.032 20.38 126.96 20.476C126.84 20.596 126.792 20.668 126.816 20.692C126.84 20.716 126.96 20.764 127.176 20.836C127.464 20.932 127.668 21.052 127.788 21.196C127.884 21.292 127.848 21.34 127.68 21.34C127.584 21.34 127.38 21.34 127.068 21.34C126.468 21.34 126 21.376 125.664 21.448C125.328 21.52 124.98 21.58 124.62 21.628C123.876 21.7 123.096 21.856 122.28 22.096C121.752 22.264 121.404 22.36 121.236 22.384C121.068 22.408 120.852 22.456 120.588 22.528C120.348 22.6 120.024 22.636 119.616 22.636C119.208 22.636 118.956 22.684 118.86 22.78C118.788 22.852 118.74 23.08 118.716 23.464L118.68 23.932C118.632 23.812 118.56 23.752 118.464 23.752C118.368 23.752 118.296 23.704 118.248 23.608C118.224 23.512 118.164 23.464 118.068 23.464C117.972 23.464 117.84 23.38 117.672 23.212C117.504 23.02 117.372 22.924 117.276 22.924C117.204 22.924 117.144 22.84 117.096 22.672C117.072 22.504 116.976 22.372 116.808 22.276C116.64 22.156 116.556 22.048 116.556 21.952C116.556 21.832 116.496 21.724 116.376 21.628C116.28 21.508 116.22 20.8 116.196 19.504C116.148 18.088 116.028 17.032 115.836 16.336C115.644 15.616 115.32 15.064 114.864 14.68C114.672 14.416 114.612 14.284 114.684 14.284C114.876 14.284 114.972 14.248 114.972 14.176C114.972 14.104 114.924 14.068 114.828 14.068C114.708 14.044 114.612 13.996 114.54 13.924C114.468 13.852 114.444 13.78 114.468 13.708C114.54 13.588 114.732 13.528 115.044 13.528C115.38 13.528 115.692 13.6 115.98 13.744C116.244 13.864 116.412 13.924 116.484 13.924C116.556 13.924 116.712 14.008 116.952 14.176C117.408 14.488 117.948 14.476 118.572 14.14C119.292 13.804 119.844 13.636 120.228 13.636C120.324 13.636 120.408 13.588 120.48 13.492C120.576 13.396 120.528 13.24 120.336 13.024C120.168 12.88 120.048 12.712 119.976 12.52C119.904 12.304 119.904 12.184 119.976 12.16C120.048 12.136 120.096 11.812 120.12 11.188C120.168 10.564 120.204 10.228 120.228 10.18C120.252 10.108 120.288 9.784 120.336 9.208C120.384 8.632 120.42 8.32 120.444 8.272C120.492 8.224 120.468 8.128 120.372 7.984C120.3 7.84 120.264 7.456 120.264 6.832C120.264 5.056 120.156 4.048 119.94 3.808C119.652 3.448 119.52 3.16 119.544 2.944C119.616 2.968 119.652 2.944 119.652 2.872C119.652 2.824 119.616 2.752 119.544 2.656C119.472 2.56 119.484 2.488 119.58 2.44ZM124.404 15.724C124.356 15.58 124.308 15.508 124.26 15.508C123.876 15.532 123.06 15.736 121.812 16.12C121.044 16.384 120.276 16.516 119.508 16.516C118.764 16.564 118.392 16.624 118.392 16.696C118.416 16.84 118.476 17.284 118.572 18.028C118.692 18.748 118.764 19.168 118.788 19.288C118.836 19.432 118.944 19.492 119.112 19.468C119.304 19.444 119.988 19.3 121.164 19.036C121.452 18.988 121.644 18.952 121.74 18.928C121.86 18.904 122.196 18.844 122.748 18.748C123.156 18.7 123.396 18.652 123.468 18.604C123.54 18.532 123.624 18.412 123.72 18.244C123.792 18.028 123.864 17.92 123.936 17.92C124.032 17.92 124.152 17.62 124.296 17.02C124.44 16.396 124.476 15.964 124.404 15.724Z" fill="white"/>
</svg>
