<svg width="183" height="48" viewBox="0 0 183 48" fill="none" xmlns="http://www.w3.org/2000/svg">
<path d="M0.856 34.496C0.792 34.432 0.76 34.4 0.76 34.4C0.76 34.368 0.824 34.368 0.952 34.4C1.08 34.496 1.128 34.576 1.096 34.64C1.064 34.672 0.984 34.624 0.856 34.496ZM28.744 19.664C28.648 19.664 28.68 19.584 28.84 19.424C29 19.232 29.096 19.168 29.128 19.232C29.192 19.264 29.16 19.344 29.032 19.472C28.936 19.6 28.84 19.664 28.744 19.664ZM29.512 19.136C29.416 19.136 29.48 19.04 29.704 18.848C29.96 18.656 30.136 18.56 30.232 18.56C30.328 18.56 30.248 18.656 29.992 18.848C29.768 19.04 29.608 19.136 29.512 19.136ZM29.848 7.136C30.072 7.04 30.408 7.04 30.856 7.136C31.368 7.328 32.072 7.44 32.968 7.472C33.448 7.504 33.752 7.616 33.88 7.808C34.04 8 34.216 8.128 34.408 8.192C34.632 8.256 34.696 8.384 34.6 8.576C34.568 8.672 34.52 8.72 34.456 8.72C34.328 8.72 34.376 8.816 34.6 9.008C34.856 9.2 35.016 9.408 35.08 9.632C35.144 9.856 35.24 9.968 35.368 9.968C35.528 9.968 35.592 10.048 35.56 10.208C35.528 10.72 35.656 11.136 35.944 11.456C36.04 11.552 36.168 11.904 36.328 12.512C36.488 13.12 36.568 13.536 36.568 13.76C36.568 13.952 36.472 14.16 36.28 14.384C36.088 14.576 36.024 14.752 36.088 14.912C36.152 15.04 36.136 15.136 36.04 15.2C35.944 15.232 35.912 15.44 35.944 15.824V16.256C35.912 16.224 35.88 16.176 35.848 16.112C35.752 15.92 35.608 15.792 35.416 15.728C35.224 15.664 35.048 15.568 34.888 15.44C34.728 15.312 34.536 15.232 34.312 15.2C34.12 15.136 33.816 14.832 33.4 14.288C32.984 13.712 32.728 13.424 32.632 13.424C32.568 13.424 32.536 13.36 32.536 13.232C32.536 13.072 32.472 12.992 32.344 12.992C32.216 12.992 32.152 12.944 32.152 12.848C32.152 12.752 32.024 12.656 31.768 12.56C31.544 12.464 31.432 12.304 31.432 12.08C31.432 11.92 31.32 11.712 31.096 11.456C30.872 11.2 30.696 11.072 30.568 11.072C30.504 11.072 30.296 10.816 29.944 10.304C29.592 9.792 29.336 9.536 29.176 9.536C29.016 9.536 28.92 9.408 28.888 9.152C28.856 8.896 28.712 8.752 28.456 8.72C27.976 8.624 27.864 8.352 28.12 7.904C28.344 7.584 28.68 7.408 29.128 7.376C29.48 7.344 29.72 7.264 29.848 7.136ZM19.048 2.144C19.272 1.952 19.432 1.872 19.528 1.904C21 2.352 21.96 2.784 22.408 3.2C22.632 3.392 22.872 3.536 23.128 3.632C23.192 3.632 23.256 3.664 23.32 3.728C23.384 3.76 23.416 3.792 23.416 3.824C23.384 3.92 23.544 4.16 23.896 4.544C24.28 4.896 24.52 5.072 24.616 5.072C24.68 5.072 24.792 5.152 24.952 5.312C25.112 5.44 25.096 5.6 24.904 5.792C24.84 5.888 24.808 5.968 24.808 6.032C24.808 6.064 24.872 6.128 25 6.224C25.128 6.288 25.192 6.336 25.192 6.368C25.192 6.4 25.112 6.48 24.952 6.608C24.76 6.8 24.648 7.488 24.616 8.672C24.616 9.856 24.584 10.496 24.52 10.592C24.488 10.688 24.52 10.752 24.616 10.784C24.744 10.816 24.808 11.296 24.808 12.224V13.616L25.192 13.52C25.48 13.456 25.768 13.536 26.056 13.76C26.376 13.952 26.696 14.048 27.016 14.048C27.336 14.016 27.496 14.048 27.496 14.144C27.496 14.208 27.656 14.288 27.976 14.384C29.928 15.216 30.888 15.904 30.856 16.448C30.856 16.544 30.808 16.64 30.712 16.736C30.584 16.864 30.6 16.976 30.76 17.072C30.888 17.168 30.936 17.264 30.904 17.36C30.872 17.424 30.76 17.456 30.568 17.456C30.408 17.456 30.328 17.52 30.328 17.648C30.328 17.776 30.728 17.824 31.528 17.792C31.624 17.792 31.672 17.84 31.672 17.936C31.672 18 31.544 18.064 31.288 18.128C31.064 18.16 30.888 18.16 30.76 18.128C30.6 18.064 30.36 18.144 30.04 18.368C29.368 18.752 28.888 19.008 28.6 19.136C28.344 19.232 28.216 19.328 28.216 19.424C28.216 19.52 28.04 19.648 27.688 19.808C27.336 19.968 27.112 20.112 27.016 20.24C26.952 20.336 26.856 20.384 26.728 20.384C26.6 20.384 26.488 20.448 26.392 20.576C26.296 20.704 26.376 21.28 26.632 22.304C26.888 23.328 27.032 23.856 27.064 23.888C27.096 23.92 27.24 23.808 27.496 23.552L28.696 22.16C29.272 21.552 29.576 21.184 29.608 21.056C29.64 20.96 29.816 20.752 30.136 20.432C30.488 20.112 30.712 19.952 30.808 19.952C30.904 19.952 30.952 19.92 30.952 19.856C30.952 19.632 31.048 19.616 31.24 19.808C31.272 19.872 31.304 19.952 31.336 20.048C31.464 20.272 31.736 20.496 32.152 20.72L32.968 21.152C33.192 21.312 33.448 21.552 33.736 21.872C34.056 22.192 34.232 22.4 34.264 22.496C34.328 22.688 34.424 22.784 34.552 22.784C34.712 22.784 34.92 23.2 35.176 24.032C35.272 24.384 35.256 24.576 35.128 24.608C35 24.608 34.36 25.2 33.208 26.384C32.088 27.536 31.496 28.112 31.432 28.112C31.368 28.08 31.32 28.08 31.288 28.112C31.256 28.144 31.24 28.208 31.24 28.304C31.24 28.432 31.208 28.496 31.144 28.496C31.08 28.496 30.968 28.624 30.808 28.88C30.648 29.136 30.44 29.424 30.184 29.744C29.768 30.16 29.56 30.496 29.56 30.752C29.56 30.976 29.784 31.568 30.232 32.528C30.808 33.68 31.176 34.48 31.336 34.928C31.528 35.376 31.656 35.6 31.72 35.6C31.784 35.6 32.216 36.288 33.016 37.664L33.688 38.816L33.976 38.528C34.424 37.92 34.92 36.848 35.464 35.312C35.784 34.352 36.024 33.872 36.184 33.872C36.344 33.84 36.424 33.92 36.424 34.112C36.424 34.304 36.472 34.592 36.568 34.976C36.696 35.328 36.824 35.536 36.952 35.6C37.048 35.632 37.08 35.84 37.048 36.224C37.016 36.608 37.064 36.848 37.192 36.944C37.416 37.168 37.384 37.792 37.096 38.816C36.776 40 36.568 41.28 36.472 42.656C36.408 44.032 36.344 44.784 36.28 44.912C36.216 44.944 36.216 45.024 36.28 45.152C36.28 45.248 36.2 45.296 36.04 45.296C35.976 45.296 35.848 45.296 35.656 45.296C35.176 45.296 34.68 45.12 34.168 44.768C33.656 44.416 33.352 44.24 33.256 44.24C33.128 44.24 32.824 44.128 32.344 43.904C31.896 43.68 31.672 43.552 31.672 43.52C31.672 43.456 31.592 43.424 31.432 43.424C31.304 43.424 31.24 43.328 31.24 43.136C31.24 42.944 31.16 42.768 31 42.608C30.872 42.48 30.76 42.448 30.664 42.512C30.536 42.576 30.456 42.576 30.424 42.512C30.424 42.48 30.44 42.416 30.472 42.32C30.536 42.032 30.312 41.552 29.8 40.88C29.576 40.624 29.368 40.144 29.176 39.44C28.984 38.768 28.808 38.352 28.648 38.192C28.52 38.064 28.44 37.936 28.408 37.808C28.376 37.648 28.296 37.488 28.168 37.328C28.04 37.168 27.72 36.592 27.208 35.6C26.696 34.608 26.392 34.112 26.296 34.112C26.2 34.112 26.024 34.224 25.768 34.448C25.512 34.64 25.352 34.736 25.288 34.736C25.224 34.736 25.096 34.832 24.904 35.024C24.008 35.76 23.192 36.272 22.456 36.56C21.752 36.816 21.272 36.784 21.016 36.464C20.888 36.304 20.824 36.176 20.824 36.08C20.824 35.952 20.728 35.872 20.536 35.84C20.344 35.776 20.248 35.648 20.248 35.456C20.248 35.168 20.008 35.024 19.528 35.024C19.368 35.024 19.288 34.96 19.288 34.832C19.288 34.704 19.24 34.64 19.144 34.64C19.08 34.64 19.032 34.608 19 34.544C19 34.448 19.016 34.352 19.048 34.256C19.08 34.16 19.128 34.064 19.192 33.968C19.352 33.84 19.336 33.68 19.144 33.488C18.888 33.232 18.856 33.024 19.048 32.864C19.144 32.768 19.096 32.624 18.904 32.432L18.568 32.144L18.904 31.808C19.096 31.552 19.336 31.36 19.624 31.232C19.944 31.072 20.104 30.944 20.104 30.848C20.104 30.752 20.168 30.704 20.296 30.704C20.456 30.704 20.568 30.64 20.632 30.512C20.728 30.384 21.128 30.064 21.832 29.552C22.664 28.944 23.32 28.192 23.8 27.296C23.832 27.2 23.8 26.992 23.704 26.672C23.608 26.352 23.448 25.696 23.224 24.704C23.032 23.68 22.904 23.152 22.84 23.12C22.808 23.088 22.472 23.232 21.832 23.552C20.744 24.096 20.104 24.208 19.912 23.888C19.848 23.792 19.688 23.744 19.432 23.744C19.208 23.712 19.08 23.664 19.048 23.6C19.112 23.504 19.064 23.456 18.904 23.456C18.744 23.456 18.568 23.472 18.376 23.504C18.12 23.568 17.976 23.536 17.944 23.408C17.912 23.28 17.816 23.216 17.656 23.216C17.528 23.216 17.464 23.168 17.464 23.072C17.464 22.944 17.384 22.896 17.224 22.928C17.064 22.96 16.84 22.912 16.552 22.784C16.296 22.656 16.12 22.528 16.024 22.4C15.896 22.24 15.768 22.208 15.64 22.304C15.544 22.368 15.416 22.256 15.256 21.968C15.096 21.648 14.952 21.52 14.824 21.584C14.696 21.648 14.568 21.632 14.44 21.536C14.344 21.44 14.216 21.52 14.056 21.776C13.896 22.032 13.816 22.192 13.816 22.256C13.816 22.384 13.704 22.656 13.48 23.072C13.288 23.488 13.16 23.728 13.096 23.792C13.064 23.824 12.968 24 12.808 24.32C12.648 24.64 12.376 25.152 11.992 25.856C11.608 26.528 11.416 26.992 11.416 27.248C11.384 27.664 11.752 28.384 12.52 29.408C13.192 30.336 13.544 31.44 13.576 32.72C13.576 33.072 13.624 33.344 13.72 33.536C13.816 33.696 13.8 34.112 13.672 34.784C13.576 35.456 13.512 35.808 13.48 35.84C13.48 35.84 13.448 35.824 13.384 35.792C13.32 35.728 13.24 35.648 13.144 35.552C13.08 35.456 12.984 35.36 12.856 35.264C12.472 34.848 12.232 34.64 12.136 34.64C12.04 34.64 11.768 34.432 11.32 34.016C10.872 33.6 10.584 33.392 10.456 33.392C10.328 33.392 10.232 33.264 10.168 33.008C10.136 32.816 9.928 32.528 9.544 32.144C9.16 31.76 8.888 31.568 8.728 31.568C8.632 31.568 8.008 32.416 6.856 34.112C6.536 34.56 6.216 34.96 5.896 35.312L5.032 36.32C4.456 37.056 3.848 37.072 3.208 36.368C2.92 36.016 2.728 35.84 2.632 35.84C2.568 35.84 2.312 35.664 1.864 35.312C1.608 35.088 1.496 34.736 1.528 34.256C1.528 33.552 1.352 33.2 1 33.2C0.52 33.2 0.536 32.976 1.048 32.528C1.432 32.176 1.624 31.888 1.624 31.664C1.656 31.44 1.864 31.12 2.248 30.704C2.952 29.936 3.544 29.008 4.024 27.92C4.184 27.632 4.28 27.44 4.312 27.344C4.312 27.344 4.296 27.328 4.264 27.296C4.232 27.264 4.152 27.216 4.024 27.152C3.928 27.088 3.816 27.04 3.688 27.008C2.888 26.688 2.392 26.4 2.2 26.144C2.296 26.144 2.28 26.08 2.152 25.952C2.056 25.824 2.056 25.728 2.152 25.664C2.216 25.664 2.216 25.632 2.152 25.568C2.088 25.536 1.992 25.504 1.864 25.472C1.384 25.376 1.336 25.216 1.72 24.992C1.912 24.864 2.008 24.752 2.008 24.656C2.008 24.528 2.44 24.416 3.304 24.32C4.168 24.224 4.824 24.192 5.272 24.224C5.656 24.288 5.88 24.304 5.944 24.272C6.04 24.24 6.136 24.112 6.232 23.888C6.456 23.472 6.552 23.216 6.52 23.12C6.488 23.024 6.328 22.96 6.04 22.928C4.824 22.896 3.96 22.72 3.448 22.4C3 22.112 2.696 21.968 2.536 21.968C2.408 21.968 2.248 21.872 2.056 21.68C1.768 21.328 1.432 20.992 1.048 20.672C0.76 20.416 0.632 20.224 0.664 20.096C0.728 19.936 0.92 19.792 1.24 19.664C1.56 19.536 1.864 19.456 2.152 19.424C2.472 19.328 2.744 19.232 2.968 19.136C3.16 19.072 3.608 18.768 4.312 18.224C5.016 17.648 5.496 17.248 5.752 17.024C6.008 16.8 6.568 16.368 7.432 15.728C8.328 15.088 8.808 14.72 8.872 14.624C9 14.496 9.256 14.384 9.64 14.288C10.024 14.16 10.344 14.096 10.6 14.096C10.888 14.096 11.192 14.208 11.512 14.432C11.864 14.624 12.152 14.72 12.376 14.72C12.92 14.72 13.656 15.136 14.584 15.968L15.4 16.688L15.352 17.984C15.32 18.848 15.24 19.344 15.112 19.472C14.76 19.792 14.936 19.952 15.64 19.952C16.248 19.952 17.096 19.552 18.184 18.752C18.536 18.464 18.776 18.32 18.904 18.32C19.032 18.32 19.496 17.984 20.296 17.312C20.616 17.056 20.84 16.928 20.968 16.928C21.384 16.928 21.464 16.448 21.208 15.488C21.048 14.816 20.936 14.352 20.872 14.096C20.84 13.808 20.728 13.184 20.536 12.224L20.056 9.968C19.928 9.328 19.8 8.816 19.672 8.432C19.576 8.016 19.512 7.488 19.48 6.848C19.448 6.176 19.352 5.408 19.192 4.544C19.128 4.288 19.08 4.08 19.048 3.92C19.016 3.76 18.984 3.632 18.952 3.536C18.952 3.44 18.92 3.376 18.856 3.344C18.824 3.312 18.792 3.312 18.76 3.344C18.664 3.376 18.616 3.296 18.616 3.104C18.616 2.688 18.76 2.368 19.048 2.144ZM28.36 18.752C28.456 18.752 28.504 18.704 28.504 18.608C28.504 18.512 28.472 18.464 28.408 18.464C28.376 18.464 28.328 18.512 28.264 18.608C28.232 18.704 28.264 18.752 28.36 18.752ZM68.584 39.824C68.488 39.824 68.536 39.744 68.728 39.584C68.92 39.456 69.064 39.392 69.16 39.392C69.256 39.392 69.208 39.456 69.016 39.584C68.824 39.744 68.68 39.824 68.584 39.824ZM69.112 5.168C69.272 4.976 69.544 5.024 69.928 5.312C70.12 5.472 70.504 5.712 71.08 6.032C71.656 6.384 72.04 6.624 72.232 6.752C72.424 6.88 72.776 7.216 73.288 7.76C73.448 7.952 73.576 8.128 73.672 8.288C73.8 8.448 73.896 8.56 73.96 8.624C74.024 8.688 74.024 8.752 73.96 8.816C73.864 8.88 73.752 9.024 73.624 9.248C73.528 9.44 73.512 9.584 73.576 9.68C73.64 9.84 73.64 10.832 73.576 12.656C73.544 14.48 73.464 15.808 73.336 16.64C73.272 17.6 73.368 18.096 73.624 18.128C73.912 17.936 74.632 17.84 75.784 17.84C76.2 17.84 76.408 17.808 76.408 17.744C76.408 17.68 76.488 17.648 76.648 17.648C76.808 17.648 76.888 17.696 76.888 17.792C76.888 17.856 76.952 17.888 77.08 17.888C77.208 17.888 77.336 17.968 77.464 18.128C77.592 18.256 77.816 18.352 78.136 18.416C78.456 18.448 78.616 18.512 78.616 18.608C78.616 18.704 78.648 18.736 78.712 18.704C79 18.544 79.56 18.848 80.392 19.616L81.352 20.576C81.576 20.768 81.656 20.976 81.592 21.2C81.528 21.392 81.624 21.616 81.88 21.872C82.168 22.096 82.36 22.272 82.456 22.4C82.552 22.528 82.728 22.688 82.984 22.88L83.272 23.168L82.84 23.696C82.552 24.016 82.328 24.176 82.168 24.176C82.04 24.176 81.96 24.352 81.928 24.704C81.8 25.12 81.72 25.376 81.688 25.472C81.656 25.568 81.576 25.6 81.448 25.568C81.352 25.504 81.272 25.52 81.208 25.616C81.144 25.712 81.064 25.744 80.968 25.712C80.872 25.648 80.824 25.664 80.824 25.76C80.792 25.92 80.856 26.08 81.016 26.24V26.288C80.888 26.256 80.792 26.336 80.728 26.528C80.664 26.688 80.6 26.864 80.536 27.056C80.056 28.112 79.672 29.248 79.384 30.464C79.288 30.816 79.272 31.088 79.336 31.28C79.432 31.44 79.432 31.52 79.336 31.52C79.272 31.52 79.128 32 78.904 32.96C78.488 34.912 78.184 36.128 77.992 36.608C77.896 36.864 77.832 37.168 77.8 37.52C77.768 37.84 77.688 38.016 77.56 38.048C77.464 38.144 77.448 38.336 77.512 38.624C77.608 38.944 77.72 39.2 77.848 39.392L78.28 39.68L77.752 39.584C77.432 39.552 77.272 39.584 77.272 39.68C77.272 39.808 77.16 39.856 76.936 39.824C76.776 39.76 76.648 39.76 76.552 39.824C76.488 39.888 76.408 40.08 76.312 40.4C76.088 40.848 75.976 41.248 75.976 41.6V42.128L75.064 41.264C74.488 40.656 74.2 40.288 74.2 40.16C74.2 40.032 74.056 39.824 73.768 39.536C73.48 39.248 73.256 39.104 73.096 39.104C73.032 39.104 73.08 39.056 73.24 38.96C73.496 38.8 73.528 38.672 73.336 38.576C73.272 38.576 73.16 38.576 73 38.576L71.8 38.768C71.16 38.8 70.84 38.88 70.84 39.008C70.84 39.168 70.696 39.28 70.408 39.344C70.12 39.408 69.976 39.472 69.976 39.536C69.976 39.632 69.88 39.664 69.688 39.632C69.336 39.632 69.256 39.568 69.448 39.44C69.544 39.376 69.672 39.328 69.832 39.296C70.088 39.264 70.232 39.2 70.264 39.104L70.024 39.008C69.992 38.976 69.96 38.96 69.928 38.96C69.576 38.96 68.824 39.12 67.672 39.44C66.52 39.792 65.896 40.032 65.8 40.16L66.232 40.208C66.648 40.176 66.968 40.096 67.192 39.968C67.512 39.808 67.688 39.776 67.72 39.872C67.72 39.904 67.656 39.968 67.528 40.064C67.336 40.16 67.224 40.208 67.192 40.208C67.16 40.208 67 40.272 66.712 40.4C66.424 40.56 66.104 40.656 65.752 40.688C64.984 40.752 64.52 40.864 64.36 41.024C64.232 41.088 64.056 41.12 63.832 41.12C63.64 41.12 63.448 41.168 63.256 41.264C63.064 41.392 62.936 41.376 62.872 41.216C62.808 41.088 62.664 41.12 62.44 41.312C62.248 41.504 62.056 41.6 61.864 41.6C61.704 41.6 61.544 41.68 61.384 41.84C61.192 42.032 60.904 41.936 60.52 41.552C60.296 41.36 60.12 41.328 59.992 41.456C59.736 41.712 59.608 41.712 59.608 41.456C59.608 41.296 59.448 41.104 59.128 40.88C58.84 40.656 58.648 40.432 58.552 40.208C58.456 39.984 58.328 39.872 58.168 39.872C58.04 39.872 57.96 39.728 57.928 39.44C57.928 39.184 57.832 39.056 57.64 39.056C57.448 39.088 57.224 38.928 56.968 38.576C56.744 38.224 56.568 38.048 56.44 38.048C56.312 38.048 56.248 38 56.248 37.904C56.248 37.808 56.152 37.744 55.96 37.712C55.8 37.648 55.512 37.456 55.096 37.136C54.776 36.88 54.568 36.64 54.472 36.416C54.408 36.16 54.328 35.568 54.232 34.64C54.168 34.256 54.072 33.584 53.944 32.624C53.816 31.632 53.752 30.832 53.752 30.224C53.752 29.584 53.704 29.232 53.608 29.168C53.512 29.104 53.432 28.832 53.368 28.352C53.304 27.84 53.208 27.36 53.08 26.912C52.952 26.432 52.792 25.632 52.6 24.512C52.408 23.392 52.168 22.672 51.88 22.352C50.888 21.136 50.552 20.528 50.872 20.528C50.904 20.528 50.952 20.528 51.016 20.528C51.112 20.56 51.288 20.592 51.544 20.624C51.832 20.656 52.232 20.784 52.744 21.008C53.288 21.232 53.608 21.392 53.704 21.488C53.864 21.648 54.008 21.728 54.136 21.728C54.296 21.728 54.648 21.888 55.192 22.208C55.64 22.496 56.008 22.64 56.296 22.64C56.616 22.64 57.08 22.512 57.688 22.256L58.792 21.776C59.08 21.68 59.384 21.6 59.704 21.536C60.024 21.44 60.28 21.296 60.472 21.104C60.632 20.976 60.696 20.784 60.664 20.528C60.664 20.272 60.6 19.552 60.472 18.368C60.248 16.736 60.04 15.632 59.848 15.056L59.56 14.192L59.848 13.904C60.136 13.68 60.712 13.792 61.576 14.24C61.896 14.432 62.104 14.528 62.2 14.528C62.328 14.528 62.6 14.672 63.016 14.96C63.464 15.216 63.736 15.44 63.832 15.632C63.992 15.824 64.072 16.016 64.072 16.208C64.104 16.688 64.216 17.376 64.408 18.272C64.6 19.136 64.744 19.616 64.84 19.712C64.936 19.776 65.192 19.712 65.608 19.52C66.056 19.296 66.536 19.184 67.048 19.184C67.56 19.152 67.88 19.072 68.008 18.944C68.168 18.816 68.312 18.752 68.44 18.752C68.568 18.752 68.632 17.536 68.632 15.104C68.632 12.64 68.664 10.896 68.728 9.872C68.792 8.816 68.824 7.808 68.824 6.848C68.856 5.856 68.952 5.296 69.112 5.168ZM75.448 22.304C75.48 22.08 75.48 21.952 75.448 21.92C75.448 21.856 75.352 21.824 75.16 21.824C74.872 21.824 74.632 21.872 74.44 21.968C74.248 22.064 74.024 22.112 73.768 22.112C73.512 22.112 73.352 22.176 73.288 22.304C73.256 22.432 73.224 22.72 73.192 23.168C73.096 23.712 73.032 24.128 73 24.416C72.936 24.672 72.952 24.848 73.048 24.944C73.144 25.04 73.384 25.088 73.768 25.088C74.088 25.088 74.376 25.2 74.632 25.424C74.888 25.648 75.064 25.76 75.16 25.76C75.288 25.76 75.4 25.328 75.496 24.464C75.592 23.568 75.592 23.056 75.496 22.928C75.4 22.768 75.384 22.56 75.448 22.304ZM68.2 25.28C68.2 25.184 68.168 24.88 68.104 24.368C68.072 23.856 68.056 23.568 68.056 23.504C67.992 23.504 67.768 23.568 67.384 23.696C67 23.824 66.792 23.904 66.76 23.936C66.696 23.968 66.44 24.08 65.992 24.272C65.64 24.4 65.432 24.512 65.368 24.608C65.304 24.672 65.272 24.864 65.272 25.184C65.24 26.176 65.272 26.704 65.368 26.768C65.4 26.8 65.704 26.72 66.28 26.528C66.856 26.304 67.32 26.16 67.672 26.096C68.12 25.936 68.296 25.664 68.2 25.28ZM81.544 25.376C81.64 25.376 81.688 25.296 81.688 25.136C81.688 24.976 81.672 24.896 81.64 24.896C81.608 24.896 81.56 24.976 81.496 25.136C81.432 25.296 81.448 25.376 81.544 25.376ZM60.952 25.808C60.952 25.776 60.584 25.744 59.848 25.712C59.144 25.68 58.584 25.648 58.168 25.616C57.88 25.584 57.704 25.584 57.64 25.616C57.576 25.616 57.56 25.648 57.592 25.712C57.624 25.904 57.672 26.304 57.736 26.912C57.832 27.488 57.88 27.808 57.88 27.872C57.88 27.904 57.88 27.936 57.88 27.968C57.912 27.968 57.944 27.968 57.976 27.968C58.104 27.968 58.136 28.064 58.072 28.256C58.008 28.416 58.04 28.592 58.168 28.784C58.264 28.944 58.376 29.024 58.504 29.024C58.632 29.024 58.968 28.944 59.512 28.784C60.44 28.56 60.952 28.4 61.048 28.304C61.144 28.176 61.16 27.76 61.096 27.056C61.032 26.256 60.984 25.84 60.952 25.808ZM74.632 29.264C74.664 28.944 74.664 28.752 74.632 28.688C74.632 28.592 74.568 28.544 74.44 28.544C74.248 28.608 73.912 28.72 73.432 28.88C72.984 29.008 72.728 29.136 72.664 29.264C72.504 29.424 72.36 30.176 72.232 31.52C72.2 32.128 72.12 32.752 71.992 33.392C71.896 34 71.864 34.336 71.896 34.4C71.96 34.464 72.12 34.512 72.376 34.544C72.632 34.544 72.76 34.464 72.76 34.304C72.76 34.112 72.808 34.016 72.904 34.016C73 34.016 73.048 34.064 73.048 34.16C73.048 34.256 73.096 34.304 73.192 34.304C73.288 34.304 73.336 34.224 73.336 34.064C73.336 34 73.336 33.968 73.336 33.968C73.368 33.936 73.416 33.92 73.48 33.92C73.512 33.952 73.544 33.936 73.576 33.872C73.608 33.776 73.64 33.664 73.672 33.536C73.736 33.376 73.784 33.232 73.816 33.104C73.912 32.464 74.024 32.048 74.152 31.856C74.312 31.632 74.36 31.392 74.296 31.136C74.264 30.848 74.296 30.576 74.392 30.32C74.52 30.064 74.6 29.712 74.632 29.264ZM59.656 32.384C59.112 31.744 58.792 31.472 58.696 31.568C58.6 31.664 58.616 32.32 58.744 33.536C58.872 34.72 59 35.616 59.128 36.224C59.224 36.48 59.304 36.64 59.368 36.704C59.464 36.736 59.64 36.752 59.896 36.752C60.248 36.688 60.664 36.56 61.144 36.368C61.656 36.144 61.912 35.984 61.912 35.888C61.912 35.792 61.864 35.744 61.768 35.744C61.672 35.744 61.64 35.712 61.672 35.648C61.736 35.552 61.64 35.408 61.384 35.216C61.16 34.992 61.048 34.832 61.048 34.736C61.048 34.64 60.968 34.592 60.808 34.592C60.68 34.592 60.616 34.512 60.616 34.352C60.616 34.192 60.552 34.112 60.424 34.112C60.296 34.112 60.296 34.064 60.424 33.968C60.488 33.872 60.536 33.776 60.568 33.68C60.6 33.584 60.6 33.488 60.568 33.392C60.536 33.296 60.504 33.248 60.472 33.248C60.408 33.248 60.136 32.96 59.656 32.384ZM66.568 32.816C66.568 32.56 66.568 32.336 66.568 32.144C66.6 31.952 66.616 31.808 66.616 31.712C66.616 31.584 66.6 31.52 66.568 31.52C66.024 31.68 65.656 31.856 65.464 32.048C65.336 32.112 65.256 32.64 65.224 33.632C65.192 34.624 65.208 35.152 65.272 35.216C65.56 35.376 65.848 35.168 66.136 34.592C66.392 34.24 66.536 33.648 66.568 32.816ZM110.056 25.472C110.248 25.28 110.376 25.184 110.44 25.184C110.504 25.184 110.744 25.232 111.16 25.328C112.216 25.52 112.952 25.76 113.368 26.048C113.816 26.304 113.992 26.592 113.896 26.912C113.8 27.168 113.816 27.376 113.944 27.536C114.136 27.696 114.056 28.24 113.704 29.168C113.384 30.064 113.032 30.688 112.648 31.04C112.552 31.2 112.296 31.68 111.88 32.48C111.848 32.512 112.024 32.64 112.408 32.864C112.792 33.056 113.064 33.152 113.224 33.152C113.32 33.152 113.352 33.184 113.32 33.248C113.288 33.312 113.32 33.376 113.416 33.44C113.544 33.504 113.56 33.568 113.464 33.632C113.112 33.792 113.128 33.92 113.512 34.016C113.672 34.112 113.736 34.304 113.704 34.592C113.672 34.816 113.672 34.96 113.704 35.024C113.736 35.056 113.832 35.088 113.992 35.12C114.184 35.216 114.312 35.296 114.376 35.36C114.376 35.392 114.36 35.424 114.328 35.456C114.328 35.488 114.296 35.504 114.232 35.504C114.136 35.504 114.088 35.568 114.088 35.696C114.088 35.824 114.216 35.888 114.472 35.888C114.888 35.888 114.84 35.968 114.328 36.128C114.008 36.192 113.496 36.32 112.792 36.512C111.576 36.768 110.536 37.008 109.672 37.232C108.84 37.456 107.96 37.68 107.032 37.904C106.456 38.032 106.072 38.128 105.88 38.192C105.72 38.288 105.64 38.384 105.64 38.48C105.64 38.672 105.704 39.2 105.832 40.064C105.96 40.928 105.944 41.408 105.784 41.504C105.656 41.632 105.592 41.744 105.592 41.84C105.592 41.968 105.544 42.032 105.448 42.032C105.352 42.032 105.272 42 105.208 41.936C105.176 41.808 105.096 41.776 104.968 41.84C104.84 41.904 104.776 41.888 104.776 41.792C104.776 41.696 104.696 41.648 104.536 41.648C104.408 41.616 104.232 41.488 104.008 41.264C103.816 41.072 103.688 40.864 103.624 40.64C103.496 40.352 103.368 40.224 103.24 40.256C103.112 40.32 102.904 40.208 102.616 39.92C102.328 39.664 102.12 39.536 101.992 39.536C101.896 39.536 101.816 39.392 101.752 39.104C101.72 38.848 101.624 38.112 101.464 36.896C101.24 34.912 101.048 33.6 100.888 32.96C100.76 32.288 100.456 31.344 99.976 30.128C99.4 28.592 98.776 27.616 98.104 27.2C97.848 27.04 97.672 26.848 97.576 26.624C97.48 26.368 97.528 26.192 97.72 26.096C97.848 25.968 97.864 25.856 97.768 25.76C97.576 25.6 97.624 25.52 97.912 25.52C98.104 25.52 98.52 25.552 99.16 25.616C100.12 25.776 100.808 26 101.224 26.288C101.928 26.736 102.504 27.296 102.952 27.968L103.192 28.304L104.776 27.584C107.496 26.368 109.064 25.76 109.48 25.76C109.64 25.76 109.832 25.664 110.056 25.472ZM109.144 30.32C109.208 30.064 109.176 29.936 109.048 29.936C108.92 29.936 108.584 30.064 108.04 30.32C107.528 30.608 106.808 30.88 105.88 31.136C104.984 31.36 104.504 31.52 104.44 31.616C104.376 31.648 104.424 32.112 104.584 33.008C104.744 33.904 104.856 34.384 104.92 34.448C104.984 34.544 105.528 34.384 106.552 33.968L108.04 33.44L108.52 32.096C108.904 31.168 109.112 30.576 109.144 30.32ZM124.264 20.816C124.52 20.72 124.888 20.784 125.368 21.008C125.72 21.2 126.104 21.312 126.52 21.344C127 21.408 127.352 21.568 127.576 21.824C127.8 22.08 128.04 22.576 128.296 23.312C128.552 24.08 128.728 24.848 128.824 25.616C128.92 26.352 128.888 26.784 128.728 26.912C128.664 26.944 128.616 27.12 128.584 27.44C128.584 27.76 128.536 28.016 128.44 28.208C128.376 28.368 128.264 28.72 128.104 29.264C127.944 29.776 127.704 30.208 127.384 30.56C127.064 30.912 126.904 31.152 126.904 31.28C126.904 31.408 126.856 31.456 126.76 31.424C126.664 31.36 126.616 31.392 126.616 31.52C126.616 31.648 126.728 31.76 126.952 31.856C127.144 31.952 127.688 32.096 128.584 32.288C129.48 32.48 130.104 32.592 130.456 32.624C130.936 32.688 131.224 32.864 131.32 33.152C131.384 33.28 131.352 33.376 131.224 33.44C131.096 33.472 131.144 33.584 131.368 33.776C131.592 33.968 131.656 34.064 131.56 34.064C131.272 34.064 131.256 34.24 131.512 34.592C131.608 34.688 131.752 34.768 131.944 34.832C132.232 34.96 132.392 35.12 132.424 35.312C132.488 35.472 132.392 35.6 132.136 35.696C131.976 35.792 131.896 35.936 131.896 36.128C131.896 36.224 131.864 36.288 131.8 36.32C131.736 36.352 131.592 36.336 131.368 36.272L130.888 36.368C130.984 36.528 130.744 36.576 130.168 36.512C129.944 36.48 129.672 36.448 129.352 36.416C127.176 36 125.096 36.016 123.112 36.464C122.152 36.688 121.368 36.832 120.76 36.896C120.312 36.96 120.04 37.024 119.944 37.088C119.848 37.152 119.8 37.296 119.8 37.52C119.704 37.808 119.672 38.32 119.704 39.056C119.736 39.824 119.704 40.208 119.608 40.208C119.544 40.208 119.528 40.304 119.56 40.496C119.592 40.72 119.336 40.544 118.792 39.968C117.992 39.168 117.592 38.56 117.592 38.144C117.592 38.048 117.496 37.952 117.304 37.856C117.112 37.728 117.016 37.584 117.016 37.424C117.016 37.264 116.936 37.184 116.776 37.184C116.648 37.184 116.584 37.136 116.584 37.04C116.584 36.912 116.568 36.592 116.536 36.08C116.536 35.568 116.456 35.248 116.296 35.12C116.136 34.992 116.072 34.736 116.104 34.352C116.104 34.064 116.088 33.92 116.056 33.92C115.928 33.952 115.864 33.952 115.864 33.92C115.864 33.792 115.976 33.648 116.2 33.488C116.36 33.36 116.44 33.232 116.44 33.104C116.472 32.944 116.472 32.464 116.44 31.664C116.344 30.544 116.248 29.68 116.152 29.072C116.088 28.464 116.008 27.968 115.912 27.584C115.88 27.072 115.656 26.464 115.24 25.76C115.144 25.536 115.128 25.408 115.192 25.376C115.32 25.28 115.368 25.152 115.336 24.992C115.336 24.8 115.272 24.608 115.144 24.416C115.016 24.192 114.888 24.08 114.76 24.08C114.664 24.08 114.584 24.048 114.52 23.984C114.488 23.92 114.488 23.84 114.52 23.744C114.584 23.616 114.664 23.488 114.76 23.36C114.952 23.2 115.048 23.04 115.048 22.88C115.048 22.72 115.128 22.672 115.288 22.736C115.448 22.8 115.768 22.896 116.248 23.024C116.76 23.152 117.096 23.264 117.256 23.36C117.448 23.456 118.536 23.152 120.52 22.448C122.504 21.744 123.576 21.312 123.736 21.152C123.928 20.992 124.104 20.88 124.264 20.816ZM124.504 26.24C124.536 25.792 124.488 25.568 124.36 25.568C124.264 25.568 123.608 25.792 122.392 26.24C121.176 26.656 120.376 26.912 119.992 27.008C119.608 27.072 119.416 27.216 119.416 27.44C119.416 27.792 119.48 28.72 119.608 30.224C119.736 31.728 119.816 32.496 119.848 32.528C119.88 32.56 120.328 32.464 121.192 32.24C122.056 31.984 122.552 31.824 122.68 31.76C122.84 31.664 123.144 30.896 123.592 29.456C124.072 27.984 124.376 26.912 124.504 26.24ZM118.12 5.648C118.568 5.36 118.84 5.2 118.936 5.168C119.032 5.136 119.128 5.168 119.224 5.264C119.32 5.328 119.576 5.408 119.992 5.504C120.44 5.6 120.808 5.648 121.096 5.648C121.448 5.616 121.736 5.728 121.96 5.984C122.216 6.208 122.328 6.496 122.296 6.848C122.296 7.168 122.376 7.424 122.536 7.616C122.696 7.776 122.76 8.016 122.728 8.336C122.696 8.656 122.744 8.832 122.872 8.864C123.128 8.896 123.16 9.12 122.968 9.536C122.904 9.696 122.872 9.696 122.872 9.536C122.84 9.056 122.6 9.264 122.152 10.16C122.12 10.256 122.088 10.336 122.056 10.4C121.736 11.104 121.512 11.488 121.384 11.552C121.288 11.616 121.16 11.872 121 12.32L120.76 12.752C120.728 12.656 120.648 12.624 120.52 12.656C120.392 12.656 120.296 12.736 120.232 12.896C120.168 13.184 119.704 13.776 118.84 14.672L118.552 14.96L119.512 15.056C120.152 15.056 120.504 15.072 120.568 15.104C120.664 15.104 120.792 15.12 120.952 15.152C121.112 15.152 121.192 15.232 121.192 15.392C121.224 15.552 121.16 15.68 121 15.776C120.904 15.84 120.904 15.888 121 15.92C121.128 15.952 121.16 16.08 121.096 16.304C121.032 16.528 121.128 16.72 121.384 16.88C121.64 17.04 121.736 17.296 121.672 17.648C121.64 18 121.672 18.192 121.768 18.224L121.288 18.464C120.808 18.656 120.152 18.96 119.32 19.376C118.488 19.792 117.992 20 117.832 20C117.672 20 117.592 20.032 117.592 20.096C117.592 20.192 117.416 20.304 117.064 20.432C116.744 20.56 116.488 20.64 116.296 20.672C116.264 20.672 116.184 20.704 116.056 20.768C115.064 21.216 114.36 21.44 113.944 21.44C113.784 21.44 113.592 21.52 113.368 21.68C113.144 21.84 113.064 22.16 113.128 22.64C113.16 23.504 112.968 23.936 112.552 23.936C112.424 23.936 112.152 23.696 111.736 23.216L110.536 21.872C110.12 21.424 109.816 21.04 109.624 20.72C109.432 20.368 109.304 20.176 109.24 20.144C109.176 20.08 109.128 19.344 109.096 17.936C109.096 16.496 109.064 15.664 109 15.44C108.936 15.216 108.872 14.768 108.808 14.096C108.776 13.424 108.712 13.056 108.616 12.992C108.552 12.896 108.472 12.544 108.376 11.936C108.216 11.136 108.072 10.624 107.944 10.4C107.848 10.176 107.576 9.936 107.128 9.68C106.36 9.2 105.96 8.8 105.928 8.48C105.928 8.352 105.992 8.288 106.12 8.288C106.248 8.288 106.248 8.224 106.12 8.096C106.024 7.968 106.024 7.904 106.12 7.904C106.152 7.904 106.248 7.92 106.408 7.952L107.992 8.24C109.144 8.464 109.88 8.656 110.2 8.816C110.424 8.912 110.648 8.928 110.872 8.864C111.128 8.8 111.816 8.528 112.936 8.048C115.752 6.896 117.48 6.096 118.12 5.648ZM117.304 11.456C117.304 11.232 117.16 11.216 116.872 11.408C116.712 11.472 116.12 11.68 115.096 12.032C114.104 12.352 113.528 12.512 113.368 12.512C113.144 12.512 113.016 12.592 112.984 12.752C112.984 12.88 113.032 13.216 113.128 13.76C113.224 14.464 113.304 15.168 113.368 15.872C113.432 16.544 113.496 16.928 113.56 17.024C113.624 17.088 113.896 17.008 114.376 16.784C114.888 16.528 115.24 16.288 115.432 16.064C115.784 15.648 116.152 14.912 116.536 13.856C117.048 12.576 117.304 11.776 117.304 11.456ZM167.32 12.752C167.896 12.528 168.248 12.416 168.376 12.416L167.56 12.8C167.208 12.896 166.968 12.976 166.84 13.04L166.792 12.944C166.856 12.912 167.032 12.848 167.32 12.752ZM169.336 0.943999C169.368 0.687999 169.448 0.479999 169.576 0.319999C169.704 0.159999 169.848 0.175999 170.008 0.367998C170.424 0.847998 171 1.264 171.736 1.616C172.152 1.744 172.36 1.872 172.36 2C172.36 2.128 172.504 2.304 172.792 2.528C173.112 2.72 173.272 2.912 173.272 3.104C173.272 3.296 173.32 3.456 173.416 3.584C173.544 3.68 173.592 4.08 173.56 4.784C173.56 5.456 173.496 5.888 173.368 6.08C173.24 6.24 173.032 6.48 172.744 6.8C172.488 7.12 172.376 7.312 172.408 7.376C172.536 7.6 172.904 7.568 173.512 7.28C173.768 7.12 173.976 7.04 174.136 7.04C174.296 7.04 174.408 6.976 174.472 6.848C174.536 6.72 174.648 6.656 174.808 6.656C175 6.656 175.16 6.72 175.288 6.848C175.416 6.976 175.672 7.072 176.056 7.136C176.44 7.2 176.664 7.328 176.728 7.52C176.792 7.68 176.952 7.792 177.208 7.856C177.496 7.92 177.672 8.032 177.736 8.192C177.8 8.352 177.928 8.512 178.12 8.672C178.344 8.832 178.44 9.072 178.408 9.392C178.376 9.68 178.424 9.856 178.552 9.92C178.68 9.952 178.744 10.08 178.744 10.304C178.744 10.496 178.68 10.624 178.552 10.688C178.424 10.72 178.296 10.992 178.168 11.504C178.072 11.984 178.056 12.272 178.12 12.368C178.248 12.432 178.248 12.736 178.12 13.28C178.024 13.92 177.944 14.784 177.88 15.872C177.848 16.288 177.768 16.608 177.64 16.832C177.544 17.024 177.464 17.28 177.4 17.6C177.336 17.888 177.288 18.128 177.256 18.32L177.304 18.368C177.432 18.24 177.512 18.208 177.544 18.272C177.608 18.304 177.544 18.416 177.352 18.608C177.224 18.768 177.064 19.552 176.872 20.96C176.808 21.344 176.712 21.68 176.584 21.968C176.488 22.224 176.376 22.56 176.248 22.976L176.152 23.504L176.632 23.552C176.984 23.648 177.416 23.712 177.928 23.744C178.376 23.808 178.84 23.904 179.32 24.032C179.8 24.16 180.04 24.272 180.04 24.368C180.04 24.464 180.168 24.56 180.424 24.656C180.68 24.752 180.84 24.912 180.904 25.136C180.968 25.328 181.096 25.488 181.288 25.616L181.624 25.76L181.288 25.712C181.064 25.68 180.936 25.696 180.904 25.76L181.192 25.952H181.288C181.544 26.016 181.784 26.112 182.008 26.24C182.232 26.368 182.344 26.48 182.344 26.576C182.344 26.672 182.248 26.704 182.056 26.672C181.896 26.608 181.8 26.624 181.768 26.72C181.736 26.848 181.864 26.976 182.152 27.104C182.408 27.168 182.552 27.408 182.584 27.824C182.616 28.208 182.68 28.48 182.776 28.64C182.936 28.8 182.84 28.848 182.488 28.784C182.232 28.784 181.784 28.704 181.144 28.544C180.312 28.384 179.672 28.288 179.224 28.256C178.392 28.256 176.776 28.48 174.376 28.928C174.12 28.96 173.96 29.04 173.896 29.168C173.832 29.264 173.816 29.488 173.848 29.84C173.848 30.032 173.8 30.16 173.704 30.224C173.608 30.32 173.512 31.536 173.416 33.872C173.352 36.176 173.384 37.408 173.512 37.568C173.544 37.696 173.512 37.792 173.416 37.856C173.32 37.888 173.272 38.16 173.272 38.672C173.272 42.48 173.128 44.48 172.84 44.672C172.776 44.736 172.744 45.136 172.744 45.872V47.024L172.408 46.352C172.216 45.904 172.04 45.664 171.88 45.632C171.752 45.6 171.528 45.376 171.208 44.96C170.92 44.576 170.776 44.304 170.776 44.144C170.776 44.112 170.696 43.984 170.536 43.76C170.376 43.536 170.28 43.296 170.248 43.04C170.248 42.816 170.232 40.56 170.2 36.272C170.168 35.12 170.136 34.064 170.104 33.104C170.104 32.112 170.088 31.328 170.056 30.752C170.024 30.176 169.992 29.888 169.96 29.888C169.64 29.952 168.216 30.272 165.688 30.848C163.256 31.424 161.864 31.568 161.512 31.28C161.416 31.184 161.304 31.104 161.176 31.04C161.048 30.944 160.84 30.816 160.552 30.656C160.296 30.496 160.12 30.432 160.024 30.464C159.96 30.496 159.928 30.816 159.928 31.424C159.928 32.032 159.88 32.336 159.784 32.336C159.72 32.336 159.688 33.056 159.688 34.496C159.72 35.904 159.672 36.736 159.544 36.992C159.416 37.216 159.4 37.328 159.496 37.328C159.528 37.36 159.544 37.456 159.544 37.616C159.576 37.776 159.544 37.968 159.448 38.192C159.384 38.416 159.336 38.56 159.304 38.624C159.208 38.656 159.16 39.12 159.16 40.016C159.192 40.72 159.176 41.088 159.112 41.12C159.112 41.12 159.048 41.088 158.92 41.024C158.792 40.832 158.696 40.656 158.632 40.496C158.568 40.368 158.392 40.32 158.104 40.352C157.848 40.384 157.56 40.208 157.24 39.824C156.92 39.44 156.632 39.12 156.376 38.864C156.12 38.608 156.024 38.352 156.088 38.096C156.152 37.872 156.088 37.696 155.896 37.568C155.704 37.44 155.624 37.216 155.656 36.896C155.72 36.576 155.768 34.864 155.8 31.76C155.864 28.656 155.912 26.816 155.944 26.24C155.976 25.632 155.96 25.328 155.896 25.328C155.864 25.328 155.432 25.52 154.6 25.904C153.8 26.256 153.096 26.544 152.488 26.768C151.912 26.96 151.576 27.104 151.48 27.2C151.416 27.264 151.288 27.296 151.096 27.296C150.936 27.296 150.856 27.36 150.856 27.488C150.856 27.616 150.792 27.664 150.664 27.632C150.664 27.6 150.632 27.6 150.568 27.632C150.536 27.664 150.504 27.728 150.472 27.824C150.472 27.888 150.456 27.984 150.424 28.112C150.392 28.24 150.36 28.4 150.328 28.592C150.136 29.808 150.008 30.48 149.944 30.608C149.848 30.768 149.8 30.864 149.8 30.896L149.56 31.856C149.368 32.4 149.272 32.784 149.272 33.008C149.208 33.424 149.016 33.952 148.696 34.592C148.568 35.008 148.552 35.44 148.648 35.888C148.744 36.048 148.664 36.272 148.408 36.56C148.184 36.816 148.088 37.04 148.12 37.232C148.152 37.392 148.136 37.472 148.072 37.472C148.04 37.472 147.96 37.792 147.832 38.432C147.736 39.072 147.512 39.744 147.16 40.448L146.632 41.504L146.2 41.072C145.56 40.432 145.16 40.112 145 40.112C144.904 40.112 144.856 40.064 144.856 39.968C144.856 39.872 144.728 39.68 144.472 39.392C144.216 39.136 144.104 38.864 144.136 38.576C144.136 38.384 144.12 38.272 144.088 38.24C144.088 38.208 144.024 38.208 143.896 38.24C143.768 38.272 143.752 38.24 143.848 38.144C144.104 37.888 144.088 37.76 143.8 37.76C143.672 37.76 143.576 37.664 143.512 37.472C143.448 37.28 143.368 37.184 143.272 37.184C143.208 37.184 143.192 37.088 143.224 36.896C143.256 36.704 143.224 36.528 143.128 36.368C143.064 36.176 143.128 35.984 143.32 35.792C143.544 35.6 143.576 35.424 143.416 35.264C143.256 35.104 143.224 34.992 143.32 34.928C143.448 34.864 143.48 34.736 143.416 34.544C143.384 34.352 143.448 34.16 143.608 33.968C143.768 33.744 143.864 33.424 143.896 33.008L143.992 32.576C143.992 32.608 144.008 32.688 144.04 32.816C144.072 32.944 144.088 32.928 144.088 32.768C144.12 32.608 144.12 32.304 144.088 31.856C144.056 30.96 144.104 30.512 144.232 30.512C144.392 30.512 144.472 30.4 144.472 30.176C144.472 29.92 144.536 29.632 144.664 29.312C144.792 28.96 144.856 28.688 144.856 28.496C144.856 28.272 144.888 28.064 144.952 27.872C145.176 27.488 145.416 26.688 145.672 25.472C146.12 23.328 146.424 21.776 146.584 20.816C146.616 20.624 146.664 20.352 146.728 20C146.792 19.648 146.76 19.472 146.632 19.472C146.408 19.472 146.392 19.344 146.584 19.088C146.616 19.056 146.648 19.024 146.68 18.992C146.872 18.736 146.984 17.744 147.016 16.016C147.08 14.288 147.064 13.136 146.968 12.56C146.872 11.952 146.632 11.472 146.248 11.12C145.864 10.768 145.592 10.592 145.432 10.592C145.304 10.592 145.256 10.496 145.288 10.304C145.32 10.112 145.192 9.872 144.904 9.584C144.648 9.296 144.568 9.104 144.664 9.008C144.792 8.88 144.808 8.752 144.712 8.624C144.616 8.528 144.568 8.48 144.568 8.48C144.6 8.448 144.664 8.448 144.76 8.48C144.856 8.512 145.112 8.608 145.528 8.768C146.072 8.928 146.824 9.296 147.784 9.872C148.776 10.416 149.528 10.896 150.04 11.312C150.424 11.6 150.76 11.984 151.048 12.464C151.368 12.912 151.528 13.248 151.528 13.472C151.528 13.664 151.624 13.872 151.816 14.096C152.04 14.32 152.104 14.848 152.008 15.68C151.976 16.16 151.96 16.48 151.96 16.64C151.992 16.768 152.056 16.832 152.152 16.832C152.248 16.832 152.664 16.624 153.4 16.208L154.504 15.68L154.552 13.856C154.552 12.64 154.664 11.504 154.888 10.448C155.112 9.36 155.24 7.968 155.272 6.272C155.304 4.672 155.384 3.872 155.512 3.872C155.512 3.872 155.544 3.904 155.608 3.968C155.8 4.064 155.96 4.096 156.088 4.064C156.216 4 156.328 4.08 156.424 4.304C156.552 4.528 156.76 4.816 157.048 5.168C157.464 5.648 157.848 6.544 158.2 7.856C158.552 9.168 158.728 10.4 158.728 11.552C158.728 12.544 158.68 13.184 158.584 13.472C158.52 13.76 158.6 13.92 158.824 13.952C159.048 13.984 159.24 14.08 159.4 14.24C159.592 14.368 159.64 14.512 159.544 14.672C159.416 14.8 159.4 14.864 159.496 14.864C159.56 14.864 159.672 14.832 159.832 14.768C160.152 14.736 160.328 14.816 160.36 15.008C160.392 15.2 160.52 15.296 160.744 15.296C160.904 15.296 161 15.36 161.032 15.488C161.064 15.616 160.984 15.712 160.792 15.776C160.696 15.808 160.632 15.872 160.6 15.968C160.6 16.064 160.632 16.144 160.696 16.208C160.76 16.24 160.872 16.256 161.032 16.256C161.768 16.256 161.544 16.528 160.36 17.072C159.208 17.584 158.456 17.952 158.104 18.176C157.784 18.368 157.576 18.624 157.48 18.944C157.448 19.2 157.4 19.328 157.336 19.328C157.336 19.328 157.304 19.264 157.24 19.136C157.048 18.88 156.632 18.944 155.992 19.328C155.608 19.552 154.792 19.984 153.544 20.624C152.136 21.328 151.432 21.744 151.432 21.872C151.432 21.904 151.464 21.936 151.528 21.968C151.656 22.032 151.672 22.112 151.576 22.208C151.48 22.272 151.432 22.352 151.432 22.448C151.464 22.544 151.544 22.576 151.672 22.544C151.832 22.512 152.024 22.464 152.248 22.4C152.504 22.304 152.712 22.192 152.872 22.064C153.128 21.84 153.336 21.728 153.496 21.728C153.688 21.728 153.784 21.696 153.784 21.632C153.784 21.568 154.008 21.44 154.456 21.248C154.936 21.056 155.288 20.848 155.512 20.624C155.704 20.496 155.832 20.432 155.896 20.432C155.96 20.4 156.072 20.432 156.232 20.528C156.456 20.688 156.728 20.784 157.048 20.816C157.112 20.848 157.176 20.88 157.24 20.912C157.336 20.912 157.4 20.928 157.432 20.96C157.464 20.96 157.48 20.976 157.48 21.008C157.448 21.104 157.496 21.184 157.624 21.248C157.784 21.28 157.992 21.296 158.248 21.296C158.504 21.296 158.664 21.344 158.728 21.44C158.792 21.504 159 21.568 159.352 21.632C159.704 21.696 159.976 21.824 160.168 22.016C160.552 22.496 160.696 22.864 160.6 23.12C160.472 23.12 160.44 23.264 160.504 23.552C160.6 23.808 160.568 24.16 160.408 24.608C160.248 25.056 160.136 25.712 160.072 26.576C160.04 27.408 160.072 27.824 160.168 27.824C160.2 27.824 160.248 27.808 160.312 27.776C160.472 27.68 160.648 27.648 160.84 27.68C161.032 27.68 161.16 27.616 161.224 27.488C161.288 27.36 161.384 27.296 161.512 27.296C161.64 27.296 161.832 27.232 162.088 27.104C162.376 26.944 162.584 26.864 162.712 26.864C162.84 26.864 163.016 26.8 163.24 26.672C163.464 26.512 163.64 26.512 163.768 26.672C163.864 26.768 163.944 26.8 164.008 26.768C164.104 26.704 164.36 26.48 164.776 26.096C165.288 25.552 165.608 25.152 165.736 24.896C165.864 24.64 165.848 24.352 165.688 24.032C165.528 23.68 165.384 23.536 165.256 23.6C165.128 23.664 164.984 23.6 164.824 23.408C164.664 23.216 164.472 23.072 164.248 22.976C164.056 22.88 163.976 22.752 164.008 22.592C164.072 22.4 163.976 22.256 163.72 22.16C163.56 22.064 163.464 21.968 163.432 21.872C163.4 21.744 163.48 21.664 163.672 21.632C163.832 21.6 163.912 21.44 163.912 21.152C163.944 20.832 163.944 19.872 163.912 18.272C163.88 16.448 163.8 15.184 163.672 14.48C163.576 13.776 163.352 13.088 163 12.416C162.52 11.456 162.168 10.976 161.944 10.976C161.848 10.976 161.736 10.896 161.608 10.736C161.48 10.576 161.4 10.4 161.368 10.208C161.368 10.144 161.32 9.936 161.224 9.584C161.16 9.232 161.224 8.96 161.416 8.768C161.64 8.576 161.752 8.432 161.752 8.336C161.752 8.048 162.136 8.096 162.904 8.48C163.128 8.608 163.32 8.736 163.48 8.864C163.576 8.992 163.752 8.944 164.008 8.72C164.296 8.464 165.048 7.696 166.264 6.416C166.936 5.68 167.512 4.992 167.992 4.352C168.504 3.712 168.84 3.2 169 2.816C169.192 2.4 169.24 2.16 169.144 2.096C169.048 2.032 169.048 1.888 169.144 1.664C169.24 1.44 169.304 1.2 169.336 0.943999ZM175.144 10.976C175.144 10.688 175.064 10.544 174.904 10.544C174.744 10.512 174.28 10.608 173.512 10.832C172.648 11.024 172.2 11.168 172.168 11.264C172.168 11.296 172.216 11.328 172.312 11.36C172.408 11.392 172.456 11.472 172.456 11.6C172.456 11.696 172.536 11.824 172.696 11.984C172.856 12.144 172.872 12.288 172.744 12.416C172.648 12.512 172.6 12.656 172.6 12.848C172.6 13.008 172.824 13.072 173.272 13.04L173.848 12.896C173.72 12.832 173.752 12.8 173.944 12.8C174.168 12.8 174.28 12.848 174.28 12.944C174.28 13.04 174.344 13.088 174.472 13.088C174.632 13.088 174.68 13.136 174.616 13.232C174.616 13.264 174.632 13.296 174.664 13.328C174.696 13.328 174.744 13.328 174.808 13.328C174.968 13.328 175.064 13.232 175.096 13.04C175.128 12.816 175.144 12.128 175.144 10.976ZM169.768 12.656C169.8 12.432 169.8 12.288 169.768 12.224C169.768 12.16 169.672 12.112 169.48 12.08L169.192 12.128C169.224 12.192 169.208 12.224 169.144 12.224C169.08 12.224 168.952 12.256 168.76 12.32C168.568 12.384 168.536 12.368 168.664 12.272C168.824 12.144 168.856 12.08 168.76 12.08C168.6 12.08 168.184 12.192 167.512 12.416C166.872 12.608 166.52 12.736 166.456 12.8C166.328 12.864 166.312 13.12 166.408 13.568C166.536 13.984 166.6 14.336 166.6 14.624C166.6 14.88 166.632 15.024 166.696 15.056C166.856 15.12 167.624 14.88 169 14.336C169.288 14.208 169.464 14.096 169.528 14C169.624 13.904 169.672 13.76 169.672 13.568C169.672 13.28 169.704 12.976 169.768 12.656ZM175.048 13.808C174.984 13.68 174.904 13.616 174.808 13.616C174.744 13.616 174.68 13.68 174.616 13.808C174.616 13.84 174.632 13.872 174.664 13.904C174.696 13.904 174.744 13.904 174.808 13.904C174.904 13.904 174.968 13.904 175 13.904C175.064 13.872 175.08 13.84 175.048 13.808ZM174.952 14.576C174.984 14.544 174.984 14.464 174.952 14.336C174.92 14.208 174.856 14.208 174.76 14.336C174.696 14.496 174.76 14.576 174.952 14.576ZM174.76 16.496C174.792 16.048 174.792 15.792 174.76 15.728C174.76 15.664 174.696 15.632 174.568 15.632C174.376 15.632 173.96 15.728 173.32 15.92C172.68 16.112 172.312 16.256 172.216 16.352C172.184 16.384 172.072 16.784 171.88 17.552C171.72 18.32 171.64 18.8 171.64 18.992C171.64 19.12 171.768 19.184 172.024 19.184C172.312 19.184 172.504 19.152 172.6 19.088C172.728 18.992 172.76 18.784 172.696 18.464L172.552 18.032L172.984 18.464C173.208 18.784 173.432 18.944 173.656 18.944C173.912 18.944 174.056 18.816 174.088 18.56C174.152 18.336 174.232 18.224 174.328 18.224C174.52 18.224 174.664 17.648 174.76 16.496ZM168.856 17.744C168.856 17.68 168.792 17.664 168.664 17.696C168.536 17.696 168.168 17.792 167.56 17.984C166.984 18.144 166.68 18.256 166.648 18.32C166.616 18.352 166.584 18.688 166.552 19.328C166.552 19.968 166.568 20.32 166.6 20.384C166.632 20.448 166.888 20.416 167.368 20.288C167.848 20.128 168.104 20 168.136 19.904C168.232 19.872 168.376 19.536 168.568 18.896C168.76 18.224 168.856 17.84 168.856 17.744ZM174.76 22.256C174.632 22.032 174.44 21.92 174.184 21.92C173.928 21.888 173.432 21.952 172.696 22.112C171.96 22.24 171.608 22.352 171.64 22.448C171.64 22.448 171.672 22.464 171.736 22.496C171.896 22.56 172.04 22.688 172.168 22.88C172.328 23.04 172.456 23.184 172.552 23.312C172.68 23.44 172.744 23.552 172.744 23.648C172.744 23.744 172.808 23.792 172.936 23.792C173.096 23.792 173.176 23.856 173.176 23.984C173.176 24.08 173.272 24.112 173.464 24.08L174.088 23.888C174.248 23.856 174.328 23.856 174.328 23.888C174.36 23.92 174.36 24 174.328 24.128C174.296 24.256 174.36 24.32 174.52 24.32C174.616 24.32 174.984 24.288 175.624 24.224C176.168 24.032 176.44 23.904 176.44 23.84C176.28 23.744 176.12 23.744 175.96 23.84C175.8 23.904 175.688 23.808 175.624 23.552C175.56 23.264 175.448 23.04 175.288 22.88C175.128 22.688 174.952 22.48 174.76 22.256ZM169.864 24.656C170.024 24.656 170.104 24.624 170.104 24.56C170.104 24.496 170.056 24.368 169.96 24.176C169.896 23.984 169.832 23.984 169.768 24.176C169.64 24.496 169.672 24.656 169.864 24.656Z" fill="white"/>
</svg>
