<svg width="182" height="51" viewBox="0 0 182 51" fill="none" xmlns="http://www.w3.org/2000/svg">
<path d="M15.264 5.392C15.264 5.264 15.28 5.2 15.312 5.2C15.344 5.168 15.472 5.168 15.696 5.2C16.336 5.296 16.656 5.456 16.656 5.68C16.656 5.744 16.784 5.776 17.04 5.776C17.296 5.776 17.52 5.888 17.712 6.112C17.936 6.336 18.256 6.608 18.672 6.928C19.088 7.216 19.296 7.44 19.296 7.6C19.296 7.728 19.376 7.856 19.536 7.984C19.728 8.112 19.824 8.24 19.824 8.368C19.824 8.496 19.888 8.56 20.016 8.56C20.144 8.56 20.256 8.656 20.352 8.848C20.512 9.328 20.624 10.096 20.688 11.152C20.784 12.208 20.768 12.816 20.64 12.976C20.544 13.104 20.544 13.232 20.64 13.36C20.768 13.488 20.72 13.696 20.496 13.984C20.144 14.4 20.064 14.608 20.256 14.608C20.448 14.608 20.864 14.56 21.504 14.464C22.08 14.304 22.368 14.16 22.368 14.032C22.368 13.904 22.416 13.84 22.512 13.84C22.608 13.84 22.624 13.808 22.56 13.744C22.496 13.616 22.592 13.584 22.848 13.648C22.912 13.648 22.96 13.648 22.992 13.648C23.344 13.68 23.584 13.552 23.712 13.264C23.808 13.072 23.904 12.976 24 12.976C24.096 12.944 24.32 12.944 24.672 12.976C25.024 13.008 25.232 13.024 25.296 13.024C25.36 12.992 25.392 12.912 25.392 12.784C25.36 12.688 25.376 12.624 25.44 12.592C25.504 12.56 25.648 12.56 25.872 12.592C26.992 12.624 27.648 12.72 27.84 12.88C27.936 12.976 28.048 13.024 28.176 13.024C28.24 13.024 28.768 13.52 29.76 14.512C30.752 15.472 31.392 16.128 31.68 16.48C31.968 16.832 32.112 17.152 32.112 17.44C32.112 17.728 32.16 17.904 32.256 17.968C32.352 18.064 32.384 18.144 32.352 18.208C32.352 18.272 32.304 18.304 32.208 18.304C32.048 18.304 31.84 18.368 31.584 18.496C31.328 18.624 31.136 18.656 31.008 18.592C30.912 18.496 30.736 18.48 30.48 18.544L29.04 18.832C27.504 19.12 26.272 19.504 25.344 19.984C25.088 20.08 24.848 20.112 24.624 20.08C24.4 20.016 24.288 20.048 24.288 20.176C24.288 20.304 24.096 20.464 23.712 20.656L22.416 21.184C21.936 21.376 21.36 21.616 20.688 21.904C20.048 22.16 19.728 22.32 19.728 22.384C19.728 22.448 19.84 22.512 20.064 22.576C20.352 22.64 20.688 22.832 21.072 23.152C21.456 23.472 21.712 23.744 21.84 23.968C21.936 24.256 21.984 25.072 21.984 26.416C21.984 27.984 21.856 29.248 21.6 30.208L21.264 31.312C21.232 31.536 21.184 31.728 21.12 31.888C20.768 32.656 20.64 33.104 20.736 33.232C20.8 33.264 21.136 33.408 21.744 33.664C24.688 34.848 27.04 35.872 28.8 36.736C30.272 37.472 31.056 37.84 31.152 37.84C31.248 37.84 31.472 38 31.824 38.32L32.928 39.184C33.312 39.504 33.504 39.712 33.504 39.808C33.504 39.904 33.616 40.08 33.84 40.336C34.096 40.592 34.256 40.704 34.32 40.672C34.384 40.64 34.448 40.672 34.512 40.768C34.576 40.864 34.624 40.976 34.656 41.104C34.688 41.232 34.672 41.312 34.608 41.344C34.544 41.44 34.592 41.728 34.752 42.208C34.912 42.688 35.072 43.36 35.232 44.224C35.36 44.832 35.424 45.2 35.424 45.328C35.424 45.488 35.344 45.664 35.184 45.856C35.056 46.016 34.96 46.096 34.896 46.096C34.864 46.128 34.816 46.096 34.752 46C34.592 45.808 34.336 45.712 33.984 45.712C33.632 45.712 33.424 45.648 33.36 45.52C33.328 45.424 33.216 45.376 33.024 45.376C32.832 45.376 32.688 45.264 32.592 45.04C32.528 44.848 32.352 44.672 32.064 44.512C31.776 44.384 31.552 44.24 31.392 44.08C31.168 43.888 30.928 43.808 30.672 43.84C30.608 43.84 30.56 43.808 30.528 43.744C30.496 43.712 30.48 43.664 30.48 43.6C30.416 43.376 30.208 43.136 29.856 42.88C29.504 42.656 29.216 42.528 28.992 42.496C28.8 42.496 28.352 42.272 27.648 41.824C26.976 41.376 26.592 41.088 26.496 40.96C26.432 40.832 26.256 40.688 25.968 40.528C25.68 40.4 25.488 40.368 25.392 40.432C25.328 40.496 24.832 40.304 23.904 39.856C23.008 39.376 22.224 39.024 21.552 38.8C20.88 38.544 20.464 38.368 20.304 38.272C20.144 38.176 19.76 38.032 19.152 37.84L18.288 37.6L17.856 37.84C17.504 38.064 17.36 38.24 17.424 38.368C17.456 38.432 17.392 38.544 17.232 38.704C17.104 38.864 16.976 38.944 16.848 38.944C16.752 38.944 16.656 39.056 16.56 39.28C16.464 39.472 16.32 39.584 16.128 39.616C15.936 39.648 15.696 39.776 15.408 40C15.152 40.224 14.992 40.336 14.928 40.336C14.896 40.336 14.736 40.448 14.448 40.672C14.16 40.928 13.792 41.168 13.344 41.392C12.928 41.648 12.72 41.824 12.72 41.92C12.72 42.016 12.64 42.032 12.48 41.968C12.32 41.904 12.208 41.952 12.144 42.112C12.08 42.304 11.904 42.4 11.616 42.4C11.328 42.432 11.12 42.496 10.992 42.592C10.896 42.688 10.88 42.736 10.944 42.736L9.84 43.648C9.648 43.776 9.472 43.904 9.312 44.032C8.928 44.256 8.608 44.368 8.352 44.368C8.128 44.368 7.952 44.448 7.824 44.608C7.6 44.736 7.456 44.784 7.392 44.752C7.328 44.752 7.296 44.656 7.296 44.464C7.296 44.08 7.168 44.016 6.912 44.272C6.784 44.4 6.656 44.384 6.528 44.224C6.432 44.064 6.32 43.984 6.192 43.984C6.064 43.984 5.888 43.888 5.664 43.696C5.472 43.536 5.312 43.456 5.184 43.456C5.088 43.456 5.04 43.328 5.04 43.072C5.04 42.848 4.96 42.736 4.8 42.736C4.672 42.768 4.512 42.768 4.32 42.736C4.128 42.736 4.112 42.656 4.272 42.496C4.272 42.464 4.304 42.432 4.368 42.4C4.592 42.144 5.056 41.776 5.76 41.296C6.464 40.816 6.928 40.464 7.152 40.24C7.408 40.016 7.664 39.824 7.92 39.664C8.208 39.536 8.768 39.088 9.6 38.32C9.984 38 10.208 37.84 10.272 37.84C10.368 37.84 10.544 37.712 10.8 37.456C11.6 36.656 12.16 36.192 12.48 36.064C12.704 35.968 12.592 35.856 12.144 35.728C12.048 35.664 11.936 35.632 11.808 35.632C11.296 35.504 10.56 35.296 9.6 35.008C8.672 34.688 8.016 34.496 7.632 34.432C7.408 34.4 7.152 34.336 6.864 34.24C6.608 34.112 6.384 34 6.192 33.904C6 33.776 5.936 33.696 6 33.664C6.032 33.568 5.984 33.52 5.856 33.52C5.76 33.52 5.728 33.456 5.76 33.328C5.824 33.2 5.712 33.088 5.424 32.992C5.168 32.896 5.056 32.736 5.088 32.512C5.12 32.288 5.408 32.112 5.952 31.984C6.496 31.856 7.552 31.76 9.12 31.696C10.4 31.6 11.568 31.584 12.624 31.648C13.712 31.68 14.256 31.744 14.256 31.84C14.256 31.904 14.16 31.92 13.968 31.888C13.808 31.856 13.728 31.872 13.728 31.936C13.728 32.064 13.824 32.144 14.016 32.176C14.208 32.24 14.416 32.288 14.64 32.32C14.864 32.32 15.04 32.32 15.168 32.32C15.296 32.288 15.36 32.24 15.36 32.176C15.36 32.08 15.456 32.016 15.648 31.984C15.84 31.92 15.952 31.808 15.984 31.648C16.048 31.456 16.368 30.784 16.944 29.632C17.648 28.16 18.112 27.008 18.336 26.176C18.496 25.536 18.576 24.912 18.576 24.304C18.576 23.696 18.496 23.328 18.336 23.2C18.208 23.072 17.296 23.44 15.6 24.304C13.936 25.168 13.056 25.6 12.96 25.6C12.896 25.568 12.64 25.696 12.192 25.984C11.776 26.24 11.456 26.416 11.232 26.512C11.008 26.576 10.8 26.688 10.608 26.848C10.416 27.008 10.224 27.088 10.032 27.088C9.84 27.088 9.584 27.216 9.264 27.472C8.944 27.696 8.688 27.808 8.496 27.808C8.304 27.808 8.096 27.888 7.872 28.048C7.68 28.176 7.536 28.224 7.44 28.192C7.344 28.128 7.216 28.16 7.056 28.288C6.928 28.384 6.88 28.48 6.912 28.576C6.944 28.672 6.848 28.848 6.624 29.104L6.288 29.44V29.008C6.288 28.752 6.224 28.656 6.096 28.72C5.968 28.784 5.712 28.72 5.328 28.528C4.944 28.304 4.688 28.224 4.56 28.288C4.464 28.32 4.352 28.192 4.224 27.904C4.128 27.712 4 27.568 3.84 27.472C3.712 27.376 3.616 27.392 3.552 27.52C3.52 27.584 3.44 27.568 3.312 27.472C3.184 27.376 3.056 27.248 2.928 27.088C2.8 26.896 2.688 26.736 2.592 26.608C2.56 26.384 2.432 26.272 2.208 26.272C2.144 26.272 2.096 26.256 2.064 26.224C2.032 26.192 2.016 26.144 2.016 26.08C2.048 26.016 2.016 25.952 1.92 25.888C1.856 25.824 1.76 25.744 1.632 25.648C1.408 25.552 1.28 25.472 1.248 25.408C1.216 25.312 1.216 25.184 1.248 25.024C1.248 24.736 1.2 24.592 1.104 24.592C1.008 24.688 0.896 24.688 0.768 24.592C0.672 24.496 0.624001 24.368 0.624001 24.208C0.624001 24.112 0.736001 23.968 0.960001 23.776C1.184 23.552 1.504 23.456 1.92 23.488C2.336 23.488 2.592 23.424 2.688 23.296C2.816 23.136 3.072 23.04 3.456 23.008C3.968 22.944 4.88 22.592 6.192 21.952C6.896 21.664 7.488 21.44 7.968 21.28C8.448 21.088 8.8 20.896 9.024 20.704C9.28 20.512 9.488 20.416 9.648 20.416C9.84 20.416 9.936 20.384 9.936 20.32C9.936 20.224 10.08 20.096 10.368 19.936C10.656 19.776 10.8 19.744 10.8 19.84C10.8 19.904 10.896 19.824 11.088 19.6C11.312 19.376 11.472 19.296 11.568 19.36C11.664 19.392 11.728 19.36 11.76 19.264C11.856 19.136 12.432 18.816 13.488 18.304C13.968 18.08 14.256 17.92 14.352 17.824C14.48 17.728 14.608 17.68 14.736 17.68C14.864 17.68 15.056 17.568 15.312 17.344C15.6 17.12 15.936 16.944 16.32 16.816C16.704 16.688 16.896 16.592 16.896 16.528C16.896 16.432 16.976 16.384 17.136 16.384C17.424 16.384 17.312 16.096 16.8 15.52C16.096 14.784 15.776 14.4 15.84 14.368C15.904 14.272 15.872 14.032 15.744 13.648C15.616 13.232 15.584 12.576 15.648 11.68C15.744 10.784 15.84 10.256 15.936 10.096C16.032 9.904 16.064 9.648 16.032 9.328C15.808 7.376 15.616 6.272 15.456 6.016C15.328 5.824 15.264 5.616 15.264 5.392ZM65.712 35.536C65.936 35.44 66.208 35.424 66.528 35.488C66.88 35.552 67.12 35.584 67.248 35.584C67.376 35.584 67.744 35.776 68.352 36.16C68.96 36.512 69.44 36.832 69.792 37.12C70.08 37.376 70.288 37.76 70.416 38.272C70.576 38.784 70.608 39.248 70.512 39.664C70.416 40.016 70.368 40.64 70.368 41.536L70.416 42.784L70.08 42.496C69.632 42.08 69.056 41.6 68.352 41.056C68.064 40.832 67.92 40.624 67.92 40.432C67.92 40.272 67.808 40.096 67.584 39.904C67.36 39.712 67.136 39.6 66.912 39.568C66.752 39.472 66.672 39.344 66.672 39.184C66.672 39.024 66.544 38.624 66.288 37.984C66.064 37.344 65.872 36.912 65.712 36.688C65.328 36.08 65.328 35.696 65.712 35.536ZM75.648 3.616C75.744 3.488 76.08 3.472 76.656 3.568C77.232 3.632 77.664 3.744 77.952 3.904C78.304 4 78.592 4.064 78.816 4.096C79.232 4.192 79.648 4.368 80.064 4.624C80.512 4.88 80.736 5.12 80.736 5.344C80.736 5.472 80.864 5.68 81.12 5.968C81.248 6.224 81.344 6.512 81.408 6.832C81.472 7.152 81.424 7.36 81.264 7.456C81.2 7.584 81.28 7.984 81.504 8.656C81.728 9.296 81.84 9.696 81.84 9.856C81.84 9.984 81.712 9.968 81.456 9.808C80.56 9.2 79.632 8.72 78.672 8.368C78.096 8.144 77.776 7.984 77.712 7.888C77.648 7.76 77.552 7.696 77.424 7.696C77.328 7.696 77.248 7.568 77.184 7.312C77.152 7.056 76.88 6.592 76.368 5.92C75.696 5.12 75.328 4.64 75.264 4.48C75.232 4.416 75.248 4.288 75.312 4.096C75.376 3.872 75.488 3.712 75.648 3.616ZM67.488 0.927999C67.552 0.831999 67.968 0.895998 68.736 1.12C69.888 1.408 70.72 2.096 71.232 3.184C71.456 3.696 71.568 4.32 71.568 5.056L71.52 6.16L71.952 6.064C72.24 5.968 72.384 5.984 72.384 6.112C72.384 6.208 72.576 6.352 72.96 6.544C73.376 6.736 73.584 6.912 73.584 7.072C73.584 7.2 73.68 7.312 73.872 7.408C74.096 7.504 74.208 7.632 74.208 7.792C74.208 7.92 74.272 7.984 74.4 7.984C74.528 7.984 74.624 8.08 74.688 8.272C74.752 8.432 74.848 8.512 74.976 8.512C75.136 8.512 75.184 8.576 75.12 8.704C75.088 8.8 74.464 9.056 73.248 9.472C72.064 9.856 71.424 10.112 71.328 10.24C71.296 10.304 71.296 10.528 71.328 10.912C71.36 11.264 71.408 11.488 71.472 11.584C71.504 11.616 71.904 11.52 72.672 11.296C73.44 11.072 73.872 10.928 73.968 10.864C74.096 10.768 74.4 10.784 74.88 10.912C75.392 11.008 75.792 11.136 76.08 11.296C76.368 11.488 76.592 11.584 76.752 11.584C76.944 11.584 77.216 11.744 77.568 12.064C77.952 12.384 78.176 12.544 78.24 12.544C78.304 12.544 78.336 12.64 78.336 12.832C78.336 12.992 78.432 13.328 78.624 13.84C78.848 14.32 78.912 14.624 78.816 14.752C78.72 14.848 78.64 15.376 78.576 16.336C78.512 17.296 78.416 18.176 78.288 18.976C77.904 21.344 77.712 23.248 77.712 24.688C77.712 25.296 77.632 26.016 77.472 26.848C77.344 27.648 77.312 28.096 77.376 28.192C77.408 28.224 78.128 28.144 79.536 27.952C80.976 27.728 81.776 27.568 81.936 27.472C82.096 27.344 82.576 27.328 83.376 27.424C84.176 27.52 84.784 27.68 85.2 27.904C85.808 28.192 86.336 28.56 86.784 29.008C87.264 29.456 87.456 29.792 87.36 30.016C87.264 30.08 87.296 30.208 87.456 30.4C87.648 30.56 87.696 30.64 87.6 30.64C87.536 30.64 87.6 30.72 87.792 30.88C88.016 31.04 87.936 31.136 87.552 31.168C87.296 31.232 86.688 31.296 85.728 31.36C84.32 31.488 82.192 31.696 79.344 31.984C78.352 32.08 77.568 32.192 76.992 32.32L76.464 32.416L76.416 34.336C76.384 36.032 76.384 37.6 76.416 39.04C76.448 41.984 76.352 44.208 76.128 45.712C76.064 46.224 75.984 46.896 75.888 47.728C75.728 48.816 75.568 49.36 75.408 49.36C75.28 49.36 75.152 49.424 75.024 49.552C74.928 49.712 74.88 49.888 74.88 50.08C74.88 50.24 74.864 50.32 74.832 50.32C74.832 50.32 74.784 50.256 74.688 50.128C74.56 49.968 74.464 49.968 74.4 50.128C74.336 50.288 74.192 50.144 73.968 49.696C73.936 49.664 73.904 49.616 73.872 49.552C73.584 48.976 73.328 48.592 73.104 48.4C72.88 48.208 72.768 48.064 72.768 47.968C72.768 47.872 72.656 47.712 72.432 47.488C72.208 47.264 72.096 47.072 72.096 46.912C72.096 46.784 71.888 46.56 71.472 46.24C71.056 45.888 70.672 45.456 70.32 44.944C70 44.464 69.84 44.096 69.84 43.84C69.84 43.68 69.872 43.568 69.936 43.504C70 43.472 70.112 43.472 70.272 43.504C70.592 43.6 70.88 43.728 71.136 43.888C71.392 44.08 71.632 44.176 71.856 44.176C72.016 44.176 72.112 44.144 72.144 44.08C72.208 44.016 72.256 43.824 72.288 43.504C72.352 42.928 72.384 41.072 72.384 37.936C72.416 34.768 72.4 33.152 72.336 33.088C72.272 33.056 70.8 33.296 67.92 33.808C66.672 34.064 65.824 34.224 65.376 34.288C64.224 34.48 62.784 34.832 61.056 35.344C60.096 35.632 59.248 35.664 58.512 35.44C58.384 35.376 58.336 35.312 58.368 35.248L58.128 35.152H58.032C57.776 35.152 57.488 35.056 57.168 34.864C56.88 34.672 56.624 34.528 56.4 34.432C56.176 34.336 56.08 34.256 56.112 34.192C56.144 34.16 56.112 34.112 56.016 34.048C55.952 33.952 55.872 33.904 55.776 33.904C55.712 33.872 55.664 33.872 55.632 33.904C55.568 33.936 55.504 34.624 55.44 35.968C55.344 38.848 55.248 40.592 55.152 41.2C55.088 41.584 55.04 42.304 55.008 43.36C54.976 44.416 54.912 44.992 54.816 45.088C54.72 45.216 54.64 45.648 54.576 46.384C54.544 47.12 54.416 47.712 54.192 48.16L53.904 48.88L53.568 48.064C53.088 46.72 52.64 45.936 52.224 45.712C51.968 45.616 51.808 45.456 51.744 45.232C51.68 45.008 51.6 44.864 51.504 44.8C51.408 44.768 51.376 44.672 51.408 44.512C51.472 44.352 51.456 44.32 51.36 44.416C51.2 44.48 51.088 44.464 51.024 44.368C50.96 44.304 50.976 44.208 51.072 44.08C51.2 43.888 51.2 43.728 51.072 43.6C50.976 43.504 50.928 43.296 50.928 42.976C50.928 42.688 50.864 42.512 50.736 42.448C50.64 42.416 50.688 42.24 50.88 41.92C51.104 41.632 51.264 41.216 51.36 40.672C51.456 39.744 51.568 39.2 51.696 39.04C51.76 38.912 51.792 38.016 51.792 36.352C51.824 34.656 51.888 32.832 51.984 30.88C52.08 28.928 52.112 27.904 52.08 27.808C52.048 27.68 51.76 27.776 51.216 28.096C50.672 28.384 50.064 28.496 49.392 28.432C47.824 28.4 46.96 28.272 46.8 28.048C46.672 27.92 46.336 27.856 45.792 27.856C45.408 27.824 45.152 27.792 45.024 27.76C44.896 27.696 44.72 27.552 44.496 27.328C44.176 26.976 44.048 26.72 44.112 26.56C44.208 26.4 44.528 26.24 45.072 26.08C46.288 25.76 47.792 25.024 49.584 23.872C50.608 23.2 51.328 22.736 51.744 22.48L52.416 22.096L52.368 19.552C52.208 12.096 51.92 7.984 51.504 7.216C51.376 6.864 51.488 6.608 51.84 6.448C52.032 6.32 52.576 6.48 53.472 6.928C54.752 7.632 55.616 8.368 56.064 9.136C56.192 9.424 56.304 9.808 56.4 10.288C56.496 10.768 56.512 11.024 56.448 11.056C56.352 11.056 56.288 11.296 56.256 11.776C56.256 12.224 56.304 12.56 56.4 12.784C56.464 12.976 56.416 13.632 56.256 14.752C56.128 15.84 56.048 17.12 56.016 18.592C55.952 19.744 55.936 20.416 55.968 20.608C56.032 20.768 56.256 20.832 56.64 20.8C56.8 20.8 56.896 20.896 56.928 21.088C56.96 21.248 57.072 21.328 57.264 21.328C57.488 21.328 57.6 21.376 57.6 21.472C57.6 21.568 57.664 21.616 57.792 21.616C57.952 21.616 58.192 21.76 58.512 22.048C58.832 22.336 59.152 22.576 59.472 22.768C59.792 22.96 59.952 23.088 59.952 23.152C59.952 23.184 59.552 23.44 58.752 23.92C57.952 24.368 57.28 24.72 56.736 24.976L55.92 25.36L55.872 26.896C55.808 27.984 55.76 28.784 55.728 29.296C55.696 29.808 55.632 30.592 55.536 31.648L55.488 33.232L56.256 33.136C56.832 33.072 57.648 32.88 58.704 32.56C62.896 31.248 66.08 30.352 68.256 29.872C69.344 29.648 69.92 29.52 69.984 29.488C70.048 29.424 70 29.328 69.84 29.2C69.712 29.04 69.568 28.816 69.408 28.528C69.248 28.208 68.96 27.856 68.544 27.472C68.128 27.056 67.936 26.752 67.968 26.56C68 26.336 67.952 26.208 67.824 26.176C67.728 26.144 67.68 25.728 67.68 24.928C67.68 24.256 67.632 23.904 67.536 23.872C67.472 23.808 67.136 23.92 66.528 24.208L65.952 24.496L65.856 25.648C65.792 27.6 65.728 28.608 65.664 28.672C65.632 28.704 65.12 28.24 64.128 27.28C62.816 26.032 62.208 25.28 62.304 25.024C62.336 24.96 62.288 24.864 62.16 24.736C62.064 24.608 62.032 24.016 62.064 22.96C62.096 21.904 62.064 21.024 61.968 20.32C61.584 17.824 61.264 16.192 61.008 15.424C60.752 14.624 60.384 14.144 59.904 13.984C59.584 13.888 59.6 13.728 59.952 13.504C60.208 13.376 60.768 13.36 61.632 13.456C62.496 13.52 63.04 13.648 63.264 13.84C63.488 14 63.68 14.08 63.84 14.08C64.032 14.08 64.784 13.84 66.096 13.36L68.16 12.736V11.968L68.208 11.104L67.824 11.248C67.568 11.312 67.024 11.344 66.192 11.344C65.616 11.344 65.2 11.312 64.944 11.248C64.72 11.152 64.352 10.976 63.84 10.72C62.368 9.952 61.68 9.456 61.776 9.232C61.808 9.2 61.872 9.168 61.968 9.136C62.928 8.88 64.144 8.496 65.616 7.984C67.088 7.44 67.872 7.104 67.968 6.976C68.096 6.88 68.128 6.24 68.064 5.056C68.032 3.84 67.968 3.008 67.872 2.56C67.712 2.016 67.584 1.744 67.488 1.744C67.392 1.712 67.344 1.584 67.344 1.36C67.344 1.136 67.392 0.991999 67.488 0.927999ZM74.496 14.752C74.432 14.528 74.352 14.416 74.256 14.416C74.16 14.384 73.632 14.544 72.672 14.896L71.184 15.328L71.136 15.808C71.136 16.128 71.152 16.288 71.184 16.288C71.248 16.288 71.584 16.192 72.192 16C73.376 15.552 74.064 15.488 74.256 15.808C74.352 15.872 74.416 15.824 74.448 15.664C74.512 15.344 74.528 15.04 74.496 14.752ZM68.208 16.864C68.208 16.576 68.176 16.4 68.112 16.336C68.08 16.24 68.016 16.192 67.92 16.192C67.824 16.192 67.328 16.32 66.432 16.576C65.536 16.8 65.056 16.928 64.992 16.96C64.96 16.992 64.992 17.28 65.088 17.824C65.216 18.336 65.296 18.64 65.328 18.736C65.392 18.8 66 18.576 67.152 18.064L68.16 17.584L68.208 16.864ZM74.4 17.584C74.528 17.424 74.464 17.36 74.208 17.392C73.984 17.456 73.632 17.552 73.152 17.68C72.384 17.936 71.84 18.144 71.52 18.304C71.04 18.528 70.896 18.752 71.088 18.976C71.088 18.976 71.12 18.992 71.184 19.024C71.28 19.056 71.264 19.088 71.136 19.12C71.008 19.12 70.944 19.344 70.944 19.792C70.944 20.144 70.96 20.352 70.992 20.416C71.056 20.48 71.152 20.496 71.28 20.464C72.624 20.08 73.456 19.92 73.776 19.984C74.032 20.048 74.208 19.968 74.304 19.744C74.528 19.264 74.576 18.8 74.448 18.352C74.288 17.936 74.272 17.68 74.4 17.584ZM67.92 20.272C67.92 20.208 67.904 20.176 67.872 20.176C67.872 20.144 67.824 20.128 67.728 20.128C67.632 20.128 67.504 20.144 67.344 20.176C67.216 20.208 67.008 20.288 66.72 20.416C66.144 20.576 65.808 20.688 65.712 20.752C65.616 20.784 65.568 21.008 65.568 21.424C65.568 22.032 65.632 22.368 65.76 22.432C65.888 22.464 66.24 22.352 66.816 22.096L67.92 21.712V21.184C67.92 20.832 67.856 20.64 67.728 20.608C67.632 20.544 67.632 20.512 67.728 20.512C67.856 20.512 67.92 20.432 67.92 20.272ZM73.728 24.976C73.856 24.496 73.968 23.808 74.064 22.912C74.192 22.016 74.256 21.568 74.256 21.568C74.256 21.536 73.76 21.664 72.768 21.952C71.776 22.208 71.232 22.368 71.136 22.432C70.976 22.496 70.88 22.896 70.848 23.632C70.784 26.352 70.688 27.776 70.56 27.904C70.464 27.968 70.432 28.224 70.464 28.672C70.496 29.088 70.528 29.312 70.56 29.344C70.592 29.376 70.784 29.36 71.136 29.296C71.52 29.2 71.84 29.136 72.096 29.104C72.352 29.04 72.48 28.864 72.48 28.576C72.48 28.288 72.432 27.984 72.336 27.664C72.24 27.344 72.208 27.168 72.24 27.136C72.304 27.072 72.592 27.104 73.104 27.232C73.648 27.36 73.936 27.392 73.968 27.328C74.032 27.232 74.032 26.992 73.968 26.608C73.904 26.192 73.824 25.936 73.728 25.84C73.632 25.744 73.632 25.456 73.728 24.976ZM109.056 27.472C109.248 27.28 109.376 27.184 109.44 27.184C109.504 27.184 109.744 27.232 110.16 27.328C111.216 27.52 111.952 27.76 112.368 28.048C112.816 28.304 112.992 28.592 112.896 28.912C112.8 29.168 112.816 29.376 112.944 29.536C113.136 29.696 113.056 30.24 112.704 31.168C112.384 32.064 112.032 32.688 111.648 33.04C111.552 33.2 111.296 33.68 110.88 34.48C110.848 34.512 111.024 34.64 111.408 34.864C111.792 35.056 112.064 35.152 112.224 35.152C112.32 35.152 112.352 35.184 112.32 35.248C112.288 35.312 112.32 35.376 112.416 35.44C112.544 35.504 112.56 35.568 112.464 35.632C112.112 35.792 112.128 35.92 112.512 36.016C112.672 36.112 112.736 36.304 112.704 36.592C112.672 36.816 112.672 36.96 112.704 37.024C112.736 37.056 112.832 37.088 112.992 37.12C113.184 37.216 113.312 37.296 113.376 37.36C113.376 37.392 113.36 37.424 113.328 37.456C113.328 37.488 113.296 37.504 113.232 37.504C113.136 37.504 113.088 37.568 113.088 37.696C113.088 37.824 113.216 37.888 113.472 37.888C113.888 37.888 113.84 37.968 113.328 38.128C113.008 38.192 112.496 38.32 111.792 38.512C110.576 38.768 109.536 39.008 108.672 39.232C107.84 39.456 106.96 39.68 106.032 39.904C105.456 40.032 105.072 40.128 104.88 40.192C104.72 40.288 104.64 40.384 104.64 40.48C104.64 40.672 104.704 41.2 104.832 42.064C104.96 42.928 104.944 43.408 104.784 43.504C104.656 43.632 104.592 43.744 104.592 43.84C104.592 43.968 104.544 44.032 104.448 44.032C104.352 44.032 104.272 44 104.208 43.936C104.176 43.808 104.096 43.776 103.968 43.84C103.84 43.904 103.776 43.888 103.776 43.792C103.776 43.696 103.696 43.648 103.536 43.648C103.408 43.616 103.232 43.488 103.008 43.264C102.816 43.072 102.688 42.864 102.624 42.64C102.496 42.352 102.368 42.224 102.24 42.256C102.112 42.32 101.904 42.208 101.616 41.92C101.328 41.664 101.12 41.536 100.992 41.536C100.896 41.536 100.816 41.392 100.752 41.104C100.72 40.848 100.624 40.112 100.464 38.896C100.24 36.912 100.048 35.6 99.888 34.96C99.76 34.288 99.456 33.344 98.976 32.128C98.4 30.592 97.776 29.616 97.104 29.2C96.848 29.04 96.672 28.848 96.576 28.624C96.48 28.368 96.528 28.192 96.72 28.096C96.848 27.968 96.864 27.856 96.768 27.76C96.576 27.6 96.624 27.52 96.912 27.52C97.104 27.52 97.52 27.552 98.16 27.616C99.12 27.776 99.808 28 100.224 28.288C100.928 28.736 101.504 29.296 101.952 29.968L102.192 30.304L103.776 29.584C106.496 28.368 108.064 27.76 108.48 27.76C108.64 27.76 108.832 27.664 109.056 27.472ZM108.144 32.32C108.208 32.064 108.176 31.936 108.048 31.936C107.92 31.936 107.584 32.064 107.04 32.32C106.528 32.608 105.808 32.88 104.88 33.136C103.984 33.36 103.504 33.52 103.44 33.616C103.376 33.648 103.424 34.112 103.584 35.008C103.744 35.904 103.856 36.384 103.92 36.448C103.984 36.544 104.528 36.384 105.552 35.968L107.04 35.44L107.52 34.096C107.904 33.168 108.112 32.576 108.144 32.32ZM123.264 22.816C123.52 22.72 123.888 22.784 124.368 23.008C124.72 23.2 125.104 23.312 125.52 23.344C126 23.408 126.352 23.568 126.576 23.824C126.8 24.08 127.04 24.576 127.296 25.312C127.552 26.08 127.728 26.848 127.824 27.616C127.92 28.352 127.888 28.784 127.728 28.912C127.664 28.944 127.616 29.12 127.584 29.44C127.584 29.76 127.536 30.016 127.44 30.208C127.376 30.368 127.264 30.72 127.104 31.264C126.944 31.776 126.704 32.208 126.384 32.56C126.064 32.912 125.904 33.152 125.904 33.28C125.904 33.408 125.856 33.456 125.76 33.424C125.664 33.36 125.616 33.392 125.616 33.52C125.616 33.648 125.728 33.76 125.952 33.856C126.144 33.952 126.688 34.096 127.584 34.288C128.48 34.48 129.104 34.592 129.456 34.624C129.936 34.688 130.224 34.864 130.32 35.152C130.384 35.28 130.352 35.376 130.224 35.44C130.096 35.472 130.144 35.584 130.368 35.776C130.592 35.968 130.656 36.064 130.56 36.064C130.272 36.064 130.256 36.24 130.512 36.592C130.608 36.688 130.752 36.768 130.944 36.832C131.232 36.96 131.392 37.12 131.424 37.312C131.488 37.472 131.392 37.6 131.136 37.696C130.976 37.792 130.896 37.936 130.896 38.128C130.896 38.224 130.864 38.288 130.8 38.32C130.736 38.352 130.592 38.336 130.368 38.272L129.888 38.368C129.984 38.528 129.744 38.576 129.168 38.512C128.944 38.48 128.672 38.448 128.352 38.416C126.176 38 124.096 38.016 122.112 38.464C121.152 38.688 120.368 38.832 119.76 38.896C119.312 38.96 119.04 39.024 118.944 39.088C118.848 39.152 118.8 39.296 118.8 39.52C118.704 39.808 118.672 40.32 118.704 41.056C118.736 41.824 118.704 42.208 118.608 42.208C118.544 42.208 118.528 42.304 118.56 42.496C118.592 42.72 118.336 42.544 117.792 41.968C116.992 41.168 116.592 40.56 116.592 40.144C116.592 40.048 116.496 39.952 116.304 39.856C116.112 39.728 116.016 39.584 116.016 39.424C116.016 39.264 115.936 39.184 115.776 39.184C115.648 39.184 115.584 39.136 115.584 39.04C115.584 38.912 115.568 38.592 115.536 38.08C115.536 37.568 115.456 37.248 115.296 37.12C115.136 36.992 115.072 36.736 115.104 36.352C115.104 36.064 115.088 35.92 115.056 35.92C114.928 35.952 114.864 35.952 114.864 35.92C114.864 35.792 114.976 35.648 115.2 35.488C115.36 35.36 115.44 35.232 115.44 35.104C115.472 34.944 115.472 34.464 115.44 33.664C115.344 32.544 115.248 31.68 115.152 31.072C115.088 30.464 115.008 29.968 114.912 29.584C114.88 29.072 114.656 28.464 114.24 27.76C114.144 27.536 114.128 27.408 114.192 27.376C114.32 27.28 114.368 27.152 114.336 26.992C114.336 26.8 114.272 26.608 114.144 26.416C114.016 26.192 113.888 26.08 113.76 26.08C113.664 26.08 113.584 26.048 113.52 25.984C113.488 25.92 113.488 25.84 113.52 25.744C113.584 25.616 113.664 25.488 113.76 25.36C113.952 25.2 114.048 25.04 114.048 24.88C114.048 24.72 114.128 24.672 114.288 24.736C114.448 24.8 114.768 24.896 115.248 25.024C115.76 25.152 116.096 25.264 116.256 25.36C116.448 25.456 117.536 25.152 119.52 24.448C121.504 23.744 122.576 23.312 122.736 23.152C122.928 22.992 123.104 22.88 123.264 22.816ZM123.504 28.24C123.536 27.792 123.488 27.568 123.36 27.568C123.264 27.568 122.608 27.792 121.392 28.24C120.176 28.656 119.376 28.912 118.992 29.008C118.608 29.072 118.416 29.216 118.416 29.44C118.416 29.792 118.48 30.72 118.608 32.224C118.736 33.728 118.816 34.496 118.848 34.528C118.88 34.56 119.328 34.464 120.192 34.24C121.056 33.984 121.552 33.824 121.68 33.76C121.84 33.664 122.144 32.896 122.592 31.456C123.072 29.984 123.376 28.912 123.504 28.24ZM117.12 7.648C117.568 7.36 117.84 7.2 117.936 7.168C118.032 7.136 118.128 7.168 118.224 7.264C118.32 7.328 118.576 7.408 118.992 7.504C119.44 7.6 119.808 7.648 120.096 7.648C120.448 7.616 120.736 7.728 120.96 7.984C121.216 8.208 121.328 8.496 121.296 8.848C121.296 9.168 121.376 9.424 121.536 9.616C121.696 9.776 121.76 10.016 121.728 10.336C121.696 10.656 121.744 10.832 121.872 10.864C122.128 10.896 122.16 11.12 121.968 11.536C121.904 11.696 121.872 11.696 121.872 11.536C121.84 11.056 121.6 11.264 121.152 12.16C121.12 12.256 121.088 12.336 121.056 12.4C120.736 13.104 120.512 13.488 120.384 13.552C120.288 13.616 120.16 13.872 120 14.32L119.76 14.752C119.728 14.656 119.648 14.624 119.52 14.656C119.392 14.656 119.296 14.736 119.232 14.896C119.168 15.184 118.704 15.776 117.84 16.672L117.552 16.96L118.512 17.056C119.152 17.056 119.504 17.072 119.568 17.104C119.664 17.104 119.792 17.12 119.952 17.152C120.112 17.152 120.192 17.232 120.192 17.392C120.224 17.552 120.16 17.68 120 17.776C119.904 17.84 119.904 17.888 120 17.92C120.128 17.952 120.16 18.08 120.096 18.304C120.032 18.528 120.128 18.72 120.384 18.88C120.64 19.04 120.736 19.296 120.672 19.648C120.64 20 120.672 20.192 120.768 20.224L120.288 20.464C119.808 20.656 119.152 20.96 118.32 21.376C117.488 21.792 116.992 22 116.832 22C116.672 22 116.592 22.032 116.592 22.096C116.592 22.192 116.416 22.304 116.064 22.432C115.744 22.56 115.488 22.64 115.296 22.672C115.264 22.672 115.184 22.704 115.056 22.768C114.064 23.216 113.36 23.44 112.944 23.44C112.784 23.44 112.592 23.52 112.368 23.68C112.144 23.84 112.064 24.16 112.128 24.64C112.16 25.504 111.968 25.936 111.552 25.936C111.424 25.936 111.152 25.696 110.736 25.216L109.536 23.872C109.12 23.424 108.816 23.04 108.624 22.72C108.432 22.368 108.304 22.176 108.24 22.144C108.176 22.08 108.128 21.344 108.096 19.936C108.096 18.496 108.064 17.664 108 17.44C107.936 17.216 107.872 16.768 107.808 16.096C107.776 15.424 107.712 15.056 107.616 14.992C107.552 14.896 107.472 14.544 107.376 13.936C107.216 13.136 107.072 12.624 106.944 12.4C106.848 12.176 106.576 11.936 106.128 11.68C105.36 11.2 104.96 10.8 104.928 10.48C104.928 10.352 104.992 10.288 105.12 10.288C105.248 10.288 105.248 10.224 105.12 10.096C105.024 9.968 105.024 9.904 105.12 9.904C105.152 9.904 105.248 9.92 105.408 9.952L106.992 10.24C108.144 10.464 108.88 10.656 109.2 10.816C109.424 10.912 109.648 10.928 109.872 10.864C110.128 10.8 110.816 10.528 111.936 10.048C114.752 8.896 116.48 8.096 117.12 7.648ZM116.304 13.456C116.304 13.232 116.16 13.216 115.872 13.408C115.712 13.472 115.12 13.68 114.096 14.032C113.104 14.352 112.528 14.512 112.368 14.512C112.144 14.512 112.016 14.592 111.984 14.752C111.984 14.88 112.032 15.216 112.128 15.76C112.224 16.464 112.304 17.168 112.368 17.872C112.432 18.544 112.496 18.928 112.56 19.024C112.624 19.088 112.896 19.008 113.376 18.784C113.888 18.528 114.24 18.288 114.432 18.064C114.784 17.648 115.152 16.912 115.536 15.856C116.048 14.576 116.304 13.776 116.304 13.456ZM166.32 14.752C166.896 14.528 167.248 14.416 167.376 14.416L166.56 14.8C166.208 14.896 165.968 14.976 165.84 15.04L165.792 14.944C165.856 14.912 166.032 14.848 166.32 14.752ZM168.336 2.944C168.368 2.688 168.448 2.48 168.576 2.32C168.704 2.16 168.848 2.176 169.008 2.368C169.424 2.848 170 3.264 170.736 3.616C171.152 3.744 171.36 3.872 171.36 4C171.36 4.128 171.504 4.304 171.792 4.528C172.112 4.72 172.272 4.912 172.272 5.104C172.272 5.296 172.32 5.456 172.416 5.584C172.544 5.68 172.592 6.08 172.56 6.784C172.56 7.456 172.496 7.888 172.368 8.08C172.24 8.24 172.032 8.48 171.744 8.8C171.488 9.12 171.376 9.312 171.408 9.376C171.536 9.6 171.904 9.568 172.512 9.28C172.768 9.12 172.976 9.04 173.136 9.04C173.296 9.04 173.408 8.976 173.472 8.848C173.536 8.72 173.648 8.656 173.808 8.656C174 8.656 174.16 8.72 174.288 8.848C174.416 8.976 174.672 9.072 175.056 9.136C175.44 9.2 175.664 9.328 175.728 9.52C175.792 9.68 175.952 9.792 176.208 9.856C176.496 9.92 176.672 10.032 176.736 10.192C176.8 10.352 176.928 10.512 177.12 10.672C177.344 10.832 177.44 11.072 177.408 11.392C177.376 11.68 177.424 11.856 177.552 11.92C177.68 11.952 177.744 12.08 177.744 12.304C177.744 12.496 177.68 12.624 177.552 12.688C177.424 12.72 177.296 12.992 177.168 13.504C177.072 13.984 177.056 14.272 177.12 14.368C177.248 14.432 177.248 14.736 177.12 15.28C177.024 15.92 176.944 16.784 176.88 17.872C176.848 18.288 176.768 18.608 176.64 18.832C176.544 19.024 176.464 19.28 176.4 19.6C176.336 19.888 176.288 20.128 176.256 20.32L176.304 20.368C176.432 20.24 176.512 20.208 176.544 20.272C176.608 20.304 176.544 20.416 176.352 20.608C176.224 20.768 176.064 21.552 175.872 22.96C175.808 23.344 175.712 23.68 175.584 23.968C175.488 24.224 175.376 24.56 175.248 24.976L175.152 25.504L175.632 25.552C175.984 25.648 176.416 25.712 176.928 25.744C177.376 25.808 177.84 25.904 178.32 26.032C178.8 26.16 179.04 26.272 179.04 26.368C179.04 26.464 179.168 26.56 179.424 26.656C179.68 26.752 179.84 26.912 179.904 27.136C179.968 27.328 180.096 27.488 180.288 27.616L180.624 27.76L180.288 27.712C180.064 27.68 179.936 27.696 179.904 27.76L180.192 27.952H180.288C180.544 28.016 180.784 28.112 181.008 28.24C181.232 28.368 181.344 28.48 181.344 28.576C181.344 28.672 181.248 28.704 181.056 28.672C180.896 28.608 180.8 28.624 180.768 28.72C180.736 28.848 180.864 28.976 181.152 29.104C181.408 29.168 181.552 29.408 181.584 29.824C181.616 30.208 181.68 30.48 181.776 30.64C181.936 30.8 181.84 30.848 181.488 30.784C181.232 30.784 180.784 30.704 180.144 30.544C179.312 30.384 178.672 30.288 178.224 30.256C177.392 30.256 175.776 30.48 173.376 30.928C173.12 30.96 172.96 31.04 172.896 31.168C172.832 31.264 172.816 31.488 172.848 31.84C172.848 32.032 172.8 32.16 172.704 32.224C172.608 32.32 172.512 33.536 172.416 35.872C172.352 38.176 172.384 39.408 172.512 39.568C172.544 39.696 172.512 39.792 172.416 39.856C172.32 39.888 172.272 40.16 172.272 40.672C172.272 44.48 172.128 46.48 171.84 46.672C171.776 46.736 171.744 47.136 171.744 47.872V49.024L171.408 48.352C171.216 47.904 171.04 47.664 170.88 47.632C170.752 47.6 170.528 47.376 170.208 46.96C169.92 46.576 169.776 46.304 169.776 46.144C169.776 46.112 169.696 45.984 169.536 45.76C169.376 45.536 169.28 45.296 169.248 45.04C169.248 44.816 169.232 42.56 169.2 38.272C169.168 37.12 169.136 36.064 169.104 35.104C169.104 34.112 169.088 33.328 169.056 32.752C169.024 32.176 168.992 31.888 168.96 31.888C168.64 31.952 167.216 32.272 164.688 32.848C162.256 33.424 160.864 33.568 160.512 33.28C160.416 33.184 160.304 33.104 160.176 33.04C160.048 32.944 159.84 32.816 159.552 32.656C159.296 32.496 159.12 32.432 159.024 32.464C158.96 32.496 158.928 32.816 158.928 33.424C158.928 34.032 158.88 34.336 158.784 34.336C158.72 34.336 158.688 35.056 158.688 36.496C158.72 37.904 158.672 38.736 158.544 38.992C158.416 39.216 158.4 39.328 158.496 39.328C158.528 39.36 158.544 39.456 158.544 39.616C158.576 39.776 158.544 39.968 158.448 40.192C158.384 40.416 158.336 40.56 158.304 40.624C158.208 40.656 158.16 41.12 158.16 42.016C158.192 42.72 158.176 43.088 158.112 43.12C158.112 43.12 158.048 43.088 157.92 43.024C157.792 42.832 157.696 42.656 157.632 42.496C157.568 42.368 157.392 42.32 157.104 42.352C156.848 42.384 156.56 42.208 156.24 41.824C155.92 41.44 155.632 41.12 155.376 40.864C155.12 40.608 155.024 40.352 155.088 40.096C155.152 39.872 155.088 39.696 154.896 39.568C154.704 39.44 154.624 39.216 154.656 38.896C154.72 38.576 154.768 36.864 154.8 33.76C154.864 30.656 154.912 28.816 154.944 28.24C154.976 27.632 154.96 27.328 154.896 27.328C154.864 27.328 154.432 27.52 153.6 27.904C152.8 28.256 152.096 28.544 151.488 28.768C150.912 28.96 150.576 29.104 150.48 29.2C150.416 29.264 150.288 29.296 150.096 29.296C149.936 29.296 149.856 29.36 149.856 29.488C149.856 29.616 149.792 29.664 149.664 29.632C149.664 29.6 149.632 29.6 149.568 29.632C149.536 29.664 149.504 29.728 149.472 29.824C149.472 29.888 149.456 29.984 149.424 30.112C149.392 30.24 149.36 30.4 149.328 30.592C149.136 31.808 149.008 32.48 148.944 32.608C148.848 32.768 148.8 32.864 148.8 32.896L148.56 33.856C148.368 34.4 148.272 34.784 148.272 35.008C148.208 35.424 148.016 35.952 147.696 36.592C147.568 37.008 147.552 37.44 147.648 37.888C147.744 38.048 147.664 38.272 147.408 38.56C147.184 38.816 147.088 39.04 147.12 39.232C147.152 39.392 147.136 39.472 147.072 39.472C147.04 39.472 146.96 39.792 146.832 40.432C146.736 41.072 146.512 41.744 146.16 42.448L145.632 43.504L145.2 43.072C144.56 42.432 144.16 42.112 144 42.112C143.904 42.112 143.856 42.064 143.856 41.968C143.856 41.872 143.728 41.68 143.472 41.392C143.216 41.136 143.104 40.864 143.136 40.576C143.136 40.384 143.12 40.272 143.088 40.24C143.088 40.208 143.024 40.208 142.896 40.24C142.768 40.272 142.752 40.24 142.848 40.144C143.104 39.888 143.088 39.76 142.8 39.76C142.672 39.76 142.576 39.664 142.512 39.472C142.448 39.28 142.368 39.184 142.272 39.184C142.208 39.184 142.192 39.088 142.224 38.896C142.256 38.704 142.224 38.528 142.128 38.368C142.064 38.176 142.128 37.984 142.32 37.792C142.544 37.6 142.576 37.424 142.416 37.264C142.256 37.104 142.224 36.992 142.32 36.928C142.448 36.864 142.48 36.736 142.416 36.544C142.384 36.352 142.448 36.16 142.608 35.968C142.768 35.744 142.864 35.424 142.896 35.008L142.992 34.576C142.992 34.608 143.008 34.688 143.04 34.816C143.072 34.944 143.088 34.928 143.088 34.768C143.12 34.608 143.12 34.304 143.088 33.856C143.056 32.96 143.104 32.512 143.232 32.512C143.392 32.512 143.472 32.4 143.472 32.176C143.472 31.92 143.536 31.632 143.664 31.312C143.792 30.96 143.856 30.688 143.856 30.496C143.856 30.272 143.888 30.064 143.952 29.872C144.176 29.488 144.416 28.688 144.672 27.472C145.12 25.328 145.424 23.776 145.584 22.816C145.616 22.624 145.664 22.352 145.728 22C145.792 21.648 145.76 21.472 145.632 21.472C145.408 21.472 145.392 21.344 145.584 21.088C145.616 21.056 145.648 21.024 145.68 20.992C145.872 20.736 145.984 19.744 146.016 18.016C146.08 16.288 146.064 15.136 145.968 14.56C145.872 13.952 145.632 13.472 145.248 13.12C144.864 12.768 144.592 12.592 144.432 12.592C144.304 12.592 144.256 12.496 144.288 12.304C144.32 12.112 144.192 11.872 143.904 11.584C143.648 11.296 143.568 11.104 143.664 11.008C143.792 10.88 143.808 10.752 143.712 10.624C143.616 10.528 143.568 10.48 143.568 10.48C143.6 10.448 143.664 10.448 143.76 10.48C143.856 10.512 144.112 10.608 144.528 10.768C145.072 10.928 145.824 11.296 146.784 11.872C147.776 12.416 148.528 12.896 149.04 13.312C149.424 13.6 149.76 13.984 150.048 14.464C150.368 14.912 150.528 15.248 150.528 15.472C150.528 15.664 150.624 15.872 150.816 16.096C151.04 16.32 151.104 16.848 151.008 17.68C150.976 18.16 150.96 18.48 150.96 18.64C150.992 18.768 151.056 18.832 151.152 18.832C151.248 18.832 151.664 18.624 152.4 18.208L153.504 17.68L153.552 15.856C153.552 14.64 153.664 13.504 153.888 12.448C154.112 11.36 154.24 9.968 154.272 8.272C154.304 6.672 154.384 5.872 154.512 5.872C154.512 5.872 154.544 5.904 154.608 5.968C154.8 6.064 154.96 6.096 155.088 6.064C155.216 6 155.328 6.08 155.424 6.304C155.552 6.528 155.76 6.816 156.048 7.168C156.464 7.648 156.848 8.544 157.2 9.856C157.552 11.168 157.728 12.4 157.728 13.552C157.728 14.544 157.68 15.184 157.584 15.472C157.52 15.76 157.6 15.92 157.824 15.952C158.048 15.984 158.24 16.08 158.4 16.24C158.592 16.368 158.64 16.512 158.544 16.672C158.416 16.8 158.4 16.864 158.496 16.864C158.56 16.864 158.672 16.832 158.832 16.768C159.152 16.736 159.328 16.816 159.36 17.008C159.392 17.2 159.52 17.296 159.744 17.296C159.904 17.296 160 17.36 160.032 17.488C160.064 17.616 159.984 17.712 159.792 17.776C159.696 17.808 159.632 17.872 159.6 17.968C159.6 18.064 159.632 18.144 159.696 18.208C159.76 18.24 159.872 18.256 160.032 18.256C160.768 18.256 160.544 18.528 159.36 19.072C158.208 19.584 157.456 19.952 157.104 20.176C156.784 20.368 156.576 20.624 156.48 20.944C156.448 21.2 156.4 21.328 156.336 21.328C156.336 21.328 156.304 21.264 156.24 21.136C156.048 20.88 155.632 20.944 154.992 21.328C154.608 21.552 153.792 21.984 152.544 22.624C151.136 23.328 150.432 23.744 150.432 23.872C150.432 23.904 150.464 23.936 150.528 23.968C150.656 24.032 150.672 24.112 150.576 24.208C150.48 24.272 150.432 24.352 150.432 24.448C150.464 24.544 150.544 24.576 150.672 24.544C150.832 24.512 151.024 24.464 151.248 24.4C151.504 24.304 151.712 24.192 151.872 24.064C152.128 23.84 152.336 23.728 152.496 23.728C152.688 23.728 152.784 23.696 152.784 23.632C152.784 23.568 153.008 23.44 153.456 23.248C153.936 23.056 154.288 22.848 154.512 22.624C154.704 22.496 154.832 22.432 154.896 22.432C154.96 22.4 155.072 22.432 155.232 22.528C155.456 22.688 155.728 22.784 156.048 22.816C156.112 22.848 156.176 22.88 156.24 22.912C156.336 22.912 156.4 22.928 156.432 22.96C156.464 22.96 156.48 22.976 156.48 23.008C156.448 23.104 156.496 23.184 156.624 23.248C156.784 23.28 156.992 23.296 157.248 23.296C157.504 23.296 157.664 23.344 157.728 23.44C157.792 23.504 158 23.568 158.352 23.632C158.704 23.696 158.976 23.824 159.168 24.016C159.552 24.496 159.696 24.864 159.6 25.12C159.472 25.12 159.44 25.264 159.504 25.552C159.6 25.808 159.568 26.16 159.408 26.608C159.248 27.056 159.136 27.712 159.072 28.576C159.04 29.408 159.072 29.824 159.168 29.824C159.2 29.824 159.248 29.808 159.312 29.776C159.472 29.68 159.648 29.648 159.84 29.68C160.032 29.68 160.16 29.616 160.224 29.488C160.288 29.36 160.384 29.296 160.512 29.296C160.64 29.296 160.832 29.232 161.088 29.104C161.376 28.944 161.584 28.864 161.712 28.864C161.84 28.864 162.016 28.8 162.24 28.672C162.464 28.512 162.64 28.512 162.768 28.672C162.864 28.768 162.944 28.8 163.008 28.768C163.104 28.704 163.36 28.48 163.776 28.096C164.288 27.552 164.608 27.152 164.736 26.896C164.864 26.64 164.848 26.352 164.688 26.032C164.528 25.68 164.384 25.536 164.256 25.6C164.128 25.664 163.984 25.6 163.824 25.408C163.664 25.216 163.472 25.072 163.248 24.976C163.056 24.88 162.976 24.752 163.008 24.592C163.072 24.4 162.976 24.256 162.72 24.16C162.56 24.064 162.464 23.968 162.432 23.872C162.4 23.744 162.48 23.664 162.672 23.632C162.832 23.6 162.912 23.44 162.912 23.152C162.944 22.832 162.944 21.872 162.912 20.272C162.88 18.448 162.8 17.184 162.672 16.48C162.576 15.776 162.352 15.088 162 14.416C161.52 13.456 161.168 12.976 160.944 12.976C160.848 12.976 160.736 12.896 160.608 12.736C160.48 12.576 160.4 12.4 160.368 12.208C160.368 12.144 160.32 11.936 160.224 11.584C160.16 11.232 160.224 10.96 160.416 10.768C160.64 10.576 160.752 10.432 160.752 10.336C160.752 10.048 161.136 10.096 161.904 10.48C162.128 10.608 162.32 10.736 162.48 10.864C162.576 10.992 162.752 10.944 163.008 10.72C163.296 10.464 164.048 9.696 165.264 8.416C165.936 7.68 166.512 6.992 166.992 6.352C167.504 5.712 167.84 5.2 168 4.816C168.192 4.4 168.24 4.16 168.144 4.096C168.048 4.032 168.048 3.888 168.144 3.664C168.24 3.44 168.304 3.2 168.336 2.944ZM174.144 12.976C174.144 12.688 174.064 12.544 173.904 12.544C173.744 12.512 173.28 12.608 172.512 12.832C171.648 13.024 171.2 13.168 171.168 13.264C171.168 13.296 171.216 13.328 171.312 13.36C171.408 13.392 171.456 13.472 171.456 13.6C171.456 13.696 171.536 13.824 171.696 13.984C171.856 14.144 171.872 14.288 171.744 14.416C171.648 14.512 171.6 14.656 171.6 14.848C171.6 15.008 171.824 15.072 172.272 15.04L172.848 14.896C172.72 14.832 172.752 14.8 172.944 14.8C173.168 14.8 173.28 14.848 173.28 14.944C173.28 15.04 173.344 15.088 173.472 15.088C173.632 15.088 173.68 15.136 173.616 15.232C173.616 15.264 173.632 15.296 173.664 15.328C173.696 15.328 173.744 15.328 173.808 15.328C173.968 15.328 174.064 15.232 174.096 15.04C174.128 14.816 174.144 14.128 174.144 12.976ZM168.768 14.656C168.8 14.432 168.8 14.288 168.768 14.224C168.768 14.16 168.672 14.112 168.48 14.08L168.192 14.128C168.224 14.192 168.208 14.224 168.144 14.224C168.08 14.224 167.952 14.256 167.76 14.32C167.568 14.384 167.536 14.368 167.664 14.272C167.824 14.144 167.856 14.08 167.76 14.08C167.6 14.08 167.184 14.192 166.512 14.416C165.872 14.608 165.52 14.736 165.456 14.8C165.328 14.864 165.312 15.12 165.408 15.568C165.536 15.984 165.6 16.336 165.6 16.624C165.6 16.88 165.632 17.024 165.696 17.056C165.856 17.12 166.624 16.88 168 16.336C168.288 16.208 168.464 16.096 168.528 16C168.624 15.904 168.672 15.76 168.672 15.568C168.672 15.28 168.704 14.976 168.768 14.656ZM174.048 15.808C173.984 15.68 173.904 15.616 173.808 15.616C173.744 15.616 173.68 15.68 173.616 15.808C173.616 15.84 173.632 15.872 173.664 15.904C173.696 15.904 173.744 15.904 173.808 15.904C173.904 15.904 173.968 15.904 174 15.904C174.064 15.872 174.08 15.84 174.048 15.808ZM173.952 16.576C173.984 16.544 173.984 16.464 173.952 16.336C173.92 16.208 173.856 16.208 173.76 16.336C173.696 16.496 173.76 16.576 173.952 16.576ZM173.76 18.496C173.792 18.048 173.792 17.792 173.76 17.728C173.76 17.664 173.696 17.632 173.568 17.632C173.376 17.632 172.96 17.728 172.32 17.92C171.68 18.112 171.312 18.256 171.216 18.352C171.184 18.384 171.072 18.784 170.88 19.552C170.72 20.32 170.64 20.8 170.64 20.992C170.64 21.12 170.768 21.184 171.024 21.184C171.312 21.184 171.504 21.152 171.6 21.088C171.728 20.992 171.76 20.784 171.696 20.464L171.552 20.032L171.984 20.464C172.208 20.784 172.432 20.944 172.656 20.944C172.912 20.944 173.056 20.816 173.088 20.56C173.152 20.336 173.232 20.224 173.328 20.224C173.52 20.224 173.664 19.648 173.76 18.496ZM167.856 19.744C167.856 19.68 167.792 19.664 167.664 19.696C167.536 19.696 167.168 19.792 166.56 19.984C165.984 20.144 165.68 20.256 165.648 20.32C165.616 20.352 165.584 20.688 165.552 21.328C165.552 21.968 165.568 22.32 165.6 22.384C165.632 22.448 165.888 22.416 166.368 22.288C166.848 22.128 167.104 22 167.136 21.904C167.232 21.872 167.376 21.536 167.568 20.896C167.76 20.224 167.856 19.84 167.856 19.744ZM173.76 24.256C173.632 24.032 173.44 23.92 173.184 23.92C172.928 23.888 172.432 23.952 171.696 24.112C170.96 24.24 170.608 24.352 170.64 24.448C170.64 24.448 170.672 24.464 170.736 24.496C170.896 24.56 171.04 24.688 171.168 24.88C171.328 25.04 171.456 25.184 171.552 25.312C171.68 25.44 171.744 25.552 171.744 25.648C171.744 25.744 171.808 25.792 171.936 25.792C172.096 25.792 172.176 25.856 172.176 25.984C172.176 26.08 172.272 26.112 172.464 26.08L173.088 25.888C173.248 25.856 173.328 25.856 173.328 25.888C173.36 25.92 173.36 26 173.328 26.128C173.296 26.256 173.36 26.32 173.52 26.32C173.616 26.32 173.984 26.288 174.624 26.224C175.168 26.032 175.44 25.904 175.44 25.84C175.28 25.744 175.12 25.744 174.96 25.84C174.8 25.904 174.688 25.808 174.624 25.552C174.56 25.264 174.448 25.04 174.288 24.88C174.128 24.688 173.952 24.48 173.76 24.256ZM168.864 26.656C169.024 26.656 169.104 26.624 169.104 26.56C169.104 26.496 169.056 26.368 168.96 26.176C168.896 25.984 168.832 25.984 168.768 26.176C168.64 26.496 168.672 26.656 168.864 26.656Z" fill="white"/>
</svg>
