<svg width="122" height="30" viewBox="0 0 122 30" fill="none" xmlns="http://www.w3.org/2000/svg">
<path d="M6.944 5.768C7.456 5.49067 7.88267 5.384 8.224 5.448C8.71467 5.49067 8.98133 5.53333 9.024 5.576C9.04533 5.64 9.13067 5.672 9.28 5.672C9.45067 5.672 9.64267 5.72533 9.856 5.832C10.0693 5.93867 10.176 6.04533 10.176 6.152C10.176 6.23733 10.2293 6.30133 10.336 6.344C10.4427 6.38667 10.5813 6.504 10.752 6.696C10.9227 6.86667 10.9973 7.06933 10.976 7.304C10.976 7.53867 11.008 7.95467 11.072 8.552C11.1573 9.128 11.1787 9.94933 11.136 11.016L11.04 13.32C10.9547 15.7733 10.848 17.0213 10.72 17.064C10.656 17.0853 10.6453 17.1173 10.688 17.16C10.752 17.2027 10.8053 17.928 10.848 19.336C10.8907 20.7227 10.88 21.512 10.816 21.704C10.7733 21.896 10.784 22.0027 10.848 22.024C10.9547 22.0453 10.9333 22.1307 10.784 22.28C10.7413 22.344 10.688 22.3867 10.624 22.408C10.5173 22.4293 10.464 22.5147 10.464 22.664C10.464 22.792 10.4107 22.8773 10.304 22.92C10.2187 22.9413 10.176 23.0053 10.176 23.112C10.176 23.1973 10.1227 23.3147 10.016 23.464L9.824 23.656L9.088 22.952C8.72533 22.6107 8.50133 22.376 8.416 22.248C8.352 22.12 8.288 21.9173 8.224 21.64C8.13867 21.2133 8.064 20.9787 8 20.936C7.95733 20.8933 7.936 20.7547 7.936 20.52C7.936 20.3067 7.872 20.2 7.744 20.2C7.63733 20.1787 7.424 20.2747 7.104 20.488C6.76267 20.744 6.144 21.1493 5.248 21.704C4.352 22.2373 3.86133 22.568 3.776 22.696C3.54133 22.9947 3.25333 23.016 2.912 22.76C2.82667 22.7173 2.53867 22.6 2.048 22.408C1.664 22.2587 1.39733 22.1413 1.248 22.056C1.12 21.9493 0.928 21.7467 0.672 21.448C0.330667 21.0853 0.213334 20.776 0.32 20.52C0.341334 20.456 0.512 20.424 0.832 20.424C1.23733 20.424 1.71733 20.2747 2.272 19.976L2.464 19.848L2.208 19.528C2.08 19.3147 2.016 19.1867 2.016 19.144C2.016 19.08 1.952 19.0267 1.824 18.984C1.71733 18.9627 1.65333 18.9093 1.632 18.824C1.61067 18.7173 1.61067 18.6107 1.632 18.504C1.65333 18.4827 1.62133 18.4293 1.536 18.344C1.45067 18.3013 1.408 18.1307 1.408 17.832C1.408 17.512 1.45067 17.224 1.536 16.968C1.57867 16.7547 1.61067 16.4027 1.632 15.912C1.67467 15.4213 1.70667 15.1227 1.728 15.016C1.81333 14.696 1.888 13.8533 1.952 12.488C1.99467 11.6987 1.96267 11.144 1.856 10.824C1.74933 10.504 1.68533 10.248 1.664 10.056C1.664 9.864 1.54667 9.65067 1.312 9.416C0.928 8.98933 0.885333 8.776 1.184 8.776C1.376 8.776 1.70667 8.82933 2.176 8.936C3.264 9.21333 3.82933 9.448 3.872 9.64C3.91467 9.72533 4.032 9.82133 4.224 9.928C4.52267 10.12 4.736 10.3867 4.864 10.728C5.01333 11.048 5.10933 11.6347 5.152 12.488L5.216 12.808L5.888 12.424C6.35733 12.2107 6.82667 12.104 7.296 12.104L8 12.072L7.968 10.824C7.94667 9.52267 7.872 8.82933 7.744 8.744C7.65867 8.70133 7.46667 8.76533 7.168 8.936C6.464 9.256 5.96267 9.45867 5.664 9.544C5.36533 9.608 5.07733 9.58667 4.8 9.48C4.608 9.416 4.39467 9.36267 4.16 9.32C3.92533 9.27733 3.776 9.23467 3.712 9.192C3.648 9.128 3.53067 9.096 3.36 9.096C3.18933 9.096 3.04 9.032 2.912 8.904C2.80533 8.776 2.72 8.712 2.656 8.712C2.61333 8.712 2.51733 8.63733 2.368 8.488C2.24 8.33867 2.208 8.22133 2.272 8.136C2.35733 8.05067 3.02933 7.69867 4.288 7.08L6.944 5.768ZM8.032 15.176C8.032 14.8347 8.02133 14.6 8 14.472C8 14.344 7.97867 14.2907 7.936 14.312C7.85067 14.312 7.54133 14.4827 7.008 14.824C6.496 15.144 6.08 15.3467 5.76 15.432C5.35467 15.56 5.12 15.6987 5.056 15.848C5.01333 15.976 4.96 16.392 4.896 17.096L4.832 18.344L5.888 17.928C6.61333 17.6293 7.136 17.4587 7.456 17.416C7.79733 17.3733 7.97867 17.3413 8 17.32C8.04267 17.256 8.05333 16.5413 8.032 15.176ZM15.68 2.728C16.6827 2.19467 17.8133 1.736 19.072 1.352C20.352 0.967999 21.152 0.946665 21.472 1.288C21.5573 1.39466 21.6427 1.448 21.728 1.448C21.8347 1.448 21.888 1.48 21.888 1.544C21.888 1.58667 22.0053 1.65067 22.24 1.736C22.7093 1.864 23.0507 2.19467 23.264 2.728C23.3493 2.856 23.4027 2.93067 23.424 2.952C23.4667 2.97333 23.5413 3.05867 23.648 3.208C23.7547 3.336 23.776 3.48533 23.712 3.656C23.6693 3.76266 23.6053 4.264 23.52 5.16C23.456 6.03467 23.4347 6.67467 23.456 7.08C23.4773 8.18933 23.4453 9.04267 23.36 9.64C23.2747 9.96 23.232 11.0267 23.232 12.84C23.232 14.6533 23.2533 15.9973 23.296 16.872C23.36 17.4693 23.4027 18.152 23.424 18.92C23.4453 19.688 23.456 20.0933 23.456 20.136C23.4773 20.1787 23.4773 20.392 23.456 20.776C23.456 21.5867 23.488 22.5253 23.552 23.592C23.5947 24.1893 23.6053 24.7867 23.584 25.384C23.5627 26.0027 23.52 26.3227 23.456 26.344C23.4133 26.3653 23.4133 26.4613 23.456 26.632C23.4987 26.824 23.4773 26.952 23.392 27.016C23.3067 27.08 23.264 27.176 23.264 27.304C23.264 27.432 23.2427 27.496 23.2 27.496C23.1573 27.496 23.0613 27.6453 22.912 27.944C22.784 28.2427 22.6987 28.488 22.656 28.68C22.6347 28.872 22.592 28.9787 22.528 29C22.464 29.0427 22.432 29.1387 22.432 29.288C22.432 29.4373 22.3893 29.5547 22.304 29.64C22.24 29.7467 22.1973 29.7893 22.176 29.768C22.1547 29.768 22.1013 29.6933 22.016 29.544C21.888 29.352 21.76 29.2133 21.632 29.128C21.504 29.064 21.3867 28.9467 21.28 28.776C21.1947 28.6053 21.0987 28.52 20.992 28.52C20.9493 28.52 20.9067 28.4987 20.864 28.456C20.8427 28.4347 20.8427 28.4133 20.864 28.392C20.864 28.3067 20.8427 28.1787 20.8 28.008C20.7787 27.8587 20.7467 27.6987 20.704 27.528C20.6827 27.3787 20.512 27.0587 20.192 26.568C19.8507 26.0773 19.6267 25.7147 19.52 25.48C19.4133 25.2453 19.3387 24.936 19.296 24.552C19.2533 24.1893 19.264 23.9973 19.328 23.976C19.52 23.912 19.7867 24.072 20.128 24.456C20.448 24.8187 20.6507 24.8293 20.736 24.488C20.7573 24.3173 20.768 23.7627 20.768 22.824C20.768 21.864 20.7467 21.352 20.704 21.288C20.6827 21.2027 20.672 20.3493 20.672 18.728C20.672 17.1067 20.6507 16.2747 20.608 16.232C20.544 16.1253 19.6373 16.4667 17.888 17.256C17.056 17.6187 16.5227 17.8427 16.288 17.928C16.0533 17.992 15.904 18.0773 15.84 18.184C15.7973 18.2907 15.776 18.5893 15.776 19.08C15.776 19.5707 15.7333 19.976 15.648 20.296L15.36 21.8C14.9973 23.912 14.656 25.2133 14.336 25.704C14.272 25.8107 14.1973 25.96 14.112 26.152C14.0693 26.3013 13.8773 26.632 13.536 27.144C13.216 27.6773 13.0347 27.944 12.992 27.944C12.9707 27.944 12.864 27.7627 12.672 27.4C12.5013 27.0587 12.416 26.8667 12.416 26.824C12.416 26.7813 12.3307 26.6427 12.16 26.408C11.9893 26.1947 11.9253 26.0667 11.968 26.024C12.0107 25.9813 12 25.9173 11.936 25.832C11.872 25.7467 11.8827 25.6507 11.968 25.544C12.0533 25.4587 12.0427 25.3733 11.936 25.288C11.8293 25.224 11.7867 25.1067 11.808 24.936C11.8293 24.744 11.808 24.616 11.744 24.552C11.68 24.4667 11.68 24.3813 11.744 24.296C11.8293 24.1893 11.8507 24.136 11.808 24.136C11.7653 24.136 11.7867 24.0933 11.872 24.008C11.9787 23.9013 12.032 23.784 12.032 23.656C12.032 23.528 12.1067 23.272 12.256 22.888C12.5333 22.1627 12.8107 21.1813 13.088 19.944C13.3653 18.6853 13.504 17.8533 13.504 17.448C13.4827 17.1493 13.504 16.9573 13.568 16.872C13.6533 16.7013 13.7493 16.136 13.856 15.176C13.856 14.9627 13.8773 14.7387 13.92 14.504C13.9627 14.2693 13.9947 13.992 14.016 13.672C14.0373 13.352 14.08 12.7013 14.144 11.72C14.2507 10.312 14.24 8.78667 14.112 7.144C13.984 5.50133 13.8027 4.54133 13.568 4.264C13.44 4.09333 13.3227 3.92267 13.216 3.752C13.1093 3.56 12.928 3.37867 12.672 3.208C12.2453 2.90933 12.1707 2.74933 12.448 2.728C12.4907 2.728 12.544 2.728 12.608 2.728L13.376 2.792C13.6747 2.83467 13.92 2.90933 14.112 3.016C14.3467 3.10133 14.5387 3.13333 14.688 3.112C14.8587 3.09067 15.1893 2.96266 15.68 2.728ZM20.512 4.36C20.4907 4.296 20.4373 4.264 20.352 4.264C20.2667 4.264 19.744 4.46667 18.784 4.872C17.824 5.27733 17.344 5.50133 17.344 5.544C17.3227 5.62933 17.12 5.65067 16.736 5.608C16.3733 5.544 16.1707 5.56533 16.128 5.672C16.1067 5.77867 16.1387 6.344 16.224 7.368C16.3093 8.37067 16.3413 9.20267 16.32 9.864L16.288 10.856L16.992 10.472C18.1013 9.832 19.0827 9.416 19.936 9.224L20.448 9.128L20.512 8.168C20.5333 7.61333 20.544 6.86667 20.544 5.928C20.544 4.98933 20.5333 4.46667 20.512 4.36ZM20.544 12.712C20.544 12.456 20.544 12.232 20.544 12.04C20.544 11.8267 20.5333 11.6667 20.512 11.56C20.512 11.4533 20.5013 11.368 20.48 11.304C20.48 11.24 20.4693 11.208 20.448 11.208C20.384 11.2293 19.7653 11.5493 18.592 12.168C17.4187 12.7867 16.7467 13.096 16.576 13.096C16.4693 13.096 16.3947 13.1173 16.352 13.16C16.3307 13.2027 16.2987 13.3413 16.256 13.576C16.192 13.768 16.16 14.0347 16.16 14.376C16.16 14.7173 16.1813 15.016 16.224 15.272C16.2667 15.528 16.3093 15.6453 16.352 15.624C18.1867 14.8347 19.5413 14.376 20.416 14.248C20.5013 14.248 20.544 13.736 20.544 12.712ZM46.976 1.64C47.808 1.49067 48.416 1.53333 48.8 1.768C48.992 1.87467 49.2053 1.94933 49.44 1.992C49.696 2.03467 50.272 2.45067 51.168 3.24C51.5093 3.56 51.5307 3.99733 51.232 4.552C51.0613 4.872 50.9333 5.08533 50.848 5.192C50.7627 5.27733 50.7307 5.34133 50.752 5.384C50.7947 5.42667 50.7307 5.59733 50.56 5.896C50.4107 6.19467 50.336 6.39733 50.336 6.504C50.336 6.61067 50.2827 6.696 50.176 6.76C50.0907 6.824 50.0693 6.888 50.112 6.952C50.1547 6.99467 50.144 7.03733 50.08 7.08C50.016 7.12267 49.984 7.21867 49.984 7.368C49.984 7.496 49.9413 7.60267 49.856 7.688C49.7707 7.77333 49.4827 8.296 48.992 9.256C48.5227 10.216 48.2987 10.7813 48.32 10.952C48.3413 11.1227 48.2667 11.2507 48.096 11.336C47.9253 11.4 47.84 11.4747 47.84 11.56C47.84 11.624 47.744 11.752 47.552 11.944C47.3813 12.136 47.2533 12.232 47.168 12.232C47.1253 12.232 47.0507 12.1253 46.944 11.912C46.8373 11.6987 46.72 11.5813 46.592 11.56C46.4853 11.5173 46.2293 11.56 45.824 11.688C45.4187 11.7947 45.1627 11.88 45.056 11.944C44.9493 12.0293 45.0133 12.1787 45.248 12.392C45.504 12.584 45.6533 12.68 45.696 12.68C45.76 12.68 45.8027 12.7547 45.824 12.904C45.8667 13.032 45.9307 13.096 46.016 13.096C46.1013 13.096 46.1867 13.192 46.272 13.384C46.3787 13.576 46.4853 13.736 46.592 13.864C46.72 13.992 46.8053 14.1307 46.848 14.28C46.8907 14.4293 47.0187 14.4827 47.232 14.44C48.2133 14.2907 48.8 14.152 48.992 14.024C49.0773 13.9387 49.472 13.896 50.176 13.896C50.368 13.896 50.72 13.9813 51.232 14.152C51.6373 14.3013 51.8827 14.408 51.968 14.472C52.0747 14.5147 52.128 14.5787 52.128 14.664C52.128 14.792 52.192 14.888 52.32 14.952C52.448 14.9947 52.6187 15.112 52.832 15.304C53.0453 15.4747 53.1627 15.6987 53.184 15.976V16.36H52.192C51.6587 16.3813 51.2533 16.4133 50.976 16.456C50.6987 16.4987 49.9627 16.6693 48.768 16.968C47.7867 17.2027 47.232 17.3627 47.104 17.448C46.976 17.5333 46.8907 17.8213 46.848 18.312L46.816 18.824H47.136C48.0533 18.824 48.4907 18.8987 48.448 19.048C48.4053 19.1547 48.48 19.272 48.672 19.4C48.8853 19.5067 49.0667 19.624 49.216 19.752C49.3653 19.88 49.4933 19.944 49.6 19.944C49.728 19.944 49.7707 19.9973 49.728 20.104C49.7067 20.2107 49.7493 20.3493 49.856 20.52C49.984 20.6907 50.048 20.8187 50.048 20.904C50.048 20.9893 49.664 21.1813 48.896 21.48L47.328 22.12L46.88 22.28V23.176V24.072L47.648 23.976C48.3947 23.9333 49.12 23.944 49.824 24.008C50.1867 24.0507 50.464 24.168 50.656 24.36C50.8693 24.5307 50.976 24.648 50.976 24.712C50.976 24.776 51.0507 24.8613 51.2 24.968C51.3493 25.0747 51.424 25.1707 51.424 25.256C51.424 25.3413 51.5413 25.416 51.776 25.48C51.9253 25.5653 52 25.6293 52 25.672C51.872 25.7147 51.8187 25.7787 51.84 25.864C51.8827 25.9493 51.9893 26.1093 52.16 26.344C52.3947 26.664 52.5013 26.92 52.48 27.112C52.48 27.2187 52.512 27.304 52.576 27.368C52.6613 27.432 52.6933 27.528 52.672 27.656C52.672 27.784 52.6187 27.848 52.512 27.848C52.448 27.848 52.3733 27.8053 52.288 27.72C52.224 27.656 52.1173 27.6667 51.968 27.752C51.84 27.8373 51.5307 27.8587 51.04 27.816C50.3787 27.7307 49.6853 27.7413 48.96 27.848C48.3627 27.912 47.9253 27.9653 47.648 28.008C45.9627 28.0933 44.736 28.264 43.968 28.52C43.5413 28.6267 43.0827 28.744 42.592 28.872C42.1013 29 41.7707 29.1173 41.6 29.224C41.4507 29.288 41.3333 29.3093 41.248 29.288C41.1627 29.2667 40.9707 29.128 40.672 28.872C40.3947 28.6587 40.128 28.5093 39.872 28.424C39.616 28.36 39.4453 28.2747 39.36 28.168C39.296 28.0827 39.2213 28.04 39.136 28.04C39.0507 28.04 38.8587 27.88 38.56 27.56C38.2827 27.24 38.144 27.0267 38.144 26.92C38.144 26.8347 38.0693 26.76 37.92 26.696C37.792 26.632 37.696 26.5253 37.632 26.376C37.568 26.248 37.5787 26.1627 37.664 26.12C37.856 25.928 38.368 25.8213 39.2 25.8C39.6693 25.7573 40.1707 25.64 40.704 25.448C41.2587 25.256 41.6107 25.1493 41.76 25.128C41.9307 25.1067 42.1973 25.0533 42.56 24.968C42.9227 24.8613 43.2 24.8187 43.392 24.84C43.5413 24.8613 43.6267 24.8613 43.648 24.84C43.6693 24.7547 43.5947 24.68 43.424 24.616C43.4027 24.616 43.3813 24.6053 43.36 24.584C43.168 24.52 43.0933 24.4027 43.136 24.232C43.2427 23.8907 43.2853 23.688 43.264 23.624C43.2427 23.5387 43.1467 23.464 42.976 23.4C42.7627 23.3147 42.496 23.24 42.176 23.176C41.4507 22.984 40.9067 22.7387 40.544 22.44C40.288 22.184 40.2027 22.0347 40.288 21.992C40.3733 21.9493 40.2987 21.8747 40.064 21.768C40.0427 21.768 40.0213 21.7573 40 21.736C39.7013 21.608 39.552 21.512 39.552 21.448C39.552 21.3627 39.6267 21.2773 39.776 21.192C39.9467 21.1067 40.1067 21.064 40.256 21.064C40.4053 21.064 40.4907 21.0427 40.512 21C40.5333 20.936 40.7467 20.8827 41.152 20.84C41.408 20.8187 41.824 20.7333 42.4 20.584C42.9973 20.4133 43.328 20.296 43.392 20.232C43.4987 20.1253 43.52 19.6347 43.456 18.76C43.456 18.568 43.392 18.4827 43.264 18.504C43.136 18.504 42.7627 18.6107 42.144 18.824C39.6053 19.784 38.1653 20.392 37.824 20.648C37.632 20.776 37.4933 20.8613 37.408 20.904C37.344 20.9253 37.2373 20.904 37.088 20.84C36.9387 20.776 36.768 20.6587 36.576 20.488C36.4053 20.3173 36.2987 20.1573 36.256 20.008C36.2347 19.9013 36.1813 19.848 36.096 19.848C36.0107 19.848 35.8827 19.752 35.712 19.56C35.5627 19.368 35.456 19.1973 35.392 19.048C35.3707 18.8987 35.3173 18.8133 35.232 18.792C35.1253 18.7493 35.0293 18.6213 34.944 18.408C34.8587 18.1733 34.816 17.9387 34.816 17.704C34.816 17.2347 35.0613 16.4667 35.552 15.4C36.064 14.3333 36.1707 13.4907 35.872 12.872C35.808 12.7227 35.776 12.6373 35.776 12.616C35.7973 12.5733 35.8613 12.4987 35.968 12.392C36.1173 12.2853 36.2133 12.2533 36.256 12.296C36.32 12.3173 36.5227 12.3813 36.864 12.488C37.1627 12.5733 37.4933 12.7867 37.856 13.128C38.2187 13.448 38.4427 13.7467 38.528 14.024C38.6773 14.4293 38.752 14.92 38.752 15.496C38.752 16.072 38.688 16.5733 38.56 17C38.5387 17.0427 38.6453 17.0427 38.88 17C39.1147 16.936 39.6587 16.7653 40.512 16.488C41.8133 16.04 42.6667 15.752 43.072 15.624L43.648 15.496L43.616 14.152C43.5733 13.2773 43.52 12.808 43.456 12.744C43.392 12.68 43.232 12.7333 42.976 12.904C42.72 13.0747 42.5813 13.224 42.56 13.352C42.496 13.5013 42.4427 13.544 42.4 13.48C42.3573 13.3947 42.272 13.3627 42.144 13.384C42.016 13.4267 41.8133 13.3733 41.536 13.224C41.28 13.0533 41.1627 12.9147 41.184 12.808C41.2267 12.68 41.1307 12.5093 40.896 12.296C40.6613 12.0827 40.4907 12.008 40.384 12.072L40.288 11.944L40.352 11.88C40.3733 11.7307 40.2987 11.5813 40.128 11.432C39.7867 11.0907 39.584 10.5787 39.52 9.896C39.4987 9.46933 39.456 9.21333 39.392 9.128C39.264 8.89333 39.0933 7.752 38.88 5.704C38.7947 5.064 38.656 4.56267 38.464 4.2C38.3787 4.072 38.2187 3.912 37.984 3.72C37.7707 3.50667 37.6853 3.37867 37.728 3.336C37.7707 3.29333 38.1227 3.272 38.784 3.272C39.4453 3.272 39.8507 3.24 40 3.176C40.1707 3.112 40.4373 3.05866 40.8 3.016C41.1627 2.952 41.5467 2.86666 41.952 2.76C43.5947 2.312 44.64 2.056 45.088 1.992C45.3013 1.94933 45.536 1.90667 45.792 1.864C46.048 1.8 46.2293 1.768 46.336 1.768C46.4427 1.768 46.656 1.72533 46.976 1.64ZM47.072 5.352C47.072 5.24533 47.1147 5.05333 47.2 4.776C47.3067 4.47733 47.3387 4.30667 47.296 4.264C47.2107 4.17867 46.2933 4.40267 44.544 4.936C43.776 5.14933 43.1253 5.24533 42.592 5.224L41.76 5.128L41.824 5.48C41.8667 5.672 41.9093 5.90667 41.952 6.184C41.9733 6.41867 42.048 6.54667 42.176 6.568C42.3253 6.568 42.7093 6.472 43.328 6.28C44.48 5.96 45.2587 5.8 45.664 5.8C45.92 5.77867 46.0693 5.77867 46.112 5.8C46.1547 5.82133 46.176 5.87467 46.176 5.96C46.176 6.06667 46.2187 6.12 46.304 6.12C46.3893 6.12 46.496 6.12 46.624 6.12C46.7093 6.09867 46.8053 6.00267 46.912 5.832C47.0187 5.66133 47.072 5.50133 47.072 5.352ZM46.144 7.496C46.144 7.45333 46.1333 7.432 46.112 7.432C46.112 7.432 46.0693 7.44267 45.984 7.464C45.8987 7.48533 45.792 7.528 45.664 7.592C45.5573 7.63467 45.376 7.70933 45.12 7.816C44.3093 8.24267 43.4773 8.54133 42.624 8.712L42.08 8.872L42.112 9.352C42.1333 9.65067 42.1547 9.832 42.176 9.896C42.2187 9.93867 42.432 9.90667 42.816 9.8C43.2213 9.69333 43.744 9.56533 44.384 9.416C45.0453 9.24533 45.408 9.16 45.472 9.16C45.536 9.13867 45.5893 9 45.632 8.744C45.6747 8.46667 45.7707 8.2 45.92 7.944C46.0693 7.66667 46.144 7.51733 46.144 7.496ZM80.992 0.839998C81.056 0.754665 81.5573 0.786665 82.496 0.935999C83.008 1.02133 83.2853 1.064 83.328 1.064C83.3707 1.064 83.392 1.07467 83.392 1.096C83.3707 1.24533 83.392 1.352 83.456 1.416C83.5413 1.48 83.6907 1.53333 83.904 1.576C84.224 1.66133 84.512 1.78933 84.768 1.96C85.0453 2.10933 85.152 2.216 85.088 2.28C85.0667 2.38667 85.248 2.57867 85.632 2.856C86.016 3.112 86.208 3.28267 86.208 3.368C86.208 3.432 86.432 3.592 86.88 3.848C87.2 4.01867 87.392 4.14666 87.456 4.232C87.52 4.31733 87.488 4.41333 87.36 4.52C87.2533 4.62667 87.1787 4.776 87.136 4.968C87.0933 5.16 86.976 5.256 86.784 5.256C86.656 5.23467 86.5707 5.23467 86.528 5.256C86.5067 5.27733 86.496 5.36267 86.496 5.512C86.56 5.72533 86.624 5.85333 86.688 5.896C86.752 5.93867 86.752 6.03467 86.688 6.184C86.624 6.33333 86.6027 6.42933 86.624 6.472C86.6667 6.49333 86.6453 6.504 86.56 6.504C86.4747 6.504 86.4 6.58933 86.336 6.76V6.952C86.3787 6.90933 86.4427 6.92 86.528 6.984C86.6347 7.02667 86.6347 7.048 86.528 7.048C86.4213 7.048 86.3147 7.22933 86.208 7.592C86.144 7.95467 86.0587 9.992 85.952 13.704C85.9093 15.1333 85.8453 15.8587 85.76 15.88C85.696 15.9013 85.7067 15.976 85.792 16.104C85.8773 16.2107 85.8773 16.264 85.792 16.264C85.7067 16.264 85.664 16.296 85.664 16.36C85.664 16.4027 85.7173 16.424 85.824 16.424C85.952 16.424 85.9947 16.5413 85.952 16.776C85.9093 17.0107 85.8453 17.1813 85.76 17.288C85.6747 17.3947 85.6747 17.4693 85.76 17.512C85.8667 17.5547 85.9093 17.992 85.888 18.824C85.8667 19.6347 85.8667 20.0827 85.888 20.168C85.9307 20.232 85.92 20.4773 85.856 20.904C85.792 21.3307 85.728 21.5867 85.664 21.672C85.6213 21.736 85.6427 21.8747 85.728 22.088C85.8133 22.28 85.8133 22.44 85.728 22.568C85.4293 23.144 85.344 23.432 85.472 23.432C85.5147 23.432 85.5573 23.528 85.6 23.72C85.6427 23.8907 85.6427 24.0187 85.6 24.104C85.536 24.2107 85.4933 24.52 85.472 25.032C85.472 25.5653 85.4613 25.8853 85.44 25.992C85.44 26.0987 85.3547 26.2907 85.184 26.568C85.0347 26.8453 84.992 27.112 85.056 27.368C85.1413 27.56 85.152 27.7627 85.088 27.976C85.0453 28.1893 84.9707 28.328 84.864 28.392C84.7573 28.456 84.6827 28.6587 84.64 29C84.6187 29.3413 84.5973 29.5867 84.576 29.736L84.512 29.992L84.192 29.736C83.9573 29.5867 83.8293 29.4587 83.808 29.352C83.7867 29.2453 83.6053 29.0747 83.264 28.84C82.944 28.6053 82.784 28.3707 82.784 28.136C82.784 27.9227 82.7093 27.7413 82.56 27.592C82.432 27.464 82.3787 27.3467 82.4 27.24C82.4427 27.1333 82.4213 27.048 82.336 26.984C82.272 26.9413 82.2293 26.6853 82.208 26.216C82.1867 25.7467 82.0373 25.2133 81.76 24.616L81.28 23.72H80C79.1467 23.7627 78.528 23.816 78.144 23.88C77.76 23.9227 77.536 23.9333 77.472 23.912C77.4293 23.8693 77.3227 23.88 77.152 23.944C77.0027 24.008 76.672 24.0613 76.16 24.104C75.3493 24.2107 73.8347 24.5413 71.616 25.096C71.2747 25.1813 70.9867 25.3093 70.752 25.48C70.5387 25.6507 70.432 25.8107 70.432 25.96C70.432 26.0453 70.4 26.088 70.336 26.088C70.2933 26.088 70.1867 26.0453 70.016 25.96C69.8453 25.832 69.728 25.832 69.664 25.96C69.4933 26.1733 69.3333 26.1093 69.184 25.768C69.0773 25.5547 68.9173 25.3093 68.704 25.032C68.4907 24.776 68.3413 24.7013 68.256 24.808C68.192 24.9147 68.1067 24.84 68 24.584C67.9787 24.4773 67.9467 24.3707 67.904 24.264C67.8613 24.072 67.7653 24.008 67.616 24.072C67.5733 24.0933 67.552 24.136 67.552 24.2C67.552 24.2853 67.4453 24.2213 67.232 24.008C67.0187 23.7733 66.7733 23.6027 66.496 23.496C66.1333 23.4107 65.8027 23.208 65.504 22.888C65.2053 22.568 65.088 22.2907 65.152 22.056C65.152 21.928 65.1093 21.8107 65.024 21.704C64.96 21.5973 64.96 21.48 65.024 21.352C65.1093 21.224 65.1627 20.7227 65.184 19.848C65.2053 18.9733 65.2693 18.3013 65.376 17.832C65.504 17.3627 65.5893 16.7653 65.632 16.04C65.696 14.7813 65.7813 13.7147 65.888 12.84C65.9733 11.8373 66.0053 10.7493 65.984 9.576C65.984 9.04267 66.0053 8.744 66.048 8.68C66.112 8.616 66.144 8.01867 66.144 6.888C66.144 5.94933 66.112 5.37333 66.048 5.16C65.984 4.92533 65.7707 4.66933 65.408 4.392C65.1307 4.2 64.9067 4.01867 64.736 3.848L64.544 3.656C64.5653 3.656 64.5973 3.656 64.64 3.656C64.7893 3.72 65.1307 3.784 65.664 3.848C66.2187 3.89067 66.5387 3.944 66.624 4.008C66.7093 4.072 67.008 4.02933 67.52 3.88C68.0533 3.70933 68.4053 3.624 68.576 3.624C68.7467 3.624 68.928 3.58133 69.12 3.496C69.3333 3.38933 69.472 3.34667 69.536 3.368C69.6213 3.38933 69.7493 3.37867 69.92 3.336C70.0907 3.25067 70.5173 3.12267 71.2 2.952C71.8827 2.76 72.3093 2.65333 72.48 2.632C72.6507 2.632 72.8747 2.568 73.152 2.44C73.4293 2.29067 73.6747 2.20533 73.888 2.184C74.1013 2.14133 74.3893 2.088 74.752 2.024C75.136 1.96 75.52 1.88533 75.904 1.8C76.288 1.69333 76.7467 1.59733 77.28 1.512C78.0907 1.32 78.8267 1.18133 79.488 1.096C79.5733 1.07467 79.6267 1.064 79.648 1.064C79.6693 1.04267 79.8827 1.02133 80.288 0.999998C80.7147 0.957332 80.9493 0.903999 80.992 0.839998ZM77.696 2.216C77.696 2.152 77.6533 2.12 77.568 2.12C77.376 2.12 77.28 2.152 77.28 2.216C77.28 2.25867 77.3013 2.29067 77.344 2.312C77.3867 2.33333 77.44 2.33333 77.504 2.312C77.5893 2.29067 77.6533 2.25867 77.696 2.216ZM82.336 3.816V3.272L81.856 3.24C81.536 3.24 81.3653 3.26133 81.344 3.304C81.3227 3.32533 81.056 3.368 80.544 3.432C80.0533 3.496 79.744 3.528 79.616 3.528C79.4667 3.528 79.232 3.57067 78.912 3.656C78.592 3.72 78.3467 3.77333 78.176 3.816C77.728 3.816 77.76 3.98667 78.272 4.328C78.6133 4.52 78.7947 4.57333 78.816 4.488C78.8373 4.40267 78.912 4.41333 79.04 4.52C79.1893 4.62667 79.2213 5.07467 79.136 5.864L79.072 7.112L79.488 7.272C79.744 7.4 79.872 7.58133 79.872 7.816C79.872 8.02933 79.9787 8.15733 80.192 8.2C80.4053 8.22133 80.544 8.328 80.608 8.52C80.6933 8.69067 80.768 8.776 80.832 8.776C80.9173 8.776 81.12 8.86133 81.44 9.032C81.76 9.18133 81.9733 9.24533 82.08 9.224C82.144 9.18133 82.2293 7.37867 82.336 3.816ZM76.256 5.96C76.2347 4.95733 76.2027 4.424 76.16 4.36C76.1173 4.27467 76.0107 4.25333 75.84 4.296C75.6907 4.31733 75.5627 4.34933 75.456 4.392C75.3707 4.43467 75.232 4.456 75.04 4.456C74.8693 4.456 74.2293 4.62667 73.12 4.968C72.0107 5.30933 71.3493 5.49067 71.136 5.512C70.9227 5.512 70.7733 5.53333 70.688 5.576C70.496 5.72533 70.1547 5.736 69.664 5.608L69.28 5.544L69.664 5.928L69.984 6.312L69.92 8.04C69.8773 9.192 69.8987 9.768 69.984 9.768C70.0693 9.768 70.368 9.68267 70.88 9.512C71.392 9.32 71.68 9.18133 71.744 9.096C71.8293 9.05333 72.3627 8.85067 73.344 8.488C74.3467 8.104 75.0827 7.848 75.552 7.72L76.352 7.496L76.256 5.96ZM78.72 6.12C78.72 5.75733 78.6987 5.576 78.656 5.576C78.6347 5.576 78.624 5.832 78.624 6.344C78.624 6.64267 78.6347 6.83467 78.656 6.92L78.72 6.12ZM82.144 13.736V9.32H81.664C81.1093 9.34133 80.512 9.42667 79.872 9.576C79.232 9.72533 78.88 9.85333 78.816 9.96C78.752 10.088 78.72 11.752 78.72 14.952C78.72 18.1307 78.6987 19.7947 78.656 19.944L78.464 20.392C78.4213 20.5413 78.4 20.6267 78.4 20.648C78.4 20.6693 78.6453 20.7013 79.136 20.744C79.8827 20.808 80.48 20.904 80.928 21.032C81.5893 21.2667 81.9307 21.4907 81.952 21.704C82.0373 21.8107 82.112 21.864 82.176 21.864C82.3253 21.864 82.3253 20.808 82.176 18.696C82.1547 18.2907 82.144 16.6373 82.144 13.736ZM71.584 12.072C71.1147 11.944 70.8373 11.848 70.752 11.784C70.6667 11.6987 70.464 11.6133 70.144 11.528C69.8453 11.4213 69.6747 11.432 69.632 11.56C69.5893 11.6667 69.568 12.2747 69.568 13.384C69.568 14.4933 69.5253 15.3573 69.44 15.976C69.3547 16.5947 69.312 17.224 69.312 17.864C69.312 18.4827 69.2693 18.792 69.184 18.792C69.0987 18.792 69.12 18.8347 69.248 18.92C69.3547 18.9627 69.2693 19.7733 68.992 21.352C68.8853 21.8853 68.864 22.1733 68.928 22.216C68.9707 22.2587 69.056 22.2907 69.184 22.312C69.3333 22.312 69.4613 22.312 69.568 22.312C69.696 22.2907 69.76 22.2587 69.76 22.216C69.76 22.1307 69.8987 22.12 70.176 22.184C70.4533 22.2267 70.6027 22.216 70.624 22.152C70.6667 22.0667 70.9013 21.9813 71.328 21.896C71.7547 21.8107 72.032 21.7467 72.16 21.704C72.608 21.5333 73.0667 21.4267 73.536 21.384C73.8347 21.384 74.048 21.352 74.176 21.288C74.3253 21.2027 74.4107 21.192 74.432 21.256C74.4747 21.32 74.5813 21.352 74.752 21.352C74.944 21.352 75.04 21.32 75.04 21.256C75.04 21.192 75.136 21.16 75.328 21.16C75.52 21.16 75.776 21.064 76.096 20.872C76.1173 20.8507 76.1067 20.7547 76.064 20.584C75.8933 20.2427 75.7653 19.848 75.68 19.4C75.68 19.1227 75.6053 18.7813 75.456 18.376C75.328 17.9493 75.2107 17.736 75.104 17.736C75.0827 17.736 74.9867 17.8533 74.816 18.088C74.6453 18.408 74.3893 18.792 74.048 19.24C73.728 19.6667 73.5253 19.9013 73.44 19.944C73.3547 19.9653 73.312 19.9227 73.312 19.816C73.312 19.6667 73.3973 19.464 73.568 19.208C74.4853 17.992 74.944 17.256 74.944 17C74.944 16.8507 74.9333 16.776 74.912 16.776C74.8907 16.7547 74.8587 16.7973 74.816 16.904C74.0267 18.1627 73.44 18.9733 73.056 19.336C72.8213 19.5493 72.704 19.592 72.704 19.464C72.704 19.3147 72.6293 19.1653 72.48 19.016C72.3307 18.8667 72.2133 18.8133 72.128 18.856C72.064 18.8773 72.0107 18.8347 71.968 18.728C71.9253 18.6 71.904 18.4507 71.904 18.28C71.904 18.152 71.8827 17.896 71.84 17.512C71.8187 17.1067 71.8827 16.8187 72.032 16.648C72.5227 16.136 73.056 15.272 73.632 14.056C74.272 12.6267 74.5813 11.816 74.56 11.624C74.496 11.4533 74.464 11.368 74.464 11.368C74.2507 11.368 73.6853 11.592 72.768 12.04C72.512 12.1253 72.32 12.1787 72.192 12.2C72.0853 12.2 71.8827 12.1573 71.584 12.072ZM78.4 13.064C78.3787 12.872 78.3467 12.776 78.304 12.776C78.2613 12.776 78.24 12.8187 78.24 12.904C78.24 12.9893 78.24 13.0853 78.24 13.192C78.2613 13.2773 78.304 13.32 78.368 13.32L78.4 13.064ZM78.368 15.4C78.3893 15.0373 78.3893 14.664 78.368 14.28C78.304 14.088 78.272 14.088 78.272 14.28C78.272 14.408 78.272 14.6 78.272 14.856L78.368 15.496C78.368 15.4747 78.368 15.4427 78.368 15.4ZM75.744 15.592C76 15.0373 76.1173 14.664 76.096 14.472C76.0747 14.344 75.9893 14.4293 75.84 14.728C75.776 14.8347 75.6907 14.984 75.584 15.176C75.2853 15.816 75.136 16.1893 75.136 16.296C75.136 16.616 75.296 16.4667 75.616 15.848C75.6373 15.784 75.68 15.6987 75.744 15.592ZM76.064 17.288C76.1707 17.288 76.224 17.0533 76.224 16.584C76.224 16.1147 76.192 15.8693 76.128 15.848C76.1067 15.848 76.0747 15.8693 76.032 15.912C75.9893 15.9547 75.936 16.0293 75.872 16.136C75.8293 16.2213 75.776 16.3173 75.712 16.424C75.6693 16.5093 75.6373 16.6053 75.616 16.712C75.5947 16.7973 75.584 16.8613 75.584 16.904C75.584 16.9893 75.6267 17.0747 75.712 17.16C75.8187 17.2453 75.936 17.288 76.064 17.288ZM78.368 16.36C78.3893 16.296 78.3893 16.2 78.368 16.072C78.304 16.0933 78.272 16.1573 78.272 16.264C78.272 16.328 78.304 16.36 78.368 16.36ZM82.208 23.912C82.1867 23.7627 82.048 23.688 81.792 23.688L81.472 23.656L81.696 23.848C81.9947 24.1253 82.1653 24.168 82.208 23.976C82.208 23.9547 82.208 23.9333 82.208 23.912ZM108.704 6.376C108.981 6.312 109.355 6.35467 109.824 6.504C110.229 6.632 110.571 6.78133 110.848 6.952C111.04 7.10133 111.253 7.336 111.488 7.656C111.744 7.976 111.872 8.21067 111.872 8.36C111.872 8.46667 111.925 8.56267 112.032 8.648C112.203 8.904 112.32 9.46933 112.384 10.344C112.427 10.6427 112.331 11.1227 112.096 11.784C111.755 12.808 111.467 13.4053 111.232 13.576L111.168 13.64C111.232 13.64 111.115 13.832 110.816 14.216C110.539 14.6 110.229 15.08 109.888 15.656C109.547 16.2107 109.344 16.4987 109.28 16.52C109.152 16.584 109.163 16.648 109.312 16.712C109.376 16.776 109.461 16.808 109.568 16.808C110.059 16.808 110.923 16.9787 112.16 17.32C113.419 17.64 114.347 17.928 114.944 18.184C115.179 18.312 115.349 18.376 115.456 18.376C115.541 18.376 115.744 18.4507 116.064 18.6C116.384 18.728 116.576 18.8133 116.64 18.856C116.661 18.8773 116.885 18.9947 117.312 19.208C117.739 19.4213 117.952 19.5493 117.952 19.592C117.952 19.6347 118.144 19.816 118.528 20.136C118.933 20.456 119.125 20.648 119.104 20.712C119.083 20.776 119.104 20.8293 119.168 20.872C119.296 20.9573 119.435 21.1173 119.584 21.352C119.733 21.5653 119.819 21.736 119.84 21.864C119.861 22.056 119.904 22.216 119.968 22.344C120.48 23.2613 120.64 23.8267 120.448 24.04C120.363 24.1253 120.533 24.456 120.96 25.032C121.045 25.16 121.024 25.224 120.896 25.224C120.619 25.224 120.267 25.064 119.84 24.744C119.669 24.616 119.531 24.5307 119.424 24.488L118.88 24.104C118.624 23.9333 118.464 23.848 118.4 23.848C118.357 23.848 118.293 23.784 118.208 23.656C118.123 23.5067 117.856 23.3253 117.408 23.112L115.68 22.312C114.912 21.9493 114.432 21.7253 114.24 21.64C114.048 21.5547 113.952 21.4907 113.952 21.448C113.952 21.384 113.92 21.352 113.856 21.352C113.792 21.352 113.44 21.2133 112.8 20.936C112.16 20.6373 111.669 20.424 111.328 20.296C110.539 20.0187 109.664 19.6987 108.704 19.336C108.149 19.144 107.84 19.048 107.776 19.048C107.733 19.048 107.605 19.2187 107.392 19.56C107.179 19.9013 107.04 20.072 106.976 20.072C106.912 20.072 106.88 20.1147 106.88 20.2C106.88 20.2853 106.731 20.5413 106.432 20.968C106.155 21.3733 105.899 21.704 105.664 21.96C105.408 22.216 105.28 22.376 105.28 22.44C105.28 22.504 105.227 22.5787 105.12 22.664C105.013 22.7493 104.896 22.8773 104.768 23.048C104.661 23.2187 104.448 23.432 104.128 23.688C103.808 23.9227 103.627 24.0293 103.584 24.008C103.541 23.9653 103.52 23.9867 103.52 24.072C103.52 24.136 103.488 24.168 103.424 24.168C103.381 24.168 103.36 24.1253 103.36 24.04C103.36 23.8267 103.125 23.3467 102.656 22.6C102.421 22.2587 102.325 22.0773 102.368 22.056C102.411 22.0133 102.379 21.9173 102.272 21.768C102.229 21.6827 102.197 21.576 102.176 21.448C102.155 21.32 102.155 21.2027 102.176 21.096C102.197 20.968 102.229 20.904 102.272 20.904C102.293 20.904 102.304 20.904 102.304 20.904C102.325 20.8827 102.336 20.8507 102.336 20.808C102.315 20.7227 102.368 20.6693 102.496 20.648C102.624 20.6053 102.688 20.5307 102.688 20.424C102.688 20.3173 102.731 20.264 102.816 20.264C102.923 20.264 103.147 20.072 103.488 19.688C103.829 19.2827 104.064 18.952 104.192 18.696C104.32 18.44 104.437 18.2587 104.544 18.152C104.672 18.024 104.736 17.9387 104.736 17.896C104.736 17.832 104.789 17.7467 104.896 17.64C105.024 17.512 105.056 17.4267 104.992 17.384C104.928 17.3413 104.875 17.2667 104.832 17.16C104.789 17.096 104.832 17.0213 104.96 16.936C105.088 16.8507 105.227 16.808 105.376 16.808C105.44 16.808 105.515 16.744 105.6 16.616C105.707 16.4667 105.76 16.3387 105.76 16.232C105.76 16.1893 105.867 15.9973 106.08 15.656C106.315 15.3147 106.453 15.1013 106.496 15.016C106.581 14.952 106.667 14.8453 106.752 14.696C106.837 14.5253 106.88 14.3973 106.88 14.312C106.88 14.2053 106.933 14.1093 107.04 14.024C107.168 13.9173 107.232 13.8107 107.232 13.704C107.232 13.5973 107.296 13.48 107.424 13.352C107.552 13.224 107.616 13.128 107.616 13.064C107.616 12.9787 107.723 12.712 107.936 12.264C108.171 11.816 108.288 11.5707 108.288 11.528C108.288 11.464 108.384 11.2293 108.576 10.824C108.917 10.1413 109.12 9.576 109.184 9.128C109.291 8.57333 109.301 8.14667 109.216 7.848C109.152 7.54933 108.96 7.24 108.64 6.92C108.32 6.64267 108.341 6.46133 108.704 6.376ZM100 4.52C100.277 4.15733 100.512 3.912 100.704 3.784C100.896 3.656 101.163 3.61333 101.504 3.656C101.824 3.67733 102.091 3.76267 102.304 3.912C102.539 4.04 102.816 4.28533 103.136 4.648C103.499 5.07467 103.787 5.37333 104 5.544C104.192 5.69333 104.384 5.90667 104.576 6.184C104.768 6.46133 104.864 6.67467 104.864 6.824C104.864 6.97333 104.747 7.112 104.512 7.24C104.299 7.368 104.128 7.54933 104 7.784C103.872 8.01867 103.733 8.2 103.584 8.328C103.456 8.43467 103.328 8.584 103.2 8.776C103.093 8.94667 102.923 9.14933 102.688 9.384C102.411 9.66133 102.123 10.0453 101.824 10.536C101.547 11.0267 101.408 11.3573 101.408 11.528C101.408 11.6133 101.568 11.8053 101.888 12.104C102.379 12.6587 102.72 13.1813 102.912 13.672C103.125 14.1413 103.253 14.7173 103.296 15.4C103.339 15.9333 103.371 16.2427 103.392 16.328C103.435 16.4133 103.413 16.7013 103.328 17.192C103.264 17.6613 103.157 17.9493 103.008 18.056C102.859 18.1413 102.784 18.3867 102.784 18.792C102.784 19.176 102.763 19.4 102.72 19.464C102.677 19.5067 102.624 19.6453 102.56 19.88L102.464 20.296L101.92 19.592C101.536 19.1227 101.291 18.8347 101.184 18.728C101.077 18.6213 100.981 18.472 100.896 18.28C100.832 18.088 100.757 17.992 100.672 17.992C100.608 17.992 100.555 17.9387 100.512 17.832C100.491 17.7253 100.331 17.4907 100.032 17.128C99.5413 16.4667 99.328 16.04 99.392 15.848C99.456 15.7627 99.584 15.7947 99.776 15.944C100.053 16.1147 100.224 16.168 100.288 16.104C100.373 16.04 100.427 15.784 100.448 15.336C100.469 14.7173 100.373 14.0773 100.16 13.416C99.968 12.7333 99.6907 12.1573 99.328 11.688C98.7947 10.9627 98.6347 10.248 98.848 9.544C98.976 9.18133 99.008 9 98.944 9C98.816 9.02133 98.592 9.07467 98.272 9.16C97.9733 9.24533 97.824 9.29867 97.824 9.32C97.8453 9.40533 97.9627 9.62933 98.176 9.992C98.4107 10.3333 98.5387 10.6 98.56 10.792C98.7093 11.8587 98.784 14.2373 98.784 17.928C98.784 20.744 98.7627 22.6107 98.72 23.528C98.6773 24.4453 98.6027 24.9467 98.496 25.032C98.368 25.1173 98.2933 25.384 98.272 25.832C98.2507 26.6427 98.176 27.0907 98.048 27.176C98.0053 27.1973 97.8667 27.1333 97.632 26.984C97.4187 26.856 97.28 26.7387 97.216 26.632C97.1733 26.5467 96.96 26.3227 96.576 25.96C96.2133 25.6187 96 25.448 95.936 25.448C95.872 25.448 95.84 25.3733 95.84 25.224C95.84 25.0747 95.776 24.968 95.648 24.904C95.4773 24.7547 95.3707 24.52 95.328 24.2C95.2853 23.8587 95.328 23.6347 95.456 23.528C95.52 23.5067 95.552 23.4427 95.552 23.336C95.552 23.208 95.5733 23.1333 95.616 23.112C95.6587 23.0907 95.7013 22.5147 95.744 21.384C95.808 20.2533 95.8613 19.3893 95.904 18.792C95.9893 17.8747 96.0533 16.4667 96.096 14.568C96.1387 12.6693 96.1387 11.6453 96.096 11.496C96.0533 11.4107 96 11.1547 95.936 10.728C95.872 10.28 95.8187 9.97067 95.776 9.8C95.7333 9.62933 95.616 9.36267 95.424 9C95.2533 8.616 95.136 8.424 95.072 8.424C94.944 8.424 94.9333 8.36 95.04 8.232C95.0613 8.14667 95.0933 8.09333 95.136 8.072C95.264 8.02933 95.4347 7.976 95.648 7.912C96.0107 7.848 96.576 7.496 97.344 6.856L98.016 6.344L98.752 5.768L99.36 5.224C99.5093 5.11733 99.7227 4.88267 100 4.52Z" fill="black"/>
</svg>
