<svg width="120" height="30" viewBox="0 0 120 30" fill="none" xmlns="http://www.w3.org/2000/svg">
<path d="M10.176 1.928C10.176 1.84267 10.1867 1.8 10.208 1.8C10.2293 1.77867 10.3147 1.77867 10.464 1.8C10.8907 1.864 11.104 1.97066 11.104 2.12C11.104 2.16267 11.1893 2.184 11.36 2.184C11.5307 2.184 11.68 2.25867 11.808 2.408C11.9573 2.55733 12.1707 2.73867 12.448 2.952C12.7253 3.144 12.864 3.29333 12.864 3.4C12.864 3.48533 12.9173 3.57067 13.024 3.656C13.152 3.74133 13.216 3.82667 13.216 3.912C13.216 3.99733 13.2587 4.04 13.344 4.04C13.4293 4.04 13.504 4.104 13.568 4.232C13.6747 4.552 13.7493 5.064 13.792 5.768C13.856 6.472 13.8453 6.87733 13.76 6.984C13.696 7.06933 13.696 7.15467 13.76 7.24C13.8453 7.32533 13.8133 7.464 13.664 7.656C13.4293 7.93333 13.376 8.072 13.504 8.072C13.632 8.072 13.9093 8.04 14.336 7.976C14.72 7.86933 14.912 7.77333 14.912 7.688C14.912 7.60267 14.944 7.56 15.008 7.56C15.072 7.56 15.0827 7.53867 15.04 7.496C14.9973 7.41067 15.0613 7.38933 15.232 7.432C15.2747 7.432 15.3067 7.432 15.328 7.432C15.5627 7.45333 15.7227 7.368 15.808 7.176C15.872 7.048 15.936 6.984 16 6.984C16.064 6.96267 16.2133 6.96267 16.448 6.984C16.6827 7.00533 16.8213 7.016 16.864 7.016C16.9067 6.99467 16.928 6.94133 16.928 6.856C16.9067 6.792 16.9173 6.74933 16.96 6.728C17.0027 6.70667 17.0987 6.70667 17.248 6.728C17.9947 6.74933 18.432 6.81333 18.56 6.92C18.624 6.984 18.6987 7.016 18.784 7.016C18.8267 7.016 19.1787 7.34667 19.84 8.008C20.5013 8.648 20.928 9.08533 21.12 9.32C21.312 9.55467 21.408 9.768 21.408 9.96C21.408 10.152 21.44 10.2693 21.504 10.312C21.568 10.376 21.5893 10.4293 21.568 10.472C21.568 10.5147 21.536 10.536 21.472 10.536C21.3653 10.536 21.2267 10.5787 21.056 10.664C20.8853 10.7493 20.7573 10.7707 20.672 10.728C20.608 10.664 20.4907 10.6533 20.32 10.696L19.36 10.888C18.336 11.08 17.5147 11.336 16.896 11.656C16.7253 11.72 16.5653 11.7413 16.416 11.72C16.2667 11.6773 16.192 11.6987 16.192 11.784C16.192 11.8693 16.064 11.976 15.808 12.104L14.944 12.456C14.624 12.584 14.24 12.744 13.792 12.936C13.3653 13.1067 13.152 13.2133 13.152 13.256C13.152 13.2987 13.2267 13.3413 13.376 13.384C13.568 13.4267 13.792 13.5547 14.048 13.768C14.304 13.9813 14.4747 14.1627 14.56 14.312C14.624 14.504 14.656 15.048 14.656 15.944C14.656 16.9893 14.5707 17.832 14.4 18.472L14.176 19.208C14.1547 19.3573 14.1227 19.4853 14.08 19.592C13.8453 20.104 13.76 20.4027 13.824 20.488C13.8667 20.5093 14.0907 20.6053 14.496 20.776C16.4587 21.5653 18.0267 22.248 19.2 22.824C20.1813 23.3147 20.704 23.56 20.768 23.56C20.832 23.56 20.9813 23.6667 21.216 23.88L21.952 24.456C22.208 24.6693 22.336 24.808 22.336 24.872C22.336 24.936 22.4107 25.0533 22.56 25.224C22.7307 25.3947 22.8373 25.4693 22.88 25.448C22.9227 25.4267 22.9653 25.448 23.008 25.512C23.0507 25.576 23.0827 25.6507 23.104 25.736C23.1253 25.8213 23.1147 25.8747 23.072 25.896C23.0293 25.96 23.0613 26.152 23.168 26.472C23.2747 26.792 23.3813 27.24 23.488 27.816C23.5733 28.2213 23.616 28.4667 23.616 28.552C23.616 28.6587 23.5627 28.776 23.456 28.904C23.3707 29.0107 23.3067 29.064 23.264 29.064C23.2427 29.0853 23.2107 29.064 23.168 29C23.0613 28.872 22.8907 28.808 22.656 28.808C22.4213 28.808 22.2827 28.7653 22.24 28.68C22.2187 28.616 22.144 28.584 22.016 28.584C21.888 28.584 21.792 28.5093 21.728 28.36C21.6853 28.232 21.568 28.1147 21.376 28.008C21.184 27.9227 21.0347 27.8267 20.928 27.72C20.7787 27.592 20.6187 27.5387 20.448 27.56C20.4053 27.56 20.3733 27.5387 20.352 27.496C20.3307 27.4747 20.32 27.4427 20.32 27.4C20.2773 27.2507 20.1387 27.0907 19.904 26.92C19.6693 26.7707 19.4773 26.6853 19.328 26.664C19.2 26.664 18.9013 26.5147 18.432 26.216C17.984 25.9173 17.728 25.7253 17.664 25.64C17.6213 25.5547 17.504 25.4587 17.312 25.352C17.12 25.2667 16.992 25.2453 16.928 25.288C16.8853 25.3307 16.5547 25.2027 15.936 24.904C15.3387 24.584 14.816 24.3493 14.368 24.2C13.92 24.0293 13.6427 23.912 13.536 23.848C13.4293 23.784 13.1733 23.688 12.768 23.56L12.192 23.4L11.904 23.56C11.6693 23.7093 11.5733 23.8267 11.616 23.912C11.6373 23.9547 11.5947 24.0293 11.488 24.136C11.4027 24.2427 11.3173 24.296 11.232 24.296C11.168 24.296 11.104 24.3707 11.04 24.52C10.976 24.648 10.88 24.7227 10.752 24.744C10.624 24.7653 10.464 24.8507 10.272 25C10.1013 25.1493 9.99467 25.224 9.952 25.224C9.93067 25.224 9.824 25.2987 9.632 25.448C9.44 25.6187 9.19467 25.7787 8.896 25.928C8.61867 26.0987 8.48 26.216 8.48 26.28C8.48 26.344 8.42667 26.3547 8.32 26.312C8.21333 26.2693 8.13867 26.3013 8.096 26.408C8.05333 26.536 7.936 26.6 7.744 26.6C7.552 26.6213 7.41333 26.664 7.328 26.728C7.264 26.792 7.25333 26.824 7.296 26.824L6.56 27.432C6.432 27.5173 6.31467 27.6027 6.208 27.688C5.952 27.8373 5.73867 27.912 5.568 27.912C5.41867 27.912 5.30133 27.9653 5.216 28.072C5.06667 28.1573 4.97067 28.1893 4.928 28.168C4.88533 28.168 4.864 28.104 4.864 27.976C4.864 27.72 4.77867 27.6773 4.608 27.848C4.52267 27.9333 4.43733 27.9227 4.352 27.816C4.288 27.7093 4.21333 27.656 4.128 27.656C4.04267 27.656 3.92533 27.592 3.776 27.464C3.648 27.3573 3.54133 27.304 3.456 27.304C3.392 27.304 3.36 27.2187 3.36 27.048C3.36 26.8987 3.30667 26.824 3.2 26.824C3.11467 26.8453 3.008 26.8453 2.88 26.824C2.752 26.824 2.74133 26.7707 2.848 26.664C2.848 26.6427 2.86933 26.6213 2.912 26.6C3.06133 26.4293 3.37067 26.184 3.84 25.864C4.30933 25.544 4.61867 25.3093 4.768 25.16C4.93867 25.0107 5.10933 24.8827 5.28 24.776C5.472 24.6907 5.84533 24.392 6.4 23.88C6.656 23.6667 6.80533 23.56 6.848 23.56C6.912 23.56 7.02933 23.4747 7.2 23.304C7.73333 22.7707 8.10667 22.4613 8.32 22.376C8.46933 22.312 8.39467 22.2373 8.096 22.152C8.032 22.1093 7.95733 22.088 7.872 22.088C7.53067 22.0027 7.04 21.864 6.4 21.672C5.78133 21.4587 5.344 21.3307 5.088 21.288C4.93867 21.2667 4.768 21.224 4.576 21.16C4.40533 21.0747 4.256 21 4.128 20.936C4 20.8507 3.95733 20.7973 4 20.776C4.02133 20.712 3.98933 20.68 3.904 20.68C3.84 20.68 3.81867 20.6373 3.84 20.552C3.88267 20.4667 3.808 20.392 3.616 20.328C3.44533 20.264 3.37067 20.1573 3.392 20.008C3.41333 19.8587 3.60533 19.7413 3.968 19.656C4.33067 19.5707 5.03467 19.5067 6.08 19.464C6.93333 19.4 7.712 19.3893 8.416 19.432C9.14133 19.4533 9.504 19.496 9.504 19.56C9.504 19.6027 9.44 19.6133 9.312 19.592C9.20533 19.5707 9.152 19.5813 9.152 19.624C9.152 19.7093 9.216 19.7627 9.344 19.784C9.472 19.8267 9.61067 19.8587 9.76 19.88C9.90933 19.88 10.0267 19.88 10.112 19.88C10.1973 19.8587 10.24 19.8267 10.24 19.784C10.24 19.72 10.304 19.6773 10.432 19.656C10.56 19.6133 10.6347 19.5387 10.656 19.432C10.6987 19.304 10.912 18.856 11.296 18.088C11.7653 17.1067 12.0747 16.3387 12.224 15.784C12.3307 15.3573 12.384 14.9413 12.384 14.536C12.384 14.1307 12.3307 13.8853 12.224 13.8C12.1387 13.7147 11.5307 13.96 10.4 14.536C9.29067 15.112 8.704 15.4 8.64 15.4C8.59733 15.3787 8.42667 15.464 8.128 15.656C7.85067 15.8267 7.63733 15.944 7.488 16.008C7.33867 16.0507 7.2 16.1253 7.072 16.232C6.944 16.3387 6.816 16.392 6.688 16.392C6.56 16.392 6.38933 16.4773 6.176 16.648C5.96267 16.7973 5.792 16.872 5.664 16.872C5.536 16.872 5.39733 16.9253 5.248 17.032C5.12 17.1173 5.024 17.1493 4.96 17.128C4.896 17.0853 4.81067 17.1067 4.704 17.192C4.61867 17.256 4.58667 17.32 4.608 17.384C4.62933 17.448 4.56533 17.5653 4.416 17.736L4.192 17.96V17.672C4.192 17.5013 4.14933 17.4373 4.064 17.48C3.97867 17.5227 3.808 17.48 3.552 17.352C3.296 17.2027 3.12533 17.1493 3.04 17.192C2.976 17.2133 2.90133 17.128 2.816 16.936C2.752 16.808 2.66667 16.712 2.56 16.648C2.47467 16.584 2.41067 16.5947 2.368 16.68C2.34667 16.7227 2.29333 16.712 2.208 16.648C2.12267 16.584 2.03733 16.4987 1.952 16.392C1.86667 16.264 1.792 16.1573 1.728 16.072C1.70667 15.9227 1.62133 15.848 1.472 15.848C1.42933 15.848 1.39733 15.8373 1.376 15.816C1.35467 15.7947 1.344 15.7627 1.344 15.72C1.36533 15.6773 1.344 15.6347 1.28 15.592C1.23733 15.5493 1.17333 15.496 1.088 15.432C0.938667 15.368 0.853334 15.3147 0.832 15.272C0.810667 15.208 0.810667 15.1227 0.832 15.016C0.832 14.824 0.8 14.728 0.736 14.728C0.672 14.792 0.597334 14.792 0.512 14.728C0.448 14.664 0.416 14.5787 0.416 14.472C0.416 14.408 0.490667 14.312 0.64 14.184C0.789334 14.0347 1.00267 13.9707 1.28 13.992C1.55733 13.992 1.728 13.9493 1.792 13.864C1.87733 13.7573 2.048 13.6933 2.304 13.672C2.64533 13.6293 3.25333 13.3947 4.128 12.968C4.59733 12.776 4.992 12.6267 5.312 12.52C5.632 12.392 5.86667 12.264 6.016 12.136C6.18667 12.008 6.32533 11.944 6.432 11.944C6.56 11.944 6.624 11.9227 6.624 11.88C6.624 11.816 6.72 11.7307 6.912 11.624C7.104 11.5173 7.2 11.496 7.2 11.56C7.2 11.6027 7.264 11.5493 7.392 11.4C7.54133 11.2507 7.648 11.1973 7.712 11.24C7.776 11.2613 7.81867 11.24 7.84 11.176C7.904 11.0907 8.288 10.8773 8.992 10.536C9.312 10.3867 9.504 10.28 9.568 10.216C9.65333 10.152 9.73867 10.12 9.824 10.12C9.90933 10.12 10.0373 10.0453 10.208 9.896C10.4 9.74667 10.624 9.62933 10.88 9.544C11.136 9.45867 11.264 9.39467 11.264 9.352C11.264 9.288 11.3173 9.256 11.424 9.256C11.616 9.256 11.5413 9.064 11.2 8.68C10.7307 8.18933 10.5173 7.93333 10.56 7.912C10.6027 7.848 10.5813 7.688 10.496 7.432C10.4107 7.15467 10.3893 6.71733 10.432 6.12C10.496 5.52267 10.56 5.17067 10.624 5.064C10.688 4.936 10.7093 4.76533 10.688 4.552C10.5387 3.25067 10.4107 2.51467 10.304 2.344C10.2187 2.216 10.176 2.07733 10.176 1.928ZM44.704 6.152C44.704 5.96 44.896 6.00267 45.28 6.28C45.408 6.36533 45.5147 6.46133 45.6 6.568C46.3467 7.42133 46.72 7.92267 46.72 8.072C46.72 8.136 46.7627 8.21067 46.848 8.296C47.2747 8.76533 47.52 9.18133 47.584 9.544C47.6693 9.88533 47.6267 10.5573 47.456 11.56C47.2853 12.4773 47.2 13.0427 47.2 13.256V13.64L47.424 13.32C47.5947 13.128 47.936 12.5627 48.448 11.624C48.96 10.6853 49.2907 10.0133 49.44 9.608C49.76 8.84 49.7707 8.33867 49.472 8.104C49.3653 8.06133 49.3547 7.96533 49.44 7.816C49.568 7.56 49.7173 7.432 49.888 7.432C50.0587 7.432 50.3147 7.58133 50.656 7.88C50.976 8.17867 51.2213 8.40267 51.392 8.552C51.7333 8.78667 52.0427 9.14933 52.32 9.64C52.6827 10.344 52.544 11.368 51.904 12.712C51.392 13.736 50.9547 14.472 50.592 14.92C50.5067 14.984 50.3147 15.2293 50.016 15.656C49.44 16.488 48.8747 17.2347 48.32 17.896C48.1067 18.1733 47.8613 18.5253 47.584 18.952C47.328 19.3573 47.2 19.592 47.2 19.656C47.2 19.9547 48.1387 20.1147 50.016 20.136C51.2533 20.1573 52 20.2 52.256 20.264C52.512 20.328 52.6827 20.3173 52.768 20.232C52.8747 20.1253 53.0453 20.1573 53.28 20.328C53.5147 20.4773 53.7067 20.5733 53.856 20.616C54.0267 20.6373 54.1867 20.6907 54.336 20.776C54.5067 20.8613 54.6773 20.9467 54.848 21.032C55.04 21.096 55.2213 21.1707 55.392 21.256C55.5627 21.3413 55.648 21.3733 55.648 21.352C55.648 21.3093 55.712 21.32 55.84 21.384C55.968 21.448 56.1067 21.5333 56.256 21.64C56.4267 21.7467 56.5547 21.8533 56.64 21.96L56.96 22.248L56.736 22.472C56.6507 22.5147 56.5867 22.5787 56.544 22.664C56.5227 22.7493 56.5227 22.824 56.544 22.888C56.5653 22.952 56.608 22.984 56.672 22.984C56.736 22.984 56.768 23.0373 56.768 23.144C56.768 23.2507 56.8427 23.3253 56.992 23.368C57.0987 23.4533 57.088 23.5067 56.96 23.528C56.9173 23.528 56.864 23.5387 56.8 23.56C56.5227 23.5813 56.384 23.6453 56.384 23.752C56.384 23.8587 56.288 23.912 56.096 23.912C55.904 23.912 55.552 23.944 55.04 24.008C53.888 24.2213 52.3413 24.3067 50.4 24.264C49.4613 24.2427 48.6293 24.0933 47.904 23.816C47.4773 23.6453 47.168 23.4427 46.976 23.208C46.784 22.952 46.4853 22.6107 46.08 22.184C45.6747 21.736 45.4187 21.416 45.312 21.224C44.992 20.6267 44.8427 19.112 44.864 16.68C44.864 15.1867 44.9067 14.1093 44.992 13.448C45.12 11.9547 45.1627 10.8453 45.12 10.12C45.0773 9.37333 44.9493 8.744 44.736 8.232C44.6293 7.99733 44.544 7.72 44.48 7.4C44.416 7.08 44.3947 6.81333 44.416 6.6C44.4373 6.36533 44.48 6.248 44.544 6.248C44.6507 6.248 44.704 6.216 44.704 6.152ZM38.304 5.224C38.0907 4.968 38.016 4.79733 38.08 4.712C38.1653 4.62667 38.2933 4.60533 38.464 4.648L39.392 4.936C39.8613 5.08533 40.1387 5.20267 40.224 5.288C40.3307 5.352 40.416 5.384 40.48 5.384C40.672 5.384 40.9813 5.544 41.408 5.864C41.856 6.184 42.08 6.408 42.08 6.536C42.08 6.6 42.1333 6.68533 42.24 6.792C42.3467 6.92 42.3893 7.112 42.368 7.368C42.368 7.624 42.304 7.80533 42.176 7.912C42.0693 8.06133 41.9307 8.296 41.76 8.616C41.6107 8.91467 41.44 9.21333 41.248 9.512C41.056 9.78933 40.96 9.94933 40.96 9.992C40.96 10.0347 40.832 10.2053 40.576 10.504C40.3413 10.8027 40.096 11.1333 39.84 11.496C39.6053 11.8587 39.4133 12.104 39.264 12.232C39.136 12.36 38.9867 12.5413 38.816 12.776L38.24 13.448C38.0693 13.64 38.0053 13.768 38.048 13.832C38.0907 13.896 38.2827 14.0133 38.624 14.184C38.9653 14.3547 39.296 14.536 39.616 14.728C39.936 14.92 40.128 15.1653 40.192 15.464C40.2773 15.7413 40.2773 16.3173 40.192 17.192C40.0427 19.56 39.8933 21.0427 39.744 21.64C39.7013 21.8747 39.6267 22.3013 39.52 22.92C39.4133 23.5387 39.3173 24.008 39.232 24.328C39.168 24.6267 39.0933 24.9253 39.008 25.224C38.9653 25.5013 38.88 25.736 38.752 25.928C38.624 26.12 38.5067 26.1947 38.4 26.152C38.3147 26.1307 38.272 26.0667 38.272 25.96C38.272 25.832 37.92 25.4587 37.216 24.84C36.6827 24.3493 36.4587 23.9867 36.544 23.752C36.608 23.6453 36.5653 23.5067 36.416 23.336C36.288 23.144 36.192 22.9627 36.128 22.792C36.064 22.6 36.0747 22.4827 36.16 22.44C36.1813 22.44 36.192 22.44 36.192 22.44C36.2133 22.44 36.2133 22.4507 36.192 22.472C36.1707 22.536 36.1813 22.5787 36.224 22.6C36.2453 22.6213 36.2773 22.4933 36.32 22.216C36.384 21.9387 36.4267 21.6507 36.448 21.352C36.4907 21.032 36.5013 20.8613 36.48 20.84C36.4373 20.8187 36.448 20.7653 36.512 20.68C36.5973 20.5947 36.64 20.264 36.64 19.688C36.6613 19.112 36.6933 18.2267 36.736 17.032C36.7787 15.8373 36.7787 15.24 36.736 15.24C36.5867 15.24 36.224 15.5493 35.648 16.168C35.2213 16.616 34.72 17.128 34.144 17.704C33.568 18.28 33.0667 18.7813 32.64 19.208C32.2347 19.6133 32.0213 19.8053 32 19.784C31.9787 19.7627 31.9573 19.656 31.936 19.464C31.936 19.272 31.8613 19.0907 31.712 18.92C31.5627 18.7493 31.488 18.6107 31.488 18.504C31.488 18.3973 31.4347 18.3333 31.328 18.312C31.2 18.2907 31.1147 18.1733 31.072 17.96C31.0293 17.7253 31.0293 17.512 31.072 17.32C31.0933 17.1067 31.0827 16.9893 31.04 16.968C30.8907 16.8827 30.8907 16.7013 31.04 16.424C31.1893 16.1467 31.4133 15.9013 31.712 15.688C31.9253 15.5173 32.032 15.3893 32.032 15.304C32.032 15.2187 32.0853 15.1653 32.192 15.144C32.32 15.1013 32.48 14.9627 32.672 14.728C33.248 14.0453 33.9947 13.0853 34.912 11.848C35.1253 11.5493 35.392 11.1547 35.712 10.664L36.736 9.032C38.016 7.06933 38.656 5.96 38.656 5.704C38.656 5.61867 38.5387 5.45867 38.304 5.224ZM81.696 6.76L81.728 6.44V6.504C81.7493 6.65333 81.7493 6.81333 81.728 6.984C81.7067 6.92 81.696 6.84533 81.696 6.76ZM67.776 3.4C68.0747 3.29333 68.2987 3.22933 68.448 3.208C68.6187 3.18667 68.9707 3.19733 69.504 3.24C70.0373 3.28267 70.4853 3.38933 70.848 3.56C71.232 3.73067 71.4773 3.816 71.584 3.816C71.648 3.816 71.744 3.93333 71.872 4.168C72 4.40267 72.0533 4.59467 72.032 4.744C72.032 4.872 72.0747 5 72.16 5.128C72.2667 5.256 72.2987 5.37333 72.256 5.48C72.2133 5.58667 72.224 5.704 72.288 5.832C72.3733 5.93867 72.3733 6.088 72.288 6.28C72.2027 6.45067 72.1493 6.536 72.128 6.536C72.128 6.536 72.032 6.49333 71.84 6.408C71.5627 6.32267 71.2 6.36533 70.752 6.536C70.6667 6.57867 70.6453 6.61067 70.688 6.632C70.7733 6.696 70.7947 6.76 70.752 6.824C70.7093 6.86667 70.6453 6.856 70.56 6.792C70.4747 6.70667 70.3573 6.68533 70.208 6.728C70.0587 6.77067 69.9307 6.74933 69.824 6.664C69.7173 6.6 69.472 6.57867 69.088 6.6C68.7253 6.6 68.5013 6.64267 68.416 6.728C68.3307 6.792 68.256 6.80267 68.192 6.76C68.1707 6.73867 68.0853 6.74933 67.936 6.792C67.7867 6.83467 67.6907 6.89867 67.648 6.984C67.6267 7.02667 67.5413 7.09067 67.392 7.176L67.2 7.368L67.264 7.048C67.328 6.856 67.3067 6.728 67.2 6.664C67.1147 6.6 67.0933 6.49333 67.136 6.344C67.1787 6.17333 67.1467 6.04533 67.04 5.96C66.9333 5.87467 66.9653 5.74667 67.136 5.576C67.2853 5.42667 67.3387 5.32 67.296 5.256C67.2747 5.17067 67.136 5.064 66.88 4.936C66.6453 4.82933 66.528 4.72267 66.528 4.616C66.528 4.50933 66.496 4.456 66.432 4.456C66.368 4.456 66.336 4.41333 66.336 4.328C66.336 4.22133 66.2613 4.136 66.112 4.072C65.9627 4.008 65.888 3.88 65.888 3.688V3.432L66.624 3.464C67.1147 3.528 67.4987 3.50667 67.776 3.4ZM77.056 1.256C77.0347 1.17067 77.0453 1.128 77.088 1.128C77.152 1.128 77.2373 1.13866 77.344 1.16C77.6 1.20267 77.856 1.24533 78.112 1.288C78.368 1.33067 78.6133 1.448 78.848 1.64C79.0827 1.832 79.3813 2.024 79.744 2.216C80.1067 2.408 80.4693 2.664 80.832 2.984C81.1947 3.304 81.3973 3.54933 81.44 3.72C81.4827 3.89067 81.4613 4.02933 81.376 4.136C81.2693 4.28533 81.216 5 81.216 6.28C81.216 7.13333 81.216 8.2 81.216 9.48C81.216 10.12 81.2267 10.4613 81.248 10.504C81.2693 10.5467 81.408 10.6 81.664 10.664C82.6667 10.8347 83.232 10.9627 83.36 11.048C83.4453 11.1333 83.5413 11.176 83.648 11.176C83.712 11.176 83.8827 11.2933 84.16 11.528C84.4373 11.7627 84.576 11.912 84.576 11.976C84.576 11.9973 84.4907 12.168 84.32 12.488C84.1493 12.7867 84.096 13.0107 84.16 13.16C84.288 13.4587 84.2773 13.608 84.128 13.608C84 13.608 83.5307 13.7467 82.72 14.024C81.9093 14.28 81.4933 14.408 81.472 14.408C81.472 14.408 81.472 14.5147 81.472 14.728C81.472 14.92 81.4293 15.4853 81.344 16.424C81.2587 17.3413 81.1947 18.1413 81.152 18.824L81.056 19.816L81.376 19.784C81.8667 19.6773 82.5707 19.6133 83.488 19.592C84.0853 19.5707 84.4587 19.496 84.608 19.368C84.7787 19.24 85.0027 19.2187 85.28 19.304C85.5573 19.368 85.9627 19.4 86.496 19.4C86.8373 19.3787 87.0507 19.3787 87.136 19.4C87.2427 19.4213 87.328 19.496 87.392 19.624C87.4987 19.7947 87.6693 19.9333 87.904 20.04C88.224 20.1893 88.6613 20.52 89.216 21.032C89.5573 21.3733 89.8027 21.5973 89.952 21.704L90.176 21.832L89.984 22.12C89.856 22.3547 89.7493 22.472 89.664 22.472C89.5787 22.472 89.4613 22.536 89.312 22.664C89.184 22.792 89.0987 22.92 89.056 23.048C89.0133 23.176 89.024 23.2827 89.088 23.368C89.1947 23.4747 89.1947 23.528 89.088 23.528C89.024 23.5067 88.928 23.4853 88.8 23.464C88.3093 23.272 88.064 23.24 88.064 23.368C88.064 23.4747 88.16 23.528 88.352 23.528C88.544 23.528 88.64 23.56 88.64 23.624C88.64 23.6667 88.1813 23.688 87.264 23.688C86.4747 23.624 86.08 23.5707 86.08 23.528C86.144 23.4853 86.1227 23.464 86.016 23.464C85.8453 23.464 85.376 23.4747 84.608 23.496C83.4773 23.5387 82.2507 23.5707 80.928 23.592C79.6053 23.592 78.72 23.624 78.272 23.688C77.824 23.752 77.2693 23.8373 76.608 23.944C75.968 24.0293 75.616 24.0827 75.552 24.104C75.4453 24.1467 75.264 24.1787 75.008 24.2C74.752 24.2213 74.5173 24.232 74.304 24.232C74.0907 24.232 73.984 24.2213 73.984 24.2C73.984 24.1147 73.8027 24.04 73.44 23.976C73.2053 23.9333 72.896 23.8373 72.512 23.688C72.1493 23.5173 71.9467 23.3893 71.904 23.304C71.904 23.2613 71.8187 23.2187 71.648 23.176C71.52 23.112 71.4667 23.048 71.488 22.984C71.5307 22.8987 71.6053 22.856 71.712 22.856C71.968 22.856 72 22.8027 71.808 22.696C71.744 22.6533 71.68 22.6107 71.616 22.568L71.328 22.472L71.648 22.344L71.936 22.248L71.584 22.056C71.3067 21.9067 71.1467 21.8747 71.104 21.96C71.0827 22.0453 71.0613 22.6213 71.04 23.688C70.9973 25.0533 70.9333 26.0027 70.848 26.536C70.784 27.0907 70.656 27.496 70.464 27.752C70.3147 27.9227 70.1973 28.2213 70.112 28.648C69.9413 29.3093 69.792 29.64 69.664 29.64C69.6213 29.64 69.5573 29.5653 69.472 29.416C69.3867 29.1387 69.1307 28.7867 68.704 28.36C68.5973 28.232 68.4693 28.168 68.32 28.168C68.192 28.168 68.128 28.0933 68.128 27.944C68.128 27.7947 68.0853 27.6987 68 27.656C67.936 27.6133 67.8827 27.4427 67.84 27.144C67.8187 26.8667 67.84 26.6853 67.904 26.6C67.968 26.472 67.9893 26.376 67.968 26.312C67.9467 26.248 67.968 26.1947 68.032 26.152C68.096 26.1307 68.0427 26.0453 67.872 25.896C67.7013 25.7467 67.6373 25.5547 67.68 25.32C67.744 24.9573 67.8187 24.6587 67.904 24.424C67.9467 24.2533 67.9573 23.688 67.936 22.728C67.936 21.768 67.9147 21.1387 67.872 20.84C67.8293 20.648 67.7973 20.5413 67.776 20.52C67.7547 20.4987 67.712 20.52 67.648 20.584C67.5413 20.6693 67.2213 21.1067 66.688 21.896C66.176 22.6853 65.888 23.1333 65.824 23.24C65.7813 23.3253 65.696 23.4 65.568 23.464C65.4613 23.528 65.3653 23.624 65.28 23.752C65.216 23.88 65.1627 23.9653 65.12 24.008C65.0773 24.0293 64.8853 24.296 64.544 24.808C64.2667 25.2347 63.9787 25.608 63.68 25.928C63.3813 26.248 63.1787 26.408 63.072 26.408C62.9867 26.408 62.8693 26.248 62.72 25.928C62.592 25.6293 62.4213 25.4053 62.208 25.256C62.016 25.128 61.9413 25 61.984 24.872C62.0267 24.7227 62.0267 24.6267 61.984 24.584C61.8773 24.52 61.8347 24.4133 61.856 24.264C61.8987 24.1147 61.9947 23.976 62.144 23.848C62.464 23.6133 62.4533 23.4213 62.112 23.272C61.9413 23.208 61.856 23.1227 61.856 23.016C61.856 22.9093 61.92 22.7387 62.048 22.504C62.1973 22.248 62.3147 22.1093 62.4 22.088C62.4853 22.0667 62.784 21.704 63.296 21C63.8293 20.2747 64.352 19.5387 64.864 18.792C65.312 18.1307 65.5573 17.7893 65.6 17.768C65.664 17.7253 65.7387 17.5867 65.824 17.352C65.9307 17.096 66.0693 16.8613 66.24 16.648C66.432 16.4133 66.528 16.2747 66.528 16.232C66.528 16.1893 66.6027 16.008 66.752 15.688C66.9013 15.368 66.9867 15.08 67.008 14.824C67.0507 14.5893 67.0507 14.472 67.008 14.472C67.008 14.4507 66.976 14.4613 66.912 14.504C66.784 14.568 66.6453 14.696 66.496 14.888C66.368 15.0587 66.272 15.144 66.208 15.144C66.08 15.144 65.8667 15.1013 65.568 15.016C65.2907 14.9093 65.12 14.824 65.056 14.76C65.0347 14.7173 64.928 14.696 64.736 14.696C64.5653 14.696 64.3733 14.6213 64.16 14.472C63.9467 14.3013 63.8293 14.2267 63.808 14.248C63.7227 14.3547 63.488 14.2693 63.104 13.992C62.72 13.6933 62.528 13.48 62.528 13.352C62.528 13.224 62.4747 13.096 62.368 12.968C62.2613 12.84 62.176 12.6907 62.112 12.52L62.048 12.264H62.592C62.8907 12.264 63.2107 12.1787 63.552 12.008C63.9147 11.8373 64.6507 11.432 65.76 10.792C67.552 9.74667 68.5547 9.192 68.768 9.128C69.2373 9.064 69.472 8.88267 69.472 8.584C69.472 8.43467 69.5467 8.328 69.696 8.264C69.8453 8.17867 69.9947 8.2 70.144 8.328C70.2933 8.43467 70.528 8.49867 70.848 8.52C71.2533 8.584 71.84 8.968 72.608 9.672L73.056 10.056L73.024 10.856C72.9813 11.4107 72.9493 11.752 72.928 11.88C72.9067 11.944 72.832 12.0293 72.704 12.136C72.576 12.2213 72.4587 12.264 72.352 12.264C72.2667 12.264 72.1173 12.424 71.904 12.744L71.424 13.48C71.3387 13.6507 71.2427 13.8533 71.136 14.088C71.072 14.2587 71.04 14.3653 71.04 14.408C71.0613 14.4293 71.1253 14.472 71.232 14.536C71.3387 14.5787 71.4027 14.6533 71.424 14.76C71.4453 14.8667 71.424 14.952 71.36 15.016C71.2747 15.08 71.2853 15.208 71.392 15.4C71.52 15.592 71.6693 15.752 71.84 15.88C72.6293 16.4133 73.2373 17.1493 73.664 18.088C73.984 18.728 74.1333 19.2293 74.112 19.592C74.0907 19.9333 74.0373 20.1147 73.952 20.136C73.888 20.1573 73.856 20.3067 73.856 20.584C73.856 20.776 73.8667 20.8933 73.888 20.936C73.9093 20.9787 73.9733 20.9893 74.08 20.968C74.208 20.9253 74.464 20.8827 74.848 20.84C76.256 20.6053 77.0773 20.456 77.312 20.392C77.5467 20.3067 77.6533 20.1573 77.632 19.944C77.6107 19.7093 77.5253 19.5387 77.376 19.432L77.184 19.272L77.44 18.856C77.5893 18.664 77.664 18.4933 77.664 18.344C77.6853 18.1947 77.6533 17.768 77.568 17.064C77.568 17 77.6 16.7227 77.664 16.232L77.696 15.56L76.768 15.336L75.744 15.112C75.6373 15.0907 75.4453 15.0587 75.168 15.016C74.8907 14.9733 74.72 14.92 74.656 14.856C74.592 14.792 74.464 14.76 74.272 14.76C74.1653 14.76 74.0907 14.76 74.048 14.76C74.0053 14.7387 73.9947 14.7067 74.016 14.664C74.0373 14.5573 73.9947 14.504 73.888 14.504C73.8027 14.4827 73.888 14.376 74.144 14.184L74.56 13.896L74.08 13.864C73.888 13.8213 73.76 13.7893 73.696 13.768C73.6533 13.7467 73.6427 13.704 73.664 13.64C73.728 13.256 74.0373 13.032 74.592 12.968C74.912 12.9467 75.1573 12.8933 75.328 12.808C75.4987 12.7013 75.648 12.648 75.776 12.648C75.904 12.648 76.096 12.5733 76.352 12.424C76.608 12.2747 76.8107 12.1787 76.96 12.136C77.1093 12.0933 77.312 12.0187 77.568 11.912L77.984 11.752L77.92 10.664C77.856 9.91733 77.8133 9.448 77.792 9.256C77.6427 8.104 77.568 6.78133 77.568 5.288C77.568 4.66933 77.536 4.04 77.472 3.4C77.408 2.73867 77.344 2.33333 77.28 2.184C77.216 2.056 77.1733 1.90667 77.152 1.736C77.1307 1.544 77.0987 1.384 77.056 1.256ZM71.424 19.976C71.3813 19.784 71.3387 19.6773 71.296 19.656C71.2533 19.6133 71.1893 19.624 71.104 19.688C71.0187 19.752 70.976 19.976 70.976 20.36C70.976 20.7227 71.0187 20.9893 71.104 21.16C71.1253 21.2667 71.168 21.3307 71.232 21.352C71.3173 21.3733 71.4987 21.3733 71.776 21.352C72.672 21.3307 73.12 21.2453 73.12 21.096C73.12 21.032 72.9173 20.8827 72.512 20.648C72.128 20.392 71.8933 20.264 71.808 20.264C71.6587 20.264 71.5307 20.168 71.424 19.976ZM112.992 0.839998C113.056 0.754665 113.557 0.786665 114.496 0.935999C115.008 1.02133 115.285 1.064 115.328 1.064C115.371 1.064 115.392 1.07467 115.392 1.096C115.371 1.24533 115.392 1.352 115.456 1.416C115.541 1.48 115.691 1.53333 115.904 1.576C116.224 1.66133 116.512 1.78933 116.768 1.96C117.045 2.10933 117.152 2.216 117.088 2.28C117.067 2.38667 117.248 2.57867 117.632 2.856C118.016 3.112 118.208 3.28267 118.208 3.368C118.208 3.432 118.432 3.592 118.88 3.848C119.2 4.01867 119.392 4.14666 119.456 4.232C119.52 4.31733 119.488 4.41333 119.36 4.52C119.253 4.62667 119.179 4.776 119.136 4.968C119.093 5.16 118.976 5.256 118.784 5.256C118.656 5.23467 118.571 5.23467 118.528 5.256C118.507 5.27733 118.496 5.36267 118.496 5.512C118.56 5.72533 118.624 5.85333 118.688 5.896C118.752 5.93867 118.752 6.03467 118.688 6.184C118.624 6.33333 118.603 6.42933 118.624 6.472C118.667 6.49333 118.645 6.504 118.56 6.504C118.475 6.504 118.4 6.58933 118.336 6.76V6.952C118.379 6.90933 118.443 6.92 118.528 6.984C118.635 7.02667 118.635 7.048 118.528 7.048C118.421 7.048 118.315 7.22933 118.208 7.592C118.144 7.95467 118.059 9.992 117.952 13.704C117.909 15.1333 117.845 15.8587 117.76 15.88C117.696 15.9013 117.707 15.976 117.792 16.104C117.877 16.2107 117.877 16.264 117.792 16.264C117.707 16.264 117.664 16.296 117.664 16.36C117.664 16.4027 117.717 16.424 117.824 16.424C117.952 16.424 117.995 16.5413 117.952 16.776C117.909 17.0107 117.845 17.1813 117.76 17.288C117.675 17.3947 117.675 17.4693 117.76 17.512C117.867 17.5547 117.909 17.992 117.888 18.824C117.867 19.6347 117.867 20.0827 117.888 20.168C117.931 20.232 117.92 20.4773 117.856 20.904C117.792 21.3307 117.728 21.5867 117.664 21.672C117.621 21.736 117.643 21.8747 117.728 22.088C117.813 22.28 117.813 22.44 117.728 22.568C117.429 23.144 117.344 23.432 117.472 23.432C117.515 23.432 117.557 23.528 117.6 23.72C117.643 23.8907 117.643 24.0187 117.6 24.104C117.536 24.2107 117.493 24.52 117.472 25.032C117.472 25.5653 117.461 25.8853 117.44 25.992C117.44 26.0987 117.355 26.2907 117.184 26.568C117.035 26.8453 116.992 27.112 117.056 27.368C117.141 27.56 117.152 27.7627 117.088 27.976C117.045 28.1893 116.971 28.328 116.864 28.392C116.757 28.456 116.683 28.6587 116.64 29C116.619 29.3413 116.597 29.5867 116.576 29.736L116.512 29.992L116.192 29.736C115.957 29.5867 115.829 29.4587 115.808 29.352C115.787 29.2453 115.605 29.0747 115.264 28.84C114.944 28.6053 114.784 28.3707 114.784 28.136C114.784 27.9227 114.709 27.7413 114.56 27.592C114.432 27.464 114.379 27.3467 114.4 27.24C114.443 27.1333 114.421 27.048 114.336 26.984C114.272 26.9413 114.229 26.6853 114.208 26.216C114.187 25.7467 114.037 25.2133 113.76 24.616L113.28 23.72H112C111.147 23.7627 110.528 23.816 110.144 23.88C109.76 23.9227 109.536 23.9333 109.472 23.912C109.429 23.8693 109.323 23.88 109.152 23.944C109.003 24.008 108.672 24.0613 108.16 24.104C107.349 24.2107 105.835 24.5413 103.616 25.096C103.275 25.1813 102.987 25.3093 102.752 25.48C102.539 25.6507 102.432 25.8107 102.432 25.96C102.432 26.0453 102.4 26.088 102.336 26.088C102.293 26.088 102.187 26.0453 102.016 25.96C101.845 25.832 101.728 25.832 101.664 25.96C101.493 26.1733 101.333 26.1093 101.184 25.768C101.077 25.5547 100.917 25.3093 100.704 25.032C100.491 24.776 100.341 24.7013 100.256 24.808C100.192 24.9147 100.107 24.84 100 24.584C99.9787 24.4773 99.9467 24.3707 99.904 24.264C99.8613 24.072 99.7653 24.008 99.616 24.072C99.5733 24.0933 99.552 24.136 99.552 24.2C99.552 24.2853 99.4453 24.2213 99.232 24.008C99.0187 23.7733 98.7733 23.6027 98.496 23.496C98.1333 23.4107 97.8027 23.208 97.504 22.888C97.2053 22.568 97.088 22.2907 97.152 22.056C97.152 21.928 97.1093 21.8107 97.024 21.704C96.96 21.5973 96.96 21.48 97.024 21.352C97.1093 21.224 97.1627 20.7227 97.184 19.848C97.2053 18.9733 97.2693 18.3013 97.376 17.832C97.504 17.3627 97.5893 16.7653 97.632 16.04C97.696 14.7813 97.7813 13.7147 97.888 12.84C97.9733 11.8373 98.0053 10.7493 97.984 9.576C97.984 9.04267 98.0053 8.744 98.048 8.68C98.112 8.616 98.144 8.01867 98.144 6.888C98.144 5.94933 98.112 5.37333 98.048 5.16C97.984 4.92533 97.7707 4.66933 97.408 4.392C97.1307 4.2 96.9067 4.01867 96.736 3.848L96.544 3.656C96.5653 3.656 96.5973 3.656 96.64 3.656C96.7893 3.72 97.1307 3.784 97.664 3.848C98.2187 3.89067 98.5387 3.944 98.624 4.008C98.7093 4.072 99.008 4.02933 99.52 3.88C100.053 3.70933 100.405 3.624 100.576 3.624C100.747 3.624 100.928 3.58133 101.12 3.496C101.333 3.38933 101.472 3.34667 101.536 3.368C101.621 3.38933 101.749 3.37867 101.92 3.336C102.091 3.25067 102.517 3.12267 103.2 2.952C103.883 2.76 104.309 2.65333 104.48 2.632C104.651 2.632 104.875 2.568 105.152 2.44C105.429 2.29067 105.675 2.20533 105.888 2.184C106.101 2.14133 106.389 2.088 106.752 2.024C107.136 1.96 107.52 1.88533 107.904 1.8C108.288 1.69333 108.747 1.59733 109.28 1.512C110.091 1.32 110.827 1.18133 111.488 1.096C111.573 1.07467 111.627 1.064 111.648 1.064C111.669 1.04267 111.883 1.02133 112.288 0.999998C112.715 0.957332 112.949 0.903999 112.992 0.839998ZM109.696 2.216C109.696 2.152 109.653 2.12 109.568 2.12C109.376 2.12 109.28 2.152 109.28 2.216C109.28 2.25867 109.301 2.29067 109.344 2.312C109.387 2.33333 109.44 2.33333 109.504 2.312C109.589 2.29067 109.653 2.25867 109.696 2.216ZM114.336 3.816V3.272L113.856 3.24C113.536 3.24 113.365 3.26133 113.344 3.304C113.323 3.32533 113.056 3.368 112.544 3.432C112.053 3.496 111.744 3.528 111.616 3.528C111.467 3.528 111.232 3.57067 110.912 3.656C110.592 3.72 110.347 3.77333 110.176 3.816C109.728 3.816 109.76 3.98667 110.272 4.328C110.613 4.52 110.795 4.57333 110.816 4.488C110.837 4.40267 110.912 4.41333 111.04 4.52C111.189 4.62667 111.221 5.07467 111.136 5.864L111.072 7.112L111.488 7.272C111.744 7.4 111.872 7.58133 111.872 7.816C111.872 8.02933 111.979 8.15733 112.192 8.2C112.405 8.22133 112.544 8.328 112.608 8.52C112.693 8.69067 112.768 8.776 112.832 8.776C112.917 8.776 113.12 8.86133 113.44 9.032C113.76 9.18133 113.973 9.24533 114.08 9.224C114.144 9.18133 114.229 7.37867 114.336 3.816ZM108.256 5.96C108.235 4.95733 108.203 4.424 108.16 4.36C108.117 4.27467 108.011 4.25333 107.84 4.296C107.691 4.31733 107.563 4.34933 107.456 4.392C107.371 4.43467 107.232 4.456 107.04 4.456C106.869 4.456 106.229 4.62667 105.12 4.968C104.011 5.30933 103.349 5.49067 103.136 5.512C102.923 5.512 102.773 5.53333 102.688 5.576C102.496 5.72533 102.155 5.736 101.664 5.608L101.28 5.544L101.664 5.928L101.984 6.312L101.92 8.04C101.877 9.192 101.899 9.768 101.984 9.768C102.069 9.768 102.368 9.68267 102.88 9.512C103.392 9.32 103.68 9.18133 103.744 9.096C103.829 9.05333 104.363 8.85067 105.344 8.488C106.347 8.104 107.083 7.848 107.552 7.72L108.352 7.496L108.256 5.96ZM110.72 6.12C110.72 5.75733 110.699 5.576 110.656 5.576C110.635 5.576 110.624 5.832 110.624 6.344C110.624 6.64267 110.635 6.83467 110.656 6.92L110.72 6.12ZM114.144 13.736V9.32H113.664C113.109 9.34133 112.512 9.42667 111.872 9.576C111.232 9.72533 110.88 9.85333 110.816 9.96C110.752 10.088 110.72 11.752 110.72 14.952C110.72 18.1307 110.699 19.7947 110.656 19.944L110.464 20.392C110.421 20.5413 110.4 20.6267 110.4 20.648C110.4 20.6693 110.645 20.7013 111.136 20.744C111.883 20.808 112.48 20.904 112.928 21.032C113.589 21.2667 113.931 21.4907 113.952 21.704C114.037 21.8107 114.112 21.864 114.176 21.864C114.325 21.864 114.325 20.808 114.176 18.696C114.155 18.2907 114.144 16.6373 114.144 13.736ZM103.584 12.072C103.115 11.944 102.837 11.848 102.752 11.784C102.667 11.6987 102.464 11.6133 102.144 11.528C101.845 11.4213 101.675 11.432 101.632 11.56C101.589 11.6667 101.568 12.2747 101.568 13.384C101.568 14.4933 101.525 15.3573 101.44 15.976C101.355 16.5947 101.312 17.224 101.312 17.864C101.312 18.4827 101.269 18.792 101.184 18.792C101.099 18.792 101.12 18.8347 101.248 18.92C101.355 18.9627 101.269 19.7733 100.992 21.352C100.885 21.8853 100.864 22.1733 100.928 22.216C100.971 22.2587 101.056 22.2907 101.184 22.312C101.333 22.312 101.461 22.312 101.568 22.312C101.696 22.2907 101.76 22.2587 101.76 22.216C101.76 22.1307 101.899 22.12 102.176 22.184C102.453 22.2267 102.603 22.216 102.624 22.152C102.667 22.0667 102.901 21.9813 103.328 21.896C103.755 21.8107 104.032 21.7467 104.16 21.704C104.608 21.5333 105.067 21.4267 105.536 21.384C105.835 21.384 106.048 21.352 106.176 21.288C106.325 21.2027 106.411 21.192 106.432 21.256C106.475 21.32 106.581 21.352 106.752 21.352C106.944 21.352 107.04 21.32 107.04 21.256C107.04 21.192 107.136 21.16 107.328 21.16C107.52 21.16 107.776 21.064 108.096 20.872C108.117 20.8507 108.107 20.7547 108.064 20.584C107.893 20.2427 107.765 19.848 107.68 19.4C107.68 19.1227 107.605 18.7813 107.456 18.376C107.328 17.9493 107.211 17.736 107.104 17.736C107.083 17.736 106.987 17.8533 106.816 18.088C106.645 18.408 106.389 18.792 106.048 19.24C105.728 19.6667 105.525 19.9013 105.44 19.944C105.355 19.9653 105.312 19.9227 105.312 19.816C105.312 19.6667 105.397 19.464 105.568 19.208C106.485 17.992 106.944 17.256 106.944 17C106.944 16.8507 106.933 16.776 106.912 16.776C106.891 16.7547 106.859 16.7973 106.816 16.904C106.027 18.1627 105.44 18.9733 105.056 19.336C104.821 19.5493 104.704 19.592 104.704 19.464C104.704 19.3147 104.629 19.1653 104.48 19.016C104.331 18.8667 104.213 18.8133 104.128 18.856C104.064 18.8773 104.011 18.8347 103.968 18.728C103.925 18.6 103.904 18.4507 103.904 18.28C103.904 18.152 103.883 17.896 103.84 17.512C103.819 17.1067 103.883 16.8187 104.032 16.648C104.523 16.136 105.056 15.272 105.632 14.056C106.272 12.6267 106.581 11.816 106.56 11.624C106.496 11.4533 106.464 11.368 106.464 11.368C106.251 11.368 105.685 11.592 104.768 12.04C104.512 12.1253 104.32 12.1787 104.192 12.2C104.085 12.2 103.883 12.1573 103.584 12.072ZM110.4 13.064C110.379 12.872 110.347 12.776 110.304 12.776C110.261 12.776 110.24 12.8187 110.24 12.904C110.24 12.9893 110.24 13.0853 110.24 13.192C110.261 13.2773 110.304 13.32 110.368 13.32L110.4 13.064ZM110.368 15.4C110.389 15.0373 110.389 14.664 110.368 14.28C110.304 14.088 110.272 14.088 110.272 14.28C110.272 14.408 110.272 14.6 110.272 14.856L110.368 15.496C110.368 15.4747 110.368 15.4427 110.368 15.4ZM107.744 15.592C108 15.0373 108.117 14.664 108.096 14.472C108.075 14.344 107.989 14.4293 107.84 14.728C107.776 14.8347 107.691 14.984 107.584 15.176C107.285 15.816 107.136 16.1893 107.136 16.296C107.136 16.616 107.296 16.4667 107.616 15.848C107.637 15.784 107.68 15.6987 107.744 15.592ZM108.064 17.288C108.171 17.288 108.224 17.0533 108.224 16.584C108.224 16.1147 108.192 15.8693 108.128 15.848C108.107 15.848 108.075 15.8693 108.032 15.912C107.989 15.9547 107.936 16.0293 107.872 16.136C107.829 16.2213 107.776 16.3173 107.712 16.424C107.669 16.5093 107.637 16.6053 107.616 16.712C107.595 16.7973 107.584 16.8613 107.584 16.904C107.584 16.9893 107.627 17.0747 107.712 17.16C107.819 17.2453 107.936 17.288 108.064 17.288ZM110.368 16.36C110.389 16.296 110.389 16.2 110.368 16.072C110.304 16.0933 110.272 16.1573 110.272 16.264C110.272 16.328 110.304 16.36 110.368 16.36ZM114.208 23.912C114.187 23.7627 114.048 23.688 113.792 23.688L113.472 23.656L113.696 23.848C113.995 24.1253 114.165 24.168 114.208 23.976C114.208 23.9547 114.208 23.9333 114.208 23.912Z" fill="black"/>
</svg>
