<svg width="146" height="35" viewBox="0 0 146 35" fill="none" xmlns="http://www.w3.org/2000/svg">
<path d="M7.232 3.448C7.36 3.29867 7.46667 3.224 7.552 3.224C7.63733 3.224 7.76533 3.29867 7.936 3.448C8.128 3.59733 8.29867 3.704 8.448 3.768C8.61867 3.81067 8.88533 4.03467 9.248 4.44C9.61067 4.824 9.86667 5.03733 10.016 5.08C10.1653 5.10133 10.2613 5.18667 10.304 5.336C10.3467 5.48533 10.4213 5.60267 10.528 5.688C10.656 5.77333 10.6667 5.83733 10.56 5.88C10.4747 5.92267 10.432 6.008 10.432 6.136C10.432 6.24267 10.3467 6.37067 10.176 6.52C10.0267 6.66933 9.952 6.776 9.952 6.84C9.952 6.88267 9.76 7.14933 9.376 7.64C8.992 8.10933 8.704 8.42933 8.512 8.6L7.392 9.784L6.752 10.36L7.232 10.232C8.91733 9.72 9.89867 9.464 10.176 9.464C10.3253 9.464 10.4107 9.4 10.432 9.272C10.4533 9.16533 10.5493 9.10133 10.72 9.08C10.8907 9.03733 11.0507 9.03733 11.2 9.08C11.4987 9.22933 11.84 9.432 12.224 9.688C12.608 9.92267 12.8213 10.0827 12.864 10.168C12.9067 10.2533 13.0027 10.2747 13.152 10.232C13.536 10.1253 14.208 10.4667 15.168 11.256C15.552 11.5547 15.68 11.7253 15.552 11.768C15.5307 11.768 15.488 11.7787 15.424 11.8C15.3387 11.8213 15.2747 11.9387 15.232 12.152C15.1893 12.344 15.2107 12.5147 15.296 12.664C15.3387 12.7707 15.328 12.856 15.264 12.92C15.0507 13.0693 14.9227 13.4853 14.88 14.168C14.8587 14.8293 14.88 16.44 14.944 19C15.008 21.1547 15.04 22.584 15.04 23.288C15.04 23.9707 15.0507 24.312 15.072 24.312C15.0933 24.312 15.104 24.5253 15.104 24.952C15.1253 25.3573 15.168 25.944 15.232 26.712C15.3173 27.4587 15.3387 27.9813 15.296 28.28C15.2747 28.5787 15.264 28.9307 15.264 29.336C15.264 29.6987 15.232 29.9227 15.168 30.008C15.1253 30.1147 15.0187 30.1467 14.848 30.104C14.6987 30.0187 14.6133 29.9973 14.592 30.04C14.5707 30.0827 14.5707 30.328 14.592 30.776C14.6133 31.3307 14.56 31.5973 14.432 31.576C14.3467 31.5333 14.24 31.3627 14.112 31.064C14.0053 30.808 13.8987 30.68 13.792 30.68C13.7067 30.7013 13.664 30.68 13.664 30.616C13.664 30.5733 13.6 30.5627 13.472 30.584C13.3653 30.6053 13.1947 30.5627 12.96 30.456C12.7467 30.3493 12.64 30.2533 12.64 30.168C12.64 30.104 12.5333 30.0293 12.32 29.944C12.1067 29.8587 11.9467 29.7307 11.84 29.56C11.7547 29.4107 11.6693 29.336 11.584 29.336C11.328 29.336 11.1787 28.952 11.136 28.184L11.072 27.448L9.92 27.512C9.17333 27.5333 8.62933 27.5867 8.288 27.672L6.848 27.928C6.22933 28.0347 5.696 28.1947 5.248 28.408C4.8 28.6427 4.52267 28.7387 4.416 28.696C4.33067 28.6747 4.288 28.728 4.288 28.856C4.288 28.9627 4.23467 29.1333 4.128 29.368C4.04267 29.624 3.95733 29.784 3.872 29.848C3.808 29.912 3.72267 30.1253 3.616 30.488L3.52 31.032L3.36 30.776C3.14667 30.3707 2.912 30.104 2.656 29.976C2.50667 29.9333 2.28267 29.7307 1.984 29.368C1.70667 29.0053 1.55733 28.7493 1.536 28.6C1.472 28.3013 1.472 27.9173 1.536 27.448C1.62133 26.5733 1.696 25.5173 1.76 24.28C1.78133 23.1493 1.80267 22.552 1.824 22.488C1.86667 22.3387 1.87733 21.304 1.856 19.384C1.83467 17.4427 1.78133 15.992 1.696 15.032C1.632 13.816 1.52533 13.112 1.376 12.92C1.33333 12.856 1.312 12.7707 1.312 12.664C1.33333 12.536 1.30133 12.3547 1.216 12.12C1.152 11.8853 1.088 11.768 1.024 11.768C0.96 11.768 0.928 11.7253 0.928 11.64C0.928 11.5547 0.885334 11.48 0.8 11.416C0.714667 11.3307 0.672001 11.1813 0.672001 10.968C0.672001 10.7333 0.608001 10.5627 0.48 10.456C0.416001 10.3707 0.384001 10.328 0.384001 10.328C0.405334 10.3067 0.469334 10.296 0.576 10.296C0.746667 10.296 0.896001 10.2533 1.024 10.168C1.23733 9.976 1.57867 9.98667 2.048 10.2C2.26133 10.3067 2.41067 10.3387 2.496 10.296C2.60267 10.2533 2.80533 10.0187 3.104 9.592C3.36 9.22933 3.52 9.016 3.584 8.952C4.43733 8.07733 5.19467 7.20267 5.856 6.328C6.816 5.06933 7.14667 4.29067 6.848 3.992C6.80533 3.94933 6.784 3.88533 6.784 3.8C6.80533 3.71467 6.848 3.672 6.912 3.672C6.976 3.672 7.08267 3.59733 7.232 3.448ZM10.624 14.744C10.6667 14.5733 10.656 14.0933 10.592 13.304C10.5493 12.4933 10.496 12.088 10.432 12.088C10.2827 12.0667 9.728 12.184 8.768 12.44C7.808 12.6747 7.04 12.8987 6.464 13.112C5.632 13.4107 5.14133 13.6133 4.992 13.72C4.864 13.8053 4.8 13.976 4.8 14.232C4.8 14.4667 4.82133 14.776 4.864 15.16C4.928 15.5227 4.97067 15.7253 4.992 15.768C5.01333 15.8107 5.42933 15.6293 6.24 15.224C7.072 14.7973 7.52 14.584 7.584 14.584C7.648 14.584 7.72267 14.5413 7.808 14.456C7.91467 14.3493 8.17067 14.2533 8.576 14.168C8.98133 14.0827 9.216 14.0827 9.28 14.168C9.36533 14.232 9.472 14.2747 9.6 14.296C9.728 14.296 9.92 14.424 10.176 14.68L10.528 15.032L10.624 14.744ZM10.784 18.552C10.784 17.656 10.7627 17.08 10.72 16.824C10.6773 16.6107 10.6453 16.504 10.624 16.504C10.624 16.4827 10.5813 16.504 10.496 16.568C10.4107 16.6533 10.272 16.696 10.08 16.696C9.888 16.696 9.664 16.7707 9.408 16.92C9.17333 17.0693 9.024 17.1333 8.96 17.112C8.896 17.0907 8.59733 17.208 8.064 17.464C7.04 18.04 6.10133 18.3067 5.248 18.264H4.544L4.608 18.456C4.62933 18.6267 4.65067 18.9787 4.672 19.512C4.71467 20.0453 4.74667 20.3333 4.768 20.376C4.78933 20.3973 5.216 20.2373 6.048 19.896C6.88 19.5547 7.31733 19.384 7.36 19.384C7.424 19.384 7.57333 19.3307 7.808 19.224C8.064 19.096 8.288 19.0107 8.48 18.968C8.69333 18.9253 8.88533 18.808 9.056 18.616C9.22667 18.424 9.32267 18.3707 9.344 18.456C9.38667 18.5413 9.48267 18.616 9.632 18.68C9.80267 18.744 9.888 18.8507 9.888 19C9.888 19.128 9.97333 19.2347 10.144 19.32C10.3147 19.384 10.4107 19.4907 10.432 19.64C10.4533 19.768 10.5173 19.832 10.624 19.832C10.688 19.8533 10.7307 19.8213 10.752 19.736C10.7733 19.608 10.784 19.2133 10.784 18.552ZM10.784 21.144C10.784 20.9947 10.6987 20.9627 10.528 21.048C10.464 21.0693 10.3787 21.1013 10.272 21.144C10.0373 21.2507 9.71733 21.3573 9.312 21.464C8.90667 21.5707 8.48 21.7413 8.032 21.976C7.24267 22.3387 6.42133 22.552 5.568 22.616C5.22667 22.6587 5.01333 22.6907 4.928 22.712C4.864 22.7333 4.82133 22.808 4.8 22.936C4.77867 23.1067 4.78933 23.3733 4.832 23.736C4.87467 24.0987 4.896 24.4933 4.896 24.92C4.896 25.3467 4.928 25.5813 4.992 25.624C5.01333 25.6667 5.61067 25.5173 6.784 25.176C8.064 24.8347 9.312 24.6427 10.528 24.6H10.912L10.848 22.968C10.8053 21.8587 10.784 21.2507 10.784 21.144ZM32.768 24.76C32.768 24.5893 32.8427 24.4187 32.992 24.248C33.1413 24.0773 33.2373 23.992 33.28 23.992C33.3227 23.992 33.4827 24.0773 33.76 24.248C34.0587 24.3973 34.3253 24.632 34.56 24.952L34.848 25.432L35.168 25.112C35.36 24.856 35.488 24.76 35.552 24.824C35.5733 24.8453 35.6053 24.8027 35.648 24.696C35.648 24.6747 35.6587 24.6427 35.68 24.6C35.7013 24.4293 35.7653 24.2907 35.872 24.184C35.9787 24.056 36.0853 23.992 36.192 23.992C36.2987 23.992 36.544 24.088 36.928 24.28C37.2053 24.3867 37.3867 24.4933 37.472 24.6C37.5787 24.7067 37.728 24.9413 37.92 25.304C38.368 26.0293 38.816 26.6053 39.264 27.032C39.712 27.4587 40.2667 27.8427 40.928 28.184C41.5253 28.5253 42.304 28.696 43.264 28.696C43.8187 28.696 44.1813 28.664 44.352 28.6C44.544 28.536 44.672 28.376 44.736 28.12C44.8 27.928 44.8427 27.4373 44.864 26.648C44.8853 25.8587 44.8747 25.4107 44.832 25.304C44.768 25.1973 44.768 25.144 44.832 25.144C44.896 25.144 44.928 25.1013 44.928 25.016C44.928 24.9093 44.96 24.856 45.024 24.856C45.1093 24.856 45.2373 24.952 45.408 25.144C45.5787 25.336 45.6853 25.5067 45.728 25.656C45.8133 25.8267 45.952 25.9227 46.144 25.944C46.272 25.944 46.3467 25.976 46.368 26.04C46.4107 26.0827 46.4427 26.1787 46.464 26.328C46.5493 26.6693 46.6453 26.936 46.752 27.128C46.8587 27.32 47.072 27.5973 47.392 27.96C47.8613 28.4507 48.1067 28.76 48.128 28.888C48.1493 29.2933 48.1173 29.5387 48.032 29.624C47.9467 29.7093 47.9467 29.7947 48.032 29.88C48.1387 29.9653 48.1813 30.0933 48.16 30.264C48.1173 30.4773 48.1707 30.6053 48.32 30.648C48.3413 30.6907 48.3733 30.6907 48.416 30.648C48.4373 30.6907 48.448 30.7333 48.448 30.776C48.448 31.0107 48.224 31.2133 47.776 31.384C47.4773 31.4907 47.2213 31.5867 47.008 31.672C46.7947 31.7787 46.592 31.8107 46.4 31.768C46.2293 31.7467 46.1227 31.7787 46.08 31.864C46.0373 31.9707 45.9627 31.992 45.856 31.928C45.7493 31.864 45.6747 31.864 45.632 31.928C45.6107 31.9707 45.4187 31.9813 45.056 31.96C44.7147 31.96 44.4373 31.928 44.224 31.864C44.032 31.8213 43.936 31.7467 43.936 31.64C43.9573 31.5547 43.904 31.5013 43.776 31.48C43.6693 31.48 43.3813 31.4053 42.912 31.256C42.464 31.128 42.2187 31.0747 42.176 31.096L42.336 31.256C42.6347 31.4053 42.9333 31.4907 43.232 31.512C43.5093 31.5547 43.648 31.5973 43.648 31.64C43.6267 31.704 43.5413 31.7253 43.392 31.704C43.264 31.704 43.0827 31.6613 42.848 31.576C42.6347 31.512 42.4213 31.416 42.208 31.288C41.76 31.096 41.536 30.9573 41.536 30.872C41.536 30.808 41.472 30.7653 41.344 30.744C41.216 30.7227 41.1093 30.6587 41.024 30.552C40.832 30.2747 40.576 30.136 40.256 30.136C40.1067 30.136 39.968 30.0827 39.84 29.976C39.7333 29.8693 39.5413 29.7413 39.264 29.592C38.9227 29.4213 38.3893 28.952 37.664 28.184C36.9387 27.416 36.576 26.9253 36.576 26.712C36.576 26.6693 36.544 26.6373 36.48 26.616C36.4373 26.5947 36.32 26.3813 36.128 25.976C35.9787 25.656 35.8827 25.496 35.84 25.496C35.7973 25.496 35.7547 25.6453 35.712 25.944C35.6907 26.136 35.616 26.3387 35.488 26.552C35.36 26.744 35.2853 26.9573 35.264 27.192C35.1787 27.5973 34.9333 28.1733 34.528 28.92C34.144 29.688 33.8027 30.232 33.504 30.552C33.3973 30.68 33.3013 30.8613 33.216 31.096C33.152 31.3307 33.0773 31.448 32.992 31.448C32.9067 31.448 32.864 31.416 32.864 31.352C32.864 31.3093 32.736 31.1493 32.48 30.872L31.936 30.264C31.808 30.136 31.7013 30.072 31.616 30.072C31.5307 30.072 31.4453 29.9653 31.36 29.752C31.296 29.5387 31.2747 29.368 31.296 29.24C31.36 29.0267 31.3067 28.8987 31.136 28.856C31.008 28.8133 30.9333 28.7493 30.912 28.664C30.912 28.6 30.9653 28.4507 31.072 28.216C31.2 27.9813 31.264 27.8213 31.264 27.736C31.264 27.672 31.328 27.608 31.456 27.544C31.5627 27.4587 31.776 27.128 32.096 26.552C32.416 25.976 32.608 25.5707 32.672 25.336C32.736 25.1013 32.768 24.9093 32.768 24.76ZM46.656 22.296C46.848 22.1467 47.104 22.0613 47.424 22.04C47.7653 22.0187 47.9573 22.008 48 22.008C48.0427 21.9867 48.1173 22.008 48.224 22.072C48.5227 22.2853 48.96 22.4453 49.536 22.552C49.7493 22.616 49.9733 22.712 50.208 22.84C50.464 22.9467 50.592 23.0427 50.592 23.128C50.592 23.192 50.6773 23.3307 50.848 23.544C51.04 23.736 51.2107 23.9493 51.36 24.184L51.584 24.6L51.456 25.944C51.3493 26.776 51.264 27.2987 51.2 27.512C51.136 27.7253 51.0187 27.8107 50.848 27.768C50.72 27.7253 50.464 27.5227 50.08 27.16C49.696 26.7973 49.504 26.5733 49.504 26.488C49.504 26.4453 49.408 26.392 49.216 26.328C49.024 26.264 48.928 26.2 48.928 26.136C48.9493 25.9867 48.9387 25.8907 48.896 25.848C48.8533 25.784 48.7573 25.7413 48.608 25.72C48.4587 25.6987 48.352 25.6667 48.288 25.624C48.2453 25.5813 48.2133 25.4747 48.192 25.304C48.128 25.0267 48.032 24.8347 47.904 24.728C47.776 24.6213 47.712 24.5467 47.712 24.504C47.712 24.4613 47.648 24.3653 47.52 24.216C47.392 24.0453 47.168 23.7253 46.848 23.256L46.368 22.52L46.656 22.296ZM35.296 18.072C35.5307 17.9227 35.7333 17.9227 35.904 18.072C36.096 18.2 36.3093 18.5093 36.544 19C36.608 19.192 36.6613 19.3413 36.704 19.448C36.768 19.5333 36.8107 19.608 36.832 19.672C36.8747 19.7147 36.9173 19.736 36.96 19.736C37.0027 19.736 37.0453 19.7147 37.088 19.672C37.2587 19.5227 37.3867 19.6293 37.472 19.992C37.472 20.0987 37.472 20.1947 37.472 20.28C37.472 20.5573 37.376 20.76 37.184 20.888C37.0133 21.016 36.8853 21.24 36.8 21.56C36.7147 21.8587 36.5653 22.1253 36.352 22.36C36.1387 22.5733 35.872 22.8933 35.552 23.32C35.232 23.7253 35.04 23.928 34.976 23.928C34.9333 23.928 34.8693 23.8427 34.784 23.672C34.72 23.5013 34.528 23.2133 34.208 22.808C33.9947 22.5733 33.856 22.4027 33.792 22.296C33.7493 22.1893 33.728 22.0507 33.728 21.88C33.7707 21.6027 33.76 21.4107 33.696 21.304C33.632 21.1973 33.632 21.1227 33.696 21.08C33.888 20.9733 34.1867 20.4293 34.592 19.448C34.7413 19.0427 34.8373 18.7867 34.88 18.68C34.944 18.5733 34.976 18.4773 34.976 18.392C34.976 18.3067 35.0827 18.2 35.296 18.072ZM30.944 7.576C31.008 7.46933 31.2533 7.45867 31.68 7.544C32.1067 7.608 32.5333 7.736 32.96 7.928C33.2373 8.03467 33.6107 8.32267 34.08 8.792C34.5493 9.24 34.8053 9.56 34.848 9.752C34.8907 10.008 34.912 10.6053 34.912 11.544C34.9333 12.4827 34.9333 13.24 34.912 13.816C34.7413 16.0133 34.4213 17.656 33.952 18.744C33.8453 19 33.7387 19.3093 33.632 19.672C33.5467 20.0133 33.4827 20.2373 33.44 20.344L33.12 21.08C32.16 23.192 31.5093 24.3867 31.168 24.664C31.1467 24.6853 31.072 24.8133 30.944 25.048C30.8373 25.2613 30.7413 25.3893 30.656 25.432C30.592 25.4533 30.5493 25.528 30.528 25.656C30.528 25.7627 30.496 25.848 30.432 25.912C30.3893 25.9547 30.272 25.912 30.08 25.784C29.888 25.6347 29.7493 25.4533 29.664 25.24C29.5573 25.048 29.3653 24.824 29.088 24.568C28.8107 24.312 28.6933 24.152 28.736 24.088C28.8 24.024 28.7893 23.96 28.704 23.896C28.6613 23.8533 28.64 23.7893 28.64 23.704C28.64 23.5973 28.6507 23.5227 28.672 23.48C28.7147 23.4373 28.768 23.4267 28.832 23.448C28.896 23.4693 28.9387 23.4587 28.96 23.416C28.9813 23.3307 28.9173 23.2453 28.768 23.16C28.6187 23.0533 28.5973 22.9893 28.704 22.968C28.832 22.9467 28.8107 22.8507 28.64 22.68C28.384 22.3813 28.352 22.232 28.544 22.232C28.6933 22.232 29.12 21.592 29.824 20.312C30.5493 19.032 30.912 18.2747 30.912 18.04C30.912 17.9333 31.0187 17.6133 31.232 17.08C31.744 15.7573 32.0427 14.7013 32.128 13.912C32.3627 11.7787 32.4053 10.2 32.256 9.176C32.2133 8.94133 31.8613 8.536 31.2 7.96C31.008 7.78933 30.9227 7.66133 30.944 7.576ZM39.616 3.096C39.616 2.968 39.8293 2.904 40.256 2.904C40.704 2.88267 41.0133 2.88267 41.184 2.904C41.376 2.904 41.5253 2.904 41.632 2.904C41.7387 2.904 41.9093 3 42.144 3.192C42.4 3.384 42.592 3.48 42.72 3.48C42.848 3.48 42.912 3.55467 42.912 3.704C42.912 3.832 43.008 3.97066 43.2 4.12C43.4133 4.248 43.4987 4.376 43.456 4.504C43.4347 4.632 43.456 4.696 43.52 4.696C43.6053 4.696 43.648 4.74933 43.648 4.856C43.648 4.96267 43.744 5.09067 43.936 5.24C44.128 5.38933 44.192 5.50667 44.128 5.592C44.1067 5.61333 44.0427 5.60267 43.936 5.56C43.8507 5.53867 43.616 5.58133 43.232 5.688C42.8693 5.77333 42.368 5.92267 41.728 6.136C41.1093 6.34933 40.7787 6.47733 40.736 6.52C40.6933 6.584 40.8 6.72267 41.056 6.936C41.3547 7.128 41.5467 7.27733 41.632 7.384C41.7173 7.49067 41.76 7.61867 41.76 7.768C41.76 7.93867 41.8027 8.088 41.888 8.216C41.9947 8.32267 42.048 8.504 42.048 8.76C42.048 9.016 42.048 9.144 42.048 9.144C42.0693 9.144 42.3467 9.06933 42.88 8.92C43.3067 8.77067 43.616 8.696 43.808 8.696C44.0213 8.696 44.288 8.76 44.608 8.888C45.1413 9.10133 45.408 9.32533 45.408 9.56C45.408 9.70933 45.4293 9.79467 45.472 9.816C45.536 9.83733 45.6747 9.98667 45.888 10.264C46.08 10.4987 46.176 10.6907 46.176 10.84C46.176 10.968 46.08 11.3413 45.888 11.96C45.568 13.0267 44.896 14.3067 43.872 15.8C43.2533 16.696 42.9653 17.1653 43.008 17.208C43.0293 17.2293 43.2427 17.2507 43.648 17.272C44.2453 17.3147 44.672 17.4213 44.928 17.592C45.0987 17.6987 45.248 17.7733 45.376 17.816C45.504 17.8587 45.7067 18.072 45.984 18.456C46.2613 18.84 46.464 19.096 46.592 19.224C46.976 19.6293 47.136 19.8853 47.072 19.992C47.072 20.0133 47.04 20.0133 46.976 19.992C46.912 19.9493 46.8693 19.992 46.848 20.12C46.848 20.2267 46.88 20.504 46.944 20.952C47.0293 21.528 47.0293 21.848 46.944 21.912C46.9013 21.9333 46.752 21.8907 46.496 21.784C46.2613 21.6773 46.1013 21.5707 46.016 21.464C45.9733 21.3787 45.8133 21.2613 45.536 21.112C45.28 20.9627 44.96 20.6533 44.576 20.184C44.192 19.7147 43.808 19.3307 43.424 19.032C43.104 18.7973 42.816 18.5413 42.56 18.264C42.304 17.9867 42.1867 17.8267 42.208 17.784C42.2293 17.7413 42.1867 17.6987 42.08 17.656C41.9947 17.6133 42.016 17.5173 42.144 17.368C42.272 17.2187 42.3147 17.0587 42.272 16.888C42.2293 16.6533 42.1547 16.5147 42.048 16.472C41.9627 16.4293 41.792 16.4827 41.536 16.632C41.3227 16.76 41.1947 16.856 41.152 16.92C41.1093 16.984 41.152 17.0587 41.28 17.144C41.3653 17.2293 41.408 17.3253 41.408 17.432C41.408 17.5387 41.44 17.592 41.504 17.592C41.568 17.592 41.6213 17.6667 41.664 17.816C41.7067 17.9653 41.7067 18.104 41.664 18.232C41.5787 18.3387 41.5147 19.1813 41.472 20.76C41.4507 22.3387 41.3867 23.2347 41.28 23.448C41.0667 23.832 41.0773 24.0667 41.312 24.152C41.4613 24.1947 41.6107 24.2907 41.76 24.44C41.9307 24.5893 42.0907 24.6533 42.24 24.632C42.3893 24.5893 42.6453 24.408 43.008 24.088C43.4133 23.7253 43.776 23.48 44.096 23.352C44.608 23.0533 44.8853 22.9893 44.928 23.16C44.9493 23.2027 44.9173 23.288 44.832 23.416C44.7253 23.5013 44.672 23.576 44.672 23.64C44.672 23.6827 44.5867 23.8107 44.416 24.024C44.3947 24.088 44.3627 24.1413 44.32 24.184C44.2773 24.2267 44.256 24.2693 44.256 24.312C44.256 24.3547 44.256 24.376 44.256 24.376C44.4267 24.4187 44.16 24.8987 43.456 25.816C42.9653 26.4773 42.72 26.8933 42.72 27.064C42.72 27.256 42.6987 27.4053 42.656 27.512C42.5707 27.6187 42.464 27.6293 42.336 27.544C42.336 27.48 42.2933 27.448 42.208 27.448C42.1227 27.448 42.016 27.3733 41.888 27.224C41.7387 27.1173 41.5147 26.9893 41.216 26.84C40.9387 26.6907 40.736 26.616 40.608 26.616C40.5013 26.616 40.384 26.552 40.256 26.424C40.1493 26.2747 40.128 26.1253 40.192 25.976C40.2133 25.8693 40.1387 25.7733 39.968 25.688C39.7333 25.6027 39.6587 25.368 39.744 24.984C39.744 24.9413 39.712 24.8667 39.648 24.76C39.584 24.6533 39.5947 24.5253 39.68 24.376C39.7867 24.2267 39.84 24.1093 39.84 24.024C39.84 23.9387 39.712 23.7147 39.456 23.352C39.2213 22.9893 39.0507 22.7653 38.944 22.68C38.7947 22.552 38.7307 22.4347 38.752 22.328C38.7733 22.2 38.7627 22.072 38.72 21.944C38.656 21.8373 38.6667 21.7307 38.752 21.624C38.8373 21.496 38.944 21.432 39.072 21.432C39.2 21.432 39.2747 21.1973 39.296 20.728C39.3387 20.2373 39.36 19.7147 39.36 19.16C39.36 18.6053 39.3067 18.3173 39.2 18.296C39.0933 18.2533 39.008 18.2 38.944 18.136C38.9013 18.072 38.8587 18.072 38.816 18.136C38.752 18.3493 38.5067 18.2213 38.08 17.752C37.76 17.4107 37.5787 17.24 37.536 17.24C37.5147 17.24 37.4293 17.1653 37.28 17.016C37.152 16.8453 37.088 16.728 37.088 16.664C37.024 16.1733 36.9387 15.832 36.832 15.64C36.7253 15.4907 36.672 15.256 36.672 14.936C36.672 14.488 36.608 13.9227 36.48 13.24C36.352 12.5573 36.2133 12.0347 36.064 11.672C35.9573 11.4587 35.776 11.2453 35.52 11.032C35.2853 10.8187 35.2213 10.712 35.328 10.712C35.456 10.712 35.4347 10.6373 35.264 10.488L34.976 10.264L35.264 10.136C35.3707 10.0507 35.456 10.008 35.52 10.008C35.584 10.008 35.7547 10.0507 36.032 10.136C36.3733 10.2427 36.64 10.392 36.832 10.584C37.0027 10.712 37.152 10.7867 37.28 10.808C37.408 10.8293 37.6427 10.7867 37.984 10.68C38.3253 10.5733 38.5173 10.488 38.56 10.424C38.6027 10.3387 38.528 10.2107 38.336 10.04C37.952 9.69867 37.7707 9.38933 37.792 9.112C37.8347 8.83467 38.112 8.44 38.624 7.928C39.136 7.45867 39.3707 7.20267 39.328 7.16C39.3067 7.11733 39.1787 7.14933 38.944 7.256C38.752 7.36267 38.3253 7.52267 37.664 7.736C37.0027 7.94933 36.5547 8.09867 36.32 8.184C35.9147 8.248 35.4133 8.03467 34.816 7.544C34.432 7.24533 34.1973 7.096 34.112 7.096C34.0267 7.096 33.9093 7.01067 33.76 6.84C33.632 6.648 33.4933 6.52 33.344 6.456C33.2373 6.392 33.12 6.31733 32.992 6.232C32.8853 6.12533 32.7893 6.04 32.704 5.976C32.64 5.89067 32.6187 5.83733 32.64 5.816C32.6613 5.79467 32.6187 5.73067 32.512 5.624C32.32 5.496 32.3947 5.41067 32.736 5.368C32.8853 5.368 33.088 5.368 33.344 5.368C33.92 5.432 34.528 5.32533 35.168 5.048C35.4453 4.92 35.712 4.81333 35.968 4.728C36.224 4.62133 36.512 4.49333 36.832 4.344C37.152 4.19467 37.3973 4.10933 37.568 4.088C37.7387 4.04533 37.9733 3.94933 38.272 3.8C38.592 3.65067 38.8907 3.52267 39.168 3.416C39.4667 3.30933 39.616 3.20267 39.616 3.096ZM42.144 12.472C42.272 12.472 42.4427 12.2587 42.656 11.832C42.8907 11.384 42.9867 11.1493 42.944 11.128C42.9013 11.064 42.4747 11.192 41.664 11.512C40.8533 11.8107 40.3093 12.0453 40.032 12.216C39.5627 12.4933 39.072 12.6533 38.56 12.696H38.24L38.304 13.144C38.3253 13.4213 38.3573 13.5813 38.4 13.624C38.464 13.6667 39.104 13.368 40.32 12.728C41.28 12.216 41.8133 12.0987 41.92 12.376C41.9413 12.44 42.016 12.472 42.144 12.472ZM41.536 14.072C41.664 13.7733 41.344 13.9013 40.576 14.456C40.4693 14.5627 40.3413 14.6693 40.192 14.776C39.744 15.1173 39.4347 15.288 39.264 15.288C39.1147 15.2667 39.04 15.2347 39.04 15.192C39.0613 15.1493 39.0507 15.128 39.008 15.128C38.9653 15.1067 38.9013 15.096 38.816 15.096C38.688 15.096 38.6133 15.1173 38.592 15.16C38.5707 15.1813 38.5707 15.2987 38.592 15.512C38.6133 15.7467 38.6453 15.896 38.688 15.96C38.7307 16.0027 38.9867 15.896 39.456 15.64L40.768 15C41.1947 14.7867 41.4187 14.6053 41.44 14.456C41.4613 14.2853 41.4933 14.1573 41.536 14.072ZM68.736 1.048C68.6933 0.941332 68.6827 0.877332 68.704 0.855999C68.7253 0.834666 68.8 0.823999 68.928 0.823999C69.0773 0.823999 69.6 1.016 70.496 1.4C71.4133 1.784 71.936 2.04 72.064 2.168C72.192 2.296 72.2773 2.62667 72.32 3.16C72.384 3.69333 72.384 4.216 72.32 4.728C72.2773 5.304 72.2773 5.656 72.32 5.784C72.3627 5.89067 72.544 5.944 72.864 5.944C73.2053 5.98667 73.408 6.04 73.472 6.104C73.536 6.168 73.6747 6.2 73.888 6.2C74.0373 6.2 74.1227 6.21067 74.144 6.232C74.1653 6.25333 74.176 6.328 74.176 6.456C74.176 6.648 74.272 6.78667 74.464 6.872C74.6347 6.97867 74.7627 7.11733 74.848 7.288C74.9547 7.45867 74.976 7.58667 74.912 7.672C74.848 7.75733 74.8373 7.84267 74.88 7.928C74.9227 8.01333 75.0187 7.94933 75.168 7.736C75.3387 7.50133 75.5307 7.27733 75.744 7.064C75.9573 6.85067 76.0427 6.648 76 6.456C75.9787 6.328 75.9787 6.25333 76 6.232C76.0213 6.21067 76.1067 6.2 76.256 6.2C76.4693 6.2 76.6293 6.168 76.736 6.104C76.8427 6.04 76.992 6.08267 77.184 6.232C77.376 6.36 77.6533 6.53067 78.016 6.744C78.3787 6.936 78.624 7.11733 78.752 7.288C78.88 7.43733 78.976 7.69333 79.04 8.056C79.2107 8.80267 79.0613 9.176 78.592 9.176C78.3787 9.176 77.9733 9.48533 77.376 10.104C76.9707 10.5307 76.6293 10.936 76.352 11.32C76.096 11.704 76 11.928 76.064 11.992C76.1067 12.0347 76.32 12.024 76.704 11.96C77.1307 11.8747 77.8987 11.8 79.008 11.736C80.1173 11.6507 80.8747 11.6187 81.28 11.64C81.7707 11.6613 82.1653 11.736 82.464 11.864C82.7627 11.9707 82.9547 12.024 83.04 12.024C83.1467 12.024 83.2 12.0987 83.2 12.248C83.2 12.376 83.3493 12.5787 83.648 12.856C84.1813 13.3467 84.4693 14.0293 84.512 14.904C84.512 15.2027 84.48 15.3627 84.416 15.384C84.416 15.384 84.3947 15.3733 84.352 15.352C84.2453 15.288 84 15.2133 83.616 15.128C83.232 15.0427 81.984 15 79.872 15C77.7813 15 76.3627 15.0533 75.616 15.16C74.336 15.3093 73.568 15.4267 73.312 15.512C73.0773 15.5973 72.8533 15.8853 72.64 16.376C72.4693 16.76 72.288 17.048 72.096 17.24C71.6907 17.7093 71.5093 17.976 71.552 18.04C71.5733 18.04 71.9893 17.9653 72.8 17.816C74.4213 17.5173 75.4133 17.4747 75.776 17.688C75.9253 17.7947 76.1813 17.944 76.544 18.136C76.928 18.3067 77.1947 18.456 77.344 18.584L77.632 18.776L77.376 18.968C77.0773 19.224 76.992 19.48 77.12 19.736C77.2053 19.864 77.1947 20.0773 77.088 20.376C76.96 20.76 76.896 21.4747 76.896 22.52C76.896 22.712 76.928 23.0853 76.992 23.64C77.12 24.4507 77.216 25.6347 77.28 27.192C77.3013 28.4293 77.3333 29.3467 77.376 29.944C77.4187 30.712 77.376 31.096 77.248 31.096C77.2053 31.1387 77.1627 31.1387 77.12 31.096C77.0773 31.0747 77.0347 31.0853 76.992 31.128C76.9707 31.192 76.96 31.3307 76.96 31.544C76.9387 32.056 76.864 32.5893 76.736 33.144C76.6293 33.72 76.5227 34.008 76.416 34.008C76.352 34.008 76.16 33.8587 75.84 33.56C75.5413 33.2613 75.392 33.08 75.392 33.016C75.392 32.9093 75.3067 32.8027 75.136 32.696C74.9653 32.5893 74.8373 32.44 74.752 32.248C74.688 32.0773 74.5173 31.9173 74.24 31.768C73.9627 31.64 73.856 31.5333 73.92 31.448C73.9627 31.4053 73.9733 31.2347 73.952 30.936C73.9307 30.6373 73.888 30.4773 73.824 30.456C73.7387 30.3707 73.0453 30.4347 71.744 30.648C70.4427 30.8613 69.76 31 69.696 31.064C69.6533 31.1707 69.632 31.2987 69.632 31.448C69.632 31.6187 69.5573 31.8533 69.408 32.152L69.152 32.664L68.896 32.408C68.704 32.28 68.608 32.1733 68.608 32.088C68.608 32.0027 68.544 31.9387 68.416 31.896C68.352 31.8533 68.32 31.8213 68.32 31.8C68.384 31.7573 68.3947 31.6507 68.352 31.48C68.3093 31.3307 68.2027 31.1813 68.032 31.032C67.8613 30.8827 67.776 30.744 67.776 30.616C67.776 30.488 67.68 30.3387 67.488 30.168C67.3173 29.9973 67.232 29.7627 67.232 29.464C67.232 29.1867 67.2533 29.0053 67.296 28.92C67.36 28.728 67.4453 28.1947 67.552 27.32L67.648 25.976C67.6693 25.5067 67.6693 25.0373 67.648 24.568L67.616 23.896L66.944 24.856C65.9413 26.3493 65.3547 27.1707 65.184 27.32C65.0347 27.448 64.8533 27.6613 64.64 27.96C64.4267 28.2587 64.2987 28.4187 64.256 28.44C64.2133 28.4613 64.032 28.7173 63.712 29.208C63.5627 29.4213 63.3707 29.6773 63.136 29.976C62.9013 30.2747 62.688 30.52 62.496 30.712C62.304 30.904 62.1973 30.9893 62.176 30.968C62.112 30.904 62.0053 30.68 61.856 30.296C61.7067 29.9333 61.632 29.7307 61.632 29.688C61.632 29.6027 61.472 29.3573 61.152 28.952C60.832 28.568 60.704 28.3333 60.768 28.248C60.832 28.1627 60.8427 28.024 60.8 27.832C60.7787 27.576 61.0027 27.2133 61.472 26.744C61.6 26.5947 61.8453 26.2533 62.208 25.72C62.5707 25.1867 62.8053 24.8667 62.912 24.76C63.296 24.3333 63.6907 23.8427 64.096 23.288C64.5013 22.7333 64.704 22.4347 64.704 22.392C64.704 22.328 64.8213 22.1787 65.056 21.944C65.2907 21.688 65.408 21.5387 65.408 21.496C65.408 21.432 65.6 21.1547 65.984 20.664C66.496 20.024 66.752 19.608 66.752 19.416C66.752 19.3733 66.6453 19.2453 66.432 19.032C66.2187 18.7973 66.112 18.6373 66.112 18.552C66.112 18.4453 66.1973 18.392 66.368 18.392C66.56 18.392 66.752 18.4453 66.944 18.552C67.136 18.6373 67.2747 18.68 67.36 18.68C67.4027 18.68 67.52 18.5413 67.712 18.264C67.9253 17.9653 68.032 17.7733 68.032 17.688C68.032 17.6453 68.1493 17.5173 68.384 17.304C68.5333 17.1547 68.6933 16.9307 68.864 16.632C69.056 16.312 69.1307 16.1413 69.088 16.12C69.0667 16.0773 68.512 16.1733 67.424 16.408C66.3573 16.6213 65.6 16.8027 65.152 16.952C64.32 17.1867 63.744 17.336 63.424 17.4C63.1253 17.4427 62.7733 17.4107 62.368 17.304C61.472 17.1333 61.024 16.9307 61.024 16.696C61.024 16.6533 60.9707 16.632 60.864 16.632C60.7787 16.632 60.6613 16.568 60.512 16.44C60.3627 16.312 60.1387 16.1413 59.84 15.928C59.776 15.864 59.712 15.8213 59.648 15.8C59.6053 15.7573 59.5627 15.7147 59.52 15.672C59.4987 15.6293 59.4987 15.608 59.52 15.608C59.5413 15.5867 59.5627 15.5653 59.584 15.544C59.648 15.48 59.6373 15.416 59.552 15.352C59.4667 15.288 59.488 15.256 59.616 15.256C60.4907 15.2347 61.12 15.192 61.504 15.128C61.888 15.064 62.5067 14.9147 63.36 14.68C65.984 13.912 67.7013 13.464 68.512 13.336L68.992 13.304L69.088 12.568C69.1947 11.4373 69.184 10.7547 69.056 10.52C68.992 10.5413 68.672 10.4773 68.096 10.328C67.52 10.1787 67.136 10.104 66.944 10.104C66.7733 10.104 66.688 10.0507 66.688 9.944C66.688 9.816 66.5173 9.60267 66.176 9.304C65.3867 8.64267 65.056 8.25867 65.184 8.152C65.2053 8.10933 65.4507 8.088 65.92 8.088C66.5173 8.06667 67.4027 7.81067 68.576 7.32C69.088 7.10667 69.3973 6.936 69.504 6.808C69.6107 6.68 69.6427 6.43467 69.6 6.072C69.536 5.79467 69.4933 5.112 69.472 4.024C69.4507 3.256 69.4187 2.76533 69.376 2.552C69.3333 2.33867 69.248 2.09333 69.12 1.816C68.9067 1.432 68.7787 1.176 68.736 1.048ZM74.368 8.984C74.368 8.89867 74.176 8.93067 73.792 9.08C73.5147 9.208 73.216 9.336 72.896 9.464C72.5973 9.57067 72.416 9.67733 72.352 9.784C72.3093 9.89067 72.2667 10.2853 72.224 10.968L72.128 11.992L72.416 11.608C72.5867 11.352 72.704 11.192 72.768 11.128C72.8533 11.064 73.1413 10.7013 73.632 10.04C74.1227 9.37867 74.368 9.02667 74.368 8.984ZM73.888 21.112C73.8453 20.28 73.76 19.8107 73.632 19.704C73.504 19.5973 73.0987 19.6613 72.416 19.896C71.7333 20.1307 71.136 20.2907 70.624 20.376L69.856 20.472V20.856C69.8773 21.4107 69.8987 21.8373 69.92 22.136C69.9627 22.4347 69.9947 22.6693 70.016 22.84C70.0373 23.0107 70.0693 23.128 70.112 23.192C70.1547 23.2347 70.1973 23.2453 70.24 23.224C72.096 22.456 73.2587 22.136 73.728 22.264L73.952 22.296L73.888 21.112ZM74.016 24.856C73.9947 24.6427 73.9307 24.536 73.824 24.536C73.696 24.536 73.184 24.696 72.288 25.016C71.392 25.3147 70.7733 25.496 70.432 25.56L69.888 25.624L69.984 27.096C70.0267 28.0773 70.048 28.5787 70.048 28.6C70.0907 28.6427 70.3573 28.5893 70.848 28.44C71.3387 28.312 71.6267 28.2267 71.712 28.184C71.7547 28.0987 72.1173 28.0347 72.8 27.992C73.4827 27.9493 73.8667 27.9067 73.952 27.864C74.0587 27.736 74.08 26.7333 74.016 24.856ZM104.192 6.84C104.363 6.69067 104.491 6.60533 104.576 6.584C104.683 6.54133 104.821 6.584 104.992 6.712C105.184 6.81867 105.451 6.872 105.792 6.872C106.475 6.872 106.816 6.97867 106.816 7.192C106.816 7.27733 106.891 7.416 107.04 7.608C107.189 7.8 107.264 7.93867 107.264 8.024C107.264 8.10933 107.307 8.17333 107.392 8.216C107.499 8.25867 107.531 8.312 107.488 8.376C107.467 8.41867 107.531 8.51467 107.68 8.664C107.851 8.792 107.936 8.93067 107.936 9.08C107.936 9.208 107.904 9.22933 107.84 9.144C107.797 9.05867 107.691 9.112 107.52 9.304C107.371 9.496 107.275 9.79467 107.232 10.2C107.083 11.48 107.125 13.624 107.36 16.632C107.424 17.6987 107.627 18.7547 107.968 19.8C108.309 20.8453 108.725 21.6987 109.216 22.36C109.557 22.808 110.016 23.2347 110.592 23.64C111.189 24.0453 111.765 24.3333 112.32 24.504C112.683 24.5893 112.949 24.6 113.12 24.536C113.312 24.4507 113.536 24.248 113.792 23.928C114.133 23.48 114.336 22.9573 114.4 22.36C114.464 21.912 114.592 21.592 114.784 21.4C114.827 21.3573 114.859 21.4 114.88 21.528C114.901 21.6133 114.933 21.7627 114.976 21.976C114.997 22.4453 114.987 22.7653 114.944 22.936C114.923 23.0853 114.955 23.1813 115.04 23.224C115.125 23.2453 115.168 23.288 115.168 23.352C115.168 23.3947 115.125 23.3947 115.04 23.352C114.955 23.352 114.912 23.3627 114.912 23.384C115.083 23.7893 115.232 24.0027 115.36 24.024C115.488 24.0667 115.552 24.12 115.552 24.184C115.552 24.248 115.595 24.248 115.68 24.184C115.765 24.12 115.84 24.184 115.904 24.376C115.989 24.5467 116.064 24.632 116.128 24.632C116.192 24.632 116.224 24.6853 116.224 24.792C116.245 24.8773 116.235 24.9947 116.192 25.144C116.149 25.2933 116.107 25.432 116.064 25.56C116 25.7307 116.011 25.9013 116.096 26.072C116.181 26.2427 116.171 26.424 116.064 26.616C116.021 26.7227 115.979 26.808 115.936 26.872C115.915 26.936 115.904 26.9787 115.904 27C115.904 27.0427 115.915 27.0747 115.936 27.096C115.979 27.1173 116.021 27.128 116.064 27.128C116.149 27.128 116.203 27.1707 116.224 27.256C116.267 27.3627 116.256 27.416 116.192 27.416C116.128 27.416 116.096 27.4373 116.096 27.48C116.096 27.544 116.149 27.576 116.256 27.576C116.341 27.576 116.395 27.64 116.416 27.768C116.437 27.9173 116.405 28.024 116.32 28.088C116.256 28.152 116.181 28.1947 116.096 28.216C116.011 28.2373 115.925 28.2373 115.84 28.216C115.776 28.216 115.744 28.2053 115.744 28.184C115.744 28.0987 115.701 28.056 115.616 28.056C115.531 28.056 115.488 28.088 115.488 28.152C115.488 28.1947 115.424 28.216 115.296 28.216C115.189 28.2373 115.072 28.2373 114.944 28.216C114.837 28.1947 114.763 28.152 114.72 28.088C114.635 28.024 114.549 28.024 114.464 28.088C114.4 28.152 114.347 28.152 114.304 28.088C114.261 28.024 114.165 27.992 114.016 27.992C113.803 27.992 113.483 27.9173 113.056 27.768C112.629 27.64 112.299 27.5227 112.064 27.416L111.168 26.936C110.677 26.6587 110.336 26.4347 110.144 26.264C109.952 26.072 109.579 25.7947 109.024 25.432C108.491 25.0693 108.107 24.7493 107.872 24.472C107.637 24.1947 107.317 23.8427 106.912 23.416C106.507 22.9893 106.272 22.7333 106.208 22.648C106.165 22.5627 106.101 22.5413 106.016 22.584C105.931 22.6267 105.963 22.7547 106.112 22.968C106.261 23.16 106.336 23.3307 106.336 23.48C106.336 23.608 106.368 23.6933 106.432 23.736C106.517 23.7573 106.539 23.7893 106.496 23.832C106.475 23.8747 106.347 23.8533 106.112 23.768C105.899 23.6613 105.771 23.608 105.728 23.608C105.685 23.608 105.536 23.5547 105.28 23.448C105.045 23.32 104.896 23.256 104.832 23.256C104.789 23.256 104.683 23.192 104.512 23.064C104.341 22.936 104.181 22.8613 104.032 22.84C103.883 22.7973 103.755 22.7227 103.648 22.616C103.563 22.488 103.392 22.328 103.136 22.136C102.901 21.944 102.571 21.6453 102.144 21.24C101.717 20.8347 101.472 20.632 101.408 20.632C101.365 20.632 101.237 20.8027 101.024 21.144C100.789 21.464 100.459 21.848 100.032 22.296C99.6267 22.7227 99.3813 22.936 99.296 22.936C99.2107 22.936 98.9653 23.16 98.56 23.608C98.4107 23.7573 98.2933 23.8747 98.208 23.96C98.144 24.024 98.08 24.0773 98.016 24.12C97.952 24.1627 97.9093 24.184 97.888 24.184C97.8667 24.184 97.8453 24.1733 97.824 24.152C97.7387 24.0667 97.6427 24.056 97.536 24.12C97.4293 24.1627 97.3013 24.152 97.152 24.088C97.0027 24.024 96.8533 24.0133 96.704 24.056C96.5547 24.0773 96.384 24.0027 96.192 23.832C96.064 23.704 95.9787 23.64 95.936 23.64C95.9147 23.64 95.8827 23.6827 95.84 23.768C95.7547 23.8747 95.712 23.9493 95.712 23.992C95.712 24.056 95.6587 24.2267 95.552 24.504C95.4667 24.76 95.3813 24.9413 95.296 25.048C95.232 25.176 95.2 25.2933 95.2 25.4C95.2 25.4853 95.1147 25.688 94.944 26.008C94.7947 26.3067 94.72 26.4987 94.72 26.584C94.72 26.648 94.6027 26.8187 94.368 27.096C94.1333 27.3947 93.9733 27.6507 93.888 27.864L93.728 28.184L93.504 27.96C93.3547 27.7893 93.216 27.6933 93.088 27.672C92.9813 27.672 92.9067 27.576 92.864 27.384C92.8427 27.2133 92.6507 26.9467 92.288 26.584C91.9467 26.2 91.776 25.9547 91.776 25.848C91.776 25.72 91.7333 25.6453 91.648 25.624C91.5627 25.5813 91.5627 25.5493 91.648 25.528C91.7333 25.4853 91.7333 25.4213 91.648 25.336C91.584 25.2507 91.584 25.144 91.648 25.016C91.712 24.888 91.7547 24.7173 91.776 24.504C91.7973 24.2693 91.8933 24.0667 92.064 23.896C92.256 23.704 92.3307 23.5653 92.288 23.48C92.2453 23.3733 92.288 23.32 92.416 23.32C92.5653 23.32 92.6187 23.2453 92.576 23.096C92.5333 22.9467 92.608 22.5733 92.8 21.976C93.1413 20.952 93.312 20.2587 93.312 19.896C93.3547 19.6827 93.3973 19.3947 93.44 19.032C93.504 18.648 93.536 18.3707 93.536 18.2C93.536 18.008 93.5573 17.8907 93.6 17.848C93.664 17.8053 93.728 17.4427 93.792 16.76C93.8773 16.0773 93.9413 15.6933 93.984 15.608C94.0267 15.5227 94.0587 15.3627 94.08 15.128C94.1013 14.872 94.1333 14.4133 94.176 13.752C94.2613 12.344 94.2187 11.384 94.048 10.872C93.984 10.6587 93.8133 10.4027 93.536 10.104C93.28 9.80533 93.184 9.656 93.248 9.656C93.3333 9.656 93.3547 9.61333 93.312 9.528C93.2693 9.44267 93.28 9.38933 93.344 9.368C93.4293 9.32533 93.5147 9.32533 93.6 9.368C93.7067 9.41067 93.856 9.464 94.048 9.528C94.304 9.54933 94.8373 9.688 95.648 9.944C95.8613 10.0293 96.2027 9.99733 96.672 9.848C97.1413 9.69867 97.9733 9.38933 99.168 8.92C100.576 8.344 101.408 8.01333 101.664 7.928C102.709 7.58667 103.317 7.34133 103.488 7.192C103.573 7.10667 103.669 7.064 103.776 7.064C103.883 7.064 104.021 6.98933 104.192 6.84ZM104.064 12.536C104.064 11.4693 104.053 10.8293 104.032 10.616C104.011 10.3813 103.957 10.264 103.872 10.264C103.765 10.2213 103.637 10.2427 103.488 10.328L102.848 10.616C101.483 11.2133 100.523 11.5973 99.968 11.768C99.4347 11.9173 98.88 11.992 98.304 11.992C97.7707 11.992 97.4613 12.024 97.376 12.088C97.2907 12.1307 97.2693 12.3547 97.312 12.76C97.3547 13.2507 97.2907 14.1147 97.12 15.352C97.0773 15.672 97.0347 15.8533 96.992 15.896C96.9493 15.9387 96.9707 16.0133 97.056 16.12C97.1413 16.2053 97.2053 16.2373 97.248 16.216C97.3333 16.1947 97.7067 16.248 98.368 16.376C99.0507 16.4827 99.4027 16.5253 99.424 16.504C99.552 16.3547 99.7333 15.96 99.968 15.32C100.203 14.6587 100.331 14.168 100.352 13.848C100.395 13.5067 100.459 13.2507 100.544 13.08C100.587 12.952 100.64 12.8773 100.704 12.856C100.789 12.8347 101.003 12.8347 101.344 12.856C101.728 12.8773 102.005 12.9307 102.176 13.016C102.368 13.08 102.485 13.2187 102.528 13.432C102.592 13.6027 102.667 13.688 102.752 13.688C102.837 13.688 102.965 13.7733 103.136 13.944C103.307 14.0933 103.392 14.424 103.392 14.936C103.392 15.4267 103.296 16.0133 103.104 16.696L102.752 17.976C102.731 18.104 102.773 18.2533 102.88 18.424C102.987 18.5733 103.36 18.9573 104 19.576C104.875 20.472 105.323 20.92 105.344 20.92C105.344 20.92 105.333 20.8773 105.312 20.792C105.312 20.7067 105.291 20.6 105.248 20.472C105.205 20.3227 105.141 20.1627 105.056 19.992C104.565 18.5627 104.277 17.1333 104.192 15.704C104.128 15.1067 104.085 14.0507 104.064 12.536ZM98.496 18.392C98.4533 18.328 98.1867 18.1893 97.696 17.976C97.2267 17.7627 96.9813 17.6453 96.96 17.624C96.896 17.56 96.8533 17.592 96.832 17.72C96.768 17.848 96.7147 18.104 96.672 18.488C96.5227 19.9387 96.4267 20.8347 96.384 21.176L96.32 21.624L96.672 21.176C96.928 20.92 97.0987 20.7173 97.184 20.568C97.2693 20.3973 97.3973 20.1947 97.568 19.96C97.76 19.704 97.9093 19.4693 98.016 19.256C98.1227 19.0213 98.24 18.84 98.368 18.712C98.496 18.5627 98.5387 18.456 98.496 18.392ZM134.72 2.456C134.848 2.47733 134.976 2.44533 135.104 2.36C135.232 2.27467 135.317 2.232 135.36 2.232C135.424 2.232 135.509 2.296 135.616 2.424C135.765 2.552 135.883 2.616 135.968 2.616C136.288 2.616 136.544 2.84 136.736 3.288C136.885 3.62933 137.013 3.85333 137.12 3.96C137.248 4.06667 137.312 4.16267 137.312 4.248C137.312 4.33333 137.344 4.376 137.408 4.376C137.451 4.376 137.472 4.408 137.472 4.472C137.493 4.536 137.493 4.62133 137.472 4.728C137.451 4.81333 137.408 4.888 137.344 4.952C137.259 5.10133 137.163 5.176 137.056 5.176C136.757 5.176 135.659 5.98667 133.76 7.608C131.776 9.272 130.603 10.1893 130.24 10.36C130.027 10.4667 129.813 10.6053 129.6 10.776C129.408 10.9253 129.312 11.032 129.312 11.096C129.312 11.1387 129.408 11.16 129.6 11.16C129.792 11.16 130.005 11.224 130.24 11.352C130.496 11.48 130.656 11.6187 130.72 11.768C130.827 11.9387 130.933 12.0773 131.04 12.184C131.168 12.2693 131.253 12.408 131.296 12.6C131.36 12.792 131.467 13.0053 131.616 13.24C131.765 13.4747 131.829 13.6347 131.808 13.72C131.787 13.8053 131.797 13.8693 131.84 13.912C131.883 13.9547 131.915 14.1893 131.936 14.616C131.957 15.0427 131.989 15.3413 132.032 15.512C132.075 15.6613 132.096 15.768 132.096 15.832C132.096 15.8533 132.171 15.8427 132.32 15.8C132.491 15.736 132.661 15.6613 132.832 15.576C133.024 15.4907 133.141 15.4373 133.184 15.416C133.269 15.352 133.28 15.2667 133.216 15.16C133.152 15.032 133.12 14.872 133.12 14.68C133.12 14.5093 133.067 14.328 132.96 14.136C132.875 13.944 132.768 13.816 132.64 13.752C132.512 13.688 132.491 13.592 132.576 13.464C132.661 13.336 132.896 13.2933 133.28 13.336C133.664 13.3787 133.856 13.368 133.856 13.304C133.856 13.24 133.76 13.1227 133.568 12.952C133.376 12.76 133.216 12.6427 133.088 12.6C132.981 12.5573 132.917 12.4507 132.896 12.28C132.896 12.1093 132.885 11.96 132.864 11.832C132.843 11.768 132.832 11.2987 132.832 10.424C132.832 9.528 132.832 8.96267 132.832 8.728C132.832 8.664 132.949 8.61067 133.184 8.568C133.419 8.52533 133.653 8.57867 133.888 8.728C134.08 8.81333 134.272 8.96267 134.464 9.176C134.677 9.38933 134.784 9.528 134.784 9.592C134.784 9.67733 134.859 9.80533 135.008 9.976C135.179 10.1467 135.253 10.2533 135.232 10.296C135.211 10.3173 135.232 10.5413 135.296 10.968L135.392 11.544L135.744 11C136.149 10.3387 136.512 9.64533 136.832 8.92C137.152 8.17333 137.28 7.72533 137.216 7.576C137.152 7.42667 137.152 7.29867 137.216 7.192C137.28 7.08533 137.376 7.05333 137.504 7.096C137.632 7.11733 137.696 7.096 137.696 7.032C137.696 6.86133 137.984 6.94667 138.56 7.288C138.816 7.43733 139.029 7.68267 139.2 8.024C139.371 8.36533 139.488 8.55733 139.552 8.6C139.616 8.62133 139.627 8.792 139.584 9.112C139.541 9.432 139.477 9.72 139.392 9.976C139.072 10.7867 138.795 11.288 138.56 11.48C138.496 11.5227 138.379 11.6933 138.208 11.992C138.037 12.2907 137.909 12.4187 137.824 12.376C137.739 12.3333 137.696 12.3547 137.696 12.44C137.696 12.504 137.643 12.536 137.536 12.536C137.451 12.536 137.408 12.568 137.408 12.632C137.408 12.6747 137.312 12.8027 137.12 13.016C136.928 13.208 136.832 13.336 136.832 13.4C136.832 13.4427 136.789 13.4533 136.704 13.432C136.619 13.3893 136.608 13.2613 136.672 13.048C136.736 12.792 136.736 12.6533 136.672 12.632C136.629 12.5893 136.523 12.7067 136.352 12.984C136.203 13.1973 136.107 13.2613 136.064 13.176C135.979 12.8987 135.797 12.9413 135.52 13.304C135.349 13.5173 135.264 13.72 135.264 13.912C135.264 14.0827 135.339 14.2 135.488 14.264C135.595 14.328 135.947 14.3493 136.544 14.328C137.141 14.2853 137.536 14.3173 137.728 14.424C137.92 14.5307 138.059 14.584 138.144 14.584C138.251 14.584 138.304 14.6373 138.304 14.744C138.304 14.8293 138.432 14.9467 138.688 15.096C138.944 15.2453 139.072 15.3733 139.072 15.48C139.072 15.5653 139.147 15.6507 139.296 15.736C139.445 15.8 139.52 15.8747 139.52 15.96C139.52 16.0453 139.563 16.1093 139.648 16.152C139.755 16.1733 139.787 16.2373 139.744 16.344C139.723 16.4293 139.744 16.4933 139.808 16.536C139.957 16.6213 139.936 16.7067 139.744 16.792C139.68 16.8133 139.605 16.824 139.52 16.824C139.349 16.824 138.955 16.9307 138.336 17.144L136.608 17.784C136.053 17.9547 135.733 18.072 135.648 18.136C135.584 18.1787 135.552 18.4667 135.552 19V19.768L135.872 19.832C137.109 20.0453 138.24 20.3227 139.264 20.664C141.035 21.2613 142.229 21.88 142.848 22.52L143.424 23.064C143.573 23.2133 143.755 23.4373 143.968 23.736C144.181 24.0133 144.288 24.184 144.288 24.248C144.288 24.3547 144.331 24.4507 144.416 24.536C144.523 24.6213 144.565 24.696 144.544 24.76C144.48 24.8667 144.587 25.1867 144.864 25.72C144.928 25.8907 144.981 26.0933 145.024 26.328C145.088 26.5627 145.131 26.7227 145.152 26.808C145.195 26.8933 145.184 26.936 145.12 26.936C145.056 26.936 144.843 26.8613 144.48 26.712C144.117 26.5413 143.925 26.456 143.904 26.456C143.883 26.456 143.787 26.4027 143.616 26.296C143.488 26.2107 142.912 25.9227 141.888 25.432C140.864 24.92 140.064 24.5467 139.488 24.312C138.933 24.056 138.133 23.7467 137.088 23.384C136.043 23.0213 135.499 22.872 135.456 22.936C135.392 22.9787 135.339 23.9493 135.296 25.848C135.275 27.7253 135.232 28.8987 135.168 29.368C135.104 29.8373 135.061 30.3387 135.04 30.872C135.019 31.4053 134.923 31.8107 134.752 32.088C134.432 32.5787 134.133 32.696 133.856 32.44C133.728 32.3547 133.664 32.2693 133.664 32.184C133.664 32.0987 133.632 32.056 133.568 32.056C133.525 32.056 133.504 32.024 133.504 31.96C133.504 31.896 133.387 31.768 133.152 31.576C132.939 31.384 132.832 31.2453 132.832 31.16C132.832 31.096 132.757 30.9893 132.608 30.84C132.459 30.6907 132.384 30.5307 132.384 30.36C132.384 30.1893 132.277 29.9973 132.064 29.784C131.595 29.2933 131.36 28.8453 131.36 28.44C131.36 28.312 131.445 28.2693 131.616 28.312C131.787 28.3547 131.936 28.408 132.064 28.472C132.192 28.5573 132.309 28.5787 132.416 28.536C132.523 28.5147 132.576 28.4613 132.576 28.376C132.576 27.2453 132.608 26.616 132.672 26.488C132.736 26.4453 132.779 25.9653 132.8 25.048C132.843 24.1307 132.875 23.5547 132.896 23.32C132.917 22.936 132.875 22.7013 132.768 22.616C132.683 22.6587 132.448 22.936 132.064 23.448C131.701 23.96 131.381 24.3653 131.104 24.664L130.048 25.88C129.003 27.0533 128.288 27.7573 127.904 27.992C127.776 28.0773 127.669 28.1093 127.584 28.088C127.499 28.088 127.456 28.0347 127.456 27.928C127.456 27.864 127.339 27.608 127.104 27.16C126.891 26.712 126.784 26.296 126.784 25.912C126.805 25.5067 126.837 25.24 126.88 25.112C126.923 24.984 127.381 24.4613 128.256 23.544C129.152 22.6053 129.728 21.9867 129.984 21.688C131.2 20.2587 131.776 19.5227 131.712 19.48C131.669 19.416 131.413 19.4587 130.944 19.608C130.581 19.7147 130.347 19.768 130.24 19.768C130.133 19.768 129.963 19.7253 129.728 19.64C129.408 19.5547 129.195 19.512 129.088 19.512C128.981 19.512 128.747 19.416 128.384 19.224C128.021 19.032 127.776 18.8933 127.648 18.808C127.52 18.7013 127.456 18.616 127.456 18.552C127.456 18.4667 127.371 18.3813 127.2 18.296C127.051 18.2107 126.976 18.1467 126.976 18.104C126.976 17.9547 126.944 17.848 126.88 17.784C126.773 17.6347 126.869 17.5173 127.168 17.432C127.317 17.3893 127.52 17.3573 127.776 17.336C128.331 17.2293 129.12 17.0053 130.144 16.664C131.189 16.3227 131.712 16.0987 131.712 15.992C131.712 15.9707 131.509 15.864 131.104 15.672C130.016 15.1387 129.344 14.3067 129.088 13.176C129.045 13.0267 128.885 12.76 128.608 12.376C128.331 11.9707 128.181 11.6613 128.16 11.448C128.16 11.2133 128.075 10.9787 127.904 10.744C127.733 10.488 127.648 10.3067 127.648 10.2C127.648 10.0933 127.584 9.944 127.456 9.752C127.328 9.53867 127.296 9.22933 127.36 8.824C127.381 8.58933 127.403 8.41866 127.424 8.312C127.467 8.20533 127.573 8.06667 127.744 7.896C128.149 7.53333 128.597 7.24533 129.088 7.032C129.28 6.92533 129.419 6.82933 129.504 6.744C129.589 6.63733 129.771 6.50933 130.048 6.36C130.325 6.21067 130.624 5.976 130.944 5.656C131.264 5.336 131.477 5.176 131.584 5.176C131.627 5.176 131.659 5.176 131.68 5.176C131.701 5.15467 131.701 5.13333 131.68 5.112C131.659 5.06933 131.904 4.824 132.416 4.376L133.856 3.064C134.304 2.616 134.592 2.41333 134.72 2.456Z" fill="black"/>
</svg>
