<svg width="121" height="29" viewBox="0 0 121 29" fill="none" xmlns="http://www.w3.org/2000/svg">
<path d="M10.176 0.927999C10.176 0.842666 10.1867 0.799999 10.208 0.799999C10.2293 0.778666 10.3147 0.778666 10.464 0.799999C10.8907 0.863998 11.104 0.970665 11.104 1.12C11.104 1.16267 11.1893 1.184 11.36 1.184C11.5307 1.184 11.68 1.25867 11.808 1.408C11.9573 1.55733 12.1707 1.73867 12.448 1.952C12.7253 2.144 12.864 2.29333 12.864 2.4C12.864 2.48533 12.9173 2.57067 13.024 2.656C13.152 2.74133 13.216 2.82667 13.216 2.912C13.216 2.99733 13.2587 3.04 13.344 3.04C13.4293 3.04 13.504 3.104 13.568 3.232C13.6747 3.552 13.7493 4.064 13.792 4.768C13.856 5.472 13.8453 5.87733 13.76 5.984C13.696 6.06933 13.696 6.15467 13.76 6.24C13.8453 6.32533 13.8133 6.464 13.664 6.656C13.4293 6.93333 13.376 7.072 13.504 7.072C13.632 7.072 13.9093 7.04 14.336 6.976C14.72 6.86933 14.912 6.77333 14.912 6.688C14.912 6.60267 14.944 6.56 15.008 6.56C15.072 6.56 15.0827 6.53867 15.04 6.496C14.9973 6.41067 15.0613 6.38933 15.232 6.432C15.2747 6.432 15.3067 6.432 15.328 6.432C15.5627 6.45333 15.7227 6.368 15.808 6.176C15.872 6.048 15.936 5.984 16 5.984C16.064 5.96267 16.2133 5.96267 16.448 5.984C16.6827 6.00533 16.8213 6.016 16.864 6.016C16.9067 5.99467 16.928 5.94133 16.928 5.856C16.9067 5.792 16.9173 5.74933 16.96 5.728C17.0027 5.70667 17.0987 5.70667 17.248 5.728C17.9947 5.74933 18.432 5.81333 18.56 5.92C18.624 5.984 18.6987 6.016 18.784 6.016C18.8267 6.016 19.1787 6.34667 19.84 7.008C20.5013 7.648 20.928 8.08533 21.12 8.32C21.312 8.55467 21.408 8.768 21.408 8.96C21.408 9.152 21.44 9.26933 21.504 9.312C21.568 9.376 21.5893 9.42933 21.568 9.472C21.568 9.51467 21.536 9.536 21.472 9.536C21.3653 9.536 21.2267 9.57867 21.056 9.664C20.8853 9.74933 20.7573 9.77067 20.672 9.728C20.608 9.664 20.4907 9.65333 20.32 9.696L19.36 9.888C18.336 10.08 17.5147 10.336 16.896 10.656C16.7253 10.72 16.5653 10.7413 16.416 10.72C16.2667 10.6773 16.192 10.6987 16.192 10.784C16.192 10.8693 16.064 10.976 15.808 11.104L14.944 11.456C14.624 11.584 14.24 11.744 13.792 11.936C13.3653 12.1067 13.152 12.2133 13.152 12.256C13.152 12.2987 13.2267 12.3413 13.376 12.384C13.568 12.4267 13.792 12.5547 14.048 12.768C14.304 12.9813 14.4747 13.1627 14.56 13.312C14.624 13.504 14.656 14.048 14.656 14.944C14.656 15.9893 14.5707 16.832 14.4 17.472L14.176 18.208C14.1547 18.3573 14.1227 18.4853 14.08 18.592C13.8453 19.104 13.76 19.4027 13.824 19.488C13.8667 19.5093 14.0907 19.6053 14.496 19.776C16.4587 20.5653 18.0267 21.248 19.2 21.824C20.1813 22.3147 20.704 22.56 20.768 22.56C20.832 22.56 20.9813 22.6667 21.216 22.88L21.952 23.456C22.208 23.6693 22.336 23.808 22.336 23.872C22.336 23.936 22.4107 24.0533 22.56 24.224C22.7307 24.3947 22.8373 24.4693 22.88 24.448C22.9227 24.4267 22.9653 24.448 23.008 24.512C23.0507 24.576 23.0827 24.6507 23.104 24.736C23.1253 24.8213 23.1147 24.8747 23.072 24.896C23.0293 24.96 23.0613 25.152 23.168 25.472C23.2747 25.792 23.3813 26.24 23.488 26.816C23.5733 27.2213 23.616 27.4667 23.616 27.552C23.616 27.6587 23.5627 27.776 23.456 27.904C23.3707 28.0107 23.3067 28.064 23.264 28.064C23.2427 28.0853 23.2107 28.064 23.168 28C23.0613 27.872 22.8907 27.808 22.656 27.808C22.4213 27.808 22.2827 27.7653 22.24 27.68C22.2187 27.616 22.144 27.584 22.016 27.584C21.888 27.584 21.792 27.5093 21.728 27.36C21.6853 27.232 21.568 27.1147 21.376 27.008C21.184 26.9227 21.0347 26.8267 20.928 26.72C20.7787 26.592 20.6187 26.5387 20.448 26.56C20.4053 26.56 20.3733 26.5387 20.352 26.496C20.3307 26.4747 20.32 26.4427 20.32 26.4C20.2773 26.2507 20.1387 26.0907 19.904 25.92C19.6693 25.7707 19.4773 25.6853 19.328 25.664C19.2 25.664 18.9013 25.5147 18.432 25.216C17.984 24.9173 17.728 24.7253 17.664 24.64C17.6213 24.5547 17.504 24.4587 17.312 24.352C17.12 24.2667 16.992 24.2453 16.928 24.288C16.8853 24.3307 16.5547 24.2027 15.936 23.904C15.3387 23.584 14.816 23.3493 14.368 23.2C13.92 23.0293 13.6427 22.912 13.536 22.848C13.4293 22.784 13.1733 22.688 12.768 22.56L12.192 22.4L11.904 22.56C11.6693 22.7093 11.5733 22.8267 11.616 22.912C11.6373 22.9547 11.5947 23.0293 11.488 23.136C11.4027 23.2427 11.3173 23.296 11.232 23.296C11.168 23.296 11.104 23.3707 11.04 23.52C10.976 23.648 10.88 23.7227 10.752 23.744C10.624 23.7653 10.464 23.8507 10.272 24C10.1013 24.1493 9.99467 24.224 9.952 24.224C9.93067 24.224 9.824 24.2987 9.632 24.448C9.44 24.6187 9.19467 24.7787 8.896 24.928C8.61867 25.0987 8.48 25.216 8.48 25.28C8.48 25.344 8.42667 25.3547 8.32 25.312C8.21333 25.2693 8.13867 25.3013 8.096 25.408C8.05333 25.536 7.936 25.6 7.744 25.6C7.552 25.6213 7.41333 25.664 7.328 25.728C7.264 25.792 7.25333 25.824 7.296 25.824L6.56 26.432C6.432 26.5173 6.31467 26.6027 6.208 26.688C5.952 26.8373 5.73867 26.912 5.568 26.912C5.41867 26.912 5.30133 26.9653 5.216 27.072C5.06667 27.1573 4.97067 27.1893 4.928 27.168C4.88533 27.168 4.864 27.104 4.864 26.976C4.864 26.72 4.77867 26.6773 4.608 26.848C4.52267 26.9333 4.43733 26.9227 4.352 26.816C4.288 26.7093 4.21333 26.656 4.128 26.656C4.04267 26.656 3.92533 26.592 3.776 26.464C3.648 26.3573 3.54133 26.304 3.456 26.304C3.392 26.304 3.36 26.2187 3.36 26.048C3.36 25.8987 3.30667 25.824 3.2 25.824C3.11467 25.8453 3.008 25.8453 2.88 25.824C2.752 25.824 2.74133 25.7707 2.848 25.664C2.848 25.6427 2.86933 25.6213 2.912 25.6C3.06133 25.4293 3.37067 25.184 3.84 24.864C4.30933 24.544 4.61867 24.3093 4.768 24.16C4.93867 24.0107 5.10933 23.8827 5.28 23.776C5.472 23.6907 5.84533 23.392 6.4 22.88C6.656 22.6667 6.80533 22.56 6.848 22.56C6.912 22.56 7.02933 22.4747 7.2 22.304C7.73333 21.7707 8.10667 21.4613 8.32 21.376C8.46933 21.312 8.39467 21.2373 8.096 21.152C8.032 21.1093 7.95733 21.088 7.872 21.088C7.53067 21.0027 7.04 20.864 6.4 20.672C5.78133 20.4587 5.344 20.3307 5.088 20.288C4.93867 20.2667 4.768 20.224 4.576 20.16C4.40533 20.0747 4.256 20 4.128 19.936C4 19.8507 3.95733 19.7973 4 19.776C4.02133 19.712 3.98933 19.68 3.904 19.68C3.84 19.68 3.81867 19.6373 3.84 19.552C3.88267 19.4667 3.808 19.392 3.616 19.328C3.44533 19.264 3.37067 19.1573 3.392 19.008C3.41333 18.8587 3.60533 18.7413 3.968 18.656C4.33067 18.5707 5.03467 18.5067 6.08 18.464C6.93333 18.4 7.712 18.3893 8.416 18.432C9.14133 18.4533 9.504 18.496 9.504 18.56C9.504 18.6027 9.44 18.6133 9.312 18.592C9.20533 18.5707 9.152 18.5813 9.152 18.624C9.152 18.7093 9.216 18.7627 9.344 18.784C9.472 18.8267 9.61067 18.8587 9.76 18.88C9.90933 18.88 10.0267 18.88 10.112 18.88C10.1973 18.8587 10.24 18.8267 10.24 18.784C10.24 18.72 10.304 18.6773 10.432 18.656C10.56 18.6133 10.6347 18.5387 10.656 18.432C10.6987 18.304 10.912 17.856 11.296 17.088C11.7653 16.1067 12.0747 15.3387 12.224 14.784C12.3307 14.3573 12.384 13.9413 12.384 13.536C12.384 13.1307 12.3307 12.8853 12.224 12.8C12.1387 12.7147 11.5307 12.96 10.4 13.536C9.29067 14.112 8.704 14.4 8.64 14.4C8.59733 14.3787 8.42667 14.464 8.128 14.656C7.85067 14.8267 7.63733 14.944 7.488 15.008C7.33867 15.0507 7.2 15.1253 7.072 15.232C6.944 15.3387 6.816 15.392 6.688 15.392C6.56 15.392 6.38933 15.4773 6.176 15.648C5.96267 15.7973 5.792 15.872 5.664 15.872C5.536 15.872 5.39733 15.9253 5.248 16.032C5.12 16.1173 5.024 16.1493 4.96 16.128C4.896 16.0853 4.81067 16.1067 4.704 16.192C4.61867 16.256 4.58667 16.32 4.608 16.384C4.62933 16.448 4.56533 16.5653 4.416 16.736L4.192 16.96V16.672C4.192 16.5013 4.14933 16.4373 4.064 16.48C3.97867 16.5227 3.808 16.48 3.552 16.352C3.296 16.2027 3.12533 16.1493 3.04 16.192C2.976 16.2133 2.90133 16.128 2.816 15.936C2.752 15.808 2.66667 15.712 2.56 15.648C2.47467 15.584 2.41067 15.5947 2.368 15.68C2.34667 15.7227 2.29333 15.712 2.208 15.648C2.12267 15.584 2.03733 15.4987 1.952 15.392C1.86667 15.264 1.792 15.1573 1.728 15.072C1.70667 14.9227 1.62133 14.848 1.472 14.848C1.42933 14.848 1.39733 14.8373 1.376 14.816C1.35467 14.7947 1.344 14.7627 1.344 14.72C1.36533 14.6773 1.344 14.6347 1.28 14.592C1.23733 14.5493 1.17333 14.496 1.088 14.432C0.938667 14.368 0.853334 14.3147 0.832 14.272C0.810667 14.208 0.810667 14.1227 0.832 14.016C0.832 13.824 0.8 13.728 0.736 13.728C0.672 13.792 0.597334 13.792 0.512 13.728C0.448 13.664 0.416 13.5787 0.416 13.472C0.416 13.408 0.490667 13.312 0.64 13.184C0.789334 13.0347 1.00267 12.9707 1.28 12.992C1.55733 12.992 1.728 12.9493 1.792 12.864C1.87733 12.7573 2.048 12.6933 2.304 12.672C2.64533 12.6293 3.25333 12.3947 4.128 11.968C4.59733 11.776 4.992 11.6267 5.312 11.52C5.632 11.392 5.86667 11.264 6.016 11.136C6.18667 11.008 6.32533 10.944 6.432 10.944C6.56 10.944 6.624 10.9227 6.624 10.88C6.624 10.816 6.72 10.7307 6.912 10.624C7.104 10.5173 7.2 10.496 7.2 10.56C7.2 10.6027 7.264 10.5493 7.392 10.4C7.54133 10.2507 7.648 10.1973 7.712 10.24C7.776 10.2613 7.81867 10.24 7.84 10.176C7.904 10.0907 8.288 9.87733 8.992 9.536C9.312 9.38667 9.504 9.28 9.568 9.216C9.65333 9.152 9.73867 9.12 9.824 9.12C9.90933 9.12 10.0373 9.04533 10.208 8.896C10.4 8.74667 10.624 8.62933 10.88 8.544C11.136 8.45867 11.264 8.39467 11.264 8.352C11.264 8.288 11.3173 8.256 11.424 8.256C11.616 8.256 11.5413 8.064 11.2 7.68C10.7307 7.18933 10.5173 6.93333 10.56 6.912C10.6027 6.848 10.5813 6.688 10.496 6.432C10.4107 6.15467 10.3893 5.71733 10.432 5.12C10.496 4.52267 10.56 4.17067 10.624 4.064C10.688 3.936 10.7093 3.76533 10.688 3.552C10.5387 2.25067 10.4107 1.51467 10.304 1.344C10.2187 1.216 10.176 1.07733 10.176 0.927999ZM46.784 9.92C46.8907 9.89867 46.944 9.89867 46.944 9.92C46.88 9.984 46.8053 10.016 46.72 10.016C46.656 10.016 46.6773 9.984 46.784 9.92ZM49.408 8.576C49.408 8.36267 49.6533 8.40533 50.144 8.704C50.4 8.87467 50.6773 9.03467 50.976 9.184C51.2747 9.33333 51.5093 9.51467 51.68 9.728C51.872 9.92 51.968 10.1013 51.968 10.272C51.968 10.4427 51.9253 10.6453 51.84 10.88C51.6693 11.2213 51.2747 11.7227 50.656 12.384C50.0587 13.0453 49.6747 13.376 49.504 13.376C49.44 13.376 49.3333 13.472 49.184 13.664C49.056 13.8347 48.9387 13.92 48.832 13.92C48.7253 13.92 48.5013 14.048 48.16 14.304C47.84 14.5387 47.648 14.656 47.584 14.656C47.5413 14.656 47.3813 14.752 47.104 14.944C46.8267 15.1147 46.5707 15.264 46.336 15.392C45.9947 15.584 45.792 15.744 45.728 15.872C45.664 15.9787 45.632 16.2453 45.632 16.672C45.632 17.76 45.6427 18.4107 45.664 18.624C45.7067 18.816 45.7493 18.912 45.792 18.912C45.984 18.912 46.4747 18.6453 47.264 18.112L47.904 17.632C48.1173 17.4827 48.5867 17.0453 49.312 16.32C50.0373 15.5733 50.5493 15.0293 50.848 14.688C51.2107 14.2187 51.456 13.8987 51.584 13.728C51.712 13.5573 51.776 13.408 51.776 13.28C51.776 13.216 51.8507 13.056 52 12.8C52.1493 12.544 52.256 12.416 52.32 12.416C52.3413 12.416 52.448 12.512 52.64 12.704C52.832 12.896 53.0773 13.0667 53.376 13.216C53.7173 13.3653 54.0373 13.6213 54.336 13.984C54.6773 14.3893 54.6987 14.8053 54.4 15.232C54.2507 15.4453 54.1547 15.5627 54.112 15.584C54.0693 15.6053 54.048 15.6693 54.048 15.776C54.048 15.8827 53.984 15.9893 53.856 16.096C53.728 16.1813 53.664 16.256 53.664 16.32C53.6853 16.4693 53.5893 16.5973 53.376 16.704C53.2053 16.832 53.12 16.9493 53.12 17.056C53.0987 17.0987 53.0773 17.12 53.056 17.12C53.0133 17.0987 52.8747 17.1947 52.64 17.408C52.0213 17.984 51.584 18.3467 51.328 18.496C51.136 18.56 51.04 18.6347 51.04 18.72C51.04 18.7627 50.944 18.8587 50.752 19.008C50.56 19.1573 50.4107 19.232 50.304 19.232C50.2613 19.232 50.1973 19.296 50.112 19.424C50.048 19.5307 50.016 19.648 50.016 19.776C50.016 19.9467 50.4 20.1387 51.168 20.352C51.488 20.48 51.7227 20.5653 51.872 20.608C52.576 20.9067 52.9707 21.056 53.056 21.056C53.12 21.056 53.2693 21.12 53.504 21.248C53.76 21.376 53.9093 21.44 53.952 21.44C54.016 21.44 54.304 21.568 54.816 21.824C55.3493 22.08 55.616 22.2507 55.616 22.336C55.616 22.4213 55.616 22.464 55.616 22.464C55.6373 22.464 55.6907 22.4213 55.776 22.336C55.8827 22.2507 55.9893 22.2613 56.096 22.368C56.2027 22.4533 56.2987 22.6027 56.384 22.816C56.4907 23.0293 56.5867 23.1573 56.672 23.2C56.7787 23.2213 56.9067 23.3707 57.056 23.648C57.2267 23.9253 57.4293 24.2133 57.664 24.512C57.8133 24.6827 57.9733 24.9173 58.144 25.216C58.3147 25.5147 58.4 25.696 58.4 25.76C58.4 25.7813 58.3467 25.792 58.24 25.792C58.112 25.792 58.048 25.8027 58.048 25.824C58.048 25.8667 58.0693 25.9733 58.112 26.144C58.176 26.272 58.176 26.3573 58.112 26.4C58.0693 26.464 57.9947 26.464 57.888 26.4C57.824 26.3147 57.3547 26.048 56.48 25.6C54.4533 24.5547 52.1707 23.5947 49.632 22.72C49.248 22.592 49.0133 22.496 48.928 22.432C48.864 22.368 48.7573 22.3787 48.608 22.464C48.4587 22.528 48.384 22.6133 48.384 22.72C48.384 22.784 48.352 22.816 48.288 22.816C48.2453 22.816 48.1813 22.8907 48.096 23.04C48.032 23.1893 48 23.2853 48 23.328C48 23.392 48.096 23.36 48.288 23.232L48.448 23.2C48.4267 23.2427 48.2987 23.4027 48.064 23.68C47.7013 24.0853 47.4987 24.3627 47.456 24.512C47.392 24.6187 47.3173 24.736 47.232 24.864C47.1467 24.992 47.0613 25.0987 46.976 25.184C46.8907 25.2907 46.848 25.3227 46.848 25.28C46.8267 25.2587 46.7627 25.2907 46.656 25.376C46.5493 25.4613 46.4427 25.568 46.336 25.696C46.2293 25.8453 46.144 25.984 46.08 26.112C45.9947 26.3467 45.888 26.4533 45.76 26.432C45.6533 26.4107 45.6 26.432 45.6 26.496C45.6 26.5813 45.376 26.8267 44.928 27.232C44.5013 27.6587 44.2453 27.872 44.16 27.872C44.1173 27.872 44.096 27.904 44.096 27.968C44.096 28.0747 44.0427 28.1707 43.936 28.256C43.8293 28.3413 43.7227 28.3733 43.616 28.352C43.424 28.3093 43.296 28.0747 43.232 27.648C43.232 27.52 43.136 27.4347 42.944 27.392C42.7733 27.3493 42.6773 27.36 42.656 27.424L42.56 27.136C42.5173 26.88 42.432 26.7307 42.304 26.688C42.176 26.6453 42.1333 26.5387 42.176 26.368C42.1973 26.1973 42.1973 26.112 42.176 26.112C42.1547 26.112 42.0693 26.1653 41.92 26.272L41.76 26.496L41.824 26.176C41.8453 25.9627 41.792 25.824 41.664 25.76C41.3013 25.6533 41.2693 25.3867 41.568 24.96C41.7173 24.7467 41.792 24.5653 41.792 24.416C41.792 24.288 41.8773 24.1813 42.048 24.096C42.2187 24.0107 42.336 23.904 42.4 23.776C42.4853 23.6267 42.5813 23.2213 42.688 22.56C42.816 21.8773 42.8907 21.3333 42.912 20.928C42.9333 20.3733 42.9653 20.064 43.008 20C43.072 19.936 43.104 19.7653 43.104 19.488C43.1253 19.2107 43.1787 18.7627 43.264 18.144C43.4347 16.5867 43.4347 15.744 43.264 15.616C43.1787 15.5947 43.1573 15.5413 43.2 15.456C43.2427 15.3707 43.2 15.2853 43.072 15.2C42.944 15.1147 42.88 15.04 42.88 14.976C42.88 14.912 42.7627 14.784 42.528 14.592C42.1227 14.272 42.0373 14.112 42.272 14.112C42.3573 14.112 42.3893 14.0587 42.368 13.952C42.3467 13.9093 42.368 13.8773 42.432 13.856C42.816 13.728 43.2 13.7493 43.584 13.92C43.6053 13.9413 43.6267 13.952 43.648 13.952C43.7973 14.0587 43.968 14.0587 44.16 13.952C45.056 13.504 46.4427 12.2987 48.32 10.336C48.7893 9.888 49.088 9.568 49.216 9.376C49.344 9.184 49.3653 9.024 49.28 8.896C49.216 8.768 49.216 8.704 49.28 8.704C49.3653 8.704 49.408 8.66133 49.408 8.576ZM46.208 21.376C45.76 21.248 45.5253 21.184 45.504 21.184C45.4827 21.184 45.408 21.5147 45.28 22.176C45.152 22.8373 45.088 23.2427 45.088 23.392C45.088 23.52 45.472 23.2747 46.24 22.656C46.56 22.3787 46.72 22.2613 46.72 22.304C46.6987 22.4107 46.7093 22.464 46.752 22.464C46.7733 22.464 46.8373 22.4213 46.944 22.336C47.0507 22.2507 47.1467 22.1653 47.232 22.08C47.3173 21.9733 47.3493 21.8987 47.328 21.856C47.2213 21.7707 46.848 21.6107 46.208 21.376ZM35.168 1.504C35.168 1.48267 35.1893 1.48267 35.232 1.504C35.2747 1.504 35.3387 1.51467 35.424 1.536C35.5093 1.55733 35.6053 1.57867 35.712 1.6C36.096 1.68533 36.5013 1.81333 36.928 1.984C37.376 2.13333 37.6 2.24 37.6 2.304C37.6 2.34667 37.664 2.38933 37.792 2.432C38.176 2.51733 38.5387 2.90133 38.88 3.584C39.008 3.86133 39.0827 4.08533 39.104 4.256C39.1253 4.42667 39.1253 4.85333 39.104 5.536C39.104 6.47467 39.136 6.944 39.2 6.944C39.2853 6.944 39.488 7.01867 39.808 7.168C40.1493 7.31733 40.3627 7.41333 40.448 7.456C40.5547 7.49867 40.6933 7.57333 40.864 7.68C41.056 7.78667 41.1413 7.95733 41.12 8.192C41.12 8.40533 41.1947 8.53333 41.344 8.576C41.5787 8.64 41.5893 8.72533 41.376 8.832C41.2693 8.85333 41.152 8.88533 41.024 8.928C40.768 8.94933 40.544 9.056 40.352 9.248C40.1813 9.44 40 9.55733 39.808 9.6C39.6373 9.64267 39.4453 9.76 39.232 9.952C39.04 10.1227 38.9227 10.208 38.88 10.208C38.8373 10.208 38.816 10.2507 38.816 10.336C38.816 10.4213 38.7627 10.4747 38.656 10.496C38.6133 10.496 38.5707 10.4853 38.528 10.464L38.592 10.4C38.5067 10.4 38.4 10.4533 38.272 10.56C38.1653 10.688 38.0693 10.752 37.984 10.752C37.92 10.752 37.856 10.976 37.792 11.424C37.7493 11.8933 37.632 12.6187 37.44 13.6C37.4187 13.664 37.408 13.696 37.408 13.696C37.4293 13.696 37.4933 13.664 37.6 13.6C37.6853 13.4933 37.7707 13.44 37.856 13.44C37.9627 13.44 38.1013 13.408 38.272 13.344C38.4427 13.2587 38.656 13.2907 38.912 13.44C39.1893 13.568 39.4987 13.6427 39.84 13.664C40.4373 13.728 40.8427 13.8987 41.056 14.176C41.2907 14.4533 41.4187 14.9653 41.44 15.712C41.4613 16.3307 41.4187 17.056 41.312 17.888C41.056 19.552 40.8213 20.6613 40.608 21.216C40.5227 21.408 40.4907 21.536 40.512 21.6C40.5547 21.664 40.544 21.7173 40.48 21.76C40.416 21.8027 40.384 21.8987 40.384 22.048C40.384 22.176 40.2987 22.4 40.128 22.72C39.9787 23.04 39.8827 23.3173 39.84 23.552C39.8187 23.7653 39.776 23.872 39.712 23.872C39.6693 23.872 39.6053 23.9573 39.52 24.128C39.456 24.32 39.3813 24.4267 39.296 24.448C39.2107 24.4693 39.1787 24.5227 39.2 24.608C39.2427 24.7147 39.232 24.768 39.168 24.768C39.1467 24.768 39.1253 24.768 39.104 24.768C39.104 24.7893 39.104 24.8213 39.104 24.864C39.104 24.9067 39.0293 25.0027 38.88 25.152C38.7307 25.3227 38.592 25.4293 38.464 25.472C38.3787 25.4933 38.3467 25.536 38.368 25.6C38.4107 25.6853 38.3893 25.7707 38.304 25.856C38.2187 25.9627 38.144 26.1013 38.08 26.272C37.9947 26.4213 37.856 26.5707 37.664 26.72C37.4933 26.8693 37.3867 26.9227 37.344 26.88C37.344 26.88 37.3227 26.8907 37.28 26.912C37.2373 26.9333 37.1947 26.9653 37.152 27.008C37.1307 27.072 37.0987 27.1253 37.056 27.168L36.864 27.552L36.768 27.168C36.7467 26.9547 36.672 26.784 36.544 26.656C36.4373 26.5493 36.384 26.4427 36.384 26.336C36.384 26.2293 36.3413 26.144 36.256 26.08C36.0213 25.8453 35.904 25.6 35.904 25.344C35.904 25.1947 35.8613 25.0773 35.776 24.992C35.712 24.928 35.6587 24.6613 35.616 24.192C35.5733 23.744 35.5093 23.1787 35.424 22.496C35.3173 21.9413 35.264 21.408 35.264 20.896C35.2853 20.3627 35.3387 20.0853 35.424 20.064C35.4453 20.064 35.4667 20.096 35.488 20.16C35.5093 20.224 35.5413 20.3093 35.584 20.416C35.6267 20.5227 35.6587 20.6613 35.68 20.832C35.8507 21.7707 36.032 22.336 36.224 22.528C36.3947 22.656 36.48 22.7627 36.48 22.848C36.48 22.912 36.512 22.9227 36.576 22.88C36.64 22.8373 36.672 22.7627 36.672 22.656C36.672 22.5493 36.7573 22.4107 36.928 22.24C37.056 22.0907 37.2373 21.728 37.472 21.152C37.728 20.576 37.856 20.2027 37.856 20.032C37.856 19.8827 37.92 19.6053 38.048 19.2C38.176 18.7947 38.2187 18.528 38.176 18.4C38.1547 18.2507 38.176 18.0693 38.24 17.856C38.304 17.6213 38.3787 17.2053 38.464 16.608C38.5493 16.1387 38.5707 15.84 38.528 15.712C38.4853 15.5627 38.3787 15.488 38.208 15.488C38.0587 15.488 37.8667 15.4453 37.632 15.36C37.376 15.2533 37.2053 15.2107 37.12 15.232C37.056 15.232 37.0027 15.3067 36.96 15.456C36.9173 15.6053 36.8213 15.8293 36.672 16.128C36.544 16.4267 36.4267 16.736 36.32 17.056C36.2133 17.3547 36.0533 17.664 35.84 17.984C35.648 18.2827 35.5307 18.5067 35.488 18.656C35.4453 18.784 35.3173 19.0507 35.104 19.456C34.8907 19.8613 34.752 20.1067 34.688 20.192C34.624 20.256 34.592 20.3413 34.592 20.448C34.592 20.5333 34.5493 20.6187 34.464 20.704C34.3787 20.768 34.3253 20.864 34.304 20.992C34.2187 21.376 33.984 21.8987 33.6 22.56C33.216 23.2427 32.8747 23.68 32.576 23.872C32.512 23.9147 32.4587 23.9147 32.416 23.872C32.3733 23.8293 32.3413 23.7333 32.32 23.584C32.2773 23.3493 32.192 23.2213 32.064 23.2C31.9573 23.1573 31.8827 23.04 31.84 22.848C31.8187 22.656 31.744 22.5173 31.616 22.432C31.5093 22.3467 31.456 22.1867 31.456 21.952C31.4773 21.7173 31.4453 21.5787 31.36 21.536C31.2747 21.4933 31.2747 21.3227 31.36 21.024C31.4667 20.704 31.5947 20.4693 31.744 20.32C31.9147 20.1493 32.0427 19.9467 32.128 19.712C32.4053 19.1147 33.0133 17.76 33.952 15.648C34.5493 14.2827 34.752 13.6 34.56 13.6C34.496 13.5787 34.3467 13.664 34.112 13.856C33.856 14.0693 33.6853 14.176 33.6 14.176C33.5147 14.176 33.376 14.24 33.184 14.368C33.0347 14.4533 32.9173 14.496 32.832 14.496C32.7467 14.4747 32.5333 14.4107 32.192 14.304C31.744 14.112 31.4027 13.92 31.168 13.728C30.9333 13.536 30.784 13.44 30.72 13.44C30.656 13.44 30.592 13.3867 30.528 13.28C30.336 13.024 30.0907 12.896 29.792 12.896C29.664 12.896 29.6 12.7787 29.6 12.544C29.6 12.4373 29.6107 12.3627 29.632 12.32C29.6747 12.256 29.7493 12.224 29.856 12.224C29.984 12.224 30.336 12.0853 30.912 11.808C31.5093 11.5093 31.9573 11.232 32.256 10.976C32.5547 10.7627 32.7467 10.656 32.832 10.656C32.9387 10.656 33.0453 10.592 33.152 10.464C33.28 10.336 33.376 10.272 33.44 10.272C33.4827 10.272 33.6427 10.176 33.92 9.984C34.1973 9.792 34.3573 9.65333 34.4 9.568C34.4427 9.504 34.5067 9.472 34.592 9.472C34.6773 9.472 34.72 9.44 34.72 9.376C34.72 9.312 34.9227 9.184 35.328 8.992C35.7333 8.77867 35.968 8.61867 36.032 8.512C36.096 8.384 36.1813 8.32 36.288 8.32C36.3947 8.32 36.4587 8.27733 36.48 8.192C36.5227 8.08533 36.576 8.064 36.64 8.128C36.704 8.17067 36.7787 8.14933 36.864 8.064C36.9707 7.97867 37.024 7.88267 37.024 7.776C37.024 7.66933 36.9173 7.52 36.704 7.328C36.5547 7.17867 36.4693 7.06133 36.448 6.976C36.4267 6.89067 36.416 6.72 36.416 6.464C36.4373 6.05867 36.448 5.80267 36.448 5.696C36.4693 5.568 36.512 5.55733 36.576 5.664C36.64 5.74933 36.672 5.71733 36.672 5.568C36.6507 5.46133 36.608 5.408 36.544 5.408C36.48 5.472 36.4373 5.344 36.416 5.024C36.3947 4.91733 36.384 4.77867 36.384 4.608C36.3413 4.24533 36.2667 4.032 36.16 3.968C36.0747 3.88266 35.9787 3.59466 35.872 3.104C35.7653 2.592 35.6587 2.29333 35.552 2.208C35.488 2.144 35.4027 2.02667 35.296 1.856C35.2107 1.68533 35.168 1.568 35.168 1.504ZM36.928 3.872C36.8213 3.25333 36.7467 2.92267 36.704 2.88C36.6613 2.816 36.672 3.22133 36.736 4.096C36.7573 4.33067 36.7787 4.544 36.8 4.736C36.8427 4.94933 36.8747 5.16267 36.896 5.376C36.9173 5.568 36.96 5.74933 37.024 5.92C37.0453 6.00533 37.056 5.984 37.056 5.856C37.0987 5.536 37.056 4.87467 36.928 3.872ZM38.592 10.016C38.656 10.016 38.7093 9.984 38.752 9.92C38.7947 9.856 38.7627 9.824 38.656 9.824C38.5493 9.824 38.496 9.856 38.496 9.92C38.496 9.984 38.528 10.016 38.592 10.016ZM34.496 13.44C34.56 13.44 34.592 13.408 34.592 13.344C34.592 13.28 34.5813 13.248 34.56 13.248C34.5387 13.248 34.5067 13.28 34.464 13.344C34.4427 13.408 34.4533 13.44 34.496 13.44ZM44.96 0.768C45.152 0.554665 45.2587 0.447998 45.28 0.447998C45.3227 0.447998 45.408 0.511998 45.536 0.639999C45.6853 0.767999 45.856 0.863999 46.048 0.927999C46.24 0.970666 46.4427 1.07733 46.656 1.248C46.8693 1.39733 46.9547 1.504 46.912 1.568C46.8693 1.61067 46.9227 1.68533 47.072 1.792C47.2213 1.87733 47.296 2.12267 47.296 2.528C47.3173 3.296 47.2213 4.04267 47.008 4.768C46.9867 4.85333 47.0187 4.896 47.104 4.896C47.1893 4.896 47.328 4.88533 47.52 4.864C47.904 4.82133 48.32 4.69333 48.768 4.48C49.216 4.24533 49.4613 4.13867 49.504 4.16C49.5467 4.16 49.568 4.13867 49.568 4.096C49.568 4.032 49.6427 3.968 49.792 3.904C49.9627 3.84 50.0267 3.76533 49.984 3.68C49.9413 3.63733 49.9947 3.59467 50.144 3.552C50.208 3.53067 50.2827 3.54133 50.368 3.584L50.4 3.552C50.3787 3.552 50.3467 3.52 50.304 3.456C50.24 3.37067 50.2293 3.328 50.272 3.328C50.336 3.328 50.4213 3.37067 50.528 3.456C50.6987 3.56267 50.8587 3.584 51.008 3.52C51.264 3.37067 51.392 3.38133 51.392 3.552C51.392 3.57333 51.3707 3.60533 51.328 3.648C51.264 3.75467 51.2853 3.808 51.392 3.808C51.52 3.808 51.6587 3.86133 51.808 3.968C51.9787 4.05333 52.0747 4.08533 52.096 4.064L52.224 4.288C52.3307 4.45867 52.4587 4.544 52.608 4.544C52.6933 4.56533 52.736 4.58667 52.736 4.608C52.672 4.62933 52.64 4.672 52.64 4.736C52.64 4.8 52.672 4.81067 52.736 4.768C52.736 4.768 52.7467 4.77867 52.768 4.8C52.8107 4.82133 52.8427 4.864 52.864 4.928C52.8853 4.992 52.9067 5.06667 52.928 5.152C52.9493 5.216 52.96 5.29067 52.96 5.376C52.9813 5.44 52.992 5.49333 52.992 5.536C52.992 5.6 53.0453 5.68533 53.152 5.792C53.2587 5.87733 53.2373 5.96267 53.088 6.048C52.4907 6.368 52.096 6.63467 51.904 6.848H51.872C51.8933 6.80533 51.8507 6.784 51.744 6.784C51.5947 6.784 51.424 6.848 51.232 6.976C51.0827 7.06133 50.9653 7.104 50.88 7.104C50.816 7.104 50.6453 7.18933 50.368 7.36C50.0907 7.53067 49.952 7.59467 49.952 7.552C49.952 7.50933 49.856 7.552 49.664 7.68C49.4933 7.808 49.408 7.85067 49.408 7.808H49.312C49.2693 7.89333 49.0773 8.02133 48.736 8.192C48.3947 8.36267 48.0533 8.576 47.712 8.832C47.3707 9.06667 47.136 9.184 47.008 9.184C46.9013 9.184 46.848 9.22667 46.848 9.312C46.848 9.39733 46.7947 9.42933 46.688 9.408C46.5813 9.36533 46.5067 9.408 46.464 9.536C46.4427 9.64267 46.1867 9.77067 45.696 9.92L44.992 10.144L44.736 9.824C44.5653 9.65333 44.352 9.54667 44.096 9.504C43.8827 9.46133 43.6267 9.33333 43.328 9.12C43.0293 8.90667 42.816 8.68267 42.688 8.448C42.56 8.21333 42.4427 8.07467 42.336 8.032C42.2507 7.98933 42.208 7.904 42.208 7.776C42.208 7.648 42.176 7.53067 42.112 7.424C42.0693 7.296 42.1013 7.09333 42.208 6.816C42.336 6.53867 42.56 6.336 42.88 6.208C43.2213 6.08 43.52 5.81333 43.776 5.408C44.1387 4.85333 44.416 4.26667 44.608 3.648C45.0133 2.304 45.0987 1.57866 44.864 1.472C44.608 1.38667 44.64 1.152 44.96 0.768ZM79.84 3.104C79.8827 3.104 79.968 3.15733 80.096 3.264C80.224 3.34933 80.3733 3.49867 80.544 3.712C80.7573 3.94667 80.9173 4.11733 81.024 4.224C81.152 4.33067 81.216 4.416 81.216 4.48C81.216 4.52267 81.28 4.64 81.408 4.832C81.536 4.96 81.6 5.06667 81.6 5.152C81.6 5.19467 81.5893 5.248 81.568 5.312C81.5467 5.35467 81.5147 5.42933 81.472 5.536C81.3013 5.92 81.0453 6.144 80.704 6.208H80.608C80.5653 6.25067 80.4373 6.272 80.224 6.272L79.968 6.336C80.0533 6.42133 80.0747 6.48533 80.032 6.528H79.968C79.9467 6.528 79.616 6.73067 78.976 7.136C78.72 7.30667 78.4747 7.47733 78.24 7.648C78.0267 7.79733 77.8133 7.95733 77.6 8.128L76.672 8.768H76.992C77.2267 8.85333 77.344 8.85333 77.344 8.768C77.3867 8.768 77.44 8.78933 77.504 8.832C77.5893 8.87467 77.6853 8.91733 77.792 8.96C77.8987 9.04533 77.9733 9.10933 78.016 9.152C78.08 9.17333 78.1333 9.20533 78.176 9.248C78.176 9.29067 78.208 9.33333 78.272 9.376C78.336 9.41867 78.4427 9.44 78.592 9.44C78.7627 9.52533 78.8907 9.61067 78.976 9.696C79.104 9.824 79.168 9.93067 79.168 10.016C79.168 10.0587 79.1787 10.08 79.2 10.08C79.2213 10.08 79.2533 10.1013 79.296 10.144C79.36 10.2507 79.424 10.4533 79.488 10.752C79.488 11.2 79.4453 11.424 79.36 11.424C79.3173 11.424 79.3387 11.4453 79.424 11.488L79.488 11.552C79.7653 11.552 79.904 11.616 79.904 11.744C79.904 11.8293 79.9253 11.872 79.968 11.872C80.1813 11.872 80.288 11.7867 80.288 11.616C80.288 11.5733 80.3093 11.552 80.352 11.552C80.416 11.5307 80.5013 11.488 80.608 11.424C80.7573 11.424 80.864 11.4027 80.928 11.36C80.992 11.296 81.0453 11.264 81.088 11.264C81.1307 11.2213 81.1733 11.2 81.216 11.2C81.2587 11.2 81.3013 11.2 81.344 11.2C81.472 11.264 81.536 11.3387 81.536 11.424V11.456C81.536 11.4773 81.5573 11.5093 81.6 11.552C81.6853 11.552 81.728 11.5307 81.728 11.488C81.728 11.4453 81.8667 11.424 82.144 11.424H82.336C82.3787 11.3813 82.4 11.3067 82.4 11.2C82.4 11.0293 82.4427 10.944 82.528 10.944C82.5707 10.944 82.6027 10.976 82.624 11.04C82.6667 11.0827 82.72 11.136 82.784 11.2C82.6987 11.2 82.6987 11.2213 82.784 11.264C82.8267 11.264 82.8693 11.2747 82.912 11.296C82.9547 11.3173 83.008 11.3067 83.072 11.264H83.168C83.232 11.264 83.264 11.2427 83.264 11.2C83.1787 11.2 83.136 11.1787 83.136 11.136C83.136 11.0933 83.1467 11.04 83.168 10.976C83.2107 10.912 83.264 10.8587 83.328 10.816L83.52 10.624L83.904 10.752C84.1813 10.88 84.3627 10.9227 84.448 10.88C84.512 10.88 84.5653 10.8907 84.608 10.912C84.6507 10.9333 84.7253 10.9653 84.832 11.008C85.0027 11.0933 85.088 11.1573 85.088 11.2C85.088 11.2427 85.0987 11.264 85.12 11.264C85.1627 11.264 85.2053 11.2427 85.248 11.2C85.3333 11.2 85.376 11.2747 85.376 11.424C85.376 11.5093 85.44 11.552 85.568 11.552C85.6107 11.5947 85.6427 11.6267 85.664 11.648C85.6853 11.648 85.6747 11.68 85.632 11.744C85.632 11.8293 85.6747 11.872 85.76 11.872C85.8453 11.872 85.9733 11.9573 86.144 12.128V12.192C85.9307 12.192 85.952 12.256 86.208 12.384H86.368C86.56 12.5547 86.624 12.672 86.56 12.736C86.4533 13.0133 86.496 13.184 86.688 13.248C86.7947 13.2907 86.848 13.3227 86.848 13.344C86.8693 13.3653 86.8587 13.376 86.816 13.376C86.7733 13.4187 86.6667 13.44 86.496 13.44C86.3467 13.44 86.208 13.4507 86.08 13.472C85.952 13.4933 85.824 13.504 85.696 13.504C85.568 13.5467 85.376 13.5893 85.12 13.632C84.8853 13.6533 84.64 13.6853 84.384 13.728C84.0427 13.7707 83.6693 13.824 83.264 13.888C82.88 13.9307 82.4427 13.984 81.952 14.048C81.9093 14.048 81.8667 14.0587 81.824 14.08C81.8027 14.1013 81.7493 14.1333 81.664 14.176C81.5787 14.2613 81.536 14.2613 81.536 14.176C81.536 13.984 82.752 13.7387 85.184 13.44C85.2693 13.3973 85.3973 13.376 85.568 13.376H85.888C85.9307 13.3333 85.952 13.2907 85.952 13.248C85.9093 13.2267 85.8347 13.216 85.728 13.216C85.6853 13.216 85.6533 13.2267 85.632 13.248C85.4187 13.248 85.312 13.2267 85.312 13.184C85.2693 13.184 85.216 13.184 85.152 13.184C85.088 13.184 85.0027 13.1627 84.896 13.12C84.64 13.056 84.512 13.0773 84.512 13.184H84.256H84.16C84.1173 13.184 84.0533 13.2053 83.968 13.248C83.968 13.312 84 13.3547 84.064 13.376C84.128 13.376 84.192 13.376 84.256 13.376C84.2987 13.4187 84.2987 13.44 84.256 13.44H84.128H83.968C83.8827 13.44 83.776 13.4187 83.648 13.376C83.584 13.248 83.4773 13.2053 83.328 13.248L82.848 13.312C82.8053 13.3333 82.7733 13.344 82.752 13.344C82.7093 13.3653 82.656 13.376 82.592 13.376C82.5067 13.4613 82.464 13.4613 82.464 13.376C82.3787 13.376 82.3147 13.3973 82.272 13.44C82.2293 13.4827 82.144 13.5147 82.016 13.536C81.9093 13.536 81.7707 13.5573 81.6 13.6C81.2587 13.6 81.0453 13.6427 80.96 13.728C80.9173 13.8133 80.832 13.856 80.704 13.856C80.6613 13.856 80.608 13.8667 80.544 13.888C80.48 13.9093 80.3947 13.9413 80.288 13.984C80.2453 14.0267 80.1387 14.048 79.968 14.048C79.9467 14.048 79.9253 14.0587 79.904 14.08C79.8827 14.08 79.8613 14.08 79.84 14.08C79.8187 14.1013 79.7973 14.112 79.776 14.112C79.6907 14.1973 79.6693 14.2827 79.712 14.368C79.712 14.4533 79.6907 14.496 79.648 14.496V14.72H79.904C79.9467 14.6347 80 14.592 80.064 14.592C80.128 14.5707 80.1813 14.56 80.224 14.56C80.2667 14.56 80.2773 14.5707 80.256 14.592C80.256 14.592 80.224 14.6347 80.16 14.72H80.032C79.9253 14.7627 79.8293 14.7947 79.744 14.816C79.68 14.8373 79.648 14.8693 79.648 14.912C79.648 14.9333 79.6373 14.9547 79.616 14.976C79.5733 15.0187 79.5307 15.04 79.488 15.04L79.424 15.168C79.424 15.2107 79.4133 15.264 79.392 15.328C79.3707 15.3707 79.3387 15.4453 79.296 15.552C79.2533 15.6587 79.2213 15.7547 79.2 15.84C79.1787 15.904 79.168 15.968 79.168 16.032L79.232 16.16L79.296 16.096L79.424 15.968C79.424 16.0107 79.4027 16.0747 79.36 16.16V16.352C79.4027 16.3947 79.936 16.288 80.96 16.032C81.6427 15.7333 82.08 15.7333 82.272 16.032C82.336 16.0747 82.3893 16.1067 82.432 16.128C82.4747 16.1493 82.528 16.16 82.592 16.16C82.592 16.16 82.624 16.192 82.688 16.256C82.7093 16.2987 82.72 16.3307 82.72 16.352C82.8053 16.4373 82.88 16.48 82.944 16.48C82.9867 16.5227 83.0293 16.576 83.072 16.64C83.136 16.704 83.1893 16.7573 83.232 16.8L83.392 16.96C83.6693 17.2373 83.84 17.472 83.904 17.664C83.904 18.1973 83.9787 18.464 84.128 18.464C84.2133 18.464 84.1387 18.752 83.904 19.328C83.776 19.584 83.68 19.776 83.616 19.904C83.5733 20.032 83.52 20.096 83.456 20.096C83.4133 20.096 83.392 20.1173 83.392 20.16V20.224C83.392 20.2667 83.3813 20.32 83.36 20.384C83.3387 20.4267 83.3067 20.448 83.264 20.448C83.2213 20.4907 83.1893 20.5653 83.168 20.672C83.1467 20.7787 83.1147 20.896 83.072 21.024C83.008 21.152 82.9653 21.2693 82.944 21.376C82.9227 21.4613 82.8907 21.5253 82.848 21.568C82.848 21.6107 82.8373 21.6427 82.816 21.664C82.7947 21.664 82.784 21.696 82.784 21.76C82.784 21.8027 82.7627 21.8453 82.72 21.888L82.656 21.952L82.592 22.08C82.6347 22.1227 82.656 22.2293 82.656 22.4C82.656 22.4427 82.6667 22.496 82.688 22.56C82.7307 22.6027 82.784 22.624 82.848 22.624C82.9547 22.624 83.008 22.6453 83.008 22.688C83.008 22.7307 82.9867 22.752 82.944 22.752C82.8373 22.816 82.784 22.8587 82.784 22.88C82.784 22.9227 82.8373 22.944 82.944 22.944C82.9867 22.9867 83.04 23.0187 83.104 23.04C83.168 23.0613 83.2213 23.072 83.264 23.072C83.3067 23.1147 83.3493 23.168 83.392 23.232C83.4347 23.2747 83.456 23.328 83.456 23.392C83.456 23.6267 83.52 23.744 83.648 23.744H83.904L83.968 23.936V24.384C84.0533 24.512 84.0533 24.576 83.968 24.576C83.968 24.6187 83.8613 24.64 83.648 24.64C82.9867 24.64 82.4747 24.6507 82.112 24.672C81.7493 24.6933 81.536 24.704 81.472 24.704C81.3867 24.7467 80.992 24.8 80.288 24.864H79.872C79.7653 24.864 79.648 24.864 79.52 24.864C79.392 24.8853 79.2747 24.9067 79.168 24.928H78.912C78.8693 24.928 78.7947 24.9493 78.688 24.992C78.5813 25.0347 78.4533 25.0773 78.304 25.12C78.1333 25.1627 77.9093 25.1947 77.632 25.216C77.3547 25.2587 77.0347 25.312 76.672 25.376C76.3307 25.4187 76.0533 25.4613 75.84 25.504C75.6267 25.5467 75.488 25.568 75.424 25.568C75.36 25.568 75.296 25.792 75.232 26.24L75.04 26.752L74.944 26.688C74.8373 26.624 74.7307 26.56 74.624 26.496C74.5387 26.432 74.432 26.3467 74.304 26.24C73.9413 26.176 73.76 26.08 73.76 25.952C73.76 25.8667 73.7173 25.7813 73.632 25.696C73.4613 25.5893 73.376 25.4827 73.376 25.376C73.376 25.312 73.376 25.28 73.376 25.28C73.376 25.3013 73.3547 25.3333 73.312 25.376C73.2693 25.4187 73.248 25.4507 73.248 25.472C73.248 25.4933 73.2267 25.504 73.184 25.504C73.0987 25.504 73.056 25.4613 73.056 25.376C72.9067 25.2267 72.864 25.0773 72.928 24.928C73.056 24.3947 73.0133 24.0213 72.8 23.808C72.7147 23.7653 72.6613 23.7227 72.64 23.68C72.64 23.616 72.6613 23.5627 72.704 23.52V23.264C72.64 23.136 72.64 23.072 72.704 23.072C72.832 23.072 72.864 22.8267 72.8 22.336V21.152C72.8 20.8747 72.7467 20.6827 72.64 20.576C72.5973 20.5333 72.5653 20.4693 72.544 20.384C72.5227 20.2773 72.4907 20.1387 72.448 19.968C72.384 19.6907 72.256 19.456 72.064 19.264C71.8293 18.9867 71.808 18.784 72 18.656C72.2133 18.656 72.1493 18.5707 71.808 18.4C71.6587 18.2933 71.552 18.2187 71.488 18.176C71.424 18.1333 71.4133 18.0693 71.456 17.984C71.52 17.92 71.552 17.888 71.552 17.888C71.552 17.8667 71.52 17.856 71.456 17.856H71.424C71.4027 17.856 71.392 17.8347 71.392 17.792C71.392 17.6853 71.5947 17.664 72 17.728C72.192 17.7707 72.384 17.8133 72.576 17.856C72.7893 17.8773 73.0133 17.9413 73.248 18.048C73.44 18.1973 73.6 18.2933 73.728 18.336C73.856 18.3787 73.9413 18.4 73.984 18.4C74.0267 18.4 74.4853 18.2187 75.36 17.856C76.256 17.5147 76.7147 17.344 76.736 17.344C76.736 17.3013 76.736 17.248 76.736 17.184C76.7573 17.12 76.8 17.0133 76.864 16.864C76.864 16.608 76.8213 16.48 76.736 16.48C76.6933 16.48 76.672 16.4373 76.672 16.352C76.672 16.1813 76.6507 16.0747 76.608 16.032C76.544 15.9253 76.5653 15.808 76.672 15.68C76.672 15.6587 76.6827 15.6373 76.704 15.616C76.704 15.5947 76.704 15.5733 76.704 15.552C76.7253 15.5307 76.736 15.5093 76.736 15.488C76.6933 15.4027 76.6933 15.3813 76.736 15.424C76.8213 15.4667 76.864 15.4453 76.864 15.36C76.864 15.2747 76.8 15.232 76.672 15.232C76.6293 15.232 76.576 15.2427 76.512 15.264C76.4693 15.264 76.416 15.296 76.352 15.36C76.3093 15.36 76.288 15.3813 76.288 15.424C76.288 15.4667 76.288 15.5093 76.288 15.552C76.288 15.6373 76.2133 15.68 76.064 15.68C76.0427 15.68 76 15.7333 75.936 15.84C75.936 15.8827 75.9253 15.904 75.904 15.904C75.8827 15.904 75.872 15.8827 75.872 15.84C75.872 15.7333 75.9147 15.68 76 15.68V15.552C76 15.488 75.9893 15.456 75.968 15.456C75.968 15.456 75.9147 15.488 75.808 15.552C75.7653 15.616 75.7333 15.6693 75.712 15.712C75.6907 15.7547 75.68 15.7973 75.68 15.84C75.68 15.8827 75.6587 15.9253 75.616 15.968C75.5947 16.0107 75.5307 16.032 75.424 16.032H75.36V15.968L75.328 15.936C75.3067 15.936 75.2853 15.936 75.264 15.936C75.264 15.9147 75.2533 15.904 75.232 15.904V15.968C75.296 16.0533 75.2533 16.1173 75.104 16.16C75.0613 16.2667 75.008 16.3307 74.944 16.352C74.88 16.352 74.7947 16.352 74.688 16.352C74.5813 16.352 74.4853 16.3627 74.4 16.384C74.3147 16.4053 74.2187 16.48 74.112 16.608C74.0693 16.672 74.0053 16.7147 73.92 16.736C73.8347 16.7573 73.7387 16.736 73.632 16.672L72.512 16.544C72.0213 16.48 71.744 16.416 71.68 16.352C71.6373 16.288 71.5733 16.2453 71.488 16.224C71.424 16.1813 71.3707 16.16 71.328 16.16C71.0507 16.16 70.7733 16.0533 70.496 15.84C70.4747 15.84 70.4533 15.8293 70.432 15.808C70.4107 15.7867 70.4 15.744 70.4 15.68C70.4 15.6587 70.4213 15.6053 70.464 15.52L70.56 15.424L70.688 15.232L70.4 15.168C70.3147 15.1253 70.2293 15.0613 70.144 14.976C70.144 14.912 70.1547 14.8693 70.176 14.848C70.2187 14.8267 70.272 14.784 70.336 14.72C70.912 14.5707 71.264 14.496 71.392 14.496C71.392 14.5813 71.6373 14.5173 72.128 14.304C72.5333 14.1333 72.8 14.048 72.928 14.048C72.9707 14.048 73.0027 14.0373 73.024 14.016C73.0667 13.9947 73.1413 13.9627 73.248 13.92C73.3547 13.8773 73.4613 13.8773 73.568 13.92V13.952C73.568 13.9733 73.5893 14.0053 73.632 14.048C73.6747 14.048 73.696 13.984 73.696 13.856C73.8667 13.7707 73.9093 13.728 73.824 13.728C73.824 13.6853 73.8347 13.664 73.856 13.664C73.8987 13.664 73.92 13.6427 73.92 13.6C73.9627 13.6 73.9947 13.5893 74.016 13.568C74.0373 13.5253 74.0693 13.504 74.112 13.504C74.2613 13.3973 74.368 13.376 74.432 13.44C74.432 13.4827 74.4533 13.504 74.496 13.504C74.5387 13.504 74.5813 13.504 74.624 13.504C74.624 13.4827 74.6347 13.472 74.656 13.472C74.6987 13.472 74.7307 13.4827 74.752 13.504C74.7947 13.568 74.8587 13.6 74.944 13.6C75.008 13.6 75.04 13.5893 75.04 13.568V13.504C75.04 13.4613 75.04 13.4293 75.04 13.408C75.0613 13.3653 75.1253 13.312 75.232 13.248C75.3813 13.184 75.4667 13.1627 75.488 13.184C75.5307 13.184 75.552 13.2267 75.552 13.312C75.5093 13.3547 75.5307 13.376 75.616 13.376C75.6587 13.376 75.712 13.376 75.776 13.376C75.84 13.3547 75.8933 13.312 75.936 13.248C76.0427 13.1413 76.064 13.0347 76 12.928C75.9147 12.928 75.872 12.9067 75.872 12.864H76H76.288H76.32C76.32 12.864 76.3307 12.8853 76.352 12.928C76.352 13.0987 76.5653 13.0773 76.992 12.864C77.0987 12.8 77.152 12.768 77.152 12.768C77.152 12.7467 77.12 12.7147 77.056 12.672C76.992 12.608 76.992 12.512 77.056 12.384C77.1413 12.2987 77.216 12.2773 77.28 12.32C77.3653 12.3627 77.4507 12.3413 77.536 12.256V12.064C77.4933 11.9573 77.4613 11.84 77.44 11.712C77.4187 11.5627 77.408 11.3707 77.408 11.136C77.3653 10.9013 77.3333 10.7093 77.312 10.56C77.2907 10.3893 77.2267 10.2293 77.12 10.08C76.992 9.888 76.9493 9.73867 76.992 9.632C76.992 9.58933 76.9707 9.52533 76.928 9.44C76.8853 9.35467 76.7787 9.248 76.608 9.12L76.416 8.896L75.872 9.248L75.68 9.376C75.6373 9.41867 75.584 9.45067 75.52 9.472C75.456 9.49333 75.4027 9.52533 75.36 9.568V9.44C75.36 9.33333 75.36 9.28 75.36 9.28C75.36 9.25867 75.3387 9.248 75.296 9.248C75.2533 9.248 75.232 9.152 75.232 8.96C75.1893 8.91733 75.1467 8.88533 75.104 8.864C75.0827 8.84267 75.0507 8.81067 75.008 8.768L74.88 8.64C74.7733 8.53333 74.6987 8.45867 74.656 8.416C74.6347 8.352 74.6027 8.32 74.56 8.32C74.3893 8.32 74.304 8.21333 74.304 8C74.304 7.72267 74.368 7.584 74.496 7.584C74.56 7.54133 74.6027 7.49867 74.624 7.456C74.6667 7.41333 74.688 7.328 74.688 7.2C74.6667 7.17867 74.656 7.136 74.656 7.072C74.656 7.02933 74.656 6.98667 74.656 6.944C74.656 6.90133 74.6667 6.85867 74.688 6.816C74.7733 6.816 74.816 6.76267 74.816 6.656C74.816 6.61333 74.8907 6.50667 75.04 6.336C75.1467 6.272 75.2107 6.24 75.232 6.24C75.2747 6.21867 75.3173 6.208 75.36 6.208C75.4453 6.208 75.7547 6.00533 76.288 5.6C76.48 5.45067 76.6613 5.30133 76.832 5.152C77.024 4.98133 77.1947 4.832 77.344 4.704C77.344 4.68267 77.3653 4.66133 77.408 4.64C77.4293 4.61867 77.4507 4.59733 77.472 4.576C77.5147 4.55467 77.5573 4.52267 77.6 4.48C77.664 4.48 77.728 4.416 77.792 4.288C77.8347 4.26667 77.8987 4.224 77.984 4.16C78.112 4.07467 78.2187 3.98933 78.304 3.904C78.432 3.904 78.6347 3.79733 78.912 3.584C79.1467 3.392 79.3387 3.25333 79.488 3.168C79.5733 3.168 79.6373 3.15733 79.68 3.136C79.7227 3.11467 79.776 3.104 79.84 3.104ZM78.4 4.288V4.256H78.368C78.3467 4.256 78.3253 4.24533 78.304 4.224C78.2613 4.224 78.24 4.24533 78.24 4.288C78.24 4.33067 78.2507 4.352 78.272 4.352H78.304L78.4 4.288ZM80.896 20.16C80.9387 19.968 80.9707 19.7653 80.992 19.552C81.0133 19.3173 81.0027 19.0613 80.96 18.784C80.8533 18.6133 80.6507 18.528 80.352 18.528C80.032 18.6347 79.648 18.7627 79.2 18.912C78.7733 19.0613 78.2827 19.264 77.728 19.52C77.3867 19.6693 77.024 19.808 76.64 19.936C76.256 20.064 75.8293 20.1813 75.36 20.288C75.3173 20.288 75.2747 20.2987 75.232 20.32C75.1893 20.32 75.1467 20.3413 75.104 20.384V20.416C75.104 20.4373 75.0827 20.448 75.04 20.448C75.04 20.512 75.0507 20.5973 75.072 20.704C75.0933 20.7893 75.104 20.9173 75.104 21.088C75.1467 21.1947 75.168 21.3547 75.168 21.568C75.1893 21.76 75.2107 21.9733 75.232 22.208C75.2747 22.4853 75.296 22.688 75.296 22.816C75.296 22.944 75.296 23.0293 75.296 23.072C75.3387 23.072 75.4027 23.0507 75.488 23.008C75.5733 22.944 75.7013 22.88 75.872 22.816C76.1493 22.7733 76.4267 22.7307 76.704 22.688C77.0027 22.624 77.3013 22.5493 77.6 22.464C77.8133 22.464 78.1653 22.4 78.656 22.272C78.912 22.208 79.136 22.176 79.328 22.176C79.52 22.1547 79.648 22.1227 79.712 22.08C79.8827 22.08 79.9893 22.0373 80.032 21.952C80.1173 21.9093 80.16 21.8453 80.16 21.76C80.1173 21.6747 80.0533 21.632 79.968 21.632C79.7973 21.632 79.6907 21.6747 79.648 21.76C79.4987 21.9307 79.424 21.9307 79.424 21.76C79.4667 21.76 79.488 21.7387 79.488 21.696C79.5093 21.632 79.5627 21.568 79.648 21.504C79.712 21.3547 79.8613 21.28 80.096 21.28H80.352C80.4373 21.1947 80.5013 21.1093 80.544 21.024L80.896 20.16ZM70.4 6.464C70.4213 6.50667 70.4853 6.58133 70.592 6.688C70.6347 6.73067 70.6667 6.77333 70.688 6.816C70.816 6.944 70.88 7.11467 70.88 7.328L71.008 7.712C71.008 7.66933 71.0187 7.648 71.04 7.648C71.0613 7.648 71.072 7.66933 71.072 7.712V7.776C71.136 7.86133 71.136 8.08533 71.072 8.448V8.896C71.0293 8.93867 71.008 8.992 71.008 9.056C71.008 9.09867 71.0293 9.12 71.072 9.12C71.072 9.16267 71.072 9.216 71.072 9.28C71.072 9.344 71.0507 9.46133 71.008 9.632L70.88 10.08L70.496 9.76C70.2827 9.58933 70.1013 9.504 69.952 9.504C69.824 9.48267 69.7387 9.52533 69.696 9.632C69.696 9.90933 69.632 9.888 69.504 9.568V9.44C69.4613 9.33333 69.4293 9.25867 69.408 9.216C69.408 9.152 69.3653 9.12 69.28 9.12C69.2373 9.16267 69.216 9.19467 69.216 9.216V9.248H69.088C69.0027 9.16267 68.96 9.16267 68.96 9.248C68.896 9.248 68.8427 9.25867 68.8 9.28C68.7787 9.28 68.768 9.33333 68.768 9.44L68.704 9.696L68.64 9.44C68.5973 9.35467 68.5333 9.26933 68.448 9.184C68.3627 9.14133 68.32 8.85333 68.32 8.32C68.32 7.63733 68.2453 7.104 68.096 6.72C68.032 6.592 67.968 6.528 67.904 6.528C67.8613 6.528 67.84 6.51733 67.84 6.496C67.84 6.47467 67.8187 6.48533 67.776 6.528C67.6907 6.528 67.584 6.4 67.456 6.144C67.328 6.016 67.2427 5.90933 67.2 5.824C67.1573 5.71733 67.136 5.62133 67.136 5.536C67.2213 5.45067 67.3067 5.408 67.392 5.408C67.6053 5.408 67.6267 5.36533 67.456 5.28C67.4133 5.23733 67.3493 5.216 67.264 5.216L66.912 5.088L67.392 4.96H68.096C68.1813 5.00267 68.2667 5.04533 68.352 5.088C68.4587 5.10933 68.5973 5.152 68.768 5.216C69.024 5.28 69.152 5.36533 69.152 5.472C69.1947 5.472 69.248 5.48267 69.312 5.504C69.376 5.504 69.44 5.536 69.504 5.6C69.7387 5.68533 69.8027 5.78133 69.696 5.888C69.568 5.888 69.5893 5.93067 69.76 6.016H69.888C69.8453 5.97333 69.8347 5.94133 69.856 5.92C69.8773 5.89867 69.9093 5.888 69.952 5.888C69.9947 5.90933 70.016 5.93067 70.016 5.952C70.0373 5.97333 70.0693 6.00533 70.112 6.048C70.1333 6.09067 70.1653 6.12267 70.208 6.144C70.336 6.272 70.4 6.37867 70.4 6.464ZM76.864 12.736C76.736 12.8 76.672 12.7787 76.672 12.672V12.544C76.7147 12.5013 76.736 12.4907 76.736 12.512C76.7573 12.5333 76.8 12.5653 76.864 12.608C76.9067 12.6933 76.9067 12.736 76.864 12.736ZM82.208 11.2C82.1227 11.2 82.08 11.1787 82.08 11.136C82.08 11.0933 82.1013 11.072 82.144 11.072C82.1653 11.072 82.1867 11.0827 82.208 11.104V11.136C82.2507 11.1787 82.2507 11.2 82.208 11.2ZM81.664 11.072C81.7707 11.072 81.824 11.1147 81.824 11.2H81.664C81.6213 11.2 81.6 11.1573 81.6 11.072H81.664ZM65.856 12.736C66.1333 12.672 66.4213 12.672 66.72 12.736C67.0187 12.7787 67.3493 12.864 67.712 12.992C68.4587 13.248 68.832 13.472 68.832 13.664C68.832 13.7067 68.8427 13.7493 68.864 13.792C68.9067 13.8347 68.96 13.856 69.024 13.856C69.1307 13.856 69.248 13.9627 69.376 14.176C69.4187 14.3467 69.472 14.5173 69.536 14.688C69.6 14.8373 69.6533 14.9973 69.696 15.168C69.76 15.8933 69.76 16.4907 69.696 16.96V16.864C69.696 16.9707 69.632 17.024 69.504 17.024H69.44V17.088C69.44 17.1947 69.3867 17.28 69.28 17.344C69.1947 17.344 69.1307 17.3653 69.088 17.408C69.088 17.472 68.9813 17.4293 68.768 17.28C68.512 17.152 68.384 17.1093 68.384 17.152C68.3413 17.152 68.288 17.152 68.224 17.152C68.1813 17.1307 68.1387 17.088 68.096 17.024C68.032 16.9387 67.9573 16.8853 67.872 16.864C67.7867 16.8213 67.6907 16.7787 67.584 16.736C67.4773 16.6933 67.392 16.6507 67.328 16.608C67.2853 16.5653 67.2427 16.5227 67.2 16.48C67.2 16.3307 67.1253 16.224 66.976 16.16C66.6987 16.032 66.528 15.7227 66.464 15.232C66.4 14.7627 66.176 14.3253 65.792 13.92C65.664 13.728 65.6213 13.5893 65.664 13.504C65.664 13.376 65.6427 13.2907 65.6 13.248C65.5787 13.248 65.568 13.2373 65.568 13.216C65.5467 13.1947 65.536 13.1627 65.536 13.12C65.5787 13.12 65.6 13.1093 65.6 13.088C65.6 13.0667 65.5787 13.056 65.536 13.056C65.472 12.992 65.472 12.928 65.536 12.864C65.6 12.8213 65.6533 12.7893 65.696 12.768C65.7387 12.7467 65.792 12.736 65.856 12.736ZM69.76 19.648C69.888 19.52 69.9947 19.456 70.08 19.456C70.1653 19.456 70.208 19.4133 70.208 19.328C70.2293 19.2853 70.2507 19.2533 70.272 19.232C70.2933 19.2107 70.3147 19.1787 70.336 19.136C70.3573 19.0933 70.3787 19.0613 70.4 19.04C70.6347 18.848 70.752 18.8053 70.752 18.912L70.816 18.976C70.7733 18.9333 70.752 18.9013 70.752 18.88V18.848C70.752 18.8053 70.7627 18.7733 70.784 18.752C70.8053 18.7307 70.816 18.6987 70.816 18.656C70.9013 18.7413 70.944 18.7413 70.944 18.656C70.944 18.528 70.9653 18.5067 71.008 18.592C71.0507 18.6347 71.0827 18.656 71.104 18.656C71.1253 18.656 71.136 18.6773 71.136 18.72C71.136 18.7627 71.008 18.9867 70.752 19.392C70.688 19.456 70.624 19.5307 70.56 19.616C70.432 19.7867 70.3573 19.904 70.336 19.968C70.2933 20.0747 70.24 20.1387 70.176 20.16C70.1333 20.2027 70.1013 20.224 70.08 20.224V20.384V20.448C70.208 20.448 70.272 20.3947 70.272 20.288C70.3147 20.2453 70.336 20.2133 70.336 20.192C70.336 20.1707 70.3573 20.1387 70.4 20.096C70.5493 19.9253 70.656 19.7973 70.72 19.712C70.784 19.6053 70.8373 19.52 70.88 19.456C70.9227 19.3707 70.9867 19.328 71.072 19.328C71.072 19.4987 71.1147 19.4987 71.2 19.328C71.2427 19.328 71.2747 19.3173 71.296 19.296C71.3173 19.2747 71.328 19.2853 71.328 19.328C71.392 19.328 71.392 19.4347 71.328 19.648C71.2853 19.712 71.2427 19.7653 71.2 19.808C71.1573 19.8293 71.1147 19.8613 71.072 19.904C71.072 19.9467 71.0613 19.9787 71.04 20C71.0187 20 71.008 20.032 71.008 20.096C71.008 20.1387 70.9653 20.224 70.88 20.352C70.816 20.4587 70.7307 20.576 70.624 20.704C70.24 21.1733 70.1227 21.408 70.272 21.408C70.3573 21.408 70.4 21.3653 70.4 21.28C70.4213 21.2373 70.4427 21.216 70.464 21.216C70.4853 21.1947 70.5067 21.1733 70.528 21.152C70.5493 21.1307 70.56 21.1093 70.56 21.088C70.624 21.024 70.656 20.992 70.656 20.992C70.6773 20.9707 70.7093 20.96 70.752 20.96L70.688 21.152C70.624 21.216 70.56 21.3013 70.496 21.408C70.432 21.4933 70.3787 21.5893 70.336 21.696C70.2933 21.76 70.2507 21.824 70.208 21.888C70.1653 21.952 70.1227 22.016 70.08 22.08C70.0373 22.1867 70.0053 22.272 69.984 22.336C69.9627 22.3787 69.952 22.4213 69.952 22.464C69.8667 22.4213 69.8027 22.4213 69.76 22.464V22.752C69.7173 22.7947 69.6747 22.8693 69.632 22.976C69.6107 23.0827 69.568 23.2 69.504 23.328C69.3547 23.6267 69.28 23.7867 69.28 23.808C69.3227 23.808 69.3013 23.8827 69.216 24.032C69.1307 24.1813 69.024 24.4053 68.896 24.704C68.704 25.0027 68.5653 25.2267 68.48 25.376C68.416 25.5467 68.384 25.6533 68.384 25.696C68.2987 25.824 68.2347 25.9093 68.192 25.952L68.096 26.048C67.968 26.1547 67.8613 26.208 67.776 26.208C67.712 26.2293 67.6267 26.24 67.52 26.24C67.4773 26.1973 67.4027 26.144 67.296 26.08C67.1893 26.016 67.0613 25.9093 66.912 25.76C66.8053 25.6533 66.6987 25.5467 66.592 25.44C66.4853 25.3547 66.4 25.248 66.336 25.12C66.1227 24.8427 65.9413 24.704 65.792 24.704C65.536 24.704 65.3867 24.6613 65.344 24.576C65.2587 24.576 65.216 24.4907 65.216 24.32C65.3227 24.1707 65.3227 24.0427 65.216 23.936C65.1307 23.8507 65.1307 23.648 65.216 23.328L65.344 22.816H65.664C65.7707 22.8587 65.8667 22.8693 65.952 22.848C66.0373 22.8267 66.1013 22.816 66.144 22.816C66.1867 22.7733 66.2613 22.6987 66.368 22.592C66.4747 22.4853 66.6133 22.3573 66.784 22.208C67.2107 21.824 67.6053 21.4293 67.968 21.024C68.3307 20.6187 68.6827 20.224 69.024 19.84L70.4 18.336V18.464L70.336 18.656C70.336 18.6133 70.272 18.656 70.144 18.784C70.1013 18.8267 70.0693 18.8907 70.048 18.976C70.0267 19.04 69.9947 19.104 69.952 19.168C69.9093 19.2533 69.8667 19.328 69.824 19.392C69.7813 19.456 69.7387 19.52 69.696 19.584L69.632 19.648C69.6107 19.6693 69.5893 19.6907 69.568 19.712C69.5467 19.712 69.5253 19.7333 69.504 19.776C69.4613 19.84 69.4613 19.872 69.504 19.872C69.568 19.872 69.6533 19.84 69.76 19.776V19.648ZM70.496 19.264C70.496 19.3067 70.5173 19.328 70.56 19.328C70.6027 19.328 70.624 19.3067 70.624 19.264C70.688 19.1573 70.688 19.104 70.624 19.104L70.528 19.2C70.5067 19.2213 70.496 19.2427 70.496 19.264ZM81.344 14.24C81.344 14.3253 81.3013 14.368 81.216 14.368C81.1733 14.368 81.1093 14.3787 81.024 14.4C80.96 14.4 80.896 14.432 80.832 14.496C80.7253 14.496 80.6507 14.5067 80.608 14.528C80.5653 14.5493 80.5227 14.56 80.48 14.56L80.704 14.368H80.832C81.0027 14.2613 81.1307 14.208 81.216 14.208C81.3013 14.1867 81.344 14.1973 81.344 14.24ZM75.872 16.16C75.9147 16.16 75.936 16.1493 75.936 16.128V16.096L76 16.032C76.1067 15.968 76.192 15.936 76.256 15.936C76.32 15.9147 76.3733 15.8827 76.416 15.84C76.416 15.8613 76.4053 15.8827 76.384 15.904C76.384 15.904 76.384 15.9147 76.384 15.936L76.352 15.968C76.352 16.0107 76.3093 16.032 76.224 16.032C75.9893 16.16 75.872 16.2027 75.872 16.16ZM75.68 16.16C75.7227 16.16 75.7333 16.1707 75.712 16.192C75.712 16.2133 75.68 16.2453 75.616 16.288C75.5733 16.288 75.552 16.2987 75.552 16.32C75.552 16.3413 75.5307 16.352 75.488 16.352L75.424 16.288L75.68 16.16ZM70.56 21.76C70.6027 21.7173 70.624 21.6853 70.624 21.664C70.624 21.6427 70.6453 21.632 70.688 21.632V21.76H70.624H70.56ZM102.656 5.728C102.784 5.728 102.955 5.67467 103.168 5.568C103.381 5.44 103.68 5.38667 104.064 5.408C104.469 5.42933 104.725 5.504 104.832 5.632C104.896 5.76 104.992 5.80267 105.12 5.76C105.248 5.71733 105.461 5.824 105.76 6.08C106.059 6.336 106.208 6.53867 106.208 6.688C106.208 6.816 106.197 6.912 106.176 6.976C106.133 7.06133 105.952 7.2 105.632 7.392C105.312 7.56267 105.056 7.68 104.864 7.744C104.267 8 103.787 8.27733 103.424 8.576C103.232 8.72533 103.083 8.77867 102.976 8.736C102.891 8.69333 102.539 8.832 101.92 9.152L100.992 9.632L100.512 9.504C100.213 9.39733 100.053 9.30133 100.032 9.216C100.011 9.13067 99.68 8.928 99.04 8.608C98.4213 8.288 98.016 8.064 97.824 7.936C97.6533 7.85067 97.6107 7.78667 97.696 7.744C97.696 7.744 97.728 7.744 97.792 7.744L97.888 7.712C97.8667 7.69067 97.8027 7.648 97.696 7.584L97.344 7.424L97.632 7.392C97.8027 7.37067 98.0053 7.38133 98.24 7.424C98.816 7.552 99.584 7.38133 100.544 6.912C101.397 6.464 101.963 6.13333 102.24 5.92C102.411 5.792 102.549 5.728 102.656 5.728ZM111.872 3.008C112.085 2.944 112.384 2.99733 112.768 3.168C113.109 3.33867 113.323 3.424 113.408 3.424C113.515 3.424 113.728 3.488 114.048 3.616C114.389 3.72267 114.667 3.85067 114.88 4C115.136 4.192 115.36 4.40533 115.552 4.64L115.808 4.96L115.68 6.176C115.509 7.52 115.285 8.8 115.008 10.016L114.944 10.24L115.232 9.952C115.424 9.78133 115.637 9.71733 115.872 9.76C116.107 9.80267 116.352 9.84533 116.608 9.888C116.864 9.90933 117.056 9.984 117.184 10.112C117.312 10.2187 117.664 10.4107 118.24 10.688C118.816 10.944 119.232 11.1573 119.488 11.328C119.765 11.4987 120.064 11.6373 120.384 11.744C120.64 11.808 120.768 11.8507 120.768 11.872C120.789 11.8933 120.757 11.936 120.672 12C120.523 12.0427 120.48 12.1173 120.544 12.224C120.629 12.3307 120.619 12.512 120.512 12.768C120.405 13.0027 120.245 13.2053 120.032 13.376C119.819 13.5467 119.712 13.6853 119.712 13.792C119.712 13.8773 119.627 14.016 119.456 14.208C119.307 14.4 119.136 14.6773 118.944 15.04C118.773 15.4027 118.688 15.6267 118.688 15.712C118.688 15.7973 118.656 15.8507 118.592 15.872C118.528 15.8933 118.475 16.0853 118.432 16.448C118.411 16.7893 118.336 17.0667 118.208 17.28C117.973 17.7493 117.877 18.1333 117.92 18.432C117.941 18.5387 117.899 18.7307 117.792 19.008C117.685 19.2853 117.632 19.456 117.632 19.52C117.632 19.5627 117.589 19.6053 117.504 19.648C117.44 19.6907 117.365 19.84 117.28 20.096C117.216 20.3307 117.163 20.4693 117.12 20.512C117.099 20.5547 117.003 20.7253 116.832 21.024C116.683 21.3013 116.533 21.5147 116.384 21.664C116.235 21.8133 116.181 21.888 116.224 21.888C116.267 21.888 116.171 22.0267 115.936 22.304C115.723 22.56 115.616 22.72 115.616 22.784C115.616 22.848 115.552 22.944 115.424 23.072C115.296 23.2 115.157 23.392 115.008 23.648C114.603 24.416 114.272 24.96 114.016 25.28C113.739 25.6213 113.547 25.792 113.44 25.792C113.355 25.792 113.291 25.6107 113.248 25.248C113.227 24.9067 113.173 24.6613 113.088 24.512C113.024 24.3627 112.885 23.9573 112.672 23.296L112.032 21.664C111.84 21.1093 111.808 20.7467 111.936 20.576C112.021 20.448 112.139 20.416 112.288 20.48C112.395 20.544 112.469 20.5653 112.512 20.544C112.576 20.5013 112.715 20.3947 112.928 20.224C113.184 19.9893 113.376 19.872 113.504 19.872C113.632 19.872 113.664 19.8187 113.6 19.712C113.579 19.648 113.632 19.424 113.76 19.04C113.888 18.6347 113.984 18.4107 114.048 18.368C114.112 18.304 114.304 17.568 114.624 16.16C114.667 15.8827 114.699 15.7227 114.72 15.68C114.763 15.616 114.816 15.36 114.88 14.912L115.04 13.696L115.136 13.184L114.784 13.216C114.571 13.2587 114.389 13.3547 114.24 13.504C114.091 13.632 113.931 13.728 113.76 13.792C113.632 13.8773 113.525 13.984 113.44 14.112C113.376 14.2187 113.28 14.5173 113.152 15.008C112.235 17.952 111.499 19.8933 110.944 20.832C110.645 21.3227 110.336 21.9413 110.016 22.688C109.525 23.8187 109.163 24.416 108.928 24.48C108.843 24.5013 108.757 24.5547 108.672 24.64C108.523 24.8533 108.448 24.864 108.448 24.672C108.448 24.5867 108.373 24.4053 108.224 24.128C108.096 23.872 107.979 23.6907 107.872 23.584C107.701 23.4133 107.627 23.2213 107.648 23.008C107.648 22.8373 107.627 22.6453 107.584 22.432C107.541 22.1973 107.488 22.08 107.424 22.08C107.381 22.08 107.328 22.144 107.264 22.272C107.179 22.3573 107.125 22.4 107.104 22.4C107.083 22.3787 107.019 22.2827 106.912 22.112C106.827 21.92 106.752 21.824 106.688 21.824C106.645 21.824 106.432 21.7173 106.048 21.504C105.685 21.2693 105.451 21.152 105.344 21.152C105.259 21.152 105.184 21.0773 105.12 20.928C104.992 20.6933 104.811 20.6827 104.576 20.896C104.405 21.0667 103.872 21.44 102.976 22.016C102.101 22.5707 101.504 22.9333 101.184 23.104C100.757 23.3173 100.395 23.552 100.096 23.808C99.776 24.1067 99.552 24.256 99.424 24.256C99.3173 24.256 99.2107 24.1067 99.104 23.808C99.0187 23.488 98.8907 23.2427 98.72 23.072L98.08 22.4C97.8453 22.1653 97.6853 21.9627 97.6 21.792C97.5147 21.6213 97.44 21.536 97.376 21.536C97.3333 21.536 97.312 21.408 97.312 21.152C97.3333 20.96 97.3867 20.8107 97.472 20.704C97.5787 20.5973 97.6853 20.576 97.792 20.64C97.856 20.704 98.0693 20.736 98.432 20.736C98.6453 20.736 98.7947 20.7253 98.88 20.704C98.9653 20.6613 99.072 20.5547 99.2 20.384C99.392 20.1707 99.584 19.776 99.776 19.2C99.9893 18.624 100.16 18.208 100.288 17.952C100.779 16.8213 101.024 16 101.024 15.488C101.003 15.424 100.981 15.4027 100.96 15.424C100.832 15.4667 100.565 15.616 100.16 15.872C99.776 16.128 99.552 16.3093 99.488 16.416C99.3173 16.5227 99.2213 16.5653 99.2 16.544C99.1787 16.5227 99.104 16.544 98.976 16.608C98.848 16.672 98.6133 16.6293 98.272 16.48C97.9307 16.3093 97.7493 16.224 97.728 16.224C97.7067 16.224 97.376 16.0747 96.736 15.776C96.1813 15.52 95.7973 15.3173 95.584 15.168C95.3707 15.0187 95.2853 14.9013 95.328 14.816C95.3493 14.752 95.328 14.6773 95.264 14.592C95.1573 14.4427 95.232 14.3573 95.488 14.336C95.5947 14.3147 95.7973 14.304 96.096 14.304C96.5867 14.2827 96.9813 14.1973 97.28 14.048C97.6 13.8987 98.4107 13.3973 99.712 12.544C100.821 11.84 101.739 11.2853 102.464 10.88C102.955 10.624 103.253 10.4533 103.36 10.368C103.723 10.048 104.011 9.888 104.224 9.888C104.309 9.888 104.363 9.856 104.384 9.792C104.405 9.728 104.533 9.74933 104.768 9.856C105.515 10.176 105.963 10.3573 106.112 10.4C106.261 10.464 106.336 10.5387 106.336 10.624C106.336 10.7093 106.357 10.752 106.4 10.752C106.443 10.752 106.624 10.912 106.944 11.232C107.264 11.552 107.424 11.7333 107.424 11.776C107.424 11.8187 107.36 11.84 107.232 11.84C107.125 11.84 107.072 11.8827 107.072 11.968C107.072 12.0533 106.987 12.0853 106.816 12.064C106.475 12.0213 105.92 12.2773 105.152 12.832C104.96 13.0027 104.779 13.088 104.608 13.088C104.437 13.088 104.309 13.12 104.224 13.184C104.16 13.2267 104.053 13.2587 103.904 13.28C103.541 13.344 103.36 13.4187 103.36 13.504C103.36 13.5253 103.435 13.6533 103.584 13.888C103.755 14.1013 103.883 14.2507 103.968 14.336C104.075 14.4427 104.096 14.6027 104.032 14.816L103.936 15.584L103.904 16L104.448 16.224C104.811 16.352 105.195 16.5333 105.6 16.768L106.848 17.536C107.317 17.8133 107.552 17.984 107.552 18.048C107.552 18.112 107.605 18.208 107.712 18.336C107.797 18.464 107.819 18.528 107.776 18.528C107.669 18.528 107.605 18.56 107.584 18.624C107.584 18.6667 107.584 18.784 107.584 18.976C107.605 19.2747 107.616 19.5093 107.616 19.68C107.637 19.8507 107.701 19.936 107.808 19.936C107.893 19.936 107.989 19.872 108.096 19.744C108.224 19.5947 108.288 19.4667 108.288 19.36C108.288 19.2533 108.331 19.1787 108.416 19.136C108.544 19.0507 108.768 18.6987 109.088 18.08C109.408 17.44 109.707 16.7893 109.984 16.128C110.219 15.36 110.272 14.9653 110.144 14.944C110.059 14.944 109.92 14.88 109.728 14.752C109.557 14.624 109.205 14.56 108.672 14.56C108.16 14.56 107.819 14.4853 107.648 14.336C107.499 14.1653 107.36 14.0693 107.232 14.048C107.125 14.0053 107.104 13.952 107.168 13.888C107.232 13.824 107.189 13.728 107.04 13.6C106.933 13.536 106.88 13.4827 106.88 13.44C106.88 13.3973 106.933 13.3547 107.04 13.312C107.147 13.2267 107.36 13.184 107.68 13.184C108.512 13.184 109.419 12.9387 110.4 12.448L111.296 12L111.52 10.848C111.904 8.52267 112.117 7.05067 112.16 6.432C112.203 5.792 112.128 5.152 111.936 4.512C111.723 4 111.637 3.70133 111.68 3.616C111.723 3.53067 111.701 3.456 111.616 3.392C111.531 3.24267 111.616 3.11467 111.872 3.008ZM103.904 17.728C103.712 17.536 103.584 17.44 103.52 17.44C103.477 17.44 103.424 17.568 103.36 17.824C103.296 18.0587 103.211 18.2187 103.104 18.304C103.019 18.368 102.976 18.4427 102.976 18.528C102.976 18.6133 102.912 18.784 102.784 19.04C102.677 19.2747 102.635 19.4133 102.656 19.456C102.677 19.4773 102.912 19.392 103.36 19.2C103.808 19.008 104.085 18.9227 104.192 18.944C104.299 18.9653 104.384 18.9653 104.448 18.944C104.533 18.9013 104.501 18.7307 104.352 18.432C104.224 18.1333 104.075 17.8987 103.904 17.728Z" fill="black"/>
</svg>
