<svg width="122" height="29" viewBox="0 0 122 29" fill="none" xmlns="http://www.w3.org/2000/svg">
<path d="M20.072 16.128C20.1787 16.0427 20.2747 15.9893 20.36 15.968C20.4453 15.9467 20.6907 15.9787 21.096 16.064C21.5013 16.1493 21.7147 16.2133 21.736 16.256C21.7573 16.3413 21.8 16.384 21.864 16.384C21.9493 16.384 22.0347 16.416 22.12 16.48C22.2053 16.5867 22.376 16.64 22.632 16.64C22.8027 16.64 22.888 16.6827 22.888 16.768C22.888 16.896 23.016 16.9493 23.272 16.928C23.5493 16.9067 23.7093 17.0773 23.752 17.44C23.7947 17.7813 23.6987 18.176 23.464 18.624C23.3147 18.9013 23.2293 19.0827 23.208 19.168C23.208 19.2533 23.1653 19.36 23.08 19.488C22.9947 19.5947 22.9307 19.648 22.888 19.648C22.76 19.6053 22.6853 19.6587 22.664 19.808C22.6427 19.9147 22.5573 20.128 22.408 20.448C22.2587 20.7467 22.1413 20.928 22.056 20.992C21.9707 21.0773 21.928 21.1733 21.928 21.28C21.928 21.4293 21.8533 21.6 21.704 21.792C21.576 21.9627 21.4693 22.048 21.384 22.048C21.2133 22.048 21.16 22.112 21.224 22.24C21.2667 22.3253 21.3413 22.368 21.448 22.368C21.5973 22.3893 21.672 22.4427 21.672 22.528C21.672 22.6133 21.7893 22.7093 22.024 22.816C22.1947 22.88 22.2907 22.9333 22.312 22.976C22.3547 22.9973 22.344 23.04 22.28 23.104C22.1733 23.2747 22.248 23.3707 22.504 23.392C22.5893 23.4347 22.664 23.456 22.728 23.456C22.92 23.456 23.0693 23.488 23.176 23.552C23.24 23.5947 23.272 23.6373 23.272 23.68C23.272 23.7227 23.2187 23.808 23.112 23.936C22.9627 24.128 22.8773 24.2773 22.856 24.384C22.856 24.512 22.856 24.6613 22.856 24.832L22.792 25.056H20.968C19.7093 25.0773 19.016 25.0987 18.888 25.12C18.7813 25.1627 18.6213 25.184 18.408 25.184C18.216 25.2053 18.0667 25.28 17.96 25.408C17.7467 25.6213 17.64 25.632 17.64 25.44C17.64 25.376 17.5227 25.344 17.288 25.344C17.0747 25.344 16.8293 25.376 16.552 25.44C16.3813 25.4613 16.1467 25.4827 15.848 25.504H15.368V26.144C15.368 26.5493 15.3253 26.8053 15.24 26.912C15.176 27.0187 15.144 27.04 15.144 26.976C15.144 26.848 15.112 26.8373 15.048 26.944C15.0053 26.9867 14.984 27.0293 14.984 27.072C14.984 27.1787 14.9413 27.3173 14.856 27.488L14.792 27.712L14.408 27.392C13.9813 26.9227 13.6933 26.688 13.544 26.688C13.4373 26.688 13.256 26.56 13 26.304C12.7653 26.0693 12.648 25.9093 12.648 25.824C12.648 25.7387 12.584 25.6213 12.456 25.472C12.3707 25.344 12.3067 25.12 12.264 24.8C12.2427 24.48 12.232 23.6053 12.232 22.176C12.2107 20.1707 12.168 19.1253 12.104 19.04C12.0613 18.9547 12.008 18.7413 11.944 18.4C11.9013 18.0373 11.9013 17.7707 11.944 17.6C11.9653 17.4293 12.04 17.3013 12.168 17.216C12.296 17.1307 12.392 17.12 12.456 17.184C12.5627 17.2267 12.7333 17.2907 12.968 17.376C13.2027 17.4613 13.3627 17.5787 13.448 17.728C13.5333 17.856 13.6613 17.984 13.832 18.112L14.12 18.336L15.432 17.76C17.1813 17.0347 18.5147 16.576 19.432 16.384C19.7733 16.2773 19.9867 16.192 20.072 16.128ZM19.272 19.04C19.2507 18.9333 19.1973 18.88 19.112 18.88C19.048 18.88 18.632 19.04 17.864 19.36C17.096 19.6587 16.488 19.8293 16.04 19.872C15.6133 19.8933 15.3893 19.936 15.368 20C15.3467 20.064 15.2827 20.064 15.176 20C15.0693 19.936 14.9733 19.936 14.888 20C14.8027 20.0427 14.792 20.3947 14.856 21.056C14.9413 21.696 15.016 22.1333 15.08 22.368C15.1227 22.56 15.1653 22.6773 15.208 22.72C15.2507 22.7627 15.3573 22.784 15.528 22.784C15.7627 22.784 16.1147 22.7413 16.584 22.656C17.0747 22.5493 17.384 22.4213 17.512 22.272C17.832 21.8453 18.2053 21.2373 18.632 20.448C19.08 19.6373 19.2933 19.168 19.272 19.04ZM15.752 1.216C15.7733 1.17333 15.784 1.13067 15.784 1.088C15.8053 1.04533 16.008 1.088 16.392 1.216C16.7333 1.32267 17.2027 1.52533 17.8 1.824C18.4187 2.10133 18.856 2.336 19.112 2.528C19.304 2.656 19.4213 2.76267 19.464 2.848C19.5067 2.93333 19.5493 3.104 19.592 3.36L19.72 3.904H20.072C20.328 3.904 20.552 4.02133 20.744 4.256C20.9573 4.46933 21.2453 4.59733 21.608 4.64C21.8213 4.66133 21.9493 4.68267 21.992 4.704C22.0347 4.72533 22.0453 4.77866 22.024 4.864C22.0027 4.992 22.0347 5.056 22.12 5.056C22.2267 5.056 22.28 5.09867 22.28 5.184C22.28 5.26933 22.3333 5.344 22.44 5.408C22.568 5.51467 22.5787 5.664 22.472 5.856C22.4293 5.92 22.504 6.048 22.696 6.24C22.888 6.432 22.9413 6.56 22.856 6.624C22.7707 6.66667 22.7067 6.67733 22.664 6.656C22.6213 6.61333 22.5573 6.624 22.472 6.688C22.408 6.752 22.2693 6.80533 22.056 6.848C21.8427 6.89067 21.736 6.944 21.736 7.008C21.736 7.072 21.7147 7.072 21.672 7.008C21.6293 6.92267 21.576 6.912 21.512 6.976C21.4693 7.04 21.3627 7.072 21.192 7.072C21.0213 7.072 20.936 7.09333 20.936 7.136C20.936 7.17867 20.84 7.24267 20.648 7.328C20.4773 7.41333 20.3173 7.456 20.168 7.456C20.0827 7.49867 19.9867 7.552 19.88 7.616C19.7733 7.65867 19.7947 7.79733 19.944 8.032C20.52 8.88533 20.5307 9.86667 19.976 10.976C19.784 11.36 19.6987 11.5627 19.72 11.584C19.7413 11.6053 19.976 11.5733 20.424 11.488C21.5973 11.2107 22.4293 11.072 22.92 11.072C23.7947 11.072 24.2107 11.2 24.168 11.456C24.168 11.5413 24.232 11.5947 24.36 11.616C24.8507 11.616 25.16 11.7013 25.288 11.872C25.352 11.9573 25.4587 12 25.608 12C25.7787 12 25.8427 12.064 25.8 12.192C25.7573 12.2987 25.7893 12.384 25.896 12.448C26.024 12.4907 26.0453 12.7787 25.96 13.312L25.896 13.664L24.968 13.696C24.2 13.7387 23.368 13.8667 22.472 14.08C21.832 14.2293 21.384 14.3467 21.128 14.432C20.6373 14.496 19.3893 14.8053 17.384 15.36C16.936 15.488 16.6053 15.5733 16.392 15.616C16.1147 15.68 15.4533 15.9253 14.408 16.352C13.8747 16.544 13.3733 16.6933 12.904 16.8C12.4347 16.9067 11.9653 16.928 11.496 16.864L10.856 16.736L10.472 17.12C10.2587 17.3547 10.12 17.472 10.056 17.472C9.992 17.472 9.96 17.5467 9.96 17.696C9.98133 17.824 9.87467 18.048 9.64 18.368C9.40533 18.688 9.24533 18.976 9.16 19.232C8.968 19.68 8.63733 20.2347 8.168 20.896C7.86933 21.3227 7.72 21.568 7.72 21.632C7.72 21.696 7.624 21.856 7.432 22.112C7.26133 22.3467 7.176 22.4853 7.176 22.528C7.176 22.6133 6.984 22.848 6.6 23.232C6.23733 23.616 5.87467 23.968 5.512 24.288C4.97867 24.736 4.66933 25.0027 4.584 25.088C4.49867 25.1947 4.424 25.3227 4.36 25.472C4.27467 25.728 4.15733 25.7707 4.008 25.6C3.92267 25.5147 3.83733 25.472 3.752 25.472C3.66667 25.472 3.51733 25.3867 3.304 25.216C3.09067 25.0667 2.824 24.9387 2.504 24.832C2.184 24.7253 2.01333 24.5973 1.992 24.448C1.992 24.32 1.928 24.2027 1.8 24.096C1.672 24.032 1.55467 23.904 1.448 23.712C1.34133 23.4987 1.29867 23.3493 1.32 23.264C1.34133 23.1573 1.32 23.072 1.256 23.008C1.21333 22.9227 1.224 22.7307 1.288 22.432C1.37333 22.1333 1.46933 21.9413 1.576 21.856C1.68267 21.7707 1.88533 21.6533 2.184 21.504C2.46133 21.3547 2.70667 21.1733 2.92 20.96C3.15467 20.7467 3.272 20.576 3.272 20.448C3.272 20.3413 3.34667 20 3.496 19.424C3.64533 18.912 3.72 18.5707 3.72 18.4C3.72 18.2293 3.66667 18.1333 3.56 18.112C3.45333 18.0693 3.05867 18.0053 2.376 17.92C1.71467 17.8133 1.32 17.696 1.192 17.568C1.064 17.4187 0.925333 17.3227 0.776 17.28C0.626667 17.216 0.562667 17.1307 0.584 17.024C0.626667 16.896 0.552 16.7893 0.36 16.704C0.0400001 16.5333 -0.0559999 16.352 0.072 16.16C0.157333 16.0107 0.530667 15.8613 1.192 15.712C1.49067 15.648 1.864 15.488 2.312 15.232C2.44 15.1893 2.54667 15.1467 2.632 15.104C2.73867 15.04 2.824 14.9973 2.888 14.976C2.952 14.9333 2.984 14.9227 2.984 14.944C2.984 14.9653 3.048 14.944 3.176 14.88C3.304 14.7947 3.45333 14.6987 3.624 14.592C3.79467 14.464 3.92267 14.3467 4.008 14.24L4.296 13.92L4.264 10.88C4.24267 9.344 4.2 8.36267 4.136 7.936C4.09333 7.488 3.99733 7.264 3.848 7.264C3.76267 7.264 3.72 7.232 3.72 7.168C3.72 7.104 3.67733 7.072 3.592 7.072C3.50667 7.072 3.464 6.976 3.464 6.784C3.464 6.61333 3.47467 6.50667 3.496 6.464C3.53867 6.42133 3.656 6.38933 3.848 6.368C4.168 6.32533 4.73333 6.37867 5.544 6.528C6.22667 6.61333 6.70667 6.976 6.984 7.616C7.41067 8.59733 7.47467 10.1333 7.176 12.224C7.09067 12.7787 7.112 13.0667 7.24 13.088C7.26133 13.088 7.29333 13.0773 7.336 13.056C7.44267 13.0347 7.51733 13.0667 7.56 13.152C7.60267 13.2373 7.70933 13.2587 7.88 13.216C7.96533 13.1733 8.01867 13.1627 8.04 13.184C8.06133 13.184 8.072 13.2267 8.072 13.312C8.072 13.44 8.12533 13.4827 8.232 13.44C8.36 13.4187 8.47733 13.4293 8.584 13.472C8.69067 13.4933 8.73333 13.5573 8.712 13.664C8.69067 13.6853 8.69067 13.7067 8.712 13.728C8.73333 13.7493 8.78667 13.76 8.872 13.76C8.97867 13.76 9.01067 13.8453 8.968 14.016C8.94667 14.1653 9.01067 14.2507 9.16 14.272C9.352 14.336 9.42667 14.432 9.384 14.56C9.36267 14.6453 9.30933 14.688 9.224 14.688C9.13867 14.688 9.064 14.7413 9 14.848C8.936 14.9333 8.92533 14.9973 8.968 15.04L9 14.976C9 14.9333 9.18133 14.88 9.544 14.816C9.90667 14.7307 10.2907 14.6133 10.696 14.464C11.1227 14.3147 11.3787 14.24 11.464 14.24C11.656 14.24 11.9653 14.0587 12.392 13.696L12.616 13.536C12.5947 13.536 12.552 13.5787 12.488 13.664C12.3813 13.8133 12.3813 13.8667 12.488 13.824C12.5733 13.8027 12.7867 13.7387 13.128 13.632C13.4053 13.5253 13.6827 13.3867 13.96 13.216C14.2587 13.0453 14.408 12.9173 14.408 12.832C14.408 12.8107 14.28 12.6827 14.024 12.448C13.7893 12.2133 13.6507 11.9787 13.608 11.744C13.5867 11.5733 13.5867 11.1253 13.608 10.4C13.6293 9.65333 13.6613 9.14133 13.704 8.864C13.768 8.672 13.736 8.576 13.608 8.576C13.544 8.576 13.32 8.45867 12.936 8.224C12.5733 7.968 12.3173 7.76533 12.168 7.616C12.0827 7.50933 11.976 7.424 11.848 7.36C11.7627 7.31733 11.72 7.27467 11.72 7.232C11.72 7.18933 11.7733 7.06133 11.88 6.848C12.008 6.57067 12.1893 6.42133 12.424 6.4C12.68 6.35733 13.0747 6.21867 13.608 5.984L15.08 5.472C15.3787 5.38667 15.56 5.312 15.624 5.248C15.7093 5.184 15.7627 5.07733 15.784 4.928C15.8053 4.71467 15.88 4.30933 16.008 3.712C16.0933 3.2 16.1253 2.83733 16.104 2.624C16.104 2.41067 16.0187 2.176 15.848 1.92C15.6773 1.68533 15.6133 1.51467 15.656 1.408C15.72 1.30133 15.752 1.23733 15.752 1.216ZM17.384 8.544C17.384 8.52267 17.3733 8.512 17.352 8.512C17.3307 8.49067 17.2987 8.49067 17.256 8.512C17.2133 8.512 17.1387 8.53333 17.032 8.576C16.9467 8.59733 16.8187 8.66133 16.648 8.768C16.264 8.93867 16.072 9.056 16.072 9.12C16.072 9.184 15.9973 9.19467 15.848 9.152C15.72 9.13067 15.656 9.14133 15.656 9.184C15.656 9.20533 15.688 9.30133 15.752 9.472C15.8373 9.70667 15.9227 10.0373 16.008 10.464L16.104 11.072L16.616 10.08C16.936 9.44 17.096 9.07733 17.096 8.992C17.1173 8.88533 17.1707 8.8 17.256 8.736C17.3413 8.65067 17.384 8.58667 17.384 8.544ZM8.232 15.68C8.104 15.5733 8.08267 15.4987 8.168 15.456C8.25333 15.392 8.264 15.36 8.2 15.36C8.15733 15.36 8.06133 15.424 7.912 15.552C7.784 15.6587 7.688 15.712 7.624 15.712C7.56 15.712 7.50667 15.7547 7.464 15.84C7.42133 15.9253 7.336 15.9893 7.208 16.032C7.10133 16.0747 7.02667 16.16 6.984 16.288C6.94133 16.3947 6.89867 16.64 6.856 17.024C6.81333 17.408 6.792 17.7387 6.792 18.016C6.792 18.2933 6.80267 18.4533 6.824 18.496C6.90933 18.496 7.32533 18.1547 8.072 17.472C8.456 17.1093 8.68 16.9387 8.744 16.96C8.78667 16.9813 8.88267 16.9173 9.032 16.768C9.20267 16.5973 9.288 16.48 9.288 16.416C9.288 16.3307 9.18133 16.2453 8.968 16.16C8.776 16.0747 8.63733 16 8.552 15.936C8.488 15.872 8.38133 15.7867 8.232 15.68ZM9.704 16.832C9.81067 16.7253 9.84267 16.6613 9.8 16.64C9.75733 16.5973 9.672 16.576 9.544 16.576C9.48 16.576 9.42667 16.6293 9.384 16.736C9.36267 16.8427 9.39467 16.9173 9.48 16.96C9.52267 16.9813 9.59733 16.9387 9.704 16.832ZM38.792 9.44C38.9627 9.184 39.144 9.00267 39.336 8.896C39.5493 8.78933 39.656 8.736 39.656 8.736C39.6773 8.736 39.88 8.84267 40.264 9.056C41.1173 9.54667 41.736 10.176 42.12 10.944C42.3333 11.4347 42.376 11.6907 42.248 11.712C42.1627 11.712 42.0347 11.8827 41.864 12.224C41.7147 12.5653 41.64 12.8427 41.64 13.056C41.64 13.248 41.5867 13.696 41.48 14.4C41.3947 15.104 41.3627 15.6587 41.384 16.064C41.4267 16.4693 41.3947 16.8107 41.288 17.088C41.2667 17.216 41.2347 17.4613 41.192 17.824C41.1707 18.1867 41.1493 18.5067 41.128 18.784C41.1067 19.04 41.1067 19.1893 41.128 19.232C41.1493 19.232 41.32 19.008 41.64 18.56C41.9813 18.0907 42.1627 17.856 42.184 17.856C42.184 17.856 42.152 17.9093 42.088 18.016C42.0453 18.1013 41.9707 18.2507 41.864 18.464C41.7573 18.656 41.6293 18.8693 41.48 19.104C41.3307 19.3813 41.2987 19.5733 41.384 19.68C41.4267 19.808 41.4693 19.8613 41.512 19.84C41.576 19.8187 41.7147 19.68 41.928 19.424L42.696 18.592L42.952 18.304C42.9093 18.3893 42.7813 18.6773 42.568 19.168C42.376 19.6587 42.2373 19.9787 42.152 20.128C42.0667 20.256 42.0453 20.3307 42.088 20.352C42.1733 20.3947 42.3333 20.2773 42.568 20C42.76 19.7653 42.8667 19.6693 42.888 19.712C42.9307 19.7547 42.696 20.2773 42.184 21.28C41.6933 22.2827 41.3733 22.8587 41.224 23.008C41.0533 23.2213 40.8293 23.5307 40.552 23.936C40.296 24.3413 40.168 24.576 40.168 24.64C40.168 24.7253 40.104 24.8213 39.976 24.928C39.8693 25.056 39.784 25.12 39.72 25.12C39.6133 25.12 39.4747 25.0133 39.304 24.8C38.92 24.3093 38.664 24.064 38.536 24.064C38.4933 24.064 38.472 24.032 38.472 23.968C38.472 23.8827 38.4187 23.7973 38.312 23.712C38.2053 23.6267 38.0987 23.584 37.992 23.584C37.8853 23.584 37.7787 23.5093 37.672 23.36C37.5867 23.1893 37.5547 23.0507 37.576 22.944C37.5973 22.816 37.5653 22.7413 37.48 22.72C37.3093 22.656 37.224 22.496 37.224 22.24C37.2453 21.9627 37.3413 21.8133 37.512 21.792C37.6613 21.7493 37.7467 21.6853 37.768 21.6C37.8107 21.4933 37.9813 21.2907 38.28 20.992L38.728 20.544L38.824 19.488C38.9093 18.784 38.952 18.2827 38.952 17.984C38.952 17.6853 38.9947 17.1733 39.08 16.448C39.144 16.0427 39.1973 15.5307 39.24 14.912C39.2827 14.272 39.304 13.7493 39.304 13.344C39.304 12.9387 39.2933 12.704 39.272 12.64C39.208 12.64 39.016 12.7573 38.696 12.992C37.096 14.144 36.1147 14.7947 35.752 14.944C35.6027 14.9867 35.432 15.008 35.24 15.008C35.0693 14.9867 34.984 14.9333 34.984 14.848C34.984 14.784 34.9093 14.752 34.76 14.752C34.6107 14.752 34.4613 14.6987 34.312 14.592C34.1627 14.464 34.0133 14.4 33.864 14.4C33.736 14.4 33.5653 14.2933 33.352 14.08C33.16 13.8453 32.9893 13.696 32.84 13.632C32.6907 13.568 32.616 13.5147 32.616 13.472C32.616 13.408 32.7013 13.3333 32.872 13.248C33.0427 13.1627 33.2133 13.0987 33.384 13.056C33.96 12.9493 35.0587 12.3093 36.68 11.136C37.1067 10.8373 37.4267 10.6133 37.64 10.464C37.8747 10.3147 38.0133 10.208 38.056 10.144C38.12 10.0587 38.216 9.984 38.344 9.92C38.4933 9.856 38.6427 9.696 38.792 9.44ZM49.352 7.712C49.3733 7.66933 49.448 7.648 49.576 7.648C49.704 7.648 49.864 7.66933 50.056 7.712C50.2693 7.75467 50.4933 7.808 50.728 7.872C51.176 8.04267 51.464 8.192 51.592 8.32C51.72 8.448 51.7093 8.58667 51.56 8.736C51.496 8.8 51.5813 8.93867 51.816 9.152C52.0507 9.344 52.168 9.49333 52.168 9.6C52.168 9.68533 52.1893 9.76 52.232 9.824C52.2747 9.888 52.2747 10.1013 52.232 10.464C52.1893 10.8267 52.168 11.5093 52.168 12.512C52.168 13.4933 52.136 14.1227 52.072 14.4C52.008 14.6773 51.9547 15.168 51.912 15.872C51.8693 16.576 51.8267 16.9813 51.784 17.088C51.6347 17.344 51.528 17.7387 51.464 18.272C51.4213 18.528 51.368 18.656 51.304 18.656C51.2613 18.656 51.1653 18.592 51.016 18.464C50.888 18.336 50.824 18.2507 50.824 18.208C50.824 18.144 50.8027 18.1227 50.76 18.144C50.7173 18.1653 50.664 18.112 50.6 17.984C50.536 17.856 50.408 17.6747 50.216 17.44C49.8107 17.0133 49.64 16.608 49.704 16.224C49.7253 16.0533 49.6827 15.936 49.576 15.872C49.4907 15.7867 49.448 15.7227 49.448 15.68C49.448 15.616 49.3947 15.552 49.288 15.488C49.1813 15.4027 49.16 15.3173 49.224 15.232C49.3093 15.1467 49.3733 14.6667 49.416 13.792C49.4587 12.9173 49.4907 12.448 49.512 12.384C49.5547 12.32 49.576 11.7227 49.576 10.592C49.576 9.03467 49.448 8.13867 49.192 7.904C49.0853 7.84 49.0853 7.808 49.192 7.808C49.2987 7.808 49.352 7.776 49.352 7.712ZM44.68 7.744C44.744 7.72267 44.8293 7.66933 44.936 7.584C45.064 7.49867 45.128 7.456 45.128 7.456C45.128 7.456 45.16 7.46667 45.224 7.488C45.288 7.488 45.3627 7.49867 45.448 7.52C45.5547 7.54133 45.672 7.57333 45.8 7.616C46.0987 7.70133 46.312 7.79733 46.44 7.904C46.568 7.98933 46.8027 8.20267 47.144 8.544C47.6347 9.056 47.9227 9.44 48.008 9.696C48.0933 9.93067 48.1147 10.3893 48.072 11.072C48.008 11.84 47.9333 12.5653 47.848 13.248C47.784 14.2507 47.6667 14.976 47.496 15.424C47.4107 15.5733 47.3467 15.9253 47.304 16.48C47.2613 17.0133 47.1973 17.3547 47.112 17.504C47.0267 17.632 46.952 17.8453 46.888 18.144C46.8027 18.8267 46.5893 19.4667 46.248 20.064C46.056 20.3627 45.9067 20.448 45.8 20.32C45.736 20.2987 45.704 20.2667 45.704 20.224C45.704 20.1173 45.672 20.0427 45.608 20C45.544 19.936 45.384 19.7333 45.128 19.392C44.7013 18.816 44.4347 18.56 44.328 18.624C44.264 18.6453 44.232 18.624 44.232 18.56C44.232 18.3893 44.2853 18.24 44.392 18.112C44.4987 18.0053 44.5307 17.8667 44.488 17.696C44.4453 17.5253 44.3813 17.44 44.296 17.44C44.0613 17.44 44.0613 17.152 44.296 16.576C44.808 15.1253 45.0853 13.3227 45.128 11.168C45.192 9.48267 45.0853 8.448 44.808 8.064C44.6587 7.872 44.616 7.76533 44.68 7.744ZM53.896 1.952C54.1307 1.824 54.312 1.76 54.44 1.76C54.5893 1.76 54.9093 1.89867 55.4 2.176C55.912 2.45333 56.1787 2.624 56.2 2.688C56.2 2.816 56.3493 3.04 56.648 3.36C56.9467 3.68 57.096 3.88266 57.096 3.968C57.096 4.032 57.1493 4.14933 57.256 4.32C57.384 4.46933 57.416 4.56533 57.352 4.608C57.2667 4.65067 57.1813 4.87467 57.096 5.28C57.0107 5.664 56.968 6.048 56.968 6.432C56.9893 7.62667 56.968 9.03467 56.904 10.656C56.7547 13.7067 56.68 18.0053 56.68 23.552C56.68 24.7253 56.6587 25.3333 56.616 25.376C56.5307 25.4187 56.3493 25.9947 56.072 27.104C56.008 27.2747 55.944 27.3707 55.88 27.392C55.8373 27.4133 55.624 27.2107 55.24 26.784C54.8773 26.3787 54.6 26.0693 54.408 25.856C54.216 25.664 54.12 25.4827 54.12 25.312C54.12 25.1413 54.0347 25.0133 53.864 24.928L53.608 24.768V22.528C53.6293 21.0347 53.6507 20.0107 53.672 19.456C53.7147 18.9013 53.768 17.7173 53.832 15.904C53.896 14.0693 53.9493 12.736 53.992 11.904L54.152 9.824C54.3013 7.968 54.2907 6.13333 54.12 4.32C54.0347 3.57333 53.9707 3.11467 53.928 2.944C53.9067 2.752 53.832 2.57067 53.704 2.4L53.512 2.144L53.896 1.952ZM37.544 1.44C37.8213 1.376 38.1733 1.39733 38.6 1.504C39.048 1.58933 39.4107 1.728 39.688 1.92C39.88 2.06933 40.008 2.144 40.072 2.144C40.136 2.144 40.232 2.21867 40.36 2.368C40.488 2.51733 40.584 2.592 40.648 2.592C40.7333 2.592 40.872 2.69867 41.064 2.912C41.256 3.104 41.4053 3.296 41.512 3.488C41.6187 3.70133 41.64 3.85067 41.576 3.936C41.512 4.02133 41.4373 4.20267 41.352 4.48C41.288 4.736 41.2347 4.91733 41.192 5.024C41.1707 5.10933 41.1707 5.42933 41.192 5.984C41.192 6.47467 41.1387 6.72 41.032 6.72C40.9467 6.72 40.616 6.47467 40.04 5.984C39.5067 5.536 39.112 5.09867 38.856 4.672C38.6 4.24533 38.472 3.97867 38.472 3.872C38.472 3.744 38.344 3.41333 38.088 2.88C37.832 2.34667 37.6187 2.02666 37.448 1.92C37.32 1.87733 37.256 1.824 37.256 1.76C37.32 1.73867 37.352 1.68533 37.352 1.6C37.352 1.51466 37.416 1.46133 37.544 1.44ZM83.496 0.511999C83.688 0.319999 83.9547 0.351999 84.296 0.608C84.4453 0.714666 84.68 0.831999 85 0.959999C85.3413 1.088 85.576 1.152 85.704 1.152C85.8533 1.152 85.9387 1.19467 85.96 1.28C86.0027 1.36533 86.088 1.44 86.216 1.504C86.344 1.54667 86.4827 1.61067 86.632 1.696C86.7387 1.78133 86.792 1.84533 86.792 1.888C86.792 1.93067 86.7493 2.02667 86.664 2.176C86.5573 2.41067 86.4187 2.73067 86.248 3.136C86.12 3.47733 85.9387 3.86133 85.704 4.288C85.4693 4.69333 85.32 4.90667 85.256 4.928C85.192 4.97067 85.16 5.056 85.16 5.184C85.16 5.29067 85.128 5.344 85.064 5.344C85 5.344 84.968 5.38667 84.968 5.472C84.968 5.55733 84.9147 5.64267 84.808 5.728C84.7227 5.792 84.68 5.87733 84.68 5.984C84.68 6.09067 84.6373 6.144 84.552 6.144C84.488 6.144 84.3707 6.272 84.2 6.528C84.0933 6.69867 84.0507 6.82667 84.072 6.912C84.0933 6.976 84.2 7.008 84.392 7.008C84.5413 7.008 84.6267 7.04 84.648 7.104C84.6907 7.168 84.808 7.2 85 7.2C85.192 7.2 85.288 7.24267 85.288 7.328C85.288 7.41333 85.4053 7.47733 85.64 7.52C85.8747 7.56267 86.1307 7.62667 86.408 7.712C86.7067 7.776 86.856 7.76533 86.856 7.68C86.856 7.59467 86.8987 7.54133 86.984 7.52C87.0693 7.49867 87.1867 7.50933 87.336 7.552C87.5067 7.57333 87.6987 7.63733 87.912 7.744C88.3387 7.936 88.5733 8.032 88.616 8.032C88.68 8.032 88.872 8.128 89.192 8.32C89.6827 8.61867 90.056 8.96 90.312 9.344C90.4187 9.51467 90.5893 9.67467 90.824 9.824C90.9947 9.952 91.0907 10.0373 91.112 10.08C91.1547 10.1227 91.1333 10.1867 91.048 10.272C90.9627 10.3787 90.9413 10.432 90.984 10.432C91.0267 10.432 91.0053 10.464 90.92 10.528C90.8347 10.592 90.8667 10.6987 91.016 10.848C91.1653 10.9973 91.208 11.0933 91.144 11.136C91.1013 11.1573 90.7493 11.0933 90.088 10.944C89.4267 10.7733 89.0853 10.6667 89.064 10.624C89.064 10.56 89 10.528 88.872 10.528C88.7653 10.528 88.6267 10.4853 88.456 10.4C88.2853 10.3147 87.976 10.2187 87.528 10.112C87.1013 10.0053 86.7813 9.92 86.568 9.856C86.3547 9.77067 86.0027 9.696 85.512 9.632C85.0213 9.54667 84.6907 9.49333 84.52 9.472C84.3707 9.45067 84.104 9.39733 83.72 9.312L82.728 9.152C82.4507 9.088 82.312 9.088 82.312 9.152C82.3333 9.216 82.4187 9.25867 82.568 9.28C82.7387 9.30133 82.8667 9.33333 82.952 9.376C83.0373 9.41867 83.1653 9.45067 83.336 9.472C83.4427 9.49333 83.656 9.6 83.976 9.792C84.296 9.96267 84.5413 10.1227 84.712 10.272C84.8827 10.4213 84.9467 10.6027 84.904 10.816C84.8827 10.9653 84.8827 11.072 84.904 11.136C84.9467 11.1787 85.0747 11.2213 85.288 11.264L86.088 11.52C86.3653 11.6053 86.5787 11.648 86.728 11.648C86.856 11.648 86.9413 11.6907 86.984 11.776C87.0267 11.8613 87.016 11.968 86.952 12.096C86.888 12.2027 86.9627 12.352 87.176 12.544C87.368 12.6933 87.4427 12.8 87.4 12.864C87.3573 12.928 87.1867 13.0027 86.888 13.088C86.6747 13.152 86.504 13.2053 86.376 13.248C85.8213 13.4827 85.448 13.6 85.256 13.6C85.1067 13.6 85 13.8027 84.936 14.208C84.9147 14.336 84.8827 14.496 84.84 14.688L84.808 14.944L85.576 14.976C86.1093 14.976 86.568 15.0613 86.952 15.232C87.3573 15.3813 87.6347 15.456 87.784 15.456C87.9547 15.456 88.072 15.4987 88.136 15.584C88.2213 15.6693 88.3493 15.712 88.52 15.712C88.7547 15.712 88.872 15.8613 88.872 16.16C88.872 16.2667 89.096 16.5227 89.544 16.928L90.216 17.6L90.184 18.08C90.1413 18.4 90.088 18.5707 90.024 18.592C89.96 18.6133 89.8107 18.5813 89.576 18.496C89.3627 18.3893 89.032 18.3467 88.584 18.368C88.136 18.3893 87.8693 18.4107 87.784 18.432C87.272 18.6453 86.6107 18.784 85.8 18.848C85.3733 18.8907 85.1493 18.944 85.128 19.008C85.1067 19.0507 85.0747 19.8613 85.032 21.44C84.9893 22.9973 84.9467 23.808 84.904 23.872C84.8827 23.9147 84.7973 23.9147 84.648 23.872C84.4987 23.8293 84.424 23.84 84.424 23.904C84.424 23.968 84.4987 24 84.648 24C84.7547 24 84.8187 24.0213 84.84 24.064C84.8613 24.128 84.872 24.2453 84.872 24.416C84.872 24.672 84.872 24.832 84.872 24.896C84.8933 24.96 84.904 25.2053 84.904 25.632C84.904 25.9947 84.8827 26.176 84.84 26.176C84.84 26.176 84.8187 26.1547 84.776 26.112C84.6907 25.984 84.616 25.9627 84.552 26.048C84.488 26.1333 84.4667 26.3147 84.488 26.592C84.5307 26.8693 84.584 27.0507 84.648 27.136C84.7547 27.2853 84.68 27.3813 84.424 27.424C84.36 27.424 84.2853 27.4133 84.2 27.392C84.0293 27.3707 83.944 27.4133 83.944 27.52C83.944 27.6267 83.912 27.7867 83.848 28L83.72 28.384L83.432 27.968C83.24 27.712 83.144 27.552 83.144 27.488C83.144 27.424 83.0373 27.3387 82.824 27.232C82.6107 27.1467 82.5253 27.0613 82.568 26.976C82.568 26.9547 82.5573 26.9333 82.536 26.912C82.5147 26.912 82.4933 26.9227 82.472 26.944C82.408 26.9867 82.3227 26.9547 82.216 26.848C82.152 26.784 82.12 26.784 82.12 26.848C82.12 27.0187 81.9707 26.9547 81.672 26.656C81.6507 26.6347 81.6293 26.6133 81.608 26.592C81.352 26.3147 81.256 26.1227 81.32 26.016C81.384 25.9307 81.352 25.824 81.224 25.696C81.1813 25.632 81.1493 25.5573 81.128 25.472C81.1067 25.408 81.096 25.344 81.096 25.28C81.1173 25.2373 81.16 25.216 81.224 25.216C81.3307 25.216 81.384 25.0773 81.384 24.8C81.384 24.5227 81.4053 24.32 81.448 24.192C81.4907 24.0853 81.5227 23.2747 81.544 21.76C81.5867 20.2453 81.576 19.456 81.512 19.392C81.4693 19.3493 80.872 19.4347 79.72 19.648C78.8667 19.7973 78.0453 19.6373 77.256 19.168C76.9573 18.976 76.712 18.8693 76.52 18.848C75.9867 18.7627 75.592 18.6453 75.336 18.496C75.1227 18.368 75.0587 18.2827 75.144 18.24C75.2507 18.176 75.2933 18.112 75.272 18.048C75.2507 17.9627 75.2827 17.8987 75.368 17.856C75.4747 17.792 75.6133 17.7387 75.784 17.696C75.976 17.632 76.168 17.5893 76.36 17.568C76.744 17.5253 76.9893 17.472 77.096 17.408C77.2027 17.344 77.3413 17.312 77.512 17.312C77.6827 17.2907 77.8 17.2587 77.864 17.216C77.9493 17.152 78.0773 17.1093 78.248 17.088C78.44 17.0667 78.632 17.0027 78.824 16.896C79.2293 16.7467 79.88 16.512 80.776 16.192C81.2027 16.0853 81.4267 16 81.448 15.936C81.4693 15.872 81.5227 15.84 81.608 15.84C81.7147 15.84 81.7147 15.7973 81.608 15.712C81.5013 15.6267 81.448 15.4453 81.448 15.168C81.448 14.784 81.4053 14.5493 81.32 14.464C81.2347 14.3573 81.0213 14.2507 80.68 14.144C80.232 14.016 79.8373 13.9307 79.496 13.888C79.1547 13.8453 78.92 13.7813 78.792 13.696C78.4933 13.5467 78.2373 13.568 78.024 13.76C77.3627 14.3787 76.872 14.7947 76.552 15.008C76.232 15.2 75.9013 15.296 75.56 15.296C75.3893 15.296 75.272 15.3493 75.208 15.456C75.144 15.5627 75.112 15.7547 75.112 16.032C75.112 16.3947 75.08 16.64 75.016 16.768C74.9733 16.896 74.9307 17.2373 74.888 17.792C74.8667 19.008 74.7493 19.5733 74.536 19.488C74.4933 19.4667 74.4507 19.4773 74.408 19.52C74.3867 19.5413 74.376 19.616 74.376 19.744C74.376 19.9147 74.344 20.0213 74.28 20.064C74.2373 20.0853 74.2267 20.1493 74.248 20.256C74.2907 20.3413 74.3547 20.352 74.44 20.288C74.5253 20.224 74.568 20.2453 74.568 20.352C74.568 20.4373 74.4933 20.5333 74.344 20.64C74.1947 20.7467 74.1093 20.896 74.088 21.088C74.088 21.216 74.088 21.312 74.088 21.376C74.088 21.4187 74.088 21.4613 74.088 21.504C74.1093 21.5467 74.1307 21.568 74.152 21.568C74.1947 21.5467 74.2373 21.536 74.28 21.536H74.376C74.3547 21.5573 74.3333 21.6 74.312 21.664C74.2053 21.7707 74.1093 21.8667 74.024 21.952C73.96 22.016 73.9387 22.2613 73.96 22.688C74.0027 23.1147 73.992 23.36 73.928 23.424C73.7573 23.5093 73.576 23.8613 73.384 24.48C73.32 24.6933 73.224 24.864 73.096 24.992C72.9893 25.12 72.904 25.2373 72.84 25.344C72.776 25.472 72.6907 25.5253 72.584 25.504C72.456 25.4827 72.328 25.728 72.2 26.24C72.1573 26.432 72.0933 26.5813 72.008 26.688C71.688 27.0507 71.4853 27.3707 71.4 27.648C71.3787 27.7547 71.3573 27.7867 71.336 27.744C71.336 27.7227 71.336 27.6587 71.336 27.552C71.3147 27.3173 71.304 27.1787 71.304 27.136C71.3253 27.1147 71.1973 26.8053 70.92 26.208C70.4507 25.248 70.12 24.736 69.928 24.672C69.8853 24.672 69.8213 24.5547 69.736 24.32C69.672 24.0853 69.5867 23.9147 69.48 23.808C69.3947 23.7013 69.2773 23.4453 69.128 23.04C69 22.6133 68.9467 22.3573 68.968 22.272C68.9893 22.1653 69.0533 22.1867 69.16 22.336C69.288 22.464 69.3733 22.528 69.416 22.528C69.48 22.528 69.576 22.6347 69.704 22.848C69.8107 23.04 69.8747 23.1467 69.896 23.168C69.9387 23.168 70.0347 23.1253 70.184 23.04C70.824 22.6987 71.1867 22.3467 71.272 21.984C71.4427 21.152 71.5707 20.2667 71.656 19.328C71.6773 18.944 71.72 18.6773 71.784 18.528C71.8693 18.3573 71.8907 18.2293 71.848 18.144C71.8267 18.1013 71.6667 18.1653 71.368 18.336C71.0693 18.4853 70.7387 18.688 70.376 18.944C70.0133 19.2 69.7147 19.424 69.48 19.616C69.3307 19.744 69.224 19.8187 69.16 19.84C69.096 19.84 68.9893 19.936 68.84 20.128C68.6907 20.2987 68.5733 20.384 68.488 20.384C68.4027 20.384 68.36 20.448 68.36 20.576C68.36 20.704 68.328 20.768 68.264 20.768C68.2213 20.768 68.04 20.896 67.72 21.152C67.4213 21.3867 67.08 21.6213 66.696 21.856L66.056 22.24L65.256 22.112C64.7227 22.0267 64.392 21.9413 64.264 21.856C63.9867 21.6 63.6453 21.408 63.24 21.28C63.112 21.2587 63.048 21.1947 63.048 21.088C63.048 20.9813 62.9947 20.8853 62.888 20.8C62.824 20.736 62.792 20.6933 62.792 20.672C62.792 20.6293 62.8453 20.5653 62.952 20.48C63.0587 20.352 63.2827 20.2773 63.624 20.256C64.0507 20.256 64.84 19.8507 65.992 19.04C66.2907 18.8267 66.6533 18.592 67.08 18.336C67.528 18.0587 67.7627 17.8987 67.784 17.856C67.848 17.8133 68.04 17.7067 68.36 17.536C68.7013 17.344 68.8933 17.248 68.936 17.248C69.0427 17.248 69.096 17.216 69.096 17.152C69.096 17.088 69.3627 16.9173 69.896 16.64C70.28 16.448 70.568 16.3307 70.76 16.288C70.9733 16.2453 71.2613 16.256 71.624 16.32C71.688 16.3413 71.7307 16.2987 71.752 16.192C71.7947 16.0853 71.8267 15.808 71.848 15.36C71.8693 14.592 71.8267 14.176 71.72 14.112C71.6347 14.048 71.176 14.1653 70.344 14.464C69.3627 14.8053 68.808 15.0187 68.68 15.104C68.552 15.1467 68.36 15.136 68.104 15.072C67.8693 15.008 67.6987 14.9227 67.592 14.816C67.336 14.5173 66.9413 14.2827 66.408 14.112C66.216 14.048 66.0667 13.92 65.96 13.728C65.8747 13.536 65.896 13.376 66.024 13.248C66.088 13.2053 66.1413 13.0773 66.184 12.864L66.632 11.392C66.9947 10.1547 67.208 8.85333 67.272 7.488C67.272 7.12533 67.2827 6.90133 67.304 6.816C67.3467 6.70933 67.4107 6.64533 67.496 6.624C67.624 6.624 67.88 6.72 68.264 6.912C68.6693 7.104 68.9787 7.28533 69.192 7.456C69.7253 7.904 69.864 9.024 69.608 10.816C69.5013 11.456 69.416 11.9147 69.352 12.192C69.288 12.4693 69.2773 12.6187 69.32 12.64C69.384 12.704 69.96 12.5227 71.048 12.096C71.2827 11.968 71.4 11.8613 71.4 11.776C71.4 11.6907 71.4853 11.6267 71.656 11.584C71.848 11.5413 71.9653 11.4773 72.008 11.392C72.0507 11.3067 72.1147 11.264 72.2 11.264C72.456 11.264 72.3387 11.008 71.848 10.496C71.592 10.2613 71.4427 10.1013 71.4 10.016C71.3573 9.93067 71.3467 9.792 71.368 9.6C71.4107 9.36533 71.4 9.20533 71.336 9.12C71.2933 9.01333 71.3147 8.64 71.4 8C71.5067 7.424 71.6027 6.72 71.688 5.888C71.7733 5.03467 71.7947 4.59733 71.752 4.576C71.7093 4.53333 71.5493 4.58667 71.272 4.736C70.4827 5.14133 69.8 5.344 69.224 5.344C68.9893 5.344 68.7227 5.30133 68.424 5.216C68.1467 5.10933 67.9547 5.06667 67.848 5.088C67.7413 5.10933 67.6027 5.056 67.432 4.928C67.2613 4.8 67.0053 4.64 66.664 4.448C66.5573 4.384 66.472 4.34133 66.408 4.32C66.344 4.29867 66.3013 4.26667 66.28 4.224C66.2587 4.18133 66.248 4.16 66.248 4.16C66.2693 4.13867 66.2907 4.11733 66.312 4.096C66.44 3.98933 66.6533 3.92533 66.952 3.904C67.3147 3.86133 67.9227 3.648 68.776 3.264C69.6293 2.85867 70.12 2.57067 70.248 2.4C70.3333 2.29333 70.472 2.24 70.664 2.24C71.1547 2.24 71.4 2.10133 71.4 1.824C71.4 1.73867 71.4107 1.68533 71.432 1.664C71.4533 1.64267 71.496 1.632 71.56 1.632C71.6453 1.67467 71.72 1.65333 71.784 1.568C71.8693 1.39733 72.2853 1.44 73.032 1.696C73.288 1.78133 73.5867 1.93067 73.928 2.144C74.2907 2.336 74.504 2.48533 74.568 2.592C74.6107 2.656 74.7173 2.74133 74.888 2.848L75.144 3.04L75.112 4.576L75.08 6.112H76.808C77.96 6.112 78.7707 6.176 79.24 6.304C79.7307 6.41067 80.0613 6.464 80.232 6.464C80.36 6.464 80.4987 6.4 80.648 6.272C80.8187 6.144 80.904 6.02667 80.904 5.92C80.904 5.87733 81.0853 5.57867 81.448 5.024C81.9173 4.36267 82.0773 4.032 81.928 4.032C81.8853 4.032 81.5867 4.13867 81.032 4.352C80.4773 4.56533 80.1467 4.672 80.04 4.672C79.9547 4.672 79.6667 4.59733 79.176 4.448L78.056 4.096C77.8213 4.032 77.672 3.97867 77.608 3.936C77.544 3.89333 77.3627 3.81867 77.064 3.712C76.7653 3.60533 76.616 3.47733 76.616 3.328C76.616 3.072 76.9147 2.92267 77.512 2.88C78.1733 2.816 79.2933 2.41067 80.872 1.664C81.1493 1.51467 81.416 1.408 81.672 1.344C82.376 1.10933 82.728 0.938665 82.728 0.831999C82.728 0.725332 82.8347 0.671999 83.048 0.671999C83.2827 0.671999 83.432 0.618666 83.496 0.511999ZM74.952 6.976C74.9093 6.976 74.8773 6.96533 74.856 6.944C74.856 6.90133 74.8453 6.86933 74.824 6.848C74.8027 6.72 74.7493 6.752 74.664 6.944C74.6 7.11467 74.5787 7.24267 74.6 7.328C74.6 7.73333 74.4507 8.39467 74.152 9.312C73.96 9.952 73.8427 10.3253 73.8 10.432C73.7573 10.5173 73.6827 10.56 73.576 10.56C73.4693 10.5387 73.4053 10.5493 73.384 10.592C73.3627 10.6347 73.352 10.6987 73.352 10.784C73.352 10.976 73.384 11.1573 73.448 11.328C73.512 11.4773 73.48 11.552 73.352 11.552C73.224 11.552 73.16 11.5307 73.16 11.488C73.16 11.424 73.128 11.392 73.064 11.392C73.0213 11.392 73 11.4347 73 11.52C73 11.6053 73.128 11.68 73.384 11.744C73.6187 11.7867 73.8853 11.8933 74.184 12.064C74.4827 12.2133 74.664 12.3307 74.728 12.416C74.8987 12.6933 75.1867 12.7147 75.592 12.48C75.8267 12.352 75.9653 12.288 76.008 12.288C76.0507 12.288 76.2427 12.1173 76.584 11.776C76.9253 11.4133 77.1813 11.1253 77.352 10.912C77.5013 10.6773 77.7573 10.3893 78.12 10.048C78.4827 9.68533 78.664 9.48267 78.664 9.44C78.664 9.376 78.7707 9.216 78.984 8.96C79.1973 8.68267 79.304 8.52267 79.304 8.48C79.304 8.43733 79.0907 8.36267 78.664 8.256C77.4053 7.95733 76.6053 7.66933 76.264 7.392C76.136 7.328 75.8907 7.24267 75.528 7.136C75.1867 7.008 74.9947 6.95467 74.952 6.976ZM85.576 9.152C85.6613 9.152 85.704 9.12 85.704 9.056C85.704 8.992 85.6613 8.96 85.576 8.96C85.4907 8.96 85.448 8.992 85.448 9.056C85.448 9.12 85.4907 9.152 85.576 9.152ZM80.52 9.28C80.584 9.23733 80.616 9.20533 80.616 9.184C80.616 9.16267 80.584 9.152 80.52 9.152C80.456 9.152 80.424 9.184 80.424 9.248C80.424 9.29067 80.456 9.30133 80.52 9.28ZM87.208 9.472C87.1227 9.36533 87.0373 9.33333 86.952 9.376C86.888 9.39733 86.824 9.36533 86.76 9.28C86.696 9.23733 86.6533 9.22667 86.632 9.248C86.632 9.248 86.6427 9.26933 86.664 9.312C86.7067 9.41867 86.792 9.472 86.92 9.472C87.048 9.45067 87.112 9.472 87.112 9.536C87.112 9.57867 87.144 9.6 87.208 9.6C87.2933 9.6 87.2933 9.55733 87.208 9.472ZM81.512 10.816C81.4693 10.432 81.416 10.24 81.352 10.24C81.288 10.24 81.2347 10.3147 81.192 10.464C81.0853 10.6347 80.936 10.7733 80.744 10.88C80.5733 10.944 80.4667 10.9973 80.424 11.04L80.552 11.008C80.7013 10.9653 80.7333 11.008 80.648 11.136C80.6267 11.1787 80.552 11.264 80.424 11.392C80.2533 11.5627 80.1253 11.6373 80.04 11.616C80.0187 11.5733 79.9973 11.552 79.976 11.552C79.976 11.552 79.9867 11.584 80.008 11.648C80.0293 11.6907 79.9973 11.7333 79.912 11.776C79.8267 11.7973 79.784 11.8507 79.784 11.936C79.784 12 79.72 12.1067 79.592 12.256C79.464 12.384 79.4533 12.4587 79.56 12.48C79.688 12.5013 80.0613 12.4053 80.68 12.192C81.32 11.9787 81.64 11.8293 81.64 11.744C81.64 11.68 81.672 11.6693 81.736 11.712C81.8 11.7333 81.832 11.7013 81.832 11.616C81.832 11.5093 81.7893 11.4347 81.704 11.392C81.6187 11.328 81.5547 11.136 81.512 10.816ZM74.856 15.904C74.984 15.904 75.048 15.872 75.048 15.808C75.048 15.744 75.0053 15.712 74.92 15.712C74.8347 15.712 74.7707 15.7547 74.728 15.84C74.6853 15.8613 74.6853 15.8827 74.728 15.904C74.7707 15.904 74.8133 15.904 74.856 15.904ZM110.44 2.368C110.355 2.24 110.376 2.15467 110.504 2.112C110.653 2.06933 110.877 2.08 111.176 2.144C111.496 2.18667 111.731 2.24 111.88 2.304C113.032 3.05067 113.629 3.456 113.672 3.52C113.715 3.584 113.832 3.66933 114.024 3.776C114.216 3.86133 114.419 4.02133 114.632 4.256L114.984 4.672L114.824 5.12C114.739 5.44 114.739 5.62133 114.824 5.664C114.909 5.70667 114.888 5.83467 114.76 6.048C114.653 6.24 114.621 6.73067 114.664 7.52C114.707 8.30933 114.749 8.704 114.792 8.704C114.856 8.704 115.165 8.576 115.72 8.32C116.296 8.04267 116.648 7.86133 116.776 7.776C116.947 7.648 117.171 7.57333 117.448 7.552C117.747 7.552 118.099 7.57333 118.504 7.616C118.909 7.63733 119.112 7.66933 119.112 7.712C119.112 7.81867 119.165 7.91467 119.272 8C119.379 8.064 119.496 8.07467 119.624 8.032C119.709 8.032 119.752 8.04267 119.752 8.064C119.603 8.14933 119.688 8.26667 120.008 8.416C120.115 8.48 120.2 8.512 120.264 8.512C120.371 8.512 120.435 8.53333 120.456 8.576C120.499 8.59733 120.52 8.68267 120.52 8.832C120.52 9.024 120.584 9.19467 120.712 9.344C120.84 9.49333 120.979 9.568 121.128 9.568C121.256 9.568 121.32 9.58933 121.32 9.632C121.32 9.696 121.213 9.78133 121 9.888C120.787 9.99467 120.627 10.048 120.52 10.048C120.456 10.048 120.083 10.1867 119.4 10.464C118.291 10.912 117.565 11.1787 117.224 11.264C116.883 11.328 116.456 11.3173 115.944 11.232C115.496 11.104 115.187 11.04 115.016 11.04C114.888 11.04 114.803 11.0613 114.76 11.104C114.739 11.1253 114.717 11.2107 114.696 11.36C114.632 11.552 114.611 11.8933 114.632 12.384C114.632 12.832 114.589 13.3653 114.504 13.984C114.44 14.6027 114.376 14.9333 114.312 14.976C114.248 15.0187 114.237 15.0613 114.28 15.104C114.323 15.1467 114.632 15.1147 115.208 15.008C115.784 14.88 116.136 14.784 116.264 14.72C116.413 14.6133 116.573 14.5813 116.744 14.624C116.936 14.6667 117.075 14.656 117.16 14.592C117.245 14.5493 117.405 14.5387 117.64 14.56C117.875 14.56 118.013 14.592 118.056 14.656C118.141 14.72 118.227 14.752 118.312 14.752C118.397 14.752 118.483 14.8267 118.568 14.976C118.675 15.104 118.824 15.1787 119.016 15.2C119.165 15.2213 119.347 15.3173 119.56 15.488C119.795 15.6587 119.912 15.7867 119.912 15.872C119.912 15.936 120.008 16.032 120.2 16.16C120.371 16.2453 120.531 16.4267 120.68 16.704C120.851 16.9813 120.936 17.216 120.936 17.408C120.936 17.5787 120.84 17.7813 120.648 18.016C120.477 18.2507 120.349 18.496 120.264 18.752C120.2 18.9867 120.125 19.1467 120.04 19.232C119.976 19.3387 119.869 19.5733 119.72 19.936C119.592 20.2773 119.517 20.5547 119.496 20.768C119.453 21.0027 119.347 21.3653 119.176 21.856C118.941 22.4747 118.92 22.784 119.112 22.784C119.176 22.784 119.272 22.8693 119.4 23.04C119.549 23.1893 119.603 23.296 119.56 23.36C119.539 23.4027 119.624 23.5093 119.816 23.68C120.029 23.8293 120.211 23.936 120.36 24C120.509 24.0427 120.584 24.1387 120.584 24.288C120.605 24.352 120.627 24.384 120.648 24.384C120.669 24.3627 120.733 24.3947 120.84 24.48C120.947 24.5867 120.979 24.704 120.936 24.832C120.872 24.9387 120.872 25.0667 120.936 25.216C121 25.3867 121.085 25.472 121.192 25.472C121.277 25.472 121.299 25.4933 121.256 25.536C121.235 25.5787 121.075 25.5573 120.776 25.472C120.499 25.408 120.339 25.376 120.296 25.376C120.253 25.376 120.168 25.3547 120.04 25.312C119.933 25.2693 119.027 25.2693 117.32 25.312C115.635 25.3547 114.536 25.4187 114.024 25.504C113.405 25.5893 112.861 25.632 112.392 25.632C111.923 25.632 111.635 25.6533 111.528 25.696C111.421 25.76 111.357 25.888 111.336 26.08C111.251 26.5067 111.187 26.72 111.144 26.72C111.123 26.7413 111.091 26.72 111.048 26.656C110.984 26.5707 110.739 26.368 110.312 26.048C109.885 25.7493 109.672 25.5787 109.672 25.536C109.672 25.5147 109.565 25.4613 109.352 25.376C109.16 25.312 109.064 25.2373 109.064 25.152C109.064 25.0667 109.021 25.0133 108.936 24.992C108.872 24.928 108.797 24.224 108.712 22.88C108.691 22.3467 108.637 21.9947 108.552 21.824C108.488 21.632 108.456 21.5147 108.456 21.472C108.477 21.4293 108.456 21.248 108.392 20.928C108.136 19.584 107.987 18.8907 107.944 18.848C107.923 18.8267 107.859 18.8693 107.752 18.976C107.645 19.0613 107.539 19.1787 107.432 19.328C107.325 19.4773 107.272 19.584 107.272 19.648C107.272 19.712 107.219 19.7973 107.112 19.904C107.027 19.9893 106.984 20.064 106.984 20.128C107.005 20.1707 106.952 20.3307 106.824 20.608C106.696 20.8853 106.547 21.1093 106.376 21.28C105.949 21.792 104.797 22.7307 102.92 24.096L101.64 25.056C101.277 25.3333 101.011 25.6 100.84 25.856C100.755 26.0693 100.68 26.1973 100.616 26.24C100.552 26.2827 100.445 26.304 100.296 26.304C100.083 26.304 99.912 26.2507 99.784 26.144C99.6773 26.0587 99.5707 26.016 99.464 26.016C99.3787 26.016 99.1547 25.856 98.792 25.536C98.4507 25.2373 98.1627 25.0667 97.928 25.024C97.6933 25.0027 97.4907 24.96 97.32 24.896C97.1707 24.8747 97.0747 24.8107 97.032 24.704C96.9893 24.5973 96.9573 24.3093 96.936 23.84C96.9147 23.6907 96.872 23.584 96.808 23.52C96.7013 23.4133 96.6587 23.3067 96.68 23.2C96.7013 23.0933 96.7653 23.04 96.872 23.04C96.9147 23.04 96.9467 23.04 96.968 23.04C97.0107 23.0187 97.032 22.9973 97.032 22.976C96.968 22.8907 96.9787 22.8587 97.064 22.88C97.128 22.88 97.2347 22.912 97.384 22.976C97.5333 23.04 97.6507 23.072 97.736 23.072C97.8213 23.0507 97.9813 22.9547 98.216 22.784C98.6 22.528 99.0587 22.1867 99.592 21.76C100.147 21.312 100.584 20.9813 100.904 20.768C101.203 20.5547 101.395 20.3947 101.48 20.288C101.587 20.16 101.683 19.9787 101.768 19.744C101.832 19.5733 101.853 19.4667 101.832 19.424C101.811 19.36 101.725 19.2533 101.576 19.104C101.363 18.8693 101.213 18.752 101.128 18.752C101.064 18.752 101.043 18.6987 101.064 18.592C101.107 18.464 101.096 18.4 101.032 18.4C100.989 18.4 100.968 18.3147 100.968 18.144C100.968 17.952 100.936 17.856 100.872 17.856C100.829 17.856 100.808 17.5467 100.808 16.928C100.829 16.3093 100.744 15.7227 100.552 15.168C100.381 14.6133 100.232 14.272 100.104 14.144C99.976 14.016 99.9333 13.888 99.976 13.76C100.019 13.6107 100.147 13.5573 100.36 13.6C100.637 13.664 100.957 13.792 101.32 13.984C101.704 14.1547 102.003 14.336 102.216 14.528C102.429 14.72 102.611 14.88 102.76 15.008C102.888 15.0933 103.016 15.264 103.144 15.52C103.293 15.7547 103.368 15.9253 103.368 16.032C103.368 16.16 103.4 16.2667 103.464 16.352C103.485 16.3947 103.581 16.2773 103.752 16C104.392 14.8267 104.893 13.5787 105.256 12.256C105.277 12.2347 105.288 12.2133 105.288 12.192C105.395 11.7867 105.405 11.4987 105.32 11.328C105.256 11.136 105.192 11.04 105.128 11.04C105.064 11.04 104.851 11.1893 104.488 11.488C103.656 12.064 103.101 12.352 102.824 12.352C102.675 12.352 102.461 12.3093 102.184 12.224C101.907 12.1173 101.683 12.0533 101.512 12.032C101.363 12.0107 101.171 11.936 100.936 11.808C100.723 11.6587 100.541 11.5733 100.392 11.552C100.243 11.5307 100.136 11.488 100.072 11.424C100.029 11.36 99.9547 11.328 99.848 11.328C99.7413 11.328 99.6453 11.2427 99.56 11.072C99.4747 10.9013 99.4107 10.7627 99.368 10.656C99.304 10.5493 99.272 10.432 99.272 10.304C99.2933 10.176 99.336 10.112 99.4 10.112C99.5067 10.112 99.56 10.08 99.56 10.016C99.56 9.952 99.688 9.93067 99.944 9.952C100.2 9.97333 100.381 9.93067 100.488 9.824C100.595 9.71733 100.68 9.664 100.744 9.664C100.829 9.664 100.872 9.64267 100.872 9.6C100.872 9.536 101.021 9.42933 101.32 9.28C101.619 9.13067 101.928 8.96 102.248 8.768L102.728 8.448L102.568 8.032C102.504 7.73333 102.408 7.49867 102.28 7.328C102.152 7.136 101.917 6.67733 101.576 5.952C101.299 5.44 101.149 5.12 101.128 4.992C101.107 4.84267 101.16 4.704 101.288 4.576C101.395 4.46933 101.501 4.34133 101.608 4.192C101.693 4.064 101.757 4 101.8 4C101.843 3.97867 101.939 4.01067 102.088 4.096C102.28 4.16 102.685 4.288 103.304 4.48C103.773 4.65067 104.093 4.81067 104.264 4.96C104.456 5.088 104.787 5.408 105.256 5.92C105.427 6.112 105.523 6.25067 105.544 6.336C105.565 6.42133 105.576 6.57067 105.576 6.784C105.555 6.95467 105.544 7.06133 105.544 7.104C105.565 7.12533 105.629 7.12533 105.736 7.104C105.885 7.06133 105.971 7.072 105.992 7.136C106.035 7.2 106.163 7.232 106.376 7.232C106.611 7.232 106.76 7.31733 106.824 7.488C106.888 7.63733 106.995 7.712 107.144 7.712C107.315 7.712 107.411 7.75467 107.432 7.84C107.453 7.92533 107.56 7.98933 107.752 8.032C107.88 8.07467 107.944 8.10667 107.944 8.128C107.965 8.128 107.944 8.17067 107.88 8.256C107.688 8.46933 107.688 8.608 107.88 8.672C107.965 8.736 107.987 8.832 107.944 8.96C107.923 9.088 107.976 9.17333 108.104 9.216C108.253 9.23733 108.189 9.35467 107.912 9.568C107.869 9.58933 107.827 9.61067 107.784 9.632C107.421 9.90933 107.059 10.144 106.696 10.336C106.355 10.5067 106.184 10.624 106.184 10.688C106.184 10.7307 106.301 10.8053 106.536 10.912C106.792 11.0187 107.101 11.264 107.464 11.648C107.827 12.0107 108.04 12.2773 108.104 12.448C108.211 12.9813 107.965 13.8773 107.368 15.136C106.984 15.8827 106.792 16.2773 106.792 16.32C106.792 16.3627 106.707 16.48 106.536 16.672C106.387 16.8427 106.333 16.9493 106.376 16.992C106.419 17.0133 106.515 16.96 106.664 16.832C106.835 16.6827 106.92 16.576 106.92 16.512C106.92 16.4267 106.995 16.2773 107.144 16.064C107.443 15.7227 107.848 15.6907 108.36 15.968C108.659 16.1387 108.957 16.224 109.256 16.224C109.555 16.224 110.067 16.1493 110.792 16C111.645 15.808 112.104 15.7013 112.168 15.68C112.189 15.6373 112.189 15.584 112.168 15.52C112.168 15.4347 112.125 15.328 112.04 15.2C111.976 15.072 111.912 14.9867 111.848 14.944C111.72 14.8373 111.656 14.4533 111.656 13.792C111.656 13.472 111.656 13.2053 111.656 12.992C111.656 12.544 111.731 11.6373 111.88 10.272C111.923 9.86667 111.933 9.07733 111.912 7.904C111.912 6.73067 111.891 6.03733 111.848 5.824C111.635 4.8 111.475 4.14933 111.368 3.872C111.261 3.57333 111.08 3.24267 110.824 2.88C110.632 2.60267 110.504 2.432 110.44 2.368ZM107.176 17.024C107.133 16.8747 107.069 16.8 106.984 16.8C106.92 16.8 106.899 16.8213 106.92 16.864C106.963 16.9067 106.941 17.0027 106.856 17.152C106.749 17.3227 106.717 17.4187 106.76 17.44C106.824 17.3973 106.888 17.408 106.952 17.472C107.08 17.5787 107.165 17.5147 107.208 17.28C107.208 17.1947 107.197 17.1093 107.176 17.024ZM116.648 18.688C116.691 18.3893 116.733 18.2187 116.776 18.176C116.819 18.112 116.819 18.0053 116.776 17.856C116.733 17.7067 116.616 17.6427 116.424 17.664C116.253 17.6853 115.624 17.8347 114.536 18.112C113.619 18.3253 112.787 18.4427 112.04 18.464C111.741 18.464 111.517 18.464 111.368 18.464C111.24 18.464 111.133 18.4853 111.048 18.528C110.963 18.5493 110.909 18.5707 110.888 18.592C110.867 18.592 110.867 18.6133 110.888 18.656C110.888 18.7627 110.941 19.1893 111.048 19.936C111.24 21.5147 111.379 22.3467 111.464 22.432C111.528 22.496 112.029 22.4427 112.968 22.272C113.907 22.1013 114.643 21.9947 115.176 21.952C115.731 21.9093 116.019 21.8773 116.04 21.856C116.061 21.8133 116.093 21.632 116.136 21.312C116.179 20.992 116.264 20.544 116.392 19.968C116.52 19.392 116.605 18.9653 116.648 18.688ZM107.688 17.952C107.645 17.8667 107.581 17.8347 107.496 17.856C107.475 17.856 107.464 17.8773 107.464 17.92C107.464 17.9627 107.507 18.0053 107.592 18.048C107.677 18.0907 107.709 18.0587 107.688 17.952ZM107.176 18.592C107.24 18.592 107.272 18.528 107.272 18.4C107.272 18.272 107.24 18.208 107.176 18.208C107.133 18.208 107.112 18.272 107.112 18.4C107.112 18.528 107.133 18.592 107.176 18.592ZM107.784 18.624C107.912 18.5173 107.944 18.4427 107.88 18.4C107.816 18.3573 107.731 18.3893 107.624 18.496C107.496 18.6667 107.496 18.752 107.624 18.752C107.667 18.752 107.72 18.7093 107.784 18.624Z" fill="black"/>
</svg>
