<svg width="120" height="29" viewBox="0 0 120 29" fill="none" xmlns="http://www.w3.org/2000/svg">
<path d="M10.176 0.927999C10.176 0.842666 10.1867 0.799999 10.208 0.799999C10.2293 0.778666 10.3147 0.778666 10.464 0.799999C10.8907 0.863998 11.104 0.970665 11.104 1.12C11.104 1.16267 11.1893 1.184 11.36 1.184C11.5307 1.184 11.68 1.25867 11.808 1.408C11.9573 1.55733 12.1707 1.73867 12.448 1.952C12.7253 2.144 12.864 2.29333 12.864 2.4C12.864 2.48533 12.9173 2.57067 13.024 2.656C13.152 2.74133 13.216 2.82667 13.216 2.912C13.216 2.99733 13.2587 3.04 13.344 3.04C13.4293 3.04 13.504 3.104 13.568 3.232C13.6747 3.552 13.7493 4.064 13.792 4.768C13.856 5.472 13.8453 5.87733 13.76 5.984C13.696 6.06933 13.696 6.15467 13.76 6.24C13.8453 6.32533 13.8133 6.464 13.664 6.656C13.4293 6.93333 13.376 7.072 13.504 7.072C13.632 7.072 13.9093 7.04 14.336 6.976C14.72 6.86933 14.912 6.77333 14.912 6.688C14.912 6.60267 14.944 6.56 15.008 6.56C15.072 6.56 15.0827 6.53867 15.04 6.496C14.9973 6.41067 15.0613 6.38933 15.232 6.432C15.2747 6.432 15.3067 6.432 15.328 6.432C15.5627 6.45333 15.7227 6.368 15.808 6.176C15.872 6.048 15.936 5.984 16 5.984C16.064 5.96267 16.2133 5.96267 16.448 5.984C16.6827 6.00533 16.8213 6.016 16.864 6.016C16.9067 5.99467 16.928 5.94133 16.928 5.856C16.9067 5.792 16.9173 5.74933 16.96 5.728C17.0027 5.70667 17.0987 5.70667 17.248 5.728C17.9947 5.74933 18.432 5.81333 18.56 5.92C18.624 5.984 18.6987 6.016 18.784 6.016C18.8267 6.016 19.1787 6.34667 19.84 7.008C20.5013 7.648 20.928 8.08533 21.12 8.32C21.312 8.55467 21.408 8.768 21.408 8.96C21.408 9.152 21.44 9.26933 21.504 9.312C21.568 9.376 21.5893 9.42933 21.568 9.472C21.568 9.51467 21.536 9.536 21.472 9.536C21.3653 9.536 21.2267 9.57867 21.056 9.664C20.8853 9.74933 20.7573 9.77067 20.672 9.728C20.608 9.664 20.4907 9.65333 20.32 9.696L19.36 9.888C18.336 10.08 17.5147 10.336 16.896 10.656C16.7253 10.72 16.5653 10.7413 16.416 10.72C16.2667 10.6773 16.192 10.6987 16.192 10.784C16.192 10.8693 16.064 10.976 15.808 11.104L14.944 11.456C14.624 11.584 14.24 11.744 13.792 11.936C13.3653 12.1067 13.152 12.2133 13.152 12.256C13.152 12.2987 13.2267 12.3413 13.376 12.384C13.568 12.4267 13.792 12.5547 14.048 12.768C14.304 12.9813 14.4747 13.1627 14.56 13.312C14.624 13.504 14.656 14.048 14.656 14.944C14.656 15.9893 14.5707 16.832 14.4 17.472L14.176 18.208C14.1547 18.3573 14.1227 18.4853 14.08 18.592C13.8453 19.104 13.76 19.4027 13.824 19.488C13.8667 19.5093 14.0907 19.6053 14.496 19.776C16.4587 20.5653 18.0267 21.248 19.2 21.824C20.1813 22.3147 20.704 22.56 20.768 22.56C20.832 22.56 20.9813 22.6667 21.216 22.88L21.952 23.456C22.208 23.6693 22.336 23.808 22.336 23.872C22.336 23.936 22.4107 24.0533 22.56 24.224C22.7307 24.3947 22.8373 24.4693 22.88 24.448C22.9227 24.4267 22.9653 24.448 23.008 24.512C23.0507 24.576 23.0827 24.6507 23.104 24.736C23.1253 24.8213 23.1147 24.8747 23.072 24.896C23.0293 24.96 23.0613 25.152 23.168 25.472C23.2747 25.792 23.3813 26.24 23.488 26.816C23.5733 27.2213 23.616 27.4667 23.616 27.552C23.616 27.6587 23.5627 27.776 23.456 27.904C23.3707 28.0107 23.3067 28.064 23.264 28.064C23.2427 28.0853 23.2107 28.064 23.168 28C23.0613 27.872 22.8907 27.808 22.656 27.808C22.4213 27.808 22.2827 27.7653 22.24 27.68C22.2187 27.616 22.144 27.584 22.016 27.584C21.888 27.584 21.792 27.5093 21.728 27.36C21.6853 27.232 21.568 27.1147 21.376 27.008C21.184 26.9227 21.0347 26.8267 20.928 26.72C20.7787 26.592 20.6187 26.5387 20.448 26.56C20.4053 26.56 20.3733 26.5387 20.352 26.496C20.3307 26.4747 20.32 26.4427 20.32 26.4C20.2773 26.2507 20.1387 26.0907 19.904 25.92C19.6693 25.7707 19.4773 25.6853 19.328 25.664C19.2 25.664 18.9013 25.5147 18.432 25.216C17.984 24.9173 17.728 24.7253 17.664 24.64C17.6213 24.5547 17.504 24.4587 17.312 24.352C17.12 24.2667 16.992 24.2453 16.928 24.288C16.8853 24.3307 16.5547 24.2027 15.936 23.904C15.3387 23.584 14.816 23.3493 14.368 23.2C13.92 23.0293 13.6427 22.912 13.536 22.848C13.4293 22.784 13.1733 22.688 12.768 22.56L12.192 22.4L11.904 22.56C11.6693 22.7093 11.5733 22.8267 11.616 22.912C11.6373 22.9547 11.5947 23.0293 11.488 23.136C11.4027 23.2427 11.3173 23.296 11.232 23.296C11.168 23.296 11.104 23.3707 11.04 23.52C10.976 23.648 10.88 23.7227 10.752 23.744C10.624 23.7653 10.464 23.8507 10.272 24C10.1013 24.1493 9.99467 24.224 9.952 24.224C9.93067 24.224 9.824 24.2987 9.632 24.448C9.44 24.6187 9.19467 24.7787 8.896 24.928C8.61867 25.0987 8.48 25.216 8.48 25.28C8.48 25.344 8.42667 25.3547 8.32 25.312C8.21333 25.2693 8.13867 25.3013 8.096 25.408C8.05333 25.536 7.936 25.6 7.744 25.6C7.552 25.6213 7.41333 25.664 7.328 25.728C7.264 25.792 7.25333 25.824 7.296 25.824L6.56 26.432C6.432 26.5173 6.31467 26.6027 6.208 26.688C5.952 26.8373 5.73867 26.912 5.568 26.912C5.41867 26.912 5.30133 26.9653 5.216 27.072C5.06667 27.1573 4.97067 27.1893 4.928 27.168C4.88533 27.168 4.864 27.104 4.864 26.976C4.864 26.72 4.77867 26.6773 4.608 26.848C4.52267 26.9333 4.43733 26.9227 4.352 26.816C4.288 26.7093 4.21333 26.656 4.128 26.656C4.04267 26.656 3.92533 26.592 3.776 26.464C3.648 26.3573 3.54133 26.304 3.456 26.304C3.392 26.304 3.36 26.2187 3.36 26.048C3.36 25.8987 3.30667 25.824 3.2 25.824C3.11467 25.8453 3.008 25.8453 2.88 25.824C2.752 25.824 2.74133 25.7707 2.848 25.664C2.848 25.6427 2.86933 25.6213 2.912 25.6C3.06133 25.4293 3.37067 25.184 3.84 24.864C4.30933 24.544 4.61867 24.3093 4.768 24.16C4.93867 24.0107 5.10933 23.8827 5.28 23.776C5.472 23.6907 5.84533 23.392 6.4 22.88C6.656 22.6667 6.80533 22.56 6.848 22.56C6.912 22.56 7.02933 22.4747 7.2 22.304C7.73333 21.7707 8.10667 21.4613 8.32 21.376C8.46933 21.312 8.39467 21.2373 8.096 21.152C8.032 21.1093 7.95733 21.088 7.872 21.088C7.53067 21.0027 7.04 20.864 6.4 20.672C5.78133 20.4587 5.344 20.3307 5.088 20.288C4.93867 20.2667 4.768 20.224 4.576 20.16C4.40533 20.0747 4.256 20 4.128 19.936C4 19.8507 3.95733 19.7973 4 19.776C4.02133 19.712 3.98933 19.68 3.904 19.68C3.84 19.68 3.81867 19.6373 3.84 19.552C3.88267 19.4667 3.808 19.392 3.616 19.328C3.44533 19.264 3.37067 19.1573 3.392 19.008C3.41333 18.8587 3.60533 18.7413 3.968 18.656C4.33067 18.5707 5.03467 18.5067 6.08 18.464C6.93333 18.4 7.712 18.3893 8.416 18.432C9.14133 18.4533 9.504 18.496 9.504 18.56C9.504 18.6027 9.44 18.6133 9.312 18.592C9.20533 18.5707 9.152 18.5813 9.152 18.624C9.152 18.7093 9.216 18.7627 9.344 18.784C9.472 18.8267 9.61067 18.8587 9.76 18.88C9.90933 18.88 10.0267 18.88 10.112 18.88C10.1973 18.8587 10.24 18.8267 10.24 18.784C10.24 18.72 10.304 18.6773 10.432 18.656C10.56 18.6133 10.6347 18.5387 10.656 18.432C10.6987 18.304 10.912 17.856 11.296 17.088C11.7653 16.1067 12.0747 15.3387 12.224 14.784C12.3307 14.3573 12.384 13.9413 12.384 13.536C12.384 13.1307 12.3307 12.8853 12.224 12.8C12.1387 12.7147 11.5307 12.96 10.4 13.536C9.29067 14.112 8.704 14.4 8.64 14.4C8.59733 14.3787 8.42667 14.464 8.128 14.656C7.85067 14.8267 7.63733 14.944 7.488 15.008C7.33867 15.0507 7.2 15.1253 7.072 15.232C6.944 15.3387 6.816 15.392 6.688 15.392C6.56 15.392 6.38933 15.4773 6.176 15.648C5.96267 15.7973 5.792 15.872 5.664 15.872C5.536 15.872 5.39733 15.9253 5.248 16.032C5.12 16.1173 5.024 16.1493 4.96 16.128C4.896 16.0853 4.81067 16.1067 4.704 16.192C4.61867 16.256 4.58667 16.32 4.608 16.384C4.62933 16.448 4.56533 16.5653 4.416 16.736L4.192 16.96V16.672C4.192 16.5013 4.14933 16.4373 4.064 16.48C3.97867 16.5227 3.808 16.48 3.552 16.352C3.296 16.2027 3.12533 16.1493 3.04 16.192C2.976 16.2133 2.90133 16.128 2.816 15.936C2.752 15.808 2.66667 15.712 2.56 15.648C2.47467 15.584 2.41067 15.5947 2.368 15.68C2.34667 15.7227 2.29333 15.712 2.208 15.648C2.12267 15.584 2.03733 15.4987 1.952 15.392C1.86667 15.264 1.792 15.1573 1.728 15.072C1.70667 14.9227 1.62133 14.848 1.472 14.848C1.42933 14.848 1.39733 14.8373 1.376 14.816C1.35467 14.7947 1.344 14.7627 1.344 14.72C1.36533 14.6773 1.344 14.6347 1.28 14.592C1.23733 14.5493 1.17333 14.496 1.088 14.432C0.938667 14.368 0.853334 14.3147 0.832 14.272C0.810667 14.208 0.810667 14.1227 0.832 14.016C0.832 13.824 0.8 13.728 0.736 13.728C0.672 13.792 0.597334 13.792 0.512 13.728C0.448 13.664 0.416 13.5787 0.416 13.472C0.416 13.408 0.490667 13.312 0.64 13.184C0.789334 13.0347 1.00267 12.9707 1.28 12.992C1.55733 12.992 1.728 12.9493 1.792 12.864C1.87733 12.7573 2.048 12.6933 2.304 12.672C2.64533 12.6293 3.25333 12.3947 4.128 11.968C4.59733 11.776 4.992 11.6267 5.312 11.52C5.632 11.392 5.86667 11.264 6.016 11.136C6.18667 11.008 6.32533 10.944 6.432 10.944C6.56 10.944 6.624 10.9227 6.624 10.88C6.624 10.816 6.72 10.7307 6.912 10.624C7.104 10.5173 7.2 10.496 7.2 10.56C7.2 10.6027 7.264 10.5493 7.392 10.4C7.54133 10.2507 7.648 10.1973 7.712 10.24C7.776 10.2613 7.81867 10.24 7.84 10.176C7.904 10.0907 8.288 9.87733 8.992 9.536C9.312 9.38667 9.504 9.28 9.568 9.216C9.65333 9.152 9.73867 9.12 9.824 9.12C9.90933 9.12 10.0373 9.04533 10.208 8.896C10.4 8.74667 10.624 8.62933 10.88 8.544C11.136 8.45867 11.264 8.39467 11.264 8.352C11.264 8.288 11.3173 8.256 11.424 8.256C11.616 8.256 11.5413 8.064 11.2 7.68C10.7307 7.18933 10.5173 6.93333 10.56 6.912C10.6027 6.848 10.5813 6.688 10.496 6.432C10.4107 6.15467 10.3893 5.71733 10.432 5.12C10.496 4.52267 10.56 4.17067 10.624 4.064C10.688 3.936 10.7093 3.76533 10.688 3.552C10.5387 2.25067 10.4107 1.51467 10.304 1.344C10.2187 1.216 10.176 1.07733 10.176 0.927999ZM46.784 9.92C46.8907 9.89867 46.944 9.89867 46.944 9.92C46.88 9.984 46.8053 10.016 46.72 10.016C46.656 10.016 46.6773 9.984 46.784 9.92ZM49.408 8.576C49.408 8.36267 49.6533 8.40533 50.144 8.704C50.4 8.87467 50.6773 9.03467 50.976 9.184C51.2747 9.33333 51.5093 9.51467 51.68 9.728C51.872 9.92 51.968 10.1013 51.968 10.272C51.968 10.4427 51.9253 10.6453 51.84 10.88C51.6693 11.2213 51.2747 11.7227 50.656 12.384C50.0587 13.0453 49.6747 13.376 49.504 13.376C49.44 13.376 49.3333 13.472 49.184 13.664C49.056 13.8347 48.9387 13.92 48.832 13.92C48.7253 13.92 48.5013 14.048 48.16 14.304C47.84 14.5387 47.648 14.656 47.584 14.656C47.5413 14.656 47.3813 14.752 47.104 14.944C46.8267 15.1147 46.5707 15.264 46.336 15.392C45.9947 15.584 45.792 15.744 45.728 15.872C45.664 15.9787 45.632 16.2453 45.632 16.672C45.632 17.76 45.6427 18.4107 45.664 18.624C45.7067 18.816 45.7493 18.912 45.792 18.912C45.984 18.912 46.4747 18.6453 47.264 18.112L47.904 17.632C48.1173 17.4827 48.5867 17.0453 49.312 16.32C50.0373 15.5733 50.5493 15.0293 50.848 14.688C51.2107 14.2187 51.456 13.8987 51.584 13.728C51.712 13.5573 51.776 13.408 51.776 13.28C51.776 13.216 51.8507 13.056 52 12.8C52.1493 12.544 52.256 12.416 52.32 12.416C52.3413 12.416 52.448 12.512 52.64 12.704C52.832 12.896 53.0773 13.0667 53.376 13.216C53.7173 13.3653 54.0373 13.6213 54.336 13.984C54.6773 14.3893 54.6987 14.8053 54.4 15.232C54.2507 15.4453 54.1547 15.5627 54.112 15.584C54.0693 15.6053 54.048 15.6693 54.048 15.776C54.048 15.8827 53.984 15.9893 53.856 16.096C53.728 16.1813 53.664 16.256 53.664 16.32C53.6853 16.4693 53.5893 16.5973 53.376 16.704C53.2053 16.832 53.12 16.9493 53.12 17.056C53.0987 17.0987 53.0773 17.12 53.056 17.12C53.0133 17.0987 52.8747 17.1947 52.64 17.408C52.0213 17.984 51.584 18.3467 51.328 18.496C51.136 18.56 51.04 18.6347 51.04 18.72C51.04 18.7627 50.944 18.8587 50.752 19.008C50.56 19.1573 50.4107 19.232 50.304 19.232C50.2613 19.232 50.1973 19.296 50.112 19.424C50.048 19.5307 50.016 19.648 50.016 19.776C50.016 19.9467 50.4 20.1387 51.168 20.352C51.488 20.48 51.7227 20.5653 51.872 20.608C52.576 20.9067 52.9707 21.056 53.056 21.056C53.12 21.056 53.2693 21.12 53.504 21.248C53.76 21.376 53.9093 21.44 53.952 21.44C54.016 21.44 54.304 21.568 54.816 21.824C55.3493 22.08 55.616 22.2507 55.616 22.336C55.616 22.4213 55.616 22.464 55.616 22.464C55.6373 22.464 55.6907 22.4213 55.776 22.336C55.8827 22.2507 55.9893 22.2613 56.096 22.368C56.2027 22.4533 56.2987 22.6027 56.384 22.816C56.4907 23.0293 56.5867 23.1573 56.672 23.2C56.7787 23.2213 56.9067 23.3707 57.056 23.648C57.2267 23.9253 57.4293 24.2133 57.664 24.512C57.8133 24.6827 57.9733 24.9173 58.144 25.216C58.3147 25.5147 58.4 25.696 58.4 25.76C58.4 25.7813 58.3467 25.792 58.24 25.792C58.112 25.792 58.048 25.8027 58.048 25.824C58.048 25.8667 58.0693 25.9733 58.112 26.144C58.176 26.272 58.176 26.3573 58.112 26.4C58.0693 26.464 57.9947 26.464 57.888 26.4C57.824 26.3147 57.3547 26.048 56.48 25.6C54.4533 24.5547 52.1707 23.5947 49.632 22.72C49.248 22.592 49.0133 22.496 48.928 22.432C48.864 22.368 48.7573 22.3787 48.608 22.464C48.4587 22.528 48.384 22.6133 48.384 22.72C48.384 22.784 48.352 22.816 48.288 22.816C48.2453 22.816 48.1813 22.8907 48.096 23.04C48.032 23.1893 48 23.2853 48 23.328C48 23.392 48.096 23.36 48.288 23.232L48.448 23.2C48.4267 23.2427 48.2987 23.4027 48.064 23.68C47.7013 24.0853 47.4987 24.3627 47.456 24.512C47.392 24.6187 47.3173 24.736 47.232 24.864C47.1467 24.992 47.0613 25.0987 46.976 25.184C46.8907 25.2907 46.848 25.3227 46.848 25.28C46.8267 25.2587 46.7627 25.2907 46.656 25.376C46.5493 25.4613 46.4427 25.568 46.336 25.696C46.2293 25.8453 46.144 25.984 46.08 26.112C45.9947 26.3467 45.888 26.4533 45.76 26.432C45.6533 26.4107 45.6 26.432 45.6 26.496C45.6 26.5813 45.376 26.8267 44.928 27.232C44.5013 27.6587 44.2453 27.872 44.16 27.872C44.1173 27.872 44.096 27.904 44.096 27.968C44.096 28.0747 44.0427 28.1707 43.936 28.256C43.8293 28.3413 43.7227 28.3733 43.616 28.352C43.424 28.3093 43.296 28.0747 43.232 27.648C43.232 27.52 43.136 27.4347 42.944 27.392C42.7733 27.3493 42.6773 27.36 42.656 27.424L42.56 27.136C42.5173 26.88 42.432 26.7307 42.304 26.688C42.176 26.6453 42.1333 26.5387 42.176 26.368C42.1973 26.1973 42.1973 26.112 42.176 26.112C42.1547 26.112 42.0693 26.1653 41.92 26.272L41.76 26.496L41.824 26.176C41.8453 25.9627 41.792 25.824 41.664 25.76C41.3013 25.6533 41.2693 25.3867 41.568 24.96C41.7173 24.7467 41.792 24.5653 41.792 24.416C41.792 24.288 41.8773 24.1813 42.048 24.096C42.2187 24.0107 42.336 23.904 42.4 23.776C42.4853 23.6267 42.5813 23.2213 42.688 22.56C42.816 21.8773 42.8907 21.3333 42.912 20.928C42.9333 20.3733 42.9653 20.064 43.008 20C43.072 19.936 43.104 19.7653 43.104 19.488C43.1253 19.2107 43.1787 18.7627 43.264 18.144C43.4347 16.5867 43.4347 15.744 43.264 15.616C43.1787 15.5947 43.1573 15.5413 43.2 15.456C43.2427 15.3707 43.2 15.2853 43.072 15.2C42.944 15.1147 42.88 15.04 42.88 14.976C42.88 14.912 42.7627 14.784 42.528 14.592C42.1227 14.272 42.0373 14.112 42.272 14.112C42.3573 14.112 42.3893 14.0587 42.368 13.952C42.3467 13.9093 42.368 13.8773 42.432 13.856C42.816 13.728 43.2 13.7493 43.584 13.92C43.6053 13.9413 43.6267 13.952 43.648 13.952C43.7973 14.0587 43.968 14.0587 44.16 13.952C45.056 13.504 46.4427 12.2987 48.32 10.336C48.7893 9.888 49.088 9.568 49.216 9.376C49.344 9.184 49.3653 9.024 49.28 8.896C49.216 8.768 49.216 8.704 49.28 8.704C49.3653 8.704 49.408 8.66133 49.408 8.576ZM46.208 21.376C45.76 21.248 45.5253 21.184 45.504 21.184C45.4827 21.184 45.408 21.5147 45.28 22.176C45.152 22.8373 45.088 23.2427 45.088 23.392C45.088 23.52 45.472 23.2747 46.24 22.656C46.56 22.3787 46.72 22.2613 46.72 22.304C46.6987 22.4107 46.7093 22.464 46.752 22.464C46.7733 22.464 46.8373 22.4213 46.944 22.336C47.0507 22.2507 47.1467 22.1653 47.232 22.08C47.3173 21.9733 47.3493 21.8987 47.328 21.856C47.2213 21.7707 46.848 21.6107 46.208 21.376ZM35.168 1.504C35.168 1.48267 35.1893 1.48267 35.232 1.504C35.2747 1.504 35.3387 1.51467 35.424 1.536C35.5093 1.55733 35.6053 1.57867 35.712 1.6C36.096 1.68533 36.5013 1.81333 36.928 1.984C37.376 2.13333 37.6 2.24 37.6 2.304C37.6 2.34667 37.664 2.38933 37.792 2.432C38.176 2.51733 38.5387 2.90133 38.88 3.584C39.008 3.86133 39.0827 4.08533 39.104 4.256C39.1253 4.42667 39.1253 4.85333 39.104 5.536C39.104 6.47467 39.136 6.944 39.2 6.944C39.2853 6.944 39.488 7.01867 39.808 7.168C40.1493 7.31733 40.3627 7.41333 40.448 7.456C40.5547 7.49867 40.6933 7.57333 40.864 7.68C41.056 7.78667 41.1413 7.95733 41.12 8.192C41.12 8.40533 41.1947 8.53333 41.344 8.576C41.5787 8.64 41.5893 8.72533 41.376 8.832C41.2693 8.85333 41.152 8.88533 41.024 8.928C40.768 8.94933 40.544 9.056 40.352 9.248C40.1813 9.44 40 9.55733 39.808 9.6C39.6373 9.64267 39.4453 9.76 39.232 9.952C39.04 10.1227 38.9227 10.208 38.88 10.208C38.8373 10.208 38.816 10.2507 38.816 10.336C38.816 10.4213 38.7627 10.4747 38.656 10.496C38.6133 10.496 38.5707 10.4853 38.528 10.464L38.592 10.4C38.5067 10.4 38.4 10.4533 38.272 10.56C38.1653 10.688 38.0693 10.752 37.984 10.752C37.92 10.752 37.856 10.976 37.792 11.424C37.7493 11.8933 37.632 12.6187 37.44 13.6C37.4187 13.664 37.408 13.696 37.408 13.696C37.4293 13.696 37.4933 13.664 37.6 13.6C37.6853 13.4933 37.7707 13.44 37.856 13.44C37.9627 13.44 38.1013 13.408 38.272 13.344C38.4427 13.2587 38.656 13.2907 38.912 13.44C39.1893 13.568 39.4987 13.6427 39.84 13.664C40.4373 13.728 40.8427 13.8987 41.056 14.176C41.2907 14.4533 41.4187 14.9653 41.44 15.712C41.4613 16.3307 41.4187 17.056 41.312 17.888C41.056 19.552 40.8213 20.6613 40.608 21.216C40.5227 21.408 40.4907 21.536 40.512 21.6C40.5547 21.664 40.544 21.7173 40.48 21.76C40.416 21.8027 40.384 21.8987 40.384 22.048C40.384 22.176 40.2987 22.4 40.128 22.72C39.9787 23.04 39.8827 23.3173 39.84 23.552C39.8187 23.7653 39.776 23.872 39.712 23.872C39.6693 23.872 39.6053 23.9573 39.52 24.128C39.456 24.32 39.3813 24.4267 39.296 24.448C39.2107 24.4693 39.1787 24.5227 39.2 24.608C39.2427 24.7147 39.232 24.768 39.168 24.768C39.1467 24.768 39.1253 24.768 39.104 24.768C39.104 24.7893 39.104 24.8213 39.104 24.864C39.104 24.9067 39.0293 25.0027 38.88 25.152C38.7307 25.3227 38.592 25.4293 38.464 25.472C38.3787 25.4933 38.3467 25.536 38.368 25.6C38.4107 25.6853 38.3893 25.7707 38.304 25.856C38.2187 25.9627 38.144 26.1013 38.08 26.272C37.9947 26.4213 37.856 26.5707 37.664 26.72C37.4933 26.8693 37.3867 26.9227 37.344 26.88C37.344 26.88 37.3227 26.8907 37.28 26.912C37.2373 26.9333 37.1947 26.9653 37.152 27.008C37.1307 27.072 37.0987 27.1253 37.056 27.168L36.864 27.552L36.768 27.168C36.7467 26.9547 36.672 26.784 36.544 26.656C36.4373 26.5493 36.384 26.4427 36.384 26.336C36.384 26.2293 36.3413 26.144 36.256 26.08C36.0213 25.8453 35.904 25.6 35.904 25.344C35.904 25.1947 35.8613 25.0773 35.776 24.992C35.712 24.928 35.6587 24.6613 35.616 24.192C35.5733 23.744 35.5093 23.1787 35.424 22.496C35.3173 21.9413 35.264 21.408 35.264 20.896C35.2853 20.3627 35.3387 20.0853 35.424 20.064C35.4453 20.064 35.4667 20.096 35.488 20.16C35.5093 20.224 35.5413 20.3093 35.584 20.416C35.6267 20.5227 35.6587 20.6613 35.68 20.832C35.8507 21.7707 36.032 22.336 36.224 22.528C36.3947 22.656 36.48 22.7627 36.48 22.848C36.48 22.912 36.512 22.9227 36.576 22.88C36.64 22.8373 36.672 22.7627 36.672 22.656C36.672 22.5493 36.7573 22.4107 36.928 22.24C37.056 22.0907 37.2373 21.728 37.472 21.152C37.728 20.576 37.856 20.2027 37.856 20.032C37.856 19.8827 37.92 19.6053 38.048 19.2C38.176 18.7947 38.2187 18.528 38.176 18.4C38.1547 18.2507 38.176 18.0693 38.24 17.856C38.304 17.6213 38.3787 17.2053 38.464 16.608C38.5493 16.1387 38.5707 15.84 38.528 15.712C38.4853 15.5627 38.3787 15.488 38.208 15.488C38.0587 15.488 37.8667 15.4453 37.632 15.36C37.376 15.2533 37.2053 15.2107 37.12 15.232C37.056 15.232 37.0027 15.3067 36.96 15.456C36.9173 15.6053 36.8213 15.8293 36.672 16.128C36.544 16.4267 36.4267 16.736 36.32 17.056C36.2133 17.3547 36.0533 17.664 35.84 17.984C35.648 18.2827 35.5307 18.5067 35.488 18.656C35.4453 18.784 35.3173 19.0507 35.104 19.456C34.8907 19.8613 34.752 20.1067 34.688 20.192C34.624 20.256 34.592 20.3413 34.592 20.448C34.592 20.5333 34.5493 20.6187 34.464 20.704C34.3787 20.768 34.3253 20.864 34.304 20.992C34.2187 21.376 33.984 21.8987 33.6 22.56C33.216 23.2427 32.8747 23.68 32.576 23.872C32.512 23.9147 32.4587 23.9147 32.416 23.872C32.3733 23.8293 32.3413 23.7333 32.32 23.584C32.2773 23.3493 32.192 23.2213 32.064 23.2C31.9573 23.1573 31.8827 23.04 31.84 22.848C31.8187 22.656 31.744 22.5173 31.616 22.432C31.5093 22.3467 31.456 22.1867 31.456 21.952C31.4773 21.7173 31.4453 21.5787 31.36 21.536C31.2747 21.4933 31.2747 21.3227 31.36 21.024C31.4667 20.704 31.5947 20.4693 31.744 20.32C31.9147 20.1493 32.0427 19.9467 32.128 19.712C32.4053 19.1147 33.0133 17.76 33.952 15.648C34.5493 14.2827 34.752 13.6 34.56 13.6C34.496 13.5787 34.3467 13.664 34.112 13.856C33.856 14.0693 33.6853 14.176 33.6 14.176C33.5147 14.176 33.376 14.24 33.184 14.368C33.0347 14.4533 32.9173 14.496 32.832 14.496C32.7467 14.4747 32.5333 14.4107 32.192 14.304C31.744 14.112 31.4027 13.92 31.168 13.728C30.9333 13.536 30.784 13.44 30.72 13.44C30.656 13.44 30.592 13.3867 30.528 13.28C30.336 13.024 30.0907 12.896 29.792 12.896C29.664 12.896 29.6 12.7787 29.6 12.544C29.6 12.4373 29.6107 12.3627 29.632 12.32C29.6747 12.256 29.7493 12.224 29.856 12.224C29.984 12.224 30.336 12.0853 30.912 11.808C31.5093 11.5093 31.9573 11.232 32.256 10.976C32.5547 10.7627 32.7467 10.656 32.832 10.656C32.9387 10.656 33.0453 10.592 33.152 10.464C33.28 10.336 33.376 10.272 33.44 10.272C33.4827 10.272 33.6427 10.176 33.92 9.984C34.1973 9.792 34.3573 9.65333 34.4 9.568C34.4427 9.504 34.5067 9.472 34.592 9.472C34.6773 9.472 34.72 9.44 34.72 9.376C34.72 9.312 34.9227 9.184 35.328 8.992C35.7333 8.77867 35.968 8.61867 36.032 8.512C36.096 8.384 36.1813 8.32 36.288 8.32C36.3947 8.32 36.4587 8.27733 36.48 8.192C36.5227 8.08533 36.576 8.064 36.64 8.128C36.704 8.17067 36.7787 8.14933 36.864 8.064C36.9707 7.97867 37.024 7.88267 37.024 7.776C37.024 7.66933 36.9173 7.52 36.704 7.328C36.5547 7.17867 36.4693 7.06133 36.448 6.976C36.4267 6.89067 36.416 6.72 36.416 6.464C36.4373 6.05867 36.448 5.80267 36.448 5.696C36.4693 5.568 36.512 5.55733 36.576 5.664C36.64 5.74933 36.672 5.71733 36.672 5.568C36.6507 5.46133 36.608 5.408 36.544 5.408C36.48 5.472 36.4373 5.344 36.416 5.024C36.3947 4.91733 36.384 4.77867 36.384 4.608C36.3413 4.24533 36.2667 4.032 36.16 3.968C36.0747 3.88266 35.9787 3.59466 35.872 3.104C35.7653 2.592 35.6587 2.29333 35.552 2.208C35.488 2.144 35.4027 2.02667 35.296 1.856C35.2107 1.68533 35.168 1.568 35.168 1.504ZM36.928 3.872C36.8213 3.25333 36.7467 2.92267 36.704 2.88C36.6613 2.816 36.672 3.22133 36.736 4.096C36.7573 4.33067 36.7787 4.544 36.8 4.736C36.8427 4.94933 36.8747 5.16267 36.896 5.376C36.9173 5.568 36.96 5.74933 37.024 5.92C37.0453 6.00533 37.056 5.984 37.056 5.856C37.0987 5.536 37.056 4.87467 36.928 3.872ZM38.592 10.016C38.656 10.016 38.7093 9.984 38.752 9.92C38.7947 9.856 38.7627 9.824 38.656 9.824C38.5493 9.824 38.496 9.856 38.496 9.92C38.496 9.984 38.528 10.016 38.592 10.016ZM34.496 13.44C34.56 13.44 34.592 13.408 34.592 13.344C34.592 13.28 34.5813 13.248 34.56 13.248C34.5387 13.248 34.5067 13.28 34.464 13.344C34.4427 13.408 34.4533 13.44 34.496 13.44ZM44.96 0.768C45.152 0.554665 45.2587 0.447998 45.28 0.447998C45.3227 0.447998 45.408 0.511998 45.536 0.639999C45.6853 0.767999 45.856 0.863999 46.048 0.927999C46.24 0.970666 46.4427 1.07733 46.656 1.248C46.8693 1.39733 46.9547 1.504 46.912 1.568C46.8693 1.61067 46.9227 1.68533 47.072 1.792C47.2213 1.87733 47.296 2.12267 47.296 2.528C47.3173 3.296 47.2213 4.04267 47.008 4.768C46.9867 4.85333 47.0187 4.896 47.104 4.896C47.1893 4.896 47.328 4.88533 47.52 4.864C47.904 4.82133 48.32 4.69333 48.768 4.48C49.216 4.24533 49.4613 4.13867 49.504 4.16C49.5467 4.16 49.568 4.13867 49.568 4.096C49.568 4.032 49.6427 3.968 49.792 3.904C49.9627 3.84 50.0267 3.76533 49.984 3.68C49.9413 3.63733 49.9947 3.59467 50.144 3.552C50.208 3.53067 50.2827 3.54133 50.368 3.584L50.4 3.552C50.3787 3.552 50.3467 3.52 50.304 3.456C50.24 3.37067 50.2293 3.328 50.272 3.328C50.336 3.328 50.4213 3.37067 50.528 3.456C50.6987 3.56267 50.8587 3.584 51.008 3.52C51.264 3.37067 51.392 3.38133 51.392 3.552C51.392 3.57333 51.3707 3.60533 51.328 3.648C51.264 3.75467 51.2853 3.808 51.392 3.808C51.52 3.808 51.6587 3.86133 51.808 3.968C51.9787 4.05333 52.0747 4.08533 52.096 4.064L52.224 4.288C52.3307 4.45867 52.4587 4.544 52.608 4.544C52.6933 4.56533 52.736 4.58667 52.736 4.608C52.672 4.62933 52.64 4.672 52.64 4.736C52.64 4.8 52.672 4.81067 52.736 4.768C52.736 4.768 52.7467 4.77867 52.768 4.8C52.8107 4.82133 52.8427 4.864 52.864 4.928C52.8853 4.992 52.9067 5.06667 52.928 5.152C52.9493 5.216 52.96 5.29067 52.96 5.376C52.9813 5.44 52.992 5.49333 52.992 5.536C52.992 5.6 53.0453 5.68533 53.152 5.792C53.2587 5.87733 53.2373 5.96267 53.088 6.048C52.4907 6.368 52.096 6.63467 51.904 6.848H51.872C51.8933 6.80533 51.8507 6.784 51.744 6.784C51.5947 6.784 51.424 6.848 51.232 6.976C51.0827 7.06133 50.9653 7.104 50.88 7.104C50.816 7.104 50.6453 7.18933 50.368 7.36C50.0907 7.53067 49.952 7.59467 49.952 7.552C49.952 7.50933 49.856 7.552 49.664 7.68C49.4933 7.808 49.408 7.85067 49.408 7.808H49.312C49.2693 7.89333 49.0773 8.02133 48.736 8.192C48.3947 8.36267 48.0533 8.576 47.712 8.832C47.3707 9.06667 47.136 9.184 47.008 9.184C46.9013 9.184 46.848 9.22667 46.848 9.312C46.848 9.39733 46.7947 9.42933 46.688 9.408C46.5813 9.36533 46.5067 9.408 46.464 9.536C46.4427 9.64267 46.1867 9.77067 45.696 9.92L44.992 10.144L44.736 9.824C44.5653 9.65333 44.352 9.54667 44.096 9.504C43.8827 9.46133 43.6267 9.33333 43.328 9.12C43.0293 8.90667 42.816 8.68267 42.688 8.448C42.56 8.21333 42.4427 8.07467 42.336 8.032C42.2507 7.98933 42.208 7.904 42.208 7.776C42.208 7.648 42.176 7.53067 42.112 7.424C42.0693 7.296 42.1013 7.09333 42.208 6.816C42.336 6.53867 42.56 6.336 42.88 6.208C43.2213 6.08 43.52 5.81333 43.776 5.408C44.1387 4.85333 44.416 4.26667 44.608 3.648C45.0133 2.304 45.0987 1.57866 44.864 1.472C44.608 1.38667 44.64 1.152 44.96 0.768ZM70.208 3.296C70.208 3.18933 70.496 3.264 71.072 3.52C71.6693 3.75467 72.416 4.27733 73.312 5.088C73.696 5.472 73.92 5.728 73.984 5.856C74.0693 5.96267 74.112 6.10133 74.112 6.272C74.112 6.528 74.016 6.816 73.824 7.136C73.2267 8.07467 72.9067 8.66133 72.864 8.896C72.864 8.96 72.8213 9.056 72.736 9.184C72.6507 9.29067 72.5013 9.54667 72.288 9.952C72.2027 10.1227 72.1173 10.272 72.032 10.4C71.9467 10.5067 71.8933 10.5387 71.872 10.496V10.592C71.9147 10.656 71.904 10.7093 71.84 10.752C71.776 10.7947 71.6587 10.9867 71.488 11.328C71.3173 11.6693 71.232 11.872 71.232 11.936C71.232 12.0213 71.1573 12.1173 71.008 12.224C70.88 12.3093 70.816 12.416 70.816 12.544C70.816 12.6507 70.7413 12.768 70.592 12.896L70.4 13.12L70.656 13.344C71.296 13.8773 71.616 14.2293 71.616 14.4C71.616 14.528 71.7333 14.7307 71.968 15.008L72.352 15.392L72.288 16.032C72.224 16.4373 72.1813 16.9813 72.16 17.664C72.16 18.3467 72.128 18.9013 72.064 19.328C72.0213 19.7333 71.9787 20.0853 71.936 20.384C71.8507 21.6 71.7547 22.2827 71.648 22.432C71.6053 22.496 71.552 22.7733 71.488 23.264C71.424 23.7973 71.2533 24.3627 70.976 24.96L70.816 25.408L70.656 25.088C70.5493 24.896 70.368 24.7147 70.112 24.544C69.8773 24.3947 69.7387 24.2453 69.696 24.096C69.6747 23.968 69.568 23.8187 69.376 23.648C69.2053 23.4773 69.12 23.2853 69.12 23.072C69.12 22.8587 69.0987 22.7413 69.056 22.72C69.0133 22.6773 68.96 22.56 68.896 22.368C68.7893 22.048 68.864 21.4827 69.12 20.672C69.184 20.48 69.216 20.288 69.216 20.096C69.216 19.8827 69.2373 19.7227 69.28 19.616C69.344 19.488 69.3867 19.2213 69.408 18.816C69.4293 18.3893 69.4827 17.8347 69.568 17.152C69.6533 16.448 69.664 16.0427 69.6 15.936C69.5573 15.808 69.5467 15.6053 69.568 15.328C69.5893 15.0293 69.568 14.8587 69.504 14.816C69.44 14.7733 69.312 14.848 69.12 15.04C68.9493 15.2107 68.864 15.3493 68.864 15.456C68.864 15.5413 68.832 15.584 68.768 15.584C68.704 15.584 68.544 15.7867 68.288 16.192C68.0747 16.4907 67.7653 16.864 67.36 17.312C66.976 17.76 66.688 18.0267 66.496 18.112C66.3467 18.1973 66.1547 18.2293 65.92 18.208C65.7067 18.1867 65.5467 18.1227 65.44 18.016C65.312 17.888 65.2053 17.824 65.12 17.824C65.056 17.824 64.96 17.7493 64.832 17.6C64.704 17.4293 64.608 17.344 64.544 17.344C64.5013 17.344 64.48 17.3013 64.48 17.216C64.48 17.1307 64.4267 17.088 64.32 17.088C64.2347 17.088 64.192 17.0453 64.192 16.96C64.192 16.8747 64.1813 16.6933 64.16 16.416C64.1387 16.1173 64.0747 15.9253 63.968 15.84C63.8613 15.7547 63.8827 15.648 64.032 15.52C64.2027 15.392 64.288 15.3067 64.288 15.264C64.288 15.2 64.3947 15.104 64.608 14.976C64.928 14.7413 65.3333 14.3467 65.824 13.792C66.08 13.4933 66.24 13.3013 66.304 13.216C66.3893 13.1307 66.432 13.0667 66.432 13.024C66.432 12.96 66.4853 12.896 66.592 12.832C66.6987 12.7467 66.7413 12.64 66.72 12.512C66.6987 12.384 66.7947 12.2133 67.008 12C67.2213 11.7867 67.328 11.6373 67.328 11.552C67.328 11.4667 67.4667 11.168 67.744 10.656C68.0213 10.1227 68.2347 9.76 68.384 9.568C68.4693 9.41867 68.5973 9.152 68.768 8.768C68.9387 8.384 69.0773 8.11733 69.184 7.968C69.312 7.81867 69.4187 7.60533 69.504 7.328C69.5893 7.05067 69.6533 6.88 69.696 6.816C69.7387 6.752 69.76 6.63467 69.76 6.464C69.76 6.272 69.792 6.13333 69.856 6.048C69.92 5.984 70.0587 5.68533 70.272 5.152C70.5067 4.61867 70.624 4.30933 70.624 4.224C70.624 4.07467 70.5493 3.89333 70.4 3.68C70.272 3.46667 70.208 3.33867 70.208 3.296ZM76.576 0.831999C76.6613 0.767998 76.8213 0.778665 77.056 0.863998C77.248 0.949332 77.3653 0.981332 77.408 0.959999C77.4507 0.917332 77.632 0.981332 77.952 1.152C78.2933 1.32267 78.56 1.472 78.752 1.6C78.944 1.77067 79.104 1.97333 79.232 2.208C79.36 2.44267 79.4667 2.592 79.552 2.656C79.68 2.76266 79.7973 3.01867 79.904 3.424C80.0107 3.82933 80.0533 4.20267 80.032 4.544C80.0107 4.94933 79.968 5.16267 79.904 5.184C79.84 5.20533 79.808 5.25867 79.808 5.344C79.808 5.408 79.7547 5.536 79.648 5.728C79.5627 5.89867 79.52 6.05867 79.52 6.208C79.52 6.336 79.488 6.42133 79.424 6.464C79.36 6.48533 79.264 6.64533 79.136 6.944C79.008 7.22133 78.9547 7.37067 78.976 7.392C79.0187 7.41333 79.1147 7.392 79.264 7.328C79.4133 7.24267 79.5413 7.18933 79.648 7.168C79.7547 7.14667 79.8507 7.104 79.936 7.04C80.1493 6.86933 80.832 6.60267 81.984 6.24C82.24 6.176 82.4 6.112 82.464 6.048C82.5493 5.96267 82.5707 5.87733 82.528 5.792C82.5067 5.77067 82.56 5.76 82.688 5.76C83.136 5.76 83.5947 5.86667 84.064 6.08C84.4053 6.22933 84.608 6.304 84.672 6.304C84.7573 6.28267 84.9387 6.35733 85.216 6.528C85.6 6.76267 85.8453 6.93333 85.952 7.04C86.0587 7.12533 86.1013 7.232 86.08 7.36C86.016 7.488 86.08 7.65867 86.272 7.872C86.4853 8.064 86.592 8.17067 86.592 8.192C86.592 8.21333 86.5067 8.24533 86.336 8.288C85.0773 8.58667 84.0427 8.94933 83.232 9.376C82.8907 9.568 82.6773 9.664 82.592 9.664C82.528 9.664 82.3787 9.728 82.144 9.856C81.9093 9.96267 81.7387 10.016 81.632 10.016C81.5467 10.016 81.4613 10.0693 81.376 10.176C81.2907 10.2613 81.216 10.304 81.152 10.304C81.024 10.304 80.8853 10.3467 80.736 10.432C80.608 10.5173 80.544 10.6027 80.544 10.688C80.544 10.7947 80.608 10.9013 80.736 11.008C80.864 11.1147 81.0133 11.36 81.184 11.744C81.3547 12.128 81.408 12.5333 81.344 12.96C81.3013 13.3867 81.312 13.6213 81.376 13.664C81.4187 13.6853 81.7493 13.5893 82.368 13.376C83.008 13.1413 83.3813 12.9707 83.488 12.864C83.5947 12.8 83.9787 12.7467 84.64 12.704C85.088 12.704 85.3653 12.7147 85.472 12.736C85.6 12.7573 85.728 12.8107 85.856 12.896L86.528 13.536C86.8053 13.7707 86.944 13.9733 86.944 14.144C86.944 14.2933 87.008 14.432 87.136 14.56C87.264 14.6667 87.328 14.7413 87.328 14.784C87.328 14.848 87.2213 14.9333 87.008 15.04C86.7947 15.1253 86.5813 15.1893 86.368 15.232C85.6213 15.3173 84.9707 15.4987 84.416 15.776C84.1173 15.904 83.9253 15.968 83.84 15.968C83.7547 15.968 83.6053 16.0213 83.392 16.128C83.2 16.2347 83.072 16.3307 83.008 16.416C82.944 16.5013 82.8907 16.512 82.848 16.448C82.6987 16.2133 82.432 16.2773 82.048 16.64L81.728 17.024L81.792 16.736V16.544C81.7493 16.5653 81.5893 16.544 81.312 16.48C81.056 16.3947 80.9173 16.3947 80.896 16.48C80.8533 16.544 80.8213 16.8107 80.8 17.28C80.7787 17.728 80.7573 18.1333 80.736 18.496C80.736 18.8587 80.7467 19.072 80.768 19.136C80.8533 19.136 81.152 19.0293 81.664 18.816C82.688 18.4533 83.3707 18.24 83.712 18.176C84.0747 18.0907 84.576 18.048 85.216 18.048H86.368L86.784 18.464C87.0187 18.72 87.1573 18.9013 87.2 19.008C87.2427 19.1147 87.3493 19.2747 87.52 19.488C87.712 19.7013 87.7867 19.84 87.744 19.904C87.68 19.9467 87.648 20.032 87.648 20.16C87.6693 20.2667 87.712 20.32 87.776 20.32C87.84 20.32 87.9147 20.416 88 20.608C88.0853 20.8 88.1173 20.9067 88.096 20.928C87.968 20.992 87.84 21.024 87.712 21.024C87.584 21.024 87.488 21.0027 87.424 20.96C87.3387 20.768 86.7413 20.6827 85.632 20.704C84.5227 20.704 83.968 20.8 83.968 20.992C83.968 21.0347 83.8827 21.056 83.712 21.056C83.5413 21.056 83.424 21.088 83.36 21.152C83.296 21.1947 82.976 21.312 82.4 21.504C81.8453 21.696 81.44 21.7813 81.184 21.76C80.9493 21.7173 80.8107 21.7387 80.768 21.824C80.7253 21.9093 80.704 22.6133 80.704 23.936C80.7253 26.0267 80.5653 27.328 80.224 27.84C80.1387 27.968 80.0747 28.032 80.032 28.032C79.9893 28.0533 79.9147 28.0427 79.808 28C79.7013 27.8933 79.648 27.7973 79.648 27.712C79.648 27.6267 79.456 27.4987 79.072 27.328C78.816 27.2 78.5813 27.04 78.368 26.848C78.1547 26.656 78.048 26.496 78.048 26.368C78.048 26.24 78.016 26.1547 77.952 26.112C77.888 26.0907 77.8133 25.952 77.728 25.696C77.664 25.4613 77.6107 25.344 77.568 25.344C77.4187 25.344 77.3867 25.1413 77.472 24.736C77.536 24.5013 77.5253 24.352 77.44 24.288C77.376 24.2453 77.3867 24.1493 77.472 24C77.6853 23.552 77.7813 21.696 77.76 18.432C77.7387 16.5547 77.7493 15.0187 77.792 13.824C77.8347 12.6293 77.8347 12 77.792 11.936C77.7493 11.8507 77.4827 11.8933 76.992 12.064L76.256 12.288L75.552 11.936C74.656 11.5307 74.0053 10.9227 73.6 10.112L73.376 9.632L73.664 9.376C73.8347 9.184 73.9627 9.088 74.048 9.088C74.1547 9.088 74.24 9.024 74.304 8.896C74.368 8.768 74.4427 8.704 74.528 8.704C74.592 8.704 74.7093 8.576 74.88 8.32C75.0507 8.04267 75.1787 7.808 75.264 7.616C75.328 7.38133 75.4027 7.22133 75.488 7.136C75.5947 7.008 75.7653 6.656 76 6.08C76.256 5.48267 76.416 5.056 76.48 4.8C76.5227 4.45867 76.64 3.936 76.832 3.232L77.12 2.208L76.8 1.568C76.5867 1.12 76.512 0.874665 76.576 0.831999ZM104.704 15.648C104.832 15.52 104.917 15.456 104.96 15.456C105.003 15.456 105.163 15.488 105.44 15.552C106.144 15.68 106.635 15.84 106.912 16.032C107.211 16.2027 107.328 16.3947 107.264 16.608C107.2 16.7787 107.211 16.9173 107.296 17.024C107.424 17.1307 107.371 17.4933 107.136 18.112C106.923 18.7093 106.688 19.1253 106.432 19.36C106.368 19.4667 106.197 19.7867 105.92 20.32C105.899 20.3413 106.016 20.4267 106.272 20.576C106.528 20.704 106.709 20.768 106.816 20.768C106.88 20.768 106.901 20.7893 106.88 20.832C106.859 20.8747 106.88 20.9173 106.944 20.96C107.029 21.0027 107.04 21.0453 106.976 21.088C106.741 21.1947 106.752 21.28 107.008 21.344C107.115 21.408 107.157 21.536 107.136 21.728C107.115 21.8773 107.115 21.9733 107.136 22.016C107.157 22.0373 107.221 22.0587 107.328 22.08C107.456 22.144 107.541 22.1973 107.584 22.24C107.584 22.2613 107.573 22.2827 107.552 22.304C107.552 22.3253 107.531 22.336 107.488 22.336C107.424 22.336 107.392 22.3787 107.392 22.464C107.392 22.5493 107.477 22.592 107.648 22.592C107.925 22.592 107.893 22.6453 107.552 22.752C107.339 22.7947 106.997 22.88 106.528 23.008C105.717 23.1787 105.024 23.3387 104.448 23.488C103.893 23.6373 103.307 23.7867 102.688 23.936C102.304 24.0213 102.048 24.0853 101.92 24.128C101.813 24.192 101.76 24.256 101.76 24.32C101.76 24.448 101.803 24.8 101.888 25.376C101.973 25.952 101.963 26.272 101.856 26.336C101.771 26.4213 101.728 26.496 101.728 26.56C101.728 26.6453 101.696 26.688 101.632 26.688C101.568 26.688 101.515 26.6667 101.472 26.624C101.451 26.5387 101.397 26.5173 101.312 26.56C101.227 26.6027 101.184 26.592 101.184 26.528C101.184 26.464 101.131 26.432 101.024 26.432C100.939 26.4107 100.821 26.3253 100.672 26.176C100.544 26.048 100.459 25.9093 100.416 25.76C100.331 25.568 100.245 25.4827 100.16 25.504C100.075 25.5467 99.936 25.472 99.744 25.28C99.552 25.1093 99.4133 25.024 99.328 25.024C99.264 25.024 99.2107 24.928 99.168 24.736C99.1467 24.5653 99.0827 24.0747 98.976 23.264C98.8267 21.9413 98.6987 21.0667 98.592 20.64C98.5067 20.192 98.304 19.5627 97.984 18.752C97.6 17.728 97.184 17.0773 96.736 16.8C96.5653 16.6933 96.448 16.5653 96.384 16.416C96.32 16.2453 96.352 16.128 96.48 16.064C96.5653 15.9787 96.576 15.904 96.512 15.84C96.384 15.7333 96.416 15.68 96.608 15.68C96.736 15.68 97.0133 15.7013 97.44 15.744C98.08 15.8507 98.5387 16 98.816 16.192C99.2853 16.4907 99.6693 16.864 99.968 17.312L100.128 17.536L101.184 17.056C102.997 16.2453 104.043 15.84 104.32 15.84C104.427 15.84 104.555 15.776 104.704 15.648ZM104.096 18.88C104.139 18.7093 104.117 18.624 104.032 18.624C103.947 18.624 103.723 18.7093 103.36 18.88C103.019 19.072 102.539 19.2533 101.92 19.424C101.323 19.5733 101.003 19.68 100.96 19.744C100.917 19.7653 100.949 20.0747 101.056 20.672C101.163 21.2693 101.237 21.5893 101.28 21.632C101.323 21.696 101.685 21.5893 102.368 21.312L103.36 20.96L103.68 20.064C103.936 19.4453 104.075 19.0507 104.096 18.88ZM114.176 12.544C114.347 12.48 114.592 12.5227 114.912 12.672C115.147 12.8 115.403 12.8747 115.68 12.896C116 12.9387 116.235 13.0453 116.384 13.216C116.533 13.3867 116.693 13.7173 116.864 14.208C117.035 14.72 117.152 15.232 117.216 15.744C117.28 16.2347 117.259 16.5227 117.152 16.608C117.109 16.6293 117.077 16.7467 117.056 16.96C117.056 17.1733 117.024 17.344 116.96 17.472C116.917 17.5787 116.843 17.8133 116.736 18.176C116.629 18.5173 116.469 18.8053 116.256 19.04C116.043 19.2747 115.936 19.4347 115.936 19.52C115.936 19.6053 115.904 19.6373 115.84 19.616C115.776 19.5733 115.744 19.5947 115.744 19.68C115.744 19.7653 115.819 19.84 115.968 19.904C116.096 19.968 116.459 20.064 117.056 20.192C117.653 20.32 118.069 20.3947 118.304 20.416C118.624 20.4587 118.816 20.576 118.88 20.768C118.923 20.8533 118.901 20.9173 118.816 20.96C118.731 20.9813 118.763 21.056 118.912 21.184C119.061 21.312 119.104 21.376 119.04 21.376C118.848 21.376 118.837 21.4933 119.008 21.728C119.072 21.792 119.168 21.8453 119.296 21.888C119.488 21.9733 119.595 22.08 119.616 22.208C119.659 22.3147 119.595 22.4 119.424 22.464C119.317 22.528 119.264 22.624 119.264 22.752C119.264 22.816 119.243 22.8587 119.2 22.88C119.157 22.9013 119.061 22.8907 118.912 22.848L118.592 22.912C118.656 23.0187 118.496 23.0507 118.112 23.008C117.963 22.9867 117.781 22.9653 117.568 22.944C116.117 22.6667 114.731 22.6773 113.408 22.976C112.768 23.1253 112.245 23.2213 111.84 23.264C111.541 23.3067 111.36 23.3493 111.296 23.392C111.232 23.4347 111.2 23.5307 111.2 23.68C111.136 23.872 111.115 24.2133 111.136 24.704C111.157 25.216 111.136 25.472 111.072 25.472C111.029 25.472 111.019 25.536 111.04 25.664C111.061 25.8133 110.891 25.696 110.528 25.312C109.995 24.7787 109.728 24.3733 109.728 24.096C109.728 24.032 109.664 23.968 109.536 23.904C109.408 23.8187 109.344 23.7227 109.344 23.616C109.344 23.5093 109.291 23.456 109.184 23.456C109.099 23.456 109.056 23.424 109.056 23.36C109.056 23.2747 109.045 23.0613 109.024 22.72C109.024 22.3787 108.971 22.1653 108.864 22.08C108.757 21.9947 108.715 21.824 108.736 21.568C108.736 21.376 108.725 21.28 108.704 21.28C108.619 21.3013 108.576 21.3013 108.576 21.28C108.576 21.1947 108.651 21.0987 108.8 20.992C108.907 20.9067 108.96 20.8213 108.96 20.736C108.981 20.6293 108.981 20.3093 108.96 19.776C108.896 19.0293 108.832 18.4533 108.768 18.048C108.725 17.6427 108.672 17.312 108.608 17.056C108.587 16.7147 108.437 16.3093 108.16 15.84C108.096 15.6907 108.085 15.6053 108.128 15.584C108.213 15.52 108.245 15.4347 108.224 15.328C108.224 15.2 108.181 15.072 108.096 14.944C108.011 14.7947 107.925 14.72 107.84 14.72C107.776 14.72 107.723 14.6987 107.68 14.656C107.659 14.6133 107.659 14.56 107.68 14.496C107.723 14.4107 107.776 14.3253 107.84 14.24C107.968 14.1333 108.032 14.0267 108.032 13.92C108.032 13.8133 108.085 13.7813 108.192 13.824C108.299 13.8667 108.512 13.9307 108.832 14.016C109.173 14.1013 109.397 14.176 109.504 14.24C109.632 14.304 110.357 14.1013 111.68 13.632C113.003 13.1627 113.717 12.8747 113.824 12.768C113.952 12.6613 114.069 12.5867 114.176 12.544ZM114.336 16.16C114.357 15.8613 114.325 15.712 114.24 15.712C114.176 15.712 113.739 15.8613 112.928 16.16C112.117 16.4373 111.584 16.608 111.328 16.672C111.072 16.7147 110.944 16.8107 110.944 16.96C110.944 17.1947 110.987 17.8133 111.072 18.816C111.157 19.8187 111.211 20.3307 111.232 20.352C111.253 20.3733 111.552 20.3093 112.128 20.16C112.704 19.9893 113.035 19.8827 113.12 19.84C113.227 19.776 113.429 19.264 113.728 18.304C114.048 17.3227 114.251 16.608 114.336 16.16ZM110.08 2.432C110.379 2.24 110.56 2.13333 110.624 2.112C110.688 2.09067 110.752 2.112 110.816 2.176C110.88 2.21867 111.051 2.272 111.328 2.336C111.627 2.4 111.872 2.432 112.064 2.432C112.299 2.41067 112.491 2.48533 112.64 2.656C112.811 2.80533 112.885 2.99733 112.864 3.232C112.864 3.44533 112.917 3.616 113.024 3.744C113.131 3.85067 113.173 4.01067 113.152 4.224C113.131 4.43733 113.163 4.55467 113.248 4.576C113.419 4.59733 113.44 4.74667 113.312 5.024C113.269 5.13067 113.248 5.13067 113.248 5.024C113.227 4.704 113.067 4.84267 112.768 5.44C112.747 5.504 112.725 5.55733 112.704 5.6C112.491 6.06933 112.341 6.32533 112.256 6.368C112.192 6.41067 112.107 6.58133 112 6.88L111.84 7.168C111.819 7.104 111.765 7.08267 111.68 7.104C111.595 7.104 111.531 7.15733 111.488 7.264C111.445 7.456 111.136 7.85067 110.56 8.448L110.368 8.64L111.008 8.704C111.435 8.704 111.669 8.71467 111.712 8.736C111.776 8.736 111.861 8.74667 111.968 8.768C112.075 8.768 112.128 8.82133 112.128 8.928C112.149 9.03467 112.107 9.12 112 9.184C111.936 9.22667 111.936 9.25867 112 9.28C112.085 9.30133 112.107 9.38667 112.064 9.536C112.021 9.68533 112.085 9.81333 112.256 9.92C112.427 10.0267 112.491 10.1973 112.448 10.432C112.427 10.6667 112.448 10.7947 112.512 10.816L112.192 10.976C111.872 11.104 111.435 11.3067 110.88 11.584C110.325 11.8613 109.995 12 109.888 12C109.781 12 109.728 12.0213 109.728 12.064C109.728 12.128 109.611 12.2027 109.376 12.288C109.163 12.3733 108.992 12.4267 108.864 12.448C108.843 12.448 108.789 12.4693 108.704 12.512C108.043 12.8107 107.573 12.96 107.296 12.96C107.189 12.96 107.061 13.0133 106.912 13.12C106.763 13.2267 106.709 13.44 106.752 13.76C106.773 14.336 106.645 14.624 106.368 14.624C106.283 14.624 106.101 14.464 105.824 14.144L105.024 13.248C104.747 12.9493 104.544 12.6933 104.416 12.48C104.288 12.2453 104.203 12.1173 104.16 12.096C104.117 12.0533 104.085 11.5627 104.064 10.624C104.064 9.664 104.043 9.10933 104 8.96C103.957 8.81067 103.915 8.512 103.872 8.064C103.851 7.616 103.808 7.37067 103.744 7.328C103.701 7.264 103.648 7.02933 103.584 6.624C103.477 6.09067 103.381 5.74933 103.296 5.6C103.232 5.45067 103.051 5.29067 102.752 5.12C102.24 4.8 101.973 4.53333 101.952 4.32C101.952 4.23467 101.995 4.192 102.08 4.192C102.165 4.192 102.165 4.14933 102.08 4.064C102.016 3.97867 102.016 3.936 102.08 3.936C102.101 3.936 102.165 3.94667 102.272 3.968L103.328 4.16C104.096 4.30933 104.587 4.43733 104.8 4.544C104.949 4.608 105.099 4.61867 105.248 4.576C105.419 4.53333 105.877 4.352 106.624 4.032C108.501 3.264 109.653 2.73067 110.08 2.432ZM109.536 6.304C109.536 6.15467 109.44 6.144 109.248 6.272C109.141 6.31467 108.747 6.45333 108.064 6.688C107.403 6.90133 107.019 7.008 106.912 7.008C106.763 7.008 106.677 7.06133 106.656 7.168C106.656 7.25333 106.688 7.47733 106.752 7.84C106.816 8.30933 106.869 8.77867 106.912 9.248C106.955 9.696 106.997 9.952 107.04 10.016C107.083 10.0587 107.264 10.0053 107.584 9.856C107.925 9.68533 108.16 9.52533 108.288 9.376C108.523 9.09867 108.768 8.608 109.024 7.904C109.365 7.05067 109.536 6.51733 109.536 6.304Z" fill="black"/>
</svg>
