<svg width="120" height="29" viewBox="0 0 120 29" fill="none" xmlns="http://www.w3.org/2000/svg">
<path d="M10.176 0.927999C10.176 0.842666 10.1867 0.799999 10.208 0.799999C10.2293 0.778666 10.3147 0.778666 10.464 0.799999C10.8907 0.863998 11.104 0.970665 11.104 1.12C11.104 1.16267 11.1893 1.184 11.36 1.184C11.5307 1.184 11.68 1.25867 11.808 1.408C11.9573 1.55733 12.1707 1.73867 12.448 1.952C12.7253 2.144 12.864 2.29333 12.864 2.4C12.864 2.48533 12.9173 2.57067 13.024 2.656C13.152 2.74133 13.216 2.82667 13.216 2.912C13.216 2.99733 13.2587 3.04 13.344 3.04C13.4293 3.04 13.504 3.104 13.568 3.232C13.6747 3.552 13.7493 4.064 13.792 4.768C13.856 5.472 13.8453 5.87733 13.76 5.984C13.696 6.06933 13.696 6.15467 13.76 6.24C13.8453 6.32533 13.8133 6.464 13.664 6.656C13.4293 6.93333 13.376 7.072 13.504 7.072C13.632 7.072 13.9093 7.04 14.336 6.976C14.72 6.86933 14.912 6.77333 14.912 6.688C14.912 6.60267 14.944 6.56 15.008 6.56C15.072 6.56 15.0827 6.53867 15.04 6.496C14.9973 6.41067 15.0613 6.38933 15.232 6.432C15.2747 6.432 15.3067 6.432 15.328 6.432C15.5627 6.45333 15.7227 6.368 15.808 6.176C15.872 6.048 15.936 5.984 16 5.984C16.064 5.96267 16.2133 5.96267 16.448 5.984C16.6827 6.00533 16.8213 6.016 16.864 6.016C16.9067 5.99467 16.928 5.94133 16.928 5.856C16.9067 5.792 16.9173 5.74933 16.96 5.728C17.0027 5.70667 17.0987 5.70667 17.248 5.728C17.9947 5.74933 18.432 5.81333 18.56 5.92C18.624 5.984 18.6987 6.016 18.784 6.016C18.8267 6.016 19.1787 6.34667 19.84 7.008C20.5013 7.648 20.928 8.08533 21.12 8.32C21.312 8.55467 21.408 8.768 21.408 8.96C21.408 9.152 21.44 9.26933 21.504 9.312C21.568 9.376 21.5893 9.42933 21.568 9.472C21.568 9.51467 21.536 9.536 21.472 9.536C21.3653 9.536 21.2267 9.57867 21.056 9.664C20.8853 9.74933 20.7573 9.77067 20.672 9.728C20.608 9.664 20.4907 9.65333 20.32 9.696L19.36 9.888C18.336 10.08 17.5147 10.336 16.896 10.656C16.7253 10.72 16.5653 10.7413 16.416 10.72C16.2667 10.6773 16.192 10.6987 16.192 10.784C16.192 10.8693 16.064 10.976 15.808 11.104L14.944 11.456C14.624 11.584 14.24 11.744 13.792 11.936C13.3653 12.1067 13.152 12.2133 13.152 12.256C13.152 12.2987 13.2267 12.3413 13.376 12.384C13.568 12.4267 13.792 12.5547 14.048 12.768C14.304 12.9813 14.4747 13.1627 14.56 13.312C14.624 13.504 14.656 14.048 14.656 14.944C14.656 15.9893 14.5707 16.832 14.4 17.472L14.176 18.208C14.1547 18.3573 14.1227 18.4853 14.08 18.592C13.8453 19.104 13.76 19.4027 13.824 19.488C13.8667 19.5093 14.0907 19.6053 14.496 19.776C16.4587 20.5653 18.0267 21.248 19.2 21.824C20.1813 22.3147 20.704 22.56 20.768 22.56C20.832 22.56 20.9813 22.6667 21.216 22.88L21.952 23.456C22.208 23.6693 22.336 23.808 22.336 23.872C22.336 23.936 22.4107 24.0533 22.56 24.224C22.7307 24.3947 22.8373 24.4693 22.88 24.448C22.9227 24.4267 22.9653 24.448 23.008 24.512C23.0507 24.576 23.0827 24.6507 23.104 24.736C23.1253 24.8213 23.1147 24.8747 23.072 24.896C23.0293 24.96 23.0613 25.152 23.168 25.472C23.2747 25.792 23.3813 26.24 23.488 26.816C23.5733 27.2213 23.616 27.4667 23.616 27.552C23.616 27.6587 23.5627 27.776 23.456 27.904C23.3707 28.0107 23.3067 28.064 23.264 28.064C23.2427 28.0853 23.2107 28.064 23.168 28C23.0613 27.872 22.8907 27.808 22.656 27.808C22.4213 27.808 22.2827 27.7653 22.24 27.68C22.2187 27.616 22.144 27.584 22.016 27.584C21.888 27.584 21.792 27.5093 21.728 27.36C21.6853 27.232 21.568 27.1147 21.376 27.008C21.184 26.9227 21.0347 26.8267 20.928 26.72C20.7787 26.592 20.6187 26.5387 20.448 26.56C20.4053 26.56 20.3733 26.5387 20.352 26.496C20.3307 26.4747 20.32 26.4427 20.32 26.4C20.2773 26.2507 20.1387 26.0907 19.904 25.92C19.6693 25.7707 19.4773 25.6853 19.328 25.664C19.2 25.664 18.9013 25.5147 18.432 25.216C17.984 24.9173 17.728 24.7253 17.664 24.64C17.6213 24.5547 17.504 24.4587 17.312 24.352C17.12 24.2667 16.992 24.2453 16.928 24.288C16.8853 24.3307 16.5547 24.2027 15.936 23.904C15.3387 23.584 14.816 23.3493 14.368 23.2C13.92 23.0293 13.6427 22.912 13.536 22.848C13.4293 22.784 13.1733 22.688 12.768 22.56L12.192 22.4L11.904 22.56C11.6693 22.7093 11.5733 22.8267 11.616 22.912C11.6373 22.9547 11.5947 23.0293 11.488 23.136C11.4027 23.2427 11.3173 23.296 11.232 23.296C11.168 23.296 11.104 23.3707 11.04 23.52C10.976 23.648 10.88 23.7227 10.752 23.744C10.624 23.7653 10.464 23.8507 10.272 24C10.1013 24.1493 9.99467 24.224 9.952 24.224C9.93067 24.224 9.824 24.2987 9.632 24.448C9.44 24.6187 9.19467 24.7787 8.896 24.928C8.61867 25.0987 8.48 25.216 8.48 25.28C8.48 25.344 8.42667 25.3547 8.32 25.312C8.21333 25.2693 8.13867 25.3013 8.096 25.408C8.05333 25.536 7.936 25.6 7.744 25.6C7.552 25.6213 7.41333 25.664 7.328 25.728C7.264 25.792 7.25333 25.824 7.296 25.824L6.56 26.432C6.432 26.5173 6.31467 26.6027 6.208 26.688C5.952 26.8373 5.73867 26.912 5.568 26.912C5.41867 26.912 5.30133 26.9653 5.216 27.072C5.06667 27.1573 4.97067 27.1893 4.928 27.168C4.88533 27.168 4.864 27.104 4.864 26.976C4.864 26.72 4.77867 26.6773 4.608 26.848C4.52267 26.9333 4.43733 26.9227 4.352 26.816C4.288 26.7093 4.21333 26.656 4.128 26.656C4.04267 26.656 3.92533 26.592 3.776 26.464C3.648 26.3573 3.54133 26.304 3.456 26.304C3.392 26.304 3.36 26.2187 3.36 26.048C3.36 25.8987 3.30667 25.824 3.2 25.824C3.11467 25.8453 3.008 25.8453 2.88 25.824C2.752 25.824 2.74133 25.7707 2.848 25.664C2.848 25.6427 2.86933 25.6213 2.912 25.6C3.06133 25.4293 3.37067 25.184 3.84 24.864C4.30933 24.544 4.61867 24.3093 4.768 24.16C4.93867 24.0107 5.10933 23.8827 5.28 23.776C5.472 23.6907 5.84533 23.392 6.4 22.88C6.656 22.6667 6.80533 22.56 6.848 22.56C6.912 22.56 7.02933 22.4747 7.2 22.304C7.73333 21.7707 8.10667 21.4613 8.32 21.376C8.46933 21.312 8.39467 21.2373 8.096 21.152C8.032 21.1093 7.95733 21.088 7.872 21.088C7.53067 21.0027 7.04 20.864 6.4 20.672C5.78133 20.4587 5.344 20.3307 5.088 20.288C4.93867 20.2667 4.768 20.224 4.576 20.16C4.40533 20.0747 4.256 20 4.128 19.936C4 19.8507 3.95733 19.7973 4 19.776C4.02133 19.712 3.98933 19.68 3.904 19.68C3.84 19.68 3.81867 19.6373 3.84 19.552C3.88267 19.4667 3.808 19.392 3.616 19.328C3.44533 19.264 3.37067 19.1573 3.392 19.008C3.41333 18.8587 3.60533 18.7413 3.968 18.656C4.33067 18.5707 5.03467 18.5067 6.08 18.464C6.93333 18.4 7.712 18.3893 8.416 18.432C9.14133 18.4533 9.504 18.496 9.504 18.56C9.504 18.6027 9.44 18.6133 9.312 18.592C9.20533 18.5707 9.152 18.5813 9.152 18.624C9.152 18.7093 9.216 18.7627 9.344 18.784C9.472 18.8267 9.61067 18.8587 9.76 18.88C9.90933 18.88 10.0267 18.88 10.112 18.88C10.1973 18.8587 10.24 18.8267 10.24 18.784C10.24 18.72 10.304 18.6773 10.432 18.656C10.56 18.6133 10.6347 18.5387 10.656 18.432C10.6987 18.304 10.912 17.856 11.296 17.088C11.7653 16.1067 12.0747 15.3387 12.224 14.784C12.3307 14.3573 12.384 13.9413 12.384 13.536C12.384 13.1307 12.3307 12.8853 12.224 12.8C12.1387 12.7147 11.5307 12.96 10.4 13.536C9.29067 14.112 8.704 14.4 8.64 14.4C8.59733 14.3787 8.42667 14.464 8.128 14.656C7.85067 14.8267 7.63733 14.944 7.488 15.008C7.33867 15.0507 7.2 15.1253 7.072 15.232C6.944 15.3387 6.816 15.392 6.688 15.392C6.56 15.392 6.38933 15.4773 6.176 15.648C5.96267 15.7973 5.792 15.872 5.664 15.872C5.536 15.872 5.39733 15.9253 5.248 16.032C5.12 16.1173 5.024 16.1493 4.96 16.128C4.896 16.0853 4.81067 16.1067 4.704 16.192C4.61867 16.256 4.58667 16.32 4.608 16.384C4.62933 16.448 4.56533 16.5653 4.416 16.736L4.192 16.96V16.672C4.192 16.5013 4.14933 16.4373 4.064 16.48C3.97867 16.5227 3.808 16.48 3.552 16.352C3.296 16.2027 3.12533 16.1493 3.04 16.192C2.976 16.2133 2.90133 16.128 2.816 15.936C2.752 15.808 2.66667 15.712 2.56 15.648C2.47467 15.584 2.41067 15.5947 2.368 15.68C2.34667 15.7227 2.29333 15.712 2.208 15.648C2.12267 15.584 2.03733 15.4987 1.952 15.392C1.86667 15.264 1.792 15.1573 1.728 15.072C1.70667 14.9227 1.62133 14.848 1.472 14.848C1.42933 14.848 1.39733 14.8373 1.376 14.816C1.35467 14.7947 1.344 14.7627 1.344 14.72C1.36533 14.6773 1.344 14.6347 1.28 14.592C1.23733 14.5493 1.17333 14.496 1.088 14.432C0.938667 14.368 0.853334 14.3147 0.832 14.272C0.810667 14.208 0.810667 14.1227 0.832 14.016C0.832 13.824 0.8 13.728 0.736 13.728C0.672 13.792 0.597334 13.792 0.512 13.728C0.448 13.664 0.416 13.5787 0.416 13.472C0.416 13.408 0.490667 13.312 0.64 13.184C0.789334 13.0347 1.00267 12.9707 1.28 12.992C1.55733 12.992 1.728 12.9493 1.792 12.864C1.87733 12.7573 2.048 12.6933 2.304 12.672C2.64533 12.6293 3.25333 12.3947 4.128 11.968C4.59733 11.776 4.992 11.6267 5.312 11.52C5.632 11.392 5.86667 11.264 6.016 11.136C6.18667 11.008 6.32533 10.944 6.432 10.944C6.56 10.944 6.624 10.9227 6.624 10.88C6.624 10.816 6.72 10.7307 6.912 10.624C7.104 10.5173 7.2 10.496 7.2 10.56C7.2 10.6027 7.264 10.5493 7.392 10.4C7.54133 10.2507 7.648 10.1973 7.712 10.24C7.776 10.2613 7.81867 10.24 7.84 10.176C7.904 10.0907 8.288 9.87733 8.992 9.536C9.312 9.38667 9.504 9.28 9.568 9.216C9.65333 9.152 9.73867 9.12 9.824 9.12C9.90933 9.12 10.0373 9.04533 10.208 8.896C10.4 8.74667 10.624 8.62933 10.88 8.544C11.136 8.45867 11.264 8.39467 11.264 8.352C11.264 8.288 11.3173 8.256 11.424 8.256C11.616 8.256 11.5413 8.064 11.2 7.68C10.7307 7.18933 10.5173 6.93333 10.56 6.912C10.6027 6.848 10.5813 6.688 10.496 6.432C10.4107 6.15467 10.3893 5.71733 10.432 5.12C10.496 4.52267 10.56 4.17067 10.624 4.064C10.688 3.936 10.7093 3.76533 10.688 3.552C10.5387 2.25067 10.4107 1.51467 10.304 1.344C10.2187 1.216 10.176 1.07733 10.176 0.927999ZM46.784 9.92C46.8907 9.89867 46.944 9.89867 46.944 9.92C46.88 9.984 46.8053 10.016 46.72 10.016C46.656 10.016 46.6773 9.984 46.784 9.92ZM49.408 8.576C49.408 8.36267 49.6533 8.40533 50.144 8.704C50.4 8.87467 50.6773 9.03467 50.976 9.184C51.2747 9.33333 51.5093 9.51467 51.68 9.728C51.872 9.92 51.968 10.1013 51.968 10.272C51.968 10.4427 51.9253 10.6453 51.84 10.88C51.6693 11.2213 51.2747 11.7227 50.656 12.384C50.0587 13.0453 49.6747 13.376 49.504 13.376C49.44 13.376 49.3333 13.472 49.184 13.664C49.056 13.8347 48.9387 13.92 48.832 13.92C48.7253 13.92 48.5013 14.048 48.16 14.304C47.84 14.5387 47.648 14.656 47.584 14.656C47.5413 14.656 47.3813 14.752 47.104 14.944C46.8267 15.1147 46.5707 15.264 46.336 15.392C45.9947 15.584 45.792 15.744 45.728 15.872C45.664 15.9787 45.632 16.2453 45.632 16.672C45.632 17.76 45.6427 18.4107 45.664 18.624C45.7067 18.816 45.7493 18.912 45.792 18.912C45.984 18.912 46.4747 18.6453 47.264 18.112L47.904 17.632C48.1173 17.4827 48.5867 17.0453 49.312 16.32C50.0373 15.5733 50.5493 15.0293 50.848 14.688C51.2107 14.2187 51.456 13.8987 51.584 13.728C51.712 13.5573 51.776 13.408 51.776 13.28C51.776 13.216 51.8507 13.056 52 12.8C52.1493 12.544 52.256 12.416 52.32 12.416C52.3413 12.416 52.448 12.512 52.64 12.704C52.832 12.896 53.0773 13.0667 53.376 13.216C53.7173 13.3653 54.0373 13.6213 54.336 13.984C54.6773 14.3893 54.6987 14.8053 54.4 15.232C54.2507 15.4453 54.1547 15.5627 54.112 15.584C54.0693 15.6053 54.048 15.6693 54.048 15.776C54.048 15.8827 53.984 15.9893 53.856 16.096C53.728 16.1813 53.664 16.256 53.664 16.32C53.6853 16.4693 53.5893 16.5973 53.376 16.704C53.2053 16.832 53.12 16.9493 53.12 17.056C53.0987 17.0987 53.0773 17.12 53.056 17.12C53.0133 17.0987 52.8747 17.1947 52.64 17.408C52.0213 17.984 51.584 18.3467 51.328 18.496C51.136 18.56 51.04 18.6347 51.04 18.72C51.04 18.7627 50.944 18.8587 50.752 19.008C50.56 19.1573 50.4107 19.232 50.304 19.232C50.2613 19.232 50.1973 19.296 50.112 19.424C50.048 19.5307 50.016 19.648 50.016 19.776C50.016 19.9467 50.4 20.1387 51.168 20.352C51.488 20.48 51.7227 20.5653 51.872 20.608C52.576 20.9067 52.9707 21.056 53.056 21.056C53.12 21.056 53.2693 21.12 53.504 21.248C53.76 21.376 53.9093 21.44 53.952 21.44C54.016 21.44 54.304 21.568 54.816 21.824C55.3493 22.08 55.616 22.2507 55.616 22.336C55.616 22.4213 55.616 22.464 55.616 22.464C55.6373 22.464 55.6907 22.4213 55.776 22.336C55.8827 22.2507 55.9893 22.2613 56.096 22.368C56.2027 22.4533 56.2987 22.6027 56.384 22.816C56.4907 23.0293 56.5867 23.1573 56.672 23.2C56.7787 23.2213 56.9067 23.3707 57.056 23.648C57.2267 23.9253 57.4293 24.2133 57.664 24.512C57.8133 24.6827 57.9733 24.9173 58.144 25.216C58.3147 25.5147 58.4 25.696 58.4 25.76C58.4 25.7813 58.3467 25.792 58.24 25.792C58.112 25.792 58.048 25.8027 58.048 25.824C58.048 25.8667 58.0693 25.9733 58.112 26.144C58.176 26.272 58.176 26.3573 58.112 26.4C58.0693 26.464 57.9947 26.464 57.888 26.4C57.824 26.3147 57.3547 26.048 56.48 25.6C54.4533 24.5547 52.1707 23.5947 49.632 22.72C49.248 22.592 49.0133 22.496 48.928 22.432C48.864 22.368 48.7573 22.3787 48.608 22.464C48.4587 22.528 48.384 22.6133 48.384 22.72C48.384 22.784 48.352 22.816 48.288 22.816C48.2453 22.816 48.1813 22.8907 48.096 23.04C48.032 23.1893 48 23.2853 48 23.328C48 23.392 48.096 23.36 48.288 23.232L48.448 23.2C48.4267 23.2427 48.2987 23.4027 48.064 23.68C47.7013 24.0853 47.4987 24.3627 47.456 24.512C47.392 24.6187 47.3173 24.736 47.232 24.864C47.1467 24.992 47.0613 25.0987 46.976 25.184C46.8907 25.2907 46.848 25.3227 46.848 25.28C46.8267 25.2587 46.7627 25.2907 46.656 25.376C46.5493 25.4613 46.4427 25.568 46.336 25.696C46.2293 25.8453 46.144 25.984 46.08 26.112C45.9947 26.3467 45.888 26.4533 45.76 26.432C45.6533 26.4107 45.6 26.432 45.6 26.496C45.6 26.5813 45.376 26.8267 44.928 27.232C44.5013 27.6587 44.2453 27.872 44.16 27.872C44.1173 27.872 44.096 27.904 44.096 27.968C44.096 28.0747 44.0427 28.1707 43.936 28.256C43.8293 28.3413 43.7227 28.3733 43.616 28.352C43.424 28.3093 43.296 28.0747 43.232 27.648C43.232 27.52 43.136 27.4347 42.944 27.392C42.7733 27.3493 42.6773 27.36 42.656 27.424L42.56 27.136C42.5173 26.88 42.432 26.7307 42.304 26.688C42.176 26.6453 42.1333 26.5387 42.176 26.368C42.1973 26.1973 42.1973 26.112 42.176 26.112C42.1547 26.112 42.0693 26.1653 41.92 26.272L41.76 26.496L41.824 26.176C41.8453 25.9627 41.792 25.824 41.664 25.76C41.3013 25.6533 41.2693 25.3867 41.568 24.96C41.7173 24.7467 41.792 24.5653 41.792 24.416C41.792 24.288 41.8773 24.1813 42.048 24.096C42.2187 24.0107 42.336 23.904 42.4 23.776C42.4853 23.6267 42.5813 23.2213 42.688 22.56C42.816 21.8773 42.8907 21.3333 42.912 20.928C42.9333 20.3733 42.9653 20.064 43.008 20C43.072 19.936 43.104 19.7653 43.104 19.488C43.1253 19.2107 43.1787 18.7627 43.264 18.144C43.4347 16.5867 43.4347 15.744 43.264 15.616C43.1787 15.5947 43.1573 15.5413 43.2 15.456C43.2427 15.3707 43.2 15.2853 43.072 15.2C42.944 15.1147 42.88 15.04 42.88 14.976C42.88 14.912 42.7627 14.784 42.528 14.592C42.1227 14.272 42.0373 14.112 42.272 14.112C42.3573 14.112 42.3893 14.0587 42.368 13.952C42.3467 13.9093 42.368 13.8773 42.432 13.856C42.816 13.728 43.2 13.7493 43.584 13.92C43.6053 13.9413 43.6267 13.952 43.648 13.952C43.7973 14.0587 43.968 14.0587 44.16 13.952C45.056 13.504 46.4427 12.2987 48.32 10.336C48.7893 9.888 49.088 9.568 49.216 9.376C49.344 9.184 49.3653 9.024 49.28 8.896C49.216 8.768 49.216 8.704 49.28 8.704C49.3653 8.704 49.408 8.66133 49.408 8.576ZM46.208 21.376C45.76 21.248 45.5253 21.184 45.504 21.184C45.4827 21.184 45.408 21.5147 45.28 22.176C45.152 22.8373 45.088 23.2427 45.088 23.392C45.088 23.52 45.472 23.2747 46.24 22.656C46.56 22.3787 46.72 22.2613 46.72 22.304C46.6987 22.4107 46.7093 22.464 46.752 22.464C46.7733 22.464 46.8373 22.4213 46.944 22.336C47.0507 22.2507 47.1467 22.1653 47.232 22.08C47.3173 21.9733 47.3493 21.8987 47.328 21.856C47.2213 21.7707 46.848 21.6107 46.208 21.376ZM35.168 1.504C35.168 1.48267 35.1893 1.48267 35.232 1.504C35.2747 1.504 35.3387 1.51467 35.424 1.536C35.5093 1.55733 35.6053 1.57867 35.712 1.6C36.096 1.68533 36.5013 1.81333 36.928 1.984C37.376 2.13333 37.6 2.24 37.6 2.304C37.6 2.34667 37.664 2.38933 37.792 2.432C38.176 2.51733 38.5387 2.90133 38.88 3.584C39.008 3.86133 39.0827 4.08533 39.104 4.256C39.1253 4.42667 39.1253 4.85333 39.104 5.536C39.104 6.47467 39.136 6.944 39.2 6.944C39.2853 6.944 39.488 7.01867 39.808 7.168C40.1493 7.31733 40.3627 7.41333 40.448 7.456C40.5547 7.49867 40.6933 7.57333 40.864 7.68C41.056 7.78667 41.1413 7.95733 41.12 8.192C41.12 8.40533 41.1947 8.53333 41.344 8.576C41.5787 8.64 41.5893 8.72533 41.376 8.832C41.2693 8.85333 41.152 8.88533 41.024 8.928C40.768 8.94933 40.544 9.056 40.352 9.248C40.1813 9.44 40 9.55733 39.808 9.6C39.6373 9.64267 39.4453 9.76 39.232 9.952C39.04 10.1227 38.9227 10.208 38.88 10.208C38.8373 10.208 38.816 10.2507 38.816 10.336C38.816 10.4213 38.7627 10.4747 38.656 10.496C38.6133 10.496 38.5707 10.4853 38.528 10.464L38.592 10.4C38.5067 10.4 38.4 10.4533 38.272 10.56C38.1653 10.688 38.0693 10.752 37.984 10.752C37.92 10.752 37.856 10.976 37.792 11.424C37.7493 11.8933 37.632 12.6187 37.44 13.6C37.4187 13.664 37.408 13.696 37.408 13.696C37.4293 13.696 37.4933 13.664 37.6 13.6C37.6853 13.4933 37.7707 13.44 37.856 13.44C37.9627 13.44 38.1013 13.408 38.272 13.344C38.4427 13.2587 38.656 13.2907 38.912 13.44C39.1893 13.568 39.4987 13.6427 39.84 13.664C40.4373 13.728 40.8427 13.8987 41.056 14.176C41.2907 14.4533 41.4187 14.9653 41.44 15.712C41.4613 16.3307 41.4187 17.056 41.312 17.888C41.056 19.552 40.8213 20.6613 40.608 21.216C40.5227 21.408 40.4907 21.536 40.512 21.6C40.5547 21.664 40.544 21.7173 40.48 21.76C40.416 21.8027 40.384 21.8987 40.384 22.048C40.384 22.176 40.2987 22.4 40.128 22.72C39.9787 23.04 39.8827 23.3173 39.84 23.552C39.8187 23.7653 39.776 23.872 39.712 23.872C39.6693 23.872 39.6053 23.9573 39.52 24.128C39.456 24.32 39.3813 24.4267 39.296 24.448C39.2107 24.4693 39.1787 24.5227 39.2 24.608C39.2427 24.7147 39.232 24.768 39.168 24.768C39.1467 24.768 39.1253 24.768 39.104 24.768C39.104 24.7893 39.104 24.8213 39.104 24.864C39.104 24.9067 39.0293 25.0027 38.88 25.152C38.7307 25.3227 38.592 25.4293 38.464 25.472C38.3787 25.4933 38.3467 25.536 38.368 25.6C38.4107 25.6853 38.3893 25.7707 38.304 25.856C38.2187 25.9627 38.144 26.1013 38.08 26.272C37.9947 26.4213 37.856 26.5707 37.664 26.72C37.4933 26.8693 37.3867 26.9227 37.344 26.88C37.344 26.88 37.3227 26.8907 37.28 26.912C37.2373 26.9333 37.1947 26.9653 37.152 27.008C37.1307 27.072 37.0987 27.1253 37.056 27.168L36.864 27.552L36.768 27.168C36.7467 26.9547 36.672 26.784 36.544 26.656C36.4373 26.5493 36.384 26.4427 36.384 26.336C36.384 26.2293 36.3413 26.144 36.256 26.08C36.0213 25.8453 35.904 25.6 35.904 25.344C35.904 25.1947 35.8613 25.0773 35.776 24.992C35.712 24.928 35.6587 24.6613 35.616 24.192C35.5733 23.744 35.5093 23.1787 35.424 22.496C35.3173 21.9413 35.264 21.408 35.264 20.896C35.2853 20.3627 35.3387 20.0853 35.424 20.064C35.4453 20.064 35.4667 20.096 35.488 20.16C35.5093 20.224 35.5413 20.3093 35.584 20.416C35.6267 20.5227 35.6587 20.6613 35.68 20.832C35.8507 21.7707 36.032 22.336 36.224 22.528C36.3947 22.656 36.48 22.7627 36.48 22.848C36.48 22.912 36.512 22.9227 36.576 22.88C36.64 22.8373 36.672 22.7627 36.672 22.656C36.672 22.5493 36.7573 22.4107 36.928 22.24C37.056 22.0907 37.2373 21.728 37.472 21.152C37.728 20.576 37.856 20.2027 37.856 20.032C37.856 19.8827 37.92 19.6053 38.048 19.2C38.176 18.7947 38.2187 18.528 38.176 18.4C38.1547 18.2507 38.176 18.0693 38.24 17.856C38.304 17.6213 38.3787 17.2053 38.464 16.608C38.5493 16.1387 38.5707 15.84 38.528 15.712C38.4853 15.5627 38.3787 15.488 38.208 15.488C38.0587 15.488 37.8667 15.4453 37.632 15.36C37.376 15.2533 37.2053 15.2107 37.12 15.232C37.056 15.232 37.0027 15.3067 36.96 15.456C36.9173 15.6053 36.8213 15.8293 36.672 16.128C36.544 16.4267 36.4267 16.736 36.32 17.056C36.2133 17.3547 36.0533 17.664 35.84 17.984C35.648 18.2827 35.5307 18.5067 35.488 18.656C35.4453 18.784 35.3173 19.0507 35.104 19.456C34.8907 19.8613 34.752 20.1067 34.688 20.192C34.624 20.256 34.592 20.3413 34.592 20.448C34.592 20.5333 34.5493 20.6187 34.464 20.704C34.3787 20.768 34.3253 20.864 34.304 20.992C34.2187 21.376 33.984 21.8987 33.6 22.56C33.216 23.2427 32.8747 23.68 32.576 23.872C32.512 23.9147 32.4587 23.9147 32.416 23.872C32.3733 23.8293 32.3413 23.7333 32.32 23.584C32.2773 23.3493 32.192 23.2213 32.064 23.2C31.9573 23.1573 31.8827 23.04 31.84 22.848C31.8187 22.656 31.744 22.5173 31.616 22.432C31.5093 22.3467 31.456 22.1867 31.456 21.952C31.4773 21.7173 31.4453 21.5787 31.36 21.536C31.2747 21.4933 31.2747 21.3227 31.36 21.024C31.4667 20.704 31.5947 20.4693 31.744 20.32C31.9147 20.1493 32.0427 19.9467 32.128 19.712C32.4053 19.1147 33.0133 17.76 33.952 15.648C34.5493 14.2827 34.752 13.6 34.56 13.6C34.496 13.5787 34.3467 13.664 34.112 13.856C33.856 14.0693 33.6853 14.176 33.6 14.176C33.5147 14.176 33.376 14.24 33.184 14.368C33.0347 14.4533 32.9173 14.496 32.832 14.496C32.7467 14.4747 32.5333 14.4107 32.192 14.304C31.744 14.112 31.4027 13.92 31.168 13.728C30.9333 13.536 30.784 13.44 30.72 13.44C30.656 13.44 30.592 13.3867 30.528 13.28C30.336 13.024 30.0907 12.896 29.792 12.896C29.664 12.896 29.6 12.7787 29.6 12.544C29.6 12.4373 29.6107 12.3627 29.632 12.32C29.6747 12.256 29.7493 12.224 29.856 12.224C29.984 12.224 30.336 12.0853 30.912 11.808C31.5093 11.5093 31.9573 11.232 32.256 10.976C32.5547 10.7627 32.7467 10.656 32.832 10.656C32.9387 10.656 33.0453 10.592 33.152 10.464C33.28 10.336 33.376 10.272 33.44 10.272C33.4827 10.272 33.6427 10.176 33.92 9.984C34.1973 9.792 34.3573 9.65333 34.4 9.568C34.4427 9.504 34.5067 9.472 34.592 9.472C34.6773 9.472 34.72 9.44 34.72 9.376C34.72 9.312 34.9227 9.184 35.328 8.992C35.7333 8.77867 35.968 8.61867 36.032 8.512C36.096 8.384 36.1813 8.32 36.288 8.32C36.3947 8.32 36.4587 8.27733 36.48 8.192C36.5227 8.08533 36.576 8.064 36.64 8.128C36.704 8.17067 36.7787 8.14933 36.864 8.064C36.9707 7.97867 37.024 7.88267 37.024 7.776C37.024 7.66933 36.9173 7.52 36.704 7.328C36.5547 7.17867 36.4693 7.06133 36.448 6.976C36.4267 6.89067 36.416 6.72 36.416 6.464C36.4373 6.05867 36.448 5.80267 36.448 5.696C36.4693 5.568 36.512 5.55733 36.576 5.664C36.64 5.74933 36.672 5.71733 36.672 5.568C36.6507 5.46133 36.608 5.408 36.544 5.408C36.48 5.472 36.4373 5.344 36.416 5.024C36.3947 4.91733 36.384 4.77867 36.384 4.608C36.3413 4.24533 36.2667 4.032 36.16 3.968C36.0747 3.88266 35.9787 3.59466 35.872 3.104C35.7653 2.592 35.6587 2.29333 35.552 2.208C35.488 2.144 35.4027 2.02667 35.296 1.856C35.2107 1.68533 35.168 1.568 35.168 1.504ZM36.928 3.872C36.8213 3.25333 36.7467 2.92267 36.704 2.88C36.6613 2.816 36.672 3.22133 36.736 4.096C36.7573 4.33067 36.7787 4.544 36.8 4.736C36.8427 4.94933 36.8747 5.16267 36.896 5.376C36.9173 5.568 36.96 5.74933 37.024 5.92C37.0453 6.00533 37.056 5.984 37.056 5.856C37.0987 5.536 37.056 4.87467 36.928 3.872ZM38.592 10.016C38.656 10.016 38.7093 9.984 38.752 9.92C38.7947 9.856 38.7627 9.824 38.656 9.824C38.5493 9.824 38.496 9.856 38.496 9.92C38.496 9.984 38.528 10.016 38.592 10.016ZM34.496 13.44C34.56 13.44 34.592 13.408 34.592 13.344C34.592 13.28 34.5813 13.248 34.56 13.248C34.5387 13.248 34.5067 13.28 34.464 13.344C34.4427 13.408 34.4533 13.44 34.496 13.44ZM44.96 0.768C45.152 0.554665 45.2587 0.447998 45.28 0.447998C45.3227 0.447998 45.408 0.511998 45.536 0.639999C45.6853 0.767999 45.856 0.863999 46.048 0.927999C46.24 0.970666 46.4427 1.07733 46.656 1.248C46.8693 1.39733 46.9547 1.504 46.912 1.568C46.8693 1.61067 46.9227 1.68533 47.072 1.792C47.2213 1.87733 47.296 2.12267 47.296 2.528C47.3173 3.296 47.2213 4.04267 47.008 4.768C46.9867 4.85333 47.0187 4.896 47.104 4.896C47.1893 4.896 47.328 4.88533 47.52 4.864C47.904 4.82133 48.32 4.69333 48.768 4.48C49.216 4.24533 49.4613 4.13867 49.504 4.16C49.5467 4.16 49.568 4.13867 49.568 4.096C49.568 4.032 49.6427 3.968 49.792 3.904C49.9627 3.84 50.0267 3.76533 49.984 3.68C49.9413 3.63733 49.9947 3.59467 50.144 3.552C50.208 3.53067 50.2827 3.54133 50.368 3.584L50.4 3.552C50.3787 3.552 50.3467 3.52 50.304 3.456C50.24 3.37067 50.2293 3.328 50.272 3.328C50.336 3.328 50.4213 3.37067 50.528 3.456C50.6987 3.56267 50.8587 3.584 51.008 3.52C51.264 3.37067 51.392 3.38133 51.392 3.552C51.392 3.57333 51.3707 3.60533 51.328 3.648C51.264 3.75467 51.2853 3.808 51.392 3.808C51.52 3.808 51.6587 3.86133 51.808 3.968C51.9787 4.05333 52.0747 4.08533 52.096 4.064L52.224 4.288C52.3307 4.45867 52.4587 4.544 52.608 4.544C52.6933 4.56533 52.736 4.58667 52.736 4.608C52.672 4.62933 52.64 4.672 52.64 4.736C52.64 4.8 52.672 4.81067 52.736 4.768C52.736 4.768 52.7467 4.77867 52.768 4.8C52.8107 4.82133 52.8427 4.864 52.864 4.928C52.8853 4.992 52.9067 5.06667 52.928 5.152C52.9493 5.216 52.96 5.29067 52.96 5.376C52.9813 5.44 52.992 5.49333 52.992 5.536C52.992 5.6 53.0453 5.68533 53.152 5.792C53.2587 5.87733 53.2373 5.96267 53.088 6.048C52.4907 6.368 52.096 6.63467 51.904 6.848H51.872C51.8933 6.80533 51.8507 6.784 51.744 6.784C51.5947 6.784 51.424 6.848 51.232 6.976C51.0827 7.06133 50.9653 7.104 50.88 7.104C50.816 7.104 50.6453 7.18933 50.368 7.36C50.0907 7.53067 49.952 7.59467 49.952 7.552C49.952 7.50933 49.856 7.552 49.664 7.68C49.4933 7.808 49.408 7.85067 49.408 7.808H49.312C49.2693 7.89333 49.0773 8.02133 48.736 8.192C48.3947 8.36267 48.0533 8.576 47.712 8.832C47.3707 9.06667 47.136 9.184 47.008 9.184C46.9013 9.184 46.848 9.22667 46.848 9.312C46.848 9.39733 46.7947 9.42933 46.688 9.408C46.5813 9.36533 46.5067 9.408 46.464 9.536C46.4427 9.64267 46.1867 9.77067 45.696 9.92L44.992 10.144L44.736 9.824C44.5653 9.65333 44.352 9.54667 44.096 9.504C43.8827 9.46133 43.6267 9.33333 43.328 9.12C43.0293 8.90667 42.816 8.68267 42.688 8.448C42.56 8.21333 42.4427 8.07467 42.336 8.032C42.2507 7.98933 42.208 7.904 42.208 7.776C42.208 7.648 42.176 7.53067 42.112 7.424C42.0693 7.296 42.1013 7.09333 42.208 6.816C42.336 6.53867 42.56 6.336 42.88 6.208C43.2213 6.08 43.52 5.81333 43.776 5.408C44.1387 4.85333 44.416 4.26667 44.608 3.648C45.0133 2.304 45.0987 1.57866 44.864 1.472C44.608 1.38667 44.64 1.152 44.96 0.768ZM84.48 23.04L84.864 22.976C84.864 22.9973 84.8427 23.0187 84.8 23.04C84.672 23.0827 84.544 23.104 84.416 23.104C84.288 23.104 84.3093 23.0827 84.48 23.04ZM86.976 22.432C86.912 22.432 86.88 22.4 86.88 22.336C86.88 22.272 86.8907 22.24 86.912 22.24C86.9547 22.24 86.9973 22.272 87.04 22.336C87.0827 22.4 87.0613 22.432 86.976 22.432ZM66.112 4.448C65.7067 4.064 65.504 3.86133 65.504 3.84C65.504 3.79733 65.6427 3.776 65.92 3.776C66.1973 3.776 66.4747 3.78667 66.752 3.808C67.0507 3.808 67.232 3.82933 67.296 3.872C67.4453 3.95733 67.6373 4.05333 67.872 4.16C68.0853 4.224 68.192 4.24533 68.192 4.224C68.192 4.20267 68.192 4.18133 68.192 4.16C68.1067 3.968 68.4907 4.18133 69.344 4.8C69.6213 4.97067 69.792 5.09867 69.856 5.184C70.1973 5.61067 70.304 5.93067 70.176 6.144C70.112 6.272 70.112 6.38933 70.176 6.496C70.2827 6.56 70.272 7.552 70.144 9.472C70.144 9.87733 70.1227 10.1013 70.08 10.144C70.0373 10.1653 70.016 10.2613 70.016 10.432C70.016 10.56 70.0267 10.6453 70.048 10.688C70.0907 10.7093 70.208 10.7093 70.4 10.688C70.656 10.6453 70.7947 10.6667 70.816 10.752C70.8587 10.816 70.976 10.848 71.168 10.848C71.36 10.848 71.4987 10.8907 71.584 10.976C71.6693 11.04 71.9467 11.0613 72.416 11.04C72.9067 10.9973 73.184 11.008 73.248 11.072C73.312 11.136 73.472 11.1573 73.728 11.136C74.0267 11.0507 74.2933 11.104 74.528 11.296C74.7627 11.4667 75.0507 11.8293 75.392 12.384L75.584 12.736C75.648 12.7147 75.6267 12.544 75.52 12.224C75.4987 12.2027 75.4987 12.192 75.52 12.192C75.5413 12.2133 75.5947 12.2773 75.68 12.384C75.7653 12.5973 75.8507 12.704 75.936 12.704C76 12.704 76.128 12.64 76.32 12.512C76.5333 12.3627 76.64 12.2667 76.64 12.224C76.64 12.1813 76.672 12.16 76.736 12.16C76.8213 12.16 77.1627 11.9787 77.76 11.616C78.3573 11.2533 78.656 11.072 78.656 11.072C78.6773 11.072 78.7307 10.6773 78.816 9.888C78.9013 9.07733 78.944 8.576 78.944 8.384C78.944 8.064 78.9013 7.63733 78.816 7.104C78.7307 6.57067 78.6453 6.208 78.56 6.016C78.4533 5.80267 78.4107 5.67467 78.432 5.632C78.4747 5.58933 78.56 5.57867 78.688 5.6C79.1573 5.68533 79.5307 5.99467 79.808 6.528C79.9147 6.82667 79.9893 6.95467 80.032 6.912C80.0533 6.912 80.0747 6.89067 80.096 6.848C80.16 6.72 80.2453 6.784 80.352 7.04C80.3733 7.104 80.4053 7.21067 80.448 7.36C80.5973 7.85067 80.6613 8.40533 80.64 9.024C80.6187 9.62133 80.64 9.92 80.704 9.92C80.7893 9.92 80.8427 9.504 80.864 8.672C80.864 7.968 80.8747 7.62667 80.896 7.648C80.9387 7.66933 81.0027 8.07467 81.088 8.864C81.1093 9.35467 81.152 9.62133 81.216 9.664C81.3013 9.68533 81.536 9.6 81.92 9.408C82.8587 8.93867 83.84 8.69333 84.864 8.672C85.4827 8.62933 85.792 8.65067 85.792 8.736C85.8133 8.82133 85.952 8.88533 86.208 8.928C86.4213 8.94933 86.6667 9.04533 86.944 9.216C87.2427 9.38667 87.392 9.51467 87.392 9.6C87.4133 9.94133 87.392 10.1973 87.328 10.368C87.2853 10.432 87.2427 10.4853 87.2 10.528C87.1573 10.5707 87.1253 10.592 87.104 10.592C87.0827 10.5707 87.04 10.6027 86.976 10.688C86.912 10.752 86.8587 10.8373 86.816 10.944C86.6667 11.2427 86.5173 11.4667 86.368 11.616C86.2187 11.7653 86.1333 11.872 86.112 11.936C86.048 12.192 85.92 12.4267 85.728 12.64C85.536 12.832 85.44 12.9067 85.44 12.864C85.44 12.8 85.3867 12.8107 85.28 12.896C85.1733 12.96 85.1733 13.0133 85.28 13.056C85.4293 13.1627 85.28 13.4613 84.832 13.952C84.64 14.1653 84.544 14.304 84.544 14.368C84.544 14.4107 84.4587 14.464 84.288 14.528C84.1173 14.5707 84.0107 14.656 83.968 14.784C83.9467 14.912 83.8187 15.0827 83.584 15.296C83.392 15.488 83.296 15.5733 83.296 15.552C83.296 15.5307 83.3067 15.488 83.328 15.424L83.424 15.2L83.2 15.392C83.0507 15.5413 82.976 15.6267 82.976 15.648C82.976 15.6907 82.9013 15.7973 82.752 15.968C82.6027 16.1173 82.5067 16.192 82.464 16.192C82.4427 16.192 82.336 16.288 82.144 16.48C81.6747 16.928 81.44 17.1093 81.44 17.024C81.44 16.96 81.6 16.7573 81.92 16.416C82.2613 16.0747 82.432 15.872 82.432 15.808C82.432 15.744 82.368 15.744 82.24 15.808C82.1547 15.872 82.0907 15.8827 82.048 15.84C82.0267 15.7973 82.0693 15.712 82.176 15.584L81.76 15.872C81.376 16.2347 81.152 16.4587 81.088 16.544C81.0453 16.608 80.96 16.64 80.832 16.64C80.768 16.64 80.7253 16.6613 80.704 16.704C80.6827 16.7467 80.672 16.7787 80.672 16.8C80.7147 16.8427 80.6933 16.896 80.608 16.96C80.5227 17.0027 80.4053 17.0347 80.256 17.056C80.1067 17.0773 79.936 17.1307 79.744 17.216C79.552 17.3013 79.456 17.312 79.456 17.248C79.456 17.184 79.3493 17.152 79.136 17.152H78.752L79.2 16.96C79.52 16.832 79.68 16.736 79.68 16.672C79.68 16.608 79.6053 16.5973 79.456 16.64C79.3707 16.7467 79.2533 16.7787 79.104 16.736C78.9547 16.6933 78.88 16.6293 78.88 16.544C78.88 16.5013 78.8373 16.512 78.752 16.576C78.6667 16.64 78.5387 16.6613 78.368 16.64C78.2187 16.6187 78.1333 16.5973 78.112 16.576C78.0907 16.5547 78.08 16.48 78.08 16.352C78.1013 16.2027 77.9627 16.0427 77.664 15.872C77.3867 15.68 77.248 15.5627 77.248 15.52C77.248 15.456 77.1627 15.392 76.992 15.328C76.8213 15.264 76.736 15.2853 76.736 15.392C76.736 15.7333 76.8747 16.5547 77.152 17.856C77.2373 18.2187 77.28 18.496 77.28 18.688C77.28 18.88 77.312 18.9653 77.376 18.944C77.44 18.944 77.4827 18.9653 77.504 19.008C77.5253 19.0507 77.5467 19.104 77.568 19.168C77.5893 19.296 77.664 19.392 77.792 19.456C77.92 19.4987 78.1973 19.5627 78.624 19.648C79.0507 19.7333 79.7547 19.776 80.736 19.776C81.7173 19.776 82.368 19.744 82.688 19.68C83.008 19.616 83.168 19.616 83.168 19.68C83.1893 19.744 83.2747 19.776 83.424 19.776C83.5733 19.776 83.6693 19.7547 83.712 19.712C83.776 19.648 83.8613 19.6267 83.968 19.648C84.096 19.6693 84.2453 19.6267 84.416 19.52C84.608 19.392 84.8427 19.3067 85.12 19.264C85.3973 19.2213 85.536 19.1787 85.536 19.136C85.536 19.0933 85.4613 18.9973 85.312 18.848C85.1627 18.6773 85.1307 18.5493 85.216 18.464C85.3227 18.3573 85.4827 18.4 85.696 18.592C85.9307 18.7627 86.08 18.848 86.144 18.848C86.2293 18.848 86.3147 18.8907 86.4 18.976C86.4853 19.0613 86.6453 19.1253 86.88 19.168C87.3493 19.232 87.4773 19.3707 87.264 19.584C87.136 19.648 87.136 19.68 87.264 19.68C87.2853 19.7013 87.328 19.712 87.392 19.712C87.6693 19.712 87.8613 19.744 87.968 19.808C88.096 19.872 88.2667 19.872 88.48 19.808C88.6933 19.744 88.864 19.7547 88.992 19.84C89.1413 19.9253 89.3013 19.968 89.472 19.968C89.664 19.968 89.7707 20.0427 89.792 20.192C89.8347 20.32 89.8987 20.3947 89.984 20.416C90.0907 20.4373 90.0267 20.5013 89.792 20.608C89.7707 20.6293 89.7387 20.6507 89.696 20.672C89.3973 20.8427 89.2267 20.9493 89.184 20.992C89.1627 21.0347 89.088 21.0453 88.96 21.024C88.9387 21.024 88.9173 21.0453 88.896 21.088C88.8747 21.1093 88.864 21.152 88.864 21.216C88.864 21.408 88.896 21.5147 88.96 21.536C89.0453 21.536 89.0987 21.5147 89.12 21.472C89.2053 21.28 89.2693 21.3013 89.312 21.536C89.3333 21.5573 89.344 21.6 89.344 21.664C89.3227 21.856 89.248 21.952 89.12 21.952C88.992 21.952 88.8747 21.9733 88.768 22.016C88.6613 22.0373 88.576 22.08 88.512 22.144C88.448 22.208 88.4267 22.2613 88.448 22.304L88.224 22.24C88.096 22.1547 88 22.0693 87.936 21.984C87.9147 21.9627 87.8933 21.9627 87.872 21.984C87.872 21.984 87.872 21.9947 87.872 22.016C87.8933 22.2933 87.8187 22.464 87.648 22.528L87.424 22.656L87.616 22.464C87.7653 22.3147 87.7867 22.24 87.68 22.24C87.68 22.2613 87.6587 22.272 87.616 22.272C87.488 22.2933 87.3813 22.2613 87.296 22.176C87.232 22.0693 87.1253 22.0693 86.976 22.176C86.72 22.304 86.656 22.4213 86.784 22.528C86.8053 22.5493 86.8693 22.5493 86.976 22.528C87.1253 22.5067 87.1893 22.528 87.168 22.592C87.1253 22.6773 87.0187 22.72 86.848 22.72C86.6773 22.72 86.592 22.6667 86.592 22.56C86.592 22.4747 86.5387 22.4533 86.432 22.496C86.3253 22.5173 86.1547 22.5387 85.92 22.56C85.8347 22.5813 85.76 22.6133 85.696 22.656C85.6533 22.6987 85.632 22.7413 85.632 22.784C85.696 22.848 85.6853 22.88 85.6 22.88C85.5147 22.88 85.408 22.912 85.28 22.976C85.1733 22.9973 85.1093 23.008 85.088 23.008C85.088 22.9867 85.088 22.9547 85.088 22.912C85.1093 22.848 85.1093 22.8053 85.088 22.784C85.0667 22.7413 85.0133 22.72 84.928 22.72C84.7573 22.7627 84.544 22.816 84.288 22.88C84.0533 22.944 83.904 22.9973 83.84 23.04C83.7973 23.1467 82.944 23.2107 81.28 23.232C80.128 23.232 79.4667 23.1893 79.296 23.104C79.1467 22.9973 79.0293 22.9653 78.944 23.008C78.88 23.072 78.816 23.1147 78.752 23.136C78.7093 23.136 78.6773 23.1253 78.656 23.104C78.6347 23.0613 78.6347 23.008 78.656 22.944C78.6773 22.7947 78.656 22.72 78.592 22.72C78.5707 22.72 78.5387 22.7627 78.496 22.848L78.432 22.816C78.4107 22.6667 78.3467 22.592 78.24 22.592C77.9413 22.592 77.504 22.2933 76.928 21.696C76.288 20.9707 75.8827 20.512 75.712 20.32C75.5627 20.1067 75.4987 19.9467 75.52 19.84C75.52 19.776 75.52 19.7333 75.52 19.712C75.4773 19.84 75.4453 19.904 75.424 19.904C75.3387 19.904 75.2533 19.7547 75.168 19.456C75.0827 19.1573 75.0293 18.8373 75.008 18.496C74.944 18.0907 74.8693 17.6853 74.784 17.28C74.72 16.96 74.6347 16.768 74.528 16.704C74.4427 16.6187 74.1867 16.5973 73.76 16.64C73.4827 16.7253 73.216 16.7573 72.96 16.736C72.704 16.6933 72.512 16.7573 72.384 16.928C72.2773 17.0773 72.16 17.1733 72.032 17.216C71.9253 17.2587 71.872 17.3333 71.872 17.44C71.8933 17.5467 71.936 17.5893 72 17.568C72.064 17.5467 72.096 17.504 72.096 17.44L72.16 17.408C72.2027 17.4507 72.128 17.632 71.936 17.952C71.7653 18.272 71.68 18.4427 71.68 18.464C71.68 18.528 71.5947 18.6347 71.424 18.784C71.2747 18.912 71.1893 18.976 71.168 18.976C71.1467 18.9547 71.1253 18.9653 71.104 19.008C71.0827 19.0507 71.072 19.104 71.072 19.168C71.008 19.3387 70.9227 19.392 70.816 19.328L70.784 19.36C70.976 19.5093 70.7627 19.8933 70.144 20.512C69.8453 20.8533 69.664 21.0987 69.6 21.248C69.5573 21.3973 69.4827 21.4613 69.376 21.44C69.3333 21.3973 69.28 21.408 69.216 21.472C69.1733 21.536 69.1307 21.632 69.088 21.76C68.9813 22.0373 68.8853 22.176 68.8 22.176C68.736 22.176 68.5973 22.2933 68.384 22.528C68.256 22.7627 68.0853 22.9867 67.872 23.2C67.68 23.4133 67.5413 23.52 67.456 23.52C67.392 23.52 67.3493 23.5733 67.328 23.68C67.3067 23.7653 67.232 23.808 67.104 23.808C66.9973 23.808 66.912 23.8507 66.848 23.936C66.784 24.0213 66.5707 24.192 66.208 24.448C65.8667 24.704 65.632 24.864 65.504 24.928C65.44 25.0347 65.2907 25.056 65.056 24.992C64.864 24.9067 64.736 24.8 64.672 24.672C64.608 24.5653 64.4267 24.4053 64.128 24.192C63.8293 24 63.5947 23.8827 63.424 23.84C63.2533 23.8187 63.1787 23.7333 63.2 23.584C63.2 23.52 63.1893 23.4667 63.168 23.424C63.168 23.3813 63.1467 23.36 63.104 23.36C63.0827 23.36 63.0507 23.3493 63.008 23.328C62.9867 23.3067 62.976 23.2747 62.976 23.232C62.976 23.104 63.0187 23.04 63.104 23.04C63.232 23.04 63.2427 22.9867 63.136 22.88C63.1147 22.8373 63.0613 22.816 62.976 22.816C62.8693 22.7947 62.8053 22.7307 62.784 22.624C62.784 22.496 62.8373 22.4107 62.944 22.368C63.0507 22.3253 63.104 22.272 63.104 22.208C63.104 22.144 63.1893 22.0267 63.36 21.856C63.552 21.664 63.6587 21.5253 63.68 21.44C63.7013 21.3547 63.9467 21.312 64.416 21.312C64.8853 21.2907 65.2907 21.2267 65.632 21.12C65.8667 21.0133 66.016 20.9387 66.08 20.896C66.144 20.832 66.208 20.672 66.272 20.416C66.5707 19.2 66.8053 17.9093 66.976 16.544C66.9973 16.3093 66.9653 16.1707 66.88 16.128C66.816 16.0853 66.56 16.0107 66.112 15.904C65.7493 15.8827 65.5147 15.8507 65.408 15.808C65.3013 15.744 64.992 15.6373 64.48 15.488C63.968 15.3173 63.616 15.2 63.424 15.136C63.2107 15.1147 63.04 15.0507 62.912 14.944C62.784 14.816 62.6667 14.752 62.56 14.752C62.4533 14.752 62.3787 14.7093 62.336 14.624C62.3147 14.5173 62.2293 14.4427 62.08 14.4C61.9307 14.336 61.984 14.272 62.24 14.208C62.496 14.1227 62.88 14.0373 63.392 13.952C64.352 13.8027 65.5253 13.2907 66.912 12.416L67.36 12.064L67.328 11.424C67.3067 10.9973 67.2747 10.208 67.232 9.056C67.1893 7.56267 67.0933 6.528 66.944 5.952C66.7947 5.376 66.5173 4.87467 66.112 4.448ZM82.816 10.752C82.7947 10.6667 82.7413 10.624 82.656 10.624C82.592 10.624 82.592 10.6773 82.656 10.784C82.656 10.8267 82.6027 10.8907 82.496 10.976C82.4107 11.0613 82.2293 11.1893 81.952 11.36C81.44 11.5947 81.1307 11.7227 81.024 11.744C80.9387 11.744 80.8427 11.9787 80.736 12.448C80.3733 13.9627 80.224 14.752 80.288 14.816C80.3307 14.816 80.416 14.7413 80.544 14.592C80.672 14.4427 80.8213 14.272 80.992 14.08C81.184 13.8667 81.3227 13.7067 81.408 13.6L82.048 12.64C82.2827 12.32 82.4853 11.9573 82.656 11.552C82.8267 11.1253 82.88 10.8587 82.816 10.752ZM73.824 12.384C73.7173 12.1067 73.5787 11.9253 73.408 11.84C73.2373 11.7333 73.1413 11.616 73.12 11.488C73.12 11.4027 73.1093 11.36 73.088 11.36C73.088 11.36 73.056 11.392 72.992 11.456C72.9067 11.584 72.8533 11.616 72.832 11.552C72.832 11.4667 72.7467 11.4667 72.576 11.552C72.4053 11.616 72.2987 11.6587 72.256 11.68C72.2347 11.68 72.2133 11.7547 72.192 11.904C72.192 12.0533 72.192 12.1813 72.192 12.288C72.192 12.3947 72.192 12.4587 72.192 12.48C72.2133 12.48 72.2773 12.4373 72.384 12.352C72.512 12.2453 72.5973 12.2133 72.64 12.256C72.6827 12.2773 72.704 12.32 72.704 12.384C72.704 12.448 72.6613 12.5333 72.576 12.64C72.4907 12.7253 72.3733 12.8107 72.224 12.896C71.968 13.0667 71.6907 13.2907 71.392 13.568C71.0933 13.824 70.784 14.048 70.464 14.24C70.1653 14.432 70.016 14.5493 70.016 14.592C69.9947 15.0827 69.9413 15.5093 69.856 15.872C69.8133 16.128 69.7813 16.3093 69.76 16.416C69.76 16.5013 69.728 16.6187 69.664 16.768C69.6213 16.832 69.5893 16.864 69.568 16.864C69.5467 16.864 69.5253 16.7893 69.504 16.64C69.44 16.4907 69.3973 16.3413 69.376 16.192C69.376 16.0427 69.3547 16.0213 69.312 16.128C69.312 16.1707 69.3013 16.2453 69.28 16.352C69.1947 16.6293 69.088 17.024 68.96 17.536C68.8533 18.048 68.768 18.3573 68.704 18.464C68.6613 18.5493 68.6613 18.6133 68.704 18.656C68.7467 18.6773 68.7893 18.6773 68.832 18.656C68.896 18.6347 68.9493 18.592 68.992 18.528C69.0347 18.464 69.056 18.4 69.056 18.336C69.056 18.208 69.088 18.144 69.152 18.144C69.216 18.144 69.248 18.0267 69.248 17.792C69.2693 17.5573 69.3227 17.4293 69.408 17.408C69.4507 17.3653 69.472 17.3547 69.472 17.376C69.4933 17.3973 69.504 17.4187 69.504 17.44C69.44 17.5253 69.44 17.5893 69.504 17.632C69.5893 17.6533 69.6 17.7173 69.536 17.824C69.5147 17.952 69.5467 18.016 69.632 18.016C69.7813 17.9733 70.08 17.7493 70.528 17.344C70.912 16.9813 71.0827 16.7147 71.04 16.544C70.9333 16.2667 70.8587 16.0853 70.816 16C70.7733 15.9147 70.688 15.872 70.56 15.872C70.432 15.872 70.3573 15.8507 70.336 15.808C70.3147 15.7653 70.3467 15.7333 70.432 15.712C70.496 15.6693 70.5493 15.6373 70.592 15.616C70.784 15.5947 70.88 15.5627 70.88 15.52C70.88 15.456 70.944 15.424 71.072 15.424C71.2213 15.424 71.3067 15.392 71.328 15.328C71.3707 15.264 71.4667 15.232 71.616 15.232C71.872 15.2533 72.2987 15.0827 72.896 14.72C73.2373 14.464 73.4293 14.336 73.472 14.336C73.5147 14.336 73.632 14.2613 73.824 14.112C74.016 13.9413 74.144 13.8453 74.208 13.824C74.272 13.8027 74.2507 13.632 74.144 13.312C74.0587 12.9707 73.952 12.6613 73.824 12.384ZM80.288 12.704C80.352 12.4267 80.352 12.2987 80.288 12.32C80.2453 12.32 80.2133 12.3947 80.192 12.544C80.1493 12.7787 80.1387 12.9067 80.16 12.928L80.288 12.704ZM84.576 13.824C84.64 13.824 84.672 13.8027 84.672 13.76C84.672 13.696 84.6507 13.664 84.608 13.664C84.5867 13.664 84.5547 13.696 84.512 13.76C84.4907 13.8027 84.512 13.824 84.576 13.824ZM77.376 14.432C77.4827 14.432 77.5147 14.4 77.472 14.336C77.4293 14.272 77.376 14.24 77.312 14.24C77.2693 14.24 77.248 14.272 77.248 14.336C77.248 14.4 77.2907 14.432 77.376 14.432ZM82.88 15.264C82.944 15.2213 82.976 15.1893 82.976 15.168C82.976 15.1253 82.944 15.104 82.88 15.104C82.816 15.104 82.784 15.136 82.784 15.2C82.784 15.264 82.816 15.2853 82.88 15.264ZM72.064 16.864C72.1067 16.8 72.1173 16.7467 72.096 16.704C72.096 16.6613 72.0427 16.6507 71.936 16.672C71.808 16.672 71.68 16.7253 71.552 16.832C71.424 16.9173 71.3387 17.024 71.296 17.152C71.2533 17.2587 71.2747 17.344 71.36 17.408C71.488 17.4933 71.7227 17.312 72.064 16.864ZM71.104 17.568C71.168 17.4187 71.1893 17.3333 71.168 17.312C71.1467 17.2907 71.072 17.344 70.944 17.472C70.8373 17.5787 70.784 17.6427 70.784 17.664C70.784 17.792 70.8693 17.792 71.04 17.664C71.0613 17.6427 71.0827 17.6107 71.104 17.568ZM71.648 18.08C71.968 17.6747 71.904 17.6747 71.456 18.08C71.2427 18.2507 71.1573 18.3573 71.2 18.4C71.264 18.4427 71.296 18.4533 71.296 18.432C71.3173 18.4107 71.4347 18.2933 71.648 18.08ZM64.672 21.824C64.6933 21.8027 64.6933 21.792 64.672 21.792C64.6507 21.7707 64.6187 21.76 64.576 21.76C64.448 21.76 64.352 21.7813 64.288 21.824C64.288 21.8667 64.2987 21.8987 64.32 21.92C64.3627 21.9413 64.4053 21.952 64.448 21.952C64.576 21.952 64.6507 21.9093 64.672 21.824ZM86.016 22.432C86.08 22.432 86.112 22.4 86.112 22.336C86.112 22.272 86.08 22.24 86.016 22.24C85.952 22.24 85.92 22.272 85.92 22.336C85.92 22.4 85.952 22.432 86.016 22.432ZM84.928 22.528C84.928 22.4 84.8427 22.4 84.672 22.528C84.5653 22.5707 84.576 22.592 84.704 22.592C84.8533 22.592 84.928 22.5707 84.928 22.528ZM81.12 22.72C81.1627 22.6347 81.1627 22.592 81.12 22.592C81.0987 22.5707 81.0347 22.6027 80.928 22.688C80.864 22.7947 80.864 22.848 80.928 22.848C80.992 22.848 81.056 22.8053 81.12 22.72ZM82.88 22.848C82.944 22.848 82.976 22.8053 82.976 22.72C82.976 22.6347 82.9653 22.592 82.944 22.592C82.9227 22.592 82.8907 22.6347 82.848 22.72C82.8053 22.8053 82.816 22.848 82.88 22.848ZM85.536 22.72C85.536 22.6347 85.472 22.6347 85.344 22.72C85.2587 22.8053 85.2693 22.848 85.376 22.848C85.4827 22.848 85.536 22.8053 85.536 22.72ZM113.12 0.639999C113.184 0.618666 113.408 0.629333 113.792 0.671999C114.176 0.693332 114.432 0.735999 114.56 0.799999C115.136 1.12 115.595 1.312 115.936 1.376C116.32 1.44 116.853 1.80267 117.536 2.464C117.835 2.72 117.995 2.848 118.016 2.848C118.059 2.848 118.261 2.99733 118.624 3.296C119.008 3.57333 119.2 3.73333 119.2 3.776C119.2 3.79733 119.147 3.86133 119.04 3.968C118.933 4.07467 118.88 4.21333 118.88 4.384C118.88 4.53333 118.837 4.72533 118.752 4.96C118.731 5.024 118.699 5.088 118.656 5.152C118.635 5.19467 118.624 5.22667 118.624 5.248C118.624 5.26933 118.645 5.29067 118.688 5.312C118.709 5.312 118.667 5.38667 118.56 5.536C118.453 5.664 118.411 5.74933 118.432 5.792C118.475 5.81333 118.464 5.86667 118.4 5.952C118.357 6.03733 118.336 6.26133 118.336 6.624C118.357 6.98667 118.336 7.168 118.272 7.168C118.229 7.168 118.208 7.41333 118.208 7.904C118.229 8.39467 118.197 8.68267 118.112 8.768C118.027 8.832 118.027 8.96 118.112 9.152C118.197 9.42933 118.219 9.57867 118.176 9.6C118.155 9.57867 118.144 9.62133 118.144 9.728C118.123 9.856 118.144 10.2507 118.208 10.912C118.357 12.5333 118.421 13.9947 118.4 15.296C118.4 15.4453 118.389 15.7867 118.368 16.32C118.347 16.8533 118.347 17.1307 118.368 17.152C118.389 17.1733 118.4 17.4827 118.4 18.08C118.4 18.6773 118.389 18.9973 118.368 19.04C118.283 19.104 118.283 19.2107 118.368 19.36C118.453 19.5093 118.432 19.7227 118.304 20C118.197 20.2773 118.165 20.4267 118.208 20.448C118.315 20.5333 118.379 21.4933 118.4 23.328C118.421 24.288 118.368 24.8107 118.24 24.896C118.133 25.0027 118.101 25.3867 118.144 26.048C118.187 26.752 118.197 27.3813 118.176 27.936V28.224L118.016 27.968C117.931 27.8613 117.824 27.7973 117.696 27.776C117.568 27.7547 117.472 27.7867 117.408 27.872C117.365 27.9147 117.269 27.8827 117.12 27.776C116.587 27.3067 116.192 27.072 115.936 27.072C115.851 27.072 115.733 26.8907 115.584 26.528C115.456 26.1867 115.392 25.9307 115.392 25.76C115.392 25.6533 115.349 25.6 115.264 25.6C115.2 25.6 115.125 25.4827 115.04 25.248C114.955 25.0133 114.827 24.896 114.656 24.896C113.696 24.832 112.864 24.8747 112.16 25.024C111.84 25.1093 111.221 25.184 110.304 25.248C109.984 25.2693 109.536 25.3547 108.96 25.504C108.384 25.6533 107.936 25.7387 107.616 25.76C107.317 25.8027 107.147 25.8347 107.104 25.856C107.061 25.8773 106.891 25.8987 106.592 25.92C106.293 25.9413 106.059 25.9947 105.888 26.08C105.717 26.1867 105.568 26.24 105.44 26.24C105.333 26.24 105.227 26.304 105.12 26.432C105.035 26.5387 104.971 26.592 104.928 26.592C104.885 26.592 104.789 26.56 104.64 26.496C104.405 26.4107 104.256 26.3253 104.192 26.24C104.128 26.1547 104.064 26.1333 104 26.176C103.936 26.2187 103.755 26.0693 103.456 25.728C103.157 25.408 102.837 25.2373 102.496 25.216C102.176 25.216 101.995 25.1733 101.952 25.088C101.931 25.024 101.813 25.0027 101.6 25.024C101.387 25.0667 101.237 25.0133 101.152 24.864C101.003 24.544 100.672 24.3733 100.16 24.352C100.032 24.352 99.8933 24.32 99.744 24.256C99.5947 24.192 99.4773 24.128 99.392 24.064C99.328 24 99.3067 23.9253 99.328 23.84V23.808C99.2853 23.8293 99.168 23.7547 98.976 23.584C98.8053 23.4133 98.6987 23.264 98.656 23.136C98.6347 23.0507 98.592 22.9653 98.528 22.88C98.4853 22.7947 98.4853 22.6773 98.528 22.528C98.5707 22.3573 98.6133 22.016 98.656 21.504C98.6987 20.992 98.752 20.448 98.816 19.872C98.88 19.296 98.9227 18.72 98.944 18.144C98.9867 17.5467 99.0293 17.1733 99.072 17.024C99.1147 16.8533 99.1467 16.32 99.168 15.424C99.2107 14.528 99.2427 14.0267 99.264 13.92C99.3067 13.792 99.3173 12.9173 99.296 11.296C99.296 9.65333 99.2747 8.544 99.232 7.968L99.008 6.24C98.9867 5.792 98.912 5.48267 98.784 5.312C98.656 5.12 98.592 4.94933 98.592 4.8C98.592 4.608 98.528 4.45867 98.4 4.352C98.272 4.224 97.984 4.05333 97.536 3.84L96.8 3.424C97.0773 3.488 97.408 3.54133 97.792 3.584C98.176 3.62667 98.3787 3.62667 98.4 3.584C98.4213 3.54133 98.5813 3.57333 98.88 3.68C99.1787 3.76533 99.5307 3.76533 99.936 3.68C100.832 3.50933 101.611 3.296 102.272 3.04C102.72 2.848 103.712 2.528 105.248 2.08C106.784 1.61067 107.776 1.33333 108.224 1.248C108.885 1.09867 109.483 1.01333 110.016 0.991999C110.571 0.949333 110.997 0.917332 111.296 0.895998L112.416 0.735998C112.864 0.693332 113.099 0.661332 113.12 0.639999ZM113.792 2.848C113.771 2.82667 113.472 2.816 112.896 2.816C112.32 2.816 111.808 2.82667 111.36 2.848C110.827 2.93333 110.507 2.95467 110.4 2.912C110.315 2.86933 110.272 2.88 110.272 2.944C110.272 3.008 110.091 3.05067 109.728 3.072C109.387 3.072 109.173 3.11467 109.088 3.2C109.024 3.28533 108.885 3.33867 108.672 3.36C108.459 3.36 108.277 3.41333 108.128 3.52C108 3.62667 107.861 3.66933 107.712 3.648C107.584 3.60533 107.52 3.62667 107.52 3.712C107.52 3.776 107.477 3.79733 107.392 3.776C107.243 3.776 107.061 3.808 106.848 3.872C106.656 3.91467 106.539 3.97867 106.496 4.064C106.411 4.14933 106.283 4.192 106.112 4.192C105.963 4.192 105.803 4.256 105.632 4.384C104.992 4.66133 104.309 4.87467 103.584 5.024C102.88 5.17333 102.325 5.19467 101.92 5.088L101.632 4.96L101.952 5.28C102.165 5.472 102.304 5.70667 102.368 5.984C102.453 6.26133 102.517 6.77333 102.56 7.52C102.581 8.416 102.603 8.88533 102.624 8.928C102.667 8.97067 102.709 9.23733 102.752 9.728C102.816 10.4533 102.891 10.816 102.976 10.816C103.04 10.816 103.243 10.5813 103.584 10.112C103.947 9.62133 104.235 9.184 104.448 8.8C104.725 8.26667 104.917 7.91467 105.024 7.744C105.152 7.57333 105.216 7.43467 105.216 7.328C105.216 7.22133 105.408 6.816 105.792 6.112L106.656 4.512C106.763 4.27733 106.848 4.13867 106.912 4.096C106.997 4.032 107.083 4.02133 107.168 4.064C107.339 4.08533 107.552 4.23467 107.808 4.512C108.064 4.768 108.288 5.03467 108.48 5.312C108.651 5.61067 108.779 5.76 108.864 5.76C108.907 5.76 108.939 5.81333 108.96 5.92C108.981 6.00533 108.981 6.12267 108.96 6.272C108.939 6.42133 108.885 6.56 108.8 6.688C108.651 7.02933 108.576 7.22133 108.576 7.264C108.597 7.28533 108.875 7.232 109.408 7.104C109.963 6.976 110.325 6.82667 110.496 6.656C110.581 6.57067 110.645 6.528 110.688 6.528C110.752 6.528 110.837 6.56 110.944 6.624C111.136 6.77333 111.371 6.85867 111.648 6.88C112.075 6.96533 112.256 7.15733 112.192 7.456C112.128 7.584 112.245 7.73333 112.544 7.904C112.843 8.05333 113.067 8.128 113.216 8.128C113.387 8.128 113.504 8.20267 113.568 8.352C113.632 8.48 113.632 8.64 113.568 8.832C113.504 9.00267 113.504 9.088 113.568 9.088C113.696 9.088 113.621 9.312 113.344 9.76C113.131 10.1013 112.971 10.272 112.864 10.272C112.779 10.272 112.736 10.304 112.736 10.368C112.736 10.432 112.597 10.6773 112.32 11.104C112.043 11.5093 111.915 11.7547 111.936 11.84C111.979 11.9253 112.203 12.0213 112.608 12.128C113.013 12.2133 113.355 12.2987 113.632 12.384C114.101 12.5973 114.336 12.64 114.336 12.512C114.208 12.3413 114.112 10.1013 114.048 5.792C113.984 4.27733 113.952 3.52 113.952 3.52C113.952 3.52 113.941 3.43467 113.92 3.264C113.899 3.072 113.856 2.93333 113.792 2.848ZM109.248 9.376C109.248 9.29067 108.917 9.36533 108.256 9.6C107.957 9.728 107.755 9.83467 107.648 9.92C107.563 10.0053 107.477 10.144 107.392 10.336C107.243 10.592 107.2 10.7627 107.264 10.848C107.349 10.912 107.563 10.944 107.904 10.944C108.203 10.944 108.373 10.8587 108.416 10.688C108.48 10.5173 108.629 10.272 108.864 9.952C109.12 9.61067 109.248 9.41867 109.248 9.376ZM118.08 10.432C118.08 10.3467 118.048 10.2933 117.984 10.272C117.941 10.2293 117.888 10.24 117.824 10.304C117.803 10.3467 117.803 10.4213 117.824 10.528C117.867 10.6133 117.92 10.656 117.984 10.656C118.048 10.656 118.08 10.5813 118.08 10.432ZM112.32 10.72C112.384 10.72 112.416 10.6987 112.416 10.656C112.416 10.592 112.384 10.56 112.32 10.56C112.256 10.56 112.224 10.592 112.224 10.656C112.224 10.6987 112.256 10.72 112.32 10.72ZM102.592 11.328C102.656 11.2853 102.688 11.2427 102.688 11.2C102.688 11.1573 102.656 11.136 102.592 11.136C102.528 11.136 102.496 11.1787 102.496 11.264C102.496 11.3493 102.528 11.3707 102.592 11.328ZM102.592 12.832C102.656 12.8107 102.688 12.704 102.688 12.512C102.688 12.2987 102.667 12.192 102.624 12.192C102.581 12.192 102.549 12.2987 102.528 12.512L102.592 12.832ZM103.584 13.056C103.456 13.0773 103.328 13.0133 103.2 12.864C103.072 12.6933 102.997 12.608 102.976 12.608C102.955 12.608 102.944 12.8107 102.944 13.216C102.944 13.6 102.912 14.2613 102.848 15.2C102.848 15.4347 102.837 15.6693 102.816 15.904C102.795 16.1173 102.784 16.288 102.784 16.416C102.784 16.5227 102.805 16.576 102.848 16.576C102.891 16.576 103.381 16.1173 104.32 15.2C105.259 14.2613 105.824 13.7173 106.016 13.568C106.208 13.3973 106.283 13.248 106.24 13.12C106.197 12.864 106.037 12.96 105.76 13.408C105.589 13.7067 105.355 13.9093 105.056 14.016C104.757 14.1013 104.587 14.112 104.544 14.048C104.523 13.9627 104.459 13.952 104.352 14.016C104.075 14.1653 103.936 14.0907 103.936 13.792C103.936 13.6 103.893 13.4293 103.808 13.28C103.744 13.1093 103.669 13.0347 103.584 13.056ZM102.656 14.112C102.699 13.984 102.709 13.8667 102.688 13.76C102.667 13.632 102.624 13.664 102.56 13.856C102.517 14.0907 102.517 14.208 102.56 14.208C102.581 14.208 102.613 14.176 102.656 14.112ZM110.624 14.176C110.304 14.0693 110.101 14.0267 110.016 14.048C109.931 14.0693 109.867 14.1227 109.824 14.208C109.803 14.3573 109.739 14.4213 109.632 14.4C109.525 14.3573 109.397 14.4 109.248 14.528C109.013 14.848 108.992 15.0293 109.184 15.072C109.227 15.1147 109.195 15.1787 109.088 15.264C108.981 15.3707 108.928 15.4027 108.928 15.36C108.928 15.3173 108.939 15.2747 108.96 15.232C108.981 15.168 108.992 15.1147 108.992 15.072C108.971 15.0507 108.896 15.0933 108.768 15.2C108.661 15.3067 108.651 15.4453 108.736 15.616C108.843 15.7867 109.003 15.968 109.216 16.16C109.472 16.352 109.781 16.7787 110.144 17.44C110.229 17.5893 110.389 17.792 110.624 18.048C111.136 18.7093 111.392 19.136 111.392 19.328C111.371 19.328 111.317 19.328 111.232 19.328C111.168 19.3067 111.061 19.2853 110.912 19.264C110.763 19.2213 110.656 19.1573 110.592 19.072C110.443 18.9867 110.368 18.9867 110.368 19.072C110.368 19.1787 110.325 19.2427 110.24 19.264C110.176 19.264 110.091 19.264 109.984 19.264C109.877 19.2427 109.792 19.1787 109.728 19.072C109.557 18.9867 109.397 18.9653 109.248 19.008C109.12 19.0293 109.003 18.976 108.896 18.848C108.811 18.72 108.757 18.6667 108.736 18.688C108.715 18.7093 108.672 18.6987 108.608 18.656C108.608 18.6133 108.608 18.5813 108.608 18.56C108.523 18.2827 108.373 18.2507 108.16 18.464C108.032 18.5493 107.957 18.5173 107.936 18.368C107.915 18.2187 107.84 18.112 107.712 18.048C107.605 18.0267 107.552 18.0053 107.552 17.984C107.552 17.9413 107.605 17.8453 107.712 17.696C107.989 17.3333 108.011 17.0347 107.776 16.8C107.605 16.608 107.541 16.512 107.584 16.512C107.648 16.512 107.637 16.4693 107.552 16.384C107.467 16.2987 107.296 16.3733 107.04 16.608C105.269 18.3573 104.085 19.3813 103.488 19.68C102.997 19.9573 102.741 20.1067 102.72 20.128C102.72 20.1493 102.699 20.5333 102.656 21.28C102.613 22.0053 102.571 22.5173 102.528 22.816C102.507 23.1147 102.517 23.3067 102.56 23.392C102.581 23.4773 102.667 23.5307 102.816 23.552C102.987 23.552 103.157 23.52 103.328 23.456C103.435 23.392 103.627 23.3493 103.904 23.328C104.181 23.3067 104.352 23.2853 104.416 23.264C104.885 23.0507 105.568 22.8907 106.464 22.784C106.827 22.7413 107.019 22.656 107.04 22.528C107.083 22.3787 107.061 22.272 106.976 22.208C106.912 22.1227 106.848 22.1333 106.784 22.24C106.613 22.368 106.464 22.2613 106.336 21.92C106.315 21.7707 106.261 21.7173 106.176 21.76C106.091 21.8027 106.069 21.792 106.112 21.728C106.155 21.664 106.261 21.5147 106.432 21.28C106.539 21.088 106.581 20.9067 106.56 20.736C106.432 20.2453 106.229 19.7973 105.952 19.392C105.781 19.1787 105.717 19.0293 105.76 18.944C105.803 18.8587 105.963 18.8373 106.24 18.88C106.816 18.9867 107.307 19.232 107.712 19.616C108.139 19.9787 108.544 20.5653 108.928 21.376C109.099 21.632 109.227 21.824 109.312 21.952C109.419 22.0587 109.504 22.1013 109.568 22.08C109.696 22.0373 110.485 21.952 111.936 21.824C112.192 21.824 112.405 21.7813 112.576 21.696C112.747 21.6107 112.811 21.5147 112.768 21.408C112.747 21.28 112.8 21.184 112.928 21.12C113.056 21.0347 113.227 21.088 113.44 21.28C113.675 21.4507 113.824 21.536 113.888 21.536C113.973 21.536 114.069 21.5893 114.176 21.696C114.304 21.7813 114.411 21.792 114.496 21.728C114.581 21.664 114.528 21.216 114.336 20.384C114.144 19.552 114.059 19.1147 114.08 19.072C114.101 19.072 114.123 19.104 114.144 19.168C114.187 19.232 114.219 19.3173 114.24 19.424C114.283 19.5307 114.325 19.6587 114.368 19.808C114.539 20.32 114.635 20.608 114.656 20.672C114.699 20.8853 114.752 20.832 114.816 20.512C114.88 19.9573 114.848 19.1787 114.72 18.176C114.699 17.7067 114.667 17.152 114.624 16.512C114.603 15.8507 114.581 15.4667 114.56 15.36C114.496 15.2533 114.347 15.1573 114.112 15.072C113.899 14.9867 113.707 14.976 113.536 15.04C113.259 15.0613 113.12 15.0293 113.12 14.944C113.12 14.8587 113.056 14.816 112.928 14.816C112.693 14.816 112.299 14.688 111.744 14.432C111.659 14.3893 111.541 14.368 111.392 14.368C111.243 14.368 110.987 14.304 110.624 14.176ZM102.592 14.72C102.592 14.5067 102.539 14.4853 102.432 14.656C102.411 14.72 102.432 14.7733 102.496 14.816C102.56 14.8587 102.592 14.8267 102.592 14.72ZM102.496 15.84C102.56 15.7973 102.592 15.7653 102.592 15.744C102.592 15.7227 102.56 15.712 102.496 15.712C102.432 15.712 102.4 15.744 102.4 15.808C102.4 15.8507 102.432 15.8613 102.496 15.84ZM102.272 21.952C102.293 21.8453 102.283 21.7707 102.24 21.728L102.208 21.92L102.272 21.952Z" fill="black"/>
</svg>
