<svg width="121" height="33" viewBox="0 0 121 33" fill="none" xmlns="http://www.w3.org/2000/svg">
<path d="M5.92 6.576C5.856 6.53333 5.86667 6.48 5.952 6.416C6.03733 6.352 6.144 6.32 6.272 6.32C6.37867 6.32 6.73067 6.43733 7.328 6.672C7.92533 6.90667 8.32 7.09867 8.512 7.248C8.85333 7.504 9.12 7.824 9.312 8.208C9.39733 8.4 9.44 8.64533 9.44 8.944C9.46133 9.24266 9.44 10.0747 9.376 11.44C9.312 13.3387 9.26933 15.3227 9.248 17.392C9.22667 19.4613 9.19467 20.5173 9.152 20.56C9.13067 20.6027 9.09867 21.04 9.056 21.872C9.03467 22.704 9.00267 23.3653 8.96 23.856L8.864 24.56L8.64 24.4C8.46933 24.336 8.29867 24.208 8.128 24.016C7.97867 23.824 7.808 23.6853 7.616 23.6C7.38133 23.4933 7.15733 23.3333 6.944 23.12C6.73067 22.9067 6.60267 22.704 6.56 22.512C6.51733 22.2987 6.496 22.0213 6.496 21.68C6.496 21.3173 6.47467 21.136 6.432 21.136C6.38933 21.136 5.93067 21.3387 5.056 21.744C3.79733 22.384 2.89067 22.6933 2.336 22.672H1.984L2.24 22.608C2.56 22.4587 2.53867 22.384 2.176 22.384C2.13333 22.384 2.05867 22.384 1.952 22.384C1.248 22.3413 0.821334 22.2453 0.672 22.096C0.714667 22.032 0.682667 21.9467 0.576 21.84C0.490667 21.7333 0.48 21.6373 0.544 21.552C0.629334 21.4453 0.693334 21.392 0.736 21.392C0.821334 21.392 1.696 20.976 3.36 20.144C4.78933 19.3973 5.70667 19.024 6.112 19.024H6.56V18.224C6.58133 17.6907 6.57067 17.424 6.528 17.424C6.50667 17.424 6.28267 17.5413 5.856 17.776C5.00267 18.2667 4.288 18.512 3.712 18.512C3.34933 18.512 3.17867 18.48 3.2 18.416C3.2 18.352 3.25333 18.3093 3.36 18.288C3.488 18.2453 3.46667 18.2133 3.296 18.192C3.232 18.1707 3.15733 18.16 3.072 18.16C2.73067 18.096 2.47467 18.032 2.304 17.968L1.856 17.808C1.728 17.7653 1.664 17.7227 1.664 17.68C1.664 17.616 1.65333 17.4987 1.632 17.328C1.61067 17.2213 1.6 17.1467 1.6 17.104C1.62133 17.0613 1.65333 17.0507 1.696 17.072C1.90933 17.1573 2.58133 16.8693 3.712 16.208C4.928 15.4827 5.792 15.0347 6.304 14.864C6.496 14.8213 6.60267 14.7893 6.624 14.768C6.64533 14.7253 6.64533 14.5973 6.624 14.384C6.624 14.1493 6.61333 13.8933 6.592 13.616V13.232L5.632 13.744C4.992 14.064 4.52267 14.2773 4.224 14.384C3.47733 14.64 2.79467 14.6187 2.176 14.32C1.89867 14.192 1.71733 14.1387 1.632 14.16C1.54667 14.16 1.376 14.128 1.12 14.064C0.928 13.9573 0.832 13.8827 0.832 13.84C0.96 13.6907 0.938667 13.6053 0.768 13.584C0.682667 13.5627 0.736 13.488 0.928 13.36C0.970667 13.36 1.00267 13.3493 1.024 13.328C1.344 13.2 1.57867 13.0827 1.728 12.976C1.89867 12.848 2.09067 12.7413 2.304 12.656C2.53867 12.5707 2.79467 12.432 3.072 12.24C3.34933 12.0267 3.50933 11.92 3.552 11.92C3.616 11.92 3.84 11.8027 4.224 11.568C4.62933 11.312 4.85333 11.184 4.896 11.184C4.93867 11.184 5.056 11.1093 5.248 10.96C5.44 10.7893 5.71733 10.704 6.08 10.704H6.656L6.72 10.384C6.76267 10.0213 6.784 9.552 6.784 8.976C6.784 8.37867 6.76267 8.016 6.72 7.888C6.63467 7.696 6.41067 7.376 6.048 6.928C5.96267 6.84267 5.94133 6.77867 5.984 6.736C6.02667 6.672 6.00533 6.61867 5.92 6.576ZM11.232 4.304C11.232 4.24 11.3173 4.22933 11.488 4.272C11.6587 4.29333 11.968 4.34667 12.416 4.432C12.8853 4.51733 13.2373 4.63467 13.472 4.784C13.792 4.93333 14.1227 5.15733 14.464 5.456C14.8053 5.73333 15.0187 5.936 15.104 6.064C15.1893 6.23467 15.296 6.55467 15.424 7.024C15.552 7.49333 15.616 7.84533 15.616 8.08C15.6373 8.29333 15.6693 8.41067 15.712 8.432C15.776 8.45333 16.032 8.37867 16.48 8.208C16.928 8.03733 17.3227 7.90933 17.664 7.824C18.0053 7.71733 18.1973 7.6 18.24 7.472C18.304 7.344 18.3893 7.312 18.496 7.376C18.6027 7.44 18.656 7.41866 18.656 7.312C18.656 7.20533 18.7307 7.17333 18.88 7.216C19.0293 7.25867 19.3707 7.30133 19.904 7.344C20.4587 7.38667 20.7467 7.46133 20.768 7.568C20.8107 7.67467 20.9173 7.74933 21.088 7.792C21.1947 7.856 21.2587 7.92 21.28 7.984C21.3227 8.048 21.3333 8.18667 21.312 8.4C21.312 8.72 21.3973 8.944 21.568 9.072C21.7387 9.2 21.8133 9.33867 21.792 9.488C21.7707 9.616 21.824 9.70133 21.952 9.744C22.144 9.808 22.1013 9.86133 21.824 9.904C21.76 9.904 21.6747 9.91467 21.568 9.936C21.0773 9.97867 20.576 10.0853 20.064 10.256C19.5733 10.4053 19.2747 10.5547 19.168 10.704C19.1467 10.768 19.072 10.7787 18.944 10.736C18.8373 10.6933 18.688 10.7467 18.496 10.896C18.304 11.024 18.176 11.0773 18.112 11.056C18.0693 11.0347 17.728 11.0987 17.088 11.248C16.4693 11.376 16.0427 11.44 15.808 11.44H15.424V12.496C15.424 13.1787 15.392 13.52 15.328 13.52C15.264 13.52 15.232 13.5733 15.232 13.68C15.232 13.7653 15.264 13.7867 15.328 13.744C15.3707 13.7013 15.392 13.712 15.392 13.776C15.4133 13.8187 15.424 13.8613 15.424 13.904C15.424 14.0107 15.4453 14.0747 15.488 14.096C15.5307 14.1173 15.6587 14.1173 15.872 14.096C16.1707 14.0533 16.3413 14.0107 16.384 13.968C16.448 13.9253 16.8 13.8187 17.44 13.648C18.1013 13.4773 18.496 13.3067 18.624 13.136C18.7733 12.9653 18.848 12.912 18.848 12.976C18.848 13.04 18.8907 13.04 18.976 12.976C19.0827 12.8907 19.2853 12.8907 19.584 12.976C19.8827 13.0613 20.1493 13.1147 20.384 13.136C20.64 13.1573 20.8 13.2427 20.864 13.392C20.928 13.52 21.0027 13.584 21.088 13.584C21.1733 13.584 21.216 13.616 21.216 13.68C21.216 13.744 21.2907 13.776 21.44 13.776C21.5253 13.776 21.5787 13.7867 21.6 13.808C21.6213 13.8293 21.6107 13.8613 21.568 13.904C21.504 14.0107 21.4293 14.0427 21.344 14C21.3227 14 21.3013 14.0107 21.28 14.032C21.28 14.032 21.28 14.0533 21.28 14.096C21.28 14.1387 21.2907 14.1707 21.312 14.192C21.3333 14.2133 21.3547 14.2133 21.376 14.192C21.4187 14.1707 21.44 14.1813 21.44 14.224C21.4613 14.2453 21.472 14.288 21.472 14.352C21.472 14.48 21.5573 14.5867 21.728 14.672C21.92 14.736 22.016 14.7893 22.016 14.832C22.016 14.8747 22.0587 14.896 22.144 14.896C22.2507 14.896 22.304 14.9387 22.304 15.024C22.304 15.1093 22.2507 15.152 22.144 15.152C22.0587 15.152 22.0373 15.12 22.08 15.056H22.016C21.9307 15.12 21.92 15.2053 21.984 15.312C22.0693 15.4187 22.1653 15.472 22.272 15.472C22.4853 15.472 22.432 15.5147 22.112 15.6C22.0053 15.664 21.8667 15.7067 21.696 15.728C21.312 15.792 20.8853 15.8987 20.416 16.048C19.3493 16.3893 18.4747 16.6453 17.792 16.816C17.344 16.9227 16.8853 16.9333 16.416 16.848C15.968 16.7413 15.7013 16.656 15.616 16.592C15.5307 16.5707 15.4773 16.5813 15.456 16.624C15.4347 16.6667 15.424 16.7307 15.424 16.816C15.424 16.9867 15.424 17.1467 15.424 17.296C15.424 17.424 15.392 17.488 15.328 17.488C15.264 17.488 15.2747 17.5413 15.36 17.648C15.424 17.6907 15.456 17.8933 15.456 18.256C15.4773 18.6187 15.456 18.8533 15.392 18.96C15.3493 19.024 15.3707 19.088 15.456 19.152C15.584 19.216 16.416 19.0987 17.952 18.8C19.168 18.5867 19.8187 18.448 19.904 18.384C20.0533 18.256 20.416 18.2453 20.992 18.352C21.5893 18.4587 21.984 18.5973 22.176 18.768C22.304 18.9173 22.4213 18.992 22.528 18.992C22.6347 18.992 22.7093 19.056 22.752 19.184C22.816 19.312 22.912 19.3867 23.04 19.408C23.1467 19.4293 23.2 19.4613 23.2 19.504C23.2 19.5253 23.136 19.6107 23.008 19.76L22.752 20.112L23.008 20.208C23.1573 20.2507 23.2533 20.272 23.296 20.272C23.3813 20.272 23.4347 20.3573 23.456 20.528C23.4773 20.6987 23.4453 20.816 23.36 20.88C23.296 20.9227 23.104 20.944 22.784 20.944C22.4853 20.944 22.1867 20.976 21.888 21.04C21.5893 21.104 21.12 21.1787 20.48 21.264C19.8613 21.3493 19.2213 21.456 18.56 21.584C17.1733 21.84 16.1707 21.8827 15.552 21.712C15.36 21.6907 15.2533 21.6907 15.232 21.712C15.232 21.712 15.2427 21.7867 15.264 21.936C15.3493 22.1493 15.3493 22.4053 15.264 22.704C15.2427 22.8747 15.2533 23.056 15.296 23.248C15.36 23.44 15.36 23.5467 15.296 23.568C15.232 23.5893 15.2533 23.7067 15.36 23.92L15.424 24.144C15.3813 24.1227 15.3387 24.144 15.296 24.208C15.2533 24.272 15.2747 24.3147 15.36 24.336C15.4453 24.3573 15.4667 24.4533 15.424 24.624C15.4027 24.7733 15.3493 24.848 15.264 24.848C15.1787 24.848 15.1467 25.136 15.168 25.712C15.2107 26.288 15.2533 26.6187 15.296 26.704C15.3387 26.8107 15.3067 26.8853 15.2 26.928C15.1147 26.9707 15.0507 27.1307 15.008 27.408C14.9653 27.6853 14.912 27.8347 14.848 27.856C14.784 27.8773 14.752 28.0053 14.752 28.24C14.752 28.6027 14.656 28.656 14.464 28.4L14.08 27.984C13.9307 27.8133 13.856 27.696 13.856 27.632C13.856 27.568 13.7493 27.4507 13.536 27.28C13.3227 27.1307 13.1413 26.9387 12.992 26.704C12.864 26.4907 12.7147 26.3627 12.544 26.32C12.3093 26.2133 12.2347 26.1067 12.32 26C12.384 25.936 12.384 25.6587 12.32 25.168C12.2773 24.6773 12.288 24.4107 12.352 24.368C12.4373 24.3253 12.48 24.0267 12.48 23.472C12.4587 22.1067 12.448 20.2507 12.448 17.904C12.448 15.536 12.4693 13.9787 12.512 13.232C12.5333 12.016 12.544 10.576 12.544 8.912C12.5227 7.67467 12.5013 6.928 12.48 6.672C12.48 6.416 12.416 6.17067 12.288 5.936C12.1173 5.59467 11.9467 5.36 11.776 5.232C11.648 5.12533 11.52 4.976 11.392 4.784C11.2853 4.592 11.232 4.432 11.232 4.304ZM48 31.6C47.9147 31.5573 47.872 31.536 47.872 31.536C47.8933 31.536 47.9573 31.5253 48.064 31.504C48.1707 31.504 48.256 31.536 48.32 31.6C48.3627 31.7067 48.2987 31.7173 48.128 31.632C48.0853 31.6107 48.0427 31.6 48 31.6ZM32.96 5.392C32.9387 5.05067 33.3973 5.18933 34.336 5.808C34.848 6.14933 35.1573 6.384 35.264 6.512C35.392 6.61867 35.5947 6.84267 35.872 7.184C36.0853 7.44 36.2027 7.664 36.224 7.856C36.2667 8.048 36.1813 8.25067 35.968 8.464C35.8827 8.61333 35.808 8.752 35.744 8.88C35.7013 9.008 35.5627 9.168 35.328 9.36C35.0933 9.53067 34.912 9.78667 34.784 10.128C34.656 10.4693 34.528 10.7253 34.4 10.896L34.208 11.12L34.272 10.736C34.4 10.0533 34.3787 9.712 34.208 9.712C34.144 9.712 34.08 9.79733 34.016 9.968C33.9733 10.1173 33.856 10.2027 33.664 10.224C33.472 10.224 33.344 10.32 33.28 10.512C33.2373 10.704 33.184 10.7573 33.12 10.672C33.0773 10.5653 33.1093 10.2987 33.216 9.872C33.3227 9.424 33.376 9.136 33.376 9.008C33.376 8.85867 33.3333 8.88 33.248 9.072C33.1627 9.24267 33.0453 9.53067 32.896 9.936L32.672 10.416C32.6507 10.3307 32.7147 10.032 32.864 9.52C33.2693 8.02667 33.3547 6.896 33.12 6.128C33.0133 5.78667 32.96 5.54133 32.96 5.392ZM43.936 0.943998C43.9147 0.751998 43.9147 0.602665 43.936 0.495998C43.9787 0.367999 44.032 0.314665 44.096 0.335999C44.16 0.335999 44.32 0.421332 44.576 0.591999C44.8533 0.783999 45.0667 0.869333 45.216 0.848C45.3653 0.805332 45.472 0.837332 45.536 0.943998C45.6 1.02933 45.6533 1.072 45.696 1.072C45.8027 1.05067 45.9093 1.06133 46.016 1.104C46.1227 1.14667 46.176 1.18933 46.176 1.232C46.176 1.65867 46.24 1.872 46.368 1.872C46.4747 1.872 46.6133 1.94667 46.784 2.096L47.104 2.32L46.912 2.8C46.8693 2.97067 46.8267 3.26933 46.784 3.696C46.7413 4.10133 46.72 4.47467 46.72 4.816C46.7413 5.136 46.7947 5.296 46.88 5.296C46.9867 5.296 47.296 5.22133 47.808 5.072C48.3413 4.90133 48.672 4.784 48.8 4.72C48.9067 4.61333 49.0667 4.61333 49.28 4.72C49.5147 4.80533 49.728 4.848 49.92 4.848C50.176 4.848 50.56 5.05067 51.072 5.456C51.6053 5.84 51.872 6.128 51.872 6.32C51.872 6.42667 51.8187 6.55467 51.712 6.704C51.6053 6.85333 51.3813 7.25867 51.04 7.92C50.72 8.56 50.5173 8.90133 50.432 8.944C50.3467 8.98667 50.1867 9.168 49.952 9.488C49.7387 9.808 49.664 10.0107 49.728 10.096C49.792 10.16 49.824 10.2667 49.824 10.416C49.824 10.544 49.7387 10.6293 49.568 10.672C49.3973 10.6933 49.152 10.7467 48.832 10.832C48.5333 10.9173 48.1173 11.0347 47.584 11.184C47.0507 11.312 46.7733 11.3867 46.752 11.408C46.752 11.408 46.7307 11.5787 46.688 11.92L46.656 12.432L47.968 12.112C48.864 11.856 49.376 11.696 49.504 11.632C49.6533 11.5467 49.8453 11.504 50.08 11.504C50.3147 11.504 50.5493 11.504 50.784 11.504C51.6373 11.4613 52.128 11.536 52.256 11.728L52.608 12.336C52.7573 12.5493 52.864 12.656 52.928 12.656C53.0773 12.656 53.1307 12.8267 53.088 13.168C53.0667 13.3387 53.0133 13.4453 52.928 13.488C52.8427 13.5307 52.5547 13.5947 52.064 13.68C51.6373 13.7227 51.0827 13.84 50.4 14.032C49.7387 14.2027 49.184 14.3307 48.736 14.416C48.2027 14.5227 46.8587 14.8533 44.704 15.408C42.5493 15.9627 41.184 16.3253 40.608 16.496C40.1387 16.624 39.712 16.6773 39.328 16.656C38.9653 16.6347 38.7627 16.592 38.72 16.528C38.6773 16.464 38.6027 16.432 38.496 16.432C38.4107 16.432 38.304 16.3787 38.176 16.272C38.0693 16.144 37.952 16.08 37.824 16.08C37.7173 16.08 37.6 16.0373 37.472 15.952C37.28 15.824 37.1307 15.7707 37.024 15.792C36.9387 15.792 36.8427 15.8987 36.736 16.112C36.6507 16.3893 36.5333 16.6027 36.384 16.752C36.2347 16.9013 36.1173 17.1787 36.032 17.584C35.9467 17.968 35.968 18.5547 36.096 19.344C36.288 20.4747 36.7893 21.8507 37.6 23.472C37.92 24.1547 38.1227 24.6667 38.208 25.008L38.368 25.52L39.232 25.744L41.12 26.352C41.8667 26.5653 42.2613 26.6507 42.304 26.608C42.3467 26.5867 42.368 26.5227 42.368 26.416C42.368 26.3093 42.496 26.128 42.752 25.872C42.944 25.68 43.04 25.552 43.04 25.488C43.0613 25.424 43.0507 25.328 43.008 25.2C42.9013 25.0293 42.6667 24.7733 42.304 24.432C42.0267 24.1547 41.8667 23.9733 41.824 23.888C41.7813 23.8027 41.7707 23.6533 41.792 23.44C41.8133 23.1413 41.8453 22.4373 41.888 21.328C41.9733 19.3013 41.8453 17.9467 41.504 17.264L41.28 16.784L41.504 16.752C41.6533 16.752 41.856 16.7947 42.112 16.88C42.5387 17.072 42.88 17.1573 43.136 17.136C43.392 17.1147 43.9787 16.944 44.896 16.624C46.3253 16.1333 47.0933 15.856 47.2 15.792C47.52 15.5573 47.872 15.5253 48.256 15.696C48.512 15.824 48.672 15.8773 48.736 15.856C48.8213 15.8133 48.9813 15.8773 49.216 16.048C49.4507 16.1973 49.6213 16.272 49.728 16.272C49.8347 16.272 49.952 16.3893 50.08 16.624C50.208 16.8587 50.368 17.0933 50.56 17.328C50.7733 17.5413 50.8373 17.6907 50.752 17.776C50.688 17.8613 50.6453 19.0347 50.624 21.296L50.56 24.688L50.88 24.976C51.0933 25.168 51.2 25.3173 51.2 25.424C51.2 25.5307 51.2213 25.584 51.264 25.584C51.328 25.584 51.4453 25.6693 51.616 25.84C51.7867 25.9893 51.872 26.192 51.872 26.448C51.872 26.704 51.936 26.8853 52.064 26.992C52.192 27.12 52.2987 27.2693 52.384 27.44C52.4693 27.5893 52.5013 27.664 52.48 27.664C52.4373 27.6853 52.3947 27.6853 52.352 27.664C52.2027 27.6213 52.128 27.6747 52.128 27.824C52.128 27.9947 52.2027 28.0907 52.352 28.112C52.5013 28.1333 53.3013 28.1547 54.752 28.176L56.96 28.208L57.184 28.464C57.3547 28.6133 57.568 28.72 57.824 28.784C58.08 28.8693 58.208 28.9547 58.208 29.04C58.208 29.1253 58.176 29.168 58.112 29.168C58.048 29.168 57.9947 29.2427 57.952 29.392C57.9307 29.5627 57.9307 29.6907 57.952 29.776C57.9947 29.8613 58.048 29.904 58.112 29.904C58.176 29.904 58.2933 29.9787 58.464 30.128L58.72 30.352L57.76 30.512C56.864 30.6613 55.8933 30.864 54.848 31.12C54.0373 31.3547 53.3653 31.4933 52.832 31.536C52.0427 31.6427 51.5413 31.792 51.328 31.984C51.2 32.0907 51.0933 32.144 51.008 32.144C50.944 32.144 50.9333 32.1867 50.976 32.272C51.0187 32.3787 51.008 32.4533 50.944 32.496C50.88 32.5173 50.7307 32.4853 50.496 32.4C50.2827 32.3147 50.176 32.2507 50.176 32.208C50.176 32.0373 49.984 31.92 49.6 31.856H49.344C49.408 31.8773 49.44 31.92 49.44 31.984C49.44 32.0693 49.2373 32.0267 48.832 31.856L48.576 31.76L48.8 31.728C48.8853 31.7067 48.8427 31.6533 48.672 31.568C48.3733 31.44 47.3173 31.1093 45.504 30.576C44.16 30.1493 42.656 29.5947 40.992 28.912L39.136 28.176C38.6027 27.9627 37.9307 27.7707 37.12 27.6C36.3307 27.4293 35.68 27.344 35.168 27.344C34.72 27.344 34.208 27.4293 33.632 27.6C33.056 27.7707 32.6613 27.952 32.448 28.144C32.3413 28.2293 32.1707 28.2507 31.936 28.208C31.7013 28.1653 31.5413 28.1013 31.456 28.016C31.3493 27.9093 31.1893 27.792 30.976 27.664L30.72 27.536C30.8053 27.536 30.6667 27.3973 30.304 27.12C30.2613 27.0773 30.1973 27.0347 30.112 26.992C29.8987 26.8 29.8667 26.672 30.016 26.608C30.1227 26.608 30.112 26.5547 29.984 26.448C29.856 26.384 29.8667 26.3413 30.016 26.32C30.0373 26.2773 30.0907 26.256 30.176 26.256C30.4107 26.2133 30.9867 26.0747 31.904 25.84C33.056 25.5413 34.2187 25.3813 35.392 25.36C36.096 25.36 36.448 25.36 36.448 25.36C36.448 25.3387 36.384 25.2107 36.256 24.976C36.1493 24.72 36.0853 24.3573 36.064 23.888C36.064 23.4187 35.9787 22.928 35.808 22.416C35.1893 20.7093 34.7627 19.44 34.528 18.608C34.3147 17.776 34.208 17.0187 34.208 16.336V15.664L33.92 15.92C33.728 16.0907 33.4293 16.2933 33.024 16.528C32.6187 16.7413 32.2133 16.848 31.808 16.848C31.424 16.8267 31.136 16.7733 30.944 16.688C30.7733 16.6027 30.624 16.56 30.496 16.56C30.3893 16.56 30.1653 16.4747 29.824 16.304C29.6107 16.176 29.472 16.08 29.408 16.016C29.344 15.952 29.312 15.8667 29.312 15.76C29.2907 15.632 29.2907 15.5467 29.312 15.504C29.3547 15.4613 29.472 15.4293 29.664 15.408C30.2187 15.3227 31.2 14.576 32.608 13.168C33.9947 11.7813 34.7947 11.1093 35.008 11.152C35.136 11.1733 35.3493 11.1947 35.648 11.216C35.9467 11.2373 36.192 11.3333 36.384 11.504C36.576 11.6747 36.7467 11.8133 36.896 11.92C37.0667 12.0267 37.2907 12.2827 37.568 12.688C38.0587 13.456 38.1653 13.968 37.888 14.224C37.824 14.3093 37.7067 14.4693 37.536 14.704L37.28 15.056H37.536C37.9627 15.056 39.0293 14.8 40.736 14.288C41.888 13.9253 42.4747 13.7333 42.496 13.712C42.5173 13.6907 42.368 13.52 42.048 13.2C41.728 12.8587 41.4827 12.592 41.312 12.4L40.768 11.76C40.5333 11.5467 40.4053 11.2267 40.384 10.8C40.32 10.032 40.1813 9.14667 39.968 8.144C39.7547 7.20533 39.4347 6.58666 39.008 6.288C38.88 6.18133 38.7733 6.10667 38.688 6.064C38.6027 6 38.528 5.94667 38.464 5.904C38.4213 5.84 38.4 5.808 38.4 5.808C38.4 5.78667 38.4 5.76533 38.4 5.744C38.464 5.68 38.784 5.72267 39.36 5.872C39.936 6 40.32 6.11733 40.512 6.224C40.7467 6.33067 40.96 6.46933 41.152 6.64C41.344 6.78933 41.536 6.85333 41.728 6.832C42.0267 6.78933 42.528 6.66133 43.232 6.448C43.9573 6.21333 44.352 6.07467 44.416 6.032C44.48 5.968 44.4693 5.25333 44.384 3.888C44.32 2.50133 44.2453 1.744 44.16 1.616C44.096 1.552 44.0853 1.46667 44.128 1.36C44.1707 1.25333 44.16 1.2 44.096 1.2C44.032 1.2 43.9787 1.11467 43.936 0.943998ZM48.064 7.568C48.064 7.48267 48.1067 7.344 48.192 7.152C48.2987 6.96 48.3093 6.88533 48.224 6.928C48.0533 6.928 47.7867 6.98133 47.424 7.088C47.0613 7.17333 46.8693 7.22667 46.848 7.248C46.784 7.29067 46.7307 7.55733 46.688 8.048L46.656 8.816H47.008C47.2853 8.816 47.424 8.76267 47.424 8.656C47.424 8.54933 47.5307 8.35733 47.744 8.08C47.9573 7.80267 48.064 7.632 48.064 7.568ZM44.448 9.2C44.448 8.85867 44.4267 8.57067 44.384 8.336C44.3413 8.10133 44.288 7.99467 44.224 8.016C44.1813 8.016 43.8827 8.112 43.328 8.304C42.7947 8.47467 42.528 8.57067 42.528 8.592C42.5067 8.592 42.5387 8.85867 42.624 9.392C42.7093 9.75467 42.7627 9.97867 42.784 10.064C42.8267 10.128 42.912 10.128 43.04 10.064L43.584 9.968C43.9893 9.86133 44.2347 9.776 44.32 9.712C44.4053 9.648 44.448 9.47733 44.448 9.2ZM44.256 12.368C44.256 12.2613 44.2027 12.208 44.096 12.208C44.0107 12.208 43.7653 12.2613 43.36 12.368L42.784 12.496L42.816 13.008C42.8373 13.3707 42.8587 13.5627 42.88 13.584C42.9013 13.584 43.136 13.52 43.584 13.392C44.032 13.264 44.3307 13.1787 44.48 13.136C44.6507 13.0507 44.6933 12.944 44.608 12.816C44.544 12.688 44.4693 12.6133 44.384 12.592C44.2987 12.5707 44.256 12.496 44.256 12.368ZM47.776 17.872C47.776 17.808 47.7227 17.776 47.616 17.776C47.5307 17.7547 47.4347 17.776 47.328 17.84C47.0293 18.0107 46.24 18.2347 44.96 18.512L44.224 18.64V19.088C44.2453 19.6853 44.2453 20.592 44.224 21.808C44.224 23.0027 44.2133 23.6107 44.192 23.632C44.1707 23.632 44.1387 23.6853 44.096 23.792C44.0533 23.8773 44.0213 23.9627 44 24.048C44 24.112 44 24.1547 44 24.176C44.128 24.176 44.352 23.632 44.672 22.544C44.7787 22.16 44.8533 21.7013 44.896 21.168C44.9387 20.6347 44.9067 20.2613 44.8 20.048C44.736 19.8773 44.736 19.792 44.8 19.792C44.8853 19.792 44.8853 19.76 44.8 19.696C44.6293 19.5253 44.64 19.44 44.832 19.44C45.0453 19.44 45.3867 19.696 45.856 20.208C46.3467 20.72 46.592 21.072 46.592 21.264C46.592 21.3493 46.656 21.488 46.784 21.68C46.912 21.872 46.9973 22.2773 47.04 22.896L47.104 23.856L47.456 23.92C48.3733 24.0693 48.7893 24.08 48.704 23.952C48.6827 23.9093 48.608 23.8453 48.48 23.76C48.3093 23.696 48.224 23.632 48.224 23.568C48.224 23.504 48.1493 23.3973 48 23.248C47.8933 23.12 47.8293 23.0133 47.808 22.928C47.7867 22.8213 47.7973 22.5333 47.84 22.064C47.8827 21.4667 47.9253 21.136 47.968 21.072C48.032 21.008 48.064 20.5387 48.064 19.664C48.064 18.768 48.0107 18.2773 47.904 18.192C47.8187 18.0853 47.776 17.9787 47.776 17.872ZM46.976 25.488C46.7413 25.3173 46.592 25.2533 46.528 25.296C46.464 25.3387 46.368 25.5413 46.24 25.904C46.176 26.2027 46.08 26.4267 45.952 26.576C45.568 26.9813 45.376 27.2373 45.376 27.344C45.376 27.3653 45.536 27.408 45.856 27.472L47.488 27.856C48.896 28.1547 49.7173 28.2613 49.952 28.176C50.1013 28.1333 50.1333 28.0907 50.048 28.048C49.984 27.984 49.8667 27.9093 49.696 27.824L48.928 27.44C48.7787 27.3547 48.6827 27.248 48.64 27.12C48.6187 27.0133 48.576 26.96 48.512 26.96C48.4693 26.96 48.288 26.7573 47.968 26.352C47.648 25.9467 47.4453 25.744 47.36 25.744C47.296 25.744 47.168 25.6587 46.976 25.488ZM50.688 32.112C50.5387 32.0693 50.464 32.08 50.464 32.144C50.464 32.208 50.528 32.2507 50.656 32.272C50.784 32.3147 50.848 32.304 50.848 32.24C50.848 32.2187 50.7947 32.176 50.688 32.112ZM74.72 3.952C74.6347 3.80267 74.624 3.696 74.688 3.632C74.752 3.54667 74.88 3.536 75.072 3.6C75.264 3.664 75.4133 3.74933 75.52 3.856C75.6267 3.96267 75.712 4.02667 75.776 4.048C75.904 4.112 76.224 4.42133 76.736 4.976C77.2693 5.53067 77.536 5.85067 77.536 5.936C77.536 6.08533 77.5787 6.224 77.664 6.352C77.7707 6.45867 77.824 6.61867 77.824 6.832C77.824 7.024 77.856 7.12 77.92 7.12C78.0053 7.12 78.3467 6.96 78.944 6.64C79.5413 6.32 80.0107 6.16 80.352 6.16C80.8427 6.16 81.184 6.21333 81.376 6.32C81.5893 6.40533 81.9307 6.672 82.4 7.12C82.9333 7.65333 83.2 7.94133 83.2 7.984C83.2427 8.45333 83.296 8.784 83.36 8.976C83.3813 9.08267 83.264 9.264 83.008 9.52C82.752 9.776 82.4 10.224 81.952 10.864C81.5253 11.4827 81.1093 12.048 80.704 12.56C80.32 13.0507 80.0107 13.4453 79.776 13.744C79.5627 14.0213 79.3387 14.2773 79.104 14.512C78.8907 14.7467 78.6453 15.0667 78.368 15.472C77.408 16.6667 76.832 17.3387 76.64 17.488C76.448 17.6373 76.4053 17.712 76.512 17.712C76.64 17.6907 77.024 17.552 77.664 17.296C78.368 17.04 79.008 16.8267 79.584 16.656C80.1813 16.464 80.512 16.3253 80.576 16.24C80.64 16.1547 80.7147 16.1227 80.8 16.144C80.8853 16.1653 81.0027 16.1547 81.152 16.112C81.3013 16.048 81.4507 16.0693 81.6 16.176C81.7707 16.2827 81.9733 16.3253 82.208 16.304C82.4427 16.2613 82.592 16.2827 82.656 16.368C82.7413 16.4533 82.7627 16.496 82.72 16.496C82.6773 16.496 82.7307 16.5813 82.88 16.752C83.0507 16.9013 83.1787 16.976 83.264 16.976C83.3493 16.976 83.392 16.9973 83.392 17.04C83.392 17.0827 83.5733 17.296 83.936 17.68C84.32 18.064 84.5227 18.2987 84.544 18.384C84.5653 18.96 84.448 19.504 84.192 20.016C83.6587 21.0613 83.392 21.6373 83.392 21.744C83.392 21.808 83.3173 21.968 83.168 22.224C83.04 22.48 82.9227 22.7787 82.816 23.12L82.592 23.632L82.816 23.856C82.9227 24.0267 83.072 24.1547 83.264 24.24C83.456 24.3253 83.648 24.464 83.84 24.656C84.0533 24.848 84.1173 25.0187 84.032 25.168C83.968 25.296 83.9787 25.424 84.064 25.552C84.256 25.8933 84.2773 26.064 84.128 26.064C83.9787 26.064 83.8613 26.0747 83.776 26.096C83.6907 26.1387 83.3387 26.1813 82.72 26.224C82.1227 26.2667 81.6427 26.32 81.28 26.384C80.9173 26.448 80.5013 26.4907 80.032 26.512C79.264 26.5333 78.1333 26.8107 76.64 27.344C76.5333 27.3653 76.4053 27.3867 76.256 27.408H76L76.032 28.272C76.0533 28.8267 76.0427 29.1467 76 29.232C76 29.2533 75.968 29.2533 75.904 29.232C75.8613 29.2107 75.7973 29.168 75.712 29.104C75.6267 29.04 75.5413 28.9547 75.456 28.848C74.6667 28.1013 74.208 27.6533 74.08 27.504C73.952 27.3547 73.8773 27.184 73.856 26.992C73.8133 26.7147 73.7493 26.512 73.664 26.384C73.6 26.2773 73.568 26.064 73.568 25.744C73.5467 24.2933 73.4507 23.0133 73.28 21.904C73.2373 21.648 73.1947 21.4987 73.152 21.456C73.1093 21.392 73.056 21.3813 72.992 21.424C72.7787 21.5307 72.32 21.9467 71.616 22.672C70.7413 23.568 70.144 24.1547 69.824 24.432C69.5253 24.688 69.1413 24.976 68.672 25.296C68.352 25.488 68.192 25.5093 68.192 25.36C68.2347 25.296 68.192 25.104 68.064 24.784C67.9573 24.4427 67.8827 24.144 67.84 23.888C67.8187 23.7813 67.7867 23.7067 67.744 23.664C67.7227 23.6213 67.6907 23.6 67.648 23.6C67.5627 23.6213 67.5093 23.568 67.488 23.44C67.4453 23.2907 67.4773 23.1307 67.584 22.96C67.648 22.7893 67.6587 22.6293 67.616 22.48C67.5947 22.3307 67.648 22.192 67.776 22.064C67.904 21.936 67.968 21.8187 67.968 21.712C67.9893 21.584 68.0213 21.52 68.064 21.52C68.128 21.52 68.16 21.4773 68.16 21.392C68.16 21.2853 68.192 21.232 68.256 21.232C68.32 21.232 68.3947 21.1253 68.48 20.912C68.6293 20.592 68.8107 20.3147 69.024 20.08C69.2587 19.8453 69.4827 19.7173 69.696 19.696C69.9307 19.6747 70.1653 19.5253 70.4 19.248C70.72 18.9067 70.7307 18.736 70.432 18.736C70.3253 18.736 70.2507 18.7147 70.208 18.672C70.1867 18.608 70.208 18.5653 70.272 18.544C70.2933 18.544 70.3253 18.544 70.368 18.544C70.432 18.5227 70.4107 18.4907 70.304 18.448C70.24 18.448 70.1973 18.4373 70.176 18.416C69.984 18.352 69.888 18.2987 69.888 18.256C69.888 18.2133 69.984 18.192 70.176 18.192H70.432L70.208 18L70.016 17.808L70.4 17.904C70.8267 17.9893 71.1147 18.0107 71.264 17.968C71.4347 17.9253 71.6053 17.7867 71.776 17.552C72.1387 17.0613 72.4693 16.6667 72.768 16.368C72.8533 16.2827 72.896 16.2187 72.896 16.176C72.896 16.1333 73.1307 15.8347 73.6 15.28C74.0693 14.7253 74.272 14.4267 74.208 14.384C74.1653 14.32 73.8987 14.192 73.408 14C72.192 13.5093 71.584 13.1787 71.584 13.008C71.584 12.9227 71.5627 12.88 71.52 12.88C71.3707 12.88 71.36 12.7947 71.488 12.624C71.5093 12.5813 71.5413 12.5387 71.584 12.496C71.712 12.4107 71.7333 12.3253 71.648 12.24C71.6053 12.176 71.648 12.144 71.776 12.144C71.84 12.144 72.0107 12.1547 72.288 12.176C72.736 12.2187 72.96 12.2187 72.96 12.176C72.96 12.1547 72.928 12.1227 72.864 12.08C72.7787 11.952 72.736 11.856 72.736 11.792C72.736 11.7067 72.6827 11.6533 72.576 11.632C72.4693 11.5893 72.416 11.5253 72.416 11.44C72.416 11.3547 72.384 11.312 72.32 11.312C72.2773 11.312 72.256 11.2267 72.256 11.056C72.256 10.864 72.224 10.768 72.16 10.768C72.096 10.768 72.0747 10.6827 72.096 10.512C72.1387 10.32 72.16 10.1173 72.16 9.904C72.16 9.66933 72.192 9.552 72.256 9.552C72.32 9.552 72.3093 9.49867 72.224 9.392C72.16 9.28533 72.16 9.232 72.224 9.232C72.3093 9.232 72.3413 9.2 72.32 9.136C72.2987 9.05067 72.32 8.95467 72.384 8.848C72.448 8.74133 72.512 8.688 72.576 8.688C72.8533 8.688 73.28 8.05867 73.856 6.8C74.368 5.75467 74.6667 5.08267 74.752 4.784C74.8373 4.464 74.8267 4.18667 74.72 3.952ZM78.016 9.872C78.016 9.78667 77.8027 9.85067 77.376 10.064C77.0133 10.2347 76.6933 10.32 76.416 10.32C76.16 10.3413 75.9893 10.3733 75.904 10.416C75.84 10.4587 75.7013 10.6293 75.488 10.928C75.1893 11.3333 75.008 11.568 74.944 11.632C74.88 11.6533 74.7947 11.728 74.688 11.856C74.6027 11.984 74.528 12.1013 74.464 12.208C74.4 12.2933 74.3893 12.3467 74.432 12.368C74.4533 12.368 74.624 12.4213 74.944 12.528C75.2853 12.6347 75.488 12.7093 75.552 12.752C75.6373 12.7733 75.84 12.5813 76.16 12.176C76.5013 11.7493 76.704 11.504 76.768 11.44C76.8533 11.376 77.0773 11.1093 77.44 10.64C77.824 10.1493 78.016 9.89333 78.016 9.872ZM80.48 20.592C80.7573 19.888 80.896 19.5253 80.896 19.504C80.896 19.4827 80.8747 19.472 80.832 19.472C80.512 19.5147 79.584 19.856 78.048 20.496C77.4507 20.752 76.96 20.944 76.576 21.072C76.128 21.2 75.872 21.328 75.808 21.456C75.744 21.5627 75.776 21.8827 75.904 22.416C76.032 23.0347 76.096 23.4293 76.096 23.6C76.096 23.7707 76.128 23.856 76.192 23.856C76.4053 23.856 77.1307 23.6747 78.368 23.312C78.5387 23.2267 78.72 23.1733 78.912 23.152C79.1253 23.1093 79.3387 22.9813 79.552 22.768C79.7653 22.5547 79.904 22.32 79.968 22.064C80.0533 21.7867 80.224 21.296 80.48 20.592ZM107.296 24.304L107.328 24.208C107.371 24.2507 107.381 24.304 107.36 24.368L107.296 24.304ZM102.624 13.36C102.581 13.36 102.56 13.3387 102.56 13.296C102.56 13.2533 102.603 13.232 102.688 13.232C102.709 13.232 102.731 13.2427 102.752 13.264C102.795 13.264 102.805 13.2747 102.784 13.296C102.741 13.3387 102.688 13.36 102.624 13.36ZM106.912 12.08C106.805 12.08 106.752 12.048 106.752 11.984C106.752 11.92 106.805 11.888 106.912 11.888C107.04 11.888 107.104 11.92 107.104 11.984C107.104 12.048 107.04 12.08 106.912 12.08ZM108.608 3.056C108.715 3.056 108.779 3.03467 108.8 2.992C108.843 2.928 108.885 2.90667 108.928 2.928C108.992 2.928 109.12 2.992 109.312 3.12C109.504 3.26933 109.643 3.35467 109.728 3.376C109.813 3.376 109.909 3.312 110.016 3.184C110.123 3.056 110.197 2.992 110.24 2.992C110.304 2.992 110.421 3.06667 110.592 3.216C110.784 3.344 111.04 3.48267 111.36 3.632C111.701 3.78133 111.872 3.87733 111.872 3.92C111.872 3.94133 111.957 3.99467 112.128 4.08C112.32 4.144 112.416 4.25067 112.416 4.4C112.416 4.54933 112.533 4.77333 112.768 5.072C113.109 5.456 113.195 5.73333 113.024 5.904C112.96 5.968 112.843 6.512 112.672 7.536C112.501 8.56 112.363 9.50933 112.256 10.384C112.213 10.7893 112.245 10.992 112.352 10.992C112.373 10.992 112.405 10.96 112.448 10.896C112.469 10.832 112.608 10.8107 112.864 10.832C113.12 10.8533 113.28 10.8427 113.344 10.8C113.429 10.7573 113.675 10.736 114.08 10.736C114.485 10.7147 114.72 10.6507 114.784 10.544C114.869 10.4373 115.04 10.448 115.296 10.576C115.552 10.6827 115.819 10.7253 116.096 10.704C116.395 10.6613 116.64 10.736 116.832 10.928C117.024 11.12 117.28 11.2587 117.6 11.344C117.963 11.472 118.144 11.5573 118.144 11.6C118.144 11.6213 118.123 11.664 118.08 11.728C117.995 11.7707 118.016 11.856 118.144 11.984C118.293 12.176 118.485 12.4 118.72 12.656C118.976 12.8907 119.125 13.008 119.168 13.008C119.253 13.008 119.285 13.0933 119.264 13.264C119.2 13.648 118.805 13.7227 118.08 13.488C117.269 13.232 116.704 13.0827 116.384 13.04C116.085 12.976 115.659 12.944 115.104 12.944C114.379 12.944 113.888 12.976 113.632 13.04C113.397 13.0827 113.024 13.1573 112.512 13.264C112.021 13.3707 111.723 13.4453 111.616 13.488C111.509 13.5093 111.456 13.5627 111.456 13.648C111.456 13.7333 111.424 13.8293 111.36 13.936C111.317 14.0213 111.275 14.128 111.232 14.256C111.211 14.3627 111.189 14.416 111.168 14.416C111.147 14.416 111.083 14.3627 110.976 14.256C110.827 14.1067 110.699 14.032 110.592 14.032C110.507 14.032 110.411 13.968 110.304 13.84C110.24 13.776 110.123 13.7333 109.952 13.712C109.803 13.6907 109.707 13.712 109.664 13.776C109.621 13.8187 109.493 13.84 109.28 13.84C109.109 13.84 109.013 13.872 108.992 13.936C108.971 13.9787 109.013 14.032 109.12 14.096C109.205 14.1387 109.312 14.1813 109.44 14.224C109.589 14.2667 109.675 14.3093 109.696 14.352C109.739 14.3947 109.739 14.4373 109.696 14.48C109.611 14.5867 109.6 14.672 109.664 14.736C109.749 14.7787 109.792 14.8747 109.792 15.024C109.792 15.152 109.888 15.312 110.08 15.504C110.293 15.696 110.357 15.8773 110.272 16.048C110.208 16.1973 110.176 16.464 110.176 16.848C110.176 17.232 110.144 17.648 110.08 18.096C110.037 18.5227 110.027 18.7787 110.048 18.864C110.069 18.928 110.272 18.7787 110.656 18.416C111.04 18.0533 111.371 17.7547 111.648 17.52C111.904 17.3067 112.181 17.04 112.48 16.72C112.8 16.4 112.949 16.2187 112.928 16.176C112.928 16.1547 113.045 15.92 113.28 15.472C113.536 15.0027 113.707 14.7147 113.792 14.608C113.899 14.5013 113.973 14.448 114.016 14.448C114.059 14.4267 114.144 14.4587 114.272 14.544C114.464 14.6507 114.592 14.704 114.656 14.704C114.72 14.704 114.944 14.8 115.328 14.992C115.712 15.184 115.947 15.312 116.032 15.376C116.096 15.4827 116.107 15.6107 116.064 15.76C116.043 15.9093 116.075 16.0693 116.16 16.24C116.352 16.6667 116.267 17.232 115.904 17.936C115.776 18.1493 115.691 18.2027 115.648 18.096C115.605 18.0107 115.563 17.968 115.52 17.968C115.499 17.968 115.456 18.0213 115.392 18.128C115.328 18.256 115.168 18.384 114.912 18.512C114.677 18.6187 114.539 18.7147 114.496 18.8C114.475 18.864 114.4 18.8533 114.272 18.768C114.144 18.6827 114.016 18.7147 113.888 18.864C113.76 18.9493 113.568 19.088 113.312 19.28C113.077 19.4507 112.939 19.536 112.896 19.536C112.875 19.536 112.875 19.44 112.896 19.248L112.96 18.992L112.736 19.312C112.587 19.4827 112.427 19.5787 112.256 19.6C112.085 19.6 111.904 19.6853 111.712 19.856C111.584 19.984 111.52 20.0267 111.52 19.984C111.648 19.8133 111.648 19.728 111.52 19.728C111.435 19.7707 111.392 19.76 111.392 19.696C111.392 19.5467 111.179 19.6747 110.752 20.08C110.517 20.2933 110.4 20.3893 110.4 20.368C110.4 20.3253 110.507 20.176 110.72 19.92C110.955 19.6213 111.04 19.4507 110.976 19.408C110.848 19.344 110.667 19.4293 110.432 19.664C110.197 19.8773 110.069 20.1013 110.048 20.336C110.027 20.592 110.059 20.752 110.144 20.816C110.229 20.88 110.517 20.944 111.008 21.008C111.861 21.0933 112.875 21.2853 114.048 21.584C115.243 21.8827 116.043 22.1387 116.448 22.352C116.619 22.4587 116.811 22.512 117.024 22.512C117.195 22.512 117.323 22.5547 117.408 22.64C117.515 22.7253 117.803 23.0027 118.272 23.472C118.443 23.6853 118.645 23.9733 118.88 24.336C119.136 24.6987 119.285 24.9867 119.328 25.2C119.371 25.3493 119.456 25.52 119.584 25.712C119.712 25.904 119.851 26.16 120 26.48C120.107 26.7573 120.139 26.896 120.096 26.896C120.096 26.9173 120.075 26.9173 120.032 26.896C119.904 26.8107 119.829 26.768 119.808 26.768C119.787 26.7893 119.787 26.8533 119.808 26.96C119.829 27.088 119.808 27.152 119.744 27.152C119.68 27.152 119.648 27.12 119.648 27.056C119.648 27.0133 119.456 26.928 119.072 26.8C118.731 26.7147 118.283 26.5333 117.728 26.256C117.173 25.9787 116.8 25.7653 116.608 25.616C115.605 24.784 114.581 24.1973 113.536 23.856C112.853 23.6213 112.107 23.3227 111.296 22.96C110.485 22.576 110.059 22.384 110.016 22.384C109.803 22.384 109.771 22.864 109.92 23.824C109.984 24.1013 109.973 24.3893 109.888 24.688C109.824 24.9867 109.835 25.36 109.92 25.808C110.027 26.2347 110.059 26.608 110.016 26.928C109.995 27.248 110.005 27.472 110.048 27.6C110.112 27.7493 110.027 27.9307 109.792 28.144C109.579 28.3787 109.408 28.5173 109.28 28.56C109.173 28.6027 109.12 28.7093 109.12 28.88C109.12 29.2 108.949 29.488 108.608 29.744C108.459 29.872 108.363 29.872 108.32 29.744C108.277 29.5947 108.011 29.3173 107.52 28.912C107.371 28.784 107.2 28.6027 107.008 28.368C106.837 28.1547 106.752 28.0267 106.752 27.984C106.752 27.9413 106.688 27.8667 106.56 27.76C106.091 27.4187 105.76 27.0133 105.568 26.544C105.525 26.3947 105.536 26.3307 105.6 26.352C105.621 26.352 105.664 26.3733 105.728 26.416C106.069 26.608 106.293 26.5547 106.4 26.256C106.485 26.1067 106.645 25.9787 106.88 25.872C107.136 25.7653 107.264 25.648 107.264 25.52C107.285 25.3707 107.328 25.296 107.392 25.296C107.456 25.296 107.488 25.2107 107.488 25.04C107.488 24.848 107.509 24.7307 107.552 24.688C107.616 24.624 107.637 24.56 107.616 24.496C107.595 24.432 107.541 24.2827 107.456 24.048C107.371 23.856 107.349 23.76 107.392 23.76V23.664C107.349 23.6 107.328 23.2587 107.328 22.64C107.328 22 107.296 21.5627 107.232 21.328C107.147 21.008 107.147 20.8373 107.232 20.816C107.253 20.816 107.275 20.848 107.296 20.912C107.317 20.976 107.328 20.976 107.328 20.912C107.328 20.8907 107.328 20.8587 107.328 20.816C107.328 20.5387 107.179 20.6133 106.88 21.04C106.731 21.232 106.677 21.328 106.72 21.328C106.741 21.328 106.773 21.3173 106.816 21.296C106.944 21.232 107.019 21.1573 107.04 21.072H107.072C107.093 21.136 107.008 21.2533 106.816 21.424C106.645 21.5947 106.56 21.7227 106.56 21.808C106.56 21.9573 106.069 22.5653 105.088 23.632C104.939 23.8027 104.853 23.9307 104.832 24.016C104.811 24.2293 104.459 24.7093 103.776 25.456C103.563 25.6693 103.456 25.7973 103.456 25.84C103.456 25.8613 103.221 26.0853 102.752 26.512C102.304 26.96 102.048 27.28 101.984 27.472C101.92 27.6853 101.792 27.792 101.6 27.792C101.408 27.792 101.28 27.792 101.216 27.792C101.173 27.792 101.109 27.824 101.024 27.888C100.939 27.952 100.736 27.8453 100.416 27.568C100.096 27.2907 99.8933 27.152 99.808 27.152C99.744 27.152 99.5093 27.0133 99.104 26.736C98.72 26.48 98.528 26.3307 98.528 26.288C98.528 26.2453 98.56 26.224 98.624 26.224C98.7093 26.224 98.7413 26.1493 98.72 26C98.6773 25.8507 98.72 25.6907 98.848 25.52C98.976 25.328 99.104 25.2427 99.232 25.264C99.3813 25.2853 99.616 25.1787 99.936 24.944C100.256 24.7093 100.437 24.592 100.48 24.592C100.544 24.592 100.619 24.5387 100.704 24.432C100.811 24.3253 100.896 24.272 100.96 24.272C101.045 24.272 101.109 24.208 101.152 24.08C101.173 24.016 101.248 23.92 101.376 23.792C101.504 23.664 101.589 23.6 101.632 23.6C101.675 23.6 101.696 23.568 101.696 23.504C101.696 23.44 101.653 23.408 101.568 23.408C101.483 23.408 101.44 23.3973 101.44 23.376C101.44 22.9707 101.589 22.1173 101.888 20.816C102.016 20.304 102.101 19.8453 102.144 19.44C102.165 19.12 102.155 18.8853 102.112 18.736C102.069 18.5867 101.92 18.4053 101.664 18.192C101.536 18.064 101.461 17.9893 101.44 17.968C101.44 17.9253 101.483 17.84 101.568 17.712C101.675 17.5413 101.803 17.4773 101.952 17.52C102.123 17.5627 102.336 17.5947 102.592 17.616C103.083 17.7013 103.573 17.936 104.064 18.32C104.576 18.6827 104.853 19.0347 104.896 19.376C104.96 19.568 105.045 19.7387 105.152 19.888C105.28 20.0373 105.344 20.144 105.344 20.208C105.344 20.2933 105.365 20.3467 105.408 20.368C105.472 20.368 105.525 20.336 105.568 20.272C105.611 20.208 105.664 20.1867 105.728 20.208C105.749 20.2507 105.76 20.2613 105.76 20.24C105.781 20.1973 105.792 20.1653 105.792 20.144C105.792 20.0373 105.835 19.984 105.92 19.984C106.027 19.984 106.059 20.0587 106.016 20.208C105.995 20.3573 106.005 20.432 106.048 20.432C106.091 20.432 106.293 20.272 106.656 19.952L107.2 19.472L107.232 17.648C107.253 16.4107 107.2 15.76 107.072 15.696C106.965 15.6107 106.933 15.4933 106.976 15.344C107.019 15.1947 106.965 15.0453 106.816 14.896C106.667 14.7253 106.453 14.6613 106.176 14.704C105.92 14.7253 105.792 14.768 105.792 14.832C105.792 14.8747 105.728 14.896 105.6 14.896C105.472 14.896 105.355 14.9493 105.248 15.056C105.163 15.1413 105.067 15.1627 104.96 15.12C104.875 15.0773 104.811 15.088 104.768 15.152C104.725 15.1947 104.533 15.3013 104.192 15.472C103.851 15.6427 103.648 15.728 103.584 15.728C103.541 15.728 103.371 15.8027 103.072 15.952C102.773 16.1013 102.592 16.1653 102.528 16.144C102.485 16.1227 102.443 16.144 102.4 16.208C102.379 16.272 102.336 16.2613 102.272 16.176C102.208 16.0693 102.176 16.08 102.176 16.208C102.176 16.3147 102.123 16.368 102.016 16.368C101.931 16.368 101.888 16.4213 101.888 16.528C101.888 16.6133 101.845 16.656 101.76 16.656C101.675 16.656 101.515 16.72 101.28 16.848C101.045 16.9547 100.875 17.008 100.768 17.008C100.661 17.008 100.608 17.04 100.608 17.104C100.608 17.168 100.565 17.2 100.48 17.2C100.395 17.2 100.277 17.264 100.128 17.392C99.9787 17.52 99.8293 17.5627 99.68 17.52C99.552 17.4773 99.4667 17.4987 99.424 17.584C99.4027 17.648 99.328 17.68 99.2 17.68C99.0933 17.68 98.9867 17.744 98.88 17.872C98.7733 18 98.6773 18.0427 98.592 18C98.528 17.936 98.432 17.9147 98.304 17.936C98.1973 17.9573 98.1227 18 98.08 18.064C98.0373 18.128 97.888 18.0533 97.632 17.84C97.3973 17.6053 97.152 17.4133 96.896 17.264C96.64 17.0933 96.4907 16.9653 96.448 16.88C96.4267 16.7733 96.3413 16.72 96.192 16.72C95.9147 16.72 95.84 16.6347 95.968 16.464C96.0107 16.3573 96.0107 16.2613 95.968 16.176C95.8613 16.0267 95.872 15.8987 96 15.792C96.128 15.6853 96.32 15.6107 96.576 15.568C97.088 15.5253 97.4507 15.4293 97.664 15.28C97.8347 15.1947 97.9307 15.1733 97.952 15.216C97.9947 15.2373 98.112 15.1733 98.304 15.024C98.7093 14.704 98.912 14.672 98.912 14.928C98.912 15.0133 98.9547 15.0453 99.04 15.024C99.1253 15.0027 99.1573 14.9173 99.136 14.768C99.136 14.704 99.1573 14.6613 99.2 14.64C99.264 14.6827 99.36 14.6613 99.488 14.576C99.616 14.4907 99.7333 14.4587 99.84 14.48C99.8827 14.48 99.9147 14.4693 99.936 14.448C99.8933 14.3627 99.936 14.288 100.064 14.224C100.213 14.1387 100.341 14.1493 100.448 14.256C100.491 14.3627 100.544 14.416 100.608 14.416C100.693 14.3947 100.875 14.3093 101.152 14.16L101.76 13.84L101.376 13.936C101.099 13.9573 100.96 13.9253 100.96 13.84C100.96 13.776 101.109 13.7333 101.408 13.712C101.579 13.712 101.696 13.6907 101.76 13.648C101.845 13.584 101.909 13.5947 101.952 13.68C101.973 13.744 102.08 13.776 102.272 13.776C102.464 13.7547 102.603 13.6907 102.688 13.584C102.795 13.4987 102.88 13.3813 102.944 13.232C103.008 13.0827 103.061 13.04 103.104 13.104C103.168 13.1467 103.232 13.1253 103.296 13.04C103.339 12.9973 103.445 12.944 103.616 12.88C103.787 12.7947 103.893 12.7627 103.936 12.784C104 12.8267 104.032 12.8907 104.032 12.976C104.032 13.0613 104.064 13.0933 104.128 13.072C104.213 13.0293 104.235 12.944 104.192 12.816C104.192 12.752 104.213 12.72 104.256 12.72C104.299 12.7413 104.363 12.72 104.448 12.656C104.555 12.5707 104.608 12.5813 104.608 12.688C104.608 12.7947 104.672 12.8373 104.8 12.816C104.949 12.7733 105.088 12.752 105.216 12.752C105.344 12.752 105.461 12.688 105.568 12.56C105.696 12.432 105.792 12.4 105.856 12.464C105.941 12.528 106.251 12.4853 106.784 12.336C107.339 12.1653 107.691 12.0693 107.84 12.048C108.203 11.984 108.437 11.8773 108.544 11.728C108.437 11.728 108.384 11.696 108.384 11.632C108.384 11.568 108.491 11.5467 108.704 11.568C108.939 11.5893 109.077 11.5573 109.12 11.472C109.184 11.344 109.259 11.0347 109.344 10.544C109.429 10.032 109.451 9.744 109.408 9.68C109.344 9.63733 108.267 9.98933 106.176 10.736C105.728 10.9067 105.397 10.992 105.184 10.992C104.992 10.992 104.768 10.96 104.512 10.896C104.256 10.8107 104.128 10.7467 104.128 10.704C104.128 10.64 104.021 10.5867 103.808 10.544C103.616 10.5013 103.424 10.3947 103.232 10.224C103.061 10.0533 102.955 9.968 102.912 9.968C102.869 9.968 102.837 9.904 102.816 9.776C102.795 9.69067 102.827 9.60533 102.912 9.52C103.019 9.43467 103.221 9.296 103.52 9.104C104.032 8.784 104.373 8.592 104.544 8.528C104.736 8.44267 105.003 8.32533 105.344 8.176C105.941 7.89867 106.507 7.696 107.04 7.568L108 7.376C108.533 7.248 108.907 7.22667 109.12 7.312C109.397 7.41866 109.579 7.46133 109.664 7.44C109.749 7.39733 109.803 7.28 109.824 7.088L109.952 6.48C109.995 6.07467 109.941 5.86133 109.792 5.84C109.771 5.84 109.749 5.84 109.728 5.84C109.707 5.81867 109.696 5.776 109.696 5.712C109.696 5.648 109.6 5.63733 109.408 5.68C109.152 5.78666 108.661 6 107.936 6.32C107.232 6.64 106.784 6.85333 106.592 6.96C106.357 7.10933 106.155 7.184 105.984 7.184C105.323 7.14133 104.693 6.98133 104.096 6.704C103.84 6.59733 103.648 6.512 103.52 6.448C103.413 6.42667 103.243 6.29867 103.008 6.064C102.773 5.82933 102.656 5.66933 102.656 5.584C102.656 5.52 102.688 5.488 102.752 5.488C102.816 5.488 102.88 5.41333 102.944 5.264C103.008 5.09333 103.104 5.008 103.232 5.008C103.36 5.008 103.488 4.96533 103.616 4.88C103.744 4.79467 103.979 4.69867 104.32 4.592C104.661 4.48533 104.843 4.41067 104.864 4.368C104.907 4.304 105.141 4.208 105.568 4.08C106.016 3.952 106.315 3.888 106.464 3.888C106.677 3.888 106.773 3.84533 106.752 3.76C106.752 3.696 106.773 3.664 106.816 3.664C106.859 3.64267 106.912 3.64267 106.976 3.664C106.997 3.68533 107.072 3.64267 107.2 3.536C107.328 3.408 107.413 3.38667 107.456 3.472C107.52 3.55733 107.584 3.55733 107.648 3.472C107.712 3.38667 107.776 3.36533 107.84 3.408C107.904 3.42933 108.021 3.376 108.192 3.248C108.363 3.12 108.501 3.056 108.608 3.056ZM112.128 10.288C112.192 10.2453 112.224 10.2027 112.224 10.16C112.224 10.096 112.192 10.064 112.128 10.064C112.064 10.064 112.032 10.1067 112.032 10.192C112.032 10.2773 112.064 10.3093 112.128 10.288ZM113.536 18.96C113.579 18.96 113.6 18.9387 113.6 18.896C113.6 18.832 113.568 18.8 113.504 18.8C113.44 18.8 113.419 18.832 113.44 18.896C113.483 18.9387 113.515 18.96 113.536 18.96ZM109.952 19.984C110.016 19.984 110.069 19.9627 110.112 19.92C110.155 19.856 110.123 19.824 110.016 19.824C109.909 19.824 109.856 19.856 109.856 19.92C109.856 19.9627 109.888 19.984 109.952 19.984ZM107.2 20.432C107.264 20.432 107.296 20.4107 107.296 20.368C107.296 20.304 107.264 20.272 107.2 20.272C107.136 20.272 107.104 20.304 107.104 20.368C107.104 20.4107 107.136 20.432 107.2 20.432ZM105.088 20.72C105.131 20.6773 105.141 20.656 105.12 20.656C105.099 20.656 105.045 20.688 104.96 20.752C104.875 20.7947 104.864 20.816 104.928 20.816C105.013 20.816 105.067 20.784 105.088 20.72ZM106.176 21.936C106.24 21.936 106.283 21.9147 106.304 21.872C106.347 21.808 106.336 21.776 106.272 21.776C106.208 21.776 106.155 21.808 106.112 21.872C106.091 21.9147 106.112 21.936 106.176 21.936Z" fill="black"/>
</svg>
