<svg width="120" height="35" viewBox="0 0 120 35" fill="none" xmlns="http://www.w3.org/2000/svg">
<path d="M8.704 18.648C8.832 18.52 8.91733 18.456 8.96 18.456C9.00267 18.456 9.16267 18.488 9.44 18.552C10.144 18.68 10.6347 18.84 10.912 19.032C11.2107 19.2027 11.328 19.3947 11.264 19.608C11.2 19.7787 11.2107 19.9173 11.296 20.024C11.424 20.1307 11.3707 20.4933 11.136 21.112C10.9227 21.7093 10.688 22.1253 10.432 22.36C10.368 22.4667 10.1973 22.7867 9.92 23.32C9.89867 23.3413 10.016 23.4267 10.272 23.576C10.528 23.704 10.7093 23.768 10.816 23.768C10.88 23.768 10.9013 23.7893 10.88 23.832C10.8587 23.8747 10.88 23.9173 10.944 23.96C11.0293 24.0027 11.04 24.0453 10.976 24.088C10.7413 24.1947 10.752 24.28 11.008 24.344C11.1147 24.408 11.1573 24.536 11.136 24.728C11.1147 24.8773 11.1147 24.9733 11.136 25.016C11.1573 25.0373 11.2213 25.0587 11.328 25.08C11.456 25.144 11.5413 25.1973 11.584 25.24C11.584 25.2613 11.5733 25.2827 11.552 25.304C11.552 25.3253 11.5307 25.336 11.488 25.336C11.424 25.336 11.392 25.3787 11.392 25.464C11.392 25.5493 11.4773 25.592 11.648 25.592C11.9253 25.592 11.8933 25.6453 11.552 25.752C11.3387 25.7947 10.9973 25.88 10.528 26.008C9.71733 26.1787 9.024 26.3387 8.448 26.488C7.89333 26.6373 7.30667 26.7867 6.688 26.936C6.304 27.0213 6.048 27.0853 5.92 27.128C5.81333 27.192 5.76 27.256 5.76 27.32C5.76 27.448 5.80267 27.8 5.888 28.376C5.97333 28.952 5.96267 29.272 5.856 29.336C5.77067 29.4213 5.728 29.496 5.728 29.56C5.728 29.6453 5.696 29.688 5.632 29.688C5.568 29.688 5.51467 29.6667 5.472 29.624C5.45067 29.5387 5.39733 29.5173 5.312 29.56C5.22667 29.6027 5.184 29.592 5.184 29.528C5.184 29.464 5.13067 29.432 5.024 29.432C4.93867 29.4107 4.82133 29.3253 4.672 29.176C4.544 29.048 4.45867 28.9093 4.416 28.76C4.33067 28.568 4.24533 28.4827 4.16 28.504C4.07467 28.5467 3.936 28.472 3.744 28.28C3.552 28.1093 3.41333 28.024 3.328 28.024C3.264 28.024 3.21067 27.928 3.168 27.736C3.14667 27.5653 3.08267 27.0747 2.976 26.264C2.82667 24.9413 2.69867 24.0667 2.592 23.64C2.50667 23.192 2.304 22.5627 1.984 21.752C1.6 20.728 1.184 20.0773 0.736 19.8C0.565333 19.6933 0.448 19.5653 0.384 19.416C0.32 19.2453 0.352 19.128 0.48 19.064C0.565334 18.9787 0.576 18.904 0.512 18.84C0.384 18.7333 0.416 18.68 0.608 18.68C0.736 18.68 1.01333 18.7013 1.44 18.744C2.08 18.8507 2.53867 19 2.816 19.192C3.28533 19.4907 3.66933 19.864 3.968 20.312L4.128 20.536L5.184 20.056C6.99733 19.2453 8.04267 18.84 8.32 18.84C8.42667 18.84 8.55467 18.776 8.704 18.648ZM8.096 21.88C8.13867 21.7093 8.11733 21.624 8.032 21.624C7.94667 21.624 7.72267 21.7093 7.36 21.88C7.01867 22.072 6.53867 22.2533 5.92 22.424C5.32267 22.5733 5.00267 22.68 4.96 22.744C4.91733 22.7653 4.94933 23.0747 5.056 23.672C5.16267 24.2693 5.23733 24.5893 5.28 24.632C5.32267 24.696 5.68533 24.5893 6.368 24.312L7.36 23.96L7.68 23.064C7.936 22.4453 8.07467 22.0507 8.096 21.88ZM18.176 15.544C18.3467 15.48 18.592 15.5227 18.912 15.672C19.1467 15.8 19.4027 15.8747 19.68 15.896C20 15.9387 20.2347 16.0453 20.384 16.216C20.5333 16.3867 20.6933 16.7173 20.864 17.208C21.0347 17.72 21.152 18.232 21.216 18.744C21.28 19.2347 21.2587 19.5227 21.152 19.608C21.1093 19.6293 21.0773 19.7467 21.056 19.96C21.056 20.1733 21.024 20.344 20.96 20.472C20.9173 20.5787 20.8427 20.8133 20.736 21.176C20.6293 21.5173 20.4693 21.8053 20.256 22.04C20.0427 22.2747 19.936 22.4347 19.936 22.52C19.936 22.6053 19.904 22.6373 19.84 22.616C19.776 22.5733 19.744 22.5947 19.744 22.68C19.744 22.7653 19.8187 22.84 19.968 22.904C20.096 22.968 20.4587 23.064 21.056 23.192C21.6533 23.32 22.0693 23.3947 22.304 23.416C22.624 23.4587 22.816 23.576 22.88 23.768C22.9227 23.8533 22.9013 23.9173 22.816 23.96C22.7307 23.9813 22.7627 24.056 22.912 24.184C23.0613 24.312 23.104 24.376 23.04 24.376C22.848 24.376 22.8373 24.4933 23.008 24.728C23.072 24.792 23.168 24.8453 23.296 24.888C23.488 24.9733 23.5947 25.08 23.616 25.208C23.6587 25.3147 23.5947 25.4 23.424 25.464C23.3173 25.528 23.264 25.624 23.264 25.752C23.264 25.816 23.2427 25.8587 23.2 25.88C23.1573 25.9013 23.0613 25.8907 22.912 25.848L22.592 25.912C22.656 26.0187 22.496 26.0507 22.112 26.008C21.9627 25.9867 21.7813 25.9653 21.568 25.944C20.1173 25.6667 18.7307 25.6773 17.408 25.976C16.768 26.1253 16.2453 26.2213 15.84 26.264C15.5413 26.3067 15.36 26.3493 15.296 26.392C15.232 26.4347 15.2 26.5307 15.2 26.68C15.136 26.872 15.1147 27.2133 15.136 27.704C15.1573 28.216 15.136 28.472 15.072 28.472C15.0293 28.472 15.0187 28.536 15.04 28.664C15.0613 28.8133 14.8907 28.696 14.528 28.312C13.9947 27.7787 13.728 27.3733 13.728 27.096C13.728 27.032 13.664 26.968 13.536 26.904C13.408 26.8187 13.344 26.7227 13.344 26.616C13.344 26.5093 13.2907 26.456 13.184 26.456C13.0987 26.456 13.056 26.424 13.056 26.36C13.056 26.2747 13.0453 26.0613 13.024 25.72C13.024 25.3787 12.9707 25.1653 12.864 25.08C12.7573 24.9947 12.7147 24.824 12.736 24.568C12.736 24.376 12.7253 24.28 12.704 24.28C12.6187 24.3013 12.576 24.3013 12.576 24.28C12.576 24.1947 12.6507 24.0987 12.8 23.992C12.9067 23.9067 12.96 23.8213 12.96 23.736C12.9813 23.6293 12.9813 23.3093 12.96 22.776C12.896 22.0293 12.832 21.4533 12.768 21.048C12.7253 20.6427 12.672 20.312 12.608 20.056C12.5867 19.7147 12.4373 19.3093 12.16 18.84C12.096 18.6907 12.0853 18.6053 12.128 18.584C12.2133 18.52 12.2453 18.4347 12.224 18.328C12.224 18.2 12.1813 18.072 12.096 17.944C12.0107 17.7947 11.9253 17.72 11.84 17.72C11.776 17.72 11.7227 17.6987 11.68 17.656C11.6587 17.6133 11.6587 17.56 11.68 17.496C11.7227 17.4107 11.776 17.3253 11.84 17.24C11.968 17.1333 12.032 17.0267 12.032 16.92C12.032 16.8133 12.0853 16.7813 12.192 16.824C12.2987 16.8667 12.512 16.9307 12.832 17.016C13.1733 17.1013 13.3973 17.176 13.504 17.24C13.632 17.304 14.3573 17.1013 15.68 16.632C17.0027 16.1627 17.7173 15.8747 17.824 15.768C17.952 15.6613 18.0693 15.5867 18.176 15.544ZM18.336 19.16C18.3573 18.8613 18.3253 18.712 18.24 18.712C18.176 18.712 17.7387 18.8613 16.928 19.16C16.1173 19.4373 15.584 19.608 15.328 19.672C15.072 19.7147 14.944 19.8107 14.944 19.96C14.944 20.1947 14.9867 20.8133 15.072 21.816C15.1573 22.8187 15.2107 23.3307 15.232 23.352C15.2533 23.3733 15.552 23.3093 16.128 23.16C16.704 22.9893 17.0347 22.8827 17.12 22.84C17.2267 22.776 17.4293 22.264 17.728 21.304C18.048 20.3227 18.2507 19.608 18.336 19.16ZM14.08 5.432C14.3787 5.24 14.56 5.13333 14.624 5.112C14.688 5.09067 14.752 5.112 14.816 5.176C14.88 5.21867 15.0507 5.272 15.328 5.336C15.6267 5.4 15.872 5.432 16.064 5.432C16.2987 5.41067 16.4907 5.48533 16.64 5.656C16.8107 5.80533 16.8853 5.99733 16.864 6.232C16.864 6.44533 16.9173 6.616 17.024 6.744C17.1307 6.85067 17.1733 7.01067 17.152 7.224C17.1307 7.43733 17.1627 7.55467 17.248 7.576C17.4187 7.59733 17.44 7.74667 17.312 8.024C17.2693 8.13067 17.248 8.13067 17.248 8.024C17.2267 7.704 17.0667 7.84267 16.768 8.44C16.7467 8.504 16.7253 8.55733 16.704 8.6C16.4907 9.06933 16.3413 9.32533 16.256 9.368C16.192 9.41067 16.1067 9.58133 16 9.88L15.84 10.168C15.8187 10.104 15.7653 10.0827 15.68 10.104C15.5947 10.104 15.5307 10.1573 15.488 10.264C15.4453 10.456 15.136 10.8507 14.56 11.448L14.368 11.64L15.008 11.704C15.4347 11.704 15.6693 11.7147 15.712 11.736C15.776 11.736 15.8613 11.7467 15.968 11.768C16.0747 11.768 16.128 11.8213 16.128 11.928C16.1493 12.0347 16.1067 12.12 16 12.184C15.936 12.2267 15.936 12.2587 16 12.28C16.0853 12.3013 16.1067 12.3867 16.064 12.536C16.0213 12.6853 16.0853 12.8133 16.256 12.92C16.4267 13.0267 16.4907 13.1973 16.448 13.432C16.4267 13.6667 16.448 13.7947 16.512 13.816L16.192 13.976C15.872 14.104 15.4347 14.3067 14.88 14.584C14.3253 14.8613 13.9947 15 13.888 15C13.7813 15 13.728 15.0213 13.728 15.064C13.728 15.128 13.6107 15.2027 13.376 15.288C13.1627 15.3733 12.992 15.4267 12.864 15.448C12.8427 15.448 12.7893 15.4693 12.704 15.512C12.0427 15.8107 11.5733 15.96 11.296 15.96C11.1893 15.96 11.0613 16.0133 10.912 16.12C10.7627 16.2267 10.7093 16.44 10.752 16.76C10.7733 17.336 10.6453 17.624 10.368 17.624C10.2827 17.624 10.1013 17.464 9.824 17.144L9.024 16.248C8.74667 15.9493 8.544 15.6933 8.416 15.48C8.288 15.2453 8.20267 15.1173 8.16 15.096C8.11733 15.0533 8.08533 14.5627 8.064 13.624C8.064 12.664 8.04267 12.1093 8 11.96C7.95733 11.8107 7.91467 11.512 7.872 11.064C7.85067 10.616 7.808 10.3707 7.744 10.328C7.70133 10.264 7.648 10.0293 7.584 9.624C7.47733 9.09067 7.38133 8.74933 7.296 8.6C7.232 8.45067 7.05067 8.29067 6.752 8.12C6.24 7.8 5.97333 7.53333 5.952 7.32C5.952 7.23467 5.99467 7.192 6.08 7.192C6.16533 7.192 6.16533 7.14933 6.08 7.064C6.016 6.97867 6.016 6.936 6.08 6.936C6.10133 6.936 6.16533 6.94667 6.272 6.968L7.328 7.16C8.096 7.30933 8.58667 7.43733 8.8 7.544C8.94933 7.608 9.09867 7.61867 9.248 7.576C9.41867 7.53333 9.87733 7.352 10.624 7.032C12.5013 6.264 13.6533 5.73067 14.08 5.432ZM13.536 9.304C13.536 9.15467 13.44 9.144 13.248 9.272C13.1413 9.31467 12.7467 9.45333 12.064 9.688C11.4027 9.90133 11.0187 10.008 10.912 10.008C10.7627 10.008 10.6773 10.0613 10.656 10.168C10.656 10.2533 10.688 10.4773 10.752 10.84C10.816 11.3093 10.8693 11.7787 10.912 12.248C10.9547 12.696 10.9973 12.952 11.04 13.016C11.0827 13.0587 11.264 13.0053 11.584 12.856C11.9253 12.6853 12.16 12.5253 12.288 12.376C12.5227 12.0987 12.768 11.608 13.024 10.904C13.3653 10.0507 13.536 9.51733 13.536 9.304ZM46.88 10.168C47.264 10.0187 47.4987 9.944 47.584 9.944L47.04 10.2C46.8053 10.264 46.6453 10.3173 46.56 10.36L46.528 10.296C46.5707 10.2747 46.688 10.232 46.88 10.168ZM48.224 2.296C48.2453 2.12533 48.2987 1.98667 48.384 1.88C48.4693 1.77333 48.5653 1.784 48.672 1.912C48.9493 2.232 49.3333 2.50933 49.824 2.744C50.1013 2.82933 50.24 2.91467 50.24 3C50.24 3.08533 50.336 3.20267 50.528 3.352C50.7413 3.48 50.848 3.608 50.848 3.736C50.848 3.864 50.88 3.97067 50.944 4.056C51.0293 4.12 51.0613 4.38667 51.04 4.856C51.04 5.304 50.9973 5.592 50.912 5.72C50.8267 5.82667 50.688 5.98667 50.496 6.2C50.3253 6.41333 50.2507 6.54133 50.272 6.584C50.3573 6.73333 50.6027 6.712 51.008 6.52C51.1787 6.41333 51.3173 6.36 51.424 6.36C51.5307 6.36 51.6053 6.31733 51.648 6.232C51.6907 6.14666 51.7653 6.104 51.872 6.104C52 6.104 52.1067 6.14666 52.192 6.232C52.2773 6.31733 52.448 6.38133 52.704 6.424C52.96 6.46667 53.1093 6.552 53.152 6.68C53.1947 6.78666 53.3013 6.86133 53.472 6.904C53.664 6.94667 53.7813 7.02133 53.824 7.128C53.8667 7.23466 53.952 7.34133 54.08 7.448C54.2293 7.55467 54.2933 7.71467 54.272 7.928C54.2507 8.12 54.2827 8.23733 54.368 8.28C54.4533 8.30133 54.496 8.38667 54.496 8.536C54.496 8.664 54.4533 8.74933 54.368 8.792C54.2827 8.81333 54.1973 8.99467 54.112 9.336C54.048 9.656 54.0373 9.848 54.08 9.912C54.1653 9.95467 54.1653 10.1573 54.08 10.52C54.016 10.9467 53.9627 11.5227 53.92 12.248C53.8987 12.5253 53.8453 12.7387 53.76 12.888C53.696 13.016 53.6427 13.1867 53.6 13.4C53.5573 13.592 53.5253 13.752 53.504 13.88L53.536 13.912C53.6213 13.8267 53.6747 13.8053 53.696 13.848C53.7387 13.8693 53.696 13.944 53.568 14.072C53.4827 14.1787 53.376 14.7013 53.248 15.64C53.2053 15.896 53.1413 16.12 53.056 16.312C52.992 16.4827 52.9173 16.7067 52.832 16.984L52.768 17.336L53.088 17.368C53.3227 17.432 53.6107 17.4747 53.952 17.496C54.2507 17.5387 54.56 17.6027 54.88 17.688C55.2 17.7733 55.36 17.848 55.36 17.912C55.36 17.976 55.4453 18.04 55.616 18.104C55.7867 18.168 55.8933 18.2747 55.936 18.424C55.9787 18.552 56.064 18.6587 56.192 18.744L56.416 18.84L56.192 18.808C56.0427 18.7867 55.9573 18.7973 55.936 18.84L56.128 18.968H56.192C56.3627 19.0107 56.5227 19.0747 56.672 19.16C56.8213 19.2453 56.896 19.32 56.896 19.384C56.896 19.448 56.832 19.4693 56.704 19.448C56.5973 19.4053 56.5333 19.416 56.512 19.48C56.4907 19.5653 56.576 19.6507 56.768 19.736C56.9387 19.7787 57.0347 19.9387 57.056 20.216C57.0773 20.472 57.12 20.6533 57.184 20.76C57.2907 20.8667 57.2267 20.8987 56.992 20.856C56.8213 20.856 56.5227 20.8027 56.096 20.696C55.5413 20.5893 55.1147 20.5253 54.816 20.504C54.2613 20.504 53.184 20.6533 51.584 20.952C51.4133 20.9733 51.3067 21.0267 51.264 21.112C51.2213 21.176 51.2107 21.3253 51.232 21.56C51.232 21.688 51.2 21.7733 51.136 21.816C51.072 21.88 51.008 22.6907 50.944 24.248C50.9013 25.784 50.9227 26.6053 51.008 26.712C51.0293 26.7973 51.008 26.8613 50.944 26.904C50.88 26.9253 50.848 27.1067 50.848 27.448C50.848 29.9867 50.752 31.32 50.56 31.448C50.5173 31.4907 50.496 31.7573 50.496 32.248V33.016L50.272 32.568C50.144 32.2693 50.0267 32.1093 49.92 32.088C49.8347 32.0667 49.6853 31.9173 49.472 31.64C49.28 31.384 49.184 31.2027 49.184 31.096C49.184 31.0747 49.1307 30.9893 49.024 30.84C48.9173 30.6907 48.8533 30.5307 48.832 30.36C48.832 30.2107 48.8213 28.7067 48.8 25.848C48.7787 25.08 48.7573 24.376 48.736 23.736C48.736 23.0747 48.7253 22.552 48.704 22.168C48.6827 21.784 48.6613 21.592 48.64 21.592C48.4267 21.6347 47.4773 21.848 45.792 22.232C44.1707 22.616 43.2427 22.712 43.008 22.52C42.944 22.456 42.8693 22.4027 42.784 22.36C42.6987 22.296 42.56 22.2107 42.368 22.104C42.1973 21.9973 42.08 21.9547 42.016 21.976C41.9733 21.9973 41.952 22.2107 41.952 22.616C41.952 23.0213 41.92 23.224 41.856 23.224C41.8133 23.224 41.792 23.704 41.792 24.664C41.8133 25.6027 41.7813 26.1573 41.696 26.328C41.6107 26.4773 41.6 26.552 41.664 26.552C41.6853 26.5733 41.696 26.6373 41.696 26.744C41.7173 26.8507 41.696 26.9787 41.632 27.128C41.5893 27.2773 41.5573 27.3733 41.536 27.416C41.472 27.4373 41.44 27.7467 41.44 28.344C41.4613 28.8133 41.4507 29.0587 41.408 29.08C41.408 29.08 41.3653 29.0587 41.28 29.016C41.1947 28.888 41.1307 28.7707 41.088 28.664C41.0453 28.5787 40.928 28.5467 40.736 28.568C40.5653 28.5893 40.3733 28.472 40.16 28.216C39.9467 27.96 39.7547 27.7467 39.584 27.576C39.4133 27.4053 39.3493 27.2347 39.392 27.064C39.4347 26.9147 39.392 26.7973 39.264 26.712C39.136 26.6267 39.0827 26.4773 39.104 26.264C39.1467 26.0507 39.1787 24.9093 39.2 22.84C39.2427 20.7707 39.2747 19.544 39.296 19.16C39.3173 18.7547 39.3067 18.552 39.264 18.552C39.2427 18.552 38.9547 18.68 38.4 18.936C37.8667 19.1707 37.3973 19.3627 36.992 19.512C36.608 19.64 36.384 19.736 36.32 19.8C36.2773 19.8427 36.192 19.864 36.064 19.864C35.9573 19.864 35.904 19.9067 35.904 19.992C35.904 20.0773 35.8613 20.1093 35.776 20.088C35.776 20.0667 35.7547 20.0667 35.712 20.088C35.6907 20.1093 35.6693 20.152 35.648 20.216C35.648 20.2587 35.6373 20.3227 35.616 20.408C35.5947 20.4933 35.5733 20.6 35.552 20.728C35.424 21.5387 35.3387 21.9867 35.296 22.072C35.232 22.1787 35.2 22.2427 35.2 22.264L35.04 22.904C34.912 23.2667 34.848 23.5227 34.848 23.672C34.8053 23.9493 34.6773 24.3013 34.464 24.728C34.3787 25.0053 34.368 25.2933 34.432 25.592C34.496 25.6987 34.4427 25.848 34.272 26.04C34.1227 26.2107 34.0587 26.36 34.08 26.488C34.1013 26.5947 34.0907 26.648 34.048 26.648C34.0267 26.648 33.9733 26.8613 33.888 27.288C33.824 27.7147 33.6747 28.1627 33.44 28.632L33.088 29.336L32.8 29.048C32.3733 28.6213 32.1067 28.408 32 28.408C31.936 28.408 31.904 28.376 31.904 28.312C31.904 28.248 31.8187 28.12 31.648 27.928C31.4773 27.7573 31.4027 27.576 31.424 27.384C31.424 27.256 31.4133 27.1813 31.392 27.16C31.392 27.1387 31.3493 27.1387 31.264 27.16C31.1787 27.1813 31.168 27.16 31.232 27.096C31.4027 26.9253 31.392 26.84 31.2 26.84C31.1147 26.84 31.0507 26.776 31.008 26.648C30.9653 26.52 30.912 26.456 30.848 26.456C30.8053 26.456 30.7947 26.392 30.816 26.264C30.8373 26.136 30.816 26.0187 30.752 25.912C30.7093 25.784 30.752 25.656 30.88 25.528C31.0293 25.4 31.0507 25.2827 30.944 25.176C30.8373 25.0693 30.816 24.9947 30.88 24.952C30.9653 24.9093 30.9867 24.824 30.944 24.696C30.9227 24.568 30.9653 24.44 31.072 24.312C31.1787 24.1627 31.2427 23.9493 31.264 23.672L31.328 23.384C31.328 23.4053 31.3387 23.4587 31.36 23.544C31.3813 23.6293 31.392 23.6187 31.392 23.512C31.4133 23.4053 31.4133 23.2027 31.392 22.904C31.3707 22.3067 31.4027 22.008 31.488 22.008C31.5947 22.008 31.648 21.9333 31.648 21.784C31.648 21.6133 31.6907 21.4213 31.776 21.208C31.8613 20.9733 31.904 20.792 31.904 20.664C31.904 20.5147 31.9253 20.376 31.968 20.248C32.1173 19.992 32.2773 19.4587 32.448 18.648C32.7467 17.2187 32.9493 16.184 33.056 15.544C33.0773 15.416 33.1093 15.2347 33.152 15C33.1947 14.7653 33.1733 14.648 33.088 14.648C32.9387 14.648 32.928 14.5627 33.056 14.392C33.0773 14.3707 33.0987 14.3493 33.12 14.328C33.248 14.1573 33.3227 13.496 33.344 12.344C33.3867 11.192 33.376 10.424 33.312 10.04C33.248 9.63467 33.088 9.31467 32.832 9.08C32.576 8.84533 32.3947 8.728 32.288 8.728C32.2027 8.728 32.1707 8.664 32.192 8.536C32.2133 8.408 32.128 8.248 31.936 8.056C31.7653 7.864 31.712 7.736 31.776 7.672C31.8613 7.58667 31.872 7.50133 31.808 7.416C31.744 7.352 31.712 7.32 31.712 7.32C31.7333 7.29867 31.776 7.29867 31.84 7.32C31.904 7.34133 32.0747 7.40533 32.352 7.512C32.7147 7.61867 33.216 7.864 33.856 8.248C34.5173 8.61067 35.0187 8.93067 35.36 9.208C35.616 9.4 35.84 9.656 36.032 9.976C36.2453 10.2747 36.352 10.4987 36.352 10.648C36.352 10.776 36.416 10.9147 36.544 11.064C36.6933 11.2133 36.736 11.5653 36.672 12.12C36.6507 12.44 36.64 12.6533 36.64 12.76C36.6613 12.8453 36.704 12.888 36.768 12.888C36.832 12.888 37.1093 12.7493 37.6 12.472L38.336 12.12L38.368 10.904C38.368 10.0933 38.4427 9.336 38.592 8.632C38.7413 7.90667 38.8267 6.97867 38.848 5.848C38.8693 4.78133 38.9227 4.248 39.008 4.248C39.008 4.248 39.0293 4.26933 39.072 4.312C39.2 4.376 39.3067 4.39733 39.392 4.376C39.4773 4.33333 39.552 4.38667 39.616 4.536C39.7013 4.68533 39.84 4.87733 40.032 5.112C40.3093 5.432 40.5653 6.02933 40.8 6.904C41.0347 7.77867 41.152 8.6 41.152 9.368C41.152 10.0293 41.12 10.456 41.056 10.648C41.0133 10.84 41.0667 10.9467 41.216 10.968C41.3653 10.9893 41.4933 11.0533 41.6 11.16C41.728 11.2453 41.76 11.3413 41.696 11.448C41.6107 11.5333 41.6 11.576 41.664 11.576C41.7067 11.576 41.7813 11.5547 41.888 11.512C42.1013 11.4907 42.2187 11.544 42.24 11.672C42.2613 11.8 42.3467 11.864 42.496 11.864C42.6027 11.864 42.6667 11.9067 42.688 11.992C42.7093 12.0773 42.656 12.1413 42.528 12.184C42.464 12.2053 42.4213 12.248 42.4 12.312C42.4 12.376 42.4213 12.4293 42.464 12.472C42.5067 12.4933 42.5813 12.504 42.688 12.504C43.1787 12.504 43.0293 12.6853 42.24 13.048C41.472 13.3893 40.9707 13.6347 40.736 13.784C40.5227 13.912 40.384 14.0827 40.32 14.296C40.2987 14.4667 40.2667 14.552 40.224 14.552C40.224 14.552 40.2027 14.5093 40.16 14.424C40.032 14.2533 39.7547 14.296 39.328 14.552C39.072 14.7013 38.528 14.9893 37.696 15.416C36.7573 15.8853 36.288 16.1627 36.288 16.248C36.288 16.2693 36.3093 16.2907 36.352 16.312C36.4373 16.3547 36.448 16.408 36.384 16.472C36.32 16.5147 36.288 16.568 36.288 16.632C36.3093 16.696 36.3627 16.7173 36.448 16.696C36.5547 16.6747 36.6827 16.6427 36.832 16.6C37.0027 16.536 37.1413 16.4613 37.248 16.376C37.4187 16.2267 37.5573 16.152 37.664 16.152C37.792 16.152 37.856 16.1307 37.856 16.088C37.856 16.0453 38.0053 15.96 38.304 15.832C38.624 15.704 38.8587 15.5653 39.008 15.416C39.136 15.3307 39.2213 15.288 39.264 15.288C39.3067 15.2667 39.3813 15.288 39.488 15.352C39.6373 15.4587 39.8187 15.5227 40.032 15.544C40.0747 15.5653 40.1173 15.5867 40.16 15.608C40.224 15.608 40.2667 15.6187 40.288 15.64C40.3093 15.64 40.32 15.6507 40.32 15.672C40.2987 15.736 40.3307 15.7893 40.416 15.832C40.5227 15.8533 40.6613 15.864 40.832 15.864C41.0027 15.864 41.1093 15.896 41.152 15.96C41.1947 16.0027 41.3333 16.0453 41.568 16.088C41.8027 16.1307 41.984 16.216 42.112 16.344C42.368 16.664 42.464 16.9093 42.4 17.08C42.3147 17.08 42.2933 17.176 42.336 17.368C42.4 17.5387 42.3787 17.7733 42.272 18.072C42.1653 18.3707 42.0907 18.808 42.048 19.384C42.0267 19.9387 42.048 20.216 42.112 20.216C42.1333 20.216 42.1653 20.2053 42.208 20.184C42.3147 20.12 42.432 20.0987 42.56 20.12C42.688 20.12 42.7733 20.0773 42.816 19.992C42.8587 19.9067 42.9227 19.864 43.008 19.864C43.0933 19.864 43.2213 19.8213 43.392 19.736C43.584 19.6293 43.7227 19.576 43.808 19.576C43.8933 19.576 44.0107 19.5333 44.16 19.448C44.3093 19.3413 44.4267 19.3413 44.512 19.448C44.576 19.512 44.6293 19.5333 44.672 19.512C44.736 19.4693 44.9067 19.32 45.184 19.064C45.5253 18.7013 45.7387 18.4347 45.824 18.264C45.9093 18.0933 45.8987 17.9013 45.792 17.688C45.6853 17.4533 45.5893 17.3573 45.504 17.4C45.4187 17.4427 45.3227 17.4 45.216 17.272C45.1093 17.144 44.9813 17.048 44.832 16.984C44.704 16.92 44.6507 16.8347 44.672 16.728C44.7147 16.6 44.6507 16.504 44.48 16.44C44.3733 16.376 44.3093 16.312 44.288 16.248C44.2667 16.1627 44.32 16.1093 44.448 16.088C44.5547 16.0667 44.608 15.96 44.608 15.768C44.6293 15.5547 44.6293 14.9147 44.608 13.848C44.5867 12.632 44.5333 11.7893 44.448 11.32C44.384 10.8507 44.2347 10.392 44 9.944C43.68 9.304 43.4453 8.984 43.296 8.984C43.232 8.984 43.1573 8.93067 43.072 8.824C42.9867 8.71733 42.9333 8.6 42.912 8.472C42.912 8.42933 42.88 8.29067 42.816 8.056C42.7733 7.82133 42.816 7.64 42.944 7.512C43.0933 7.384 43.168 7.288 43.168 7.224C43.168 7.032 43.424 7.064 43.936 7.32C44.0853 7.40533 44.2133 7.49067 44.32 7.576C44.384 7.66133 44.5013 7.62933 44.672 7.48C44.864 7.30933 45.3653 6.79733 46.176 5.944C46.624 5.45333 47.008 4.99467 47.328 4.568C47.6693 4.14133 47.8933 3.8 48 3.544C48.128 3.26667 48.16 3.10667 48.096 3.064C48.032 3.02133 48.032 2.92533 48.096 2.776C48.16 2.62667 48.2027 2.46667 48.224 2.296ZM52.096 8.984C52.096 8.792 52.0427 8.696 51.936 8.696C51.8293 8.67467 51.52 8.73867 51.008 8.888C50.432 9.016 50.1333 9.112 50.112 9.176C50.112 9.19733 50.144 9.21867 50.208 9.24C50.272 9.26133 50.304 9.31467 50.304 9.4C50.304 9.464 50.3573 9.54933 50.464 9.656C50.5707 9.76267 50.5813 9.85867 50.496 9.944C50.432 10.008 50.4 10.104 50.4 10.232C50.4 10.3387 50.5493 10.3813 50.848 10.36L51.232 10.264C51.1467 10.2213 51.168 10.2 51.296 10.2C51.4453 10.2 51.52 10.232 51.52 10.296C51.52 10.36 51.5627 10.392 51.648 10.392C51.7547 10.392 51.7867 10.424 51.744 10.488C51.744 10.5093 51.7547 10.5307 51.776 10.552C51.7973 10.552 51.8293 10.552 51.872 10.552C51.9787 10.552 52.0427 10.488 52.064 10.36C52.0853 10.2107 52.096 9.752 52.096 8.984ZM48.512 10.104C48.5333 9.95467 48.5333 9.85867 48.512 9.816C48.512 9.77333 48.448 9.74133 48.32 9.72L48.128 9.752C48.1493 9.79467 48.1387 9.816 48.096 9.816C48.0533 9.816 47.968 9.83733 47.84 9.88C47.712 9.92267 47.6907 9.912 47.776 9.848C47.8827 9.76267 47.904 9.72 47.84 9.72C47.7333 9.72 47.456 9.79467 47.008 9.944C46.5813 10.072 46.3467 10.1573 46.304 10.2C46.2187 10.2427 46.208 10.4133 46.272 10.712C46.3573 10.9893 46.4 11.224 46.4 11.416C46.4 11.5867 46.4213 11.6827 46.464 11.704C46.5707 11.7467 47.0827 11.5867 48 11.224C48.192 11.1387 48.3093 11.064 48.352 11C48.416 10.936 48.448 10.84 48.448 10.712C48.448 10.52 48.4693 10.3173 48.512 10.104ZM52.032 10.872C51.9893 10.7867 51.936 10.744 51.872 10.744C51.8293 10.744 51.7867 10.7867 51.744 10.872C51.744 10.8933 51.7547 10.9147 51.776 10.936C51.7973 10.936 51.8293 10.936 51.872 10.936C51.936 10.936 51.9787 10.936 52 10.936C52.0427 10.9147 52.0533 10.8933 52.032 10.872ZM51.968 11.384C51.9893 11.3627 51.9893 11.3093 51.968 11.224C51.9467 11.1387 51.904 11.1387 51.84 11.224C51.7973 11.3307 51.84 11.384 51.968 11.384ZM51.84 12.664C51.8613 12.3653 51.8613 12.1947 51.84 12.152C51.84 12.1093 51.7973 12.088 51.712 12.088C51.584 12.088 51.3067 12.152 50.88 12.28C50.4533 12.408 50.208 12.504 50.144 12.568C50.1227 12.5893 50.048 12.856 49.92 13.368C49.8133 13.88 49.76 14.2 49.76 14.328C49.76 14.4133 49.8453 14.456 50.016 14.456C50.208 14.456 50.336 14.4347 50.4 14.392C50.4853 14.328 50.5067 14.1893 50.464 13.976L50.368 13.688L50.656 13.976C50.8053 14.1893 50.9547 14.296 51.104 14.296C51.2747 14.296 51.3707 14.2107 51.392 14.04C51.4347 13.8907 51.488 13.816 51.552 13.816C51.68 13.816 51.776 13.432 51.84 12.664ZM47.904 13.496C47.904 13.4533 47.8613 13.4427 47.776 13.464C47.6907 13.464 47.4453 13.528 47.04 13.656C46.656 13.7627 46.4533 13.8373 46.432 13.88C46.4107 13.9013 46.3893 14.1253 46.368 14.552C46.368 14.9787 46.3787 15.2133 46.4 15.256C46.4213 15.2987 46.592 15.2773 46.912 15.192C47.232 15.0853 47.4027 15 47.424 14.936C47.488 14.9147 47.584 14.6907 47.712 14.264C47.84 13.816 47.904 13.56 47.904 13.496ZM51.84 16.504C51.7547 16.3547 51.6267 16.28 51.456 16.28C51.2853 16.2587 50.9547 16.3013 50.464 16.408C49.9733 16.4933 49.7387 16.568 49.76 16.632C49.76 16.632 49.7813 16.6427 49.824 16.664C49.9307 16.7067 50.0267 16.792 50.112 16.92C50.2187 17.0267 50.304 17.1227 50.368 17.208C50.4533 17.2933 50.496 17.368 50.496 17.432C50.496 17.496 50.5387 17.528 50.624 17.528C50.7307 17.528 50.784 17.5707 50.784 17.656C50.784 17.72 50.848 17.7413 50.976 17.72L51.392 17.592C51.4987 17.5707 51.552 17.5707 51.552 17.592C51.5733 17.6133 51.5733 17.6667 51.552 17.752C51.5307 17.8373 51.5733 17.88 51.68 17.88C51.744 17.88 51.9893 17.8587 52.416 17.816C52.7787 17.688 52.96 17.6027 52.96 17.56C52.8533 17.496 52.7467 17.496 52.64 17.56C52.5333 17.6027 52.4587 17.5387 52.416 17.368C52.3733 17.176 52.2987 17.0267 52.192 16.92C52.0853 16.792 51.968 16.6533 51.84 16.504ZM48.576 18.104C48.6827 18.104 48.736 18.0827 48.736 18.04C48.736 17.9973 48.704 17.912 48.64 17.784C48.5973 17.656 48.5547 17.656 48.512 17.784C48.4267 17.9973 48.448 18.104 48.576 18.104ZM71.808 14.488C71.8507 14.4453 71.9253 14.424 72.032 14.424C72.1387 14.424 72.1387 14.4667 72.032 14.552C71.904 14.6587 71.8187 14.6907 71.776 14.648C71.776 14.6053 71.7867 14.552 71.808 14.488ZM66.112 18.744C66.304 18.6587 66.4 18.6587 66.4 18.744C66.4 18.8293 66.3253 18.872 66.176 18.872C66.0267 18.872 66.0053 18.8293 66.112 18.744ZM75.872 5.976C76.064 5.784 76.16 5.73067 76.16 5.816C76.16 5.83733 76.0853 5.89067 75.936 5.976L75.744 6.168L75.872 5.976ZM66.752 3.32C66.688 3.21333 66.6987 3.16 66.784 3.16C66.848 3.16 66.9973 3.17067 67.232 3.192C67.6373 3.23467 67.9253 3.256 68.096 3.256C68.2667 3.256 68.3947 3.27733 68.48 3.32C68.608 3.448 68.8427 3.52267 69.184 3.544C69.2693 3.58667 69.3227 3.61867 69.344 3.64C69.3867 3.66133 69.4933 3.704 69.664 3.768C69.856 3.832 69.9413 3.896 69.92 3.96C69.92 4.024 69.9307 4.06667 69.952 4.088C69.9733 4.10933 70.08 4.13067 70.272 4.152C70.4 4.152 70.656 4.32267 71.04 4.664L71.552 5.144V6.424C71.5307 7.27733 71.4773 7.77867 71.392 7.928C71.3493 8.01333 71.3173 8.39733 71.296 9.08C71.2747 9.76267 71.264 10.4347 71.264 11.096C71.264 11.7573 71.2853 12.088 71.328 12.088C71.3707 12.088 71.4133 11.9707 71.456 11.736C71.4987 11.5013 71.5733 11.3307 71.68 11.224C71.808 11.1173 71.872 11 71.872 10.872C71.872 10.744 71.9147 10.68 72 10.68C72.0853 10.68 72.1813 10.5947 72.288 10.424C72.4587 10.1893 72.7147 9.88 73.056 9.496C73.4187 9.112 73.632 8.92 73.696 8.92C73.7813 8.92 73.8133 8.87733 73.792 8.792C73.7493 8.64267 73.8027 8.536 73.952 8.472C73.9947 8.472 74.0267 8.49333 74.048 8.536C74.0907 8.6 73.984 8.76 73.728 9.016C73.4933 9.25067 73.344 9.44267 73.28 9.592L72.928 10.008C72.8213 10.1573 72.8 10.232 72.864 10.232C72.9493 10.1893 73.0773 10.0827 73.248 9.912C73.8027 9.336 74.5813 8.38667 75.584 7.064C76.2453 6.232 76.576 5.688 76.576 5.432C76.576 5.368 76.5653 5.32533 76.544 5.304C76.544 5.28267 76.5333 5.32533 76.512 5.432C76.384 5.58133 76.288 5.60266 76.224 5.496C76.224 5.432 76.352 5.24 76.608 4.92C76.992 4.42933 77.0133 4.12 76.672 3.992C76.4587 3.928 76.384 3.832 76.448 3.704C76.448 3.66133 76.48 3.64 76.544 3.64C76.5867 3.64 76.64 3.58667 76.704 3.48C76.7893 3.37333 76.928 3.30933 77.12 3.288C77.312 3.26667 77.4613 3.24533 77.568 3.224C77.6747 3.18133 77.9947 3.26667 78.528 3.48C79.0827 3.69333 79.4667 3.82133 79.68 3.864C79.9147 3.90667 80.032 3.98133 80.032 4.088C80.032 4.17333 80.16 4.344 80.416 4.6C80.8 4.94133 80.9387 5.35733 80.832 5.848C80.7253 6.104 80.6827 6.25333 80.704 6.296C80.7253 6.31733 80.9813 6.33867 81.472 6.36C81.9627 6.38133 82.336 6.44533 82.592 6.552C82.848 6.63733 83.1253 6.70133 83.424 6.744C83.7227 6.78667 83.9147 6.86133 84 6.968C84.0853 7.07467 84.352 7.27733 84.8 7.576C85.12 7.78933 85.3227 7.94933 85.408 8.056C85.5147 8.16267 85.5787 8.32267 85.6 8.536C85.6 8.68533 85.6747 8.83467 85.824 8.984C85.9733 9.13333 86.0053 9.22933 85.92 9.272C85.856 9.31467 85.8133 9.4 85.792 9.528C85.7707 9.74133 86.176 9.976 87.008 10.232C87.392 10.3387 87.712 10.5093 87.968 10.744C88.1813 10.9147 88.3627 11.1173 88.512 11.352C88.6613 11.5867 88.7147 11.7467 88.672 11.832C88.6293 11.9173 88.5227 11.9813 88.352 12.024C88.2027 12.0453 88.1067 12.024 88.064 11.96C88.0213 11.896 87.872 11.8853 87.616 11.928C87.3813 11.9707 87.2427 11.96 87.2 11.896C87.1573 11.832 87.072 11.8213 86.944 11.864C86.816 11.8853 86.752 11.9387 86.752 12.024C86.752 12.088 86.56 12.1627 86.176 12.248C85.792 12.3333 85.5787 12.44 85.536 12.568C85.472 12.6533 85.4507 12.7067 85.472 12.728C85.4933 12.728 85.536 12.7173 85.6 12.696C85.7493 12.632 85.824 12.6427 85.824 12.728C85.824 12.792 85.7707 12.824 85.664 12.824C85.5787 12.824 85.6 12.92 85.728 13.112C85.856 13.2827 85.888 13.4853 85.824 13.72C85.7813 13.9333 85.7813 14.04 85.824 14.04C85.888 14.04 85.8987 14.0933 85.856 14.2C85.8347 14.2853 85.8773 14.3493 85.984 14.392C86.112 14.4133 86.176 14.4667 86.176 14.552C86.176 14.6373 86.2507 14.68 86.4 14.68C86.5493 14.68 86.624 14.744 86.624 14.872C86.624 14.9787 86.688 15.032 86.816 15.032C86.9227 15.032 86.9973 15.0853 87.04 15.192C87.0827 15.2773 87.0933 15.3627 87.072 15.448C87.0507 15.4693 87.0507 15.4907 87.072 15.512C87.0933 15.512 87.136 15.512 87.2 15.512C87.3067 15.512 87.3387 15.576 87.296 15.704C87.2747 15.832 87.3067 15.896 87.392 15.896C87.6053 15.896 87.52 15.992 87.136 16.184C86.9013 16.312 86.6987 16.3867 86.528 16.408C86.016 16.472 85.728 16.6853 85.664 17.048C85.664 17.2613 85.6427 17.4 85.6 17.464C85.5573 17.5067 85.568 17.5493 85.632 17.592C85.7173 17.6133 85.7173 17.688 85.632 17.816C85.568 17.944 85.5893 18.04 85.696 18.104C85.824 18.168 85.952 18.2 86.08 18.2C86.4 18.2 86.56 18.296 86.56 18.488C86.56 18.6373 86.7413 18.7547 87.104 18.84C87.2747 18.8613 87.52 19.064 87.84 19.448C88.16 19.8107 88.32 20.0773 88.32 20.248C88.32 20.312 88.2347 20.344 88.064 20.344C87.9147 20.344 87.84 20.3973 87.84 20.504C87.84 20.5893 87.7653 20.632 87.616 20.632C87.4667 20.632 87.3707 20.6747 87.328 20.76C87.2853 20.824 87.2213 20.8027 87.136 20.696C87.072 20.5893 87.0293 20.5893 87.008 20.696C86.9867 20.8027 86.7627 20.8987 86.336 20.984C85.9733 21.0693 85.7493 21.1653 85.664 21.272C85.6 21.3787 85.5467 21.688 85.504 22.2C85.44 22.6693 85.3973 22.968 85.376 23.096C85.3547 23.16 85.3547 23.2027 85.376 23.224C85.3973 23.2453 85.472 23.2347 85.6 23.192C85.792 23.1493 86.1013 23.1173 86.528 23.096L87.104 23.032L87.072 22.424V22.04C87.072 22.0613 87.0827 22.1147 87.104 22.2C87.1893 22.4133 87.264 22.5733 87.328 22.68C87.4347 22.68 87.488 22.6587 87.488 22.616C87.488 22.488 87.4987 22.4133 87.52 22.392C87.5413 22.3493 87.5733 22.3387 87.616 22.36C87.7227 22.3813 87.776 22.4667 87.776 22.616C87.776 22.744 87.8293 22.872 87.936 23C88.0427 23.1067 88.192 23.2773 88.384 23.512C88.5973 23.7467 88.7573 23.864 88.864 23.864C88.9707 23.864 88.9813 23.896 88.896 23.96C88.8107 24.0027 88.9813 24.2373 89.408 24.664C89.8347 25.0693 90.0587 25.3787 90.08 25.592C90.1227 25.7413 90.1227 25.8267 90.08 25.848C90.0587 25.8693 89.9627 25.88 89.792 25.88C89.5573 25.8587 89.408 25.8373 89.344 25.816C89.3013 25.7733 89.184 25.7733 88.992 25.816C88.736 25.9227 87.776 26.0613 86.112 26.232C85.792 26.2747 85.408 26.3493 84.96 26.456C84.512 26.5413 84.256 26.616 84.192 26.68C84.128 26.7227 83.9787 26.7547 83.744 26.776C83.5307 26.7973 83.4133 26.8293 83.392 26.872C83.3707 26.9147 83.168 26.9787 82.784 27.064C82.4 27.1707 82.112 27.256 81.92 27.32L81.44 27.48C81.3547 27.5227 81.1093 27.608 80.704 27.736C80.2987 27.8853 79.9147 27.9707 79.552 27.992C79.1893 28.0347 78.976 28.0773 78.912 28.12C78.848 28.1627 78.752 28.1413 78.624 28.056C78.5173 27.9707 78.464 27.8853 78.464 27.8C78.464 27.736 78.4213 27.704 78.336 27.704C78.2507 27.704 78.208 27.672 78.208 27.608C78.208 27.5653 78.1013 27.512 77.888 27.448C77.8027 27.4267 77.728 27.3947 77.664 27.352C77.6 27.3093 77.5893 27.2667 77.632 27.224C77.6533 27.1387 77.6107 27.0427 77.504 26.936C77.3973 26.808 77.3013 26.7333 77.216 26.712C77.1093 26.712 77.024 26.7867 76.96 26.936C76.9173 27.0853 76.9067 27.256 76.928 27.448C76.9493 27.704 76.896 28.1413 76.768 28.76C76.6613 29.3787 76.576 29.912 76.512 30.36C76.4693 30.808 76.3947 31.064 76.288 31.128C76.2027 31.192 76.128 31.2987 76.064 31.448C76 31.5973 75.904 31.6613 75.776 31.64C75.648 31.6187 75.5093 31.5333 75.36 31.384C75.2107 31.1493 74.9867 30.808 74.688 30.36C74.4107 29.912 74.272 29.6667 74.272 29.624C74.272 29.5387 74.2293 29.4213 74.144 29.272C74.0587 29.144 74.0053 28.5787 73.984 27.576C73.9627 26.5733 73.9093 25.9973 73.824 25.848C73.76 25.6987 73.792 25.56 73.92 25.432C74.0693 25.304 74.1653 25.1333 74.208 24.92C74.2507 24.6853 74.2933 23.6933 74.336 21.944L74.368 19.352H74.208C74.0587 19.352 73.9947 19.4053 74.016 19.512C74.0587 19.6187 74.0053 19.6933 73.856 19.736C73.664 19.8 73.3973 19.9173 73.056 20.088C72.7147 20.2587 72.4907 20.3867 72.384 20.472C72.2987 20.5787 72.2133 20.6427 72.128 20.664C72.064 20.664 71.9147 20.7707 71.68 20.984L71.392 21.304L71.36 24.664C71.3387 26.904 71.2853 28.1093 71.2 28.28C71.136 28.472 71.104 28.568 71.104 28.568C71.168 28.824 71.104 28.9733 70.912 29.016C70.7627 29.0373 70.5707 29.1547 70.336 29.368C70.1013 29.6027 69.984 29.848 69.984 30.104C69.984 30.616 69.8347 30.9253 69.536 31.032C69.408 31.096 69.2587 31 69.088 30.744C68.2133 29.6773 67.6907 29.0907 67.52 28.984C67.4133 28.92 67.3387 28.8347 67.296 28.728C67.2533 28.6213 67.1573 28.4507 67.008 28.216C66.3467 27.1493 66.0907 26.616 66.24 26.616C66.2613 26.616 66.304 26.616 66.368 26.616C66.4747 26.68 66.56 26.7333 66.624 26.776C66.7307 26.84 66.9013 26.872 67.136 26.872C67.3707 26.8507 67.488 26.7973 67.488 26.712C67.488 26.6267 67.52 26.584 67.584 26.584C67.776 26.584 67.8933 25.976 67.936 24.76L67.968 23.48L67.584 23.864C67.3067 24.12 67.136 24.2267 67.072 24.184C67.0293 24.1413 67.008 24.1627 67.008 24.248L66.976 24.312C66.9547 24.2907 66.848 24.3653 66.656 24.536C66.4853 24.7067 66.4 24.824 66.4 24.888C66.4 24.9307 66.3147 25.016 66.144 25.144C65.9733 25.272 65.824 25.3467 65.696 25.368C65.568 25.3893 65.44 25.56 65.312 25.88C65.2053 26.2 65.1093 26.36 65.024 26.36C64.96 26.36 64.8747 26.4133 64.768 26.52C64.6827 26.6267 64.4693 26.6053 64.128 26.456C63.808 26.2853 63.488 26.04 63.168 25.72C62.784 25.3787 62.5493 25.208 62.464 25.208C62.4 25.208 62.3467 25.144 62.304 25.016C62.2827 24.888 62.2293 24.824 62.144 24.824C62.0587 24.824 62.016 24.8027 62.016 24.76C61.9947 24.4827 61.9627 24.3013 61.92 24.216C61.8773 24.1093 61.9093 23.992 62.016 23.864C62.1227 23.736 62.2293 23.672 62.336 23.672C62.4853 23.672 62.6453 23.64 62.816 23.576C62.944 23.5333 63.264 23.2987 63.776 22.872C64.288 22.424 64.5547 22.168 64.576 22.104C64.6187 22.0613 64.6613 22.04 64.704 22.04C64.768 22.04 65.0667 21.816 65.6 21.368C66.1547 20.8987 66.6987 20.4933 67.232 20.152C67.6373 19.9173 67.872 19.768 67.936 19.704C68.0213 19.6187 68.0747 19.4693 68.096 19.256C68.1173 18.36 68.1067 17.9013 68.064 17.88C68 17.8587 67.9467 17.7093 67.904 17.432C67.8827 17.2187 67.8293 17.08 67.744 17.016C67.7227 16.9947 67.712 16.9947 67.712 17.016C67.6907 17.08 67.68 17.1333 67.68 17.176C67.68 17.3253 67.6373 17.4 67.552 17.4C67.4667 17.4 67.424 17.4213 67.424 17.464C67.424 17.5067 67.3493 17.5493 67.2 17.592C67.072 17.6347 67.008 17.688 67.008 17.752C67.008 17.816 67.0613 17.8267 67.168 17.784L67.04 17.944C66.912 18.072 66.8053 18.0933 66.72 18.008C66.656 17.9653 66.5387 17.9973 66.368 18.104C66.1973 18.1893 66.112 18.2853 66.112 18.392C66.112 18.52 66.0267 18.6373 65.856 18.744C65.7067 18.8293 65.5573 18.8613 65.408 18.84C65.2587 18.7973 65.1627 18.808 65.12 18.872C65.0773 18.9147 64.992 18.904 64.864 18.84C64.7573 18.776 64.6613 18.7547 64.576 18.776C64.512 18.776 64.416 18.7547 64.288 18.712C64.032 18.6267 63.872 18.5627 63.808 18.52C63.744 18.456 63.712 18.3707 63.712 18.264C63.7333 18.1147 63.6907 18.0613 63.584 18.104C63.4773 18.1253 63.4027 18.0827 63.36 17.976C63.3173 17.848 63.2213 17.6773 63.072 17.464L62.752 16.984C62.6667 16.856 62.5813 16.792 62.496 16.792C62.4107 16.792 62.368 16.7493 62.368 16.664C62.368 16.5787 62.304 16.4933 62.176 16.408C62.0693 16.3227 62.048 16.2693 62.112 16.248C62.1973 16.2053 62.1973 16.1413 62.112 16.056C61.8987 15.8213 62.016 15.704 62.464 15.704C62.784 15.7253 62.9973 15.704 63.104 15.64C63.232 15.5547 63.296 15.5333 63.296 15.576C63.296 15.6187 63.3493 15.576 63.456 15.448C63.584 15.32 63.6907 15.2453 63.776 15.224C63.8827 15.2027 64.064 15.1067 64.32 14.936C64.576 14.7653 64.704 14.648 64.704 14.584C64.704 14.52 64.736 14.5093 64.8 14.552C64.864 14.5733 64.9067 14.5627 64.928 14.52C64.9707 14.456 65.056 14.424 65.184 14.424C65.312 14.424 65.408 14.3173 65.472 14.104L65.632 13.912C65.6533 13.9333 65.7493 13.88 65.92 13.752C66.0907 13.624 66.1973 13.56 66.24 13.56C66.2827 13.56 66.4107 13.464 66.624 13.272C66.7733 13.1227 66.9867 12.9627 67.264 12.792C67.5413 12.6213 67.7333 12.536 67.84 12.536C67.904 12.536 67.9573 12.3653 68 12.024C68.0427 11.6827 68.0427 11.352 68 11.032L67.84 8.76C67.6053 6.17867 67.392 4.61067 67.2 4.056C67.072 3.69333 66.9867 3.512 66.944 3.512C66.9013 3.512 66.8373 3.448 66.752 3.32ZM80.96 7.992C80.96 7.928 80.8427 7.88533 80.608 7.864C80.3733 7.82133 80.192 7.78933 80.064 7.768C79.936 7.72533 79.8293 7.8 79.744 7.992C79.68 8.184 79.6267 8.28 79.584 8.28C79.5413 8.28 79.4453 8.38667 79.296 8.6C79.168 8.81333 79.0507 8.92 78.944 8.92C78.8587 8.92 78.816 8.96267 78.816 9.048C78.816 9.13333 78.7413 9.208 78.592 9.272C78.464 9.336 78.3147 9.45333 78.144 9.624C77.9947 9.77333 77.888 9.848 77.824 9.848C77.76 9.848 77.728 9.88 77.728 9.944C77.728 10.008 77.4933 10.2533 77.024 10.68C76.4693 11.256 76.288 11.5973 76.48 11.704C76.5653 11.7253 76.672 11.8427 76.8 12.056C76.9493 12.2693 77.0773 12.4293 77.184 12.536C77.2907 12.6427 77.3547 12.9093 77.376 13.336C77.3973 13.7413 77.3653 13.9867 77.28 14.072C77.216 14.136 77.1627 14.424 77.12 14.936C77.0773 15.4267 77.0453 15.736 77.024 15.864C77.0027 15.9707 76.9707 16.984 76.928 18.904C76.9067 20.824 76.8747 21.912 76.832 22.168C76.832 22.4027 76.8533 22.9253 76.896 23.736C76.96 24.5467 77.0027 25.016 77.024 25.144C77.0453 25.2933 77.216 25.368 77.536 25.368C78.1973 25.368 78.6453 25.272 78.88 25.08C78.944 25.0373 79.0827 25.016 79.296 25.016C79.5093 25.016 79.7013 24.9627 79.872 24.856C80.0853 24.728 80.3413 24.6427 80.64 24.6C80.704 24.6 80.7467 24.5787 80.768 24.536C80.8107 24.4933 80.928 24.44 81.12 24.376C81.3333 24.312 81.44 24.2267 81.44 24.12C81.44 24.0773 81.3653 24.0773 81.216 24.12C81.0453 24.1413 80.896 24.0987 80.768 23.992L80.608 23.8L80.832 23.736C81.0667 23.6507 81.376 23.4907 81.76 23.256C82.144 23.0213 82.336 22.8613 82.336 22.776C82.3573 22.6907 82.3573 22.648 82.336 22.648C82.3147 22.6267 82.2293 22.6373 82.08 22.68C81.8667 22.7653 81.7067 22.84 81.6 22.904C81.1947 23.16 80.6507 23.32 79.968 23.384C79.7333 23.4053 79.4667 23.3413 79.168 23.192C78.8907 23.0213 78.688 22.936 78.56 22.936C78.432 22.936 78.3467 22.8827 78.304 22.776C78.2827 22.648 78.176 22.552 77.984 22.488C77.8133 22.4027 77.728 22.3387 77.728 22.296C77.728 22.232 77.6747 22.2 77.568 22.2C77.504 22.2 77.4293 22.1467 77.344 22.04C77.28 21.9333 77.2693 21.8587 77.312 21.816C77.376 21.752 77.3547 21.6667 77.248 21.56C77.1413 21.4533 77.0667 21.3573 77.024 21.272C77.024 21.2293 77.024 21.1973 77.024 21.176C77.024 21.1547 77.0453 21.144 77.088 21.144C77.1307 21.144 77.1733 21.144 77.216 21.144C77.28 21.144 77.3653 21.144 77.472 21.144C77.792 21.1653 78.1653 21.1013 78.592 20.952C79.0187 20.8027 79.2533 20.7173 79.296 20.696C79.3387 20.6533 79.616 20.5147 80.128 20.28C80.64 20.024 80.9173 19.896 80.96 19.896C81.0027 19.896 81.2373 19.7893 81.664 19.576C82.112 19.3413 82.4213 19.2027 82.592 19.16C82.7627 19.096 82.848 18.9253 82.848 18.648C82.848 18.328 82.7947 18.1573 82.688 18.136C82.6027 18.1147 82.2933 18.232 81.76 18.488C80.8213 18.9787 80.1387 19.064 79.712 18.744C79.5413 18.6373 79.3387 18.5413 79.104 18.456C78.8907 18.3707 78.784 18.296 78.784 18.232C78.784 18.1893 78.6987 18.0933 78.528 17.944C78.3787 17.7733 78.272 17.6773 78.208 17.656C78.1013 17.6347 78.0373 17.5493 78.016 17.4C77.9947 17.2293 77.952 17.1333 77.888 17.112C77.8453 17.0693 77.8133 16.984 77.792 16.856C77.7707 16.7493 77.7813 16.696 77.824 16.696C77.8667 16.6747 77.9733 16.6747 78.144 16.696C78.4 16.7173 78.7733 16.6107 79.264 16.376L80.448 15.736C80.7253 15.5867 80.8853 15.48 80.928 15.416C80.9707 15.352 81.0453 15.32 81.152 15.32C81.2587 15.32 81.504 15.2027 81.888 14.968C82.272 14.712 82.4853 14.6053 82.528 14.648C82.592 14.6693 82.6773 14.6587 82.784 14.616C82.8907 14.5733 82.9227 14.392 82.88 14.072C82.88 13.9227 82.8693 13.8267 82.848 13.784C82.848 13.72 82.8373 13.6667 82.816 13.624C82.7947 13.5813 82.7627 13.5707 82.72 13.592C82.6987 13.592 82.656 13.6027 82.592 13.624C82.5067 13.7307 82.272 13.8693 81.888 14.04C81.504 14.2107 81.2587 14.3387 81.152 14.424C80.6827 14.6587 80 14.3707 79.104 13.56C78.6347 13.1547 78.3467 12.8987 78.24 12.792C78.1333 12.664 78.08 12.5467 78.08 12.44C78.08 12.248 78.048 12.1413 77.984 12.12C77.9413 12.0773 77.92 12.0027 77.92 11.896C77.92 11.768 78.08 11.704 78.4 11.704C78.72 11.704 79.1253 11.5867 79.616 11.352C80.128 11.1173 80.5333 10.9253 80.832 10.776L81.952 10.264C82.4 10.0507 82.656 9.944 82.72 9.944C82.8053 9.944 82.8587 9.912 82.88 9.848C82.9227 9.784 82.8907 9.76267 82.784 9.784C82.7413 9.784 82.7093 9.79467 82.688 9.816C82.496 9.83733 82.3253 9.79467 82.176 9.688C82.048 9.56 81.984 9.464 81.984 9.4C81.984 9.31467 81.8987 9.29333 81.728 9.336C81.5787 9.35733 81.504 9.35733 81.504 9.336C81.504 9.29333 81.5787 9.176 81.728 8.984C81.8987 8.792 81.984 8.67467 81.984 8.632C81.984 8.58933 81.856 8.49333 81.6 8.344C81.344 8.17333 81.184 8.088 81.12 8.088C81.0133 8.088 80.96 8.056 80.96 7.992ZM67.68 13.272C67.7227 13.272 67.776 13.2507 67.84 13.208C67.9253 13.144 67.936 13.1013 67.872 13.08C67.808 13.0373 67.744 13.0587 67.68 13.144C67.616 13.2293 67.616 13.272 67.68 13.272ZM74.368 14.648C74.3253 14.0933 74.2507 13.8053 74.144 13.784C74.1013 13.784 74.0693 13.8053 74.048 13.848C73.984 13.912 73.792 13.9547 73.472 13.976C73.1733 13.976 72.9813 14.0293 72.896 14.136C72.832 14.2213 72.7573 14.2 72.672 14.072C72.6293 14.008 72.5973 13.976 72.576 13.976C72.5547 13.976 72.5227 14.04 72.48 14.168C72.3947 14.3387 72.32 14.3813 72.256 14.296C72.0427 14.104 71.84 14.0933 71.648 14.264C71.4773 14.4347 71.3813 14.712 71.36 15.096C71.2533 16.4613 71.232 17.176 71.296 17.24C71.3387 17.3253 71.52 17.3787 71.84 17.4C72.352 17.4427 72.672 17.5493 72.8 17.72C72.8853 17.848 73.0453 17.9013 73.28 17.88C73.5147 17.8587 73.632 17.9013 73.632 18.008C73.632 18.0933 73.6747 18.1573 73.76 18.2C73.8453 18.2213 73.888 18.296 73.888 18.424C73.888 18.5733 73.92 18.6907 73.984 18.776C74.0693 18.84 74.1653 18.84 74.272 18.776C74.3573 18.7547 74.3787 18.7867 74.336 18.872C74.3147 18.872 74.2827 18.8933 74.24 18.936C74.1547 19.0427 74.1227 19.1067 74.144 19.128C74.1867 19.1493 74.2507 19.128 74.336 19.064C74.4427 19 74.4853 18.36 74.464 17.144C74.464 15.928 74.432 15.096 74.368 14.648ZM66.784 17.656C66.6987 17.5067 66.656 17.528 66.656 17.72C66.656 17.8053 66.688 17.8267 66.752 17.784C66.816 17.7413 66.8267 17.6987 66.784 17.656ZM110.496 0.343998C110.773 0.173332 111.179 0.311999 111.712 0.759998C112.437 1.4 112.768 1.72 112.704 1.72C112.661 1.72 112.704 1.80533 112.832 1.976C112.981 2.14666 113.024 2.24266 112.96 2.264C112.789 2.30667 112.821 2.46667 113.056 2.744C113.184 2.89333 113.248 3.13867 113.248 3.48C113.248 3.75733 113.259 3.928 113.28 3.992C113.301 4.03467 113.408 4.09867 113.6 4.184C113.984 4.35467 114.379 4.696 114.784 5.208C115.189 5.69866 115.424 6.12533 115.488 6.488C115.509 6.68 115.509 6.776 115.488 6.776C115.467 6.776 115.424 6.75467 115.36 6.712C115.232 6.648 115.168 6.59467 115.168 6.552C115.168 6.488 115.115 6.456 115.008 6.456C114.944 6.456 114.901 6.46667 114.88 6.488C114.88 6.50933 114.901 6.57333 114.944 6.68C114.987 6.78666 115.04 6.84 115.104 6.84C115.189 6.84 115.264 6.89333 115.328 7C115.413 7.08533 115.499 7.11733 115.584 7.096L115.872 7.128C115.787 7.17067 115.552 7.24533 115.168 7.352C114.571 7.50133 114.101 7.61867 113.76 7.704C113.419 7.78933 113.173 7.85333 113.024 7.896C112.917 7.91733 112.843 7.96 112.8 8.024C112.757 8.088 112.725 8.20533 112.704 8.376C112.619 8.952 112.48 9.61333 112.288 10.36C111.925 11.6827 111.776 12.3973 111.84 12.504C111.904 12.5467 112.149 12.5253 112.576 12.44C113.003 12.3333 113.227 12.2373 113.248 12.152C113.269 12.088 113.397 12.088 113.632 12.152C113.867 12.216 114.133 12.2587 114.432 12.28C114.752 12.28 114.965 12.3333 115.072 12.44C115.179 12.5467 115.264 12.6 115.328 12.6C115.392 12.6 115.435 12.6533 115.456 12.76C115.499 12.8667 115.637 13.0587 115.872 13.336C116.128 13.6133 116.277 13.8053 116.32 13.912C116.363 14.0187 116.448 14.072 116.576 14.072C116.747 14.072 116.8 14.232 116.736 14.552C116.693 15 116.736 15.256 116.864 15.32C117.056 15.448 117.013 15.5227 116.736 15.544C116.629 15.544 116.469 15.544 116.256 15.544C115.744 15.5653 115.467 15.5973 115.424 15.64C115.381 15.6827 115.136 15.7253 114.688 15.768L112.064 16.152C111.552 16.216 111.147 16.2693 110.848 16.312C110.784 16.3333 110.677 16.3653 110.528 16.408C109.227 16.6427 108.448 16.8133 108.192 16.92C107.957 17.0053 107.765 17.208 107.616 17.528C107.595 17.5493 107.584 17.5813 107.584 17.624C107.392 18.008 107.221 18.264 107.072 18.392C106.944 18.4773 106.805 18.648 106.656 18.904C106.507 19.16 106.432 19.3413 106.432 19.448C106.432 19.512 106.24 19.7467 105.856 20.152C105.216 20.7707 104.949 21.24 105.056 21.56C105.12 21.752 105.163 22.2213 105.184 22.968C105.205 23.7147 105.227 24.216 105.248 24.472C105.291 24.7067 105.312 24.8773 105.312 24.984C105.333 25.24 105.888 25.1867 106.976 24.824C107.573 24.6107 108.213 24.3867 108.896 24.152L109.92 23.864V23.512C109.92 23.32 109.931 23.2027 109.952 23.16C109.995 23.096 110.101 23.0107 110.272 22.904C110.485 22.7547 110.731 22.4987 111.008 22.136C111.285 21.7733 111.477 21.432 111.584 21.112C111.648 20.9413 111.691 20.8133 111.712 20.728C111.733 20.6213 111.733 20.5573 111.712 20.536C111.691 20.4933 111.648 20.4933 111.584 20.536C111.52 20.5787 111.424 20.6427 111.296 20.728C110.997 20.984 110.709 21.208 110.432 21.4C110.155 21.592 109.941 21.7627 109.792 21.912C109.493 22.232 109.291 22.2853 109.184 22.072C109.141 22.008 109.024 21.976 108.832 21.976C108.64 21.976 108.459 21.9227 108.288 21.816C108.139 21.688 107.936 21.592 107.68 21.528C107.445 21.4427 107.253 21.3253 107.104 21.176C106.955 21.0267 106.859 20.952 106.816 20.952C106.731 20.952 106.624 20.8347 106.496 20.6C106.389 20.3653 106.336 20.1733 106.336 20.024C106.336 19.832 106.389 19.7253 106.496 19.704C106.624 19.6613 106.688 19.608 106.688 19.544C106.688 19.48 106.816 19.4693 107.072 19.512C107.456 19.576 108.469 19.2027 110.112 18.392C111.499 17.688 112.288 17.336 112.48 17.336C112.651 17.336 112.853 17.4107 113.088 17.56C113.323 17.688 113.504 17.8373 113.632 18.008C113.803 18.2427 113.909 18.36 113.952 18.36C113.995 18.36 114.112 18.456 114.304 18.648C114.496 18.84 114.592 18.936 114.592 18.936C114.549 18.936 114.539 18.9573 114.56 19C114.603 19.0213 114.635 19.0747 114.656 19.16C114.677 19.2453 114.709 19.3307 114.752 19.416C114.965 19.864 115.04 20.2587 114.976 20.6C114.912 20.92 114.667 21.4213 114.24 22.104C113.984 22.5947 113.867 22.8507 113.888 22.872C113.909 22.8933 114.187 22.8613 114.72 22.776C115.253 22.6693 115.52 22.5733 115.52 22.488C115.52 22.4027 115.755 22.3707 116.224 22.392C116.523 22.4133 116.757 22.4347 116.928 22.456C117.099 22.4773 117.237 22.4987 117.344 22.52C117.472 22.5413 117.547 22.5627 117.568 22.584C117.611 22.6053 117.632 22.6267 117.632 22.648C117.611 22.7333 117.717 22.8507 117.952 23C118.208 23.1493 118.368 23.2133 118.432 23.192L118.464 23.288L118.432 23.32C118.347 23.4053 118.389 23.5547 118.56 23.768C118.752 23.96 118.912 24.0667 119.04 24.088C119.189 24.1093 119.243 24.1947 119.2 24.344C119.179 24.472 119.221 24.6 119.328 24.728C119.456 24.8347 119.541 24.9733 119.584 25.144L119.616 25.4H118.912C118.251 25.4213 117.408 25.528 116.384 25.72C114.571 26.0187 113.653 26.1893 113.632 26.232C113.611 26.232 113.643 26.4987 113.728 27.032C113.984 28.5253 113.824 30.2427 113.248 32.184C112.949 33.2293 112.299 33.9227 111.296 34.264C110.656 34.52 110.336 34.5627 110.336 34.392C110.336 34.2853 110.283 34.232 110.176 34.232C110.091 34.232 109.963 34.104 109.792 33.848C109.643 33.6347 109.365 33.3893 108.96 33.112C108.576 32.8347 108.363 32.728 108.32 32.792C108.299 32.8347 108.245 32.8133 108.16 32.728C108.096 32.664 108.032 32.5893 107.968 32.504C107.925 32.4187 107.925 32.344 107.968 32.28C107.989 32.2587 107.947 32.2053 107.84 32.12C107.755 32.056 107.648 31.992 107.52 31.928C107.264 31.7787 107.115 31.6613 107.072 31.576C107.029 31.512 107.008 31.4053 107.008 31.256C107.008 31.0427 106.965 30.8933 106.88 30.808C106.816 30.744 106.816 30.712 106.88 30.712C106.901 30.712 106.944 30.7227 107.008 30.744C107.179 30.7867 107.275 30.776 107.296 30.712C107.317 30.6693 107.52 30.7013 107.904 30.808C108.267 30.936 108.683 31.032 109.152 31.096C109.621 31.16 109.963 31.1707 110.176 31.128C110.283 31.0853 110.4 30.9787 110.528 30.808C110.656 30.6373 110.72 30.4773 110.72 30.328C110.72 30.2427 110.763 30.1787 110.848 30.136C110.933 30.0933 111.019 29.9013 111.104 29.56C111.189 29.2613 111.253 28.7173 111.296 27.928C111.36 27.1387 111.36 26.7333 111.296 26.712C111.211 26.648 110.453 26.8507 109.024 27.32C108.491 27.4907 108.139 27.5973 107.968 27.64C107.819 27.6827 107.627 27.672 107.392 27.608C107.072 27.544 106.891 27.48 106.848 27.416C106.805 27.3733 106.709 27.352 106.56 27.352C106.432 27.352 106.251 27.3093 106.016 27.224C105.803 27.1387 105.696 27.064 105.696 27C105.696 26.936 105.643 26.904 105.536 26.904C105.451 26.904 105.376 26.84 105.312 26.712C105.291 26.6267 105.259 26.584 105.216 26.584C105.216 26.6267 105.184 26.9147 105.12 27.448C105.077 27.9813 105.013 28.7493 104.928 29.752C104.843 31.48 104.725 32.376 104.576 32.44C104.512 32.4613 104.48 32.5787 104.48 32.792C104.48 32.9413 104.416 33.2507 104.288 33.72C104.16 34.1893 104.075 34.424 104.032 34.424C103.968 34.424 103.872 34.3067 103.744 34.072C103.616 33.8587 103.509 33.7733 103.424 33.816C103.36 33.8587 103.221 33.7307 103.008 33.432C102.795 33.1547 102.667 33.016 102.624 33.016C102.581 33.016 102.56 32.9627 102.56 32.856C102.56 32.7707 102.496 32.6107 102.368 32.376C102.24 32.1413 102.208 32.024 102.272 32.024C102.336 32.024 102.325 31.9813 102.24 31.896C102.155 31.768 102.208 30.7013 102.4 28.696C102.464 27.6507 102.528 26.616 102.592 25.592L102.656 24.088L102.24 24.376C101.984 24.568 101.664 24.8453 101.28 25.208C100.896 25.5493 100.459 25.912 99.968 26.296C99.4773 26.68 99.0827 27.0107 98.784 27.288C98.528 27.5653 98.1973 27.8107 97.792 28.024C97.408 28.2587 97.184 28.344 97.12 28.28C97.0773 28.216 97.056 28.056 97.056 27.8C97.056 27.6507 97.0453 27.5547 97.024 27.512C97.0027 27.4907 96.9387 27.4907 96.832 27.512C96.7253 27.5333 96.6507 27.5333 96.608 27.512C96.5867 27.4907 96.576 27.3947 96.576 27.224C96.576 26.968 96.5227 26.712 96.416 26.456C96.3307 26.1787 96.352 25.9227 96.48 25.688C96.608 25.4533 96.6827 25.2507 96.704 25.08C96.7467 24.888 96.8 24.728 96.864 24.6C97.0133 24.28 97.696 23.608 98.912 22.584C99.872 21.752 100.544 21.144 100.928 20.76C101.333 20.3547 101.515 20.1093 101.472 20.024C101.408 19.96 101.237 19.8533 100.96 19.704L100.64 19.48C100.661 19.48 100.704 19.48 100.768 19.48C101.067 19.48 101.109 19.3733 100.896 19.16C100.725 18.968 100.757 18.84 100.992 18.776C101.312 18.6907 101.717 18.7227 102.208 18.872L102.624 18.968L102.944 18.616L103.296 18.232L102.56 18.168C102.091 18.1467 101.792 18.0933 101.664 18.008C101.301 17.816 100.96 17.6987 100.64 17.656C100.363 17.6347 100.224 17.5813 100.224 17.496C100.224 17.3893 100.107 17.2613 99.872 17.112C99.6587 16.9627 99.4987 16.8347 99.392 16.728C99.3067 16.6 99.168 16.4613 98.976 16.312C98.848 16.2053 98.8267 16.152 98.912 16.152C98.9973 16.152 99.0507 16.0987 99.072 15.992C99.1147 15.864 99.0827 15.768 98.976 15.704C98.9973 15.6187 99.0507 15.576 99.136 15.576C99.3067 15.576 99.392 15.5333 99.392 15.448C99.392 15.3627 99.5093 15.352 99.744 15.416C100.171 15.5013 100.896 15.3627 101.92 15C103.029 14.6373 104.096 14.3173 105.12 14.04C105.504 13.912 105.696 13.8267 105.696 13.784C105.653 13.6347 105.589 13.5387 105.504 13.496C105.504 13.6667 105.451 13.6773 105.344 13.528C105.301 13.4853 105.259 13.4213 105.216 13.336C105.152 13.1653 105.013 12.9733 104.8 12.76C104.587 12.5253 104.437 12.408 104.352 12.408C104.245 12.408 104.192 12.3653 104.192 12.28C104.192 12.1093 104.16 11.992 104.096 11.928C104.011 11.8853 103.968 11.5547 103.968 10.936C103.947 10.296 103.925 9.93333 103.904 9.848C103.904 9.76267 103.84 9.72 103.712 9.72C103.563 9.72 103.456 9.69867 103.392 9.656C103.349 9.592 103.136 9.50667 102.752 9.4C102.389 9.272 102.176 9.19733 102.112 9.176C102.048 9.13333 101.931 9.09067 101.76 9.048C101.589 8.984 101.419 8.824 101.248 8.568C101.077 8.312 100.896 8.09867 100.704 7.928C100.512 7.75733 100.416 7.58667 100.416 7.416C100.416 7.224 100.512 7.11733 100.704 7.096C100.875 7.032 101.067 7 101.28 7C101.493 7 101.845 6.94667 102.336 6.84C102.848 6.712 103.232 6.584 103.488 6.456L103.904 6.296L103.808 5.848C103.744 5.54933 103.701 5.25067 103.68 4.952C103.68 4.65333 103.669 4.504 103.648 4.504C103.584 4.41867 103.552 4.216 103.552 3.896C103.552 3.74667 103.509 3.58667 103.424 3.416C103.339 3.24533 103.296 3.096 103.296 2.968C103.296 2.84 103.243 2.70133 103.136 2.552C103.093 2.424 103.072 2.33867 103.072 2.296C103.093 2.25333 103.179 2.15733 103.328 2.008L103.648 1.688L104.064 1.88C104.341 2.008 104.523 2.072 104.608 2.072C104.715 2.072 104.949 2.17867 105.312 2.392C105.696 2.584 105.888 2.70133 105.888 2.744C105.888 2.78667 105.973 2.86133 106.144 2.968C106.336 3.05333 106.4 3.14933 106.336 3.256C106.272 3.36267 106.325 3.45867 106.496 3.544C106.624 3.65067 106.709 3.78933 106.752 3.96C106.795 4.10933 106.816 4.38667 106.816 4.792V5.528L107.104 5.432C107.552 5.28267 108.267 5.10133 109.248 4.888C109.611 4.80267 109.803 4.73867 109.824 4.696C109.845 4.65333 109.867 4.152 109.888 3.192C109.909 2.232 109.867 1.69867 109.76 1.592C109.675 1.48533 109.664 1.368 109.728 1.24C109.813 1.112 109.824 1.00533 109.76 0.919998C109.717 0.834665 109.717 0.791998 109.76 0.791998C109.824 0.791998 109.877 0.717332 109.92 0.567999C109.963 0.418665 110.037 0.354665 110.144 0.375999C110.251 0.397333 110.368 0.386665 110.496 0.343998ZM109.088 9.528C109.109 9.10133 109.099 8.87733 109.056 8.856C109.013 8.81333 108.779 8.84533 108.352 8.952C107.563 9.18667 107.168 9.336 107.168 9.4C107.147 9.44267 107.125 9.73067 107.104 10.264C107.104 10.776 107.168 11.0427 107.296 11.064C107.424 11.0853 107.488 11.1387 107.488 11.224C107.488 11.3093 107.659 11.4587 108 11.672C108.341 11.8853 108.523 12.0773 108.544 12.248C108.587 12.4187 108.629 12.504 108.672 12.504C108.736 12.504 108.768 12.5893 108.768 12.76C108.768 12.9093 108.821 12.9947 108.928 13.016C109.035 13.0373 109.269 13.0053 109.632 12.92C110.08 12.856 110.304 12.7707 110.304 12.664C110.325 12.5573 110.283 12.504 110.176 12.504C110.112 12.504 110.059 12.504 110.016 12.504C109.995 12.4827 109.984 12.4507 109.984 12.408C110.005 12.344 109.963 12.1947 109.856 11.96C109.749 11.7253 109.643 11.576 109.536 11.512L109.344 11.32C109.365 11.2987 109.312 11.2133 109.184 11.064C109.077 10.936 109.013 10.808 108.992 10.68C108.992 10.5307 109.024 10.1467 109.088 9.528ZM110.912 12.632C110.912 12.6107 110.859 12.6 110.752 12.6C110.645 12.6 110.624 12.6213 110.688 12.664C110.709 12.728 110.752 12.76 110.816 12.76C110.88 12.7387 110.912 12.696 110.912 12.632Z" fill="black"/>
</svg>
