<svg width="180" height="48" viewBox="0 0 180 48" fill="none" xmlns="http://www.w3.org/2000/svg">
<path d="M14.08 26.24C13.984 26.24 13.952 26.192 13.984 26.096C14.048 26 14.112 25.952 14.176 25.952C14.24 25.952 14.272 26 14.272 26.096C14.272 26.192 14.208 26.24 14.08 26.24ZM13.936 25.76C14.16 25.504 14.272 25.44 14.272 25.568C14.272 25.6 14.176 25.68 13.984 25.808C13.824 25.936 13.808 25.92 13.936 25.76ZM0.832001 9.968C0.928 9.904 1.12 9.888 1.408 9.92C1.728 9.92 2.112 9.952 2.56 10.016C3.008 10.08 3.296 10.16 3.424 10.256C3.744 10.416 3.936 10.496 4 10.496C4.096 10.496 4.288 10.656 4.576 10.976C4.896 11.264 5.072 11.504 5.104 11.696C5.168 11.952 5.312 12.208 5.536 12.464C6.016 13.168 6.176 13.712 6.016 14.096C5.92 14.384 5.872 15.168 5.872 16.448C5.872 18.72 5.744 21.008 5.488 23.312C5.36 24.08 5.28 24.864 5.248 25.664C5.12 27.904 4.944 29.872 4.72 31.568C4.336 34.48 4.064 36.176 3.904 36.656C3.456 37.808 3.12 38.016 2.896 37.28C2.832 37.056 2.752 36.944 2.656 36.944C2.592 36.944 2.56 36.88 2.56 36.752C2.56 36.624 2.496 36.512 2.368 36.416C2.24 36.32 2.112 36.064 1.984 35.648C1.856 35.2 1.744 34.976 1.648 34.976C1.584 34.976 1.52 34.896 1.456 34.736C1.424 34.576 1.184 34.256 0.736001 33.776L0.0160005 33.104L0.256 32.48C0.416 32.064 0.608 31.664 0.832001 31.28C1.056 30.864 1.136 30.304 1.072 29.6C1.04 28.864 1.056 28.208 1.12 27.632C1.216 27.056 1.36 25.792 1.552 23.84C1.68 22.688 1.776 21.984 1.84 21.728C1.904 21.472 1.888 21.232 1.792 21.008C1.664 20.816 1.616 20.528 1.648 20.144C1.68 19.728 1.744 19.456 1.84 19.328C1.936 19.168 2 18.848 2.032 18.368C2.064 17.888 2.112 17.584 2.176 17.456C2.24 17.232 2.272 16.96 2.272 16.64C2.304 16.32 2.288 16.144 2.224 16.112C2.16 16.048 2.144 15.92 2.176 15.728C2.24 15.536 2.208 15.344 2.08 15.152C1.952 14.928 1.952 14.72 2.08 14.528C2.208 14.304 2.208 14.128 2.08 14C1.984 13.872 1.92 13.568 1.888 13.088C1.856 12.448 1.76 11.856 1.6 11.312C1.44 10.736 1.28 10.384 1.12 10.256C0.928001 10.16 0.832001 10.064 0.832001 9.968ZM16.816 9.392C16.944 9.168 17.376 9.232 18.112 9.584C18.976 10 19.408 10.48 19.408 11.024C19.408 11.216 19.568 11.392 19.888 11.552C20.272 11.712 20.432 11.904 20.368 12.128C20.368 12.256 20.32 12.32 20.224 12.32C20.16 12.32 19.952 12.56 19.6 13.04C19.44 13.328 19.296 13.552 19.168 13.712C19.072 13.84 18.976 13.952 18.88 14.048C18.784 14.144 18.72 14.192 18.688 14.192C18.688 14.192 18.672 14.192 18.64 14.192C18.544 14.128 18.56 14 18.688 13.808C19.328 12.784 19.648 12.16 19.648 11.936C19.648 11.712 19.44 11.936 19.024 12.608C18.896 12.768 18.784 12.928 18.688 13.088C18.4 13.632 18.176 13.968 18.016 14.096C17.888 14.192 17.824 14.288 17.824 14.384C17.824 14.448 17.968 14.544 18.256 14.672C18.576 14.768 18.832 14.816 19.024 14.816C19.152 14.816 19.36 14.896 19.648 15.056C19.968 15.216 20.128 15.44 20.128 15.728C20.128 16.016 20.24 16.224 20.464 16.352C20.976 16.608 21.04 17.104 20.656 17.84C20.464 18.192 20.144 18.96 19.696 20.144C19.248 21.296 19.024 21.92 19.024 22.016C19.024 22.176 18.704 22.56 18.064 23.168C17.712 23.584 17.52 23.712 17.488 23.552C17.456 23.392 17.28 23.312 16.96 23.312C16.736 23.312 16.608 23.328 16.576 23.36C16.544 23.392 16.56 23.552 16.624 23.84C16.656 24.16 16.752 24.496 16.912 24.848C17.104 25.168 17.2 25.824 17.2 26.816C17.2 27.744 17.296 28.288 17.488 28.448C17.68 28.576 18.48 28.672 19.888 28.736C21.296 28.8 22.128 28.912 22.384 29.072C22.576 29.232 22.8 29.52 23.056 29.936C23.312 30.352 23.44 30.656 23.44 30.848C23.44 30.912 23.504 31.024 23.632 31.184C23.76 31.312 23.856 31.376 23.92 31.376C24.016 31.376 24.16 31.472 24.352 31.664L24.64 32L21.472 32.048C19.648 32.048 18.48 32.016 17.968 31.952C17.488 31.888 17.104 31.648 16.816 31.232C16.56 30.912 16.144 30.448 15.568 29.84C14.992 29.2 14.64 28.72 14.512 28.4C14.416 28.048 14.4 27.392 14.464 26.432C14.624 24.992 14.576 24.272 14.32 24.272C14.16 24.272 14.112 24.368 14.176 24.56C14.24 24.752 14.192 24.96 14.032 25.184C13.904 25.408 13.808 25.632 13.744 25.856C13.712 26.048 13.648 26.272 13.552 26.528L13.408 27.008L13.648 26.672L13.888 26.432C13.888 26.432 13.824 26.64 13.696 27.056C13.344 28.112 12.768 29.504 11.968 31.232C11.2 32.928 10.752 33.76 10.624 33.728C10.56 33.728 10.368 33.408 10.048 32.768C9.76 32.096 9.552 31.536 9.424 31.088C9.264 30.608 9.12 30.272 8.992 30.08C8.864 29.856 8.912 29.504 9.136 29.024C9.392 28.512 9.552 28.24 9.616 28.208C9.68 28.144 9.792 27.952 9.952 27.632C10.112 27.28 10.24 27.056 10.336 26.96C10.72 26.288 10.8 25.872 10.576 25.712C10.416 25.616 10.336 25.52 10.336 25.424C10.336 25.328 10.192 25.136 9.904 24.848C9.36 24.336 9.04 23.92 8.944 23.6C8.848 23.248 8.784 22.288 8.752 20.72C8.656 18.288 8.464 16.784 8.176 16.208C8.048 15.888 8.016 15.68 8.08 15.584C8.176 15.488 8.432 15.504 8.848 15.632C9.584 15.856 10.048 16.24 10.24 16.784C10.272 16.88 10.608 16.848 11.248 16.688C11.888 16.528 12.24 16.432 12.304 16.4C12.368 16.336 12.176 16.128 11.728 15.776C11.184 15.296 10.544 14.672 9.808 13.904C9.712 13.84 9.584 13.632 9.424 13.28C9.296 12.896 9.168 12.528 9.04 12.176C8.944 11.824 8.912 11.648 8.944 11.648C8.976 11.648 9.072 11.6 9.232 11.504C9.424 11.344 9.664 11.344 9.952 11.504C10.272 11.664 10.544 11.936 10.768 12.32C11.024 12.672 11.28 12.848 11.536 12.848C12.144 12.848 12.816 12.496 13.552 11.792C13.616 11.728 13.68 11.68 13.744 11.648C13.84 11.584 13.904 11.536 13.936 11.504C13.968 11.44 13.984 11.408 13.984 11.408C14.24 11.824 14.352 12.176 14.32 12.464C14.256 12.72 14.272 12.912 14.368 13.04C14.464 13.168 14.48 13.456 14.416 13.904C14.384 14.352 14.304 14.64 14.176 14.768C14.048 14.864 13.984 14.944 13.984 15.008C13.984 15.072 13.872 15.216 13.648 15.44C13.456 15.632 13.392 15.776 13.456 15.872C13.52 15.936 13.664 15.904 13.888 15.776C14.112 15.712 14.304 15.456 14.464 15.008C14.624 14.528 15.04 13.6 15.712 12.224C16.384 10.848 16.704 10.064 16.672 9.872C16.672 9.648 16.72 9.488 16.816 9.392ZM16.528 14.816C16.496 14.688 16.448 14.624 16.384 14.624C16.352 14.624 16.304 14.672 16.24 14.768C16.208 14.864 16.272 14.912 16.432 14.912C16.496 14.912 16.528 14.912 16.528 14.912C16.56 14.88 16.56 14.848 16.528 14.816ZM16.24 18.8C16.496 18.256 16.608 17.936 16.576 17.84C16.576 17.808 16.512 17.808 16.384 17.84C16.256 17.84 16.064 17.888 15.808 17.984C15.552 18.08 15.232 18.192 14.848 18.32C13.76 18.768 12.944 18.992 12.4 18.992C12.016 18.992 11.792 19.008 11.728 19.04C11.664 19.072 11.648 19.168 11.68 19.328C11.712 19.52 11.728 19.936 11.728 20.576C11.728 21.184 11.792 21.488 11.92 21.488C12.08 21.488 12.64 21.28 13.6 20.864C14.592 20.416 15.136 20.192 15.232 20.192C15.552 20.192 15.888 19.728 16.24 18.8ZM11.104 19.472C11.136 19.344 11.136 19.184 11.104 18.992C11.072 19.088 11.056 19.184 11.056 19.28L11.104 19.52V19.472ZM10 6.032C10.608 5.552 10.912 5.392 10.912 5.552C10.912 5.648 10.992 5.68 11.152 5.648C11.344 5.584 11.44 5.632 11.44 5.792C11.472 5.952 11.392 6.048 11.2 6.08C11.104 6.144 11.056 6.24 11.056 6.368C11.056 6.496 10.96 6.592 10.768 6.656C10.64 6.752 10.544 6.864 10.48 6.992C10.448 7.088 10.464 7.168 10.528 7.232C10.592 7.264 10.688 7.264 10.816 7.232C10.976 7.264 11.04 7.296 11.008 7.328C10.976 7.424 10.96 7.504 10.96 7.568C10.992 7.6 11.04 7.632 11.104 7.664C11.168 7.664 11.264 7.648 11.392 7.616C11.488 7.584 11.552 7.584 11.584 7.616C11.616 7.648 11.6 7.744 11.536 7.904C11.472 8.096 11.344 8.288 11.152 8.48C10.992 8.672 10.848 8.768 10.72 8.768C10.656 8.768 10.624 8.848 10.624 9.008C10.624 9.136 10.576 9.2 10.48 9.2C10.416 9.2 10.288 9.408 10.096 9.824C9.904 10.24 9.696 10.48 9.472 10.544C9.28 10.608 8.96 10.528 8.512 10.304C8.096 10.08 7.712 9.808 7.36 9.488C6.976 9.136 6.528 8.832 6.016 8.576C5.536 8.384 5.168 8.224 4.912 8.096C4.656 7.936 4.464 7.792 4.336 7.664C4.208 7.536 4.144 7.424 4.144 7.328C4.176 7.2 4.272 7.072 4.432 6.944C4.624 6.752 4.896 6.704 5.248 6.8C5.632 6.896 6.112 6.992 6.688 7.088C7.84 7.184 8.944 6.832 10 6.032ZM23.536 3.824C23.76 3.632 24.432 3.536 25.552 3.536C27.184 3.504 28.112 3.632 28.336 3.92C28.368 3.984 28.576 4.112 28.96 4.304C29.312 4.496 29.648 4.72 29.968 4.976C30.288 5.232 30.416 5.392 30.352 5.456C30.288 5.52 30.304 5.632 30.4 5.792C30.528 5.92 30.64 6.064 30.736 6.224C30.832 6.352 31.088 6.672 31.504 7.184C32.112 7.984 32.144 8.464 31.6 8.624C31.152 8.72 30.944 9.2 30.976 10.064C30.976 10.448 30.928 11.52 30.832 13.28C30.672 15.904 30.624 22.368 30.688 32.672C30.688 36.288 30.672 38.32 30.64 38.768C30.64 39.248 30.56 39.568 30.4 39.728C29.664 40.464 29.232 41.12 29.104 41.696C29.04 41.952 28.944 42.096 28.816 42.128C28.688 42.192 28.624 42.336 28.624 42.56C28.688 43.296 28.608 43.664 28.384 43.664C28.256 43.664 28.192 43.6 28.192 43.472C28.192 43.344 28 43.088 27.616 42.704C27.264 42.352 27.056 42.048 26.992 41.792C26.928 41.568 26.8 41.376 26.608 41.216C26.448 41.056 26.4 40.928 26.464 40.832C26.464 40.8 26.432 40.752 26.368 40.688C26.304 40.656 26.24 40.624 26.176 40.592C25.92 40.464 25.776 40.32 25.744 40.16C25.712 40.032 25.552 39.856 25.264 39.632C25.008 39.408 24.88 39.216 24.88 39.056C24.88 38.896 24.688 38.624 24.304 38.24C23.952 37.92 23.632 37.504 23.344 36.992C23.088 36.48 23.008 36.096 23.104 35.84C23.168 35.584 23.152 35.36 23.056 35.168C22.864 34.784 22.912 34.64 23.2 34.736C23.296 34.768 23.456 34.832 23.68 34.928C24.512 35.344 25.072 35.424 25.36 35.168C25.424 35.04 25.424 34.752 25.36 34.304C25.296 33.824 25.28 33.184 25.312 32.384C25.376 31.552 25.488 28.272 25.648 22.544C25.648 21.328 25.68 19.184 25.744 16.112C25.776 13.072 25.808 11.008 25.84 9.92C25.936 8.224 25.808 7.376 25.456 7.376C25.36 7.376 24.8 7.472 23.776 7.664C22.752 7.856 22.032 7.984 21.616 8.048C21.2 8.08 20.416 8.192 19.264 8.384C18.144 8.544 17.296 8.56 16.72 8.432C16.144 8.272 15.664 8.096 15.28 7.904C14.896 7.68 14.464 7.52 13.984 7.424C13.536 7.296 13.12 7.136 12.736 6.944L12.112 6.656L12.448 6.416C12.64 6.224 12.864 6.128 13.12 6.128C14.208 6.096 16.016 5.776 18.544 5.168C21.616 4.496 23.28 4.048 23.536 3.824ZM69.52 20.24C69.52 20.112 69.712 20.048 70.096 20.048C70.512 20.016 70.816 20.064 71.008 20.192C71.136 20.224 71.424 20.288 71.872 20.384C72.896 20.672 73.472 21.056 73.6 21.536C73.632 21.76 73.744 22.064 73.936 22.448C74.128 22.8 74.32 23.056 74.512 23.216C74.544 23.248 74.656 23.408 74.848 23.696L75.136 24.176L74.704 24.512C74.384 24.768 74.192 25.072 74.128 25.424C73.872 26.928 73.776 27.904 73.84 28.352C73.936 28.608 73.904 28.864 73.744 29.12C73.488 29.632 73.44 29.888 73.6 29.888C73.664 29.888 73.952 29.824 74.464 29.696C74.976 29.568 75.36 29.472 75.616 29.408C75.872 29.344 76.08 29.248 76.24 29.12C76.304 29.056 76.896 28.992 78.016 28.928C79.136 28.832 79.776 28.816 79.936 28.88C80 28.976 80.08 29.088 80.176 29.216C80.272 29.344 80.32 29.456 80.32 29.552C80.352 29.648 80.352 29.728 80.32 29.792C80.288 29.824 80.32 29.968 80.416 30.224C80.512 30.448 80.64 30.688 80.8 30.944C80.96 31.2 81.072 31.344 81.136 31.376C81.296 31.408 81.456 31.52 81.616 31.712C81.776 31.904 81.856 32.048 81.856 32.144C81.856 32.208 81.936 32.288 82.096 32.384C82.256 32.448 82.288 32.528 82.192 32.624C82.096 32.688 82.048 32.8 82.048 32.96C82.048 33.12 81.472 33.216 80.32 33.248C79.168 33.248 77.648 33.408 75.76 33.728C73.872 34.048 72.864 34.224 72.736 34.256C72.576 34.32 72.32 34.784 71.968 35.648C71.648 36.512 71.536 37.008 71.632 37.136C71.696 37.168 71.808 37.136 71.968 37.04C72.16 36.912 72.992 36.896 74.464 36.992C76.16 37.12 77.328 37.248 77.968 37.376C78.608 37.504 79.28 37.728 79.984 38.048C81.136 38.592 82.144 39.424 83.008 40.544C83.392 40.992 83.488 41.232 83.296 41.264C83.2 41.296 83.184 41.424 83.248 41.648C83.344 41.904 83.392 42.16 83.392 42.416C83.392 42.704 83.456 42.944 83.584 43.136C83.712 43.36 83.824 43.728 83.92 44.24C84.048 44.752 84.16 45.04 84.256 45.104C84.352 45.264 84.4 45.472 84.4 45.728C84.432 46.016 84.416 46.192 84.352 46.256C84.288 46.384 84.112 46.4 83.824 46.304C83.536 46.208 83.312 46.096 83.152 45.968C82.992 45.84 82.864 45.776 82.768 45.776C82.672 45.776 82.528 45.664 82.336 45.44C81.92 44.992 81.648 44.768 81.52 44.768C81.456 44.768 81.36 44.672 81.232 44.48C81.104 44.32 80.976 44.24 80.848 44.24C80.72 44.24 80.656 44.192 80.656 44.096C80.656 44 80.544 43.952 80.32 43.952C80.128 43.952 80.064 43.888 80.128 43.76C80.192 43.632 80.064 43.456 79.744 43.232C78.176 42.112 77.024 41.392 76.288 41.072C75.616 40.816 74.976 40.4 74.368 39.824C73.92 39.44 73.52 39.168 73.168 39.008C72.848 38.848 72.688 38.72 72.688 38.624C72.688 38.56 72.592 38.496 72.4 38.432C72.24 38.4 72.176 38.32 72.208 38.192C72.24 38.064 72.112 37.952 71.824 37.856C71.568 37.728 71.44 37.632 71.44 37.568C71.44 37.28 71.312 37.328 71.056 37.712C71.024 37.84 70.96 37.952 70.864 38.048C70.256 39.392 69.776 40.288 69.424 40.736C69.296 40.96 69.008 41.408 68.56 42.08C67.76 43.328 67.152 43.952 66.736 43.952C66.544 43.952 66.112 44.304 65.44 45.008C64.768 45.712 64.368 46.016 64.24 45.92C64.144 45.824 63.888 45.968 63.472 46.352C63.216 46.608 63.056 46.752 62.992 46.784C62.928 46.816 62.832 46.784 62.704 46.688C62.608 46.496 62.592 46.304 62.656 46.112C62.72 45.92 62.672 45.664 62.512 45.344C62.384 45.024 62.224 44.656 62.032 44.24L61.84 43.616L62.272 43.28C62.528 43.056 62.624 42.768 62.56 42.416C62.432 41.712 62.64 41.2 63.184 40.88C63.632 40.528 64.272 39.904 65.104 39.008C65.968 38.144 66.624 37.36 67.072 36.656C67.584 35.92 67.712 35.552 67.456 35.552C67.296 35.552 66.544 35.808 65.2 36.32C63.856 36.8 63.136 37.104 63.04 37.232C62.88 37.36 62.544 37.36 62.032 37.232C61.52 37.072 61.12 36.992 60.832 36.992C60.544 36.992 60.368 36.912 60.304 36.752C60.272 36.592 60.08 36.416 59.728 36.224C59.44 36.128 59.136 35.936 58.816 35.648C58.496 35.36 58.336 35.152 58.336 35.024C58.336 34.96 58.416 34.928 58.576 34.928C58.832 34.928 58.96 34.848 58.96 34.688C58.96 34.656 58.896 34.64 58.768 34.64C58.608 34.608 58.512 34.608 58.48 34.64C58.352 34.64 58.24 34.544 58.144 34.352C58.08 34.128 58.08 33.968 58.144 33.872C58.176 33.744 58.576 33.68 59.344 33.68C60.304 33.68 61.696 33.376 63.52 32.768C64.128 32.576 64.512 32.432 64.672 32.336C64.832 32.24 64.912 32.16 64.912 32.096C64.88 31.904 64.832 31.808 64.768 31.808C64.64 31.808 64.368 31.632 63.952 31.28C63.568 30.896 63.376 30.656 63.376 30.56C63.376 30.464 63.216 30.208 62.896 29.792C62.576 29.376 62.368 29.104 62.272 28.976C62.208 28.816 62.08 28.64 61.888 28.448C61.536 28.192 61.52 27.984 61.84 27.824C62 27.76 62.016 27.68 61.888 27.584C61.856 27.52 61.76 27.456 61.6 27.392C60.832 26.88 60.944 26.64 61.936 26.672C62.192 26.704 62.528 26.752 62.944 26.816C63.904 26.944 64.512 27.088 64.768 27.248C65.024 27.376 65.232 27.696 65.392 28.208C65.616 28.816 65.888 29.28 66.208 29.6C66.72 30.144 66.976 30.64 66.976 31.088C66.976 31.344 67.04 31.488 67.168 31.52C67.296 31.52 67.712 31.44 68.416 31.28C69.152 31.056 69.536 30.864 69.568 30.704C70.08 29.04 70.336 27.776 70.336 26.912C70.336 26.24 70.368 25.616 70.432 25.04C70.464 24.528 70.448 23.856 70.384 23.024C70.32 22.192 70.224 21.664 70.096 21.44C70 21.248 69.968 21.088 70 20.96C70.032 20.832 69.952 20.704 69.76 20.576C69.6 20.448 69.52 20.336 69.52 20.24ZM50.608 4.64C51.216 4.576 51.92 4.608 52.72 4.736C53.552 4.864 53.968 5.024 53.968 5.216C53.968 5.28 54.08 5.36 54.304 5.456C54.56 5.552 54.8 5.856 55.024 6.368C55.28 6.848 55.584 7.248 55.936 7.568C56.16 7.824 56.288 8.032 56.32 8.192C56.384 8.352 56.416 8.72 56.416 9.296C56.416 10.064 56.4 10.832 56.368 11.6C56.336 12.176 56.288 12.528 56.224 12.656C56.192 12.784 56.128 12.848 56.032 12.848C55.808 12.88 55.632 12.832 55.504 12.704C55.408 12.544 55.296 12.464 55.168 12.464C55.04 12.464 54.944 12.4 54.88 12.272C54.848 12.112 54.736 12.032 54.544 12.032C54.384 12.032 54.128 11.904 53.776 11.648C53.424 11.36 53.216 11.216 53.152 11.216C53.088 11.216 52.976 11.152 52.816 11.024C52.688 10.864 52.624 10.768 52.624 10.736C52.656 10.736 52.608 10.544 52.48 10.16C52.384 9.776 52.304 9.408 52.24 9.056C52.144 8.512 51.968 7.968 51.712 7.424C51.488 6.88 51.248 6.496 50.992 6.272C50.64 5.888 50.576 5.664 50.8 5.6C50.928 5.568 50.832 5.456 50.512 5.264C49.84 4.944 49.872 4.736 50.608 4.64ZM66.976 0.415998C67.2 0.383998 67.68 0.447998 68.416 0.607998C69.152 0.735998 69.648 0.863998 69.904 0.991999C70.096 1.12 70.224 1.232 70.288 1.328C70.352 1.392 70.368 1.552 70.336 1.808C70.336 2.128 70.464 2.384 70.72 2.576C71.072 2.832 71.392 3.168 71.68 3.584C71.968 4 72.064 4.288 71.968 4.448C71.904 4.64 71.856 5.28 71.824 6.368L71.728 7.952H72.112C72.304 7.952 72.4 8.016 72.4 8.144C72.4 8.24 72.544 8.48 72.832 8.864C73.152 9.216 73.44 9.536 73.696 9.824C73.952 10.112 74.08 10.304 74.08 10.4C74.08 10.464 74.192 10.56 74.416 10.688C74.896 10.912 75.008 11.104 74.752 11.264C74.624 11.392 74.08 11.68 73.12 12.128L71.728 12.848V13.856C71.728 14.592 71.76 14.96 71.824 14.96C71.92 14.96 72.32 14.848 73.024 14.624C73.76 14.368 74.592 14.128 75.52 13.904C76.48 13.68 76.976 13.52 77.008 13.424C77.04 13.36 77.472 13.296 78.304 13.232C79.136 13.136 79.808 13.088 80.32 13.088C81.472 13.12 82.304 13.68 82.816 14.768C83.04 15.28 83.152 15.584 83.152 15.68C83.152 15.776 83.2 15.856 83.296 15.92C83.456 15.984 83.68 16.24 83.968 16.688C84.256 17.136 84.416 17.472 84.448 17.696C84.576 18.08 84.384 18.272 83.872 18.272C83.68 18.272 83.584 18.32 83.584 18.416C83.584 18.512 83.472 18.672 83.248 18.896C83.056 19.088 82.816 19.456 82.528 20C82.24 20.512 82 20.896 81.808 21.152C81.488 21.632 81.168 22.304 80.848 23.168C80.72 23.488 80.56 23.712 80.368 23.84C80.208 23.936 80.096 24.016 80.032 24.08C80 24.112 79.904 24.048 79.744 23.888C79.584 23.728 79.408 23.536 79.216 23.312C79.024 23.088 78.928 22.928 78.928 22.832C78.928 22.704 78.752 22.384 78.4 21.872C78.08 21.36 77.952 20.944 78.016 20.624C78.08 20.272 78.08 20.08 78.016 20.048C77.888 19.984 77.856 19.776 77.92 19.424C78.016 19.072 78.128 18.816 78.256 18.656C78.416 18.496 78.528 18.272 78.592 17.984C78.688 17.664 78.672 17.472 78.544 17.408C78.448 17.344 77.696 17.472 76.288 17.792L72.64 18.656C71.616 18.88 70.736 19.152 70 19.472C67.28 20.496 65.536 21.056 64.768 21.152C64.032 21.312 64.224 21.536 65.344 21.824C65.632 21.888 65.984 21.968 66.4 22.064L67.216 22.208L67.744 23.264C68.064 23.936 68.4 24.48 68.752 24.896C69.136 25.28 69.328 25.552 69.328 25.712C69.328 25.84 69.36 26.352 69.424 27.248C69.488 28.144 69.456 28.592 69.328 28.592C69.232 28.592 68.88 28.448 68.272 28.16C67.696 27.84 67.408 27.648 67.408 27.584C67.408 27.456 67.184 27.248 66.736 26.96C65.968 26.416 65.584 26.032 65.584 25.808C65.584 25.68 65.456 25.376 65.2 24.896C64.944 24.384 64.752 24.048 64.624 23.888C64.4 23.664 64.256 23.488 64.192 23.36L63.904 22.976C63.776 22.848 63.776 22.736 63.904 22.64C64.032 22.544 63.968 22.368 63.712 22.112C63.52 21.888 63.376 21.776 63.28 21.776C63.216 21.744 63.12 21.776 62.992 21.872C62.768 22.032 62.656 22.192 62.656 22.352C62.656 22.48 62.592 22.528 62.464 22.496C62.336 22.432 61.968 22.336 61.36 22.208C60.752 22.112 60.368 22.032 60.208 21.968C60.08 21.904 60.016 21.808 60.016 21.68C60.016 21.488 59.824 21.344 59.44 21.248C59.056 21.12 58.752 20.992 58.528 20.864C58.336 20.768 58.224 20.64 58.192 20.48C58.192 20.288 58.24 20.144 58.336 20.048C58.432 20.048 58.448 20.048 58.384 20.048C58.352 20.016 58.304 20 58.24 20C57.952 20 57.648 20.304 57.328 20.912C57.008 21.52 56.816 22.224 56.752 23.024C56.688 23.536 56.592 24.016 56.464 24.464C56.336 24.88 56.192 25.696 56.032 26.912C55.872 28.096 55.728 29.136 55.6 30.032C55.472 30.896 55.392 31.84 55.36 32.864C55.328 33.888 55.28 34.672 55.216 35.216C55.216 35.664 55.232 35.888 55.264 35.888C55.552 35.664 56.176 34.704 57.136 33.008C57.392 32.592 57.568 32.384 57.664 32.384C57.792 32.384 57.888 32.48 57.952 32.672C58.016 32.832 58.032 32.976 58 33.104C57.936 33.168 57.872 33.504 57.808 34.112C57.776 34.688 57.728 35.008 57.664 35.072C57.632 35.136 57.664 35.36 57.76 35.744C57.888 36.096 57.872 36.448 57.712 36.8C57.584 37.152 57.52 37.552 57.52 38C57.488 38.352 57.312 38.88 56.992 39.584C56.704 40.288 56.416 40.832 56.128 41.216C55.648 41.76 55.248 42.32 54.928 42.896C54.608 43.504 54.448 43.952 54.448 44.24C54.448 44.432 54.416 44.528 54.352 44.528C54.32 44.528 54.064 44.352 53.584 44C53.104 43.68 52.816 43.52 52.72 43.52C52.592 43.52 52.432 43.408 52.24 43.184C52.048 42.96 51.952 42.8 51.952 42.704C51.952 42.608 51.824 42.528 51.568 42.464C51.216 42.4 50.992 42.336 50.896 42.272C50.832 42.208 50.736 42.096 50.608 41.936C50.512 41.712 50.528 41.488 50.656 41.264C50.784 41.072 50.752 40.928 50.56 40.832C50.368 40.672 50.256 40.24 50.224 39.536C50.192 38.832 50.56 38.064 51.328 37.232C51.552 37.008 51.68 36.72 51.712 36.368C51.744 35.984 51.808 35.408 51.904 34.64C52.032 33.552 52.24 31.2 52.528 27.584C52.624 26.848 52.672 26.384 52.672 26.192C52.704 26 52.768 25.472 52.864 24.608C52.992 23.712 53.072 23.12 53.104 22.832C53.168 22.544 53.152 22.4 53.056 22.4C52.992 22.4 52.56 22.704 51.76 23.312C50.032 24.72 48.88 25.424 48.304 25.424C47.92 25.424 47.696 25.392 47.632 25.328C47.6 25.232 47.344 25.168 46.864 25.136C46.384 25.072 46.08 24.96 45.952 24.8C45.824 24.608 45.712 24.512 45.616 24.512C45.456 24.576 45.184 24.512 44.8 24.32C44.448 24.096 44.272 23.936 44.272 23.84C44.272 23.712 44.144 23.424 43.888 22.976C43.664 22.528 43.552 22.304 43.552 22.304C43.552 22.272 43.856 22.224 44.464 22.16C45.104 22.096 45.568 21.984 45.856 21.824C46.272 21.536 47.12 20.88 48.4 19.856C49.68 18.8 50.544 18.064 50.992 17.648C51.376 17.264 51.696 17.008 51.952 16.88C52.24 16.752 52.464 16.416 52.624 15.872L52.816 15.056H53.776C54.384 15.056 54.864 15.184 55.216 15.44C55.568 15.696 55.808 15.824 55.936 15.824C56.064 15.824 56.256 15.968 56.512 16.256C56.768 16.512 56.896 16.72 56.896 16.88C56.896 17.136 57.136 17.52 57.616 18.032C58.096 18.512 58.336 18.848 58.336 19.04C58.336 19.2 58.48 19.28 58.768 19.28C59.76 19.28 61.968 18.624 65.392 17.312C66.512 16.896 67.104 16.576 67.168 16.352C67.264 16.096 67.232 15.888 67.072 15.728C66.912 15.536 66.848 15.264 66.88 14.912C66.976 14.656 66.96 14.496 66.832 14.432C66.736 14.368 66.32 14.272 65.584 14.144C65.072 14.08 64.832 13.984 64.864 13.856C64.864 13.824 64.832 13.792 64.768 13.76C64.704 13.728 64.64 13.712 64.576 13.712C64.352 13.712 64.192 13.664 64.096 13.568C64.032 13.472 63.824 13.392 63.472 13.328C63.152 13.264 62.976 13.104 62.944 12.848C62.944 12.656 62.96 12.544 62.992 12.512C63.024 12.48 63.12 12.48 63.28 12.512C63.536 12.576 63.664 12.56 63.664 12.464C63.664 12.368 63.504 12.304 63.184 12.272C62.8 12.208 62.72 12.08 62.944 11.888C63.04 11.824 63.184 11.776 63.376 11.744C63.664 11.68 64.048 11.52 64.528 11.264L66.112 10.4C66.688 10.144 67.024 9.968 67.12 9.872C67.248 9.744 67.264 9.584 67.168 9.392C67.104 9.264 67.056 7.968 67.024 5.504C67.024 3.04 66.976 1.584 66.88 1.136C66.784 0.687998 66.816 0.447997 66.976 0.415998ZM107.056 25.472C107.248 25.28 107.376 25.184 107.44 25.184C107.504 25.184 107.744 25.232 108.16 25.328C109.216 25.52 109.952 25.76 110.368 26.048C110.816 26.304 110.992 26.592 110.896 26.912C110.8 27.168 110.816 27.376 110.944 27.536C111.136 27.696 111.056 28.24 110.704 29.168C110.384 30.064 110.032 30.688 109.648 31.04C109.552 31.2 109.296 31.68 108.88 32.48C108.848 32.512 109.024 32.64 109.408 32.864C109.792 33.056 110.064 33.152 110.224 33.152C110.32 33.152 110.352 33.184 110.32 33.248C110.288 33.312 110.32 33.376 110.416 33.44C110.544 33.504 110.56 33.568 110.464 33.632C110.112 33.792 110.128 33.92 110.512 34.016C110.672 34.112 110.736 34.304 110.704 34.592C110.672 34.816 110.672 34.96 110.704 35.024C110.736 35.056 110.832 35.088 110.992 35.12C111.184 35.216 111.312 35.296 111.376 35.36C111.376 35.392 111.36 35.424 111.328 35.456C111.328 35.488 111.296 35.504 111.232 35.504C111.136 35.504 111.088 35.568 111.088 35.696C111.088 35.824 111.216 35.888 111.472 35.888C111.888 35.888 111.84 35.968 111.328 36.128C111.008 36.192 110.496 36.32 109.792 36.512C108.576 36.768 107.536 37.008 106.672 37.232C105.84 37.456 104.96 37.68 104.032 37.904C103.456 38.032 103.072 38.128 102.88 38.192C102.72 38.288 102.64 38.384 102.64 38.48C102.64 38.672 102.704 39.2 102.832 40.064C102.96 40.928 102.944 41.408 102.784 41.504C102.656 41.632 102.592 41.744 102.592 41.84C102.592 41.968 102.544 42.032 102.448 42.032C102.352 42.032 102.272 42 102.208 41.936C102.176 41.808 102.096 41.776 101.968 41.84C101.84 41.904 101.776 41.888 101.776 41.792C101.776 41.696 101.696 41.648 101.536 41.648C101.408 41.616 101.232 41.488 101.008 41.264C100.816 41.072 100.688 40.864 100.624 40.64C100.496 40.352 100.368 40.224 100.24 40.256C100.112 40.32 99.904 40.208 99.616 39.92C99.328 39.664 99.12 39.536 98.992 39.536C98.896 39.536 98.816 39.392 98.752 39.104C98.72 38.848 98.624 38.112 98.464 36.896C98.24 34.912 98.048 33.6 97.888 32.96C97.76 32.288 97.456 31.344 96.976 30.128C96.4 28.592 95.776 27.616 95.104 27.2C94.848 27.04 94.672 26.848 94.576 26.624C94.48 26.368 94.528 26.192 94.72 26.096C94.848 25.968 94.864 25.856 94.768 25.76C94.576 25.6 94.624 25.52 94.912 25.52C95.104 25.52 95.52 25.552 96.16 25.616C97.12 25.776 97.808 26 98.224 26.288C98.928 26.736 99.504 27.296 99.952 27.968L100.192 28.304L101.776 27.584C104.496 26.368 106.064 25.76 106.48 25.76C106.64 25.76 106.832 25.664 107.056 25.472ZM106.144 30.32C106.208 30.064 106.176 29.936 106.048 29.936C105.92 29.936 105.584 30.064 105.04 30.32C104.528 30.608 103.808 30.88 102.88 31.136C101.984 31.36 101.504 31.52 101.44 31.616C101.376 31.648 101.424 32.112 101.584 33.008C101.744 33.904 101.856 34.384 101.92 34.448C101.984 34.544 102.528 34.384 103.552 33.968L105.04 33.44L105.52 32.096C105.904 31.168 106.112 30.576 106.144 30.32ZM121.264 20.816C121.52 20.72 121.888 20.784 122.368 21.008C122.72 21.2 123.104 21.312 123.52 21.344C124 21.408 124.352 21.568 124.576 21.824C124.8 22.08 125.04 22.576 125.296 23.312C125.552 24.08 125.728 24.848 125.824 25.616C125.92 26.352 125.888 26.784 125.728 26.912C125.664 26.944 125.616 27.12 125.584 27.44C125.584 27.76 125.536 28.016 125.44 28.208C125.376 28.368 125.264 28.72 125.104 29.264C124.944 29.776 124.704 30.208 124.384 30.56C124.064 30.912 123.904 31.152 123.904 31.28C123.904 31.408 123.856 31.456 123.76 31.424C123.664 31.36 123.616 31.392 123.616 31.52C123.616 31.648 123.728 31.76 123.952 31.856C124.144 31.952 124.688 32.096 125.584 32.288C126.48 32.48 127.104 32.592 127.456 32.624C127.936 32.688 128.224 32.864 128.32 33.152C128.384 33.28 128.352 33.376 128.224 33.44C128.096 33.472 128.144 33.584 128.368 33.776C128.592 33.968 128.656 34.064 128.56 34.064C128.272 34.064 128.256 34.24 128.512 34.592C128.608 34.688 128.752 34.768 128.944 34.832C129.232 34.96 129.392 35.12 129.424 35.312C129.488 35.472 129.392 35.6 129.136 35.696C128.976 35.792 128.896 35.936 128.896 36.128C128.896 36.224 128.864 36.288 128.8 36.32C128.736 36.352 128.592 36.336 128.368 36.272L127.888 36.368C127.984 36.528 127.744 36.576 127.168 36.512C126.944 36.48 126.672 36.448 126.352 36.416C124.176 36 122.096 36.016 120.112 36.464C119.152 36.688 118.368 36.832 117.76 36.896C117.312 36.96 117.04 37.024 116.944 37.088C116.848 37.152 116.8 37.296 116.8 37.52C116.704 37.808 116.672 38.32 116.704 39.056C116.736 39.824 116.704 40.208 116.608 40.208C116.544 40.208 116.528 40.304 116.56 40.496C116.592 40.72 116.336 40.544 115.792 39.968C114.992 39.168 114.592 38.56 114.592 38.144C114.592 38.048 114.496 37.952 114.304 37.856C114.112 37.728 114.016 37.584 114.016 37.424C114.016 37.264 113.936 37.184 113.776 37.184C113.648 37.184 113.584 37.136 113.584 37.04C113.584 36.912 113.568 36.592 113.536 36.08C113.536 35.568 113.456 35.248 113.296 35.12C113.136 34.992 113.072 34.736 113.104 34.352C113.104 34.064 113.088 33.92 113.056 33.92C112.928 33.952 112.864 33.952 112.864 33.92C112.864 33.792 112.976 33.648 113.2 33.488C113.36 33.36 113.44 33.232 113.44 33.104C113.472 32.944 113.472 32.464 113.44 31.664C113.344 30.544 113.248 29.68 113.152 29.072C113.088 28.464 113.008 27.968 112.912 27.584C112.88 27.072 112.656 26.464 112.24 25.76C112.144 25.536 112.128 25.408 112.192 25.376C112.32 25.28 112.368 25.152 112.336 24.992C112.336 24.8 112.272 24.608 112.144 24.416C112.016 24.192 111.888 24.08 111.76 24.08C111.664 24.08 111.584 24.048 111.52 23.984C111.488 23.92 111.488 23.84 111.52 23.744C111.584 23.616 111.664 23.488 111.76 23.36C111.952 23.2 112.048 23.04 112.048 22.88C112.048 22.72 112.128 22.672 112.288 22.736C112.448 22.8 112.768 22.896 113.248 23.024C113.76 23.152 114.096 23.264 114.256 23.36C114.448 23.456 115.536 23.152 117.52 22.448C119.504 21.744 120.576 21.312 120.736 21.152C120.928 20.992 121.104 20.88 121.264 20.816ZM121.504 26.24C121.536 25.792 121.488 25.568 121.36 25.568C121.264 25.568 120.608 25.792 119.392 26.24C118.176 26.656 117.376 26.912 116.992 27.008C116.608 27.072 116.416 27.216 116.416 27.44C116.416 27.792 116.48 28.72 116.608 30.224C116.736 31.728 116.816 32.496 116.848 32.528C116.88 32.56 117.328 32.464 118.192 32.24C119.056 31.984 119.552 31.824 119.68 31.76C119.84 31.664 120.144 30.896 120.592 29.456C121.072 27.984 121.376 26.912 121.504 26.24ZM115.12 5.648C115.568 5.36 115.84 5.2 115.936 5.168C116.032 5.136 116.128 5.168 116.224 5.264C116.32 5.328 116.576 5.408 116.992 5.504C117.44 5.6 117.808 5.648 118.096 5.648C118.448 5.616 118.736 5.728 118.96 5.984C119.216 6.208 119.328 6.496 119.296 6.848C119.296 7.168 119.376 7.424 119.536 7.616C119.696 7.776 119.76 8.016 119.728 8.336C119.696 8.656 119.744 8.832 119.872 8.864C120.128 8.896 120.16 9.12 119.968 9.536C119.904 9.696 119.872 9.696 119.872 9.536C119.84 9.056 119.6 9.264 119.152 10.16C119.12 10.256 119.088 10.336 119.056 10.4C118.736 11.104 118.512 11.488 118.384 11.552C118.288 11.616 118.16 11.872 118 12.32L117.76 12.752C117.728 12.656 117.648 12.624 117.52 12.656C117.392 12.656 117.296 12.736 117.232 12.896C117.168 13.184 116.704 13.776 115.84 14.672L115.552 14.96L116.512 15.056C117.152 15.056 117.504 15.072 117.568 15.104C117.664 15.104 117.792 15.12 117.952 15.152C118.112 15.152 118.192 15.232 118.192 15.392C118.224 15.552 118.16 15.68 118 15.776C117.904 15.84 117.904 15.888 118 15.92C118.128 15.952 118.16 16.08 118.096 16.304C118.032 16.528 118.128 16.72 118.384 16.88C118.64 17.04 118.736 17.296 118.672 17.648C118.64 18 118.672 18.192 118.768 18.224L118.288 18.464C117.808 18.656 117.152 18.96 116.32 19.376C115.488 19.792 114.992 20 114.832 20C114.672 20 114.592 20.032 114.592 20.096C114.592 20.192 114.416 20.304 114.064 20.432C113.744 20.56 113.488 20.64 113.296 20.672C113.264 20.672 113.184 20.704 113.056 20.768C112.064 21.216 111.36 21.44 110.944 21.44C110.784 21.44 110.592 21.52 110.368 21.68C110.144 21.84 110.064 22.16 110.128 22.64C110.16 23.504 109.968 23.936 109.552 23.936C109.424 23.936 109.152 23.696 108.736 23.216L107.536 21.872C107.12 21.424 106.816 21.04 106.624 20.72C106.432 20.368 106.304 20.176 106.24 20.144C106.176 20.08 106.128 19.344 106.096 17.936C106.096 16.496 106.064 15.664 106 15.44C105.936 15.216 105.872 14.768 105.808 14.096C105.776 13.424 105.712 13.056 105.616 12.992C105.552 12.896 105.472 12.544 105.376 11.936C105.216 11.136 105.072 10.624 104.944 10.4C104.848 10.176 104.576 9.936 104.128 9.68C103.36 9.2 102.96 8.8 102.928 8.48C102.928 8.352 102.992 8.288 103.12 8.288C103.248 8.288 103.248 8.224 103.12 8.096C103.024 7.968 103.024 7.904 103.12 7.904C103.152 7.904 103.248 7.92 103.408 7.952L104.992 8.24C106.144 8.464 106.88 8.656 107.2 8.816C107.424 8.912 107.648 8.928 107.872 8.864C108.128 8.8 108.816 8.528 109.936 8.048C112.752 6.896 114.48 6.096 115.12 5.648ZM114.304 11.456C114.304 11.232 114.16 11.216 113.872 11.408C113.712 11.472 113.12 11.68 112.096 12.032C111.104 12.352 110.528 12.512 110.368 12.512C110.144 12.512 110.016 12.592 109.984 12.752C109.984 12.88 110.032 13.216 110.128 13.76C110.224 14.464 110.304 15.168 110.368 15.872C110.432 16.544 110.496 16.928 110.56 17.024C110.624 17.088 110.896 17.008 111.376 16.784C111.888 16.528 112.24 16.288 112.432 16.064C112.784 15.648 113.152 14.912 113.536 13.856C114.048 12.576 114.304 11.776 114.304 11.456ZM164.32 12.752C164.896 12.528 165.248 12.416 165.376 12.416L164.56 12.8C164.208 12.896 163.968 12.976 163.84 13.04L163.792 12.944C163.856 12.912 164.032 12.848 164.32 12.752ZM166.336 0.943999C166.368 0.687999 166.448 0.479999 166.576 0.319999C166.704 0.159999 166.848 0.175999 167.008 0.367998C167.424 0.847998 168 1.264 168.736 1.616C169.152 1.744 169.36 1.872 169.36 2C169.36 2.128 169.504 2.304 169.792 2.528C170.112 2.72 170.272 2.912 170.272 3.104C170.272 3.296 170.32 3.456 170.416 3.584C170.544 3.68 170.592 4.08 170.56 4.784C170.56 5.456 170.496 5.888 170.368 6.08C170.24 6.24 170.032 6.48 169.744 6.8C169.488 7.12 169.376 7.312 169.408 7.376C169.536 7.6 169.904 7.568 170.512 7.28C170.768 7.12 170.976 7.04 171.136 7.04C171.296 7.04 171.408 6.976 171.472 6.848C171.536 6.72 171.648 6.656 171.808 6.656C172 6.656 172.16 6.72 172.288 6.848C172.416 6.976 172.672 7.072 173.056 7.136C173.44 7.2 173.664 7.328 173.728 7.52C173.792 7.68 173.952 7.792 174.208 7.856C174.496 7.92 174.672 8.032 174.736 8.192C174.8 8.352 174.928 8.512 175.12 8.672C175.344 8.832 175.44 9.072 175.408 9.392C175.376 9.68 175.424 9.856 175.552 9.92C175.68 9.952 175.744 10.08 175.744 10.304C175.744 10.496 175.68 10.624 175.552 10.688C175.424 10.72 175.296 10.992 175.168 11.504C175.072 11.984 175.056 12.272 175.12 12.368C175.248 12.432 175.248 12.736 175.12 13.28C175.024 13.92 174.944 14.784 174.88 15.872C174.848 16.288 174.768 16.608 174.64 16.832C174.544 17.024 174.464 17.28 174.4 17.6C174.336 17.888 174.288 18.128 174.256 18.32L174.304 18.368C174.432 18.24 174.512 18.208 174.544 18.272C174.608 18.304 174.544 18.416 174.352 18.608C174.224 18.768 174.064 19.552 173.872 20.96C173.808 21.344 173.712 21.68 173.584 21.968C173.488 22.224 173.376 22.56 173.248 22.976L173.152 23.504L173.632 23.552C173.984 23.648 174.416 23.712 174.928 23.744C175.376 23.808 175.84 23.904 176.32 24.032C176.8 24.16 177.04 24.272 177.04 24.368C177.04 24.464 177.168 24.56 177.424 24.656C177.68 24.752 177.84 24.912 177.904 25.136C177.968 25.328 178.096 25.488 178.288 25.616L178.624 25.76L178.288 25.712C178.064 25.68 177.936 25.696 177.904 25.76L178.192 25.952H178.288C178.544 26.016 178.784 26.112 179.008 26.24C179.232 26.368 179.344 26.48 179.344 26.576C179.344 26.672 179.248 26.704 179.056 26.672C178.896 26.608 178.8 26.624 178.768 26.72C178.736 26.848 178.864 26.976 179.152 27.104C179.408 27.168 179.552 27.408 179.584 27.824C179.616 28.208 179.68 28.48 179.776 28.64C179.936 28.8 179.84 28.848 179.488 28.784C179.232 28.784 178.784 28.704 178.144 28.544C177.312 28.384 176.672 28.288 176.224 28.256C175.392 28.256 173.776 28.48 171.376 28.928C171.12 28.96 170.96 29.04 170.896 29.168C170.832 29.264 170.816 29.488 170.848 29.84C170.848 30.032 170.8 30.16 170.704 30.224C170.608 30.32 170.512 31.536 170.416 33.872C170.352 36.176 170.384 37.408 170.512 37.568C170.544 37.696 170.512 37.792 170.416 37.856C170.32 37.888 170.272 38.16 170.272 38.672C170.272 42.48 170.128 44.48 169.84 44.672C169.776 44.736 169.744 45.136 169.744 45.872V47.024L169.408 46.352C169.216 45.904 169.04 45.664 168.88 45.632C168.752 45.6 168.528 45.376 168.208 44.96C167.92 44.576 167.776 44.304 167.776 44.144C167.776 44.112 167.696 43.984 167.536 43.76C167.376 43.536 167.28 43.296 167.248 43.04C167.248 42.816 167.232 40.56 167.2 36.272C167.168 35.12 167.136 34.064 167.104 33.104C167.104 32.112 167.088 31.328 167.056 30.752C167.024 30.176 166.992 29.888 166.96 29.888C166.64 29.952 165.216 30.272 162.688 30.848C160.256 31.424 158.864 31.568 158.512 31.28C158.416 31.184 158.304 31.104 158.176 31.04C158.048 30.944 157.84 30.816 157.552 30.656C157.296 30.496 157.12 30.432 157.024 30.464C156.96 30.496 156.928 30.816 156.928 31.424C156.928 32.032 156.88 32.336 156.784 32.336C156.72 32.336 156.688 33.056 156.688 34.496C156.72 35.904 156.672 36.736 156.544 36.992C156.416 37.216 156.4 37.328 156.496 37.328C156.528 37.36 156.544 37.456 156.544 37.616C156.576 37.776 156.544 37.968 156.448 38.192C156.384 38.416 156.336 38.56 156.304 38.624C156.208 38.656 156.16 39.12 156.16 40.016C156.192 40.72 156.176 41.088 156.112 41.12C156.112 41.12 156.048 41.088 155.92 41.024C155.792 40.832 155.696 40.656 155.632 40.496C155.568 40.368 155.392 40.32 155.104 40.352C154.848 40.384 154.56 40.208 154.24 39.824C153.92 39.44 153.632 39.12 153.376 38.864C153.12 38.608 153.024 38.352 153.088 38.096C153.152 37.872 153.088 37.696 152.896 37.568C152.704 37.44 152.624 37.216 152.656 36.896C152.72 36.576 152.768 34.864 152.8 31.76C152.864 28.656 152.912 26.816 152.944 26.24C152.976 25.632 152.96 25.328 152.896 25.328C152.864 25.328 152.432 25.52 151.6 25.904C150.8 26.256 150.096 26.544 149.488 26.768C148.912 26.96 148.576 27.104 148.48 27.2C148.416 27.264 148.288 27.296 148.096 27.296C147.936 27.296 147.856 27.36 147.856 27.488C147.856 27.616 147.792 27.664 147.664 27.632C147.664 27.6 147.632 27.6 147.568 27.632C147.536 27.664 147.504 27.728 147.472 27.824C147.472 27.888 147.456 27.984 147.424 28.112C147.392 28.24 147.36 28.4 147.328 28.592C147.136 29.808 147.008 30.48 146.944 30.608C146.848 30.768 146.8 30.864 146.8 30.896L146.56 31.856C146.368 32.4 146.272 32.784 146.272 33.008C146.208 33.424 146.016 33.952 145.696 34.592C145.568 35.008 145.552 35.44 145.648 35.888C145.744 36.048 145.664 36.272 145.408 36.56C145.184 36.816 145.088 37.04 145.12 37.232C145.152 37.392 145.136 37.472 145.072 37.472C145.04 37.472 144.96 37.792 144.832 38.432C144.736 39.072 144.512 39.744 144.16 40.448L143.632 41.504L143.2 41.072C142.56 40.432 142.16 40.112 142 40.112C141.904 40.112 141.856 40.064 141.856 39.968C141.856 39.872 141.728 39.68 141.472 39.392C141.216 39.136 141.104 38.864 141.136 38.576C141.136 38.384 141.12 38.272 141.088 38.24C141.088 38.208 141.024 38.208 140.896 38.24C140.768 38.272 140.752 38.24 140.848 38.144C141.104 37.888 141.088 37.76 140.8 37.76C140.672 37.76 140.576 37.664 140.512 37.472C140.448 37.28 140.368 37.184 140.272 37.184C140.208 37.184 140.192 37.088 140.224 36.896C140.256 36.704 140.224 36.528 140.128 36.368C140.064 36.176 140.128 35.984 140.32 35.792C140.544 35.6 140.576 35.424 140.416 35.264C140.256 35.104 140.224 34.992 140.32 34.928C140.448 34.864 140.48 34.736 140.416 34.544C140.384 34.352 140.448 34.16 140.608 33.968C140.768 33.744 140.864 33.424 140.896 33.008L140.992 32.576C140.992 32.608 141.008 32.688 141.04 32.816C141.072 32.944 141.088 32.928 141.088 32.768C141.12 32.608 141.12 32.304 141.088 31.856C141.056 30.96 141.104 30.512 141.232 30.512C141.392 30.512 141.472 30.4 141.472 30.176C141.472 29.92 141.536 29.632 141.664 29.312C141.792 28.96 141.856 28.688 141.856 28.496C141.856 28.272 141.888 28.064 141.952 27.872C142.176 27.488 142.416 26.688 142.672 25.472C143.12 23.328 143.424 21.776 143.584 20.816C143.616 20.624 143.664 20.352 143.728 20C143.792 19.648 143.76 19.472 143.632 19.472C143.408 19.472 143.392 19.344 143.584 19.088C143.616 19.056 143.648 19.024 143.68 18.992C143.872 18.736 143.984 17.744 144.016 16.016C144.08 14.288 144.064 13.136 143.968 12.56C143.872 11.952 143.632 11.472 143.248 11.12C142.864 10.768 142.592 10.592 142.432 10.592C142.304 10.592 142.256 10.496 142.288 10.304C142.32 10.112 142.192 9.872 141.904 9.584C141.648 9.296 141.568 9.104 141.664 9.008C141.792 8.88 141.808 8.752 141.712 8.624C141.616 8.528 141.568 8.48 141.568 8.48C141.6 8.448 141.664 8.448 141.76 8.48C141.856 8.512 142.112 8.608 142.528 8.768C143.072 8.928 143.824 9.296 144.784 9.872C145.776 10.416 146.528 10.896 147.04 11.312C147.424 11.6 147.76 11.984 148.048 12.464C148.368 12.912 148.528 13.248 148.528 13.472C148.528 13.664 148.624 13.872 148.816 14.096C149.04 14.32 149.104 14.848 149.008 15.68C148.976 16.16 148.96 16.48 148.96 16.64C148.992 16.768 149.056 16.832 149.152 16.832C149.248 16.832 149.664 16.624 150.4 16.208L151.504 15.68L151.552 13.856C151.552 12.64 151.664 11.504 151.888 10.448C152.112 9.36 152.24 7.968 152.272 6.272C152.304 4.672 152.384 3.872 152.512 3.872C152.512 3.872 152.544 3.904 152.608 3.968C152.8 4.064 152.96 4.096 153.088 4.064C153.216 4 153.328 4.08 153.424 4.304C153.552 4.528 153.76 4.816 154.048 5.168C154.464 5.648 154.848 6.544 155.2 7.856C155.552 9.168 155.728 10.4 155.728 11.552C155.728 12.544 155.68 13.184 155.584 13.472C155.52 13.76 155.6 13.92 155.824 13.952C156.048 13.984 156.24 14.08 156.4 14.24C156.592 14.368 156.64 14.512 156.544 14.672C156.416 14.8 156.4 14.864 156.496 14.864C156.56 14.864 156.672 14.832 156.832 14.768C157.152 14.736 157.328 14.816 157.36 15.008C157.392 15.2 157.52 15.296 157.744 15.296C157.904 15.296 158 15.36 158.032 15.488C158.064 15.616 157.984 15.712 157.792 15.776C157.696 15.808 157.632 15.872 157.6 15.968C157.6 16.064 157.632 16.144 157.696 16.208C157.76 16.24 157.872 16.256 158.032 16.256C158.768 16.256 158.544 16.528 157.36 17.072C156.208 17.584 155.456 17.952 155.104 18.176C154.784 18.368 154.576 18.624 154.48 18.944C154.448 19.2 154.4 19.328 154.336 19.328C154.336 19.328 154.304 19.264 154.24 19.136C154.048 18.88 153.632 18.944 152.992 19.328C152.608 19.552 151.792 19.984 150.544 20.624C149.136 21.328 148.432 21.744 148.432 21.872C148.432 21.904 148.464 21.936 148.528 21.968C148.656 22.032 148.672 22.112 148.576 22.208C148.48 22.272 148.432 22.352 148.432 22.448C148.464 22.544 148.544 22.576 148.672 22.544C148.832 22.512 149.024 22.464 149.248 22.4C149.504 22.304 149.712 22.192 149.872 22.064C150.128 21.84 150.336 21.728 150.496 21.728C150.688 21.728 150.784 21.696 150.784 21.632C150.784 21.568 151.008 21.44 151.456 21.248C151.936 21.056 152.288 20.848 152.512 20.624C152.704 20.496 152.832 20.432 152.896 20.432C152.96 20.4 153.072 20.432 153.232 20.528C153.456 20.688 153.728 20.784 154.048 20.816C154.112 20.848 154.176 20.88 154.24 20.912C154.336 20.912 154.4 20.928 154.432 20.96C154.464 20.96 154.48 20.976 154.48 21.008C154.448 21.104 154.496 21.184 154.624 21.248C154.784 21.28 154.992 21.296 155.248 21.296C155.504 21.296 155.664 21.344 155.728 21.44C155.792 21.504 156 21.568 156.352 21.632C156.704 21.696 156.976 21.824 157.168 22.016C157.552 22.496 157.696 22.864 157.6 23.12C157.472 23.12 157.44 23.264 157.504 23.552C157.6 23.808 157.568 24.16 157.408 24.608C157.248 25.056 157.136 25.712 157.072 26.576C157.04 27.408 157.072 27.824 157.168 27.824C157.2 27.824 157.248 27.808 157.312 27.776C157.472 27.68 157.648 27.648 157.84 27.68C158.032 27.68 158.16 27.616 158.224 27.488C158.288 27.36 158.384 27.296 158.512 27.296C158.64 27.296 158.832 27.232 159.088 27.104C159.376 26.944 159.584 26.864 159.712 26.864C159.84 26.864 160.016 26.8 160.24 26.672C160.464 26.512 160.64 26.512 160.768 26.672C160.864 26.768 160.944 26.8 161.008 26.768C161.104 26.704 161.36 26.48 161.776 26.096C162.288 25.552 162.608 25.152 162.736 24.896C162.864 24.64 162.848 24.352 162.688 24.032C162.528 23.68 162.384 23.536 162.256 23.6C162.128 23.664 161.984 23.6 161.824 23.408C161.664 23.216 161.472 23.072 161.248 22.976C161.056 22.88 160.976 22.752 161.008 22.592C161.072 22.4 160.976 22.256 160.72 22.16C160.56 22.064 160.464 21.968 160.432 21.872C160.4 21.744 160.48 21.664 160.672 21.632C160.832 21.6 160.912 21.44 160.912 21.152C160.944 20.832 160.944 19.872 160.912 18.272C160.88 16.448 160.8 15.184 160.672 14.48C160.576 13.776 160.352 13.088 160 12.416C159.52 11.456 159.168 10.976 158.944 10.976C158.848 10.976 158.736 10.896 158.608 10.736C158.48 10.576 158.4 10.4 158.368 10.208C158.368 10.144 158.32 9.936 158.224 9.584C158.16 9.232 158.224 8.96 158.416 8.768C158.64 8.576 158.752 8.432 158.752 8.336C158.752 8.048 159.136 8.096 159.904 8.48C160.128 8.608 160.32 8.736 160.48 8.864C160.576 8.992 160.752 8.944 161.008 8.72C161.296 8.464 162.048 7.696 163.264 6.416C163.936 5.68 164.512 4.992 164.992 4.352C165.504 3.712 165.84 3.2 166 2.816C166.192 2.4 166.24 2.16 166.144 2.096C166.048 2.032 166.048 1.888 166.144 1.664C166.24 1.44 166.304 1.2 166.336 0.943999ZM172.144 10.976C172.144 10.688 172.064 10.544 171.904 10.544C171.744 10.512 171.28 10.608 170.512 10.832C169.648 11.024 169.2 11.168 169.168 11.264C169.168 11.296 169.216 11.328 169.312 11.36C169.408 11.392 169.456 11.472 169.456 11.6C169.456 11.696 169.536 11.824 169.696 11.984C169.856 12.144 169.872 12.288 169.744 12.416C169.648 12.512 169.6 12.656 169.6 12.848C169.6 13.008 169.824 13.072 170.272 13.04L170.848 12.896C170.72 12.832 170.752 12.8 170.944 12.8C171.168 12.8 171.28 12.848 171.28 12.944C171.28 13.04 171.344 13.088 171.472 13.088C171.632 13.088 171.68 13.136 171.616 13.232C171.616 13.264 171.632 13.296 171.664 13.328C171.696 13.328 171.744 13.328 171.808 13.328C171.968 13.328 172.064 13.232 172.096 13.04C172.128 12.816 172.144 12.128 172.144 10.976ZM166.768 12.656C166.8 12.432 166.8 12.288 166.768 12.224C166.768 12.16 166.672 12.112 166.48 12.08L166.192 12.128C166.224 12.192 166.208 12.224 166.144 12.224C166.08 12.224 165.952 12.256 165.76 12.32C165.568 12.384 165.536 12.368 165.664 12.272C165.824 12.144 165.856 12.08 165.76 12.08C165.6 12.08 165.184 12.192 164.512 12.416C163.872 12.608 163.52 12.736 163.456 12.8C163.328 12.864 163.312 13.12 163.408 13.568C163.536 13.984 163.6 14.336 163.6 14.624C163.6 14.88 163.632 15.024 163.696 15.056C163.856 15.12 164.624 14.88 166 14.336C166.288 14.208 166.464 14.096 166.528 14C166.624 13.904 166.672 13.76 166.672 13.568C166.672 13.28 166.704 12.976 166.768 12.656ZM172.048 13.808C171.984 13.68 171.904 13.616 171.808 13.616C171.744 13.616 171.68 13.68 171.616 13.808C171.616 13.84 171.632 13.872 171.664 13.904C171.696 13.904 171.744 13.904 171.808 13.904C171.904 13.904 171.968 13.904 172 13.904C172.064 13.872 172.08 13.84 172.048 13.808ZM171.952 14.576C171.984 14.544 171.984 14.464 171.952 14.336C171.92 14.208 171.856 14.208 171.76 14.336C171.696 14.496 171.76 14.576 171.952 14.576ZM171.76 16.496C171.792 16.048 171.792 15.792 171.76 15.728C171.76 15.664 171.696 15.632 171.568 15.632C171.376 15.632 170.96 15.728 170.32 15.92C169.68 16.112 169.312 16.256 169.216 16.352C169.184 16.384 169.072 16.784 168.88 17.552C168.72 18.32 168.64 18.8 168.64 18.992C168.64 19.12 168.768 19.184 169.024 19.184C169.312 19.184 169.504 19.152 169.6 19.088C169.728 18.992 169.76 18.784 169.696 18.464L169.552 18.032L169.984 18.464C170.208 18.784 170.432 18.944 170.656 18.944C170.912 18.944 171.056 18.816 171.088 18.56C171.152 18.336 171.232 18.224 171.328 18.224C171.52 18.224 171.664 17.648 171.76 16.496ZM165.856 17.744C165.856 17.68 165.792 17.664 165.664 17.696C165.536 17.696 165.168 17.792 164.56 17.984C163.984 18.144 163.68 18.256 163.648 18.32C163.616 18.352 163.584 18.688 163.552 19.328C163.552 19.968 163.568 20.32 163.6 20.384C163.632 20.448 163.888 20.416 164.368 20.288C164.848 20.128 165.104 20 165.136 19.904C165.232 19.872 165.376 19.536 165.568 18.896C165.76 18.224 165.856 17.84 165.856 17.744ZM171.76 22.256C171.632 22.032 171.44 21.92 171.184 21.92C170.928 21.888 170.432 21.952 169.696 22.112C168.96 22.24 168.608 22.352 168.64 22.448C168.64 22.448 168.672 22.464 168.736 22.496C168.896 22.56 169.04 22.688 169.168 22.88C169.328 23.04 169.456 23.184 169.552 23.312C169.68 23.44 169.744 23.552 169.744 23.648C169.744 23.744 169.808 23.792 169.936 23.792C170.096 23.792 170.176 23.856 170.176 23.984C170.176 24.08 170.272 24.112 170.464 24.08L171.088 23.888C171.248 23.856 171.328 23.856 171.328 23.888C171.36 23.92 171.36 24 171.328 24.128C171.296 24.256 171.36 24.32 171.52 24.32C171.616 24.32 171.984 24.288 172.624 24.224C173.168 24.032 173.44 23.904 173.44 23.84C173.28 23.744 173.12 23.744 172.96 23.84C172.8 23.904 172.688 23.808 172.624 23.552C172.56 23.264 172.448 23.04 172.288 22.88C172.128 22.688 171.952 22.48 171.76 22.256ZM166.864 24.656C167.024 24.656 167.104 24.624 167.104 24.56C167.104 24.496 167.056 24.368 166.96 24.176C166.896 23.984 166.832 23.984 166.768 24.176C166.64 24.496 166.672 24.656 166.864 24.656Z" fill="white"/>
</svg>
