<svg width="123" height="34" viewBox="0 0 123 34" fill="none" xmlns="http://www.w3.org/2000/svg">
<path d="M10.176 3.928C10.176 3.84267 10.1867 3.8 10.208 3.8C10.2293 3.77867 10.3147 3.77867 10.464 3.8C10.8907 3.864 11.104 3.97066 11.104 4.12C11.104 4.16267 11.1893 4.184 11.36 4.184C11.5307 4.184 11.68 4.25867 11.808 4.408C11.9573 4.55733 12.1707 4.73867 12.448 4.952C12.7253 5.144 12.864 5.29333 12.864 5.4C12.864 5.48533 12.9173 5.57067 13.024 5.656C13.152 5.74133 13.216 5.82667 13.216 5.912C13.216 5.99733 13.2587 6.04 13.344 6.04C13.4293 6.04 13.504 6.104 13.568 6.232C13.6747 6.552 13.7493 7.064 13.792 7.768C13.856 8.472 13.8453 8.87733 13.76 8.984C13.696 9.06933 13.696 9.15467 13.76 9.24C13.8453 9.32533 13.8133 9.464 13.664 9.656C13.4293 9.93333 13.376 10.072 13.504 10.072C13.632 10.072 13.9093 10.04 14.336 9.976C14.72 9.86933 14.912 9.77333 14.912 9.688C14.912 9.60267 14.944 9.56 15.008 9.56C15.072 9.56 15.0827 9.53867 15.04 9.496C14.9973 9.41067 15.0613 9.38933 15.232 9.432C15.2747 9.432 15.3067 9.432 15.328 9.432C15.5627 9.45333 15.7227 9.368 15.808 9.176C15.872 9.048 15.936 8.984 16 8.984C16.064 8.96267 16.2133 8.96267 16.448 8.984C16.6827 9.00533 16.8213 9.016 16.864 9.016C16.9067 8.99467 16.928 8.94133 16.928 8.856C16.9067 8.792 16.9173 8.74933 16.96 8.728C17.0027 8.70667 17.0987 8.70667 17.248 8.728C17.9947 8.74933 18.432 8.81333 18.56 8.92C18.624 8.984 18.6987 9.016 18.784 9.016C18.8267 9.016 19.1787 9.34667 19.84 10.008C20.5013 10.648 20.928 11.0853 21.12 11.32C21.312 11.5547 21.408 11.768 21.408 11.96C21.408 12.152 21.44 12.2693 21.504 12.312C21.568 12.376 21.5893 12.4293 21.568 12.472C21.568 12.5147 21.536 12.536 21.472 12.536C21.3653 12.536 21.2267 12.5787 21.056 12.664C20.8853 12.7493 20.7573 12.7707 20.672 12.728C20.608 12.664 20.4907 12.6533 20.32 12.696L19.36 12.888C18.336 13.08 17.5147 13.336 16.896 13.656C16.7253 13.72 16.5653 13.7413 16.416 13.72C16.2667 13.6773 16.192 13.6987 16.192 13.784C16.192 13.8693 16.064 13.976 15.808 14.104L14.944 14.456C14.624 14.584 14.24 14.744 13.792 14.936C13.3653 15.1067 13.152 15.2133 13.152 15.256C13.152 15.2987 13.2267 15.3413 13.376 15.384C13.568 15.4267 13.792 15.5547 14.048 15.768C14.304 15.9813 14.4747 16.1627 14.56 16.312C14.624 16.504 14.656 17.048 14.656 17.944C14.656 18.9893 14.5707 19.832 14.4 20.472L14.176 21.208C14.1547 21.3573 14.1227 21.4853 14.08 21.592C13.8453 22.104 13.76 22.4027 13.824 22.488C13.8667 22.5093 14.0907 22.6053 14.496 22.776C16.4587 23.5653 18.0267 24.248 19.2 24.824C20.1813 25.3147 20.704 25.56 20.768 25.56C20.832 25.56 20.9813 25.6667 21.216 25.88L21.952 26.456C22.208 26.6693 22.336 26.808 22.336 26.872C22.336 26.936 22.4107 27.0533 22.56 27.224C22.7307 27.3947 22.8373 27.4693 22.88 27.448C22.9227 27.4267 22.9653 27.448 23.008 27.512C23.0507 27.576 23.0827 27.6507 23.104 27.736C23.1253 27.8213 23.1147 27.8747 23.072 27.896C23.0293 27.96 23.0613 28.152 23.168 28.472C23.2747 28.792 23.3813 29.24 23.488 29.816C23.5733 30.2213 23.616 30.4667 23.616 30.552C23.616 30.6587 23.5627 30.776 23.456 30.904C23.3707 31.0107 23.3067 31.064 23.264 31.064C23.2427 31.0853 23.2107 31.064 23.168 31C23.0613 30.872 22.8907 30.808 22.656 30.808C22.4213 30.808 22.2827 30.7653 22.24 30.68C22.2187 30.616 22.144 30.584 22.016 30.584C21.888 30.584 21.792 30.5093 21.728 30.36C21.6853 30.232 21.568 30.1147 21.376 30.008C21.184 29.9227 21.0347 29.8267 20.928 29.72C20.7787 29.592 20.6187 29.5387 20.448 29.56C20.4053 29.56 20.3733 29.5387 20.352 29.496C20.3307 29.4747 20.32 29.4427 20.32 29.4C20.2773 29.2507 20.1387 29.0907 19.904 28.92C19.6693 28.7707 19.4773 28.6853 19.328 28.664C19.2 28.664 18.9013 28.5147 18.432 28.216C17.984 27.9173 17.728 27.7253 17.664 27.64C17.6213 27.5547 17.504 27.4587 17.312 27.352C17.12 27.2667 16.992 27.2453 16.928 27.288C16.8853 27.3307 16.5547 27.2027 15.936 26.904C15.3387 26.584 14.816 26.3493 14.368 26.2C13.92 26.0293 13.6427 25.912 13.536 25.848C13.4293 25.784 13.1733 25.688 12.768 25.56L12.192 25.4L11.904 25.56C11.6693 25.7093 11.5733 25.8267 11.616 25.912C11.6373 25.9547 11.5947 26.0293 11.488 26.136C11.4027 26.2427 11.3173 26.296 11.232 26.296C11.168 26.296 11.104 26.3707 11.04 26.52C10.976 26.648 10.88 26.7227 10.752 26.744C10.624 26.7653 10.464 26.8507 10.272 27C10.1013 27.1493 9.99467 27.224 9.952 27.224C9.93067 27.224 9.824 27.2987 9.632 27.448C9.44 27.6187 9.19467 27.7787 8.896 27.928C8.61867 28.0987 8.48 28.216 8.48 28.28C8.48 28.344 8.42667 28.3547 8.32 28.312C8.21333 28.2693 8.13867 28.3013 8.096 28.408C8.05333 28.536 7.936 28.6 7.744 28.6C7.552 28.6213 7.41333 28.664 7.328 28.728C7.264 28.792 7.25333 28.824 7.296 28.824L6.56 29.432C6.432 29.5173 6.31467 29.6027 6.208 29.688C5.952 29.8373 5.73867 29.912 5.568 29.912C5.41867 29.912 5.30133 29.9653 5.216 30.072C5.06667 30.1573 4.97067 30.1893 4.928 30.168C4.88533 30.168 4.864 30.104 4.864 29.976C4.864 29.72 4.77867 29.6773 4.608 29.848C4.52267 29.9333 4.43733 29.9227 4.352 29.816C4.288 29.7093 4.21333 29.656 4.128 29.656C4.04267 29.656 3.92533 29.592 3.776 29.464C3.648 29.3573 3.54133 29.304 3.456 29.304C3.392 29.304 3.36 29.2187 3.36 29.048C3.36 28.8987 3.30667 28.824 3.2 28.824C3.11467 28.8453 3.008 28.8453 2.88 28.824C2.752 28.824 2.74133 28.7707 2.848 28.664C2.848 28.6427 2.86933 28.6213 2.912 28.6C3.06133 28.4293 3.37067 28.184 3.84 27.864C4.30933 27.544 4.61867 27.3093 4.768 27.16C4.93867 27.0107 5.10933 26.8827 5.28 26.776C5.472 26.6907 5.84533 26.392 6.4 25.88C6.656 25.6667 6.80533 25.56 6.848 25.56C6.912 25.56 7.02933 25.4747 7.2 25.304C7.73333 24.7707 8.10667 24.4613 8.32 24.376C8.46933 24.312 8.39467 24.2373 8.096 24.152C8.032 24.1093 7.95733 24.088 7.872 24.088C7.53067 24.0027 7.04 23.864 6.4 23.672C5.78133 23.4587 5.344 23.3307 5.088 23.288C4.93867 23.2667 4.768 23.224 4.576 23.16C4.40533 23.0747 4.256 23 4.128 22.936C4 22.8507 3.95733 22.7973 4 22.776C4.02133 22.712 3.98933 22.68 3.904 22.68C3.84 22.68 3.81867 22.6373 3.84 22.552C3.88267 22.4667 3.808 22.392 3.616 22.328C3.44533 22.264 3.37067 22.1573 3.392 22.008C3.41333 21.8587 3.60533 21.7413 3.968 21.656C4.33067 21.5707 5.03467 21.5067 6.08 21.464C6.93333 21.4 7.712 21.3893 8.416 21.432C9.14133 21.4533 9.504 21.496 9.504 21.56C9.504 21.6027 9.44 21.6133 9.312 21.592C9.20533 21.5707 9.152 21.5813 9.152 21.624C9.152 21.7093 9.216 21.7627 9.344 21.784C9.472 21.8267 9.61067 21.8587 9.76 21.88C9.90933 21.88 10.0267 21.88 10.112 21.88C10.1973 21.8587 10.24 21.8267 10.24 21.784C10.24 21.72 10.304 21.6773 10.432 21.656C10.56 21.6133 10.6347 21.5387 10.656 21.432C10.6987 21.304 10.912 20.856 11.296 20.088C11.7653 19.1067 12.0747 18.3387 12.224 17.784C12.3307 17.3573 12.384 16.9413 12.384 16.536C12.384 16.1307 12.3307 15.8853 12.224 15.8C12.1387 15.7147 11.5307 15.96 10.4 16.536C9.29067 17.112 8.704 17.4 8.64 17.4C8.59733 17.3787 8.42667 17.464 8.128 17.656C7.85067 17.8267 7.63733 17.944 7.488 18.008C7.33867 18.0507 7.2 18.1253 7.072 18.232C6.944 18.3387 6.816 18.392 6.688 18.392C6.56 18.392 6.38933 18.4773 6.176 18.648C5.96267 18.7973 5.792 18.872 5.664 18.872C5.536 18.872 5.39733 18.9253 5.248 19.032C5.12 19.1173 5.024 19.1493 4.96 19.128C4.896 19.0853 4.81067 19.1067 4.704 19.192C4.61867 19.256 4.58667 19.32 4.608 19.384C4.62933 19.448 4.56533 19.5653 4.416 19.736L4.192 19.96V19.672C4.192 19.5013 4.14933 19.4373 4.064 19.48C3.97867 19.5227 3.808 19.48 3.552 19.352C3.296 19.2027 3.12533 19.1493 3.04 19.192C2.976 19.2133 2.90133 19.128 2.816 18.936C2.752 18.808 2.66667 18.712 2.56 18.648C2.47467 18.584 2.41067 18.5947 2.368 18.68C2.34667 18.7227 2.29333 18.712 2.208 18.648C2.12267 18.584 2.03733 18.4987 1.952 18.392C1.86667 18.264 1.792 18.1573 1.728 18.072C1.70667 17.9227 1.62133 17.848 1.472 17.848C1.42933 17.848 1.39733 17.8373 1.376 17.816C1.35467 17.7947 1.344 17.7627 1.344 17.72C1.36533 17.6773 1.344 17.6347 1.28 17.592C1.23733 17.5493 1.17333 17.496 1.088 17.432C0.938667 17.368 0.853334 17.3147 0.832 17.272C0.810667 17.208 0.810667 17.1227 0.832 17.016C0.832 16.824 0.8 16.728 0.736 16.728C0.672 16.792 0.597334 16.792 0.512 16.728C0.448 16.664 0.416 16.5787 0.416 16.472C0.416 16.408 0.490667 16.312 0.64 16.184C0.789334 16.0347 1.00267 15.9707 1.28 15.992C1.55733 15.992 1.728 15.9493 1.792 15.864C1.87733 15.7573 2.048 15.6933 2.304 15.672C2.64533 15.6293 3.25333 15.3947 4.128 14.968C4.59733 14.776 4.992 14.6267 5.312 14.52C5.632 14.392 5.86667 14.264 6.016 14.136C6.18667 14.008 6.32533 13.944 6.432 13.944C6.56 13.944 6.624 13.9227 6.624 13.88C6.624 13.816 6.72 13.7307 6.912 13.624C7.104 13.5173 7.2 13.496 7.2 13.56C7.2 13.6027 7.264 13.5493 7.392 13.4C7.54133 13.2507 7.648 13.1973 7.712 13.24C7.776 13.2613 7.81867 13.24 7.84 13.176C7.904 13.0907 8.288 12.8773 8.992 12.536C9.312 12.3867 9.504 12.28 9.568 12.216C9.65333 12.152 9.73867 12.12 9.824 12.12C9.90933 12.12 10.0373 12.0453 10.208 11.896C10.4 11.7467 10.624 11.6293 10.88 11.544C11.136 11.4587 11.264 11.3947 11.264 11.352C11.264 11.288 11.3173 11.256 11.424 11.256C11.616 11.256 11.5413 11.064 11.2 10.68C10.7307 10.1893 10.5173 9.93333 10.56 9.912C10.6027 9.848 10.5813 9.688 10.496 9.432C10.4107 9.15467 10.3893 8.71733 10.432 8.12C10.496 7.52267 10.56 7.17067 10.624 7.064C10.688 6.936 10.7093 6.76533 10.688 6.552C10.5387 5.25067 10.4107 4.51467 10.304 4.344C10.2187 4.216 10.176 4.07733 10.176 3.928ZM46.784 12.92C46.8907 12.8987 46.944 12.8987 46.944 12.92C46.88 12.984 46.8053 13.016 46.72 13.016C46.656 13.016 46.6773 12.984 46.784 12.92ZM49.408 11.576C49.408 11.3627 49.6533 11.4053 50.144 11.704C50.4 11.8747 50.6773 12.0347 50.976 12.184C51.2747 12.3333 51.5093 12.5147 51.68 12.728C51.872 12.92 51.968 13.1013 51.968 13.272C51.968 13.4427 51.9253 13.6453 51.84 13.88C51.6693 14.2213 51.2747 14.7227 50.656 15.384C50.0587 16.0453 49.6747 16.376 49.504 16.376C49.44 16.376 49.3333 16.472 49.184 16.664C49.056 16.8347 48.9387 16.92 48.832 16.92C48.7253 16.92 48.5013 17.048 48.16 17.304C47.84 17.5387 47.648 17.656 47.584 17.656C47.5413 17.656 47.3813 17.752 47.104 17.944C46.8267 18.1147 46.5707 18.264 46.336 18.392C45.9947 18.584 45.792 18.744 45.728 18.872C45.664 18.9787 45.632 19.2453 45.632 19.672C45.632 20.76 45.6427 21.4107 45.664 21.624C45.7067 21.816 45.7493 21.912 45.792 21.912C45.984 21.912 46.4747 21.6453 47.264 21.112L47.904 20.632C48.1173 20.4827 48.5867 20.0453 49.312 19.32C50.0373 18.5733 50.5493 18.0293 50.848 17.688C51.2107 17.2187 51.456 16.8987 51.584 16.728C51.712 16.5573 51.776 16.408 51.776 16.28C51.776 16.216 51.8507 16.056 52 15.8C52.1493 15.544 52.256 15.416 52.32 15.416C52.3413 15.416 52.448 15.512 52.64 15.704C52.832 15.896 53.0773 16.0667 53.376 16.216C53.7173 16.3653 54.0373 16.6213 54.336 16.984C54.6773 17.3893 54.6987 17.8053 54.4 18.232C54.2507 18.4453 54.1547 18.5627 54.112 18.584C54.0693 18.6053 54.048 18.6693 54.048 18.776C54.048 18.8827 53.984 18.9893 53.856 19.096C53.728 19.1813 53.664 19.256 53.664 19.32C53.6853 19.4693 53.5893 19.5973 53.376 19.704C53.2053 19.832 53.12 19.9493 53.12 20.056C53.0987 20.0987 53.0773 20.12 53.056 20.12C53.0133 20.0987 52.8747 20.1947 52.64 20.408C52.0213 20.984 51.584 21.3467 51.328 21.496C51.136 21.56 51.04 21.6347 51.04 21.72C51.04 21.7627 50.944 21.8587 50.752 22.008C50.56 22.1573 50.4107 22.232 50.304 22.232C50.2613 22.232 50.1973 22.296 50.112 22.424C50.048 22.5307 50.016 22.648 50.016 22.776C50.016 22.9467 50.4 23.1387 51.168 23.352C51.488 23.48 51.7227 23.5653 51.872 23.608C52.576 23.9067 52.9707 24.056 53.056 24.056C53.12 24.056 53.2693 24.12 53.504 24.248C53.76 24.376 53.9093 24.44 53.952 24.44C54.016 24.44 54.304 24.568 54.816 24.824C55.3493 25.08 55.616 25.2507 55.616 25.336C55.616 25.4213 55.616 25.464 55.616 25.464C55.6373 25.464 55.6907 25.4213 55.776 25.336C55.8827 25.2507 55.9893 25.2613 56.096 25.368C56.2027 25.4533 56.2987 25.6027 56.384 25.816C56.4907 26.0293 56.5867 26.1573 56.672 26.2C56.7787 26.2213 56.9067 26.3707 57.056 26.648C57.2267 26.9253 57.4293 27.2133 57.664 27.512C57.8133 27.6827 57.9733 27.9173 58.144 28.216C58.3147 28.5147 58.4 28.696 58.4 28.76C58.4 28.7813 58.3467 28.792 58.24 28.792C58.112 28.792 58.048 28.8027 58.048 28.824C58.048 28.8667 58.0693 28.9733 58.112 29.144C58.176 29.272 58.176 29.3573 58.112 29.4C58.0693 29.464 57.9947 29.464 57.888 29.4C57.824 29.3147 57.3547 29.048 56.48 28.6C54.4533 27.5547 52.1707 26.5947 49.632 25.72C49.248 25.592 49.0133 25.496 48.928 25.432C48.864 25.368 48.7573 25.3787 48.608 25.464C48.4587 25.528 48.384 25.6133 48.384 25.72C48.384 25.784 48.352 25.816 48.288 25.816C48.2453 25.816 48.1813 25.8907 48.096 26.04C48.032 26.1893 48 26.2853 48 26.328C48 26.392 48.096 26.36 48.288 26.232L48.448 26.2C48.4267 26.2427 48.2987 26.4027 48.064 26.68C47.7013 27.0853 47.4987 27.3627 47.456 27.512C47.392 27.6187 47.3173 27.736 47.232 27.864C47.1467 27.992 47.0613 28.0987 46.976 28.184C46.8907 28.2907 46.848 28.3227 46.848 28.28C46.8267 28.2587 46.7627 28.2907 46.656 28.376C46.5493 28.4613 46.4427 28.568 46.336 28.696C46.2293 28.8453 46.144 28.984 46.08 29.112C45.9947 29.3467 45.888 29.4533 45.76 29.432C45.6533 29.4107 45.6 29.432 45.6 29.496C45.6 29.5813 45.376 29.8267 44.928 30.232C44.5013 30.6587 44.2453 30.872 44.16 30.872C44.1173 30.872 44.096 30.904 44.096 30.968C44.096 31.0747 44.0427 31.1707 43.936 31.256C43.8293 31.3413 43.7227 31.3733 43.616 31.352C43.424 31.3093 43.296 31.0747 43.232 30.648C43.232 30.52 43.136 30.4347 42.944 30.392C42.7733 30.3493 42.6773 30.36 42.656 30.424L42.56 30.136C42.5173 29.88 42.432 29.7307 42.304 29.688C42.176 29.6453 42.1333 29.5387 42.176 29.368C42.1973 29.1973 42.1973 29.112 42.176 29.112C42.1547 29.112 42.0693 29.1653 41.92 29.272L41.76 29.496L41.824 29.176C41.8453 28.9627 41.792 28.824 41.664 28.76C41.3013 28.6533 41.2693 28.3867 41.568 27.96C41.7173 27.7467 41.792 27.5653 41.792 27.416C41.792 27.288 41.8773 27.1813 42.048 27.096C42.2187 27.0107 42.336 26.904 42.4 26.776C42.4853 26.6267 42.5813 26.2213 42.688 25.56C42.816 24.8773 42.8907 24.3333 42.912 23.928C42.9333 23.3733 42.9653 23.064 43.008 23C43.072 22.936 43.104 22.7653 43.104 22.488C43.1253 22.2107 43.1787 21.7627 43.264 21.144C43.4347 19.5867 43.4347 18.744 43.264 18.616C43.1787 18.5947 43.1573 18.5413 43.2 18.456C43.2427 18.3707 43.2 18.2853 43.072 18.2C42.944 18.1147 42.88 18.04 42.88 17.976C42.88 17.912 42.7627 17.784 42.528 17.592C42.1227 17.272 42.0373 17.112 42.272 17.112C42.3573 17.112 42.3893 17.0587 42.368 16.952C42.3467 16.9093 42.368 16.8773 42.432 16.856C42.816 16.728 43.2 16.7493 43.584 16.92C43.6053 16.9413 43.6267 16.952 43.648 16.952C43.7973 17.0587 43.968 17.0587 44.16 16.952C45.056 16.504 46.4427 15.2987 48.32 13.336C48.7893 12.888 49.088 12.568 49.216 12.376C49.344 12.184 49.3653 12.024 49.28 11.896C49.216 11.768 49.216 11.704 49.28 11.704C49.3653 11.704 49.408 11.6613 49.408 11.576ZM46.208 24.376C45.76 24.248 45.5253 24.184 45.504 24.184C45.4827 24.184 45.408 24.5147 45.28 25.176C45.152 25.8373 45.088 26.2427 45.088 26.392C45.088 26.52 45.472 26.2747 46.24 25.656C46.56 25.3787 46.72 25.2613 46.72 25.304C46.6987 25.4107 46.7093 25.464 46.752 25.464C46.7733 25.464 46.8373 25.4213 46.944 25.336C47.0507 25.2507 47.1467 25.1653 47.232 25.08C47.3173 24.9733 47.3493 24.8987 47.328 24.856C47.2213 24.7707 46.848 24.6107 46.208 24.376ZM35.168 4.504C35.168 4.48267 35.1893 4.48267 35.232 4.504C35.2747 4.504 35.3387 4.51467 35.424 4.536C35.5093 4.55733 35.6053 4.57867 35.712 4.6C36.096 4.68533 36.5013 4.81333 36.928 4.984C37.376 5.13333 37.6 5.24 37.6 5.304C37.6 5.34667 37.664 5.38933 37.792 5.432C38.176 5.51733 38.5387 5.90133 38.88 6.584C39.008 6.86133 39.0827 7.08533 39.104 7.256C39.1253 7.42667 39.1253 7.85333 39.104 8.536C39.104 9.47467 39.136 9.944 39.2 9.944C39.2853 9.944 39.488 10.0187 39.808 10.168C40.1493 10.3173 40.3627 10.4133 40.448 10.456C40.5547 10.4987 40.6933 10.5733 40.864 10.68C41.056 10.7867 41.1413 10.9573 41.12 11.192C41.12 11.4053 41.1947 11.5333 41.344 11.576C41.5787 11.64 41.5893 11.7253 41.376 11.832C41.2693 11.8533 41.152 11.8853 41.024 11.928C40.768 11.9493 40.544 12.056 40.352 12.248C40.1813 12.44 40 12.5573 39.808 12.6C39.6373 12.6427 39.4453 12.76 39.232 12.952C39.04 13.1227 38.9227 13.208 38.88 13.208C38.8373 13.208 38.816 13.2507 38.816 13.336C38.816 13.4213 38.7627 13.4747 38.656 13.496C38.6133 13.496 38.5707 13.4853 38.528 13.464L38.592 13.4C38.5067 13.4 38.4 13.4533 38.272 13.56C38.1653 13.688 38.0693 13.752 37.984 13.752C37.92 13.752 37.856 13.976 37.792 14.424C37.7493 14.8933 37.632 15.6187 37.44 16.6C37.4187 16.664 37.408 16.696 37.408 16.696C37.4293 16.696 37.4933 16.664 37.6 16.6C37.6853 16.4933 37.7707 16.44 37.856 16.44C37.9627 16.44 38.1013 16.408 38.272 16.344C38.4427 16.2587 38.656 16.2907 38.912 16.44C39.1893 16.568 39.4987 16.6427 39.84 16.664C40.4373 16.728 40.8427 16.8987 41.056 17.176C41.2907 17.4533 41.4187 17.9653 41.44 18.712C41.4613 19.3307 41.4187 20.056 41.312 20.888C41.056 22.552 40.8213 23.6613 40.608 24.216C40.5227 24.408 40.4907 24.536 40.512 24.6C40.5547 24.664 40.544 24.7173 40.48 24.76C40.416 24.8027 40.384 24.8987 40.384 25.048C40.384 25.176 40.2987 25.4 40.128 25.72C39.9787 26.04 39.8827 26.3173 39.84 26.552C39.8187 26.7653 39.776 26.872 39.712 26.872C39.6693 26.872 39.6053 26.9573 39.52 27.128C39.456 27.32 39.3813 27.4267 39.296 27.448C39.2107 27.4693 39.1787 27.5227 39.2 27.608C39.2427 27.7147 39.232 27.768 39.168 27.768C39.1467 27.768 39.1253 27.768 39.104 27.768C39.104 27.7893 39.104 27.8213 39.104 27.864C39.104 27.9067 39.0293 28.0027 38.88 28.152C38.7307 28.3227 38.592 28.4293 38.464 28.472C38.3787 28.4933 38.3467 28.536 38.368 28.6C38.4107 28.6853 38.3893 28.7707 38.304 28.856C38.2187 28.9627 38.144 29.1013 38.08 29.272C37.9947 29.4213 37.856 29.5707 37.664 29.72C37.4933 29.8693 37.3867 29.9227 37.344 29.88C37.344 29.88 37.3227 29.8907 37.28 29.912C37.2373 29.9333 37.1947 29.9653 37.152 30.008C37.1307 30.072 37.0987 30.1253 37.056 30.168L36.864 30.552L36.768 30.168C36.7467 29.9547 36.672 29.784 36.544 29.656C36.4373 29.5493 36.384 29.4427 36.384 29.336C36.384 29.2293 36.3413 29.144 36.256 29.08C36.0213 28.8453 35.904 28.6 35.904 28.344C35.904 28.1947 35.8613 28.0773 35.776 27.992C35.712 27.928 35.6587 27.6613 35.616 27.192C35.5733 26.744 35.5093 26.1787 35.424 25.496C35.3173 24.9413 35.264 24.408 35.264 23.896C35.2853 23.3627 35.3387 23.0853 35.424 23.064C35.4453 23.064 35.4667 23.096 35.488 23.16C35.5093 23.224 35.5413 23.3093 35.584 23.416C35.6267 23.5227 35.6587 23.6613 35.68 23.832C35.8507 24.7707 36.032 25.336 36.224 25.528C36.3947 25.656 36.48 25.7627 36.48 25.848C36.48 25.912 36.512 25.9227 36.576 25.88C36.64 25.8373 36.672 25.7627 36.672 25.656C36.672 25.5493 36.7573 25.4107 36.928 25.24C37.056 25.0907 37.2373 24.728 37.472 24.152C37.728 23.576 37.856 23.2027 37.856 23.032C37.856 22.8827 37.92 22.6053 38.048 22.2C38.176 21.7947 38.2187 21.528 38.176 21.4C38.1547 21.2507 38.176 21.0693 38.24 20.856C38.304 20.6213 38.3787 20.2053 38.464 19.608C38.5493 19.1387 38.5707 18.84 38.528 18.712C38.4853 18.5627 38.3787 18.488 38.208 18.488C38.0587 18.488 37.8667 18.4453 37.632 18.36C37.376 18.2533 37.2053 18.2107 37.12 18.232C37.056 18.232 37.0027 18.3067 36.96 18.456C36.9173 18.6053 36.8213 18.8293 36.672 19.128C36.544 19.4267 36.4267 19.736 36.32 20.056C36.2133 20.3547 36.0533 20.664 35.84 20.984C35.648 21.2827 35.5307 21.5067 35.488 21.656C35.4453 21.784 35.3173 22.0507 35.104 22.456C34.8907 22.8613 34.752 23.1067 34.688 23.192C34.624 23.256 34.592 23.3413 34.592 23.448C34.592 23.5333 34.5493 23.6187 34.464 23.704C34.3787 23.768 34.3253 23.864 34.304 23.992C34.2187 24.376 33.984 24.8987 33.6 25.56C33.216 26.2427 32.8747 26.68 32.576 26.872C32.512 26.9147 32.4587 26.9147 32.416 26.872C32.3733 26.8293 32.3413 26.7333 32.32 26.584C32.2773 26.3493 32.192 26.2213 32.064 26.2C31.9573 26.1573 31.8827 26.04 31.84 25.848C31.8187 25.656 31.744 25.5173 31.616 25.432C31.5093 25.3467 31.456 25.1867 31.456 24.952C31.4773 24.7173 31.4453 24.5787 31.36 24.536C31.2747 24.4933 31.2747 24.3227 31.36 24.024C31.4667 23.704 31.5947 23.4693 31.744 23.32C31.9147 23.1493 32.0427 22.9467 32.128 22.712C32.4053 22.1147 33.0133 20.76 33.952 18.648C34.5493 17.2827 34.752 16.6 34.56 16.6C34.496 16.5787 34.3467 16.664 34.112 16.856C33.856 17.0693 33.6853 17.176 33.6 17.176C33.5147 17.176 33.376 17.24 33.184 17.368C33.0347 17.4533 32.9173 17.496 32.832 17.496C32.7467 17.4747 32.5333 17.4107 32.192 17.304C31.744 17.112 31.4027 16.92 31.168 16.728C30.9333 16.536 30.784 16.44 30.72 16.44C30.656 16.44 30.592 16.3867 30.528 16.28C30.336 16.024 30.0907 15.896 29.792 15.896C29.664 15.896 29.6 15.7787 29.6 15.544C29.6 15.4373 29.6107 15.3627 29.632 15.32C29.6747 15.256 29.7493 15.224 29.856 15.224C29.984 15.224 30.336 15.0853 30.912 14.808C31.5093 14.5093 31.9573 14.232 32.256 13.976C32.5547 13.7627 32.7467 13.656 32.832 13.656C32.9387 13.656 33.0453 13.592 33.152 13.464C33.28 13.336 33.376 13.272 33.44 13.272C33.4827 13.272 33.6427 13.176 33.92 12.984C34.1973 12.792 34.3573 12.6533 34.4 12.568C34.4427 12.504 34.5067 12.472 34.592 12.472C34.6773 12.472 34.72 12.44 34.72 12.376C34.72 12.312 34.9227 12.184 35.328 11.992C35.7333 11.7787 35.968 11.6187 36.032 11.512C36.096 11.384 36.1813 11.32 36.288 11.32C36.3947 11.32 36.4587 11.2773 36.48 11.192C36.5227 11.0853 36.576 11.064 36.64 11.128C36.704 11.1707 36.7787 11.1493 36.864 11.064C36.9707 10.9787 37.024 10.8827 37.024 10.776C37.024 10.6693 36.9173 10.52 36.704 10.328C36.5547 10.1787 36.4693 10.0613 36.448 9.976C36.4267 9.89067 36.416 9.72 36.416 9.464C36.4373 9.05867 36.448 8.80267 36.448 8.696C36.4693 8.568 36.512 8.55733 36.576 8.664C36.64 8.74933 36.672 8.71733 36.672 8.568C36.6507 8.46133 36.608 8.408 36.544 8.408C36.48 8.472 36.4373 8.344 36.416 8.024C36.3947 7.91733 36.384 7.77867 36.384 7.608C36.3413 7.24533 36.2667 7.032 36.16 6.968C36.0747 6.88266 35.9787 6.59466 35.872 6.104C35.7653 5.592 35.6587 5.29333 35.552 5.208C35.488 5.144 35.4027 5.02667 35.296 4.856C35.2107 4.68533 35.168 4.568 35.168 4.504ZM36.928 6.872C36.8213 6.25333 36.7467 5.92267 36.704 5.88C36.6613 5.816 36.672 6.22133 36.736 7.096C36.7573 7.33067 36.7787 7.544 36.8 7.736C36.8427 7.94933 36.8747 8.16267 36.896 8.376C36.9173 8.568 36.96 8.74933 37.024 8.92C37.0453 9.00533 37.056 8.984 37.056 8.856C37.0987 8.536 37.056 7.87467 36.928 6.872ZM38.592 13.016C38.656 13.016 38.7093 12.984 38.752 12.92C38.7947 12.856 38.7627 12.824 38.656 12.824C38.5493 12.824 38.496 12.856 38.496 12.92C38.496 12.984 38.528 13.016 38.592 13.016ZM34.496 16.44C34.56 16.44 34.592 16.408 34.592 16.344C34.592 16.28 34.5813 16.248 34.56 16.248C34.5387 16.248 34.5067 16.28 34.464 16.344C34.4427 16.408 34.4533 16.44 34.496 16.44ZM44.96 3.768C45.152 3.55467 45.2587 3.448 45.28 3.448C45.3227 3.448 45.408 3.512 45.536 3.64C45.6853 3.768 45.856 3.864 46.048 3.928C46.24 3.97067 46.4427 4.07733 46.656 4.248C46.8693 4.39733 46.9547 4.504 46.912 4.568C46.8693 4.61067 46.9227 4.68533 47.072 4.792C47.2213 4.87733 47.296 5.12267 47.296 5.528C47.3173 6.296 47.2213 7.04267 47.008 7.768C46.9867 7.85333 47.0187 7.896 47.104 7.896C47.1893 7.896 47.328 7.88533 47.52 7.864C47.904 7.82133 48.32 7.69333 48.768 7.48C49.216 7.24533 49.4613 7.13867 49.504 7.16C49.5467 7.16 49.568 7.13867 49.568 7.096C49.568 7.032 49.6427 6.968 49.792 6.904C49.9627 6.84 50.0267 6.76533 49.984 6.68C49.9413 6.63733 49.9947 6.59467 50.144 6.552C50.208 6.53067 50.2827 6.54133 50.368 6.584L50.4 6.552C50.3787 6.552 50.3467 6.52 50.304 6.456C50.24 6.37067 50.2293 6.328 50.272 6.328C50.336 6.328 50.4213 6.37067 50.528 6.456C50.6987 6.56267 50.8587 6.584 51.008 6.52C51.264 6.37067 51.392 6.38133 51.392 6.552C51.392 6.57333 51.3707 6.60533 51.328 6.648C51.264 6.75467 51.2853 6.808 51.392 6.808C51.52 6.808 51.6587 6.86133 51.808 6.968C51.9787 7.05333 52.0747 7.08533 52.096 7.064L52.224 7.288C52.3307 7.45867 52.4587 7.544 52.608 7.544C52.6933 7.56533 52.736 7.58667 52.736 7.608C52.672 7.62933 52.64 7.672 52.64 7.736C52.64 7.8 52.672 7.81067 52.736 7.768C52.736 7.768 52.7467 7.77867 52.768 7.8C52.8107 7.82133 52.8427 7.864 52.864 7.928C52.8853 7.992 52.9067 8.06667 52.928 8.152C52.9493 8.216 52.96 8.29067 52.96 8.376C52.9813 8.44 52.992 8.49333 52.992 8.536C52.992 8.6 53.0453 8.68533 53.152 8.792C53.2587 8.87733 53.2373 8.96267 53.088 9.048C52.4907 9.368 52.096 9.63467 51.904 9.848H51.872C51.8933 9.80533 51.8507 9.784 51.744 9.784C51.5947 9.784 51.424 9.848 51.232 9.976C51.0827 10.0613 50.9653 10.104 50.88 10.104C50.816 10.104 50.6453 10.1893 50.368 10.36C50.0907 10.5307 49.952 10.5947 49.952 10.552C49.952 10.5093 49.856 10.552 49.664 10.68C49.4933 10.808 49.408 10.8507 49.408 10.808H49.312C49.2693 10.8933 49.0773 11.0213 48.736 11.192C48.3947 11.3627 48.0533 11.576 47.712 11.832C47.3707 12.0667 47.136 12.184 47.008 12.184C46.9013 12.184 46.848 12.2267 46.848 12.312C46.848 12.3973 46.7947 12.4293 46.688 12.408C46.5813 12.3653 46.5067 12.408 46.464 12.536C46.4427 12.6427 46.1867 12.7707 45.696 12.92L44.992 13.144L44.736 12.824C44.5653 12.6533 44.352 12.5467 44.096 12.504C43.8827 12.4613 43.6267 12.3333 43.328 12.12C43.0293 11.9067 42.816 11.6827 42.688 11.448C42.56 11.2133 42.4427 11.0747 42.336 11.032C42.2507 10.9893 42.208 10.904 42.208 10.776C42.208 10.648 42.176 10.5307 42.112 10.424C42.0693 10.296 42.1013 10.0933 42.208 9.816C42.336 9.53867 42.56 9.336 42.88 9.208C43.2213 9.08 43.52 8.81333 43.776 8.408C44.1387 7.85333 44.416 7.26667 44.608 6.648C45.0133 5.304 45.0987 4.57866 44.864 4.472C44.608 4.38667 44.64 4.152 44.96 3.768ZM71.392 12.408C71.3493 12.408 71.4133 12.312 71.584 12.12C71.776 11.928 71.8827 11.832 71.904 11.832C71.9253 11.832 71.904 11.8853 71.84 11.992C71.776 12.0773 71.6907 12.1733 71.584 12.28C71.4987 12.3653 71.4347 12.408 71.392 12.408ZM72.48 9.368C73.2907 8.51467 73.696 8.19467 73.696 8.408C73.696 8.45067 73.6427 8.536 73.536 8.664C72.896 9.432 72.4587 9.976 72.224 10.296C71.968 10.616 71.4027 11.2453 70.528 12.184C70.336 12.3973 70.2613 12.5147 70.304 12.536C70.3893 12.536 70.6667 12.312 71.136 11.864C71.6053 11.4587 71.872 11.256 71.936 11.256C71.9573 11.256 71.9147 11.352 71.808 11.544C71.7013 11.7147 71.5627 11.9067 71.392 12.12C71.2213 12.312 71.0933 12.44 71.008 12.504C70.7733 12.6747 70.752 12.76 70.944 12.76C70.9653 12.76 70.9867 12.7493 71.008 12.728L71.104 12.76C71.0613 12.8027 70.9973 12.8987 70.912 13.048C70.6987 13.24 70.592 13.3787 70.592 13.464C70.592 13.528 70.5173 13.624 70.368 13.752C70.24 13.8587 70.1867 13.9333 70.208 13.976C70.2507 13.9973 70.5067 13.7627 70.976 13.272C71.36 12.8453 71.552 12.6747 71.552 12.76C71.488 12.9093 71.424 12.984 71.36 12.984C71.3173 12.984 71.1253 13.24 70.784 13.752C70.4427 14.2427 70.1227 14.6587 69.824 15C69.5467 15.32 69.3227 15.6187 69.152 15.896C69.0027 16.1733 68.8853 16.3227 68.8 16.344C68.7573 16.408 68.5333 16.3333 68.128 16.12C67.744 15.9067 67.5307 15.7573 67.488 15.672C67.4667 15.5653 67.3493 15.4053 67.136 15.192C66.944 14.9573 66.816 14.84 66.752 14.84C66.688 14.84 66.528 14.7547 66.272 14.584C65.9307 14.3493 65.8347 14.04 65.984 13.656C66.048 13.464 66.1653 13.3893 66.336 13.432C66.528 13.4747 66.784 13.4107 67.104 13.24C67.36 13.112 67.8827 12.7493 68.672 12.152C69.4827 11.5547 69.952 11.1813 70.08 11.032C70.208 10.904 70.272 10.872 70.272 10.936C70.272 10.9787 70.208 11.0853 70.08 11.256C69.952 11.4053 69.8987 11.48 69.92 11.48C69.9627 11.48 70.016 11.48 70.08 11.48C70.208 11.4373 70.2933 11.3627 70.336 11.256C70.3787 11.128 70.4213 11.064 70.464 11.064C70.5067 11.064 70.6347 10.9467 70.848 10.712C71.0827 10.4773 71.2533 10.36 71.36 10.36C71.4667 10.36 71.84 10.0293 72.48 9.368ZM68.544 3.736C68.416 3.50133 68.3627 3.36267 68.384 3.32C68.4053 3.27733 68.5333 3.288 68.768 3.352C69.024 3.416 69.2373 3.49066 69.408 3.576C69.5573 3.64 69.7067 3.672 69.856 3.672C70.0053 3.65067 70.08 3.672 70.08 3.736C70.08 3.77867 70.176 3.84267 70.368 3.928C70.56 3.992 70.88 4.248 71.328 4.696C71.7973 5.144 72.0533 5.368 72.096 5.368C72.1387 5.368 72.2027 5.47467 72.288 5.688C72.3733 5.90133 72.416 6.072 72.416 6.2C72.416 6.37067 72.3627 6.488 72.256 6.552C72.1493 6.57333 72.0213 6.66933 71.872 6.84C71.7227 7.01067 71.648 7.13867 71.648 7.224C71.648 7.288 71.5627 7.50133 71.392 7.864C71.2427 8.22667 71.1253 8.472 71.04 8.6C70.9547 8.74933 70.88 8.824 70.816 8.824C70.752 8.824 70.5067 9.06933 70.08 9.56C69.9733 9.66667 69.888 9.784 69.824 9.912C69.7387 10.04 69.696 10.072 69.696 10.008C69.696 9.96533 69.696 9.90133 69.696 9.816C69.696 9.624 69.6747 9.496 69.632 9.432C69.5467 9.38933 69.44 9.4 69.312 9.464C69.2053 9.528 69.1413 9.624 69.12 9.752C68.992 10.0507 68.9067 10.0933 68.864 9.88C68.864 9.79467 68.864 9.67733 68.864 9.528C68.9067 9.18667 68.8747 9.016 68.768 9.016C68.6613 9.016 68.5653 9.12267 68.48 9.336C68.416 9.54933 68.3627 9.656 68.32 9.656C68.2773 9.656 68.2453 9.624 68.224 9.56C68.224 9.496 68.224 9.38933 68.224 9.24C68.2453 9.09067 68.2773 8.89867 68.32 8.664C68.384 8.408 68.4587 8.09867 68.544 7.736C68.8427 6.15733 69.0027 5.26133 69.024 5.048C69.0667 4.83467 69.0347 4.62133 68.928 4.408L68.544 3.736ZM75.808 0.887999C75.8293 0.866666 75.9893 0.887999 76.288 0.952C76.608 1.016 76.8213 1.08 76.928 1.144C76.9707 1.18667 76.992 1.25067 76.992 1.336C76.992 1.42133 77.0453 1.45333 77.152 1.432C77.216 1.41067 77.2587 1.42133 77.28 1.464C77.3013 1.50666 77.3227 1.592 77.344 1.72C77.408 1.912 77.5147 2.136 77.664 2.392C77.92 2.86133 78.0373 3.40533 78.016 4.024L77.984 4.568L78.272 4.536C78.5067 4.472 78.8907 4.30133 79.424 4.024C79.7013 3.91733 79.9467 3.832 80.16 3.768C80.3947 3.68267 80.576 3.64 80.704 3.64C80.832 3.64 80.896 3.672 80.896 3.736C80.896 3.77867 81.0133 3.82133 81.248 3.864C81.6747 3.928 81.888 4.09867 81.888 4.376C81.888 4.52533 81.92 4.6 81.984 4.6C82.048 4.6 82.08 4.68533 82.08 4.856C82.08 5.02667 82.1547 5.176 82.304 5.304C82.4107 5.41067 82.4747 5.60267 82.496 5.88C82.5387 6.136 82.5067 6.33867 82.4 6.488C82.336 6.65867 82.2827 6.85067 82.24 7.064C82.1973 7.256 82.112 7.49067 81.984 7.768C81.8773 8.024 81.728 8.38667 81.536 8.856C81.3653 9.26133 81.2373 9.51733 81.152 9.624C81.088 9.73067 81.0133 9.784 80.928 9.784C80.8427 9.76267 80.7893 9.77333 80.768 9.816C80.7253 9.90133 80.7787 9.976 80.928 10.04C81.0773 10.0827 81.504 10.1147 82.208 10.136C82.912 10.136 83.328 10.1893 83.456 10.296C83.6053 10.4027 83.7653 10.4773 83.936 10.52C84.128 10.5413 84.2773 10.616 84.384 10.744C84.512 10.8507 84.64 10.936 84.768 11C84.896 11.0427 84.9067 11.0853 84.8 11.128C84.672 11.2133 84.6293 11.352 84.672 11.544C84.736 11.736 84.832 11.8747 84.96 11.96C85.152 12.024 85.1947 12.1093 85.088 12.216C84.9813 12.3013 85.024 12.44 85.216 12.632C85.408 12.824 85.4933 13.0693 85.472 13.368V13.88L84.896 13.816C84.4693 13.7733 84.192 13.72 84.064 13.656C83.936 13.592 83.7547 13.5493 83.52 13.528C83.008 13.5067 82.1547 13.4 80.96 13.208C79.7653 13.016 78.9227 12.856 78.432 12.728C77.8133 12.536 77.4613 12.44 77.376 12.44C77.2907 12.44 77.1947 12.5467 77.088 12.76C76.9813 12.9947 76.928 13.1547 76.928 13.24C76.928 13.3253 76.8853 13.4213 76.8 13.528C76.7147 13.6133 76.6293 13.72 76.544 13.848C76.48 13.976 76.3733 14.1573 76.224 14.392C76.1173 14.6267 76.1067 14.7547 76.192 14.776C76.32 14.776 76.5653 14.68 76.928 14.488C77.2907 14.296 77.7067 14.2107 78.176 14.232C78.624 14.2533 79.0293 14.3387 79.392 14.488C79.7547 14.616 79.936 14.776 79.936 14.968C79.936 15.096 79.9893 15.1173 80.096 15.032C80.1813 14.9893 80.224 14.968 80.224 14.968C80.2453 14.968 80.224 15.0213 80.16 15.128C80.1387 15.256 80.192 15.3733 80.32 15.48C80.4267 15.544 80.512 15.6613 80.576 15.832C80.6613 15.9813 80.6827 16.088 80.64 16.152C80.6187 16.1947 80.672 16.28 80.8 16.408C80.992 16.6 81.0133 16.8133 80.864 17.048C80.7573 17.176 80.704 17.4427 80.704 17.848C80.704 18.2533 80.672 18.4773 80.608 18.52C80.544 18.5413 80.544 18.5947 80.608 18.68C80.672 18.808 80.6933 19.096 80.672 19.544C80.6507 19.9707 80.5973 20.2267 80.512 20.312C80.4053 20.376 80.3947 20.408 80.48 20.408C80.5653 20.408 80.608 20.4613 80.608 20.568C80.6293 20.952 80.6187 21.592 80.576 22.488C80.5547 23.3627 80.5333 23.8427 80.512 23.928C80.512 23.9493 80.512 24.0773 80.512 24.312C80.512 24.5467 80.4693 24.7813 80.384 25.016C80.2987 25.2507 80.2347 25.624 80.192 26.136C80.1493 26.648 80.1067 26.968 80.064 27.096C80.0427 27.2453 80.1387 27.3733 80.352 27.48C80.5653 27.608 80.6933 27.672 80.736 27.672C80.8 27.6933 80.832 27.7147 80.832 27.736C80.8533 27.7573 80.928 27.7787 81.056 27.8C81.184 27.8213 81.312 27.864 81.44 27.928C81.568 27.992 81.824 28.088 82.208 28.216C82.6133 28.3653 82.8907 28.4933 83.04 28.6C83.2107 28.728 83.5307 28.9093 84 29.144C84.8533 29.6133 85.2373 29.9973 85.152 30.296C85.1093 30.5093 85.312 30.7973 85.76 31.16C85.9307 31.2667 86.016 31.3413 86.016 31.384C86.0373 31.448 86.0053 31.544 85.92 31.672C85.8133 31.8427 85.8133 32.0027 85.92 32.152C85.984 32.2587 86.0267 32.344 86.048 32.408C86.0693 32.4933 86.0693 32.5573 86.048 32.6C86.048 32.664 86.0267 32.696 85.984 32.696C85.92 32.696 85.888 32.76 85.888 32.888C85.888 33.016 85.76 33.08 85.504 33.08C85.248 33.08 85.0987 33.048 85.056 32.984C85.0133 32.92 84.928 32.888 84.8 32.888C84.672 32.888 84.608 32.856 84.608 32.792C84.608 32.728 84.5653 32.696 84.48 32.696C84.416 32.696 84.3307 32.6533 84.224 32.568C84.1173 32.4827 83.7547 32.3227 83.136 32.088C82.5173 31.8533 82.0587 31.6613 81.76 31.512C80.864 31.1493 80.064 30.8613 79.36 30.648C79.1253 30.584 78.976 30.52 78.912 30.456C78.848 30.4133 78.7307 30.3707 78.56 30.328C78.3893 30.2853 78.176 30.2107 77.92 30.104C77.664 29.9973 77.5147 29.9333 77.472 29.912C76.704 29.7627 76.0107 29.5493 75.392 29.272L74.912 29.016L74.688 29.368C73.984 30.5627 73.4933 31.2453 73.216 31.416C73.0027 31.5867 72.896 31.6933 72.896 31.736C72.896 31.7787 72.5547 32.1627 71.872 32.888C71.36 33.4 71.04 33.7093 70.912 33.816C70.784 33.9227 70.656 33.9653 70.528 33.944C70.3147 33.88 70.1333 33.6987 69.984 33.4C69.856 33.1227 69.824 32.9413 69.888 32.856C69.9733 32.728 69.9733 32.6213 69.888 32.536C69.7173 32.5787 69.6 32.504 69.536 32.312C69.4933 32.1627 69.408 32.0133 69.28 31.864C69.024 31.5227 69.024 31.3627 69.28 31.384C69.3867 31.384 69.4293 31.3307 69.408 31.224C69.3653 31.16 69.3547 30.9787 69.376 30.68C69.3973 30.3813 69.4187 30.1573 69.44 30.008C69.4827 29.88 69.5467 29.8267 69.632 29.848C69.7387 29.8907 69.792 29.88 69.792 29.816C69.792 29.752 69.8773 29.6667 70.048 29.56C70.2187 29.4747 70.3573 29.336 70.464 29.144C70.5707 28.9733 70.6773 28.8347 70.784 28.728C70.912 28.6427 70.976 28.5573 70.976 28.472C70.976 28.408 71.0613 28.312 71.232 28.184C71.552 27.992 71.6267 27.7467 71.456 27.448C71.3707 27.32 71.2747 27.256 71.168 27.256C71.0827 27.256 71.04 27.1707 71.04 27C71.04 26.808 70.9333 26.616 70.72 26.424C70.5067 26.2107 70.4107 26.04 70.432 25.912C70.4533 25.784 70.4 25.6453 70.272 25.496C70.144 25.3467 70.0907 25.24 70.112 25.176C70.1547 25.0907 70.1867 24.888 70.208 24.568C70.2293 24.248 70.272 23.992 70.336 23.8C70.4213 23.608 70.4533 23.2987 70.432 22.872C70.432 22.4453 70.4533 22.2 70.496 22.136C70.56 22.0507 70.5387 21.9973 70.432 21.976C70.3467 21.9333 70.304 21.6987 70.304 21.272C70.2827 20.7173 70.2187 19.7573 70.112 18.392C70.0693 17.752 69.8987 17.1547 69.6 16.6C69.472 16.3653 69.7493 16.3333 70.432 16.504C70.496 16.504 70.56 16.5147 70.624 16.536C71.072 16.664 71.3493 16.728 71.456 16.728C71.52 16.728 72 16.536 72.896 16.152C73.8133 15.768 74.2933 15.5547 74.336 15.512C74.3573 15.4907 74.3147 15.3733 74.208 15.16C74.1227 14.9467 74.112 14.808 74.176 14.744C74.3253 14.552 74.3253 14.4667 74.176 14.488C74.176 14.488 74.1547 14.488 74.112 14.488C73.984 14.552 73.8453 14.52 73.696 14.392C73.568 14.2427 73.4613 14.0187 73.376 13.72C73.312 13.4 73.312 13.1547 73.376 12.984C73.4613 12.792 73.664 12.5253 73.984 12.184C74.3253 11.8213 74.496 11.6293 74.496 11.608C74.496 11.5867 74.624 11.3733 74.88 10.968C75.136 10.5627 75.264 10.328 75.264 10.264C75.264 10.2 75.3173 10.136 75.424 10.072C75.5307 9.98667 75.5627 9.912 75.52 9.848C75.4987 9.76267 75.424 9.73067 75.296 9.752C75.1467 9.77333 75.0507 9.72 75.008 9.592C74.9653 9.464 74.9227 9.4 74.88 9.4C74.8373 9.4 74.7947 9.336 74.752 9.208C74.7093 9.05867 74.624 8.97333 74.496 8.952C74.4107 8.90933 74.3573 8.87733 74.336 8.856C74.3147 8.83467 74.304 8.81333 74.304 8.792C74.3467 8.68533 74.304 8.54667 74.176 8.376C74.0693 8.20533 73.9413 8.09867 73.792 8.056C73.6213 7.97067 73.5147 7.864 73.472 7.736C73.4507 7.608 73.4827 7.29867 73.568 6.808C73.5893 6.53067 73.7493 6.24266 74.048 5.944C74.3467 5.624 74.496 5.44267 74.496 5.4C74.496 5.336 74.56 5.18667 74.688 4.952C74.8587 4.65333 75.168 3.85333 75.616 2.552C75.7653 2.104 75.7973 1.80533 75.712 1.656C75.648 1.50667 75.6693 1.41067 75.776 1.368C75.8827 1.304 75.904 1.21867 75.84 1.112C75.7973 1.00533 75.7867 0.930666 75.808 0.887999ZM79.488 7.128C79.5307 6.936 79.5093 6.86133 79.424 6.904C79.3387 6.904 79.1467 7.01067 78.848 7.224L78.112 7.736C78.0267 7.84267 78.016 8.06667 78.08 8.408C78.144 8.728 78.176 9.05867 78.176 9.4V9.88L78.72 9.912C79.04 9.912 79.3707 9.92267 79.712 9.944C79.9893 9.96533 80.1493 9.944 80.192 9.88C80.2347 9.816 80.16 9.63467 79.968 9.336L79.584 8.664C79.3493 8.25867 79.3173 7.74667 79.488 7.128ZM77.728 18.744C77.7067 17.9547 77.6747 17.5387 77.632 17.496C77.5893 17.432 77.5467 17.4 77.504 17.4C77.4187 17.4 77.216 17.464 76.896 17.592C76.5973 17.6987 76.4373 17.7627 76.416 17.784C76.3093 17.8907 75.7867 18.104 74.848 18.424C73.9093 18.7227 73.312 18.872 73.056 18.872H72.8L72.864 20.792C72.928 22.0507 72.96 23.1493 72.96 24.088C72.96 25.0053 72.96 25.464 72.96 25.464C72.9813 25.464 73.0773 25.2933 73.248 24.952C73.4187 24.6107 73.504 24.4187 73.504 24.376C73.504 24.3333 73.6107 24.0773 73.824 23.608C74.0373 23.1173 74.1973 22.7227 74.304 22.424C74.3467 22.168 74.368 21.7413 74.368 21.144C74.3893 20.5253 74.368 20.1627 74.304 20.056C74.24 20.0133 74.1867 19.9173 74.144 19.768C74.1227 19.6613 74.112 19.5973 74.112 19.576C74.1333 19.5333 74.1653 19.5333 74.208 19.576C74.3147 19.6187 74.368 19.576 74.368 19.448C74.368 19.4053 74.336 19.352 74.272 19.288C74.208 19.2453 74.176 19.1813 74.176 19.096C74.176 18.9893 74.2187 18.936 74.304 18.936C74.4107 18.936 74.592 19 74.848 19.128C75.4453 19.4267 75.8933 20.3227 76.192 21.816C76.3413 22.4773 76.416 22.904 76.416 23.096C76.4373 23.288 76.416 23.64 76.352 24.152C76.2667 24.664 76.2027 25.1013 76.16 25.464C76.1387 25.8267 76.0853 26.1147 76 26.328C75.8933 26.5413 75.872 26.6693 75.936 26.712C76.0213 26.7333 76.3307 26.7547 76.864 26.776C77.3973 26.84 77.8667 26.9253 78.272 27.032C78.6987 27.096 78.9227 27.1067 78.944 27.064C78.9653 27.0427 78.9227 26.9893 78.816 26.904C78.7093 26.7973 78.656 26.712 78.656 26.648C78.656 26.584 78.528 26.424 78.272 26.168C78.016 25.912 77.8773 25.6347 77.856 25.336C77.7493 24.5467 77.696 23.896 77.696 23.384C77.696 21.8907 77.7493 20.9947 77.856 20.696C77.9627 20.44 77.9733 20.248 77.888 20.12C77.824 19.9707 77.7707 19.512 77.728 18.744ZM100.96 11.352C100.96 11.224 101.109 11.1707 101.408 11.192C101.728 11.192 101.963 11.2347 102.112 11.32C102.261 11.384 102.4 11.416 102.528 11.416C102.677 11.416 102.891 11.5013 103.168 11.672C103.424 11.864 103.765 12.1733 104.192 12.6C104.64 13.0053 104.864 13.24 104.864 13.304C104.864 13.3893 104.811 13.4853 104.704 13.592C104.597 13.6773 104.501 13.7093 104.416 13.688C104.331 13.6667 104.256 13.7093 104.192 13.816C104.128 13.9227 104.032 14.1787 103.904 14.584C103.499 15.8 103.296 16.664 103.296 17.176C103.296 17.4747 103.243 17.8267 103.136 18.232C103.051 18.616 102.987 19.128 102.944 19.768C102.923 20.1947 102.859 20.8347 102.752 21.688C102.667 22.52 102.613 22.968 102.592 23.032C102.571 23.0747 102.581 23.16 102.624 23.288C102.624 23.3307 102.635 23.3627 102.656 23.384C102.677 23.384 102.699 23.384 102.72 23.384C102.763 23.3627 102.805 23.3307 102.848 23.288C102.912 23.224 102.997 23.16 103.104 23.096C103.381 22.84 103.755 22.392 104.224 21.752C104.715 21.112 104.981 20.792 105.024 20.792C105.109 20.792 104.928 21.1227 104.48 21.784C104.288 22.0613 104.203 22.232 104.224 22.296C104.267 22.3387 104.384 22.36 104.576 22.36C104.768 22.36 105.035 22.1893 105.376 21.848L105.728 21.528V21.592C105.408 22.04 105.248 22.3707 105.248 22.584C105.248 22.6267 105.291 22.648 105.376 22.648C105.568 22.6267 105.664 22.6587 105.664 22.744C105.621 22.8507 105.28 23.4053 104.64 24.408C104.171 25.0907 103.648 25.752 103.072 26.392C102.496 27.0107 102.005 27.4587 101.6 27.736C101.387 27.8213 101.237 28.0027 101.152 28.28C101.088 28.5787 101.003 28.7387 100.896 28.76C100.811 28.7813 100.64 28.7173 100.384 28.568C100.149 28.44 99.9467 28.2907 99.776 28.12C99.4773 27.7787 99.1787 27.608 98.88 27.608C98.7307 27.608 98.6347 27.5547 98.592 27.448C98.5493 27.3627 98.4747 27.32 98.368 27.32C98.2827 27.32 98.2187 27.1707 98.176 26.872C98.112 26.3387 98.016 26.072 97.888 26.072C97.6533 26.072 97.6427 25.9013 97.856 25.56C97.9413 25.3253 98.1653 25.2187 98.528 25.24C98.6347 25.2613 98.88 25.08 99.264 24.696L99.84 24.152L99.968 23.32L100.288 21.08C100.736 17.944 100.928 16.1307 100.864 15.64C100.843 15.5333 100.811 15.4907 100.768 15.512C100.725 15.512 100.629 15.5653 100.48 15.672C100.224 15.8213 99.6373 16.1307 98.72 16.6C97.9733 16.984 97.504 17.1973 97.312 17.24C97.12 17.2827 96.512 17.2507 95.488 17.144C95.04 17.08 94.72 16.984 94.528 16.856C94.336 16.728 94.112 16.4827 93.856 16.12C93.7067 15.8853 93.6533 15.7467 93.696 15.704C93.76 15.6613 93.984 15.5973 94.368 15.512C95.072 15.4053 96.1493 14.872 97.6 13.912C99.0293 12.9947 99.8827 12.408 100.16 12.152C100.245 12.0453 100.32 11.992 100.384 11.992C100.448 11.992 100.555 11.9067 100.704 11.736C100.875 11.544 100.96 11.416 100.96 11.352ZM115.104 7.128C115.189 7.128 115.317 7.032 115.488 6.84C115.659 6.648 115.776 6.552 115.84 6.552C115.904 6.552 116.064 6.66933 116.32 6.904C116.576 7.13867 116.757 7.256 116.864 7.256C116.992 7.256 117.131 7.32 117.28 7.448C117.429 7.576 117.536 7.64 117.6 7.64C117.664 7.64 117.867 7.8 118.208 8.12C118.549 8.44 118.795 8.696 118.944 8.888C119.093 9.10133 119.2 9.28267 119.264 9.432C119.285 9.624 119.243 9.82667 119.136 10.04C119.051 10.232 118.933 10.3707 118.784 10.456C118.613 10.52 118.507 10.6267 118.464 10.776C118.421 10.9253 118.347 11.0747 118.24 11.224C117.813 11.864 117.536 12.4827 117.408 13.08C117.173 14.232 116.96 15.032 116.768 15.48C116.661 15.7147 116.533 16.3867 116.384 17.496C116.256 18.584 116.181 19.4373 116.16 20.056C116.16 20.76 116.309 21.4427 116.608 22.104C116.821 22.552 117.248 23.0213 117.888 23.512C118.528 23.9813 119.051 24.216 119.456 24.216C119.84 24.216 120.213 24.0027 120.576 23.576C120.96 23.128 121.28 22.5093 121.536 21.72L121.728 21.272L121.92 21.592C122.069 21.8053 122.144 22.1787 122.144 22.712C122.144 23.2453 122.176 23.5227 122.24 23.544C122.304 23.5653 122.304 23.6933 122.24 23.928C122.155 24.1627 122.101 24.4293 122.08 24.728C122.059 25.0267 122.069 25.1867 122.112 25.208C122.197 25.2507 122.165 25.4 122.016 25.656C121.888 25.8907 121.845 26.1147 121.888 26.328C121.931 26.5413 121.92 26.648 121.856 26.648C121.813 26.648 121.728 26.7653 121.6 27C121.472 27.2133 121.451 27.3413 121.536 27.384C121.643 27.448 121.643 27.512 121.536 27.576C121.429 27.64 121.173 27.64 120.768 27.576C120.384 27.512 120.107 27.4267 119.936 27.32C119.893 27.256 119.755 27.224 119.52 27.224C119.307 27.224 119.168 27.1707 119.104 27.064C119.04 26.9787 118.859 26.904 118.56 26.84C118.283 26.7547 118.091 26.648 117.984 26.52C117.877 26.3707 117.675 26.2427 117.376 26.136C117.099 26.008 116.96 25.9227 116.96 25.88C116.96 25.816 116.896 25.7733 116.768 25.752C116.64 25.7093 116.576 25.656 116.576 25.592C116.576 25.528 116.48 25.4107 116.288 25.24C115.733 24.7493 115.147 23.8107 114.528 22.424C114.293 21.912 114.112 20.8027 113.984 19.096L113.92 18.36L113.632 18.456C113.483 18.52 113.077 18.712 112.416 19.032C111.925 19.2453 111.627 19.3947 111.52 19.48C111.435 19.544 111.371 19.672 111.328 19.864C111.307 20.1413 111.296 20.7813 111.296 21.784C111.296 22.7867 111.264 23.5547 111.2 24.088C111.136 24.6 111.072 25.1653 111.008 25.784C110.859 27.5973 110.667 28.7707 110.432 29.304L110.208 29.848C110.187 29.976 110.155 30.04 110.112 30.04C110.069 30.04 110.016 29.9973 109.952 29.912C109.781 29.784 109.685 29.7307 109.664 29.752C109.643 29.7947 109.6 29.7627 109.536 29.656C109.472 29.4213 109.195 29.048 108.704 28.536C108.469 28.3013 108.352 28.056 108.352 27.8C108.352 27.544 108.373 27.384 108.416 27.32C108.48 27.256 108.448 27.1387 108.32 26.968C108.213 26.7973 108.181 26.4987 108.224 26.072C108.267 25.6453 108.299 24.952 108.32 23.992C108.341 23.0107 108.373 22.3813 108.416 22.104C108.48 21.8053 108.501 21.368 108.48 20.792C108.48 20.664 108.405 20.6 108.256 20.6C108.107 20.6 107.851 20.5573 107.488 20.472C107.147 20.3653 106.869 20.312 106.656 20.312C106.443 20.312 106.208 20.2693 105.952 20.184C105.717 20.0773 105.44 20.0027 105.12 19.96C104.864 19.9387 104.629 19.8533 104.416 19.704C104.224 19.5547 104.171 19.4373 104.256 19.352C104.277 19.2667 104.224 19.1707 104.096 19.064C103.989 18.936 103.989 18.7973 104.096 18.648C104.224 18.456 104.384 18.328 104.576 18.264C104.768 18.1787 105.131 18.1147 105.664 18.072C106.283 17.9867 106.933 17.8267 107.616 17.592L108.704 17.24L108.64 16.952C108.576 16.7387 108.523 16.28 108.48 15.576C108.395 14.4453 108.277 13.816 108.128 13.688C108.021 13.624 108.021 13.5173 108.128 13.368C108.235 13.1973 108.309 13.112 108.352 13.112C108.395 13.112 108.48 13.0907 108.608 13.048C108.757 13.0053 108.96 13.0587 109.216 13.208C109.472 13.336 109.632 13.4 109.696 13.4C110.08 13.4 110.613 13.7947 111.296 14.584L111.904 15.32L111.808 15.704C111.723 15.9813 111.691 16.1413 111.712 16.184C111.733 16.2053 111.861 16.184 112.096 16.12C112.587 15.9707 112.928 16.0027 113.12 16.216C113.205 16.3227 113.376 16.3867 113.632 16.408C113.909 16.4293 114.059 16.3867 114.08 16.28C114.101 16.216 114.144 15.8107 114.208 15.064C114.293 14.296 114.389 13.5493 114.496 12.824C114.603 12.0987 114.635 11.7147 114.592 11.672C114.549 11.6293 114.304 11.7253 113.856 11.96C113.109 12.3013 112.128 12.6213 110.912 12.92C110.528 13.0267 110.133 13.016 109.728 12.888C109.323 12.76 109.035 12.6853 108.864 12.664C108.715 12.6213 108.501 12.536 108.224 12.408C107.968 12.28 107.776 12.2053 107.648 12.184C107.477 12.184 107.221 12.0347 106.88 11.736C106.539 11.4373 106.368 11.2133 106.368 11.064C106.368 10.9573 106.293 10.872 106.144 10.808C105.909 10.68 105.973 10.5947 106.336 10.552C106.528 10.5307 106.827 10.52 107.232 10.52C107.936 10.4773 108.523 10.392 108.992 10.264C109.461 10.136 110.123 9.88 110.976 9.496L112.256 8.856C113.259 8.42933 113.76 8.16267 113.76 8.056C113.76 7.97067 113.931 7.90667 114.272 7.864C114.507 7.8 114.656 7.75733 114.72 7.736C114.784 7.69333 114.837 7.59733 114.88 7.448C114.965 7.21333 115.04 7.10667 115.104 7.128ZM97.728 4.92C97.6427 4.81333 97.664 4.78133 97.792 4.824C97.8773 4.824 98.048 4.84533 98.304 4.888C98.5813 4.97333 98.976 5.02667 99.488 5.048C100.021 5.048 100.341 5.10133 100.448 5.208C100.576 5.29333 100.768 5.368 101.024 5.432C101.28 5.47467 101.483 5.56 101.632 5.688C101.803 5.79467 102.027 5.86933 102.304 5.912C102.603 5.95467 102.763 5.976 102.784 5.976C102.848 5.99733 102.912 6.53067 102.976 7.576C102.997 7.98133 103.019 8.216 103.04 8.28C103.083 8.344 103.051 8.44 102.944 8.568C102.859 8.696 102.816 8.86667 102.816 9.08C102.816 9.272 102.773 9.496 102.688 9.752C102.603 9.944 102.528 10.0613 102.464 10.104C102.421 10.1253 102.325 10.1253 102.176 10.104C101.941 10.0827 101.781 10.0187 101.696 9.912C101.632 9.80533 101.547 9.752 101.44 9.752C101.227 9.752 100.896 9.44267 100.448 8.824C100 8.20533 99.776 7.75733 99.776 7.48C99.776 7.352 99.6373 6.98933 99.36 6.392C99.1253 5.944 98.9547 5.67733 98.848 5.592C98.7627 5.48533 98.6133 5.37867 98.4 5.272C98.0373 5.144 97.8133 5.02666 97.728 4.92Z" fill="black"/>
</svg>
